<?xml version="1.0" encoding="UTF-8" standalone="no"?>
<svg width="305px" height="46px" viewBox="0 0 305 46" version="1.1" xmlns="http://www.w3.org/2000/svg" xmlns:xlink="http://www.w3.org/1999/xlink" xmlns:sketch="http://www.bohemiancoding.com/sketch/ns">
    <!-- Generator: Sketch 3.4.2 (15857) - http://www.bohemiancoding.com/sketch -->
    <title>logo-extended</title>
    <desc>Created with Sketch.</desc>
    <defs></defs>
    <g id="Page-1" stroke="none" stroke-width="1" fill="none" fill-rule="evenodd" sketch:type="MSPage">
        <g id="Home" sketch:type="MSArtboardGroup" transform="translate(-124.000000, -19.000000)">
            <g id="logo-extended" sketch:type="MSLayerGroup" transform="translate(124.000000, 19.000000)">
                <path d="M121.238384,7.76886923 C121.238384,5.06636923 119.032659,2.85925385 116.331862,2.85925385 C113.631065,2.85925385 111.424457,5.06636923 111.424457,7.76886923 L111.424457,14.8104077 C111.424457,17.5137923 113.631065,19.7209077 116.331862,19.7209077 C119.032659,19.7209077 121.238384,17.5137923 121.238384,14.8104077 L121.238384,7.76886923 Z M116.331862,21.2079462 C112.813312,21.2079462 109.938355,18.3320615 109.938355,14.8104077 L109.938355,7.76886923 C109.938355,4.2481 112.813312,1.37133077 116.331862,1.37133077 C119.850413,1.37133077 122.72537,4.2481 122.72537,7.76886923 L122.72537,14.8104077 C122.72537,18.3320615 119.850413,21.2079462 116.331862,21.2079462 Z M133.624655,11.7859077 C133.624655,9.92556154 132.13767,8.43852308 130.27938,8.43852308 C128.42109,8.43852308 126.934104,9.92556154 126.934104,11.7859077 L126.934104,16.3735231 C126.934104,18.2329846 128.42109,19.7209077 130.27938,19.7209077 C132.13767,19.7209077 133.624655,18.2329846 133.624655,16.3735231 L133.624655,11.7859077 Z M126.934104,25.1754462 C126.934104,25.6717154 126.5628,25.9194077 126.190612,25.9194077 C125.819307,25.9194077 125.447119,25.6717154 125.447119,25.1754462 L125.447119,11.7859077 C125.447119,9.10817692 127.602452,6.9506 130.27938,6.9506 C132.955423,6.9506 135.111641,9.10817692 135.111641,11.7859077 L135.111641,16.3735231 C135.111641,19.0512538 132.955423,21.2079462 130.27938,21.2079462 C128.96567,21.2079462 127.776612,20.5639462 126.934104,19.6457154 L126.934104,25.1754462 Z M146.013578,11.7859077 C146.013578,9.92556154 144.526593,8.43852308 142.668303,8.43852308 C140.809129,8.43852308 139.323028,9.92556154 139.323028,11.7859077 L139.323028,12.7775615 L146.013578,12.7775615 L146.013578,11.7859077 Z M146.757071,14.2654846 L139.323028,14.2654846 L139.323028,16.3735231 C139.323028,18.1586769 141.008042,19.7209077 142.915839,19.7209077 C143.858245,19.7209077 144.997796,19.4475615 145.715651,18.5302154 C145.888926,18.3072923 146.137346,18.2082154 146.335375,18.2082154 C146.731433,18.2082154 147.103622,18.5302154 147.103622,18.9274077 C147.103622,19.0760231 147.054114,19.2494077 146.954216,19.3980231 C146.013578,20.6382538 144.427578,21.2079462 142.915839,21.2079462 C140.314057,21.2079462 137.836042,19.1007923 137.836042,16.3735231 L137.836042,11.7859077 C137.836042,9.10817692 139.991375,6.9506 142.668303,6.9506 C145.344346,6.9506 147.500564,9.10817692 147.500564,11.7859077 L147.500564,13.5215231 C147.500564,13.9187154 147.153129,14.2654846 146.757071,14.2654846 Z M159.143696,20.9603423 C158.772391,20.9603423 158.400203,20.71265 158.400203,20.2163808 L158.400203,11.7859962 C158.400203,9.92565 156.914101,8.43861154 155.054928,8.43861154 C153.197522,8.43861154 151.709652,9.92565 151.709652,11.7859962 L151.709652,20.2163808 C151.709652,20.71265 151.338348,20.9603423 150.966159,20.9603423 C150.595739,20.9603423 150.223551,20.71265 150.223551,20.2163808 L150.223551,11.7859962 C150.223551,9.10826538 152.378884,6.95068846 155.054928,6.95068846 C157.730971,6.95068846 159.887188,9.10826538 159.887188,11.7859962 L159.887188,20.2163808 C159.887188,20.71265 159.515884,20.9603423 159.143696,20.9603423 Z M179.361306,8.01682692 C179.361306,5.31432692 177.155581,3.10721154 174.454784,3.10721154 L170.043335,3.10721154 L170.043335,19.4725962 L174.454784,19.4725962 C177.155581,19.4725962 179.361306,17.2654808 179.361306,14.5629808 L179.361306,8.01682692 Z M174.454784,20.9605192 L169.299842,20.9605192 C168.903784,20.9605192 168.556349,20.6128654 168.556349,20.2165577 L168.556349,2.36325 C168.556349,1.96694231 168.903784,1.61928846 169.299842,1.61928846 L174.454784,1.61928846 C177.973335,1.61928846 180.848291,4.49605769 180.848291,8.01682692 L180.848291,14.5629808 C180.848291,18.08375 177.973335,20.9605192 174.454784,20.9605192 Z M190.707306,13.8687346 L187.511436,14.5631577 C185.800784,14.9346962 184.685103,15.9272346 184.685103,17.19135 C184.685103,18.7288115 185.875045,19.7204654 187.683828,19.7204654 C189.419233,19.7204654 190.707306,18.5554269 190.707306,16.9436577 L190.707306,13.8687346 Z M187.708581,21.2083885 C185.354335,21.2083885 183.199001,19.8195423 183.199001,17.2161192 C183.199001,14.7365423 185.280074,13.5210808 187.535306,13.0504654 L190.707306,12.3808115 L190.707306,11.2148885 C190.707306,9.55446538 189.765784,8.43808077 187.758972,8.43808077 C186.817451,8.43808077 186.196842,8.73619615 185.677016,9.13250385 C185.181059,9.52969615 185.057291,9.92600385 184.537465,9.92600385 C184.166161,9.92600385 183.818726,9.62877308 183.818726,9.20681154 C183.818726,8.93435 183.992001,8.68665769 184.166161,8.48761923 C185.057291,7.47119615 186.395755,6.95015769 187.758972,6.95015769 C190.558784,6.95015769 192.194291,8.73619615 192.194291,11.2148885 L192.194291,16.9436577 C192.194291,19.4975423 190.112335,21.2083885 187.708581,21.2083885 Z M202.947707,20.3154577 C202.20333,20.8612654 201.262693,21.2080346 200.320287,21.2080346 C198.1402,21.2080346 196.5542,19.6953423 196.5542,17.7120346 L196.5542,8.68630385 L194.298968,8.68630385 C193.803012,8.68630385 193.555475,8.31476538 193.555475,7.94234231 C193.555475,7.57080385 193.803012,7.19838077 194.298968,7.19838077 L196.5542,7.19838077 L196.5542,4.04915 C196.5542,3.55376538 196.925504,3.30518846 197.296809,3.30518846 C197.668997,3.30518846 198.040301,3.55376538 198.040301,4.04915 L198.040301,7.19838077 L202.426997,7.19838077 C202.922954,7.19838077 203.17049,7.57080385 203.17049,7.94234231 C203.17049,8.31476538 202.922954,8.68630385 202.426997,8.68630385 L198.040301,8.68630385 L198.040301,17.7120346 C198.040301,18.80365 198.882809,19.7209962 200.320287,19.7209962 C201.683504,19.7209962 202.154707,18.8275346 202.724041,18.8275346 C203.120099,18.8275346 203.443664,19.1999577 203.443664,19.59715 C203.443664,19.91915 203.195243,20.1173038 202.947707,20.3154577 Z M212.18797,13.8687346 L208.991216,14.5631577 C207.281448,14.9346962 206.165767,15.9272346 206.165767,17.19135 C206.165767,18.7288115 207.355709,19.7204654 209.164491,19.7204654 C210.899897,19.7204654 212.18797,18.5554269 212.18797,16.9436577 L212.18797,13.8687346 Z M209.189245,21.2083885 C206.834999,21.2083885 204.679665,19.8195423 204.679665,17.2161192 C204.679665,14.7365423 206.760738,13.5210808 209.01597,13.0504654 L212.18797,12.3808115 L212.18797,11.2148885 C212.18797,9.55446538 211.246448,8.43808077 209.239636,8.43808077 C208.298114,8.43808077 207.677506,8.73619615 207.15768,9.13250385 C206.661723,9.52969615 206.537955,9.92600385 206.018129,9.92600385 C205.646825,9.92600385 205.29939,9.62877308 205.29939,9.20681154 C205.29939,8.93435 205.472665,8.68665769 205.646825,8.48761923 C206.537955,7.47119615 207.876419,6.95015769 209.239636,6.95015769 C212.039448,6.95015769 213.674955,8.73619615 213.674955,11.2148885 L213.674955,16.9436577 C213.674955,19.4975423 211.592999,21.2083885 209.189245,21.2083885 Z M229.110342,3.40453077 C228.663893,3.40453077 228.267835,2.85872308 227.251168,2.85872308 C225.81369,2.85872308 224.971183,3.77606923 224.971183,4.86768462 L224.971183,7.19864615 L228.688646,7.19864615 C229.184603,7.19864615 229.432139,7.57018462 229.432139,7.94260769 C229.432139,8.31414615 229.184603,8.68656923 228.688646,8.68656923 L224.971183,8.68656923 L224.971183,20.2166462 C224.971183,20.7120308 224.599878,20.9606077 224.228574,20.9606077 C223.85727,20.9606077 223.485081,20.7120308 223.485081,20.2166462 L223.485081,8.68656923 L221.229849,8.68656923 C220.733893,8.68656923 220.486357,8.31414615 220.486357,7.94260769 C220.486357,7.57018462 220.733893,7.19864615 221.229849,7.19864615 L223.485081,7.19864615 L223.485081,4.86768462 C223.485081,2.88437692 225.071081,1.37168462 227.251168,1.37168462 C228.094559,1.37168462 228.886675,1.61937692 229.457777,1.96703077 C229.705313,2.14041538 229.853835,2.38810769 229.853835,2.61103077 C229.853835,3.00822308 229.532038,3.40453077 229.110342,3.40453077 Z M238.896245,11.7859077 C238.896245,9.92556154 237.409259,8.43852308 235.55097,8.43852308 C233.691796,8.43852308 232.205694,9.92556154 232.205694,11.7859077 L232.205694,16.3735231 C232.205694,18.2329846 233.691796,19.7209077 235.55097,19.7209077 C237.409259,19.7209077 238.896245,18.2329846 238.896245,16.3735231 L238.896245,11.7859077 Z M235.55097,21.2079462 C232.874042,21.2079462 230.718709,19.0512538 230.718709,16.3735231 L230.718709,11.7859077 C230.718709,9.10817692 232.874042,6.9506 235.55097,6.9506 C238.227013,6.9506 240.38323,9.10817692 240.38323,11.7859077 L240.38323,16.3735231 C240.38323,19.0512538 238.227013,21.2079462 235.55097,21.2079462 Z M250.119626,9.43017692 C249.946351,9.43017692 249.772191,9.35586923 249.598916,9.20725385 C249.598916,9.20725385 249.549409,9.15771538 249.475148,9.10817692 C248.955322,8.68621538 248.260452,8.43852308 247.566467,8.43852308 C245.783322,8.43852308 244.717148,9.72740769 244.717148,11.9592923 L244.717148,20.2162923 C244.717148,20.7125615 244.345843,20.9602538 243.973655,20.9602538 C243.602351,20.9602538 243.230162,20.7125615 243.230162,20.2162923 L243.230162,11.9592923 C243.230162,9.20725385 244.692394,6.9506 247.566467,6.9506 C248.583133,6.9506 249.895959,7.39733077 250.639452,8.16517692 C250.812728,8.33944615 250.886988,8.51283077 250.886988,8.68621538 C250.886988,9.08252308 250.541322,9.43017692 250.119626,9.43017692 Z M115.588723,27.8990885 L111.920767,27.8990885 L111.920767,37.2468192 L115.588723,37.2468192 C118.140999,37.2468192 120.271578,35.2139731 120.271578,32.5848962 C120.271578,29.9814731 118.165752,27.8990885 115.588723,27.8990885 Z M121.015071,45.7523962 C120.792288,45.7523962 120.569506,45.6524346 120.420984,45.4047423 L116.158941,38.7099731 C115.984781,38.7347423 115.786752,38.7347423 115.588723,38.7347423 L111.920767,38.7347423 L111.920767,45.0084346 C111.920767,45.5038192 111.549462,45.7523962 111.177274,45.7523962 C110.80597,45.7523962 110.433781,45.5038192 110.433781,45.0084346 L110.433781,27.1551269 C110.433781,26.7579346 110.781216,26.4111654 111.177274,26.4111654 L115.588723,26.4111654 C118.983506,26.4111654 121.758564,29.1632038 121.758564,32.5610115 C121.758564,35.2387423 120.073549,37.4953962 117.719303,38.3632038 L121.659549,44.6112423 C121.758564,44.7607423 121.808071,44.8845885 121.808071,45.0332038 C121.808071,45.4295115 121.412013,45.7523962 121.015071,45.7523962 Z M132.337467,36.5776077 C132.337467,34.7172615 130.850481,33.2302231 128.992191,33.2302231 C127.133017,33.2302231 125.646916,34.7172615 125.646916,36.5776077 L125.646916,37.5692615 L132.337467,37.5692615 L132.337467,36.5776077 Z M133.080959,39.0571846 L125.646916,39.0571846 L125.646916,41.1652231 C125.646916,42.9503769 127.33193,44.5126077 129.239728,44.5126077 C130.182133,44.5126077 131.321684,44.2392615 132.039539,43.3219154 C132.212814,43.0989923 132.461235,42.9999154 132.659264,42.9999154 C133.055322,42.9999154 133.42751,43.3219154 133.42751,43.7191077 C133.42751,43.8677231 133.378003,44.0411077 133.278104,44.1897231 C132.337467,45.4299538 130.751467,45.9996462 129.239728,45.9996462 C126.637945,45.9996462 124.15993,43.8924923 124.15993,41.1652231 L124.15993,36.5776077 C124.15993,33.8998769 126.315264,31.7423 128.992191,31.7423 C131.668235,31.7423 133.824452,33.8998769 133.824452,36.5776077 L133.824452,38.3132231 C133.824452,38.7104154 133.477017,39.0571846 133.080959,39.0571846 Z M139.966799,46 C138.702596,46 136.968074,45.4294231 136.199828,44.2891538 C136.101697,44.1405385 136.051306,43.9910385 136.051306,43.8671923 C136.051306,43.4461154 136.423494,43.1241154 136.819552,43.1241154 C137.042335,43.1241154 137.241248,43.1984231 137.414523,43.4461154 C137.414523,43.4461154 137.46403,43.4956538 137.538291,43.5699615 C138.158016,44.2148462 139.074784,44.5120769 139.966799,44.5120769 C141.900233,44.5120769 143.089291,43.3965769 143.089291,42.0820385 C143.089291,38.5612692 136.125567,39.8501538 136.125567,35.2881923 C136.125567,32.9324615 138.18277,31.7417692 140.140074,31.7417692 C141.528929,31.7417692 143.163552,32.4866154 143.931799,33.7011923 C144.006059,33.8250385 144.055567,33.9736538 144.055567,34.1222692 C144.055567,34.5194615 143.659509,34.8414615 143.28732,34.8414615 C143.064538,34.8414615 142.841755,34.7423846 142.66848,34.4946923 C142.66848,34.4946923 142.618088,34.4451538 142.543828,34.3213077 C141.949741,33.6516538 141.08248,33.2296923 140.140074,33.2296923 C138.653972,33.2296923 137.612552,34.0736154 137.612552,35.2881923 C137.612552,38.3631154 144.576277,37.2219615 144.576277,42.0820385 C144.576277,44.4873077 142.420059,46 139.966799,46 Z M147.795486,45.7520423 C147.424181,45.7520423 147.051993,45.50435 147.051993,45.0080808 L147.051993,32.7340423 C147.051993,32.2386577 147.424181,31.9900808 147.795486,31.9900808 C148.167674,31.9900808 148.538978,32.2386577 148.538978,32.7340423 L148.538978,45.0080808 C148.538978,45.50435 148.167674,45.7520423 147.795486,45.7520423 Z M147.795486,26.7089269 C148.340949,26.7089269 148.786514,27.1547731 148.786514,27.7005808 C148.786514,28.2455038 148.340949,28.6922346 147.795486,28.6922346 C147.250906,28.6922346 146.804457,28.2455038 146.804457,27.7005808 C146.804457,27.1547731 147.250906,26.7089269 147.795486,26.7089269 Z M154.014126,46 C153.939865,46 153.816097,46 153.717083,45.9504615 C153.717083,45.9504615 153.568561,45.9009231 153.321025,45.7275385 C152.032068,44.9092692 151.511358,43.3470385 151.511358,41.8591154 L151.511358,27.1550385 C151.511358,26.6587692 151.883546,26.4110769 152.254851,26.4110769 C152.627039,26.4110769 152.998343,26.6587692 152.998343,27.1550385 L152.998343,41.8591154 C152.998343,42.7764615 153.296271,44.1405385 154.261662,44.5616154 C154.583459,44.7102308 154.732865,44.9835769 154.732865,45.2560385 C154.732865,45.6284615 154.434938,46 154.014126,46 Z M157.208935,45.7520423 C156.83763,45.7520423 156.465442,45.50435 156.465442,45.0080808 L156.465442,32.7340423 C156.465442,32.2386577 156.83763,31.9900808 157.208935,31.9900808 C157.581123,31.9900808 157.952428,32.2386577 157.952428,32.7340423 L157.952428,45.0080808 C157.952428,45.50435 157.581123,45.7520423 157.208935,45.7520423 Z M157.208935,26.7089269 C157.754399,26.7089269 158.199964,27.1547731 158.199964,27.7005808 C158.199964,28.2455038 157.754399,28.6922346 157.208935,28.6922346 C156.664355,28.6922346 156.217906,28.2455038 156.217906,27.7005808 C156.217906,27.1547731 156.664355,26.7089269 157.208935,26.7089269 Z M168.979636,36.5776077 C168.979636,34.7172615 167.492651,33.2302231 165.634361,33.2302231 C163.775187,33.2302231 162.289086,34.7172615 162.289086,36.5776077 L162.289086,37.5692615 L168.979636,37.5692615 L168.979636,36.5776077 Z M169.723129,39.0571846 L162.289086,39.0571846 L162.289086,41.1652231 C162.289086,42.9503769 163.9741,44.5126077 165.881897,44.5126077 C166.824303,44.5126077 167.963854,44.2392615 168.681709,43.3219154 C168.854984,43.0989923 169.103404,42.9999154 169.301433,42.9999154 C169.697491,42.9999154 170.06968,43.3219154 170.06968,43.7191077 C170.06968,43.8677231 170.020172,44.0411077 169.920274,44.1897231 C168.979636,45.4299538 167.393636,45.9996462 165.881897,45.9996462 C163.280114,45.9996462 160.8021,43.8924923 160.8021,41.1652231 L160.8021,36.5776077 C160.8021,33.8998769 162.957433,31.7423 165.634361,31.7423 C168.310404,31.7423 170.466622,33.8998769 170.466622,36.5776077 L170.466622,38.3132231 C170.466622,38.7104154 170.119187,39.0571846 169.723129,39.0571846 Z M182.110196,45.7520423 C181.738891,45.7520423 181.366703,45.50435 181.366703,45.0080808 L181.366703,36.5776962 C181.366703,34.71735 179.880601,33.2303115 178.021428,33.2303115 C176.163138,33.2303115 174.676152,34.71735 174.676152,36.5776962 L174.676152,45.0080808 C174.676152,45.50435 174.304848,45.7520423 173.932659,45.7520423 C173.561355,45.7520423 173.189167,45.50435 173.189167,45.0080808 L173.189167,36.5776962 C173.189167,33.8999654 175.345384,31.7423885 178.021428,31.7423885 C180.697471,31.7423885 182.853688,33.8999654 182.853688,36.5776962 L182.853688,45.0080808 C182.853688,45.50435 182.482384,45.7520423 182.110196,45.7520423 Z M194.423974,44.1897231 C194.423974,44.1897231 194.324959,44.3135692 194.1508,44.5126077 C193.185409,45.5290308 191.772684,45.9996462 190.385597,45.9996462 C187.634409,45.9996462 185.701858,44.2888 185.701858,41.7349154 L185.701858,36.0070308 C185.701858,33.4531462 187.634409,31.7423 190.385597,31.7423 C191.74793,31.7423 193.60622,32.3376462 194.423974,33.5522231 C194.522988,33.7017231 194.548626,33.8503385 194.548626,33.9741846 C194.548626,34.3952615 194.176438,34.7172615 193.779496,34.7172615 C193.581467,34.7172615 193.358684,34.6429538 193.185409,34.3952615 C193.185409,34.3952615 193.159771,34.3457231 193.061641,34.2466462 C192.392409,33.5274538 191.350988,33.2302231 190.385597,33.2302231 C188.32751,33.2302231 187.187959,34.4200308 187.187959,36.0070308 L187.187959,41.7349154 C187.187959,43.3219154 188.32751,44.5126077 190.385597,44.5126077 C191.326235,44.5126077 192.615191,44.1649538 193.185409,43.3466846 C193.358684,43.1237615 193.581467,43.0246846 193.779496,43.0246846 C194.176438,43.0246846 194.572496,43.3466846 194.572496,43.7438769 C194.572496,43.8924923 194.522988,44.0411077 194.423974,44.1897231 Z M205.102599,36.5776077 C205.102599,34.7172615 203.615613,33.2302231 201.757323,33.2302231 C199.898149,33.2302231 198.412048,34.7172615 198.412048,36.5776077 L198.412048,37.5692615 L205.102599,37.5692615 L205.102599,36.5776077 Z M205.846091,39.0571846 L198.412048,39.0571846 L198.412048,41.1652231 C198.412048,42.9503769 200.097062,44.5126077 202.004859,44.5126077 C202.947265,44.5126077 204.086816,44.2392615 204.804671,43.3219154 C204.977946,43.0989923 205.226367,42.9999154 205.424396,42.9999154 C205.820454,42.9999154 206.192642,43.3219154 206.192642,43.7191077 C206.192642,43.8677231 206.143135,44.0411077 206.043236,44.1897231 C205.102599,45.4299538 203.516599,45.9996462 202.004859,45.9996462 C199.403077,45.9996462 196.925062,43.8924923 196.925062,41.1652231 L196.925062,36.5776077 C196.925062,33.8998769 199.080396,31.7423 201.757323,31.7423 C204.433367,31.7423 206.589584,33.8998769 206.589584,36.5776077 L206.589584,38.3132231 C206.589584,38.7104154 206.242149,39.0571846 205.846091,39.0571846 Z M222.693142,45.7520423 L214.763142,45.7520423 C214.26807,45.7520423 214.019649,45.3805038 214.019649,45.0080808 C214.019649,44.6365423 214.26807,44.2641192 214.763142,44.2641192 L217.985533,44.2641192 L217.985533,27.8987346 L214.763142,27.8987346 C214.26807,27.8987346 214.019649,27.5263115 214.019649,27.1547731 C214.019649,26.7832346 214.26807,26.4108115 214.763142,26.4108115 L222.693142,26.4108115 C223.189099,26.4108115 223.436635,26.7832346 223.436635,27.1547731 C223.436635,27.5263115 223.189099,27.8987346 222.693142,27.8987346 L219.471635,27.8987346 L219.471635,44.2641192 L222.693142,44.2641192 C223.189099,44.2641192 223.436635,44.6365423 223.436635,45.0080808 C223.436635,45.3805038 223.189099,45.7520423 222.693142,45.7520423 Z M234.585578,45.7520423 C234.214274,45.7520423 233.842086,45.50435 233.842086,45.0080808 L233.842086,36.5776962 C233.842086,34.71735 232.355984,33.2303115 230.49681,33.2303115 C228.63852,33.2303115 227.151535,34.71735 227.151535,36.5776962 L227.151535,45.0080808 C227.151535,45.50435 226.78023,45.7520423 226.408042,45.7520423 C226.036738,45.7520423 225.664549,45.50435 225.664549,45.0080808 L225.664549,36.5776962 C225.664549,33.8999654 227.820767,31.7423885 230.49681,31.7423885 C233.172854,31.7423885 235.329071,33.8999654 235.329071,36.5776962 L235.329071,45.0080808 C235.329071,45.50435 234.957767,45.7520423 234.585578,45.7520423 Z M239.042999,45.7520423 C238.671694,45.7520423 238.299506,45.50435 238.299506,45.0080808 L238.299506,32.7340423 C238.299506,32.2386577 238.671694,31.9900808 239.042999,31.9900808 C239.415187,31.9900808 239.786491,32.2386577 239.786491,32.7340423 L239.786491,45.0080808 C239.786491,45.50435 239.415187,45.7520423 239.042999,45.7520423 Z M239.042999,26.7089269 C239.588462,26.7089269 240.034028,27.1547731 240.034028,27.7005808 C240.034028,28.2455038 239.588462,28.6922346 239.042999,28.6922346 C238.498419,28.6922346 238.05197,28.2455038 238.05197,27.7005808 C238.05197,27.1547731 238.498419,26.7089269 239.042999,26.7089269 Z M250.665267,45.1071577 C249.92089,45.6529654 248.980252,45.9997346 248.037846,45.9997346 C245.857759,45.9997346 244.271759,44.4870423 244.271759,42.5037346 L244.271759,33.4780038 L242.016528,33.4780038 C241.520571,33.4780038 241.273035,33.1064654 241.273035,32.7340423 C241.273035,32.3625038 241.520571,31.9900808 242.016528,31.9900808 L244.271759,31.9900808 L244.271759,28.84085 C244.271759,28.3454654 244.643064,28.0968885 245.014368,28.0968885 C245.386557,28.0968885 245.757861,28.3454654 245.757861,28.84085 L245.757861,31.9900808 L250.144557,31.9900808 C250.640513,31.9900808 250.888049,32.3625038 250.888049,32.7340423 C250.888049,33.1064654 250.640513,33.4780038 250.144557,33.4780038 L245.757861,33.4780038 L245.757861,42.5037346 C245.757861,43.59535 246.600368,44.5126962 248.037846,44.5126962 C249.401064,44.5126962 249.872267,43.6192346 250.4416,43.6192346 C250.837658,43.6192346 251.161223,43.9916577 251.161223,44.38885 C251.161223,44.71085 250.912803,44.9090038 250.665267,45.1071577 Z M253.635967,45.7520423 C253.264662,45.7520423 252.892474,45.50435 252.892474,45.0080808 L252.892474,32.7340423 C252.892474,32.2386577 253.264662,31.9900808 253.635967,31.9900808 C254.008155,31.9900808 254.379459,32.2386577 254.379459,32.7340423 L254.379459,45.0080808 C254.379459,45.50435 254.008155,45.7520423 253.635967,45.7520423 Z M253.635967,26.7089269 C254.18143,26.7089269 254.626996,27.1547731 254.626996,27.7005808 C254.626996,28.2455038 254.18143,28.6922346 253.635967,28.6922346 C253.091387,28.6922346 252.644938,28.2455038 252.644938,27.7005808 C252.644938,27.1547731 253.091387,26.7089269 253.635967,26.7089269 Z M264.364717,38.6604346 L261.167964,39.3548577 C259.458196,39.7263962 258.342514,40.7189346 258.342514,41.98305 C258.342514,43.5205115 259.532457,44.5121654 261.341239,44.5121654 C263.076645,44.5121654 264.364717,43.3471269 264.364717,41.7353577 L264.364717,38.6604346 Z M261.365993,46.0000885 C259.011746,46.0000885 256.856413,44.6112423 256.856413,42.0078192 C256.856413,39.5282423 258.937486,38.3127808 261.192717,37.8421654 L264.364717,37.1725115 L264.364717,36.0065885 C264.364717,34.3461654 263.423196,33.2297808 261.416384,33.2297808 C260.474862,33.2297808 259.854254,33.5278962 259.334428,33.9242038 C258.838471,34.3213962 258.714703,34.7177038 258.194877,34.7177038 C257.823572,34.7177038 257.476138,34.4204731 257.476138,33.9985115 C257.476138,33.72605 257.649413,33.4783577 257.823572,33.2793192 C258.714703,32.2628962 260.053167,31.7418577 261.416384,31.7418577 C264.216196,31.7418577 265.851703,33.5278962 265.851703,36.0065885 L265.851703,41.7353577 C265.851703,44.2892423 263.769746,46.0000885 261.365993,46.0000885 Z M276.605119,45.1071577 C275.860742,45.6529654 274.920104,45.9997346 273.977699,45.9997346 C271.797612,45.9997346 270.211612,44.4870423 270.211612,42.5037346 L270.211612,33.4780038 L267.95638,33.4780038 C267.460423,33.4780038 267.212887,33.1064654 267.212887,32.7340423 C267.212887,32.3625038 267.460423,31.9900808 267.95638,31.9900808 L270.211612,31.9900808 L270.211612,28.84085 C270.211612,28.3454654 270.582916,28.0968885 270.95422,28.0968885 C271.326409,28.0968885 271.697713,28.3454654 271.697713,28.84085 L271.697713,31.9900808 L276.084409,31.9900808 C276.580365,31.9900808 276.827901,32.3625038 276.827901,32.7340423 C276.827901,33.1064654 276.580365,33.4780038 276.084409,33.4780038 L271.697713,33.4780038 L271.697713,42.5037346 C271.697713,43.59535 272.54022,44.5126962 273.977699,44.5126962 C275.340916,44.5126962 275.812119,43.6192346 276.381452,43.6192346 C276.77751,43.6192346 277.101075,43.9916577 277.101075,44.38885 C277.101075,44.71085 276.852655,44.9090038 276.605119,45.1071577 Z M279.575819,45.7520423 C279.204514,45.7520423 278.832326,45.50435 278.832326,45.0080808 L278.832326,32.7340423 C278.832326,32.2386577 279.204514,31.9900808 279.575819,31.9900808 C279.948007,31.9900808 280.319312,32.2386577 280.319312,32.7340423 L280.319312,45.0080808 C280.319312,45.50435 279.948007,45.7520423 279.575819,45.7520423 Z M279.575819,26.7089269 C280.121283,26.7089269 280.566848,27.1547731 280.566848,27.7005808 C280.566848,28.2455038 280.121283,28.6922346 279.575819,28.6922346 C279.031239,28.6922346 278.58479,28.2455038 278.58479,27.7005808 C278.58479,27.1547731 279.031239,26.7089269 279.575819,26.7089269 Z M293.155303,33.0067692 L288.44681,45.2808077 C288.298288,45.678 288.025999,45.8761538 287.753709,45.8761538 C287.480535,45.8761538 287.207361,45.678 287.058839,45.2808077 L282.350346,33.0067692 C282.326477,32.9076923 282.301723,32.8086154 282.301723,32.7095385 C282.301723,32.2875769 282.697781,31.9903462 283.06997,31.9903462 C283.342259,31.9903462 283.614549,32.1389615 283.739201,32.4609615 L287.753709,42.9250769 L291.768216,32.4609615 C291.916738,32.1389615 292.164274,31.9903462 292.437448,31.9903462 C292.833506,31.9903462 293.229564,32.2875769 293.229564,32.7095385 C293.229564,32.8086154 293.20481,32.9076923 293.155303,33.0067692 Z M303.263268,36.5776077 C303.263268,34.7172615 301.776283,33.2302231 299.917993,33.2302231 C298.058819,33.2302231 296.572717,34.7172615 296.572717,36.5776077 L296.572717,37.5692615 L303.263268,37.5692615 L303.263268,36.5776077 Z M304.006761,39.0571846 L296.572717,39.0571846 L296.572717,41.1652231 C296.572717,42.9503769 298.257732,44.5126077 300.165529,44.5126077 C301.107935,44.5126077 302.247486,44.2392615 302.965341,43.3219154 C303.138616,43.0989923 303.387036,42.9999154 303.585065,42.9999154 C303.981123,42.9999154 304.353312,43.3219154 304.353312,43.7191077 C304.353312,43.8677231 304.303804,44.0411077 304.203906,44.1897231 C303.263268,45.4299538 301.677268,45.9996462 300.165529,45.9996462 C297.563746,45.9996462 295.085732,43.8924923 295.085732,41.1652231 L295.085732,36.5776077 C295.085732,33.8998769 297.241065,31.7423 299.917993,31.7423 C302.594036,31.7423 304.750254,33.8998769 304.750254,36.5776077 L304.750254,38.3132231 C304.750254,38.7104154 304.402819,39.0571846 304.006761,39.0571846 L304.006761,39.0571846 Z" id="Fill-1" fill="#555555" sketch:type="MSShapeGroup"></path>
                <path d="M86.9875913,1.84468846 C86.9875913,1.19449615 86.4606928,0.667265385 85.8109101,0.667265385 C85.1611275,0.667265385 84.634229,1.19449615 84.634229,1.84468846 L84.634229,43.35615 L76.6688667,43.35615 L67.0087652,28.22215 C72.7745913,26.4484962 77.0543159,21.0673808 77.0543159,14.7406115 C77.0543159,6.93565 70.6944029,0.667265385 62.8483884,0.667265385 L52.2679826,0.667265385 C51.6137797,0.667265385 51.0789246,1.19980385 51.0789246,1.84999615 L51.0789246,44.4247654 C51.0789246,45.1934962 51.6730116,45.6066115 52.2679826,45.6066115 C52.8620696,45.6066115 53.4561565,45.1934962 53.4561565,44.4247654 L53.4561565,3.03272692 L62.8483884,3.03272692 C69.3859971,3.03272692 74.6762,8.23603462 74.6762,14.7406115 C74.6762,20.0943038 71.092229,24.6058423 66.1777507,26.0344962 C65.2238522,26.3122654 64.5837942,27.2092654 64.5837942,28.2026885 C64.5837942,28.6370346 64.7075623,29.0607654 64.9409536,29.4261115 L74.9202,45.0554962 C75.1871855,45.4748038 75.6504319,45.7286885 76.1472725,45.7286885 L85.4077797,45.7286885 C86.2803449,45.7286885 86.9875913,45.0201115 86.9875913,44.1478808 L86.9875913,1.84468846 Z M45.1183406,15.7928615 C45.1183406,9.0689 39.6840362,3.63205385 32.9651957,3.63205385 L21.9798913,3.63205385 L21.9798913,43.3893231 L32.9651957,43.3893231 C39.6840362,43.3893231 45.1183406,37.9524769 45.1183406,31.2285154 L45.1183406,15.7928615 Z M32.9651957,45.7282462 L20.8111667,45.7282462 C20.1684565,45.7282462 19.642442,45.2019 19.642442,44.5587846 L19.642442,2.46259231 C19.642442,1.81947692 20.1684565,1.29313077 20.8111667,1.29313077 L32.9651957,1.29313077 C40.9694565,1.29313077 47.4557899,7.78266923 47.4557899,15.7928615 L47.4557899,31.2285154 C47.4557899,39.2387077 40.9694565,45.7282462 32.9651957,45.7282462 Z M4.87124783,37.1956885 C2.81316087,37.1956885 1.13345072,38.8773423 1.13345072,40.9367269 C1.13345072,42.9952269 2.81316087,44.6768808 4.87124783,44.6768808 L10.2330594,44.6768808 C12.2911464,44.6768808 13.9717406,42.9952269 13.9717406,40.9367269 C13.9717406,38.8773423 12.2911464,37.1956885 10.2330594,37.1956885 L4.87124783,37.1956885 Z M15.1042188,40.9367269 C15.1042188,43.6188808 12.9144072,45.8100731 10.2330594,45.8100731 L4.87124783,45.8100731 C2.19078406,45.8100731 8.84057971e-05,43.6188808 8.84057971e-05,40.9367269 C8.84057971e-05,38.2536885 2.19078406,36.0624962 4.87124783,36.0624962 L10.2330594,36.0624962 C12.9144072,36.0624962 15.1042188,38.2536885 15.1042188,40.9367269 Z M1.32140145,29.2836 L1.32140145,32.0798692 L8.43983623,32.0798692 L8.43983623,29.2836 C8.43983623,27.3188692 6.87240145,25.7132923 4.88945942,25.7132923 C2.90740145,25.7132923 1.32140145,27.3188692 1.32140145,29.2836 Z M9.57231449,29.2836 L9.57231449,32.0798692 L14.3488797,32.0798692 C14.7263725,32.0798692 14.9146768,32.3629462 14.9146768,32.6460231 C14.9146768,32.9299846 14.7263725,33.2130615 14.3488797,33.2130615 L0.755604348,33.2130615 C0.453256522,33.2130615 0.188923188,32.9485615 0.188923188,32.6460231 L0.188923188,29.2836 C0.188923188,26.6952154 2.28414058,24.5792154 4.8708942,24.5792154 C7.4770971,24.5792154 9.57231449,26.6952154 9.57231449,29.2836 Z M14.914942,14.0790077 L14.914942,21.1630077 C14.914942,21.4655462 14.6506087,21.7300462 14.3491449,21.7300462 L0.754985507,21.7300462 C0.452637681,21.7300462 0.189188406,21.4655462 0.189188406,21.1630077 L0.189188406,14.0790077 C0.189188406,13.7012769 0.472086957,13.5128538 0.754985507,13.5128538 C1.03876812,13.5128538 1.32166667,13.7012769 1.32166667,14.0790077 L1.32166667,20.5968538 L6.64546377,20.5968538 L6.64546377,14.6460462 C6.64546377,14.2683154 6.92924638,14.0790077 7.21214493,14.0790077 C7.49504348,14.0790077 7.77882609,14.2683154 7.77882609,14.6460462 L7.77882609,20.5968538 L13.7824638,20.5968538 L13.7824638,14.0790077 C13.7824638,13.7012769 14.0653623,13.5128538 14.3491449,13.5128538 C14.6320435,13.5128538 14.914942,13.7012769 14.914942,14.0790077 Z M15.0095362,1.80293462 C15.0095362,1.99224231 14.8963768,2.20012692 14.6506087,2.35051154 L2.77505797,9.53005 L14.3491449,9.53005 C14.7266377,9.53005 14.914942,9.81312692 14.914942,10.0970885 C14.914942,10.3801654 14.7266377,10.6632423 14.3491449,10.6632423 L0.754985507,10.6632423 C0.340362319,10.6632423 0.0945942029,10.4173192 0.0945942029,10.1537038 C0.0945942029,9.96439615 0.207753623,9.75651154 0.453521739,9.60524231 L12.3290725,2.42658846 L0.754985507,2.42658846 C0.378376812,2.42658846 0.189188406,2.14351154 0.189188406,1.85955 C0.189188406,1.57647308 0.378376812,1.29251154 0.754985507,1.29251154 L14.3491449,1.29251154 C14.7637681,1.29251154 15.0095362,1.53843462 15.0095362,1.80293462 Z" id="Fill-65" fill="#1377C9" sketch:type="MSShapeGroup"></path>
            </g>
        </g>
    </g>
</svg>