<?xml version="1.0" standalone="no"?>
<!DOCTYPE svg PUBLIC "-//W3C//DTD SVG 1.1//EN" "http://www.w3.org/Graphics/SVG/1.1/DTD/svg11.dtd" >
<svg>
<metadata>
Created by FontForge 20090622 at Fri Jul 28 14:01:56 2017
 By deploy user
Copyright (c) 2012 by atipo. All rights reserved.
</metadata>
<defs>
<font id="Bariol-Bold" horiz-adv-x="213" >
  <font-face 
    font-family="Bariol Bold"
    font-weight="700"
    font-stretch="normal"
    units-per-em="1000"
    panose-1="2 0 5 6 4 0 0 2 0 3"
    ascent="787"
    descent="-213"
    x-height="454"
    cap-height="681"
    bbox="-134 -275 1095 1020.07"
    underline-thickness="20"
    underline-position="-113"
    unicode-range="U+0020-U+FB06"
  />
<missing-glyph horiz-adv-x="580" 
d="M309 124h-55v55h55v-55zM305 229h-47v39q0 37 16.5 68t36.5 48t36.5 41t16.5 49q0 33 -22 51.5t-54 18.5q-79 0 -79 -81h-48q0 66 35.5 98.5t92.5 32.5q55 0 90 -30t35 -86q0 -29 -11 -52.5t-27 -40l-32.5 -32t-27.5 -37.5t-11 -48v-39zM88 48h404v603h-404v-603zM40 700
h500v-700h-500v700z" />
    <glyph glyph-name="ellipsis" unicode="&#x2e;&#x2e;&#x2e;" horiz-adv-x="724" 
d="M362 -8q-66 0 -66 65q0 67 66 67q65 0 65 -67q0 -65 -65 -65zM113 -8q-66 0 -66 65q0 67 66 67q65 0 65 -67q0 -65 -65 -65zM612 -8q-66 0 -66 65q0 67 66 67q65 0 65 -67q0 -65 -65 -65z" />
    <glyph glyph-name="f_f" unicode="ff" horiz-adv-x="629" 
d="M389 364h-199v-320q0 -22 -15.5 -37t-38.5 -15q-24 0 -39 14.5t-15 37.5v320h-21q-19 0 -32 13t-13 32t13 32t32 13h21v54q0 75 49.5 126t141.5 51q19 0 33 -13.5t14 -33.5t-14 -33.5t-33 -13.5q-40 0 -61.5 -20.5t-21.5 -54.5v-62h199v54q0 75 49.5 126t141.5 51
q20 0 33.5 -13.5t13.5 -33.5t-13.5 -33.5t-33.5 -13.5q-40 0 -61.5 -20.5t-21.5 -54.5v-62h67q19 0 32 -13t13 -32t-13 -32t-32 -13h-67v-320q0 -22 -15.5 -37t-38.5 -15q-24 0 -39 14.5t-15 37.5v320z" />
    <glyph glyph-name="fi" unicode="fi" horiz-adv-x="525" 
d="M475 400v-354q0 -22 -15.5 -38t-38.5 -16t-38.5 16t-15.5 38v318h-177v-320q0 -22 -15.5 -37t-38.5 -15q-24 0 -39 14.5t-15 37.5v320h-21q-19 0 -32 13t-13 32t13 32t32 13h21v47q0 75 53 129.5t146 54.5q74 0 113 -23q27 -16 27 -45q0 -21 -15 -36t-36 -15q-10 0 -26 6
q-37 13 -63 13q-41 0 -66 -21.5t-25 -54.5v-55h231q23 0 38.5 -16t15.5 -38z" />
    <glyph glyph-name="fl" unicode="fl" horiz-adv-x="555" 
d="M475 598v-488q0 -8 6.5 -13t12.5 -5q21 0 35.5 -14.5t14.5 -35.5t-14.5 -35.5t-35.5 -14.5q-59 0 -93 33t-34 95v244h-177v-320q0 -22 -15.5 -37t-38.5 -15q-24 0 -39 14.5t-15 37.5v320h-21q-19 0 -32 13t-13 32t13 32t32 13h21v47q0 75 53 129.5t146 54.5
q102 0 167 -40q27 -16 27 -47zM190 509v-55h177v116q-41 15 -86 15q-41 0 -66 -21.5t-25 -54.5z" />
    <glyph glyph-name="f_f_i" unicode="ffi" horiz-adv-x="832" 
d="M782 400v-354q0 -22 -16 -38t-38 -16t-38 16t-16 38v318h-177v-320q0 -22 -15.5 -37t-38.5 -15q-24 0 -39 14.5t-15 37.5v320h-199v-320q0 -22 -15.5 -37t-38.5 -15q-24 0 -39 14.5t-15 37.5v320h-21q-19 0 -32 13t-13 32t13 32t32 13h21v54q0 75 49.5 126t141.5 51
q19 0 33 -13.5t14 -33.5t-14 -33.5t-33 -13.5q-40 0 -61.5 -20.5t-21.5 -54.5v-62h199v47q0 75 53 129.5t146 54.5q74 0 113 -23q27 -16 27 -45q0 -21 -15 -36t-36 -15q-9 0 -26 6q-37 13 -63 13q-41 0 -66 -21.5t-25 -54.5v-55h231q22 0 38 -16t16 -38z" />
    <glyph glyph-name="f_f_l" unicode="ffl" horiz-adv-x="861" 
d="M781 598v-488q0 -8 6.5 -13t12.5 -5q21 0 35.5 -14.5t14.5 -35.5t-14.5 -35.5t-35.5 -14.5q-59 0 -93 33t-34 95v244h-177v-320q0 -22 -15.5 -37t-38.5 -15q-24 0 -39 14.5t-15 37.5v320h-198v-320q0 -22 -15.5 -37t-38.5 -15q-24 0 -39 14.5t-15 37.5v320h-21
q-19 0 -32 13t-13 32t13 32t32 13h21v54q0 75 49.5 126t141.5 51q19 0 33 -13.5t14 -33.5t-14 -33.5t-33 -13.5q-40 0 -61.5 -20.5t-21.5 -54.5v-62h198v47q0 75 53 129.5t146 54.5q102 0 167 -40q27 -16 27 -47zM496 509v-55h177v116q-41 15 -86 15q-41 0 -66 -21.5
t-25 -54.5z" />
    <glyph glyph-name="f_j" unicode="fj" horiz-adv-x="525" 
d="M367 -8v372h-177v-320q0 -22 -15.5 -37t-38.5 -15q-24 0 -39 14.5t-15 37.5v320h-21q-19 0 -32 13t-13 32t13 32t32 13h21v47q0 75 53 129.5t146 54.5q74 0 113 -23q27 -16 27 -45q0 -21 -15 -36t-36 -15q-10 0 -26 6q-37 13 -63 13q-41 0 -66 -21.5t-25 -54.5v-55h231
q23 0 38.5 -16t15.5 -38v-408q0 -67 -46 -112.5t-116 -45.5q-20 0 -35 15t-15 35t15 35t35 15q24 0 39 17t15 41z" />
    <glyph glyph-name="f_b" unicode="fb" horiz-adv-x="818" 
d="M475 325v-138q0 -51 27.5 -79.5t71.5 -28.5q107 0 107 148q0 73 -27.5 111t-79.5 38q-27 0 -51.5 -13t-36.5 -25zM190 364v-320q0 -22 -15.5 -37t-38.5 -15q-24 0 -39 14.5t-15 37.5v320h-21q-19 0 -32 13t-13 32t13 32t32 13h21v47q0 75 53 129.5t146 54.5
q102 0 167 -40q27 -16 27 -47v-170q40 40 110 40q97 0 150 -60.5t53 -180.5t-55.5 -180t-158.5 -60q-94 0 -150.5 51.5t-56.5 148.5v383q-41 15 -86 15q-41 0 -66 -21.5t-25 -54.5v-55h67q19 0 32 -13t13 -32t-13 -32t-32 -13h-67z" />
    <glyph glyph-name="f_f_b" unicode="ffb" horiz-adv-x="1125" 
d="M497 364v-320q0 -22 -15.5 -37t-38.5 -15q-24 0 -39 14.5t-15 37.5v320h-199v-320q0 -22 -15.5 -37t-38.5 -15q-24 0 -39 14.5t-15 37.5v320h-21q-19 0 -32 13t-13 32t13 32t32 13h21v54q0 75 49.5 126t141.5 51q19 0 33 -13.5t14 -33.5t-14 -33.5t-33 -13.5
q-40 0 -61.5 -20.5t-21.5 -54.5v-62h199v47q0 75 53 129.5t146 54.5q102 0 167 -40q27 -16 27 -47v-170q40 40 110 40q97 0 150 -60.5t53 -180.5t-55.5 -180t-158.5 -60q-94 0 -150.5 51.5t-56.5 148.5v383q-41 15 -86 15q-41 0 -66 -21.5t-25 -54.5v-55h67q19 0 32 -13
t13 -32t-13 -32t-32 -13h-67zM782 325v-138q0 -51 27.5 -79.5t71.5 -28.5q107 0 107 148q0 73 -27.5 111t-79.5 38q-27 0 -51.5 -13t-35.5 -25z" />
    <glyph glyph-name="f_h" unicode="fh" horiz-adv-x="816" 
d="M367 44v526q-41 15 -86 15q-41 0 -66 -21.5t-25 -54.5v-55h67q19 0 32 -13t13 -32t-13 -32t-32 -13h-67v-320q0 -22 -15.5 -37t-38.5 -15q-24 0 -39 14.5t-15 37.5v320h-21q-19 0 -32 13t-13 32t13 32t32 13h21v47q0 75 53 129.5t146 54.5q102 0 167 -40q27 -16 27 -47
v-190q39 60 128 60q168 0 168 -174v-250q0 -22 -15.5 -37t-38.5 -15q-24 0 -39 14.5t-15 37.5v230q0 96 -88 96q-100 0 -100 -103v-223q0 -22 -15.5 -37t-38.5 -15t-38.5 15t-15.5 37z" />
    <glyph glyph-name="f_f_h" unicode="ffh" horiz-adv-x="1123" 
d="M674 44v526q-41 15 -86 15q-41 0 -66 -21.5t-25 -54.5v-55h67q19 0 32 -13t13 -32t-13 -32t-32 -13h-67v-320q0 -22 -15.5 -37t-38.5 -15q-24 0 -39 14.5t-15 37.5v320h-199v-320q0 -22 -15.5 -37t-38.5 -15q-24 0 -39 14.5t-15 37.5v320h-21q-19 0 -32 13t-13 32t13 32
t32 13h21v54q0 75 49.5 126t141.5 51q19 0 33 -13.5t14 -33.5t-14 -33.5t-33 -13.5q-40 0 -61.5 -20.5t-21.5 -54.5v-62h199v47q0 75 53 129.5t146 54.5q102 0 167 -40q27 -16 27 -47v-190q39 60 128 60q168 0 168 -174v-250q0 -22 -15.5 -37t-38.5 -15q-24 0 -39 14.5
t-15 37.5v230q0 96 -88 96q-100 0 -100 -103v-223q0 -22 -15.5 -37t-38.5 -15t-38.5 15t-15.5 37z" />
    <glyph glyph-name="f_k" unicode="fk" horiz-adv-x="765" 
d="M475 598v-291l181 142q17 13 35 13q22 0 37 -15t15 -37q0 -26 -20 -41l-131 -100l147 -193q11 -15 11 -32q0 -22 -15 -37t-37 -15q-26 0 -42 21l-149 200l-32 -25v-144q0 -22 -15.5 -37t-38.5 -15t-38.5 15t-15.5 37v526q-41 15 -86 15q-41 0 -66 -21.5t-25 -54.5v-55h67
q19 0 32 -13t13 -32t-13 -32t-32 -13h-67v-320q0 -22 -15.5 -37t-38.5 -15q-24 0 -39 14.5t-15 37.5v320h-21q-19 0 -32 13t-13 32t13 32t32 13h21v47q0 75 53 129.5t146 54.5q102 0 167 -40q27 -16 27 -47z" />
    <glyph glyph-name="f_f_k" unicode="ffk" horiz-adv-x="1072" 
d="M782 598v-291l181 142q17 13 35 13q22 0 37 -15t15 -37q0 -26 -20 -41l-131 -100l147 -193q11 -15 11 -32q0 -22 -15 -37t-37 -15q-26 0 -42 21l-149 200l-32 -25v-144q0 -22 -15.5 -37t-38.5 -15t-38.5 15t-15.5 37v526q-41 15 -86 15q-41 0 -66 -21.5t-25 -54.5v-55h67
q19 0 32 -13t13 -32t-13 -32t-32 -13h-67v-320q0 -22 -15.5 -37t-38.5 -15q-24 0 -39 14.5t-15 37.5v320h-199v-320q0 -22 -15.5 -37t-38.5 -15q-24 0 -39 14.5t-15 37.5v320h-21q-19 0 -32 13t-13 32t13 32t32 13h21v54q0 75 49.5 126t141.5 51q19 0 33 -13.5t14 -33.5
t-14 -33.5t-33 -13.5q-40 0 -61.5 -20.5t-21.5 -54.5v-62h199v47q0 75 53 129.5t146 54.5q102 0 167 -40q27 -16 27 -47z" />
    <glyph glyph-name="f_f_j" unicode="ffj" horiz-adv-x="832" 
d="M674 -8v372h-177v-320q0 -22 -15.5 -37t-38.5 -15q-24 0 -39 14.5t-15 37.5v320h-199v-320q0 -22 -15.5 -37t-38.5 -15q-24 0 -39 14.5t-15 37.5v320h-21q-19 0 -32 13t-13 32t13 32t32 13h21v54q0 75 49.5 126t141.5 51q19 0 33 -13.5t14 -33.5t-14 -33.5t-33 -13.5
q-40 0 -61.5 -20.5t-21.5 -54.5v-62h199v47q0 75 53 129.5t146 54.5q74 0 113 -23q27 -16 27 -45q0 -21 -15 -36t-36 -15q-9 0 -26 6q-37 13 -63 13q-41 0 -66 -21.5t-25 -54.5v-55h231q22 0 38 -16t16 -38v-408q0 -67 -46 -112.5t-116 -45.5q-20 0 -35 15t-15 35t15 35
t35 15q24 0 39 17t15 41z" />
    <glyph glyph-name=".notdef" horiz-adv-x="580" 
d="M309 124h-55v55h55v-55zM305 229h-47v39q0 37 16.5 68t36.5 48t36.5 41t16.5 49q0 33 -22 51.5t-54 18.5q-79 0 -79 -81h-48q0 66 35.5 98.5t92.5 32.5q55 0 90 -30t35 -86q0 -29 -11 -52.5t-27 -40l-32.5 -32t-27.5 -37.5t-11 -48v-39zM88 48h404v603h-404v-603zM40 700
h500v-700h-500v700z" />
    <glyph glyph-name=".null" horiz-adv-x="0" 
 />
    <glyph glyph-name="nonmarkingreturn" horiz-adv-x="333" 
 />
    <glyph glyph-name="space" unicode=" " horiz-adv-x="226" 
 />
    <glyph glyph-name="exclam" unicode="!" horiz-adv-x="212" 
d="M107 681q64 0 61 -56l-19 -398q-2 -38 -42 -38q-42 0 -44 38l-18 398q-3 56 62 56zM107 -8q-66 0 -66 65q0 67 66 67q65 0 65 -67q0 -65 -65 -65z" />
    <glyph glyph-name="quotedbl" unicode="&#x22;" horiz-adv-x="292" 
d="M84 681q24 0 36 -10.5t11 -30.5l-9 -160q-2 -36 -38 -36q-37 0 -39 36l-9 160q-1 20 11.5 30.5t36.5 10.5zM209 681q24 0 36 -10.5t11 -30.5l-9 -160q-2 -36 -38 -36q-37 0 -39 36l-9 160q-1 20 11.5 30.5t36.5 10.5z" />
    <glyph glyph-name="numbersign" unicode="#" horiz-adv-x="571" 
d="M279 53l22 137h-81l-26 -162q-7 -39 -47 -39q-21 0 -34.5 13.5t-13.5 34.5q0 4 2 16l22 137h-32q-19 0 -32 13t-13 32t13 32t32 13h46l15 95h-37q-19 0 -32 13t-13 32t13 32t32 13h51l24 148q3 17 16.5 28t31.5 11q20 0 34 -13.5t14 -32.5q0 -4 -1 -12l-21 -129h80
l24 148q3 17 16.5 28t31.5 11q20 0 34 -13.5t14 -32.5q0 -4 -1 -12l-21 -129h38q19 0 32 -13t13 -32t-13 -32t-32 -13h-52l-16 -95h44q19 0 32 -13t13 -32t-13 -32t-32 -13h-58l-26 -162q-7 -39 -47 -39q-21 0 -34.5 13.5t-13.5 34.5q0 4 2 16zM250 375l-16 -95h81l15 95
h-80z" />
    <glyph glyph-name="dollar" unicode="$" horiz-adv-x="573" 
d="M337 741v-58q128 -16 180 -90q10 -15 10 -32q0 -22 -16 -37.5t-38 -15.5q-19 0 -43 22q-55 53 -140 53q-58 0 -86 -23t-28 -56q0 -30 27 -52t67.5 -33.5t88 -30t88 -39.5t67.5 -63.5t27 -101.5q0 -83 -52.5 -134t-151.5 -61v-56q0 -19 -13.5 -33t-33.5 -14
q-19 0 -32.5 14t-13.5 33v56q-70 9 -125 42t-82 77q-8 13 -8 28q0 22 15.5 38t37.5 16t44 -22q76 -76 164 -76q135 0 135 92q0 29 -20 50.5t-52.5 35t-71.5 25.5t-77.5 28t-71 37.5t-52.5 58t-20 85.5q0 71 46 120.5t138 59.5v57q0 19 13.5 33t32.5 14q20 0 33.5 -14
t13.5 -33z" />
    <glyph glyph-name="percent" unicode="%" horiz-adv-x="764" 
d="M189 445q64 0 64 79t-64 79q-63 0 -63 -79t63 -79zM189 687q155 0 155 -163q0 -74 -37 -118.5t-118 -44.5q-80 0 -116.5 44.5t-36.5 118.5q0 163 153 163zM573 71q64 0 64 79t-64 79q-63 0 -63 -79t63 -79zM573 313q155 0 155 -163q0 -74 -37 -118.5t-118 -44.5
q-80 0 -116.5 44.5t-36.5 118.5q0 163 153 163zM535 681q20 0 34 -13.5t14 -32.5q0 -10 -5 -20l-314 -599q-14 -24 -42 -24q-20 0 -33.5 13t-13.5 33q0 11 5 21l314 597q10 25 41 25z" />
    <glyph glyph-name="ampersand" unicode="&#x26;" horiz-adv-x="634" 
d="M199 514q0 -50 21 -100q78 55 78 117q0 25 -11.5 41.5t-34.5 16.5q-53 0 -53 -75zM250 84q52 0 97 30q-96 68 -159 155q-45 -39 -45 -89q0 -43 30.5 -69.5t76.5 -26.5zM558 -8q-38 0 -123 57q-73 -63 -185 -63q-96 0 -156.5 51.5t-60.5 142.5q0 98 100 175
q-42 86 -42 159q0 72 43.5 122.5t118.5 50.5t114 -45.5t39 -110.5q0 -101 -135 -204q63 -81 147 -138q8 12 25 55q14 40 52 40q22 0 37.5 -16t15.5 -37q0 -10 -5 -27q-13 -41 -38 -75q13 -9 73 -39q31 -15 31 -47q0 -21 -15 -36t-36 -15z" />
    <glyph glyph-name="quotesingle" unicode="'" horiz-adv-x="167" 
d="M84 681q24 0 36 -10.5t11 -30.5l-9 -160q-2 -36 -38 -36q-37 0 -39 36l-9 160q-1 20 11.5 30.5t36.5 10.5z" />
    <glyph glyph-name="parenleft" unicode="(" horiz-adv-x="315" 
d="M40 296q0 198 39 297.5t135 139.5q12 5 22 5q20 0 34.5 -14.5t14.5 -34.5q0 -32 -29 -45q-30 -13 -50 -37.5t-31 -51.5t-17 -73t-7 -83.5t-1 -102.5t1 -102.5t7 -83.5t17 -73t31 -51.5t50 -37.5q29 -13 29 -45q0 -20 -14.5 -34.5t-34.5 -14.5q-10 0 -22 5
q-96 40 -135 139.5t-39 297.5z" />
    <glyph glyph-name="parenright" unicode=")" horiz-adv-x="315" 
d="M275 296q0 -198 -39 -297.5t-135 -139.5q-12 -5 -22 -5q-20 0 -34.5 14.5t-14.5 34.5q0 32 29 45q30 13 50 37.5t31 51.5t17 73t7 83.5t1 102.5t-1 102.5t-7 83.5t-17 73t-31 51.5t-50 37.5q-29 13 -29 45q0 20 14.5 34.5t34.5 14.5q10 0 22 -5q96 -40 135 -139.5
t39 -297.5z" />
    <glyph glyph-name="asterisk" unicode="*" horiz-adv-x="370" 
d="M236 435l-52 82l-52 -82q-16 -25 -42 -7q-25 17 -8 40l57 78l-88 15q-28 6 -20 39q8 30 36 21l89 -26l-3 89q-1 16 7 22t24 6t24 -6t7 -22l-3 -89l89 26q28 9 36 -21q8 -33 -20 -39l-88 -15l57 -78q17 -23 -8 -40q-26 -18 -42 7z" />
    <glyph glyph-name="plus" unicode="+" horiz-adv-x="454" 
d="M454 218q0 -19 -13.5 -32.5t-32.5 -13.5h-133v-132q0 -20 -14.5 -34t-33.5 -14t-33.5 14t-14.5 34v132h-133q-19 0 -32.5 13.5t-13.5 32.5t13.5 32.5t32.5 13.5h133v133q0 19 14.5 33.5t33.5 14.5t33.5 -14.5t14.5 -33.5v-133h133q19 0 32.5 -13.5t13.5 -32.5z" />
    <glyph glyph-name="comma" unicode="," horiz-adv-x="225" 
d="M113 124q65 0 65 -67q0 -71 -31.5 -130.5t-73.5 -91.5q-8 -6 -16 -6q-9 0 -15.5 6.5t-6.5 15.5q0 7 6 15l22 28.5t13.5 27.5t6.5 37t-18 49t-18 49q0 67 66 67z" />
    <glyph glyph-name="hyphen" unicode="-" horiz-adv-x="378" 
d="M335 252q0 -19 -13.5 -32.5t-32.5 -13.5h-200q-19 0 -32.5 13.5t-13.5 32.5t13.5 32.5t32.5 13.5h200q19 0 32.5 -13.5t13.5 -32.5z" />
    <glyph glyph-name="period" unicode="." horiz-adv-x="225" 
d="M113 -8q-66 0 -66 65q0 67 66 67q65 0 65 -67q0 -65 -65 -65z" />
    <glyph glyph-name="slash" unicode="/" horiz-adv-x="422" 
d="M30 -23l261 739q13 35 51 35q22 0 38 -15.5t16 -38.5q0 -10 -4 -21l-261 -739q-13 -35 -51 -35q-22 0 -38 16t-16 38q0 10 4 21z" />
    <glyph glyph-name="zero" unicode="0" horiz-adv-x="611" 
d="M306 87q77 0 112 59t35 191q0 131 -35 190.5t-112 59.5t-112.5 -60t-35.5 -190q0 -132 35.5 -191t112.5 -59zM306 687q134 0 197.5 -85.5t63.5 -264.5q0 -180 -63.5 -265.5t-197.5 -85.5q-135 0 -198.5 85.5t-63.5 265.5t63.5 265t198.5 85z" />
    <glyph glyph-name="one" unicode="1" horiz-adv-x="354" 
d="M170 525l-58 -39q-14 -11 -33 -11q-23 0 -39 16.5t-16 38.5q0 31 24 46l144 93q19 12 35 12q23 0 40 -17t17 -40v-575q0 -23 -17 -40t-40 -17t-40 17t-17 40v476z" />
    <glyph glyph-name="two" unicode="2" horiz-adv-x="553" 
d="M68 560q25 58 79.5 92.5t133.5 34.5q108 0 169.5 -56t61.5 -149q0 -50 -25.5 -95.5t-64.5 -77.5t-83.5 -63t-83.5 -53.5t-64.5 -46.5t-25.5 -44h307q21 0 36 -15t15 -36t-15 -36t-36 -15h-382q-21 0 -36 15t-15 36q0 61 37 110.5t89.5 84l105.5 67t90 75.5t37 94
q0 44 -31 74.5t-86 30.5q-80 0 -114 -72q-17 -32 -50 -32q-23 0 -38.5 15.5t-15.5 38.5q0 12 5 23z" />
    <glyph glyph-name="three" unicode="3" horiz-adv-x="563" 
d="M321 571h-201q-21 0 -36 15t-15 36t15 36t36 15h320q21 0 36 -15t15 -36q0 -20 -13 -34l-146 -165q98 -11 141 -71t43 -149q0 -104 -62.5 -160t-183.5 -56q-74 0 -134.5 31t-94.5 80q-9 14 -9 30q0 22 15.5 37.5t37.5 15.5q25 0 48 -26q59 -68 137 -68q66 0 99 30.5
t33 85.5q0 120 -119 120h-62q-23 0 -38.5 15t-15.5 37q0 19 13 35z" />
    <glyph glyph-name="four" unicode="4" horiz-adv-x="561" 
d="M450 246h35q21 0 36 -15t15 -36t-15 -36t-36 -15h-35v-95q0 -23 -17 -40t-40 -17t-40 17t-17 40v95h-254q-21 0 -36 15t-15 36q0 15 9 28l305 431q19 26 48 26q23 0 40 -17t17 -40v-377zM178 246h158v230z" />
    <glyph glyph-name="five" unicode="5" horiz-adv-x="576" 
d="M278 463q115 0 181.5 -59.5t66.5 -178.5q0 -120 -66.5 -179.5t-181.5 -59.5q-86 0 -149.5 40t-93.5 95q-7 13 -7 26q0 22 15.5 37.5t37.5 15.5q28 0 47 -28q30 -45 64 -65.5t86 -20.5q61 0 97.5 35.5t36.5 103.5t-36.5 103t-97.5 35q-72 0 -127 -40q-29 -20 -48 -20
q-22 0 -38 15.5t-16 37.5q0 7 2 17l50 259q3 16 16.5 28.5t33.5 12.5h300q21 0 36 -15t15 -36t-15 -36t-36 -15h-261l-26 -131q48 23 114 23z" />
    <glyph glyph-name="six" unicode="6" horiz-adv-x="588" 
d="M309 448q108 0 173 -59.5t65 -168.5q0 -118 -68.5 -176t-184.5 -58q-128 0 -190.5 90.5t-62.5 245.5q0 365 268 365q59 0 104.5 -16.5t69.5 -40.5q17 -17 17 -38t-15.5 -36.5t-36.5 -15.5q-16 0 -32 11q-53 36 -107 36q-75 0 -114 -51.5t-39 -147.5q58 60 153 60zM294 87
q139 0 139 133q0 62 -37 94.5t-95 32.5q-95 0 -143 -84q0 -83 35.5 -129.5t100.5 -46.5z" />
    <glyph glyph-name="seven" unicode="7" horiz-adv-x="507" 
d="M100 46q0 76 28 148.5t68 126.5t80 100t68 85t28 65h-303q-21 0 -36 15t-15 36t15 36t36 15h366q21 0 36 -15t15 -36q0 -57 -28 -112t-68.5 -102.5l-81 -98t-68.5 -118.5t-28 -145q0 -23 -16.5 -38.5t-39.5 -15.5t-39.5 15.5t-16.5 38.5z" />
    <glyph glyph-name="eight" unicode="8" horiz-adv-x="575" 
d="M287 -14q-122 0 -187 54.5t-65 160.5q0 113 113 167q-35 19 -58 54t-23 80q0 89 57.5 137t162.5 48t162.5 -48t57.5 -137q0 -45 -23 -80t-58 -54q113 -54 113 -167q0 -106 -65 -160.5t-187 -54.5zM287 587q-51 0 -79.5 -22t-28.5 -63q0 -43 28.5 -65t79.5 -22t79.5 22
t28.5 65q0 41 -28.5 63t-79.5 22zM287 315q-65 0 -101.5 -29t-36.5 -85t37.5 -85t100.5 -29t100.5 29t37.5 85t-36.5 85t-101.5 29z" />
    <glyph glyph-name="nine" unicode="9" horiz-adv-x="588" 
d="M279 225q-108 0 -173 59.5t-65 168.5q0 118 68.5 176t184.5 58q128 0 190.5 -90.5t62.5 -245.5q0 -365 -268 -365q-59 0 -104.5 16.5t-69.5 40.5q-17 17 -17 38t15.5 36.5t36.5 15.5q16 0 32 -11q53 -36 107 -36q75 0 114 51.5t39 147.5q-58 -60 -153 -60zM294 586
q-139 0 -139 -133q0 -62 37 -94.5t95 -32.5q95 0 143 84q0 83 -35.5 129.5t-100.5 46.5z" />
    <glyph glyph-name="colon" unicode=":" horiz-adv-x="225" 
d="M113 -8q-66 0 -66 65q0 67 66 67q65 0 65 -67q0 -65 -65 -65zM113 324q-66 0 -66 65q0 67 66 67q65 0 65 -67q0 -65 -65 -65z" />
    <glyph glyph-name="semicolon" unicode=";" horiz-adv-x="225" 
d="M113 324q-66 0 -66 65q0 67 66 67q65 0 65 -67q0 -65 -65 -65zM113 124q65 0 65 -67q0 -71 -31.5 -130.5t-73.5 -91.5q-8 -6 -16 -6q-9 0 -15.5 6.5t-6.5 15.5q0 7 6 15l22 28.5t13.5 27.5t6.5 37t-18 49t-18 49q0 67 66 67z" />
    <glyph glyph-name="less" unicode="&#x3c;" horiz-adv-x="363" 
d="M343 398l-221 -163l221 -163q20 -14 20 -39q0 -19 -14.5 -33.5t-33.5 -14.5q-16 0 -28 9l-265 201q-22 18 -22 40t22 40l265 201q12 9 28 9q19 0 33.5 -14.5t14.5 -33.5q0 -25 -20 -39z" />
    <glyph glyph-name="equal" unicode="=" horiz-adv-x="454" 
d="M454 304q0 -19 -13.5 -32.5t-32.5 -13.5h-362q-19 0 -32.5 13.5t-13.5 32.5t13.5 32.5t32.5 13.5h362q19 0 32.5 -13.5t13.5 -32.5zM454 131q0 -19 -13.5 -32.5t-32.5 -13.5h-362q-19 0 -32.5 13.5t-13.5 32.5t13.5 32.5t32.5 13.5h362q19 0 32.5 -13.5t13.5 -32.5z" />
    <glyph glyph-name="greater" unicode="&#x3e;" horiz-adv-x="363" 
d="M241 235l-221 163q-20 14 -20 39q0 19 14 33.5t34 14.5q16 0 28 -9l265 -201q22 -18 22 -40t-22 -40l-265 -201q-12 -9 -28 -9q-20 0 -34 14.5t-14 33.5q0 25 20 39z" />
    <glyph glyph-name="question" unicode="?" horiz-adv-x="453" 
d="M168 187q-37 36 -37 85q0 42 30.5 75.5t66.5 52t66.5 48t30.5 64.5q0 37 -26.5 57t-74.5 20q-43 0 -68.5 -21.5t-25.5 -62.5q0 -23 -16 -39t-39 -16t-39 16t-16 39q0 86 54 134t150 48q99 0 154 -45.5t55 -129.5q0 -55 -30 -95.5t-65.5 -59t-65.5 -39t-30 -39.5
q0 -10 10 -24q9 -13 9 -30q0 -24 -17 -39t-37 -15q-23 0 -39 16zM204 -8q-66 0 -66 65q0 67 66 67q65 0 65 -67q0 -65 -65 -65z" />
    <glyph glyph-name="at" unicode="@" horiz-adv-x="805" 
d="M399 293q-41 0 -80 -29q-11 -8 -24 -8q-15 0 -25.5 10.5t-10.5 25.5q0 17 9 26q47 51 131 51q72 0 113 -35t41 -96v-122q0 -19 12 -29t30 -10q77 0 77 121q0 124 -72.5 188.5t-196.5 64.5q-128 0 -200 -67t-72 -206q0 -141 72.5 -212.5t199.5 -71.5q125 0 204 47
q11 6 22 6q18 0 30.5 -12.5t12.5 -30.5q0 -26 -22 -38q-99 -56 -247 -56q-171 0 -267.5 95.5t-96.5 272.5q0 175 96 266t268 91q162 0 261.5 -87.5t99.5 -249.5q0 -36 -9 -69.5t-28 -65t-55 -51t-84 -19.5q-74 0 -102 56q-44 -56 -120 -56q-57 0 -92 32.5t-35 85.5
q0 52 36.5 80.5t90.5 28.5h103v14q0 27 -18.5 43t-51.5 16zM388 64q33 0 57 19t24 51v21h-92q-53 0 -53 -44q0 -47 64 -47z" />
    <glyph glyph-name="A" unicode="A" horiz-adv-x="624" 
d="M394 281l-82 210l-82 -210h164zM433 175h-242l-61 -145q-16 -38 -54 -38q-23 0 -40 17t-17 40q0 12 4 21l236 575q15 36 53 36t53 -36l236 -575q4 -9 4 -21q0 -23 -17 -40t-40 -17q-38 0 -54 38z" />
    <glyph glyph-name="B" unicode="B" horiz-adv-x="568" 
d="M176 569v-171h122q45 0 67 23t22 63q0 85 -89 85h-122zM176 300v-196h140q99 0 99 98q0 47 -25 72.5t-74 25.5h-140zM316 0h-198q-24 0 -41 17t-17 41v557q0 24 17 41t41 17h180q106 0 155.5 -49t49.5 -125q0 -48 -21 -84t-53 -52q104 -40 104 -161q0 -94 -55.5 -148
t-161.5 -54z" />
    <glyph glyph-name="C" unicode="C" horiz-adv-x="640" 
d="M347 -14q-313 0 -313 350q0 175 80.5 263t232.5 88q167 0 241 -108q11 -17 11 -33q0 -22 -16 -37.5t-38 -15.5t-41 20q-33 36 -69 53t-88 17q-99 0 -146 -61t-47 -186q0 -130 46 -188t147 -58q55 0 90.5 14.5t71.5 51.5q22 22 43 22q22 0 38 -16t16 -38q0 -17 -10 -30
q-37 -49 -103.5 -78.5t-145.5 -29.5z" />
    <glyph glyph-name="D" unicode="D" horiz-adv-x="611" 
d="M176 569v-465h77q101 0 153 53.5t52 178.5t-52 179t-153 54h-77zM118 673h135q157 0 241 -79.5t84 -257.5t-84 -257t-241 -79h-135q-24 0 -41 17t-17 41v557q0 24 17 41t41 17z" />
    <glyph glyph-name="E" unicode="E" horiz-adv-x="523" 
d="M176 569v-179h189q21 0 36 -15t15 -36t-15 -36t-36 -15h-189v-184h265q22 0 37 -15t15 -37t-15 -37t-37 -15h-323q-24 0 -41 17t-17 41v557q0 24 17 41t41 17h312q22 0 37 -15t15 -37t-15 -37t-37 -15h-254z" />
    <glyph glyph-name="F" unicode="F" horiz-adv-x="523" 
d="M176 282v-232q0 -24 -17 -41t-41 -17t-41 17t-17 41v565q0 24 17 41t41 17h312q22 0 37 -15t15 -37t-15 -37t-37 -15h-254v-185h189q21 0 36 -15t15 -36t-15 -36t-36 -15h-189z" />
    <glyph glyph-name="G" unicode="G" horiz-adv-x="675" 
d="M512 147v112h-136q-21 0 -36 15t-15 36t15 36t36 15h194q21 0 38 -16t17 -37v-160q0 -32 -17 -53q-36 -48 -108.5 -78.5t-152.5 -30.5q-313 0 -313 350q0 175 80.5 263t232.5 88q167 0 241 -108q11 -17 11 -33q0 -22 -16 -37.5t-38 -15.5t-41 20q-33 36 -69 53t-88 17
q-99 0 -146 -61t-47 -186q0 -130 46 -188t147 -58q109 0 165 57z" />
    <glyph glyph-name="H" unicode="H" horiz-adv-x="638" 
d="M578 623v-573q0 -24 -17 -41t-41 -17t-41 17t-17 41v241h-286v-241q0 -24 -17 -41t-41 -17t-41 17t-17 41v573q0 24 17 41t41 17t41 -17t17 -41v-226h286v226q0 24 17 41t41 17t41 -17t17 -41z" />
    <glyph glyph-name="I" unicode="I" horiz-adv-x="236" 
d="M176 623v-573q0 -24 -17 -41t-41 -17t-41 17t-17 41v573q0 24 17 41t41 17t41 -17t17 -41z" />
    <glyph glyph-name="J" unicode="J" horiz-adv-x="431" 
d="M255 210v413q0 24 17 41t41 17t41 -17t17 -41v-413q0 -103 -50 -163t-159 -60q-75 0 -119 27q-28 15 -28 46q0 22 15 37t37 15q10 0 23 -5q38 -15 72 -15q93 0 93 118z" />
    <glyph glyph-name="K" unicode="K" horiz-adv-x="556" 
d="M176 623v-229l240 268q18 19 42 19q23 0 39.5 -16.5t16.5 -39.5q0 -21 -15 -38l-188 -204l221 -301q11 -14 11 -33q0 -23 -17 -40t-40 -17q-29 0 -47 25l-206 285l-57 -60v-192q0 -24 -17 -41t-41 -17t-41 17t-17 41v573q0 24 17 41t41 17t41 -17t17 -41z" />
    <glyph glyph-name="L" unicode="L" horiz-adv-x="491" 
d="M176 108h237q24 0 40 -15.5t16 -38.5t-15.5 -38.5t-40.5 -15.5h-296q-25 0 -41 16t-16 40v567q0 24 17 41t41 17t41 -17t17 -41v-515z" />
    <glyph glyph-name="M" unicode="M" horiz-adv-x="755" 
d="M375 106q-33 0 -49 28l-157 279v-364q0 -23 -17 -40t-40 -17t-40 17t-17 40v575q0 23 17 40t40 17q33 0 51 -32l212 -380l212 380q18 32 51 32q23 0 40 -17t17 -40v-575q0 -23 -17 -40t-40 -17t-40 17t-17 40v364l-157 -279q-16 -28 -49 -28z" />
    <glyph glyph-name="N" unicode="N" horiz-adv-x="623" 
d="M511 681q23 0 40 -17t17 -40v-575q0 -23 -17 -40t-40 -17q-30 0 -47 25l-295 426v-394q0 -23 -17 -40t-40 -17t-40 17t-17 40v575q0 23 17 40t40 17q30 0 46 -24l296 -429v396q0 23 17 40t40 17z" />
    <glyph glyph-name="O" unicode="O" horiz-adv-x="702" 
d="M351 -14q-153 0 -235 88.5t-82 261.5q0 175 81.5 263t235.5 88t235.5 -88t81.5 -263q0 -173 -82 -261.5t-235 -88.5zM351 583q-197 0 -197 -247q0 -246 197 -246t197 246q0 247 -197 247z" />
    <glyph glyph-name="P" unicode="P" horiz-adv-x="552" 
d="M309 262h-133v-212q0 -24 -17 -41t-41 -17t-41 17t-17 41v565q0 24 17 41t41 17h191q93 0 151.5 -52t58.5 -153q0 -100 -58.5 -153t-151.5 -53zM300 569h-124v-203h124q47 0 73 26.5t26 75.5t-26.5 75t-72.5 26z" />
    <glyph glyph-name="Q" unicode="Q" horiz-adv-x="702" 
d="M351 -14q-153 0 -235 88.5t-82 261.5q0 175 81.5 263t235.5 88t235.5 -88t81.5 -263q0 -212 -128 -297q24 -3 49.5 -15.5t36.5 -27.5q13 -18 13 -36q0 -23 -16.5 -40t-40.5 -17q-23 0 -40 17q-38 37 -75 51t-116 15zM351 583q-197 0 -197 -247q0 -246 197 -246t197 246
q0 247 -197 247z" />
    <glyph glyph-name="R" unicode="R" horiz-adv-x="560" 
d="M241 258h-65v-208q0 -24 -17 -41t-41 -17t-41 17t-17 41v565q0 24 17 41t41 17h191q98 0 154.5 -60t56.5 -149q0 -74 -42 -132t-112 -67l148 -180q12 -16 12 -35q0 -24 -17 -41t-41 -17q-29 0 -45 21zM308 569h-132v-209h135q44 0 66.5 30.5t22.5 73.5q0 44 -23 74.5
t-69 30.5z" />
    <glyph glyph-name="S" unicode="S" horiz-adv-x="573" 
d="M430 530q-55 53 -140 53q-58 0 -86 -23t-28 -56q0 -30 27 -52t67.5 -33.5t88 -30t88 -39.5t67.5 -63.5t27 -101.5q0 -93 -64.5 -145.5t-186.5 -52.5q-85 0 -153.5 35.5t-99.5 86.5q-8 13 -8 28q0 22 15.5 38t37.5 16t44 -22q76 -76 164 -76q135 0 135 92q0 29 -20 50.5
t-52.5 35t-71.5 25.5t-77.5 28t-71 37.5t-52.5 58t-20 85.5q0 80 58.5 131.5t171.5 51.5q75 0 136 -25.5t91 -68.5q10 -15 10 -32q0 -22 -16 -37.5t-38 -15.5q-19 0 -43 22z" />
    <glyph glyph-name="T" unicode="T" horiz-adv-x="566" 
d="M494 571h-153v-521q0 -24 -17 -41t-41 -17t-41 17t-17 41v521h-153q-21 0 -36 15t-15 36t15 36t36 15h422q21 0 36 -15t15 -36t-15 -36t-36 -15z" />
    <glyph glyph-name="U" unicode="U" horiz-adv-x="619" 
d="M312 -14q-72 0 -124 20t-78.5 55t-38 73.5t-11.5 85.5v403q0 24 17 41t41 17t41 -17t17 -41v-403q0 -132 136 -132t136 132v403q0 24 17 41t41 17t41 -17t17 -41v-403q0 -47 -11.5 -85.5t-38 -73.5t-78.5 -55t-124 -20z" />
    <glyph glyph-name="V" unicode="V" horiz-adv-x="608" 
d="M304 -8q-39 0 -54 37l-227 572q-4 9 -4 22q0 24 17 41t41 17q40 0 53 -34l174 -461l174 461q14 34 53 34q24 0 41 -17t17 -41q0 -13 -4 -22l-227 -572q-15 -37 -54 -37z" />
    <glyph glyph-name="W" unicode="W" horiz-adv-x="838" 
d="M534 35l-115 410l-115 -410q-5 -19 -20.5 -31t-35.5 -12q-19 0 -34.5 11.5t-20.5 28.5l-171 573q-3 9 -3 18q0 24 17 41t41 17q22 0 36.5 -12.5t18.5 -27.5l117 -420l114 418q5 19 21 30.5t35 11.5t35 -11.5t21 -30.5l114 -418l117 420q4 15 18.5 27.5t36.5 12.5
q24 0 41 -17t17 -41q0 -9 -3 -18l-171 -573q-5 -17 -20.5 -28.5t-34.5 -11.5q-20 0 -35.5 12t-20.5 31z" />
    <glyph glyph-name="X" unicode="X" horiz-adv-x="542" 
d="M425 18l-154 228l-154 -228q-18 -26 -48 -26q-24 0 -41 17t-17 41q0 19 10 32l187 262l-174 245q-11 16 -11 34q0 24 17 41t41 17q31 0 47 -24l143 -213l143 213q16 24 47 24q24 0 41 -17t17 -41q0 -18 -11 -34l-174 -245l187 -262q10 -13 10 -32q0 -24 -17 -41t-41 -17
q-30 0 -48 26z" />
    <glyph glyph-name="Y" unicode="Y" horiz-adv-x="554" 
d="M126 654l151 -237l151 237q17 27 49 27q24 0 41 -17t17 -41q0 -19 -9 -31l-191 -285v-257q0 -24 -17 -41t-41 -17t-41 17t-17 41v257l-191 285q-9 12 -9 31q0 24 17 41t41 17q32 0 49 -27z" />
    <glyph glyph-name="Z" unicode="Z" horiz-adv-x="541" 
d="M476 0h-409q-22 0 -37 15t-15 37q0 18 10 31l336 488h-275q-21 0 -36 15t-15 36t15 36t36 15h378q21 0 36 -15t15 -36q0 -16 -9 -29l-335 -489h305q22 0 37 -15t15 -37t-15 -37t-37 -15z" />
    <glyph glyph-name="bracketleft" unicode="[" horiz-adv-x="283" 
d="M256 -99q0 -19 -14 -33t-33 -14h-94q-24 0 -39.5 14.5t-15.5 37.5v780q0 22 15.5 37t39.5 15h94q19 0 33 -14t14 -33t-14 -33t-33 -14h-41v-696h41q19 0 33 -14t14 -33z" />
    <glyph glyph-name="backslash" unicode="\" horiz-adv-x="422" 
d="M131 716l261 -739q4 -11 4 -21q0 -22 -16 -38t-38 -16q-38 0 -51 35l-261 739q-4 11 -4 21q0 23 16 38.5t38 15.5q38 0 51 -35z" />
    <glyph glyph-name="bracketright" unicode="]" horiz-adv-x="283" 
d="M27 -99q0 19 13.5 33t33.5 14h41v696h-41q-20 0 -33.5 14t-13.5 33t13.5 33t33.5 14h94q24 0 39.5 -15t15.5 -37v-780q0 -23 -15.5 -37.5t-39.5 -14.5h-94q-20 0 -33.5 14t-13.5 33z" />
    <glyph glyph-name="asciicircum" unicode="^" horiz-adv-x="486" 
d="M360 352l-117 211l-117 -211q-12 -23 -40 -23q-19 0 -32.5 13.5t-13.5 32.5q0 13 6 23l158 271q14 22 39 22t39 -22l158 -271q6 -10 6 -23q0 -19 -13.5 -32.5t-32.5 -13.5q-28 0 -40 23z" />
    <glyph glyph-name="underscore" unicode="_" horiz-adv-x="421" 
d="M435 -77q0 -19 -13.5 -32.5t-32.5 -13.5h-356q-19 0 -32.5 13.5t-13.5 32.5t13.5 32.5t32.5 13.5h356q19 0 32.5 -13.5t13.5 -32.5z" />
    <glyph glyph-name="grave" unicode="`" horiz-adv-x="384" 
d="M264 514q-22 -21 -46 0l-98 90q-13 11 -12.5 28t16.5 32q15 15 32.5 16t27.5 -13l85 -108q20 -22 -5 -45z" />
    <glyph glyph-name="a" unicode="a" horiz-adv-x="472" 
d="M229 372q-47 0 -100 -38q-14 -10 -30 -10q-19 0 -33 14t-14 33t13 33q58 64 164 64q93 0 145.5 -44t52.5 -123v-256q0 -22 -15.5 -37.5t-37.5 -15.5t-37.5 15.5t-15.5 37.5q-36 -58 -131 -58q-73 0 -118 41.5t-45 109.5q0 67 46.5 104t115.5 37h131v18q0 34 -24 54.5
t-67 20.5zM218 77q42 0 72 25t30 65v28h-117q-68 0 -68 -57q0 -61 83 -61z" />
    <glyph glyph-name="b" unicode="b" horiz-adv-x="501" 
d="M158 325v-138q0 -51 27.5 -79.5t71.5 -28.5q107 0 107 148q0 73 -27.5 111t-79.5 38q-27 0 -51.5 -13t-35.5 -25zM268 468q97 0 150 -60.5t53 -180.5t-55.5 -180t-158.5 -60q-94 0 -150.5 51.5t-56.5 148.5v471q0 22 16 38t38 16t38 -16t16 -38v-230q40 40 110 40z" />
    <glyph glyph-name="c" unicode="c" horiz-adv-x="451" 
d="M29 228q0 120 56.5 180t160.5 60q61 0 102.5 -22t60.5 -47q11 -15 11 -31q0 -20 -14 -34t-34 -14q-22 0 -37 17q-36 39 -89 39q-52 0 -80 -38.5t-28 -109.5q0 -72 28 -110.5t80 -38.5q45 0 99 40q14 10 30 10q20 0 34 -14t14 -34q0 -21 -17 -37q-62 -57 -160 -57
q-104 0 -160.5 60.5t-56.5 180.5z" />
    <glyph glyph-name="d" unicode="d" horiz-adv-x="495" 
d="M342 187v138q-4 6 -12.5 14.5t-34 22.5t-52.5 14q-52 0 -79.5 -38t-27.5 -111q0 -148 107 -148q44 0 71.5 28.5t27.5 79.5zM232 468q70 0 110 -40v230q0 22 16 38t38 16t38 -16t16 -38v-471q0 -97 -56.5 -148.5t-150.5 -51.5q-103 0 -158.5 60t-55.5 180t53 180.5
t150 60.5z" />
    <glyph glyph-name="e" unicode="e" horiz-adv-x="471" 
d="M30 229q0 114 57 176.5t159 62.5q60 0 102 -20.5t62 -54t28 -63.5t8 -61q0 -19 -1 -29t-6.5 -24t-18.5 -20.5t-35 -6.5h-247q0 -52 32.5 -78.5t84.5 -26.5q53 0 99 31q17 11 32 11q20 0 33.5 -14t13.5 -33q0 -22 -17 -37q-58 -55 -161 -55q-107 0 -166 60t-59 182z
M246 376q-45 0 -73 -25t-32 -72h198q0 40 -23.5 68.5t-69.5 28.5z" />
    <glyph glyph-name="f" unicode="f" horiz-adv-x="322" 
d="M82 364h-21q-19 0 -32 13t-13 32t13 32t32 13h21v54q0 75 49.5 126t141.5 51q19 0 33 -13.5t14 -33.5t-14 -33.5t-33 -13.5q-40 0 -61.5 -20.5t-21.5 -54.5v-62h67q19 0 32 -13t13 -32t-13 -32t-32 -13h-67v-320q0 -22 -15.5 -37t-38.5 -15q-24 0 -39 14.5t-15 37.5v320z
" />
    <glyph glyph-name="g" unicode="g" horiz-adv-x="497" 
d="M432 297q0 -80 -52 -125.5t-144 -45.5q-52 0 -94 16q-9 -8 -9 -21q0 -34 59 -34h93q84 0 135 -33t51 -104q0 -74 -61.5 -112.5t-161.5 -38.5q-44 0 -81.5 7t-70.5 23t-52 46t-19 72q0 60 60 98q-47 29 -47 80q0 40 34 68q-32 42 -32 104q0 80 52 125.5t144 45.5
q54 0 96 -17q36 46 100 46q19 0 32 -13t13 -32t-13 -32t-32 -13q-20 0 -30 -9q30 -40 30 -101zM148 297q0 -35 23.5 -57.5t64.5 -22.5t64.5 22.5t23.5 57.5t-23.5 57.5t-64.5 22.5t-64.5 -22.5t-23.5 -57.5zM363 -50q0 23 -21.5 36t-56.5 13h-94q-27 -6 -42.5 -20.5
t-15.5 -31.5q0 -56 116 -56q49 0 81.5 15t32.5 44z" />
    <glyph glyph-name="h" unicode="h" horiz-adv-x="499" 
d="M158 658v-250q39 60 128 60q168 0 168 -174v-250q0 -22 -15.5 -37t-38.5 -15q-24 0 -39 14.5t-15 37.5v230q0 96 -88 96q-100 0 -100 -103v-223q0 -22 -15.5 -37t-38.5 -15t-38.5 15t-15.5 37v614q0 22 16 38t38 16t38 -16t16 -38z" />
    <glyph glyph-name="i" unicode="i" 
d="M163 408v-362q0 -22 -15.5 -38t-38.5 -16t-38.5 16t-15.5 38v362q0 22 15.5 38t38.5 16t38.5 -16t15.5 -38zM109 516q-31 0 -47.5 17t-16.5 46q0 66 64 66q65 0 65 -66q0 -30 -17 -46.5t-48 -16.5z" />
    <glyph glyph-name="j" unicode="j" 
d="M109 516q-31 0 -47.5 17t-16.5 46q0 66 64 66q65 0 65 -66q0 -30 -17 -46.5t-48 -16.5zM55 -8v416q0 22 15.5 38t38.5 16t38.5 -16t15.5 -38v-416q0 -67 -46 -112.5t-116 -45.5q-20 0 -35 15t-15 35t15 35t35 15q24 0 39 17t15 41z" />
    <glyph glyph-name="k" unicode="k" horiz-adv-x="453" 
d="M386 -8q-26 0 -42 21l-149 200l-32 -25v-144q0 -22 -15.5 -37t-38.5 -15t-38.5 15t-15.5 37v616q0 22 15.5 37t38.5 15t38.5 -15t15.5 -37v-353l181 142q17 13 35 13q22 0 37 -15t15 -37q0 -26 -20 -41l-131 -100l147 -193q11 -15 11 -32q0 -22 -15 -37t-37 -15z" />
    <glyph glyph-name="l" unicode="l" horiz-adv-x="243" 
d="M109 712q23 0 38.5 -16t15.5 -38v-548q0 -8 6.5 -13t12.5 -5q21 0 35.5 -14.5t14.5 -35.5t-14.5 -35.5t-35.5 -14.5q-59 0 -93 33t-34 95v538q0 22 15.5 38t38.5 16z" />
    <glyph glyph-name="m" unicode="m" horiz-adv-x="795" 
d="M577 468q49 0 84 -14.5t53.5 -40t27 -55t8.5 -64.5v-250q0 -22 -15.5 -37t-38.5 -15q-24 0 -39 14.5t-15 37.5v230q0 96 -88 96q-100 0 -100 -95v-231q0 -22 -15.5 -37t-38.5 -15q-24 0 -39 14.5t-15 37.5v230q0 96 -88 96q-100 0 -100 -103v-223q0 -22 -15.5 -37
t-38.5 -15t-38.5 15t-15.5 37v364q0 22 16 38t38 16t38 -16t16 -38q39 60 128 60q106 0 148 -65q48 65 143 65z" />
    <glyph glyph-name="n" unicode="n" horiz-adv-x="499" 
d="M286 468q168 0 168 -174v-250q0 -22 -15.5 -37t-38.5 -15q-24 0 -39 14.5t-15 37.5v230q0 96 -88 96q-100 0 -100 -103v-223q0 -22 -15.5 -37t-38.5 -15t-38.5 15t-15.5 37v364q0 22 16 38t38 16t38 -16t16 -38q39 60 128 60z" />
    <glyph glyph-name="o" unicode="o" horiz-adv-x="496" 
d="M467 227q0 -120 -57.5 -180t-161.5 -60t-161.5 60t-57.5 180t57.5 180.5t161.5 60.5t161.5 -60.5t57.5 -180.5zM358 227q0 149 -110 149t-110 -149q0 -148 110 -148t110 148z" />
    <glyph glyph-name="p" unicode="p" horiz-adv-x="514" 
d="M163 408q13 22 46 41t72 19q203 0 203 -240q0 -241 -203 -241q-80 0 -118 43v-177q0 -23 -15.5 -38.5t-38.5 -15.5t-38.5 15.5t-15.5 38.5v555q0 22 15.5 38t38.5 16t38.5 -16t15.5 -38zM374 227q0 149 -107 149t-107 -149q0 -148 107 -148t107 148z" />
    <glyph glyph-name="q" unicode="q" horiz-adv-x="494" 
d="M343 130v138q0 51 -27.5 79.5t-71.5 28.5q-107 0 -107 -148q0 -73 27.5 -111t79.5 -38q27 0 51.5 12.5t36.5 25.5zM233 -13q-97 0 -150 60.5t-53 180.5t55.5 180t158.5 60q94 0 150.5 -51.5t56.5 -148.5v-415q0 -23 -15.5 -38.5t-38.5 -15.5t-38.5 15.5t-15.5 38.5v174
q-40 -40 -110 -40z" />
    <glyph glyph-name="r" unicode="r" horiz-adv-x="324" 
d="M158 408v-5q14 29 45 46.5t63 17.5q21 0 36 -15t15 -36t-15 -36t-36 -15q-51 0 -79.5 -30t-28.5 -81v-208q0 -22 -16 -38t-38 -16t-38 16t-16 38v362q0 22 16 38t38 16t38 -16t16 -38z" />
    <glyph glyph-name="s" unicode="s" horiz-adv-x="425" 
d="M211 374q-59 0 -59 -38q0 -20 25.5 -33.5t61.5 -24t72 -25t61.5 -45.5t25.5 -77q0 -68 -51 -105t-132 -37q-59 0 -107 21.5t-70 48.5q-12 15 -12 31q0 20 14 34t34 14q16 0 31 -12q50 -41 110 -41q74 0 74 40q0 22 -25 36t-61.5 24t-72.5 24.5t-61 46t-25 78.5
q0 65 47 99.5t120 34.5q52 0 96 -17.5t66 -44.5q10 -13 10 -30q0 -20 -14.5 -34t-33.5 -14q-15 0 -34 14q-44 32 -90 32z" />
    <glyph glyph-name="t" unicode="t" horiz-adv-x="306" 
d="M85 454v84q0 22 15.5 37.5t37.5 15.5t37.5 -15.5t15.5 -37.5v-84h45q19 0 32 -13t13 -32t-13 -32t-32 -13h-45v-242q0 -16 11.5 -26t26.5 -10q19 0 33 -14t14 -33t-14 -33t-33 -14q-66 0 -105 38t-39 98v236h-23q-19 0 -32 13t-13 32t13 32t32 13h23z" />
    <glyph glyph-name="u" unicode="u" horiz-adv-x="485" 
d="M99 462q23 0 38.5 -16t15.5 -38v-233q0 -90 90 -90q89 0 89 90v233q0 22 16 38t38 16t38 -16t16 -38v-233q0 -85 -43.5 -136.5t-153.5 -51.5q-111 0 -154.5 51.5t-43.5 136.5v233q0 22 15.5 38t38.5 16z" />
    <glyph glyph-name="v" unicode="v" horiz-adv-x="452" 
d="M226 -8q-35 0 -50 33l-160 362q-4 10 -4 21q0 22 16 38t38 16q37 0 50 -34l110 -278l110 278q13 34 50 34q22 0 38 -16t16 -38q0 -11 -4 -21l-160 -362q-15 -33 -50 -33z" />
    <glyph glyph-name="w" unicode="w" horiz-adv-x="636" 
d="M381 30l-62 219l-62 -218q-5 -17 -19.5 -28t-32.5 -11q-37 0 -51 35l-137 357q-5 12 -5 24q0 22 16 38t38 16q38 0 51 -35l83 -246l67 242q4 16 17.5 27.5t34.5 11.5q19 0 33 -11t18 -25l67 -245l82 246q13 35 52 35q23 0 38.5 -15t15.5 -37q0 -9 -5 -21l-137 -363
q-12 -34 -50 -34q-18 0 -32.5 10.5t-19.5 27.5z" />
    <glyph glyph-name="x" unicode="x" horiz-adv-x="422" 
d="M211 151l-98 -138q-15 -21 -43 -21q-22 0 -38 16t-16 38q0 16 11 33l121 152l-117 144q-11 15 -11 33q0 22 16 38t38 16q27 0 43 -21l94 -129l94 129q16 21 43 21q22 0 38 -16t16 -38q0 -18 -11 -33l-117 -144l121 -152q11 -17 11 -33q0 -22 -16 -38t-38 -16
q-28 0 -43 21z" />
    <glyph glyph-name="y" unicode="y" horiz-adv-x="452" 
d="M43 -101q45 0 72 32t55 101l-154 355q-4 10 -4 21q0 22 16 38t38 16q37 0 50 -34l110 -278l110 278q13 34 50 34q22 0 38 -16t16 -38q0 -11 -4 -21l-186 -420q-75 -168 -207 -168q-22 0 -37 14t-15 36t15 36t37 14z" />
    <glyph glyph-name="z" unicode="z" horiz-adv-x="409" 
d="M29 409q0 19 13 32t32 13h257q19 0 33.5 -14t14.5 -34q0 -16 -11 -31l-211 -283h182q19 0 32.5 -13.5t13.5 -32.5t-13.5 -32.5t-32.5 -13.5h-276q-19 0 -32.5 13.5t-13.5 32.5q0 15 11 30l215 288h-169q-19 0 -32 13t-13 32z" />
    <glyph glyph-name="braceleft" unicode="{" horiz-adv-x="358" 
d="M30 296q0 17 12.5 29.5t29.5 12.5q34 0 49.5 12.5t15.5 49.5q0 32 -8 97.5t-8 104.5q0 55 39.5 95.5t116.5 40.5q20 0 34.5 -14.5t14.5 -34.5t-14.5 -34.5t-34.5 -14.5q-47 0 -47 -47q0 -32 4.5 -85.5t4.5 -78.5q0 -55 -16 -86t-55 -47q39 -16 55 -47t16 -86
q0 -25 -4.5 -78.5t-4.5 -85.5q0 -47 47 -47q20 0 34.5 -14.5t14.5 -34.5t-14.5 -34.5t-34.5 -14.5q-77 0 -116.5 40.5t-39.5 95.5q0 39 8 104.5t8 97.5q0 37 -15.5 49.5t-49.5 12.5q-17 0 -29.5 12.5t-12.5 29.5z" />
    <glyph glyph-name="bar" unicode="|" horiz-adv-x="220" 
d="M165 753v-858q0 -23 -16.5 -39t-38.5 -16t-38.5 16t-16.5 39v858q0 23 16.5 39t38.5 16t38.5 -16t16.5 -39z" />
    <glyph glyph-name="braceright" unicode="}" horiz-adv-x="358" 
d="M328 296q0 -17 -12.5 -29.5t-29.5 -12.5q-34 0 -49.5 -12.5t-15.5 -49.5q0 -32 8 -97.5t8 -104.5q0 -55 -39.5 -95.5t-116.5 -40.5q-20 0 -34.5 14.5t-14.5 34.5t14.5 34.5t34.5 14.5q47 0 47 47q0 32 -4.5 85.5t-4.5 78.5q0 55 16 86t55 47q-39 16 -55 47t-16 86
q0 25 4.5 78.5t4.5 85.5q0 47 -47 47q-20 0 -34.5 14.5t-14.5 34.5t14.5 34.5t34.5 14.5q77 0 116.5 -40.5t39.5 -95.5q0 -39 -8 -104.5t-8 -97.5q0 -37 15.5 -49.5t49.5 -12.5q17 0 29.5 -12.5t12.5 -29.5z" />
    <glyph glyph-name="asciitilde" unicode="~" horiz-adv-x="468" 
d="M318 316q24 0 37 24q13 26 42 26q19 0 33 -14t14 -33q0 -9 -3 -18q-11 -34 -42.5 -57t-80.5 -23q-37 0 -91.5 29.5t-76.5 29.5q-24 0 -37 -25q-13 -26 -42 -26q-19 0 -33 13.5t-14 33.5q0 9 3 18q11 34 42 57t81 23q38 0 93 -29t75 -29z" />
    <glyph glyph-name="nbspace" unicode="&#xa0;" horiz-adv-x="294" 
 />
    <glyph glyph-name="exclamdown" unicode="&#xa1;" horiz-adv-x="212" 
d="M107 -221q-65 0 -62 56l18 398q2 38 44 38q40 0 42 -38l19 -398q3 -56 -61 -56zM107 468q65 0 65 -65q0 -67 -65 -67q-66 0 -66 67q0 65 66 65z" />
    <glyph glyph-name="cent" unicode="&#xa2;" horiz-adv-x="451" 
d="M29 228q0 106 44.5 165.5t126.5 71.5v37q0 19 13.5 33t32.5 14q20 0 33.5 -13.5t13.5 -33.5v-39q74 -14 116 -64q11 -15 11 -31q0 -20 -14 -34t-34 -14q-22 0 -37 17q-36 39 -89 39q-52 0 -80 -38.5t-28 -109.5q0 -72 28 -110.5t80 -38.5q46 0 99 40q14 10 30 10
q20 0 34 -14t14 -34q0 -21 -17 -37q-46 -41 -113 -53v-40q0 -19 -13.5 -33t-33.5 -14q-19 0 -32.5 14t-13.5 33v39q-82 12 -126.5 72t-44.5 166z" />
    <glyph glyph-name="sterling" unicode="&#xa3;" horiz-adv-x="586" 
d="M349 262h-103q5 -22 5 -41q0 -33 -17.5 -65.5t-46.5 -54.5q34 16 68 16q29 0 71 -15.5t65 -15.5q48 0 65 37q15 30 49 30q23 0 38.5 -15.5t15.5 -38.5q0 -13 -6 -25q-43 -89 -157 -89q-29 0 -86 22t-88 22q-40 0 -78 -27q-17 -12 -34 -12q-22 0 -37.5 15.5t-15.5 37.5
q0 25 19 41q69 62 69 129q0 23 -8 49h-60q-21 0 -35.5 14.5t-14.5 35.5t14.5 35.5t35.5 14.5h15q-34 70 -34 124q0 86 62.5 143.5t162.5 57.5q84 0 143.5 -35.5t86.5 -97.5q4 -11 4 -21q0 -22 -15.5 -37.5t-37.5 -15.5q-31 0 -49 33q-40 74 -132 74q-52 0 -83.5 -28.5
t-31.5 -72.5q0 -50 38 -124h143q21 0 35.5 -14.5t14.5 -35.5t-14.5 -35.5t-35.5 -14.5z" />
    <glyph glyph-name="currency" unicode="&#xa4;" horiz-adv-x="468" 
d="M234 120q-56 0 -98 24l-28 -28q-16 -15 -37 -15q-22 0 -37 15t-15 37t16 38l28 27q-23 39 -23 92t26 94l-30 26q-17 15 -17 39q0 22 15 37t37 15q21 0 37 -15l30 -30q40 24 96 24t96 -24l30 30q16 15 37 15q22 0 37 -15t15 -37q0 -24 -17 -39l-30 -26q26 -41 26 -94
t-23 -92l28 -27q16 -16 16 -38t-15 -37t-37 -15q-21 0 -37 15l-28 28q-42 -24 -98 -24zM234 403q-40 0 -65.5 -26.5t-25.5 -66.5q0 -39 25.5 -66t65.5 -27t65.5 27t25.5 66q0 40 -25.5 66.5t-65.5 26.5z" />
    <glyph glyph-name="yen" unicode="&#xa5;" horiz-adv-x="554" 
d="M489 291q0 -19 -13.5 -32.5t-32.5 -13.5h-108v-41h108q19 0 32.5 -13.5t13.5 -32.5t-13.5 -32.5t-32.5 -13.5h-108v-62q0 -24 -17 -41t-41 -17t-41 17t-17 41v62h-108q-19 0 -32.5 13.5t-13.5 32.5t13.5 32.5t32.5 13.5h108v41h-108q-19 0 -32.5 13.5t-13.5 32.5
t13.5 32.5t32.5 13.5h88l-171 255q-9 12 -9 31q0 24 17 41t41 17q32 0 49 -27l151 -237l151 237q17 27 49 27q24 0 41 -17t17 -41q0 -19 -9 -31l-171 -255h88q19 0 32.5 -13.5t13.5 -32.5z" />
    <glyph glyph-name="brokenbar" unicode="&#xa6;" horiz-adv-x="220" 
d="M165 753v-342q0 -23 -16.5 -39t-38.5 -16t-38.5 16t-16.5 39v342q0 23 16.5 39t38.5 16t38.5 -16t16.5 -39zM165 238v-343q0 -23 -16.5 -39t-38.5 -16t-38.5 16t-16.5 39v343q0 22 16.5 38.5t38.5 16.5t38.5 -16.5t16.5 -38.5z" />
    <glyph glyph-name="section" unicode="&#xa7;" horiz-adv-x="495" 
d="M366 201q0 39 -37.5 65.5t-101.5 48t-76 28.5q-22 -26 -22 -58q0 -39 37.5 -65.5t101.5 -48t76 -28.5q22 26 22 58zM23 285q0 69 58 117q-45 48 -45 113q0 73 55.5 122.5t157.5 49.5q129 0 207 -89q11 -13 11 -32q0 -21 -15 -36t-36 -15t-38 17q-56 54 -129 54
q-52 0 -77.5 -21t-25.5 -50q0 -28 18 -49t46.5 -34.5t63.5 -26t70 -28.5t63.5 -37t46.5 -56.5t18 -82.5q0 -69 -58 -117q45 -48 45 -113q0 -73 -55.5 -122.5t-157.5 -49.5q-135 0 -206 88q-12 14 -12 33q0 21 15 36t36 15q22 0 39 -17q54 -54 128 -54q52 0 77.5 21t25.5 50
q0 28 -18 49t-46.5 34.5t-63.5 26t-70 28.5t-63.5 37t-46.5 56.5t-18 82.5z" />
    <glyph glyph-name="dieresis" unicode="&#xa8;" horiz-adv-x="329" 
d="M74 521q-50 0 -50 51q0 53 50 53t50 -53q0 -51 -50 -51zM255 521q-50 0 -50 51q0 53 50 53t50 -53q0 -51 -50 -51z" />
    <glyph glyph-name="copyright" unicode="&#xa9;" horiz-adv-x="791" 
d="M398 155q-77 0 -120 44.5t-43 137.5t43 138t120 45q48 0 80.5 -18.5t46.5 -41.5q4 -7 4 -16q0 -12 -8.5 -20.5t-20.5 -8.5q-13 0 -22 10q-32 35 -80 35q-47 0 -72 -27t-25 -96q0 -68 25.5 -95t71.5 -27q52 0 87 31q8 8 20 8t20.5 -8.5t8.5 -20.5q0 -8 -5 -16
q-16 -23 -52 -38.5t-79 -15.5zM396 687q169 0 258 -87.5t89 -263.5q0 -175 -89 -262.5t-258 -87.5q-167 0 -257.5 88t-90.5 262q0 175 90.5 263t257.5 88zM396 56q136 0 203.5 68.5t67.5 211.5t-67.5 212t-203.5 69q-272 0 -272 -281q0 -280 272 -280z" />
    <glyph glyph-name="ordfeminine" unicode="&#xaa;" horiz-adv-x="356" 
d="M179 620q-34 0 -68 -27q-9 -6 -19 -6q-14 0 -23.5 9.5t-9.5 23.5q0 13 9 23q38 44 111 44q63 0 99 -29.5t36 -83.5v-172q0 -15 -11 -26t-26 -11t-26 11.5t-11 25.5q-27 -41 -87 -41q-50 0 -81.5 28t-31.5 74q0 45 31 70.5t77 25.5h92v12q0 49 -61 49zM172 423
q28 0 48 16.5t20 43.5v18h-77q-47 0 -47 -38q0 -40 56 -40zM324 276q0 -15 -10.5 -25.5t-25.5 -10.5h-221q-15 0 -25.5 10.5t-10.5 25.5t10.5 25.5t25.5 10.5h221q15 0 25.5 -10.5t10.5 -25.5z" />
    <glyph glyph-name="guillemotleft" unicode="&#xab;" horiz-adv-x="521" 
d="M46 212q0 14 11 27l154 177q13 15 30 15q16 0 27.5 -11.5t11.5 -27.5q0 -15 -10 -25l-141 -155l141 -155q10 -10 10 -25q0 -16 -11.5 -27.5t-27.5 -11.5q-17 0 -30 15l-154 177q-11 13 -11 27zM241 212q0 14 11 27l154 177q14 15 30 15t27.5 -11.5t11.5 -27.5
q0 -15 -10 -25l-141 -155l141 -155q10 -10 10 -25q0 -16 -11.5 -27.5t-27.5 -11.5t-30 15l-154 177q-11 13 -11 27z" />
    <glyph glyph-name="logicalnot" unicode="&#xac;" horiz-adv-x="568" 
d="M535 280v-238q0 -20 -15 -35t-35 -15t-35 15t-15 35v192h-354q-19 0 -33.5 14t-14.5 34t14.5 34t33.5 14h404q20 0 35 -15t15 -35z" />
    <glyph glyph-name="registered" unicode="&#xae;" horiz-adv-x="392" 
d="M187 687q149 0 149 -152q0 -153 -149 -153q-70 0 -108.5 38.5t-38.5 114.5t38.5 114t108.5 38zM188 411q114 0 114 124t-114 124t-114 -124t114 -124zM181 515h-21v-44q0 -6 -4.5 -10.5t-10.5 -4.5t-10.5 4.5t-4.5 10.5v129q0 13 13 13h58q22 0 36 -14.5t14 -34.5
q0 -22 -11.5 -35.5t-28.5 -13.5l32 -36q3 -4 3 -9q0 -14 -14 -14q-8 0 -12 6zM160 541h37q24 0 24 23t-24 23h-37v-46z" />
    <glyph glyph-name="macron" unicode="&#xaf;" horiz-adv-x="397" 
d="M323 562q0 -16 -11 -27t-27 -11h-173q-16 0 -27 11t-11 27t11 27t27 11h173q16 0 27 -11t11 -27z" />
    <glyph glyph-name="degree" unicode="&#xb0;" horiz-adv-x="371" 
d="M322 550q0 -57 -39 -96.5t-98 -39.5q-58 0 -97 39.5t-39 96.5t39 97t97 40q59 0 98 -40t39 -97zM257 550q0 30 -20 51t-52 21q-31 0 -51 -21t-20 -51q0 -29 20 -50t51 -21q32 0 52 21t20 50z" />
    <glyph glyph-name="plusminus" unicode="&#xb1;" horiz-adv-x="454" 
d="M454 324q0 -19 -13.5 -32.5t-32.5 -13.5h-133v-120q0 -20 -14.5 -34t-33.5 -14t-33.5 14t-14.5 34v120h-133q-19 0 -32.5 13.5t-13.5 32.5t13.5 32.5t32.5 13.5h133v121q0 19 14.5 33.5t33.5 14.5t33.5 -14.5t14.5 -33.5v-121h133q19 0 32.5 -13.5t13.5 -32.5zM454 46
q0 -19 -13.5 -32.5t-32.5 -13.5h-362q-19 0 -32.5 13.5t-13.5 32.5t13.5 32.5t32.5 13.5h362q19 0 32.5 -13.5t13.5 -32.5z" />
    <glyph glyph-name="twosuperior" unicode="&#xb2;" horiz-adv-x="289" 
d="M45 688q13 17 40 29.5t56 12.5q53 0 85 -26.5t32 -68.5q0 -33 -23.5 -57.5t-52 -35.5t-52 -25t-23.5 -28h123q14 0 23 -9.5t9 -22.5t-9 -22.5t-23 -9.5h-167q-15 0 -25.5 10.5t-10.5 25.5q0 42 24.5 71.5t54 42t54 28t24.5 32.5q0 30 -43 30q-23 0 -51 -26q-10 -9 -22 -9
q-14 0 -23.5 10t-9.5 23q0 12 10 25z" />
    <glyph glyph-name="threesuperior" unicode="&#xb3;" horiz-adv-x="276" 
d="M174 615q38 0 58 -30.5t20 -63.5q0 -47 -30 -74.5t-89 -27.5q-38 0 -66 15.5t-40 30.5q-8 11 -8 22q0 13 9 22.5t22 9.5t23 -10q27 -27 60 -27q47 0 47 39t-38 39h-22q-12 0 -20.5 8.5t-8.5 20.5q0 13 12 26l43 45h-84q-14 0 -23 9t-9 23t9 23t23 9h141q13 0 22.5 -9
t9.5 -23q0 -13 -10 -24z" />
    <glyph glyph-name="acute" unicode="&#xb4;" horiz-adv-x="384" 
d="M120 514q-25 23 -5 45l85 108q10 14 27.5 13t32.5 -16q16 -15 16.5 -32t-12.5 -28l-98 -90q-24 -21 -46 0z" />
    <glyph glyph-name="mu" unicode="&#xb5;" horiz-adv-x="485" 
d="M153 408v-233q0 -90 90 -90q89 0 89 90v233q0 22 16 38t38 16t38 -16t16 -38v-233q0 -85 -43.5 -136.5t-153.5 -51.5q-61 0 -90 31v-169q0 -23 -15.5 -38.5t-38.5 -15.5t-38.5 15.5t-15.5 38.5v559q0 22 15.5 38t38.5 16t38.5 -16t15.5 -38z" />
    <glyph glyph-name="paragraph" unicode="&#xb6;" horiz-adv-x="552" 
d="M536 622q0 -21 -15 -36t-36 -15h-13v-272q0 -332 -293 -332q-28 0 -65.5 6.5t-52.5 15.5q-26 14 -26 44q0 20 15 35t35 15q11 0 35 -9t40 -9q85 0 85 147v82h-23q-79 0 -134 55t-55 134t55 134.5t134 55.5h263q21 0 36 -15t15 -36zM358 571h-37v-345q0 -102 -53 -159
q48 24 69 70t21 133v301z" />
    <glyph glyph-name="periodcentered" unicode="&#xb7;" horiz-adv-x="225" 
d="M113 235q-66 0 -66 65q0 67 66 67q65 0 65 -67q0 -65 -65 -65z" />
    <glyph glyph-name="cedilla" unicode="&#xb8;" horiz-adv-x="327" 
d="M263 -139q0 -97 -109 -97q-47 0 -80 22q-11 7 -11 21q0 11 7.5 18.5t18.5 7.5q6 0 12 -3q28 -14 57 -14q49 0 49 45q0 42 -54 42q-9 0 -23 -3t-21 -3q-21 0 -21 22v81h50l-5 -53q13 3 35 3q43 0 69 -23.5t26 -65.5z" />
    <glyph glyph-name="onesuperior" unicode="&#xb9;" horiz-adv-x="228" 
d="M144 422q-15 0 -26 11t-11 26v169l-32 -20q-8 -4 -16 -4q-14 0 -24.5 10.5t-10.5 24.5q0 19 17 30l83 52q10 6 20 6q15 0 26 -11t11 -26v-231q0 -15 -11 -26t-26 -11z" />
    <glyph glyph-name="ordmasculine" unicode="&#xba;" horiz-adv-x="362" 
d="M329 524q0 -81 -39 -122t-110 -41q-70 0 -109 41t-39 122t39 122t109 41q71 0 110 -41t39 -122zM255 524q0 100 -75 100q-74 0 -74 -100t74 -100q75 0 75 100zM324 276q0 -15 -10.5 -25.5t-25.5 -10.5h-221q-15 0 -25.5 10.5t-10.5 25.5t10.5 25.5t25.5 10.5h221
q15 0 25.5 -10.5t10.5 -25.5z" />
    <glyph glyph-name="guillemotright" unicode="&#xbb;" horiz-adv-x="521" 
d="M475 212q0 -14 -11 -27l-154 -177q-14 -15 -30 -15t-27.5 11.5t-11.5 27.5q0 15 10 25l141 155l-141 155q-10 10 -10 25q0 16 11.5 27.5t27.5 11.5t30 -15l154 -177q11 -13 11 -27zM280 212q0 -14 -11 -27l-154 -177q-13 -15 -30 -15q-16 0 -27.5 11.5t-11.5 27.5
q0 15 10 25l141 155l-141 155q-10 10 -10 25q0 16 11.5 27.5t27.5 11.5q17 0 30 -15l154 -177q11 -13 11 -27z" />
    <glyph glyph-name="onequarter" unicode="&#xbc;" horiz-adv-x="512" 
d="M140 379q-15 0 -26 11t-11 26v169l-32 -20q-8 -4 -16 -4q-14 0 -24.5 10.5t-10.5 24.5q0 19 17 30l83 52q10 6 20 6q15 0 26 -11t11 -26v-231q0 -15 -11 -26t-26 -11zM85 49l235 605q11 27 39 27q18 0 30 -12.5t12 -29.5q0 -7 -3 -15l-235 -605q-10 -27 -39 -27
q-17 0 -29.5 12.5t-12.5 29.5q0 8 3 15zM444 260v-142h14q14 0 23.5 -10t9.5 -23t-9.5 -23t-23.5 -10h-14v-23q0 -15 -11 -26t-26 -11t-26 11t-11 26v23h-97q-13 0 -23 10t-10 23q0 11 7 20l129 175q14 17 31 17q15 0 26 -11t11 -26zM322 118h48v68z" />
    <glyph glyph-name="onehalf" unicode="&#xbd;" horiz-adv-x="548" 
d="M145 379q-15 0 -26 11t-11 26v169l-32 -20q-8 -4 -16 -4q-14 0 -24.5 10.5t-10.5 24.5q0 19 17 30l83 52q10 6 20 6q15 0 26 -11t11 -26v-231q0 -15 -11 -26t-26 -11zM90 49l235 605q11 27 39 27q18 0 30 -12.5t12 -29.5q0 -7 -3 -15l-235 -605q-10 -27 -39 -27
q-17 0 -29.5 12.5t-12.5 29.5q0 8 3 15zM305 263q13 17 40 29.5t56 12.5q53 0 85 -26.5t32 -68.5q0 -33 -23.5 -57.5t-52 -35.5t-52 -25t-23.5 -28h123q14 0 23 -9t9 -23t-9 -23t-23 -9h-167q-15 0 -25.5 10.5t-10.5 25.5q0 42 24.5 71.5t54 42t54 28t24.5 32.5q0 30 -43 30
q-23 0 -51 -26q-10 -9 -22 -9q-14 0 -23.5 9.5t-9.5 23.5q0 12 10 25z" />
    <glyph glyph-name="threequarters" unicode="&#xbe;" horiz-adv-x="558" 
d="M141 49l235 605q11 27 39 27q18 0 30 -12.5t12 -29.5q0 -7 -3 -15l-235 -605q-10 -27 -39 -27q-17 0 -29.5 12.5t-12.5 29.5q0 8 3 15zM500 260v-142h14q14 0 23.5 -10t9.5 -23t-9.5 -23t-23.5 -10h-14v-23q0 -15 -11 -26t-26 -11t-26 11t-11 26v23h-97q-13 0 -23 10
t-10 23q0 11 7 20l129 175q14 17 31 17q15 0 26 -11t11 -26zM378 118h48v68zM174 572q38 0 58 -30.5t20 -63.5q0 -47 -30 -74.5t-89 -27.5q-38 0 -66 15.5t-40 30.5q-8 11 -8 22q0 13 9 22.5t22 9.5t23 -10q27 -27 60 -27q47 0 47 39t-38 39h-22q-12 0 -20.5 8.5t-8.5 20.5
t12 26l43 45h-84q-14 0 -23 9.5t-9 22.5t9 22.5t23 9.5h141q13 0 22.5 -9.5t9.5 -22.5t-10 -24z" />
    <glyph glyph-name="questiondown" unicode="&#xbf;" horiz-adv-x="453" 
d="M285 273q37 -36 37 -85q0 -42 -30.5 -75.5t-66.5 -52t-66.5 -48t-30.5 -64.5q0 -37 26.5 -57t74.5 -20q43 0 68.5 21.5t25.5 62.5q0 23 16.5 39t38.5 16t38.5 -16t16.5 -39q0 -86 -54 -134t-150 -48q-99 0 -154 45.5t-55 129.5q0 55 30 95.5t65.5 59t65.5 39t30 39.5
q0 10 -10 24q-9 13 -9 30q0 24 17 39t37 15q23 0 39 -16zM249 468q66 0 66 -65q0 -67 -66 -67q-65 0 -65 67q0 65 65 65z" />
    <glyph glyph-name="Agrave" unicode="&#xc0;" horiz-adv-x="624" 
d="M394 281l-82 210l-82 -210h164zM433 175h-242l-61 -145q-16 -38 -54 -38q-23 0 -40 17t-17 40q0 12 4 21l236 575q15 36 53 36t53 -36l236 -575q4 -9 4 -21q0 -23 -17 -40t-40 -17q-38 0 -54 38zM385 722q-22 -21 -46 0l-98 90q-13 11 -12.5 28t16.5 32q15 15 32.5 16
t27.5 -13l85 -108q20 -22 -5 -45z" />
    <glyph glyph-name="Aacute" unicode="&#xc1;" horiz-adv-x="624" 
d="M394 281l-82 210l-82 -210h164zM433 175h-242l-61 -145q-16 -38 -54 -38q-23 0 -40 17t-17 40q0 12 4 21l236 575q15 36 53 36t53 -36l236 -575q4 -9 4 -21q0 -23 -17 -40t-40 -17q-38 0 -54 38zM240 722q-25 23 -5 45l85 108q10 14 27.5 13t32.5 -16q16 -15 16.5 -32
t-12.5 -28l-98 -90q-24 -21 -46 0z" />
    <glyph glyph-name="Acircumflex" unicode="&#xc2;" horiz-adv-x="624" 
d="M394 281l-82 210l-82 -210h164zM433 175h-242l-61 -145q-16 -38 -54 -38q-23 0 -40 17t-17 40q0 12 4 21l236 575q15 36 53 36t53 -36l236 -575q4 -9 4 -21q0 -23 -17 -40t-40 -17q-38 0 -54 38zM312 856q13 0 23 -7l93 -62q18 -13 18 -33q0 -16 -11 -27.5t-28 -11.5
q-14 0 -23 7l-72 50l-72 -50q-9 -7 -23 -7q-17 0 -28 11.5t-11 27.5q0 20 18 33l93 62q10 7 23 7z" />
    <glyph glyph-name="Atilde" unicode="&#xc3;" horiz-adv-x="624" 
d="M394 281l-82 210l-82 -210h164zM433 175h-242l-61 -145q-16 -38 -54 -38q-23 0 -40 17t-17 40q0 12 4 21l236 575q15 36 53 36t53 -36l236 -575q4 -9 4 -21q0 -23 -17 -40t-40 -17q-38 0 -54 38zM372 803q14 0 26 16q12 17 33 17q17 0 28 -11t11 -28q0 -10 -3 -16
q-10 -24 -33.5 -38t-52.5 -14q-31 0 -73 17t-56 17t-26 -16q-12 -17 -33 -17q-17 0 -28 11t-11 28q0 10 3 16q10 24 33.5 38t52.5 14q30 0 71.5 -17t57.5 -17z" />
    <glyph glyph-name="Adieresis" unicode="&#xc4;" horiz-adv-x="624" 
d="M394 281l-82 210l-82 -210h164zM433 175h-242l-61 -145q-16 -38 -54 -38q-23 0 -40 17t-17 40q0 12 4 21l236 575q15 36 53 36t53 -36l236 -575q4 -9 4 -21q0 -23 -17 -40t-40 -17q-38 0 -54 38zM222 740q-50 0 -50 51q0 53 50 53t50 -53q0 -51 -50 -51zM403 740
q-50 0 -50 51q0 53 50 53t50 -53q0 -51 -50 -51z" />
    <glyph glyph-name="Aring" unicode="&#xc5;" horiz-adv-x="624" 
d="M394 281l-82 210l-82 -210h164zM433 175h-242l-61 -145q-16 -38 -54 -38q-23 0 -40 17t-17 40q0 12 4 21l236 575q15 36 53 36t53 -36l236 -575q4 -9 4 -21q0 -23 -17 -40t-40 -17q-38 0 -54 38zM312 753q50 0 50 49t-50 49t-50 -49t50 -49zM312 901q52 0 79 -26t27 -73
t-27 -73t-79 -26t-79 26t-27 73t27 73t79 26z" />
    <glyph glyph-name="AE" unicode="&#xc6;" horiz-adv-x="864" 
d="M296 291h105v166zM782 0h-323q-24 0 -41 16t-17 40v129h-168l-105 -166q-18 -27 -48 -27q-23 0 -40 17t-17 40q0 16 10 32l377 566q18 26 46 26h315q22 0 37 -15t15 -37t-15 -37t-37 -15h-254v-179h189q21 0 36 -15t15 -36t-15 -36t-36 -15h-189v-184h265q22 0 37 -15
t15 -37t-15 -37t-37 -15z" />
    <glyph glyph-name="Ccedilla" unicode="&#xc7;" horiz-adv-x="640" 
d="M459 -139q0 -97 -109 -97q-47 0 -80 22q-11 7 -11 21q0 11 7.5 18.5t18.5 7.5q6 0 12 -3q28 -14 57 -14q49 0 49 45q0 42 -54 42q-9 0 -23 -3t-21 -3q-21 0 -21 22v71q-250 33 -250 346q0 175 80.5 263t232.5 88q167 0 241 -108q11 -17 11 -33q0 -22 -16 -37.5t-38 -15.5
t-41 20q-33 36 -69 53t-88 17q-99 0 -146 -61t-47 -186q0 -130 46 -188t147 -58q55 0 90.5 14.5t71.5 51.5q22 22 43 22q22 0 38 -16t16 -38q0 -17 -10 -30q-88 -108 -264 -108l-3 -39q13 3 35 3q43 0 69 -23.5t26 -65.5z" />
    <glyph glyph-name="Egrave" unicode="&#xc8;" horiz-adv-x="523" 
d="M176 569v-179h189q21 0 36 -15t15 -36t-15 -36t-36 -15h-189v-184h265q22 0 37 -15t15 -37t-15 -37t-37 -15h-323q-24 0 -41 17t-17 41v557q0 24 17 41t41 17h312q22 0 37 -15t15 -37t-15 -37t-37 -15h-254zM346 722q-22 -21 -46 0l-98 90q-13 11 -12.5 28t16.5 32
q15 15 32.5 16t27.5 -13l85 -108q20 -22 -5 -45z" />
    <glyph glyph-name="Eacute" unicode="&#xc9;" horiz-adv-x="523" 
d="M176 569v-179h189q21 0 36 -15t15 -36t-15 -36t-36 -15h-189v-184h265q22 0 37 -15t15 -37t-15 -37t-37 -15h-323q-24 0 -41 17t-17 41v557q0 24 17 41t41 17h312q22 0 37 -15t15 -37t-15 -37t-37 -15h-254zM223 722q-25 23 -5 45l85 108q10 14 27.5 13t32.5 -16
q16 -15 16.5 -32t-12.5 -28l-98 -90q-24 -21 -46 0z" />
    <glyph glyph-name="Ecircumflex" unicode="&#xca;" horiz-adv-x="523" 
d="M176 569v-179h189q21 0 36 -15t15 -36t-15 -36t-36 -15h-189v-184h265q22 0 37 -15t15 -37t-15 -37t-37 -15h-323q-24 0 -41 17t-17 41v557q0 24 17 41t41 17h312q22 0 37 -15t15 -37t-15 -37t-37 -15h-254zM279 856q13 0 23 -7l93 -62q18 -13 18 -33q0 -16 -11.5 -27.5
t-27.5 -11.5q-14 0 -23 7l-72 50l-72 -50q-9 -7 -23 -7q-16 0 -27.5 11.5t-11.5 27.5q0 20 18 33l93 62q10 7 23 7z" />
    <glyph glyph-name="Edieresis" unicode="&#xcb;" horiz-adv-x="523" 
d="M176 569v-179h189q21 0 36 -15t15 -36t-15 -36t-36 -15h-189v-184h265q22 0 37 -15t15 -37t-15 -37t-37 -15h-323q-24 0 -41 17t-17 41v557q0 24 17 41t41 17h312q22 0 37 -15t15 -37t-15 -37t-37 -15h-254zM187 740q-50 0 -50 51q0 53 50 53t50 -53q0 -51 -50 -51z
M368 740q-50 0 -50 51q0 53 50 53t50 -53q0 -51 -50 -51z" />
    <glyph glyph-name="Igrave" unicode="&#xcc;" horiz-adv-x="236" 
d="M176 623v-573q0 -24 -17 -41t-41 -17t-41 17t-17 41v573q0 24 17 41t41 17t41 -17t17 -41zM191 722q-22 -21 -46 0l-98 90q-13 11 -12.5 28t16.5 32q15 15 32.5 16t27.5 -13l85 -108q20 -22 -5 -45z" />
    <glyph glyph-name="Iacute" unicode="&#xcd;" horiz-adv-x="236" 
d="M176 623v-573q0 -24 -17 -41t-41 -17t-41 17t-17 41v573q0 24 17 41t41 17t41 -17t17 -41zM64 722q-25 23 -5 45l85 108q10 14 27.5 13t32.5 -16q16 -15 16.5 -32t-12.5 -28l-98 -90q-24 -21 -46 0z" />
    <glyph glyph-name="Icircumflex" unicode="&#xce;" horiz-adv-x="236" 
d="M176 623v-573q0 -24 -17 -41t-41 -17t-41 17t-17 41v573q0 24 17 41t41 17t41 -17t17 -41zM119 856q13 0 23 -7l93 -62q18 -13 18 -33q0 -16 -11.5 -27.5t-27.5 -11.5q-14 0 -23 7l-72 50l-72 -50q-9 -7 -23 -7q-16 0 -27.5 11.5t-11.5 27.5q0 20 18 33l93 62q10 7 23 7z
" />
    <glyph glyph-name="Idieresis" unicode="&#xcf;" horiz-adv-x="236" 
d="M176 623v-573q0 -24 -17 -41t-41 -17t-41 17t-17 41v573q0 24 17 41t41 17t41 -17t17 -41zM30 740q-50 0 -50 51q0 53 50 53t50 -53q0 -51 -50 -51zM211 740q-50 0 -50 51q0 53 50 53t50 -53q0 -51 -50 -51z" />
    <glyph glyph-name="Eth" unicode="&#xd0;" horiz-adv-x="636" 
d="M143 673h135q157 0 241 -79.5t84 -257.5t-84 -257t-241 -79h-135q-24 0 -41 17t-17 41v244h-22q-19 0 -32.5 13.5t-13.5 32.5t13.5 32.5t32.5 13.5h22v221q0 24 17 41t41 17zM388 348q0 -19 -13.5 -32.5t-32.5 -13.5h-141v-198h77q101 0 153 53.5t52 178.5t-52 179
t-153 54h-77v-175h141q19 0 32.5 -13.5t13.5 -32.5z" />
    <glyph glyph-name="Ntilde" unicode="&#xd1;" horiz-adv-x="623" 
d="M511 681q23 0 40 -17t17 -40v-575q0 -23 -17 -40t-40 -17q-30 0 -47 25l-295 426v-394q0 -23 -17 -40t-40 -17t-40 17t-17 40v575q0 23 17 40t40 17q30 0 46 -24l296 -429v396q0 23 17 40t40 17zM371 803q14 0 26 16q12 17 33 17q16 0 27.5 -11t11.5 -28q0 -10 -3 -16
q-10 -24 -33.5 -38t-52.5 -14q-31 0 -73 17t-56 17t-26 -16q-12 -17 -33 -17q-16 0 -27.5 11t-11.5 28q0 10 3 16q10 24 33.5 38t52.5 14q30 0 71.5 -17t57.5 -17z" />
    <glyph glyph-name="Ograve" unicode="&#xd2;" horiz-adv-x="702" 
d="M351 -14q153 0 235 88.5t82 261.5q0 175 -81.5 263t-235.5 88t-235.5 -88t-81.5 -263q0 -173 82 -261.5t235 -88.5zM351 583q197 0 197 -247q0 -246 -197 -246t-197 246q0 247 197 247zM424 722q-22 -21 -46 0l-98 90q-13 11 -12.5 28t16.5 32q15 15 32.5 16t27.5 -13
l85 -108q20 -22 -5 -45z" />
    <glyph glyph-name="Oacute" unicode="&#xd3;" horiz-adv-x="702" 
d="M351 -14q153 0 235 88.5t82 261.5q0 175 -81.5 263t-235.5 88t-235.5 -88t-81.5 -263q0 -173 82 -261.5t235 -88.5zM351 583q197 0 197 -247q0 -246 -197 -246t-197 246q0 247 197 247zM296 722q-25 23 -5 45l85 108q10 14 27.5 13t32.5 -16q16 -15 16.5 -32t-12.5 -28
l-98 -90q-24 -21 -46 0z" />
    <glyph glyph-name="Ocircumflex" unicode="&#xd4;" horiz-adv-x="702" 
d="M351 -14q153 0 235 88.5t82 261.5q0 175 -81.5 263t-235.5 88t-235.5 -88t-81.5 -263q0 -173 82 -261.5t235 -88.5zM351 583q197 0 197 -247q0 -246 -197 -246t-197 246q0 247 197 247zM350 856q13 0 23 -7l93 -62q18 -13 18 -33q0 -16 -11 -27.5t-28 -11.5q-14 0 -23 7
l-72 50l-72 -50q-9 -7 -23 -7q-17 0 -28 11.5t-11 27.5q0 20 18 33l93 62q10 7 23 7z" />
    <glyph glyph-name="Otilde" unicode="&#xd5;" horiz-adv-x="702" 
d="M351 -14q153 0 235 88.5t82 261.5q0 175 -81.5 263t-235.5 88t-235.5 -88t-81.5 -263q0 -173 82 -261.5t235 -88.5zM351 583q197 0 197 -247q0 -246 -197 -246t-197 246q0 247 197 247zM411 803q14 0 26 16q12 17 33 17q16 0 27.5 -11t11.5 -28q0 -10 -3 -16
q-10 -24 -33.5 -38t-52.5 -14q-31 0 -73 17t-56 17t-26 -16q-12 -17 -33 -17q-16 0 -27.5 11t-11.5 28q0 10 3 16q10 24 33.5 38t52.5 14q30 0 71.5 -17t57.5 -17z" />
    <glyph glyph-name="Odieresis" unicode="&#xd6;" horiz-adv-x="702" 
d="M351 -14q153 0 235 88.5t82 261.5q0 175 -81.5 263t-235.5 88t-235.5 -88t-81.5 -263q0 -173 82 -261.5t235 -88.5zM351 583q197 0 197 -247q0 -246 -197 -246t-197 246q0 247 197 247zM260 740q-50 0 -50 51q0 53 50 53t50 -53q0 -51 -50 -51zM441 740q-50 0 -50 51
q0 53 50 53t50 -53q0 -51 -50 -51z" />
    <glyph glyph-name="multiply" unicode="&#xd7;" horiz-adv-x="372" 
d="M186 286l103 98q14 14 34 14t34.5 -14.5t14.5 -34.5q0 -22 -16 -36l-101 -94l101 -94q16 -14 16 -36q0 -20 -14.5 -34.5t-34.5 -14.5t-34 14l-103 98l-103 -98q-14 -14 -34 -14t-34.5 14.5t-14.5 34.5q0 21 16 36l101 94l-101 94q-16 14 -16 36q0 20 14.5 34.5t34.5 14.5
t34 -14z" />
    <glyph glyph-name="Oslash" unicode="&#xd8;" horiz-adv-x="702" 
d="M351 -14q-115 0 -188 48l-36 -44q-13 -16 -34 -16q-18 0 -31 13t-13 31q0 16 10 28l40 49q-65 86 -65 241q0 175 81.5 263t235.5 88q115 0 189 -49l34 42q13 16 34 16q18 0 31 -13t13 -31q0 -16 -10 -28l-38 -47q64 -87 64 -241q0 -173 -82 -261.5t-235 -88.5zM351 583
q-197 0 -197 -247q0 -87 24 -144l291 358q-46 33 -118 33zM351 90q197 0 197 246q0 86 -24 143l-290 -357q44 -32 117 -32z" />
    <glyph glyph-name="Ugrave" unicode="&#xd9;" horiz-adv-x="619" 
d="M312 -14q-72 0 -124 20t-78.5 55t-38 73.5t-11.5 85.5v403q0 24 17 41t41 17t41 -17t17 -41v-403q0 -132 136 -132t136 132v403q0 24 17 41t41 17t41 -17t17 -41v-403q0 -47 -11.5 -85.5t-38 -73.5t-78.5 -55t-124 -20zM374 722q-22 -21 -46 0l-98 90q-13 11 -12.5 28
t16.5 32q15 15 32.5 16t27.5 -13l85 -108q20 -22 -5 -45z" />
    <glyph glyph-name="Uacute" unicode="&#xda;" horiz-adv-x="619" 
d="M312 -14q-72 0 -124 20t-78.5 55t-38 73.5t-11.5 85.5v403q0 24 17 41t41 17t41 -17t17 -41v-403q0 -132 136 -132t136 132v403q0 24 17 41t41 17t41 -17t17 -41v-403q0 -47 -11.5 -85.5t-38 -73.5t-78.5 -55t-124 -20zM271 722q-25 23 -5 45l85 108q10 14 27.5 13
t32.5 -16q16 -15 16.5 -32t-12.5 -28l-98 -90q-24 -21 -46 0z" />
    <glyph glyph-name="Ucircumflex" unicode="&#xdb;" horiz-adv-x="619" 
d="M312 -14q-72 0 -124 20t-78.5 55t-38 73.5t-11.5 85.5v403q0 24 17 41t41 17t41 -17t17 -41v-403q0 -132 136 -132t136 132v403q0 24 17 41t41 17t41 -17t17 -41v-403q0 -47 -11.5 -85.5t-38 -73.5t-78.5 -55t-124 -20zM316 856q13 0 23 -7l93 -62q18 -13 18 -33
q0 -16 -11 -27.5t-28 -11.5q-14 0 -23 7l-72 50l-72 -50q-9 -7 -23 -7q-17 0 -28 11.5t-11 27.5q0 20 18 33l93 62q10 7 23 7z" />
    <glyph glyph-name="Udieresis" unicode="&#xdc;" horiz-adv-x="619" 
d="M312 -14q-72 0 -124 20t-78.5 55t-38 73.5t-11.5 85.5v403q0 24 17 41t41 17t41 -17t17 -41v-403q0 -132 136 -132t136 132v403q0 24 17 41t41 17t41 -17t17 -41v-403q0 -47 -11.5 -85.5t-38 -73.5t-78.5 -55t-124 -20zM223 740q-50 0 -50 51q0 53 50 53t50 -53
q0 -51 -50 -51zM404 740q-50 0 -50 51q0 53 50 53t50 -53q0 -51 -50 -51z" />
    <glyph glyph-name="Yacute" unicode="&#xdd;" horiz-adv-x="554" 
d="M126 654l151 -237l151 237q17 27 49 27q24 0 41 -17t17 -41q0 -19 -9 -31l-191 -285v-257q0 -24 -17 -41t-41 -17t-41 17t-17 41v257l-191 285q-9 12 -9 31q0 24 17 41t41 17q32 0 49 -27zM240 722q-25 23 -5 45l85 108q10 14 27.5 13t32.5 -16q16 -15 16.5 -32
t-12.5 -28l-98 -90q-24 -21 -46 0z" />
    <glyph glyph-name="Thorn" unicode="&#xde;" horiz-adv-x="552" 
d="M176 623v-68h133q93 0 151.5 -52t58.5 -153q0 -100 -58.5 -153t-151.5 -53h-133v-94q0 -24 -17 -41t-41 -17t-41 17t-17 41v573q0 24 17 41t41 17t41 -17t17 -41zM300 451h-124v-203h124q47 0 73 26.5t26 75.5t-26.5 75t-72.5 26z" />
    <glyph glyph-name="germandbls" unicode="&#xdf;" horiz-adv-x="588" 
d="M207 334q0 28 14 52t34.5 41t41 32t34.5 32.5t14 36.5q0 23 -20.5 43t-67.5 20q-42 0 -70.5 -26t-28.5 -68v-453q0 -22 -15.5 -37t-38.5 -15q-24 0 -39 14.5t-15 37.5v445q0 84 56.5 140t150.5 56q86 0 141 -46.5t55 -110.5q0 -40 -21.5 -70t-47.5 -44.5t-47.5 -35
t-21.5 -42.5q0 -20 25.5 -33.5t61.5 -24t72 -25t61.5 -45.5t25.5 -77q0 -68 -51 -105t-132 -37q-59 0 -107 21.5t-70 48.5q-12 15 -12 31q0 20 14.5 34t33.5 14q16 0 31 -12q50 -41 110 -41q74 0 74 40q0 23 -25 38t-61 26t-72.5 25.5t-61.5 44.5t-25 75z" />
    <glyph glyph-name="agrave" unicode="&#xe0;" horiz-adv-x="472" 
d="M229 372q-47 0 -100 -38q-14 -10 -30 -10q-19 0 -33 14t-14 33t13 33q58 64 164 64q93 0 145.5 -44t52.5 -123v-256q0 -22 -15.5 -37.5t-37.5 -15.5t-37.5 15.5t-15.5 37.5q-36 -58 -131 -58q-73 0 -118 41.5t-45 109.5q0 67 46.5 104t115.5 37h131v18q0 34 -24 54.5
t-67 20.5zM218 77q42 0 72 25t30 65v28h-117q-68 0 -68 -57q0 -61 83 -61zM298 514q-22 -21 -46 0l-98 90q-13 11 -12.5 28t16.5 32q15 15 32.5 16t27.5 -13l85 -108q20 -22 -5 -45z" />
    <glyph glyph-name="aacute" unicode="&#xe1;" horiz-adv-x="472" 
d="M229 372q-47 0 -100 -38q-14 -10 -30 -10q-19 0 -33 14t-14 33t13 33q58 64 164 64q93 0 145.5 -44t52.5 -123v-256q0 -22 -15.5 -37.5t-37.5 -15.5t-37.5 15.5t-15.5 37.5q-36 -58 -131 -58q-73 0 -118 41.5t-45 109.5q0 67 46.5 104t115.5 37h131v18q0 34 -24 54.5
t-67 20.5zM218 77q42 0 72 25t30 65v28h-117q-68 0 -68 -57q0 -61 83 -61zM182 514q-25 23 -5 45l85 108q10 14 27.5 13t32.5 -16q16 -15 16.5 -32t-12.5 -28l-98 -90q-24 -21 -46 0z" />
    <glyph glyph-name="acircumflex" unicode="&#xe2;" horiz-adv-x="472" 
d="M229 372q-47 0 -100 -38q-14 -10 -30 -10q-19 0 -33 14t-14 33t13 33q58 64 164 64q93 0 145.5 -44t52.5 -123v-256q0 -22 -15.5 -37.5t-37.5 -15.5t-37.5 15.5t-15.5 37.5q-36 -58 -131 -58q-73 0 -118 41.5t-45 109.5q0 67 46.5 104t115.5 37h131v18q0 34 -24 54.5
t-67 20.5zM218 77q42 0 72 25t30 65v28h-117q-68 0 -68 -57q0 -61 83 -61zM235 657q13 0 23 -7l93 -62q18 -13 18 -33q0 -17 -11.5 -28t-27.5 -11q-14 0 -23 7l-72 50l-72 -50q-9 -7 -23 -7q-16 0 -27.5 11t-11.5 28q0 20 18 33l93 62q10 7 23 7z" />
    <glyph glyph-name="atilde" unicode="&#xe3;" horiz-adv-x="472" 
d="M229 372q-47 0 -100 -38q-14 -10 -30 -10q-19 0 -33 14t-14 33t13 33q58 64 164 64q93 0 145.5 -44t52.5 -123v-256q0 -22 -15.5 -37.5t-37.5 -15.5t-37.5 15.5t-15.5 37.5q-36 -58 -131 -58q-73 0 -118 41.5t-45 109.5q0 67 46.5 104t115.5 37h131v18q0 34 -24 54.5
t-67 20.5zM218 77q42 0 72 25t30 65v28h-117q-68 0 -68 -57q0 -61 83 -61zM296 599q14 0 26 16q12 17 33 17q17 0 28 -11t11 -28q0 -10 -3 -16q-10 -24 -33.5 -38t-52.5 -14q-31 0 -73 17t-56 17t-26 -16q-12 -17 -33 -17q-17 0 -28 11t-11 28q0 10 3 16q10 24 33.5 38
t52.5 14q30 0 71.5 -17t57.5 -17z" />
    <glyph glyph-name="adieresis" unicode="&#xe4;" horiz-adv-x="472" 
d="M229 372q-47 0 -100 -38q-14 -10 -30 -10q-19 0 -33 14t-14 33t13 33q58 64 164 64q93 0 145.5 -44t52.5 -123v-256q0 -22 -15.5 -37.5t-37.5 -15.5t-37.5 15.5t-15.5 37.5q-36 -58 -131 -58q-73 0 -118 41.5t-45 109.5q0 67 46.5 104t115.5 37h131v18q0 34 -24 54.5
t-67 20.5zM218 77q42 0 72 25t30 65v28h-117q-68 0 -68 -57q0 -61 83 -61zM145 521q-50 0 -50 51q0 53 50 53t50 -53q0 -51 -50 -51zM326 521q-50 0 -50 51q0 53 50 53t50 -53q0 -51 -50 -51z" />
    <glyph glyph-name="aring" unicode="&#xe5;" horiz-adv-x="472" 
d="M229 372q-47 0 -100 -38q-14 -10 -30 -10q-19 0 -33 14t-14 33t13 33q58 64 164 64q93 0 145.5 -44t52.5 -123v-256q0 -22 -15.5 -37.5t-37.5 -15.5t-37.5 15.5t-15.5 37.5q-36 -58 -131 -58q-73 0 -118 41.5t-45 109.5q0 67 46.5 104t115.5 37h131v18q0 34 -24 54.5
t-67 20.5zM218 77q42 0 72 25t30 65v28h-117q-68 0 -68 -57q0 -61 83 -61zM236 551q50 0 50 49t-50 49t-50 -49t50 -49zM236 699q52 0 79 -26t27 -73t-27 -73t-79 -26t-79 26t-27 73t27 73t79 26z" />
    <glyph glyph-name="ae" unicode="&#xe6;" horiz-adv-x="760" 
d="M229 372q-47 0 -100 -38q-14 -10 -30 -10q-19 0 -33 14t-14 33t13 33q58 64 164 64q104 0 156 -54q56 54 150 54q60 0 102 -20.5t62 -54t28 -63.5t8 -61q0 -19 -1 -29t-6.5 -24t-18.5 -20.5t-35 -6.5h-247q0 -54 32 -79.5t85 -25.5q52 0 99 31q17 11 32 11q19 0 33 -14
t14 -33q0 -22 -17 -37q-58 -55 -161 -55q-129 0 -180 82q-28 -40 -67 -61t-107 -21q-73 0 -118 41.5t-45 109.5q0 67 46.5 104t115.5 37h131v18q0 34 -24 54.5t-67 20.5zM218 77q42 0 72 25t30 65v28h-117q-68 0 -68 -57q0 -61 83 -61zM535 376q-45 0 -73 -25t-32 -72h198
q0 40 -23.5 68.5t-69.5 28.5z" />
    <glyph glyph-name="ccedilla" unicode="&#xe7;" horiz-adv-x="451" 
d="M360 -139q0 -97 -109 -97q-47 0 -80 22q-11 7 -11 21q0 11 8 18.5t18 7.5q6 0 12 -3q28 -14 57 -14q49 0 49 45q0 42 -54 42q-9 0 -23 -3t-21 -3q-21 0 -21 22v74q-156 33 -156 235q0 120 56.5 180t160.5 60q61 0 102.5 -22t60.5 -47q11 -15 11 -31q0 -20 -14 -34
t-34 -14q-22 0 -37 17q-36 39 -89 39q-52 0 -80 -38.5t-28 -109.5q0 -72 28 -110.5t80 -38.5q45 0 99 40q14 10 30 10q20 0 34 -14t14 -34q0 -21 -17 -37q-62 -57 -160 -57h-12l-4 -40q13 3 35 3q43 0 69 -23.5t26 -65.5z" />
    <glyph glyph-name="egrave" unicode="&#xe8;" horiz-adv-x="471" 
d="M30 229q0 114 57 176.5t159 62.5q60 0 102 -20.5t62 -54t28 -63.5t8 -61q0 -19 -1 -29t-6.5 -24t-18.5 -20.5t-35 -6.5h-247q0 -52 32.5 -78.5t84.5 -26.5q53 0 99 31q17 11 32 11q20 0 33.5 -14t13.5 -33q0 -22 -17 -37q-58 -55 -161 -55q-107 0 -166 60t-59 182z
M246 376q-45 0 -73 -25t-32 -72h198q0 40 -23.5 68.5t-69.5 28.5zM316 514q-22 -21 -46 0l-98 90q-13 11 -12.5 28t16.5 32q15 15 32.5 16t27.5 -13l85 -108q20 -22 -5 -45z" />
    <glyph glyph-name="eacute" unicode="&#xe9;" horiz-adv-x="471" 
d="M30 229q0 114 57 176.5t159 62.5q60 0 102 -20.5t62 -54t28 -63.5t8 -61q0 -19 -1 -29t-6.5 -24t-18.5 -20.5t-35 -6.5h-247q0 -52 32.5 -78.5t84.5 -26.5q53 0 99 31q17 11 32 11q20 0 33.5 -14t13.5 -33q0 -22 -17 -37q-58 -55 -161 -55q-107 0 -166 60t-59 182z
M246 376q-45 0 -73 -25t-32 -72h198q0 40 -23.5 68.5t-69.5 28.5zM188 514q-25 23 -5 45l85 108q10 14 27.5 13t32.5 -16q16 -15 16.5 -32t-12.5 -28l-98 -90q-24 -21 -46 0z" />
    <glyph glyph-name="ecircumflex" unicode="&#xea;" horiz-adv-x="471" 
d="M30 229q0 114 57 176.5t159 62.5q60 0 102 -20.5t62 -54t28 -63.5t8 -61q0 -19 -1 -29t-6.5 -24t-18.5 -20.5t-35 -6.5h-247q0 -52 32.5 -78.5t84.5 -26.5q53 0 99 31q17 11 32 11q20 0 33.5 -14t13.5 -33q0 -22 -17 -37q-58 -55 -161 -55q-107 0 -166 60t-59 182z
M246 376q-45 0 -73 -25t-32 -72h198q0 40 -23.5 68.5t-69.5 28.5zM246 657q13 0 23 -7l93 -62q18 -13 18 -33q0 -17 -11 -28t-28 -11q-14 0 -23 7l-72 50l-72 -50q-9 -7 -23 -7q-17 0 -28 11t-11 28q0 20 18 33l93 62q10 7 23 7z" />
    <glyph glyph-name="edieresis" unicode="&#xeb;" horiz-adv-x="471" 
d="M30 229q0 114 57 176.5t159 62.5q60 0 102 -20.5t62 -54t28 -63.5t8 -61q0 -19 -1 -29t-6.5 -24t-18.5 -20.5t-35 -6.5h-247q0 -52 32.5 -78.5t84.5 -26.5q53 0 99 31q17 11 32 11q20 0 33.5 -14t13.5 -33q0 -22 -17 -37q-58 -55 -161 -55q-107 0 -166 60t-59 182z
M246 376q-45 0 -73 -25t-32 -72h198q0 40 -23.5 68.5t-69.5 28.5zM156 521q-50 0 -50 51q0 53 50 53t50 -53q0 -51 -50 -51zM337 521q-50 0 -50 51q0 53 50 53t50 -53q0 -51 -50 -51z" />
    <glyph glyph-name="igrave" unicode="&#xec;" 
d="M163 408v-362q0 -22 -15.5 -38t-38.5 -16t-38.5 16t-15.5 38v362q0 22 15.5 38t38.5 16t38.5 -16t15.5 -38zM169 514q-22 -21 -46 0l-98 90q-13 11 -12.5 28t16.5 32q15 15 32.5 16t27.5 -13l85 -108q20 -22 -5 -45z" />
    <glyph glyph-name="iacute" unicode="&#xed;" 
d="M163 408v-362q0 -22 -15.5 -38t-38.5 -16t-38.5 16t-15.5 38v362q0 22 15.5 38t38.5 16t38.5 -16t15.5 -38zM54 514q-25 23 -5 45l85 108q10 14 27.5 13t32.5 -16q16 -15 16.5 -32t-12.5 -28l-98 -90q-24 -21 -46 0z" />
    <glyph glyph-name="icircumflex" unicode="&#xee;" 
d="M163 408v-362q0 -22 -15.5 -38t-38.5 -16t-38.5 16t-15.5 38v362q0 22 15.5 38t38.5 16t38.5 -16t15.5 -38zM109 657q13 0 23 -7l93 -62q18 -13 18 -33q0 -17 -11.5 -28t-27.5 -11q-14 0 -23 7l-72 50l-72 -50q-9 -7 -23 -7q-16 0 -27.5 11t-11.5 28q0 20 18 33l93 62
q10 7 23 7z" />
    <glyph glyph-name="idieresis" unicode="&#xef;" 
d="M163 408v-362q0 -22 -15.5 -38t-38.5 -16t-38.5 16t-15.5 38v362q0 22 15.5 38t38.5 16t38.5 -16t15.5 -38zM19 521q-50 0 -50 51q0 53 50 53t50 -53q0 -51 -50 -51zM200 521q-50 0 -50 51q0 53 50 53t50 -53q0 -51 -50 -51z" />
    <glyph glyph-name="eth" unicode="&#xf0;" horiz-adv-x="498" 
d="M388 594l-19 -12q95 -125 98 -343v-12q0 -120 -57.5 -180t-161.5 -60t-161.5 60t-57.5 180t57.5 180.5t161.5 60.5q54 0 93 -21q-16 52 -43 88l-44 -29q-9 -6 -22 -6q-19 0 -32.5 13.5t-13.5 32.5q0 24 21 38l22 15q-26 17 -62 33q-27 11 -27 39q0 17 12 29t29 12
q11 0 24 -5q56 -23 100 -59l36 24q9 6 22 6q19 0 32.5 -13.5t13.5 -32.5q0 -24 -21 -38zM358 227q0 149 -110 149t-110 -149q0 -148 110 -148t110 148z" />
    <glyph glyph-name="ntilde" unicode="&#xf1;" horiz-adv-x="499" 
d="M286 468q168 0 168 -174v-250q0 -22 -15.5 -37t-38.5 -15q-24 0 -39 14.5t-15 37.5v230q0 96 -88 96q-100 0 -100 -103v-223q0 -22 -15.5 -37t-38.5 -15t-38.5 15t-15.5 37v364q0 22 16 38t38 16t38 -16t16 -38q39 60 128 60zM318 599q14 0 26 16q12 17 33 17
q17 0 28 -11t11 -28q0 -10 -3 -16q-10 -24 -33.5 -38t-52.5 -14q-31 0 -73 17t-56 17t-26 -16q-12 -17 -33 -17q-17 0 -28 11t-11 28q0 10 3 16q10 24 33.5 38t52.5 14q30 0 71.5 -17t57.5 -17z" />
    <glyph glyph-name="ograve" unicode="&#xf2;" horiz-adv-x="496" 
d="M467 227q0 -120 -57.5 -180t-161.5 -60t-161.5 60t-57.5 180t57.5 180.5t161.5 60.5t161.5 -60.5t57.5 -180.5zM358 227q0 149 -110 149t-110 -149q0 -148 110 -148t110 148zM321 514q-22 -21 -46 0l-98 90q-13 11 -12.5 28t16.5 32q15 15 32.5 16t27.5 -13l85 -108
q20 -22 -5 -45z" />
    <glyph glyph-name="oacute" unicode="&#xf3;" horiz-adv-x="496" 
d="M467 227q0 -120 -57.5 -180t-161.5 -60t-161.5 60t-57.5 180t57.5 180.5t161.5 60.5t161.5 -60.5t57.5 -180.5zM358 227q0 149 -110 149t-110 -149q0 -148 110 -148t110 148zM200 514q-25 23 -5 45l85 108q10 14 27.5 13t32.5 -16q16 -15 16.5 -32t-12.5 -28l-98 -90
q-24 -21 -46 0z" />
    <glyph glyph-name="ocircumflex" unicode="&#xf4;" horiz-adv-x="496" 
d="M467 227q0 -120 -57.5 -180t-161.5 -60t-161.5 60t-57.5 180t57.5 180.5t161.5 60.5t161.5 -60.5t57.5 -180.5zM358 227q0 149 -110 149t-110 -149q0 -148 110 -148t110 148zM250 657q13 0 23 -7l93 -62q18 -13 18 -33q0 -17 -11 -28t-28 -11q-14 0 -23 7l-72 50l-72 -50
q-9 -7 -23 -7q-17 0 -28 11t-11 28q0 20 18 33l93 62q10 7 23 7z" />
    <glyph glyph-name="otilde" unicode="&#xf5;" horiz-adv-x="496" 
d="M467 227q0 -120 -57.5 -180t-161.5 -60t-161.5 60t-57.5 180t57.5 180.5t161.5 60.5t161.5 -60.5t57.5 -180.5zM358 227q0 149 -110 149t-110 -149q0 -148 110 -148t110 148zM311 599q14 0 26 16q12 17 33 17q16 0 27.5 -11t11.5 -28q0 -10 -3 -16q-10 -24 -33.5 -38
t-52.5 -14q-31 0 -73 17t-56 17t-26 -16q-12 -17 -33 -17q-16 0 -27.5 11t-11.5 28q0 10 3 16q10 24 33.5 38t52.5 14q30 0 71.5 -17t57.5 -17z" />
    <glyph glyph-name="odieresis" unicode="&#xf6;" horiz-adv-x="496" 
d="M467 227q0 -120 -57.5 -180t-161.5 -60t-161.5 60t-57.5 180t57.5 180.5t161.5 60.5t161.5 -60.5t57.5 -180.5zM358 227q0 149 -110 149t-110 -149q0 -148 110 -148t110 148zM159 521q-50 0 -50 51q0 53 50 53t50 -53q0 -51 -50 -51zM340 521q-50 0 -50 51q0 53 50 53
t50 -53q0 -51 -50 -51z" />
    <glyph glyph-name="divide" unicode="&#xf7;" horiz-adv-x="454" 
d="M172 84q0 22 15.5 37.5t38.5 15.5q24 0 40 -15.5t16 -37.5q0 -23 -15.5 -38t-40.5 -15q-23 0 -38.5 15t-15.5 38zM172 354q0 23 15.5 38.5t38.5 15.5q25 0 40.5 -15.5t15.5 -38.5t-15.5 -38t-40.5 -15q-23 0 -38.5 15t-15.5 38zM454 219q0 -19 -13.5 -32.5t-32.5 -13.5
h-362q-19 0 -32.5 13.5t-13.5 32.5t13.5 32.5t32.5 13.5h362q19 0 32.5 -13.5t13.5 -32.5z" />
    <glyph glyph-name="oslash" unicode="&#xf8;" horiz-adv-x="496" 
d="M467 227q0 -120 -57.5 -180t-161.5 -60q-85 0 -139 39l-21 -22q-12 -12 -29 -12t-28.5 12t-11.5 28t12 28l27 28q-29 55 -29 139q0 120 57.5 180.5t161.5 60.5q82 0 135 -37l25 26q12 12 29 12t28.5 -11.5t11.5 -28.5q0 -16 -12 -28l-29 -31q31 -57 31 -143zM358 227
q0 28 -5 56l-173 -182q26 -22 68 -22q110 0 110 148zM138 227q0 -30 4 -50l170 179q-26 20 -64 20q-110 0 -110 -149z" />
    <glyph glyph-name="ugrave" unicode="&#xf9;" horiz-adv-x="485" 
d="M99 462q23 0 38.5 -16t15.5 -38v-233q0 -90 90 -90q89 0 89 90v233q0 22 16 38t38 16t38 -16t16 -38v-233q0 -85 -43.5 -136.5t-153.5 -51.5q-111 0 -154.5 51.5t-43.5 136.5v233q0 22 15.5 38t38.5 16zM307 514q-22 -21 -46 0l-98 90q-13 11 -12.5 28t16.5 32
q15 15 32.5 16t27.5 -13l85 -108q20 -22 -5 -45z" />
    <glyph glyph-name="uacute" unicode="&#xfa;" horiz-adv-x="485" 
d="M99 462q23 0 38.5 -16t15.5 -38v-233q0 -90 90 -90q89 0 89 90v233q0 22 16 38t38 16t38 -16t16 -38v-233q0 -85 -43.5 -136.5t-153.5 -51.5q-111 0 -154.5 51.5t-43.5 136.5v233q0 22 15.5 38t38.5 16zM198 514q-25 23 -5 45l85 108q10 14 27.5 13t32.5 -16
q16 -15 16.5 -32t-12.5 -28l-98 -90q-24 -21 -46 0z" />
    <glyph glyph-name="ucircumflex" unicode="&#xfb;" horiz-adv-x="485" 
d="M99 462q23 0 38.5 -16t15.5 -38v-233q0 -90 90 -90q89 0 89 90v233q0 22 16 38t38 16t38 -16t16 -38v-233q0 -85 -43.5 -136.5t-153.5 -51.5q-111 0 -154.5 51.5t-43.5 136.5v233q0 22 15.5 38t38.5 16zM245 657q13 0 23 -7l93 -62q18 -13 18 -33q0 -17 -11.5 -28
t-27.5 -11q-14 0 -23 7l-72 50l-72 -50q-9 -7 -23 -7q-16 0 -27.5 11t-11.5 28q0 20 18 33l93 62q10 7 23 7z" />
    <glyph glyph-name="udieresis" unicode="&#xfc;" horiz-adv-x="485" 
d="M99 462q23 0 38.5 -16t15.5 -38v-233q0 -90 90 -90q89 0 89 90v233q0 22 16 38t38 16t38 -16t16 -38v-233q0 -85 -43.5 -136.5t-153.5 -51.5q-111 0 -154.5 51.5t-43.5 136.5v233q0 22 15.5 38t38.5 16zM156 521q-50 0 -50 51q0 53 50 53t50 -53q0 -51 -50 -51zM337 521
q-50 0 -50 51q0 53 50 53t50 -53q0 -51 -50 -51z" />
    <glyph glyph-name="yacute" unicode="&#xfd;" horiz-adv-x="452" 
d="M43 -101q45 0 72 32t55 101l-154 355q-4 10 -4 21q0 22 16 38t38 16q37 0 50 -34l110 -278l110 278q13 34 50 34q22 0 38 -16t16 -38q0 -11 -4 -21l-186 -420q-75 -168 -207 -168q-22 0 -37 14t-15 36t15 36t37 14zM187 514q-25 23 -5 45l85 108q10 14 27.5 13t32.5 -16
q16 -15 16.5 -32t-12.5 -28l-98 -90q-24 -21 -46 0z" />
    <glyph glyph-name="thorn" unicode="&#xfe;" horiz-adv-x="514" 
d="M109 712q23 0 38.5 -16t15.5 -38v-250q14 23 45.5 41.5t74.5 18.5q97 0 149 -60t52 -180q0 -241 -203 -241q-81 0 -118 50v-184q0 -23 -15.5 -38.5t-38.5 -15.5t-38.5 15.5t-15.5 38.5v805q0 22 15.5 38t38.5 16zM374 227q0 149 -107 149t-107 -149q0 -148 107 -148
t107 148z" />
    <glyph glyph-name="ydieresis" unicode="&#xff;" horiz-adv-x="452" 
d="M43 -101q45 0 72 32t55 101l-154 355q-4 10 -4 21q0 22 16 38t38 16q37 0 50 -34l110 -278l110 278q13 34 50 34q22 0 38 -16t16 -38q0 -11 -4 -21l-186 -420q-75 -168 -207 -168q-22 0 -37 14t-15 36t15 36t37 14zM136 521q-50 0 -50 51q0 53 50 53t50 -53
q0 -51 -50 -51zM317 521q-50 0 -50 51q0 53 50 53t50 -53q0 -51 -50 -51z" />
    <glyph glyph-name="Amacron" unicode="&#x100;" horiz-adv-x="624" 
d="M394 281l-82 210l-82 -210h164zM433 175h-242l-61 -145q-16 -38 -54 -38q-23 0 -40 17t-17 40q0 12 4 21l236 575q15 36 53 36t53 -36l236 -575q4 -9 4 -21q0 -23 -17 -40t-40 -17q-38 0 -54 38zM437 771q0 -16 -11 -27t-27 -11h-173q-16 0 -27 11t-11 27t11 27t27 11
h173q16 0 27 -11t11 -27z" />
    <glyph glyph-name="amacron" unicode="&#x101;" horiz-adv-x="472" 
d="M229 372q-47 0 -100 -38q-14 -10 -30 -10q-19 0 -33 14t-14 33t13 33q58 64 164 64q93 0 145.5 -44t52.5 -123v-256q0 -22 -15.5 -37.5t-37.5 -15.5t-37.5 15.5t-15.5 37.5q-36 -58 -131 -58q-73 0 -118 41.5t-45 109.5q0 67 46.5 104t115.5 37h131v18q0 34 -24 54.5
t-67 20.5zM218 77q42 0 72 25t30 65v28h-117q-68 0 -68 -57q0 -61 83 -61zM357 562q0 -16 -11 -27t-27 -11h-173q-16 0 -27 11t-11 27t11 27t27 11h173q16 0 27 -11t11 -27z" />
    <glyph glyph-name="Abreve" unicode="&#x102;" horiz-adv-x="624" 
d="M394 281l-82 210l-82 -210h164zM433 175h-242l-61 -145q-16 -38 -54 -38q-23 0 -40 17t-17 40q0 12 4 21l236 575q15 36 53 36t53 -36l236 -575q4 -9 4 -21q0 -23 -17 -40t-40 -17q-38 0 -54 38zM312 728q-62 0 -100 26.5t-38 80.5q0 15 10.5 25.5t25.5 10.5t25.5 -10.5
t10.5 -25.5q0 -39 66 -39t66 39q0 15 10.5 25.5t25.5 10.5t25.5 -10.5t10.5 -25.5q0 -54 -38 -80.5t-100 -26.5z" />
    <glyph glyph-name="abreve" unicode="&#x103;" horiz-adv-x="472" 
d="M229 372q-47 0 -100 -38q-14 -10 -30 -10q-19 0 -33 14t-14 33t13 33q58 64 164 64q93 0 145.5 -44t52.5 -123v-256q0 -22 -15.5 -37.5t-37.5 -15.5t-37.5 15.5t-15.5 37.5q-36 -58 -131 -58q-73 0 -118 41.5t-45 109.5q0 67 46.5 104t115.5 37h131v18q0 34 -24 54.5
t-67 20.5zM218 77q42 0 72 25t30 65v28h-117q-68 0 -68 -57q0 -61 83 -61zM245 523q-62 0 -100 26.5t-38 80.5q0 15 10.5 25.5t25.5 10.5t25.5 -10.5t10.5 -25.5q0 -39 66 -39t66 39q0 15 10.5 25.5t25.5 10.5t25.5 -10.5t10.5 -25.5q0 -54 -38 -80.5t-100 -26.5z" />
    <glyph glyph-name="Aogonek" unicode="&#x104;" horiz-adv-x="624" 
d="M658 -149q0 -14 -10 -22q-20 -17 -73 -17q-49 0 -83 21t-34 67q0 31 19 58.5t45 40.5q-20 9 -28 31l-61 145h-242l-61 -145q-16 -38 -54 -38q-23 0 -40 17t-17 40q0 12 4 21l236 575q15 36 53 36t53 -36l236 -575q4 -9 4 -21q0 -29 -33 -52q-50 -35 -50 -77q0 -46 62 -46
q10 0 24 3.5t20 3.5q13 0 21.5 -8.5t8.5 -21.5zM394 281l-82 210l-82 -210h164z" />
    <glyph glyph-name="aogonek" unicode="&#x105;" horiz-adv-x="472" 
d="M484 -149q0 -14 -10 -22q-20 -17 -73 -17q-49 0 -83 21t-34 67q0 31 19 58.5t45 40.5q-27 13 -27 46q-36 -58 -131 -58q-73 0 -118 41.5t-45 109.5q0 67 46.5 104t115.5 37h131v18q0 34 -24 54.5t-67 20.5q-47 0 -100 -38q-14 -10 -30 -10q-19 0 -33 14t-14 33t13 33
q58 64 164 64q93 0 145.5 -44t52.5 -123v-256q0 -28 -25 -45q-54 -37 -54 -80q0 -46 62 -46q10 0 24 3.5t20 3.5q13 0 21.5 -8.5t8.5 -21.5zM218 77q42 0 72 25t30 65v28h-117q-68 0 -68 -57q0 -61 83 -61z" />
    <glyph glyph-name="Cacute" unicode="&#x106;" horiz-adv-x="640" 
d="M347 -14q-313 0 -313 350q0 175 80.5 263t232.5 88q167 0 241 -108q11 -17 11 -33q0 -22 -16 -37.5t-38 -15.5t-41 20q-33 36 -69 53t-88 17q-99 0 -146 -61t-47 -186q0 -130 46 -188t147 -58q55 0 90.5 14.5t71.5 51.5q22 22 43 22q22 0 38 -16t16 -38q0 -17 -10 -30
q-37 -49 -103.5 -78.5t-145.5 -29.5zM283 722q-25 23 -5 45l85 108q10 14 27.5 13t32.5 -16q16 -15 16.5 -32t-12.5 -28l-98 -90q-24 -21 -46 0z" />
    <glyph glyph-name="cacute" unicode="&#x107;" horiz-adv-x="451" 
d="M29 228q0 120 56.5 180t160.5 60q61 0 102.5 -22t60.5 -47q11 -15 11 -31q0 -20 -14 -34t-34 -14q-22 0 -37 17q-36 39 -89 39q-52 0 -80 -38.5t-28 -109.5q0 -72 28 -110.5t80 -38.5q45 0 99 40q14 10 30 10q20 0 34 -14t14 -34q0 -21 -17 -37q-62 -57 -160 -57
q-104 0 -160.5 60.5t-56.5 180.5zM190 514q-25 23 -5 45l85 108q10 14 27.5 13t32.5 -16q16 -15 16.5 -32t-12.5 -28l-98 -90q-24 -21 -46 0z" />
    <glyph glyph-name="Ccircumflex" unicode="&#x108;" horiz-adv-x="640" 
d="M347 -14q-313 0 -313 350q0 175 80.5 263t232.5 88q167 0 241 -108q11 -17 11 -33q0 -22 -16 -37.5t-38 -15.5t-41 20q-33 36 -69 53t-88 17q-99 0 -146 -61t-47 -186q0 -130 46 -188t147 -58q55 0 90.5 14.5t71.5 51.5q22 22 43 22q22 0 38 -16t16 -38q0 -17 -10 -30
q-37 -49 -103.5 -78.5t-145.5 -29.5zM356 856q13 0 23 -7l93 -62q18 -13 18 -33q0 -16 -11 -27.5t-28 -11.5q-14 0 -23 7l-72 50l-72 -50q-9 -7 -23 -7q-17 0 -28 11.5t-11 27.5q0 20 18 33l93 62q10 7 23 7z" />
    <glyph glyph-name="ccircumflex" unicode="&#x109;" horiz-adv-x="451" 
d="M29 228q0 120 56.5 180t160.5 60q61 0 102.5 -22t60.5 -47q11 -15 11 -31q0 -20 -14 -34t-34 -14q-22 0 -37 17q-36 39 -89 39q-52 0 -80 -38.5t-28 -109.5q0 -72 28 -110.5t80 -38.5q45 0 99 40q14 10 30 10q20 0 34 -14t14 -34q0 -21 -17 -37q-62 -57 -160 -57
q-104 0 -160.5 60.5t-56.5 180.5zM248 657q13 0 23 -7l93 -62q18 -13 18 -33q0 -17 -11 -28t-28 -11q-14 0 -23 7l-72 50l-72 -50q-9 -7 -23 -7q-17 0 -28 11t-11 28q0 20 18 33l93 62q10 7 23 7z" />
    <glyph glyph-name="Cdotaccent" unicode="&#x10a;" horiz-adv-x="640" 
d="M347 -14q-313 0 -313 350q0 175 80.5 263t232.5 88q167 0 241 -108q11 -17 11 -33q0 -22 -16 -37.5t-38 -15.5t-41 20q-33 36 -69 53t-88 17q-99 0 -146 -61t-47 -186q0 -130 46 -188t147 -58q55 0 90.5 14.5t71.5 51.5q22 22 43 22q22 0 38 -16t16 -38q0 -17 -10 -30
q-37 -49 -103.5 -78.5t-145.5 -29.5zM352 730q-52 0 -52 51q0 54 52 54t52 -54q0 -51 -52 -51z" />
    <glyph glyph-name="cdotaccent" unicode="&#x10b;" horiz-adv-x="451" 
d="M29 228q0 120 56.5 180t160.5 60q61 0 102.5 -22t60.5 -47q11 -15 11 -31q0 -20 -14 -34t-34 -14q-22 0 -37 17q-36 39 -89 39q-52 0 -80 -38.5t-28 -109.5q0 -72 28 -110.5t80 -38.5q45 0 99 40q14 10 30 10q20 0 34 -14t14 -34q0 -21 -17 -37q-62 -57 -160 -57
q-104 0 -160.5 60.5t-56.5 180.5zM246 537q-52 0 -52 51q0 54 52 54t52 -54q0 -51 -52 -51z" />
    <glyph glyph-name="Ccaron" unicode="&#x10c;" horiz-adv-x="640" 
d="M347 -14q-313 0 -313 350q0 175 80.5 263t232.5 88q167 0 241 -108q11 -17 11 -33q0 -22 -16 -37.5t-38 -15.5t-41 20q-33 36 -69 53t-88 17q-99 0 -146 -61t-47 -186q0 -130 46 -188t147 -58q55 0 90.5 14.5t71.5 51.5q22 22 43 22q22 0 38 -16t16 -38q0 -17 -10 -30
q-37 -49 -103.5 -78.5t-145.5 -29.5zM349 715q-13 0 -23 7l-93 62q-18 13 -18 33q0 17 11.5 28t27.5 11q14 0 23 -7l72 -50l72 50q9 7 23 7q16 0 27.5 -11t11.5 -28q0 -20 -18 -33l-93 -62q-10 -7 -23 -7z" />
    <glyph glyph-name="ccaron" unicode="&#x10d;" horiz-adv-x="451" 
d="M29 228q0 120 56.5 180t160.5 60q61 0 102.5 -22t60.5 -47q11 -15 11 -31q0 -20 -14 -34t-34 -14q-22 0 -37 17q-36 39 -89 39q-52 0 -80 -38.5t-28 -109.5q0 -72 28 -110.5t80 -38.5q45 0 99 40q14 10 30 10q20 0 34 -14t14 -34q0 -21 -17 -37q-62 -57 -160 -57
q-104 0 -160.5 60.5t-56.5 180.5zM225 516q-13 0 -23 7l-93 62q-18 13 -18 33q0 16 11.5 27.5t27.5 11.5q14 0 23 -7l72 -50l72 50q9 7 23 7q16 0 27.5 -11.5t11.5 -27.5q0 -20 -18 -33l-93 -62q-10 -7 -23 -7z" />
    <glyph glyph-name="Dcaron" unicode="&#x10e;" horiz-adv-x="611" 
d="M176 569v-465h77q101 0 153 53.5t52 178.5t-52 179t-153 54h-77zM118 673h135q157 0 241 -79.5t84 -257.5t-84 -257t-241 -79h-135q-24 0 -41 17t-17 41v557q0 24 17 41t41 17zM279 715q-13 0 -23 7l-93 62q-18 13 -18 33q0 17 11.5 28t27.5 11q14 0 23 -7l72 -50l72 50
q9 7 23 7q16 0 27.5 -11t11.5 -28q0 -20 -18 -33l-93 -62q-10 -7 -23 -7z" />
    <glyph glyph-name="dcaron" unicode="&#x10f;" horiz-adv-x="605" 
d="M342 187v138q-4 6 -12.5 14.5t-34 22.5t-52.5 14q-52 0 -79.5 -38t-27.5 -111q0 -148 107 -148q44 0 71.5 28.5t27.5 79.5zM232 468q70 0 110 -40v230q0 22 16 38t38 16t38 -16t16 -38v-471q0 -97 -56.5 -148.5t-150.5 -51.5q-103 0 -158.5 60t-55.5 180t53 180.5
t150 60.5zM562 712q65 0 65 -67q0 -71 -31.5 -130.5t-73.5 -91.5q-8 -6 -16 -6q-9 0 -15.5 6.5t-6.5 15.5q0 7 6 15l22 28.5t13.5 27.5t6.5 37t-18 49t-18 49q0 67 66 67z" />
    <glyph glyph-name="Dcroat" unicode="&#x110;" horiz-adv-x="636" 
d="M143 673h135q157 0 241 -79.5t84 -257.5t-84 -257t-241 -79h-135q-24 0 -41 17t-17 41v244h-22q-19 0 -32.5 13.5t-13.5 32.5t13.5 32.5t32.5 13.5h22v221q0 24 17 41t41 17zM388 348q0 -19 -13.5 -32.5t-32.5 -13.5h-141v-198h77q101 0 153 53.5t52 178.5t-52 179
t-153 54h-77v-175h141q19 0 32.5 -13.5t13.5 -32.5z" />
    <glyph glyph-name="dcroat" unicode="&#x111;" horiz-adv-x="495" 
d="M520 563q0 -18 -13 -31t-31 -13h-26v-332q0 -97 -56.5 -148.5t-150.5 -51.5q-103 0 -158.5 60t-55.5 180t53 180.5t150 60.5q70 0 110 -40v91h-77q-18 0 -31 13t-13 31t13.5 31t30.5 13h77v51q0 22 16 38t38 16t38 -16t16 -38v-51h26q17 0 30.5 -13t13.5 -31zM342 187
v138q-4 6 -12.5 14.5t-34 22.5t-52.5 14q-52 0 -79.5 -38t-27.5 -111q0 -148 107 -148q44 0 71.5 28.5t27.5 79.5z" />
    <glyph glyph-name="Emacron" unicode="&#x112;" horiz-adv-x="523" 
d="M176 569v-179h189q21 0 36 -15t15 -36t-15 -36t-36 -15h-189v-184h265q22 0 37 -15t15 -37t-15 -37t-37 -15h-323q-24 0 -41 17t-17 41v557q0 24 17 41t41 17h312q22 0 37 -15t15 -37t-15 -37t-37 -15h-254zM404 771q0 -16 -11 -27t-27 -11h-173q-16 0 -27 11t-11 27
t11 27t27 11h173q16 0 27 -11t11 -27z" />
    <glyph glyph-name="emacron" unicode="&#x113;" horiz-adv-x="471" 
d="M30 229q0 114 57 176.5t159 62.5q60 0 102 -20.5t62 -54t28 -63.5t8 -61q0 -19 -1 -29t-6.5 -24t-18.5 -20.5t-35 -6.5h-247q0 -52 32.5 -78.5t84.5 -26.5q53 0 99 31q17 11 32 11q20 0 33.5 -14t13.5 -33q0 -22 -17 -37q-58 -55 -161 -55q-107 0 -166 60t-59 182z
M246 376q-45 0 -73 -25t-32 -72h198q0 40 -23.5 68.5t-69.5 28.5zM373 562q0 -16 -11 -27t-27 -11h-173q-16 0 -27 11t-11 27t11 27t27 11h173q16 0 27 -11t11 -27z" />
    <glyph glyph-name="Ebreve" unicode="&#x114;" horiz-adv-x="523" 
d="M176 569v-179h189q21 0 36 -15t15 -36t-15 -36t-36 -15h-189v-184h265q22 0 37 -15t15 -37t-15 -37t-37 -15h-323q-24 0 -41 17t-17 41v557q0 24 17 41t41 17h312q22 0 37 -15t15 -37t-15 -37t-37 -15h-254zM280 728q-62 0 -100 26.5t-38 80.5q0 15 10.5 25.5t25.5 10.5
t25.5 -10.5t10.5 -25.5q0 -39 66 -39t66 39q0 15 10.5 25.5t25.5 10.5t25.5 -10.5t10.5 -25.5q0 -54 -38 -80.5t-100 -26.5z" />
    <glyph glyph-name="ebreve" unicode="&#x115;" horiz-adv-x="471" 
d="M30 229q0 114 57 176.5t159 62.5q60 0 102 -20.5t62 -54t28 -63.5t8 -61q0 -19 -1 -29t-6.5 -24t-18.5 -20.5t-35 -6.5h-247q0 -52 32.5 -78.5t84.5 -26.5q53 0 99 31q17 11 32 11q20 0 33.5 -14t13.5 -33q0 -22 -17 -37q-58 -55 -161 -55q-107 0 -166 60t-59 182z
M246 376q-45 0 -73 -25t-32 -72h198q0 40 -23.5 68.5t-69.5 28.5zM251 523q-62 0 -100 26.5t-38 80.5q0 15 10.5 25.5t25.5 10.5t25.5 -10.5t10.5 -25.5q0 -39 66 -39t66 39q0 15 10.5 25.5t25.5 10.5t25.5 -10.5t10.5 -25.5q0 -54 -38 -80.5t-100 -26.5z" />
    <glyph glyph-name="Edotaccent" unicode="&#x116;" horiz-adv-x="523" 
d="M176 569v-179h189q21 0 36 -15t15 -36t-15 -36t-36 -15h-189v-184h265q22 0 37 -15t15 -37t-15 -37t-37 -15h-323q-24 0 -41 17t-17 41v557q0 24 17 41t41 17h312q22 0 37 -15t15 -37t-15 -37t-37 -15h-254zM279 730q-52 0 -52 51q0 54 52 54t52 -54q0 -51 -52 -51z" />
    <glyph glyph-name="edotaccent" unicode="&#x117;" horiz-adv-x="471" 
d="M30 229q0 114 57 176.5t159 62.5q60 0 102 -20.5t62 -54t28 -63.5t8 -61q0 -19 -1 -29t-6.5 -24t-18.5 -20.5t-35 -6.5h-247q0 -52 32.5 -78.5t84.5 -26.5q53 0 99 31q17 11 32 11q20 0 33.5 -14t13.5 -33q0 -22 -17 -37q-58 -55 -161 -55q-107 0 -166 60t-59 182z
M246 376q-45 0 -73 -25t-32 -72h198q0 40 -23.5 68.5t-69.5 28.5zM247 537q-52 0 -52 51q0 54 52 54t52 -54q0 -51 -52 -51z" />
    <glyph glyph-name="Eogonek" unicode="&#x118;" horiz-adv-x="523" 
d="M532 -149q0 -14 -10 -22q-20 -17 -73 -17q-49 0 -83 21t-34 67q0 32 20.5 60.5t47.5 39.5h-282q-24 0 -41 17t-17 41v557q0 24 17 41t41 17h312q22 0 37 -15t15 -37t-15 -37t-37 -15h-254v-179h189q21 0 36 -15t15 -36t-15 -36t-36 -15h-189v-184h265q22 0 37 -15t15 -37
q0 -33 -35 -51q-62 -33 -62 -81q0 -46 62 -46q10 0 24 3.5t20 3.5q13 0 21.5 -8.5t8.5 -21.5z" />
    <glyph glyph-name="eogonek" unicode="&#x119;" horiz-adv-x="471" 
d="M423 -149q0 -14 -10 -22q-20 -17 -73 -17q-49 0 -83 21t-34 67q0 52 50 88q-10 -1 -18 -1q-107 0 -166 60t-59 182q0 114 57 176.5t159 62.5q60 0 102 -20.5t62 -54t28 -63.5t8 -61q0 -19 -1 -29t-6.5 -24t-18.5 -20.5t-35 -6.5h-247q0 -52 32.5 -78.5t84.5 -26.5
q53 0 99 31q17 11 32 11q20 0 33.5 -14t13.5 -33q0 -22 -17 -37q-13 -12 -49 -30t-58 -39t-22 -53q0 -46 62 -46q10 0 24 3.5t20 3.5q13 0 21.5 -8.5t8.5 -21.5zM246 376q-45 0 -73 -25t-32 -72h198q0 40 -23.5 68.5t-69.5 28.5z" />
    <glyph glyph-name="Ecaron" unicode="&#x11a;" horiz-adv-x="523" 
d="M176 569v-179h189q21 0 36 -15t15 -36t-15 -36t-36 -15h-189v-184h265q22 0 37 -15t15 -37t-15 -37t-37 -15h-323q-24 0 -41 17t-17 41v557q0 24 17 41t41 17h312q22 0 37 -15t15 -37t-15 -37t-37 -15h-254zM283 715q-13 0 -23 7l-93 62q-18 13 -18 33q0 17 11.5 28
t27.5 11q14 0 23 -7l72 -50l72 50q9 7 23 7q16 0 27.5 -11t11.5 -28q0 -20 -18 -33l-93 -62q-10 -7 -23 -7z" />
    <glyph glyph-name="ecaron" unicode="&#x11b;" horiz-adv-x="471" 
d="M30 229q0 114 57 176.5t159 62.5q60 0 102 -20.5t62 -54t28 -63.5t8 -61q0 -19 -1 -29t-6.5 -24t-18.5 -20.5t-35 -6.5h-247q0 -52 32.5 -78.5t84.5 -26.5q53 0 99 31q17 11 32 11q20 0 33.5 -14t13.5 -33q0 -22 -17 -37q-58 -55 -161 -55q-107 0 -166 60t-59 182z
M246 376q-45 0 -73 -25t-32 -72h198q0 40 -23.5 68.5t-69.5 28.5zM250 516q-13 0 -23 7l-93 62q-18 13 -18 33q0 16 11 27.5t28 11.5q14 0 23 -7l72 -50l72 50q9 7 23 7q17 0 28 -11.5t11 -27.5q0 -20 -18 -33l-93 -62q-10 -7 -23 -7z" />
    <glyph glyph-name="Gcircumflex" unicode="&#x11c;" horiz-adv-x="675" 
d="M512 147v112h-136q-21 0 -36 15t-15 36t15 36t36 15h194q21 0 38 -16t17 -37v-160q0 -32 -17 -53q-36 -48 -108.5 -78.5t-152.5 -30.5q-313 0 -313 350q0 175 80.5 263t232.5 88q167 0 241 -108q11 -17 11 -33q0 -22 -16 -37.5t-38 -15.5t-41 20q-33 36 -69 53t-88 17
q-99 0 -146 -61t-47 -186q0 -130 46 -188t147 -58q109 0 165 57zM353 856q13 0 23 -7l93 -62q18 -13 18 -33q0 -16 -11.5 -27.5t-27.5 -11.5q-14 0 -23 7l-72 50l-72 -50q-9 -7 -23 -7q-16 0 -27.5 11.5t-11.5 27.5q0 20 18 33l93 62q10 7 23 7z" />
    <glyph glyph-name="gcircumflex" unicode="&#x11d;" horiz-adv-x="497" 
d="M432 297q0 -80 -52 -125.5t-144 -45.5q-52 0 -94 16q-9 -8 -9 -21q0 -34 59 -34h93q84 0 135 -33t51 -104q0 -74 -61.5 -112.5t-161.5 -38.5q-44 0 -81.5 7t-70.5 23t-52 46t-19 72q0 60 60 98q-47 29 -47 80q0 40 34 68q-32 42 -32 104q0 80 52 125.5t144 45.5
q54 0 96 -17q36 46 100 46q19 0 32 -13t13 -32t-13 -32t-32 -13q-20 0 -30 -9q30 -40 30 -101zM148 297q0 -35 23.5 -57.5t64.5 -22.5t64.5 22.5t23.5 57.5t-23.5 57.5t-64.5 22.5t-64.5 -22.5t-23.5 -57.5zM363 -50q0 23 -21.5 36t-56.5 13h-94q-27 -6 -42.5 -20.5
t-15.5 -31.5q0 -56 116 -56q49 0 81.5 15t32.5 44zM237 657q13 0 23 -7l93 -62q18 -13 18 -33q0 -17 -11.5 -28t-27.5 -11q-14 0 -23 7l-72 50l-72 -50q-9 -7 -23 -7q-16 0 -27.5 11t-11.5 28q0 20 18 33l93 62q10 7 23 7z" />
    <glyph glyph-name="Gbreve" unicode="&#x11e;" horiz-adv-x="675" 
d="M512 147v112h-136q-21 0 -36 15t-15 36t15 36t36 15h194q21 0 38 -16t17 -37v-160q0 -32 -17 -53q-36 -48 -108.5 -78.5t-152.5 -30.5q-313 0 -313 350q0 175 80.5 263t232.5 88q167 0 241 -108q11 -17 11 -33q0 -22 -16 -37.5t-38 -15.5t-41 20q-33 36 -69 53t-88 17
q-99 0 -146 -61t-47 -186q0 -130 46 -188t147 -58q109 0 165 57zM352 742q-62 0 -100 26.5t-38 80.5q0 15 10.5 25.5t25.5 10.5t25.5 -10.5t10.5 -25.5q0 -39 66 -39t66 39q0 15 10.5 25.5t25.5 10.5t25.5 -10.5t10.5 -25.5q0 -54 -38 -80.5t-100 -26.5z" />
    <glyph glyph-name="gbreve" unicode="&#x11f;" horiz-adv-x="497" 
d="M432 297q0 -80 -52 -125.5t-144 -45.5q-52 0 -94 16q-9 -8 -9 -21q0 -34 59 -34h93q84 0 135 -33t51 -104q0 -74 -61.5 -112.5t-161.5 -38.5q-44 0 -81.5 7t-70.5 23t-52 46t-19 72q0 60 60 98q-47 29 -47 80q0 40 34 68q-32 42 -32 104q0 80 52 125.5t144 45.5
q54 0 96 -17q36 46 100 46q19 0 32 -13t13 -32t-13 -32t-32 -13q-20 0 -30 -9q30 -40 30 -101zM148 297q0 -35 23.5 -57.5t64.5 -22.5t64.5 22.5t23.5 57.5t-23.5 57.5t-64.5 22.5t-64.5 -22.5t-23.5 -57.5zM363 -50q0 23 -21.5 36t-56.5 13h-94q-27 -6 -42.5 -20.5
t-15.5 -31.5q0 -56 116 -56q49 0 81.5 15t32.5 44zM238 523q-62 0 -100 26.5t-38 80.5q0 15 10.5 25.5t25.5 10.5t25.5 -10.5t10.5 -25.5q0 -39 66 -39t66 39q0 15 10.5 25.5t25.5 10.5t25.5 -10.5t10.5 -25.5q0 -54 -38 -80.5t-100 -26.5z" />
    <glyph glyph-name="Gdotaccent" unicode="&#x120;" horiz-adv-x="675" 
d="M512 147v112h-136q-21 0 -36 15t-15 36t15 36t36 15h194q21 0 38 -16t17 -37v-160q0 -32 -17 -53q-36 -48 -108.5 -78.5t-152.5 -30.5q-313 0 -313 350q0 175 80.5 263t232.5 88q167 0 241 -108q11 -17 11 -33q0 -22 -16 -37.5t-38 -15.5t-41 20q-33 36 -69 53t-88 17
q-99 0 -146 -61t-47 -186q0 -130 46 -188t147 -58q109 0 165 57zM355 730q-52 0 -52 51q0 54 52 54t52 -54q0 -51 -52 -51z" />
    <glyph glyph-name="gdotaccent" unicode="&#x121;" horiz-adv-x="497" 
d="M432 297q0 -80 -52 -125.5t-144 -45.5q-52 0 -94 16q-9 -8 -9 -21q0 -34 59 -34h93q84 0 135 -33t51 -104q0 -74 -61.5 -112.5t-161.5 -38.5q-44 0 -81.5 7t-70.5 23t-52 46t-19 72q0 60 60 98q-47 29 -47 80q0 40 34 68q-32 42 -32 104q0 80 52 125.5t144 45.5
q54 0 96 -17q36 46 100 46q19 0 32 -13t13 -32t-13 -32t-32 -13q-20 0 -30 -9q30 -40 30 -101zM148 297q0 -35 23.5 -57.5t64.5 -22.5t64.5 22.5t23.5 57.5t-23.5 57.5t-64.5 22.5t-64.5 -22.5t-23.5 -57.5zM363 -50q0 23 -21.5 36t-56.5 13h-94q-27 -6 -42.5 -20.5
t-15.5 -31.5q0 -56 116 -56q49 0 81.5 15t32.5 44zM237 537q-52 0 -52 51q0 54 52 54t52 -54q0 -51 -52 -51z" />
    <glyph glyph-name="Gcommaaccent" unicode="&#x122;" horiz-adv-x="675" 
d="M512 147v112h-136q-21 0 -36 15t-15 36t15 36t36 15h194q21 0 38 -16t17 -37v-160q0 -32 -17 -53q-36 -48 -108.5 -78.5t-152.5 -30.5q-313 0 -313 350q0 175 80.5 263t232.5 88q167 0 241 -108q11 -17 11 -33q0 -22 -16 -37.5t-38 -15.5t-41 20q-33 36 -69 53t-88 17
q-99 0 -146 -61t-47 -186q0 -130 46 -188t147 -58q109 0 165 57zM361 -39q52 0 52 -53q0 -57 -25 -104.5t-59 -73.5q-7 -5 -13 -5q-8 0 -13 5.5t-5 12.5q0 8 6 14q33 33 33 72q0 16 -14.5 40t-14.5 39q0 53 53 53z" />
    <glyph glyph-name="gcommaaccent" unicode="&#x123;" horiz-adv-x="495" 
d="M432 297q0 -80 -52 -125.5t-144 -45.5q-52 0 -94 16q-9 -8 -9 -21q0 -34 59 -34h93q84 0 135 -33t51 -104q0 -74 -61.5 -112.5t-161.5 -38.5q-44 0 -81.5 7t-70.5 23t-52 46t-19 72q0 60 60 98q-47 29 -47 80q0 40 34 68q-32 42 -32 104q0 80 52 125.5t144 45.5
q54 0 96 -17q36 46 100 46q19 0 32 -13t13 -32t-13 -32t-32 -13q-20 0 -30 -9q30 -40 30 -101zM148 297q0 -35 23.5 -57.5t64.5 -22.5t64.5 22.5t23.5 57.5t-23.5 57.5t-64.5 22.5t-64.5 -22.5t-23.5 -57.5zM363 -50q0 23 -21.5 36t-56.5 13h-94q-27 -6 -42.5 -20.5
t-15.5 -31.5q0 -56 116 -56q49 0 81.5 15t32.5 44zM240 519q-52 0 -52 53q0 57 25 104.5t59 73.5q7 5 13 5q7 0 12.5 -5.5t5.5 -12.5q0 -8 -6 -14q-33 -33 -33 -72q0 -16 14.5 -40t14.5 -39q0 -53 -53 -53z" />
    <glyph glyph-name="Hcircumflex" unicode="&#x124;" horiz-adv-x="638" 
d="M578 623v-573q0 -24 -17 -41t-41 -17t-41 17t-17 41v241h-286v-241q0 -24 -17 -41t-41 -17t-41 17t-17 41v573q0 24 17 41t41 17t41 -17t17 -41v-226h286v226q0 24 17 41t41 17t41 -17t17 -41zM326 856q13 0 23 -7l93 -62q18 -13 18 -33q0 -16 -11 -27.5t-28 -11.5
q-14 0 -23 7l-72 50l-72 -50q-9 -7 -23 -7q-17 0 -28 11.5t-11 27.5q0 20 18 33l93 62q10 7 23 7z" />
    <glyph glyph-name="hcircumflex" unicode="&#x125;" horiz-adv-x="499" 
d="M158 658v-250q39 60 128 60q168 0 168 -174v-250q0 -22 -15.5 -37t-38.5 -15q-24 0 -39 14.5t-15 37.5v230q0 96 -88 96q-100 0 -100 -103v-223q0 -22 -15.5 -37t-38.5 -15t-38.5 15t-15.5 37v614q0 22 16 38t38 16t38 -16t16 -38zM106 856q13 0 23 -7l93 -62
q18 -13 18 -33q0 -16 -11 -27.5t-28 -11.5q-14 0 -23 7l-72 50l-72 -50q-9 -7 -23 -7q-17 0 -28 11.5t-11 27.5q0 20 18 33l93 62q10 7 23 7z" />
    <glyph glyph-name="Hbar" unicode="&#x126;" horiz-adv-x="638" 
d="M578 623v-88h17q16 0 27 -11t11 -27t-11 -27t-27 -11h-17v-409q0 -24 -17 -41t-41 -17t-41 17t-17 41v241h-286v-241q0 -24 -17 -41t-41 -17t-41 17t-17 41v409h-18q-16 0 -27 11t-11 27t11 27t27 11h18v88q0 24 17 41t41 17t41 -17t17 -41v-88h286v88q0 24 17 41t41 17
t41 -17t17 -41zM176 397h286v62h-286v-62z" />
    <glyph glyph-name="hbar" unicode="&#x127;" horiz-adv-x="499" 
d="M158 658v-47h83q16 0 27 -11t11 -27t-11 -27t-27 -11h-83v-127q39 60 128 60q168 0 168 -174v-250q0 -22 -15.5 -37t-38.5 -15q-24 0 -39 14.5t-15 37.5v230q0 96 -88 96q-100 0 -100 -103v-223q0 -22 -15.5 -37t-38.5 -15t-38.5 15t-15.5 37v491h-23q-16 0 -27 11
t-11 27t11 27t27 11h23v47q0 22 16 38t38 16t38 -16t16 -38z" />
    <glyph glyph-name="Itilde" unicode="&#x128;" horiz-adv-x="236" 
d="M176 623v-573q0 -24 -17 -41t-41 -17t-41 17t-17 41v573q0 24 17 41t41 17t41 -17t17 -41zM178 803q14 0 26 16q12 17 33 17q17 0 28 -11t11 -28q0 -10 -3 -16q-10 -24 -33.5 -38t-52.5 -14q-31 0 -73 17t-56 17t-26 -16q-12 -17 -33 -17q-17 0 -28 11t-11 28q0 10 3 16
q10 24 33.5 38t52.5 14q30 0 71.5 -17t57.5 -17z" />
    <glyph glyph-name="itilde" unicode="&#x129;" 
d="M163 408v-362q0 -22 -15.5 -38t-38.5 -16t-38.5 16t-15.5 38v362q0 22 15.5 38t38.5 16t38.5 -16t15.5 -38zM169 599q14 0 26 16q12 17 33 17q16 0 27.5 -11t11.5 -28q0 -10 -3 -16q-10 -24 -33.5 -38t-52.5 -14q-31 0 -73 17t-56 17t-26 -16q-12 -17 -33 -17
q-16 0 -27.5 11t-11.5 28q0 10 3 16q10 24 33.5 38t52.5 14q30 0 71.5 -17t57.5 -17z" />
    <glyph glyph-name="Imacron" unicode="&#x12a;" horiz-adv-x="236" 
d="M176 623v-573q0 -24 -17 -41t-41 -17t-41 17t-17 41v573q0 24 17 41t41 17t41 -17t17 -41zM242 771q0 -16 -11 -27t-27 -11h-173q-16 0 -27 11t-11 27t11 27t27 11h173q16 0 27 -11t11 -27z" />
    <glyph glyph-name="imacron" unicode="&#x12b;" 
d="M163 408v-362q0 -22 -15.5 -38t-38.5 -16t-38.5 16t-15.5 38v362q0 22 15.5 38t38.5 16t38.5 -16t15.5 -38zM233 562q0 -16 -11 -27t-27 -11h-173q-16 0 -27 11t-11 27t11 27t27 11h173q16 0 27 -11t11 -27z" />
    <glyph glyph-name="Ibreve" unicode="&#x12c;" horiz-adv-x="236" 
d="M176 623v-573q0 -24 -17 -41t-41 -17t-41 17t-17 41v573q0 24 17 41t41 17t41 -17t17 -41zM117 728q-62 0 -100 26.5t-38 80.5q0 15 10.5 25.5t25.5 10.5t25.5 -10.5t10.5 -25.5q0 -39 66 -39t66 39q0 15 10.5 25.5t25.5 10.5t25.5 -10.5t10.5 -25.5q0 -54 -38 -80.5
t-100 -26.5z" />
    <glyph glyph-name="ibreve" unicode="&#x12d;" 
d="M163 408v-362q0 -22 -15.5 -38t-38.5 -16t-38.5 16t-15.5 38v362q0 22 15.5 38t38.5 16t38.5 -16t15.5 -38zM111 523q-62 0 -100 26.5t-38 80.5q0 15 10.5 25.5t25.5 10.5t25.5 -10.5t10.5 -25.5q0 -39 66 -39t66 39q0 15 10.5 25.5t25.5 10.5t25.5 -10.5t10.5 -25.5
q0 -54 -38 -80.5t-100 -26.5z" />
    <glyph glyph-name="Iogonek" unicode="&#x12e;" horiz-adv-x="236" 
d="M229 -149q0 -14 -10 -22q-20 -17 -73 -17q-49 0 -83 21t-34 67q0 31 19 58.5t44 39.5q-32 15 -32 52v573q0 24 17 41t41 17t41 -17t17 -41v-573q0 -30 -31 -51q-28 -20 -40 -37.5t-12 -41.5q0 -46 62 -46q10 0 24 3.5t20 3.5q13 0 21.5 -8.5t8.5 -21.5z" />
    <glyph glyph-name="iogonek" unicode="&#x12f;" 
d="M220 -149q0 -14 -10 -22q-20 -17 -73 -17q-49 0 -83 21t-34 67q0 31 19 58.5t45 39.5q-29 14 -29 48v362q0 22 15.5 38t38.5 16t38.5 -16t15.5 -38v-362q0 -29 -26 -46q-53 -35 -53 -80q0 -46 62 -46q10 0 24 3.5t20 3.5q13 0 21.5 -8.5t8.5 -21.5zM109 516
q-31 0 -47.5 17t-16.5 46q0 66 64 66q65 0 65 -66q0 -30 -17 -46.5t-48 -16.5z" />
    <glyph glyph-name="Idotaccent" unicode="&#x130;" horiz-adv-x="236" 
d="M176 623v-573q0 -24 -17 -41t-41 -17t-41 17t-17 41v573q0 24 17 41t41 17t41 -17t17 -41zM118 730q-52 0 -52 51q0 54 52 54t52 -54q0 -51 -52 -51z" />
    <glyph glyph-name="dotlessi" unicode="&#x131;" 
d="M163 408v-362q0 -22 -15.5 -38t-38.5 -16t-38.5 16t-15.5 38v362q0 22 15.5 38t38.5 16t38.5 -16t15.5 -38z" />
    <glyph glyph-name="IJ" unicode="&#x132;" horiz-adv-x="657" 
d="M176 623v-573q0 -24 -17 -41t-41 -17t-41 17t-17 41v573q0 24 17 41t41 17t41 -17t17 -41zM481 210v413q0 24 17 41t41 17t41 -17t17 -41v-413q0 -103 -50 -163t-159 -60q-75 0 -119 27q-28 15 -28 46q0 22 15 37t37 15q10 0 23 -5q37 -15 72 -15q93 0 93 118z" />
    <glyph glyph-name="ij" unicode="&#x133;" horiz-adv-x="426" 
d="M163 408v-362q0 -22 -15.5 -38t-38.5 -16t-38.5 16t-15.5 38v362q0 22 15.5 38t38.5 16t38.5 -16t15.5 -38zM109 516q-31 0 -47.5 17t-16.5 46q0 66 64 66q65 0 65 -66q0 -30 -17 -46.5t-48 -16.5zM322 516q-30 0 -47 17t-17 46q0 66 64 66q65 0 65 -66q0 -30 -17 -46.5
t-48 -16.5zM268 -8v416q0 22 16 38t38 16t38 -16t16 -38v-416q0 -67 -46 -112.5t-116 -45.5q-20 0 -35 15t-15 35t15 35t35 15q24 0 39 17t15 41z" />
    <glyph glyph-name="Jcircumflex" unicode="&#x134;" horiz-adv-x="431" 
d="M255 210v413q0 24 17 41t41 17t41 -17t17 -41v-413q0 -103 -50 -163t-159 -60q-75 0 -119 27q-28 15 -28 46q0 22 15 37t37 15q10 0 23 -5q38 -15 72 -15q93 0 93 118zM312 856q13 0 23 -7l93 -62q18 -13 18 -33q0 -16 -11 -27.5t-28 -11.5q-14 0 -23 7l-72 50l-72 -50
q-9 -7 -23 -7q-17 0 -28 11.5t-11 27.5q0 20 18 33l93 62q10 7 23 7z" />
    <glyph glyph-name="jcircumflex" unicode="&#x135;" 
d="M55 -8v416q0 22 15.5 38t38.5 16t38.5 -16t15.5 -38v-416q0 -67 -46 -112.5t-116 -45.5q-20 0 -35 15t-15 35t15 35t35 15q24 0 39 17t15 41zM107 657q13 0 23 -7l93 -62q18 -13 18 -33q0 -17 -11.5 -28t-27.5 -11q-14 0 -23 7l-72 50l-72 -50q-9 -7 -23 -7
q-16 0 -27.5 11t-11.5 28q0 20 18 33l93 62q10 7 23 7z" />
    <glyph glyph-name="Kcommaaccent" unicode="&#x136;" horiz-adv-x="556" 
d="M176 623v-229l240 268q18 19 42 19q23 0 39.5 -16.5t16.5 -39.5q0 -21 -15 -38l-188 -204l221 -301q11 -14 11 -33q0 -23 -17 -40t-40 -17q-29 0 -47 25l-206 285l-57 -60v-192q0 -24 -17 -41t-41 -17t-41 17t-17 41v573q0 24 17 41t41 17t41 -17t17 -41zM290 -39
q52 0 52 -53q0 -57 -25 -104.5t-59 -73.5q-7 -5 -13 -5q-7 0 -12.5 5.5t-5.5 12.5q0 8 6 14q33 33 33 72q0 16 -14.5 40t-14.5 39q0 53 53 53z" />
    <glyph glyph-name="kcommaaccent" unicode="&#x137;" horiz-adv-x="453" 
d="M386 -8q-26 0 -42 21l-149 200l-32 -25v-144q0 -22 -15.5 -37t-38.5 -15t-38.5 15t-15.5 37v616q0 22 15.5 37t38.5 15t38.5 -15t15.5 -37v-353l181 142q17 13 35 13q22 0 37 -15t15 -37q0 -26 -20 -41l-131 -100l147 -193q11 -15 11 -32q0 -22 -15 -37t-37 -15zM241 -39
q52 0 52 -53q0 -57 -25 -104.5t-59 -73.5q-7 -5 -13 -5q-8 0 -13 5.5t-5 12.5q0 8 6 14q33 33 33 72q0 16 -14.5 40t-14.5 39q0 53 53 53z" />
    <glyph glyph-name="kgreenlandic" unicode="&#x138;" horiz-adv-x="453" 
d="M386 -8q-26 0 -42 21l-147 194l-34 -29v-134q0 -22 -15.5 -37t-38.5 -15t-38.5 15t-15.5 37v366q0 22 15.5 37t38.5 15t38.5 -15t15.5 -37v-113l181 152q17 13 35 13q22 0 37 -15t15 -37q0 -26 -20 -41l-129 -106l145 -187q11 -15 11 -32q0 -22 -15 -37t-37 -15z" />
    <glyph glyph-name="Lacute" unicode="&#x139;" horiz-adv-x="491" 
d="M176 108h237q24 0 40 -15.5t16 -38.5t-15.5 -38.5t-40.5 -15.5h-296q-25 0 -41 16t-16 40v567q0 24 17 41t41 17t41 -17t17 -41v-515zM63 722q-25 23 -5 45l85 108q10 14 27.5 13t32.5 -16q16 -15 16.5 -32t-12.5 -28l-98 -90q-24 -21 -46 0z" />
    <glyph glyph-name="lacute" unicode="&#x13a;" horiz-adv-x="243" 
d="M109 712q23 0 38.5 -16t15.5 -38v-548q0 -8 6.5 -13t12.5 -5q21 0 35.5 -14.5t14.5 -35.5t-14.5 -35.5t-35.5 -14.5q-59 0 -93 33t-34 95v538q0 22 15.5 38t38.5 16zM49 746q-25 23 -5 45l85 108q10 14 27.5 13t32.5 -16q16 -15 16.5 -32t-12.5 -28l-98 -90
q-24 -21 -46 0z" />
    <glyph glyph-name="Lcommaaccent" unicode="&#x13b;" horiz-adv-x="491" 
d="M176 108h237q24 0 40 -15.5t16 -38.5t-15.5 -38.5t-40.5 -15.5h-296q-25 0 -41 16t-16 40v567q0 24 17 41t41 17t41 -17t17 -41v-515zM276 -39q52 0 52 -53q0 -57 -25 -104.5t-59 -73.5q-7 -5 -13 -5q-7 0 -12.5 5.5t-5.5 12.5q0 8 6 14q33 33 33 72q0 16 -14.5 40
t-14.5 39q0 53 53 53z" />
    <glyph glyph-name="lcommaaccent" unicode="&#x13c;" horiz-adv-x="243" 
d="M109 712q23 0 38.5 -16t15.5 -38v-548q0 -8 6.5 -13t12.5 -5q21 0 35.5 -14.5t14.5 -35.5t-14.5 -35.5t-35.5 -14.5q-59 0 -93 33t-34 95v538q0 22 15.5 38t38.5 16zM139 -39q52 0 52 -53q0 -57 -25 -104.5t-59 -73.5q-7 -5 -13 -5q-8 0 -13 5.5t-5 12.5q0 8 6 14
q33 33 33 72q0 16 -14.5 40t-14.5 39q0 53 53 53z" />
    <glyph glyph-name="Lcaron" unicode="&#x13d;" horiz-adv-x="491" 
d="M176 108h237q24 0 40 -15.5t16 -38.5t-15.5 -38.5t-40.5 -15.5h-296q-25 0 -41 16t-16 40v567q0 24 17 41t41 17t41 -17t17 -41v-515zM355 681q65 0 65 -67q0 -71 -31.5 -130.5t-73.5 -91.5q-8 -6 -16 -6q-9 0 -15.5 6.5t-6.5 15.5q0 8 6 15l22 28.5t13.5 27.5t6.5 37
q0 20 -18 49t-18 49q0 67 66 67z" />
    <glyph glyph-name="lcaron" unicode="&#x13e;" horiz-adv-x="323" 
d="M109 712q23 0 38.5 -16t15.5 -38v-548q0 -8 6.5 -13t12.5 -5q21 0 35.5 -14.5t14.5 -35.5t-14.5 -35.5t-35.5 -14.5q-59 0 -93 33t-34 95v538q0 22 15.5 38t38.5 16zM290 712q65 0 65 -67q0 -71 -31.5 -130.5t-73.5 -91.5q-8 -6 -16 -6q-9 0 -15.5 6.5t-6.5 15.5
q0 7 6 15l22 28.5t13.5 27.5t6.5 37t-18 49t-18 49q0 67 66 67z" />
    <glyph glyph-name="Ldot" unicode="&#x13f;" horiz-adv-x="491" 
d="M176 108h237q24 0 40 -15.5t16 -38.5t-15.5 -38.5t-40.5 -15.5h-296q-25 0 -41 16t-16 40v567q0 24 17 41t41 17t41 -17t17 -41v-515zM362 277q-66 0 -66 65q0 67 66 67q65 0 65 -67q0 -65 -65 -65z" />
    <glyph glyph-name="ldot" unicode="&#x140;" horiz-adv-x="363" 
d="M109 712q23 0 38.5 -16t15.5 -38v-548q0 -8 6.5 -13t12.5 -5q21 0 35.5 -14.5t14.5 -35.5t-14.5 -35.5t-35.5 -14.5q-59 0 -93 33t-34 95v538q0 22 15.5 38t38.5 16zM271 306q-66 0 -66 65q0 67 66 67q65 0 65 -67q0 -65 -65 -65z" />
    <glyph glyph-name="Lslash" unicode="&#x141;" horiz-adv-x="540" 
d="M225 108h237q24 0 40 -15.5t16 -38.5t-15.5 -38.5t-40.5 -15.5h-296q-25 0 -41 16t-16 40v162l-17 -7q-9 -4 -20 -4q-20 0 -33.5 13.5t-13.5 33.5q0 31 32 46l52 23v300q0 24 17 41t41 17t41 -17t17 -41v-249l138 62q9 4 19 4q20 0 34 -14t14 -34q0 -32 -28 -43l-177 -79
v-162z" />
    <glyph glyph-name="lslash" unicode="&#x142;" horiz-adv-x="243" 
d="M109 712q23 0 38.5 -16t15.5 -38v-214l45 26q10 6 22 6q18 0 30.5 -12.5t12.5 -30.5q0 -26 -22 -38l-88 -50v-235q0 -8 6.5 -13t12.5 -5q21 0 35.5 -14.5t14.5 -35.5t-14.5 -35.5t-35.5 -14.5q-59 0 -93 33t-34 95v164l-10 -5q-10 -6 -21 -6q-18 0 -30.5 12.5t-12.5 30.5
q0 24 21 37l53 30v275q0 22 15.5 38t38.5 16z" />
    <glyph glyph-name="Nacute" unicode="&#x143;" horiz-adv-x="623" 
d="M511 681q23 0 40 -17t17 -40v-575q0 -23 -17 -40t-40 -17q-30 0 -47 25l-295 426v-394q0 -23 -17 -40t-40 -17t-40 17t-17 40v575q0 23 17 40t40 17q30 0 46 -24l296 -429v396q0 23 17 40t40 17zM267 722q-25 23 -5 45l85 108q10 14 27.5 13t32.5 -16q16 -15 16.5 -32
t-12.5 -28l-98 -90q-24 -21 -46 0z" />
    <glyph glyph-name="nacute" unicode="&#x144;" horiz-adv-x="499" 
d="M286 468q168 0 168 -174v-250q0 -22 -15.5 -37t-38.5 -15q-24 0 -39 14.5t-15 37.5v230q0 96 -88 96q-100 0 -100 -103v-223q0 -22 -15.5 -37t-38.5 -15t-38.5 15t-15.5 37v364q0 22 16 38t38 16t38 -16t16 -38q39 60 128 60zM209 514q-25 23 -5 45l85 108q10 14 27.5 13
t32.5 -16q16 -15 16.5 -32t-12.5 -28l-98 -90q-24 -21 -46 0z" />
    <glyph glyph-name="Ncommaaccent" unicode="&#x145;" horiz-adv-x="623" 
d="M511 681q23 0 40 -17t17 -40v-575q0 -23 -17 -40t-40 -17q-30 0 -47 25l-295 426v-394q0 -23 -17 -40t-40 -17t-40 17t-17 40v575q0 23 17 40t40 17q30 0 46 -24l296 -429v396q0 23 17 40t40 17zM317 -39q52 0 52 -53q0 -57 -25 -104.5t-59 -73.5q-7 -5 -13 -5
q-8 0 -13 5.5t-5 12.5q0 8 6 14q33 33 33 72q0 16 -14.5 40t-14.5 39q0 53 53 53z" />
    <glyph glyph-name="ncommaaccent" unicode="&#x146;" horiz-adv-x="499" 
d="M286 468q168 0 168 -174v-250q0 -22 -15.5 -37t-38.5 -15q-24 0 -39 14.5t-15 37.5v230q0 96 -88 96q-100 0 -100 -103v-223q0 -22 -15.5 -37t-38.5 -15t-38.5 15t-15.5 37v364q0 22 16 38t38 16t38 -16t16 -38q39 60 128 60zM255 -39q52 0 52 -53q0 -57 -25 -104.5
t-59 -73.5q-7 -5 -13 -5q-8 0 -13 5.5t-5 12.5q0 8 6 14q33 33 33 72q0 16 -14.5 40t-14.5 39q0 53 53 53z" />
    <glyph glyph-name="Ncaron" unicode="&#x147;" horiz-adv-x="623" 
d="M511 681q23 0 40 -17t17 -40v-575q0 -23 -17 -40t-40 -17q-30 0 -47 25l-295 426v-394q0 -23 -17 -40t-40 -17t-40 17t-17 40v575q0 23 17 40t40 17q30 0 46 -24l296 -429v396q0 23 17 40t40 17zM321 715q-13 0 -23 7l-93 62q-18 13 -18 33q0 17 11.5 28t27.5 11
q14 0 23 -7l72 -50l72 50q9 7 23 7q16 0 27.5 -11t11.5 -28q0 -20 -18 -33l-93 -62q-10 -7 -23 -7z" />
    <glyph glyph-name="ncaron" unicode="&#x148;" horiz-adv-x="499" 
d="M286 468q168 0 168 -174v-250q0 -22 -15.5 -37t-38.5 -15q-24 0 -39 14.5t-15 37.5v230q0 96 -88 96q-100 0 -100 -103v-223q0 -22 -15.5 -37t-38.5 -15t-38.5 15t-15.5 37v364q0 22 16 38t38 16t38 -16t16 -38q39 60 128 60zM256 516q-13 0 -23 7l-93 62q-18 13 -18 33
q0 16 11 27.5t28 11.5q14 0 23 -7l72 -50l72 50q9 7 23 7q17 0 28 -11.5t11 -27.5q0 -20 -18 -33l-93 -62q-10 -7 -23 -7z" />
    <glyph glyph-name="napostrophe" unicode="&#x149;" horiz-adv-x="534" 
d="M321 468q168 0 168 -174v-250q0 -22 -15.5 -37t-38.5 -15q-24 0 -39 14.5t-15 37.5v230q0 96 -88 96q-100 0 -100 -103v-223q0 -22 -15.5 -37t-38.5 -15t-38.5 15t-15.5 37v364q0 22 15.5 38t38.5 16t38.5 -16t15.5 -38q39 60 128 60zM58 675q52 0 52 -53
q0 -57 -25 -104.5t-59 -73.5q-7 -5 -13 -5q-7 0 -12.5 5.5t-5.5 12.5q0 8 6 14q33 33 33 72q0 16 -14.5 40t-14.5 39q0 53 53 53z" />
    <glyph glyph-name="Eng" unicode="&#x14a;" horiz-adv-x="623" 
d="M359 -96q48 0 71.5 32t23.5 86v9l-285 412v-394q0 -23 -17 -40t-40 -17t-40 17t-17 40v575q0 23 17 40t40 17q30 0 46 -24l296 -429v396q0 23 17 40t40 17t40 -17t17 -40v-602q0 -103 -50 -163t-159 -60q-22 0 -37 15t-15 37t15 37.5t37 15.5z" />
    <glyph glyph-name="eng" unicode="&#x14b;" horiz-adv-x="499" 
d="M346 -43v317q0 96 -88 96q-100 0 -100 -103v-223q0 -22 -15.5 -37t-38.5 -15t-38.5 15t-15.5 37v364q0 22 16 38t38 16t38 -16t16 -38q39 60 128 60q168 0 168 -174v-337q0 -67 -46 -112.5t-116 -45.5q-20 0 -35 15t-15 35t15 35t35 15q24 0 39 17t15 41z" />
    <glyph glyph-name="Omacron" unicode="&#x14c;" horiz-adv-x="702" 
d="M351 -14q153 0 235 88.5t82 261.5q0 175 -81.5 263t-235.5 88t-235.5 -88t-81.5 -263q0 -173 82 -261.5t235 -88.5zM351 583q197 0 197 -247q0 -246 -197 -246t-197 246q0 247 197 247zM475 771q0 -16 -11 -27t-27 -11h-173q-16 0 -27 11t-11 27t11 27t27 11h173
q16 0 27 -11t11 -27z" />
    <glyph glyph-name="omacron" unicode="&#x14d;" horiz-adv-x="496" 
d="M467 227q0 -120 -57.5 -180t-161.5 -60t-161.5 60t-57.5 180t57.5 180.5t161.5 60.5t161.5 -60.5t57.5 -180.5zM358 227q0 149 -110 149t-110 -149q0 -148 110 -148t110 148zM374 562q0 -16 -11 -27t-27 -11h-173q-16 0 -27 11t-11 27t11 27t27 11h173q16 0 27 -11
t11 -27z" />
    <glyph glyph-name="Obreve" unicode="&#x14e;" horiz-adv-x="702" 
d="M351 -14q153 0 235 88.5t82 261.5q0 175 -81.5 263t-235.5 88t-235.5 -88t-81.5 -263q0 -173 82 -261.5t235 -88.5zM351 583q197 0 197 -247q0 -246 -197 -246t-197 246q0 247 197 247zM351 728q-62 0 -100 26.5t-38 80.5q0 15 10.5 25.5t25.5 10.5t25.5 -10.5
t10.5 -25.5q0 -39 66 -39t66 39q0 15 10.5 25.5t25.5 10.5t25.5 -10.5t10.5 -25.5q0 -54 -38 -80.5t-100 -26.5z" />
    <glyph glyph-name="obreve" unicode="&#x14f;" horiz-adv-x="496" 
d="M467 227q0 -120 -57.5 -180t-161.5 -60t-161.5 60t-57.5 180t57.5 180.5t161.5 60.5t161.5 -60.5t57.5 -180.5zM358 227q0 149 -110 149t-110 -149q0 -148 110 -148t110 148zM250 523q-62 0 -100 26.5t-38 80.5q0 15 10.5 25.5t25.5 10.5t25.5 -10.5t10.5 -25.5
q0 -39 66 -39t66 39q0 15 10.5 25.5t25.5 10.5t25.5 -10.5t10.5 -25.5q0 -54 -38 -80.5t-100 -26.5z" />
    <glyph glyph-name="Ohungarumlaut" unicode="&#x150;" horiz-adv-x="702" 
d="M351 -14q153 0 235 88.5t82 261.5q0 175 -81.5 263t-235.5 88t-235.5 -88t-81.5 -263q0 -173 82 -261.5t235 -88.5zM351 583q197 0 197 -247q0 -246 -197 -246t-197 246q0 247 197 247zM238 722q-25 23 -5 45l85 108q10 14 27.5 13t32.5 -16q16 -15 16.5 -32t-12.5 -28
l-98 -90q-24 -21 -46 0zM381 722q-25 23 -5 45l85 108q10 14 27.5 13t32.5 -16q16 -15 16.5 -32t-12.5 -28l-98 -90q-24 -21 -46 0z" />
    <glyph glyph-name="ohungarumlaut" unicode="&#x151;" horiz-adv-x="496" 
d="M467 227q0 -120 -57.5 -180t-161.5 -60t-161.5 60t-57.5 180t57.5 180.5t161.5 60.5t161.5 -60.5t57.5 -180.5zM358 227q0 149 -110 149t-110 -149q0 -148 110 -148t110 148zM144 514q-25 23 -5 45l85 108q10 14 27.5 13t32.5 -16q16 -15 16.5 -32t-12.5 -28l-98 -90
q-24 -21 -46 0zM287 514q-25 23 -5 45l85 108q10 14 27.5 13t32.5 -16q16 -15 16.5 -32t-12.5 -28l-98 -90q-24 -21 -46 0z" />
    <glyph glyph-name="OE" unicode="&#x152;" horiz-adv-x="918" 
d="M571 569v-179h189q21 0 36 -15t15 -36t-15 -36t-36 -15h-189v-184h265q22 0 37 -15t15 -37t-15 -37t-37 -15h-323q-17 0 -28 9q-62 -23 -134 -23q-153 0 -235 88.5t-82 261.5q0 175 81.5 263t235.5 88q80 0 134 -25q11 11 28 11h312q22 0 37 -15t15 -37t-15 -37t-37 -15
h-254zM351 583q-197 0 -197 -247q0 -246 197 -246q61 0 104 22v448q-44 23 -104 23z" />
    <glyph glyph-name="oe" unicode="&#x153;" horiz-adv-x="799" 
d="M248 468q109 0 165 -71q57 71 161 71q60 0 102 -20.5t62 -54t28 -63.5t8 -61q0 -19 -1 -29t-6.5 -24t-18.5 -20.5t-35 -6.5h-247q0 -52 32.5 -78.5t84.5 -26.5q53 0 99 31q17 11 32 11q20 0 33.5 -14t13.5 -33q0 -22 -17 -37q-58 -55 -161 -55q-113 0 -171 69
q-56 -69 -164 -69q-104 0 -161.5 60t-57.5 180t57.5 180.5t161.5 60.5zM358 227q0 149 -110 149t-110 -149q0 -148 110 -148t110 148zM574 376q-45 0 -73 -25t-32 -72h198q0 40 -23.5 68.5t-69.5 28.5z" />
    <glyph glyph-name="Racute" unicode="&#x154;" horiz-adv-x="560" 
d="M241 258h-65v-208q0 -24 -17 -41t-41 -17t-41 17t-17 41v565q0 24 17 41t41 17h191q98 0 154.5 -60t56.5 -149q0 -74 -42 -132t-112 -67l148 -180q12 -16 12 -35q0 -24 -17 -41t-41 -17q-29 0 -45 21zM308 569h-132v-209h135q44 0 66.5 30.5t22.5 73.5q0 44 -23 74.5
t-69 30.5zM206 722q-25 23 -5 45l85 108q10 14 27.5 13t32.5 -16q16 -15 16.5 -32t-12.5 -28l-98 -90q-24 -21 -46 0z" />
    <glyph glyph-name="racute" unicode="&#x155;" horiz-adv-x="324" 
d="M158 408v-5q14 29 45 46.5t63 17.5q21 0 36 -15t15 -36t-15 -36t-36 -15q-51 0 -79.5 -30t-28.5 -81v-208q0 -22 -16 -38t-38 -16t-38 16t-16 38v362q0 22 16 38t38 16t38 -16t16 -38zM140 514q-25 23 -5 45l85 108q10 14 27.5 13t32.5 -16q16 -15 16.5 -32t-12.5 -28
l-98 -90q-24 -21 -46 0z" />
    <glyph glyph-name="Rcommaaccent" unicode="&#x156;" horiz-adv-x="560" 
d="M241 258h-65v-208q0 -24 -17 -41t-41 -17t-41 17t-17 41v565q0 24 17 41t41 17h191q98 0 154.5 -60t56.5 -149q0 -74 -42 -132t-112 -67l148 -180q12 -16 12 -35q0 -24 -17 -41t-41 -17q-29 0 -45 21zM308 569h-132v-209h135q44 0 66.5 30.5t22.5 73.5q0 44 -23 74.5
t-69 30.5zM289 -39q52 0 52 -53q0 -57 -25 -104.5t-59 -73.5q-7 -5 -13 -5q-8 0 -13 5.5t-5 12.5q0 8 6 14q33 33 33 72q0 16 -14.5 40t-14.5 39q0 53 53 53z" />
    <glyph glyph-name="rcommaaccent" unicode="&#x157;" horiz-adv-x="324" 
d="M158 408v-5q14 29 45 46.5t63 17.5q21 0 36 -15t15 -36t-15 -36t-36 -15q-51 0 -79.5 -30t-28.5 -81v-208q0 -22 -16 -38t-38 -16t-38 16t-16 38v362q0 22 16 38t38 16t38 -16t16 -38zM105 -39q52 0 52 -53q0 -57 -25 -104.5t-59 -73.5q-7 -5 -13 -5q-8 0 -13 5.5
t-5 12.5q0 8 6 14q33 33 33 72q0 16 -14.5 40t-14.5 39q0 53 53 53z" />
    <glyph glyph-name="Rcaron" unicode="&#x158;" horiz-adv-x="560" 
d="M241 258h-65v-208q0 -24 -17 -41t-41 -17t-41 17t-17 41v565q0 24 17 41t41 17h191q98 0 154.5 -60t56.5 -149q0 -74 -42 -132t-112 -67l148 -180q12 -16 12 -35q0 -24 -17 -41t-41 -17q-29 0 -45 21zM308 569h-132v-209h135q44 0 66.5 30.5t22.5 73.5q0 44 -23 74.5
t-69 30.5zM278 715q-13 0 -23 7l-93 62q-18 13 -18 33q0 17 11 28t28 11q14 0 23 -7l72 -50l72 50q9 7 23 7q17 0 28 -11t11 -28q0 -20 -18 -33l-93 -62q-10 -7 -23 -7z" />
    <glyph glyph-name="rcaron" unicode="&#x159;" horiz-adv-x="324" 
d="M158 408v-5q14 29 45 46.5t63 17.5q21 0 36 -15t15 -36t-15 -36t-36 -15q-51 0 -79.5 -30t-28.5 -81v-208q0 -22 -16 -38t-38 -16t-38 16t-16 38v362q0 22 16 38t38 16t38 -16t16 -38zM177 516q-13 0 -23 7l-93 62q-18 13 -18 33q0 16 11.5 27.5t27.5 11.5q14 0 23 -7
l72 -50l72 50q9 7 23 7q16 0 27.5 -11.5t11.5 -27.5q0 -20 -18 -33l-93 -62q-10 -7 -23 -7z" />
    <glyph glyph-name="Sacute" unicode="&#x15a;" horiz-adv-x="573" 
d="M430 530q-55 53 -140 53q-58 0 -86 -23t-28 -56q0 -30 27 -52t67.5 -33.5t88 -30t88 -39.5t67.5 -63.5t27 -101.5q0 -93 -64.5 -145.5t-186.5 -52.5q-85 0 -153.5 35.5t-99.5 86.5q-8 13 -8 28q0 22 15.5 38t37.5 16t44 -22q76 -76 164 -76q135 0 135 92q0 29 -20 50.5
t-52.5 35t-71.5 25.5t-77.5 28t-71 37.5t-52.5 58t-20 85.5q0 80 58.5 131.5t171.5 51.5q75 0 136 -25.5t91 -68.5q10 -15 10 -32q0 -22 -16 -37.5t-38 -15.5q-19 0 -43 22zM232 722q-25 23 -5 45l85 108q10 14 27.5 13t32.5 -16q16 -15 16.5 -32t-12.5 -28l-98 -90
q-24 -21 -46 0z" />
    <glyph glyph-name="sacute" unicode="&#x15b;" horiz-adv-x="425" 
d="M211 374q-59 0 -59 -38q0 -20 25.5 -33.5t61.5 -24t72 -25t61.5 -45.5t25.5 -77q0 -68 -51 -105t-132 -37q-59 0 -107 21.5t-70 48.5q-12 15 -12 31q0 20 14 34t34 14q16 0 31 -12q50 -41 110 -41q74 0 74 40q0 22 -25 36t-61.5 24t-72.5 24.5t-61 46t-25 78.5
q0 65 47 99.5t120 34.5q52 0 96 -17.5t66 -44.5q10 -13 10 -30q0 -20 -14.5 -34t-33.5 -14q-15 0 -34 14q-44 32 -90 32zM154 514q-25 23 -5 45l85 108q10 14 27.5 13t32.5 -16q16 -15 16.5 -32t-12.5 -28l-98 -90q-24 -21 -46 0z" />
    <glyph glyph-name="Scircumflex" unicode="&#x15c;" horiz-adv-x="573" 
d="M430 530q-55 53 -140 53q-58 0 -86 -23t-28 -56q0 -30 27 -52t67.5 -33.5t88 -30t88 -39.5t67.5 -63.5t27 -101.5q0 -93 -64.5 -145.5t-186.5 -52.5q-85 0 -153.5 35.5t-99.5 86.5q-8 13 -8 28q0 22 15.5 38t37.5 16t44 -22q76 -76 164 -76q135 0 135 92q0 29 -20 50.5
t-52.5 35t-71.5 25.5t-77.5 28t-71 37.5t-52.5 58t-20 85.5q0 80 58.5 131.5t171.5 51.5q75 0 136 -25.5t91 -68.5q10 -15 10 -32q0 -22 -16 -37.5t-38 -15.5q-19 0 -43 22zM298 856q13 0 23 -7l93 -62q18 -13 18 -33q0 -16 -11 -27.5t-28 -11.5q-14 0 -23 7l-72 50l-72 -50
q-9 -7 -23 -7q-17 0 -28 11.5t-11 27.5q0 20 18 33l93 62q10 7 23 7z" />
    <glyph glyph-name="scircumflex" unicode="&#x15d;" horiz-adv-x="425" 
d="M211 374q-59 0 -59 -38q0 -20 25.5 -33.5t61.5 -24t72 -25t61.5 -45.5t25.5 -77q0 -68 -51 -105t-132 -37q-59 0 -107 21.5t-70 48.5q-12 15 -12 31q0 20 14 34t34 14q16 0 31 -12q50 -41 110 -41q74 0 74 40q0 22 -25 36t-61.5 24t-72.5 24.5t-61 46t-25 78.5
q0 65 47 99.5t120 34.5q52 0 96 -17.5t66 -44.5q10 -13 10 -30q0 -20 -14.5 -34t-33.5 -14q-15 0 -34 14q-44 32 -90 32zM221 657q13 0 23 -7l93 -62q18 -13 18 -33q0 -17 -11.5 -28t-27.5 -11q-14 0 -23 7l-72 50l-72 -50q-9 -7 -23 -7q-16 0 -27.5 11t-11.5 28q0 20 18 33
l93 62q10 7 23 7z" />
    <glyph glyph-name="Scedilla" unicode="&#x15e;" horiz-adv-x="573" 
d="M400 -139q0 -97 -109 -97q-47 0 -80 22q-11 7 -11 21q0 11 8 18.5t18 7.5q6 0 12 -3q28 -14 57 -14q49 0 49 45q0 42 -54 42q-9 0 -23 -3t-21 -3q-21 0 -21 22v73q-63 12 -113.5 44t-74.5 72q-8 13 -8 28q0 22 15.5 38t37.5 16t44 -22q76 -76 164 -76q135 0 135 92
q0 29 -20 50.5t-52.5 35t-71.5 25.5t-77.5 28t-71 37.5t-52.5 58t-20 85.5q0 80 58.5 131.5t171.5 51.5q75 0 136 -25.5t91 -68.5q10 -15 10 -32q0 -22 -16 -37.5t-38 -15.5q-19 0 -43 22q-55 53 -140 53q-58 0 -86 -23t-28 -56q0 -30 27 -52t67.5 -33.5t88 -30t88 -39.5
t67.5 -63.5t27 -101.5q0 -93 -64.5 -145.5t-186.5 -52.5l-17 1l-3 -40q13 3 35 3q43 0 69 -23.5t26 -65.5z" />
    <glyph glyph-name="scedilla" unicode="&#x15f;" horiz-adv-x="425" 
d="M340 -139q0 -97 -109 -97q-47 0 -80 22q-11 7 -11 21q0 11 8 18.5t18 7.5q6 0 12 -3q28 -14 57 -14q49 0 49 45q0 42 -54 42q-9 0 -23 -3t-21 -3q-21 0 -21 22v75q-86 14 -127 65q-12 15 -12 31q0 20 14 34t34 14q16 0 31 -12q50 -41 110 -41q74 0 74 40q0 22 -25 36
t-61.5 24t-72.5 24.5t-61 46t-25 78.5q0 65 47 99.5t120 34.5q52 0 96 -17.5t66 -44.5q10 -13 10 -30q0 -20 -14.5 -34t-33.5 -14q-15 0 -34 14q-44 32 -90 32q-59 0 -59 -38q0 -20 25.5 -33.5t61.5 -24t72 -25t61.5 -45.5t25.5 -77q0 -68 -51.5 -105t-132.5 -37l-4 -42
q13 3 35 3q43 0 69 -23.5t26 -65.5z" />
    <glyph glyph-name="Scaron" unicode="&#x160;" horiz-adv-x="573" 
d="M430 530q-55 53 -140 53q-58 0 -86 -23t-28 -56q0 -30 27 -52t67.5 -33.5t88 -30t88 -39.5t67.5 -63.5t27 -101.5q0 -93 -64.5 -145.5t-186.5 -52.5q-85 0 -153.5 35.5t-99.5 86.5q-8 13 -8 28q0 22 15.5 38t37.5 16t44 -22q76 -76 164 -76q135 0 135 92q0 29 -20 50.5
t-52.5 35t-71.5 25.5t-77.5 28t-71 37.5t-52.5 58t-20 85.5q0 80 58.5 131.5t171.5 51.5q75 0 136 -25.5t91 -68.5q10 -15 10 -32q0 -22 -16 -37.5t-38 -15.5q-19 0 -43 22zM297 715q-13 0 -23 7l-93 62q-18 13 -18 33q0 17 11.5 28t27.5 11q14 0 23 -7l72 -50l72 50
q9 7 23 7q16 0 27.5 -11t11.5 -28q0 -20 -18 -33l-93 -62q-10 -7 -23 -7z" />
    <glyph glyph-name="scaron" unicode="&#x161;" horiz-adv-x="425" 
d="M211 374q-59 0 -59 -38q0 -20 25.5 -33.5t61.5 -24t72 -25t61.5 -45.5t25.5 -77q0 -68 -51 -105t-132 -37q-59 0 -107 21.5t-70 48.5q-12 15 -12 31q0 20 14 34t34 14q16 0 31 -12q50 -41 110 -41q74 0 74 40q0 22 -25 36t-61.5 24t-72.5 24.5t-61 46t-25 78.5
q0 65 47 99.5t120 34.5q52 0 96 -17.5t66 -44.5q10 -13 10 -30q0 -20 -14.5 -34t-33.5 -14q-15 0 -34 14q-44 32 -90 32zM217 516q-13 0 -23 7l-93 62q-18 13 -18 33q0 16 11.5 27.5t27.5 11.5q14 0 23 -7l72 -50l72 50q9 7 23 7q16 0 27.5 -11.5t11.5 -27.5q0 -20 -18 -33
l-93 -62q-10 -7 -23 -7z" />
    <glyph glyph-name="Tcommaaccent" unicode="&#x162;" horiz-adv-x="566" 
d="M494 571h-153v-521q0 -24 -17 -41t-41 -17t-41 17t-17 41v521h-153q-21 0 -36 15t-15 36t15 36t36 15h422q21 0 36 -15t15 -36t-15 -36t-36 -15zM282 -39q52 0 52 -53q0 -57 -25 -104.5t-59 -73.5q-7 -5 -13 -5q-7 0 -12.5 5.5t-5.5 12.5q0 8 6 14q33 33 33 72
q0 16 -14.5 40t-14.5 39q0 53 53 53z" />
    <glyph glyph-name="tcommaaccent" unicode="&#x163;" horiz-adv-x="306" 
d="M85 454v84q0 22 15.5 37.5t37.5 15.5t37.5 -15.5t15.5 -37.5v-84h45q19 0 32 -13t13 -32t-13 -32t-32 -13h-45v-242q0 -16 11.5 -26t26.5 -10q19 0 33 -14t14 -33t-14 -33t-33 -14q-66 0 -105 38t-39 98v236h-23q-19 0 -32 13t-13 32t13 32t32 13h23zM171 -39
q52 0 52 -53q0 -57 -25 -104.5t-59 -73.5q-7 -5 -13 -5q-8 0 -13 5.5t-5 12.5q0 8 6 14q33 33 33 72q0 16 -14.5 40t-14.5 39q0 53 53 53z" />
    <glyph glyph-name="Tcaron" unicode="&#x164;" horiz-adv-x="566" 
d="M494 571h-153v-521q0 -24 -17 -41t-41 -17t-41 17t-17 41v521h-153q-21 0 -36 15t-15 36t15 36t36 15h422q21 0 36 -15t15 -36t-15 -36t-36 -15zM285 715q-13 0 -23 7l-93 62q-18 13 -18 33q0 17 11.5 28t27.5 11q14 0 23 -7l72 -50l72 50q9 7 23 7q16 0 27.5 -11
t11.5 -28q0 -20 -18 -33l-93 -62q-10 -7 -23 -7z" />
    <glyph glyph-name="tcaron" unicode="&#x165;" horiz-adv-x="471" 
d="M85 454v84q0 22 15.5 37.5t37.5 15.5t37.5 -15.5t15.5 -37.5v-84h45q19 0 32 -13t13 -32t-13 -32t-32 -13h-45v-242q0 -16 11.5 -26t26.5 -10q19 0 33 -14t14 -33t-14 -33t-33 -14q-66 0 -105 38t-39 98v236h-23q-19 0 -32 13t-13 32t13 32t32 13h23zM380 711
q65 0 65 -67q0 -71 -31.5 -130.5t-73.5 -91.5q-8 -6 -16 -6q-9 0 -15.5 6.5t-6.5 15.5q0 8 6 15l22 28.5t13.5 27.5t6.5 37q0 20 -18 49t-18 49q0 67 66 67z" />
    <glyph glyph-name="Tbar" unicode="&#x166;" horiz-adv-x="566" 
d="M494 571h-153v-173h57q20 0 34 -14t14 -34t-14 -34t-34 -14h-57v-252q0 -24 -17 -41t-41 -17t-41 17t-17 41v252h-57q-20 0 -34 14t-14 34t14 34t34 14h57v173h-153q-21 0 -36 15t-15 36t15 36t36 15h422q21 0 36 -15t15 -36t-15 -36t-36 -15z" />
    <glyph glyph-name="tbar" unicode="&#x167;" horiz-adv-x="306" 
d="M281 270q0 -16 -11 -27t-27 -11h-52v-110q0 -16 11.5 -26t26.5 -10q19 0 33 -14t14 -33t-14 -33t-33 -14q-66 0 -105 38t-39 98v104h-30q-16 0 -27 11t-11 27t11 27t27 11h30v56h-23q-19 0 -32 13t-13 32t13 32t32 13h23v84q0 22 15.5 37.5t37.5 15.5t37.5 -15.5
t15.5 -37.5v-84h45q19 0 32 -13t13 -32t-13 -32t-32 -13h-45v-56h52q16 0 27 -11t11 -27z" />
    <glyph glyph-name="Utilde" unicode="&#x168;" horiz-adv-x="619" 
d="M312 -14q-72 0 -124 20t-78.5 55t-38 73.5t-11.5 85.5v403q0 24 17 41t41 17t41 -17t17 -41v-403q0 -132 136 -132t136 132v403q0 24 17 41t41 17t41 -17t17 -41v-403q0 -47 -11.5 -85.5t-38 -73.5t-78.5 -55t-124 -20zM375 803q14 0 26 16q12 17 33 17q16 0 27.5 -11
t11.5 -28q0 -10 -3 -16q-10 -24 -33.5 -38t-52.5 -14q-31 0 -73 17t-56 17t-26 -16q-12 -17 -33 -17q-16 0 -27.5 11t-11.5 28q0 10 3 16q10 24 33.5 38t52.5 14q30 0 71.5 -17t57.5 -17z" />
    <glyph glyph-name="utilde" unicode="&#x169;" horiz-adv-x="485" 
d="M99 462q23 0 38.5 -16t15.5 -38v-233q0 -90 90 -90q89 0 89 90v233q0 22 16 38t38 16t38 -16t16 -38v-233q0 -85 -43.5 -136.5t-153.5 -51.5q-111 0 -154.5 51.5t-43.5 136.5v233q0 22 15.5 38t38.5 16zM306 599q14 0 26 16q12 17 33 17q17 0 28 -11t11 -28q0 -10 -3 -16
q-10 -24 -33.5 -38t-52.5 -14q-31 0 -73 17t-56 17t-26 -16q-12 -17 -33 -17q-17 0 -28 11t-11 28q0 10 3 16q10 24 33.5 38t52.5 14q30 0 71.5 -17t57.5 -17z" />
    <glyph glyph-name="Umacron" unicode="&#x16a;" horiz-adv-x="619" 
d="M312 -14q-72 0 -124 20t-78.5 55t-38 73.5t-11.5 85.5v403q0 24 17 41t41 17t41 -17t17 -41v-403q0 -132 136 -132t136 132v403q0 24 17 41t41 17t41 -17t17 -41v-403q0 -47 -11.5 -85.5t-38 -73.5t-78.5 -55t-124 -20zM443 771q0 -16 -11 -27t-27 -11h-173q-16 0 -27 11
t-11 27t11 27t27 11h173q16 0 27 -11t11 -27z" />
    <glyph glyph-name="umacron" unicode="&#x16b;" horiz-adv-x="485" 
d="M99 462q23 0 38.5 -16t15.5 -38v-233q0 -90 90 -90q89 0 89 90v233q0 22 16 38t38 16t38 -16t16 -38v-233q0 -85 -43.5 -136.5t-153.5 -51.5q-111 0 -154.5 51.5t-43.5 136.5v233q0 22 15.5 38t38.5 16zM370 562q0 -16 -11 -27t-27 -11h-173q-16 0 -27 11t-11 27t11 27
t27 11h173q16 0 27 -11t11 -27z" />
    <glyph glyph-name="Ubreve" unicode="&#x16c;" horiz-adv-x="619" 
d="M312 -14q-72 0 -124 20t-78.5 55t-38 73.5t-11.5 85.5v403q0 24 17 41t41 17t41 -17t17 -41v-403q0 -132 136 -132t136 132v403q0 24 17 41t41 17t41 -17t17 -41v-403q0 -47 -11.5 -85.5t-38 -73.5t-78.5 -55t-124 -20zM316 728q-62 0 -100 26.5t-38 80.5q0 15 10.5 25.5
t25.5 10.5t25.5 -10.5t10.5 -25.5q0 -39 66 -39t66 39q0 15 10.5 25.5t25.5 10.5t25.5 -10.5t10.5 -25.5q0 -54 -38 -80.5t-100 -26.5z" />
    <glyph glyph-name="ubreve" unicode="&#x16d;" horiz-adv-x="485" 
d="M99 462q23 0 38.5 -16t15.5 -38v-233q0 -90 90 -90q89 0 89 90v233q0 22 16 38t38 16t38 -16t16 -38v-233q0 -85 -43.5 -136.5t-153.5 -51.5q-111 0 -154.5 51.5t-43.5 136.5v233q0 22 15.5 38t38.5 16zM245 523q-62 0 -100 26.5t-38 80.5q0 15 10.5 25.5t25.5 10.5
t25.5 -10.5t10.5 -25.5q0 -39 66 -39t66 39q0 15 10.5 25.5t25.5 10.5t25.5 -10.5t10.5 -25.5q0 -54 -38 -80.5t-100 -26.5z" />
    <glyph glyph-name="Uring" unicode="&#x16e;" horiz-adv-x="619" 
d="M312 -14q-72 0 -124 20t-78.5 55t-38 73.5t-11.5 85.5v403q0 24 17 41t41 17t41 -17t17 -41v-403q0 -132 136 -132t136 132v403q0 24 17 41t41 17t41 -17t17 -41v-403q0 -47 -11.5 -85.5t-38 -73.5t-78.5 -55t-124 -20zM317 753q50 0 50 49t-50 49t-50 -49t50 -49z
M317 901q52 0 79 -26t27 -73t-27 -73t-79 -26t-79 26t-27 73t27 73t79 26z" />
    <glyph glyph-name="uring" unicode="&#x16f;" horiz-adv-x="485" 
d="M99 462q23 0 38.5 -16t15.5 -38v-233q0 -90 90 -90q89 0 89 90v233q0 22 16 38t38 16t38 -16t16 -38v-233q0 -85 -43.5 -136.5t-153.5 -51.5q-111 0 -154.5 51.5t-43.5 136.5v233q0 22 15.5 38t38.5 16zM245 551q50 0 50 49t-50 49t-50 -49t50 -49zM245 699q52 0 79 -26
t27 -73t-27 -73t-79 -26t-79 26t-27 73t27 73t79 26z" />
    <glyph glyph-name="Uhungarumlaut" unicode="&#x170;" horiz-adv-x="619" 
d="M312 -14q-72 0 -124 20t-78.5 55t-38 73.5t-11.5 85.5v403q0 24 17 41t41 17t41 -17t17 -41v-403q0 -132 136 -132t136 132v403q0 24 17 41t41 17t41 -17t17 -41v-403q0 -47 -11.5 -85.5t-38 -73.5t-78.5 -55t-124 -20zM203 722q-25 23 -5 45l85 108q10 14 27.5 13
t32.5 -16q16 -15 16.5 -32t-12.5 -28l-98 -90q-24 -21 -46 0zM346 722q-25 23 -5 45l85 108q10 14 27.5 13t32.5 -16q16 -15 16.5 -32t-12.5 -28l-98 -90q-24 -21 -46 0z" />
    <glyph glyph-name="uhungarumlaut" unicode="&#x171;" horiz-adv-x="485" 
d="M99 462q23 0 38.5 -16t15.5 -38v-233q0 -90 90 -90q89 0 89 90v233q0 22 16 38t38 16t38 -16t16 -38v-233q0 -85 -43.5 -136.5t-153.5 -51.5q-111 0 -154.5 51.5t-43.5 136.5v233q0 22 15.5 38t38.5 16zM140 514q-25 23 -5 45l85 108q10 14 27.5 13t32.5 -16
q16 -15 16.5 -32t-12.5 -28l-98 -90q-24 -21 -46 0zM283 514q-25 23 -5 45l85 108q10 14 27.5 13t32.5 -16q16 -15 16.5 -32t-12.5 -28l-98 -90q-24 -21 -46 0z" />
    <glyph glyph-name="Uogonek" unicode="&#x172;" horiz-adv-x="619" 
d="M500 -149q0 -14 -10 -22q-20 -17 -73 -17q-49 0 -83 21t-34 67q0 53 46 88q-22 -2 -34 -2q-72 0 -124 20t-78.5 55t-38 73.5t-11.5 85.5v403q0 24 17 41t41 17t41 -17t17 -41v-403q0 -132 136 -132t136 132v403q0 24 17 41t41 17t41 -17t17 -41v-403q0 -175 -146 -220
q-54 -39 -54 -80q0 -46 62 -46q10 0 24 3.5t20 3.5q13 0 21.5 -8.5t8.5 -21.5z" />
    <glyph glyph-name="uogonek" unicode="&#x173;" horiz-adv-x="485" 
d="M416 -149q0 -14 -10 -22q-20 -17 -73 -17q-49 0 -83 21t-34 67q0 53 46 88q-6 -1 -19 -1q-111 0 -154.5 51.5t-43.5 136.5v233q0 22 15.5 38t38.5 16t38.5 -16t15.5 -38v-233q0 -90 90 -90q89 0 89 90v233q0 22 16 38t38 16t38 -16t16 -38v-233q0 -141 -107 -175
q-53 -38 -53 -80q0 -46 62 -46q10 0 24 3.5t20 3.5q13 0 21.5 -8.5t8.5 -21.5z" />
    <glyph glyph-name="Wcircumflex" unicode="&#x174;" horiz-adv-x="838" 
d="M534 35l-115 410l-115 -410q-5 -19 -20.5 -31t-35.5 -12q-19 0 -34.5 11.5t-20.5 28.5l-171 573q-3 9 -3 18q0 24 17 41t41 17q22 0 36.5 -12.5t18.5 -27.5l117 -420l114 418q5 19 21 30.5t35 11.5t35 -11.5t21 -30.5l114 -418l117 420q4 15 18.5 27.5t36.5 12.5
q24 0 41 -17t17 -41q0 -9 -3 -18l-171 -573q-5 -17 -20.5 -28.5t-34.5 -11.5q-20 0 -35.5 12t-20.5 31zM419 856q13 0 23 -7l93 -62q18 -13 18 -33q0 -16 -11.5 -27.5t-27.5 -11.5q-14 0 -23 7l-72 50l-72 -50q-9 -7 -23 -7q-16 0 -27.5 11.5t-11.5 27.5q0 20 18 33l93 62
q10 7 23 7z" />
    <glyph glyph-name="wcircumflex" unicode="&#x175;" horiz-adv-x="636" 
d="M381 30l-62 219l-62 -218q-5 -17 -19.5 -28t-32.5 -11q-37 0 -51 35l-137 357q-5 12 -5 24q0 22 16 38t38 16q38 0 51 -35l83 -246l67 242q4 16 17.5 27.5t34.5 11.5q19 0 33 -11t18 -25l67 -245l82 246q13 35 52 35q23 0 38.5 -15t15.5 -37q0 -9 -5 -21l-137 -363
q-12 -34 -50 -34q-18 0 -32.5 10.5t-19.5 27.5zM318 657q13 0 23 -7l93 -62q18 -13 18 -33q0 -17 -11 -28t-28 -11q-14 0 -23 7l-72 50l-72 -50q-9 -7 -23 -7q-17 0 -28 11t-11 28q0 20 18 33l93 62q10 7 23 7z" />
    <glyph glyph-name="Ycircumflex" unicode="&#x176;" horiz-adv-x="554" 
d="M126 654l151 -237l151 237q17 27 49 27q24 0 41 -17t17 -41q0 -19 -9 -31l-191 -285v-257q0 -24 -17 -41t-41 -17t-41 17t-17 41v257l-191 285q-9 12 -9 31q0 24 17 41t41 17q32 0 49 -27zM277 856q13 0 23 -7l93 -62q18 -13 18 -33q0 -16 -11.5 -27.5t-27.5 -11.5
q-14 0 -23 7l-72 50l-72 -50q-9 -7 -23 -7q-16 0 -27.5 11.5t-11.5 27.5q0 20 18 33l93 62q10 7 23 7z" />
    <glyph glyph-name="ycircumflex" unicode="&#x177;" horiz-adv-x="452" 
d="M43 -101q45 0 72 32t55 101l-154 355q-4 10 -4 21q0 22 16 38t38 16q37 0 50 -34l110 -278l110 278q13 34 50 34q22 0 38 -16t16 -38q0 -11 -4 -21l-186 -420q-75 -168 -207 -168q-22 0 -37 14t-15 36t15 36t37 14zM226 657q13 0 23 -7l93 -62q18 -13 18 -33
q0 -17 -11 -28t-28 -11q-14 0 -23 7l-72 50l-72 -50q-9 -7 -23 -7q-17 0 -28 11t-11 28q0 20 18 33l93 62q10 7 23 7z" />
    <glyph glyph-name="Ydieresis" unicode="&#x178;" horiz-adv-x="554" 
d="M126 654l151 -237l151 237q17 27 49 27q24 0 41 -17t17 -41q0 -19 -9 -31l-191 -285v-257q0 -24 -17 -41t-41 -17t-41 17t-17 41v257l-191 285q-9 12 -9 31q0 24 17 41t41 17q32 0 49 -27zM187 740q-50 0 -50 51q0 53 50 53t50 -53q0 -51 -50 -51zM368 740q-50 0 -50 51
q0 53 50 53t50 -53q0 -51 -50 -51z" />
    <glyph glyph-name="Zacute" unicode="&#x179;" horiz-adv-x="541" 
d="M476 0h-409q-22 0 -37 15t-15 37q0 18 10 31l336 488h-275q-21 0 -36 15t-15 36t15 36t36 15h378q21 0 36 -15t15 -36q0 -16 -9 -29l-335 -489h305q22 0 37 -15t15 -37t-15 -37t-37 -15zM223 722q-25 23 -5 45l85 108q10 14 27.5 13t32.5 -16q16 -15 16.5 -32t-12.5 -28
l-98 -90q-24 -21 -46 0z" />
    <glyph glyph-name="zacute" unicode="&#x17a;" horiz-adv-x="409" 
d="M29 409q0 19 13 32t32 13h257q19 0 33.5 -14t14.5 -34q0 -16 -11 -31l-211 -283h182q19 0 32.5 -13.5t13.5 -32.5t-13.5 -32.5t-32.5 -13.5h-276q-19 0 -32.5 13.5t-13.5 32.5q0 15 11 30l215 288h-169q-19 0 -32 13t-13 32zM157 514q-25 23 -5 45l85 108q10 14 27.5 13
t32.5 -16q16 -15 16.5 -32t-12.5 -28l-98 -90q-24 -21 -46 0z" />
    <glyph glyph-name="Zdotaccent" unicode="&#x17b;" horiz-adv-x="541" 
d="M476 0h-409q-22 0 -37 15t-15 37q0 18 10 31l336 488h-275q-21 0 -36 15t-15 36t15 36t36 15h378q21 0 36 -15t15 -36q0 -16 -9 -29l-335 -489h305q22 0 37 -15t15 -37t-15 -37t-37 -15zM278 730q-52 0 -52 51q0 54 52 54t52 -54q0 -51 -52 -51z" />
    <glyph glyph-name="zdotaccent" unicode="&#x17c;" horiz-adv-x="409" 
d="M29 409q0 19 13 32t32 13h257q19 0 33.5 -14t14.5 -34q0 -16 -11 -31l-211 -283h182q19 0 32.5 -13.5t13.5 -32.5t-13.5 -32.5t-32.5 -13.5h-276q-19 0 -32.5 13.5t-13.5 32.5q0 15 11 30l215 288h-169q-19 0 -32 13t-13 32zM209 537q-52 0 -52 51q0 54 52 54t52 -54
q0 -51 -52 -51z" />
    <glyph glyph-name="Zcaron" unicode="&#x17d;" horiz-adv-x="541" 
d="M476 0h-409q-22 0 -37 15t-15 37q0 18 10 31l336 488h-275q-21 0 -36 15t-15 36t15 36t36 15h378q21 0 36 -15t15 -36q0 -16 -9 -29l-335 -489h305q22 0 37 -15t15 -37t-15 -37t-37 -15zM278 715q-13 0 -23 7l-93 62q-18 13 -18 33q0 17 11 28t28 11q14 0 23 -7l72 -50
l72 50q9 7 23 7q17 0 28 -11t11 -28q0 -20 -18 -33l-93 -62q-10 -7 -23 -7z" />
    <glyph glyph-name="zcaron" unicode="&#x17e;" horiz-adv-x="409" 
d="M29 409q0 19 13 32t32 13h257q19 0 33.5 -14t14.5 -34q0 -16 -11 -31l-211 -283h182q19 0 32.5 -13.5t13.5 -32.5t-13.5 -32.5t-32.5 -13.5h-276q-19 0 -32.5 13.5t-13.5 32.5q0 15 11 30l215 288h-169q-19 0 -32 13t-13 32zM204 516q-13 0 -23 7l-93 62q-18 13 -18 33
q0 16 11 27.5t28 11.5q14 0 23 -7l72 -50l72 50q9 7 23 7q17 0 28 -11.5t11 -27.5q0 -20 -18 -33l-93 -62q-10 -7 -23 -7z" />
    <glyph glyph-name="longs" unicode="&#x17f;" horiz-adv-x="274" 
d="M82 364h-21q-19 0 -32 13t-13 32t13 32t32 13h21v54q0 75 49.5 126t141.5 51q19 0 33 -13.5t14 -33.5t-14 -33.5t-33 -13.5q-40 0 -61.5 -20.5t-21.5 -54.5v-472q0 -22 -15.5 -37t-38.5 -15q-24 0 -39 14.5t-15 37.5v320z" />
    <glyph glyph-name="florin" unicode="&#x192;" horiz-adv-x="478" 
d="M101 398h53l21 115q15 80 60 127t117 47q62 0 97 -26q20 -14 20 -38q0 -19 -13.5 -32.5t-32.5 -13.5q-9 0 -23 6q-23 10 -48 10q-55 0 -70 -81l-21 -114h66q19 0 32 -13t13 -32t-13 -32t-32 -13h-81l-58 -310q-37 -199 -213 -199q-42 0 -77 13q-32 12 -32 44
q0 20 13.5 34t32.5 14q6 0 18 -3q26 -7 45 -7q46 0 71.5 25.5t35.5 79.5l55 309h-36q-19 0 -32 13t-13 32t13 32t32 13z" />
    <glyph glyph-name="AEmacron" unicode="&#x1e2;" horiz-adv-x="864" 
d="M296 291h105v166zM782 0h-323q-24 0 -41 16t-17 40v129h-168l-105 -166q-18 -27 -48 -27q-23 0 -40 17t-17 40q0 16 10 32l377 566q18 26 46 26h315q22 0 37 -15t15 -37t-15 -37t-37 -15h-254v-179h189q21 0 36 -15t15 -36t-15 -36t-36 -15h-189v-184h265q22 0 37 -15
t15 -37t-15 -37t-37 -15zM677 771q0 -16 -11 -27t-27 -11h-173q-16 0 -27 11t-11 27t11 27t27 11h173q16 0 27 -11t11 -27z" />
    <glyph glyph-name="aemacron" unicode="&#x1e3;" horiz-adv-x="760" 
d="M229 372q-47 0 -100 -38q-14 -10 -30 -10q-19 0 -33 14t-14 33t13 33q58 64 164 64q104 0 156 -54q56 54 150 54q60 0 102 -20.5t62 -54t28 -63.5t8 -61q0 -19 -1 -29t-6.5 -24t-18.5 -20.5t-35 -6.5h-247q0 -54 32 -79.5t85 -25.5q52 0 99 31q17 11 32 11q19 0 33 -14
t14 -33q0 -22 -17 -37q-58 -55 -161 -55q-129 0 -180 82q-28 -40 -67 -61t-107 -21q-73 0 -118 41.5t-45 109.5q0 67 46.5 104t115.5 37h131v18q0 34 -24 54.5t-67 20.5zM218 77q42 0 72 25t30 65v28h-117q-68 0 -68 -57q0 -61 83 -61zM535 376q-45 0 -73 -25t-32 -72h198
q0 40 -23.5 68.5t-69.5 28.5zM505 562q0 -16 -11 -27t-27 -11h-173q-16 0 -27 11t-11 27t11 27t27 11h173q16 0 27 -11t11 -27z" />
    <glyph glyph-name="Aringacute" unicode="&#x1fa;" horiz-adv-x="624" 
d="M433 175h-242l-61 -145q-16 -38 -54 -38q-23 0 -40 17t-17 40q0 12 4 21l234 570q-51 22 -51 89q0 47 27 73t79 26t79 -26t27 -73q0 -67 -51 -89l234 -570q4 -9 4 -21q0 -23 -17 -40t-40 -17q-38 0 -54 38zM394 281l-82 210l-82 -210h164zM312 680q50 0 50 49t-50 49
t-50 -49t50 -49zM239 854q-25 23 -5 45l85 108q10 14 27.5 13t32.5 -16q16 -15 16.5 -32t-12.5 -28l-98 -90q-24 -21 -46 0z" />
    <glyph glyph-name="aringacute" unicode="&#x1fb;" horiz-adv-x="472" 
d="M229 372q-47 0 -100 -38q-14 -10 -30 -10q-19 0 -33 14t-14 33t13 33q58 64 164 64q93 0 145.5 -44t52.5 -123v-256q0 -22 -15.5 -37.5t-37.5 -15.5t-37.5 15.5t-15.5 37.5q-36 -58 -131 -58q-73 0 -118 41.5t-45 109.5q0 67 46.5 104t115.5 37h131v18q0 34 -24 54.5
t-67 20.5zM218 77q42 0 72 25t30 65v28h-117q-68 0 -68 -57q0 -61 83 -61zM234 539q50 0 50 49t-50 49t-50 -49t50 -49zM234 687q52 0 79 -26t27 -73t-27 -73t-79 -26t-79 26t-27 73t27 73t79 26zM165 709q-25 23 -5 45l85 108q10 14 27.5 13t32.5 -16q16 -15 16.5 -32
t-12.5 -28l-98 -90q-24 -21 -46 0z" />
    <glyph glyph-name="AEacute" unicode="&#x1fc;" horiz-adv-x="864" 
d="M296 291h105v166zM782 0h-323q-24 0 -41 16t-17 40v129h-168l-105 -166q-18 -27 -48 -27q-23 0 -40 17t-17 40q0 16 10 32l377 566q18 26 46 26h315q22 0 37 -15t15 -37t-15 -37t-37 -15h-254v-179h189q21 0 36 -15t15 -36t-15 -36t-36 -15h-189v-184h265q22 0 37 -15
t15 -37t-15 -37t-37 -15zM494 722q-25 23 -5 45l85 108q10 14 27.5 13t32.5 -16q16 -15 16.5 -32t-12.5 -28l-98 -90q-24 -21 -46 0z" />
    <glyph glyph-name="aeacute" unicode="&#x1fd;" horiz-adv-x="760" 
d="M229 372q-47 0 -100 -38q-14 -10 -30 -10q-19 0 -33 14t-14 33t13 33q58 64 164 64q104 0 156 -54q56 54 150 54q60 0 102 -20.5t62 -54t28 -63.5t8 -61q0 -19 -1 -29t-6.5 -24t-18.5 -20.5t-35 -6.5h-247q0 -54 32 -79.5t85 -25.5q52 0 99 31q17 11 32 11q19 0 33 -14
t14 -33q0 -22 -17 -37q-58 -55 -161 -55q-129 0 -180 82q-28 -40 -67 -61t-107 -21q-73 0 -118 41.5t-45 109.5q0 67 46.5 104t115.5 37h131v18q0 34 -24 54.5t-67 20.5zM218 77q42 0 72 25t30 65v28h-117q-68 0 -68 -57q0 -61 83 -61zM535 376q-45 0 -73 -25t-32 -72h198
q0 40 -23.5 68.5t-69.5 28.5zM317 514q-25 23 -5 45l85 108q10 14 27.5 13t32.5 -16q16 -15 16.5 -32t-12.5 -28l-98 -90q-24 -21 -46 0z" />
    <glyph glyph-name="Oslashacute" unicode="&#x1fe;" horiz-adv-x="702" 
d="M351 -14q153 0 235 88.5t82 261.5q0 154 -64 241l38 47q10 12 10 28q0 18 -13 31t-31 13q-21 0 -34 -16l-34 -42q-74 49 -189 49q-154 0 -235.5 -88t-81.5 -263q0 -155 65 -241l-40 -49q-10 -12 -10 -28q0 -18 13 -31t31 -13q21 0 34 16l36 44q73 -48 188 -48zM351 583
q72 0 118 -33l-291 -358q-24 57 -24 144q0 247 197 247zM351 90q-73 0 -117 32l290 357q24 -57 24 -143q0 -246 -197 -246zM296 722q-25 23 -5 45l85 108q10 14 27.5 13t32.5 -16q16 -15 16.5 -32t-12.5 -28l-98 -90q-24 -21 -46 0z" />
    <glyph glyph-name="oslashacute" unicode="&#x1ff;" horiz-adv-x="497" 
d="M467 227q0 -120 -57.5 -180t-161.5 -60q-85 0 -139 39l-21 -22q-12 -12 -29 -12t-28.5 12t-11.5 28t12 28l27 28q-29 55 -29 139q0 120 57.5 180.5t161.5 60.5q82 0 135 -37l25 26q12 12 29 12t28.5 -11.5t11.5 -28.5q0 -16 -12 -28l-29 -31q31 -57 31 -143zM358 227
q0 28 -5 56l-173 -182q26 -22 68 -22q110 0 110 148zM138 227q0 -30 4 -50l170 179q-26 20 -64 20q-110 0 -110 -149zM200 514q-25 23 -5 45l85 108q10 14 27.5 13t32.5 -16q16 -15 16.5 -32t-12.5 -28l-98 -90q-24 -21 -46 0z" />
    <glyph glyph-name="Scommaaccent" unicode="&#x218;" horiz-adv-x="573" 
d="M430 530q-55 53 -140 53q-58 0 -86 -23t-28 -56q0 -30 27 -52t67.5 -33.5t88 -30t88 -39.5t67.5 -63.5t27 -101.5q0 -93 -64.5 -145.5t-186.5 -52.5q-85 0 -153.5 35.5t-99.5 86.5q-8 13 -8 28q0 22 15.5 38t37.5 16t44 -22q76 -76 164 -76q135 0 135 92q0 29 -20 50.5
t-52.5 35t-71.5 25.5t-77.5 28t-71 37.5t-52.5 58t-20 85.5q0 80 58.5 131.5t171.5 51.5q75 0 136 -25.5t91 -68.5q10 -15 10 -32q0 -22 -16 -37.5t-38 -15.5q-19 0 -43 22zM292 -39q52 0 52 -53q0 -57 -25 -104.5t-59 -73.5q-7 -5 -13 -5q-7 0 -12.5 5.5t-5.5 12.5
q0 8 6 14q33 33 33 72q0 16 -14.5 40t-14.5 39q0 53 53 53z" />
    <glyph glyph-name="scommaaccent" unicode="&#x219;" horiz-adv-x="425" 
d="M211 374q-59 0 -59 -38q0 -20 25.5 -33.5t61.5 -24t72 -25t61.5 -45.5t25.5 -77q0 -68 -51 -105t-132 -37q-59 0 -107 21.5t-70 48.5q-12 15 -12 31q0 20 14 34t34 14q16 0 31 -12q50 -41 110 -41q74 0 74 40q0 22 -25 36t-61.5 24t-72.5 24.5t-61 46t-25 78.5
q0 65 47 99.5t120 34.5q52 0 96 -17.5t66 -44.5q10 -13 10 -30q0 -20 -14.5 -34t-33.5 -14q-15 0 -34 14q-44 32 -90 32zM218 -39q52 0 52 -53q0 -57 -25 -104.5t-59 -73.5q-7 -5 -13 -5q-7 0 -12.5 5.5t-5.5 12.5q0 8 6 14q33 33 33 72q0 16 -14.5 40t-14.5 39q0 53 53 53z
" />
    <glyph glyph-name="dotlessj" unicode="&#x237;" 
d="M55 -8v416q0 22 15.5 38t38.5 16t38.5 -16t15.5 -38v-416q0 -67 -46 -112.5t-116 -45.5q-20 0 -35 15t-15 35t15 35t35 15q24 0 39 17t15 41z" />
    <glyph glyph-name="circumflex" unicode="&#x2c6;" horiz-adv-x="334" 
d="M167 657q13 0 23 -7l93 -62q18 -13 18 -33q0 -17 -11.5 -28t-27.5 -11q-14 0 -23 7l-72 50l-72 -50q-9 -7 -23 -7q-16 0 -27.5 11t-11.5 28q0 20 18 33l93 62q10 7 23 7z" />
    <glyph glyph-name="caron" unicode="&#x2c7;" horiz-adv-x="334" 
d="M167 516q-13 0 -23 7l-93 62q-18 13 -18 33q0 16 11.5 27.5t27.5 11.5q14 0 23 -7l72 -50l72 50q9 7 23 7q16 0 27.5 -11.5t11.5 -27.5q0 -20 -18 -33l-93 -62q-10 -7 -23 -7z" />
    <glyph glyph-name="breve" unicode="&#x2d8;" horiz-adv-x="327" 
d="M163 523q-62 0 -100 26.5t-38 80.5q0 15 10.5 25.5t25.5 10.5t25.5 -10.5t10.5 -25.5q0 -39 66 -39t66 39q0 15 10.5 25.5t25.5 10.5t25.5 -10.5t10.5 -25.5q0 -54 -38 -80.5t-100 -26.5z" />
    <glyph glyph-name="dotaccent" unicode="&#x2d9;" horiz-adv-x="288" 
d="M144 537q-52 0 -52 51q0 54 52 54t52 -54q0 -51 -52 -51z" />
    <glyph glyph-name="ring" unicode="&#x2da;" horiz-adv-x="277" 
d="M138 551q50 0 50 49t-50 49t-50 -49t50 -49zM138 699q52 0 79 -26t27 -73t-27 -73t-79 -26t-79 26t-27 73t27 73t79 26z" />
    <glyph glyph-name="ogonek" unicode="&#x2db;" horiz-adv-x="319" 
d="M259 -149q0 -14 -10 -22q-20 -17 -73 -17q-49 0 -83 21t-34 67q0 32 20.5 60.5t47.5 39.5h50q-54 -39 -54 -80q0 -46 62 -46q10 0 24 3.5t20 3.5q13 0 21.5 -8.5t8.5 -21.5z" />
    <glyph glyph-name="tilde" unicode="&#x2dc;" horiz-adv-x="393" 
d="M256 599q14 0 26 16q12 17 33 17q17 0 28 -11t11 -28q0 -10 -3 -16q-10 -24 -33.5 -38t-52.5 -14q-31 0 -73 17t-56 17t-26 -16q-12 -17 -33 -17q-17 0 -28 11t-11 28q0 10 3 16q10 24 33.5 38t52.5 14q30 0 71.5 -17t57.5 -17z" />
    <glyph glyph-name="hungarumlaut" unicode="&#x2dd;" horiz-adv-x="508" 
d="M110 514q-25 23 -5 45l85 108q10 14 27.5 13t32.5 -16q16 -15 16.5 -32t-12.5 -28l-98 -90q-24 -21 -46 0zM253 514q-25 23 -5 45l85 108q10 14 27.5 13t32.5 -16q16 -15 16.5 -32t-12.5 -28l-98 -90q-24 -21 -46 0z" />
    <glyph glyph-name="Wgrave" unicode="&#x1e80;" horiz-adv-x="838" 
d="M534 35l-115 410l-115 -410q-5 -19 -20.5 -31t-35.5 -12q-19 0 -34.5 11.5t-20.5 28.5l-171 573q-3 9 -3 18q0 24 17 41t41 17q22 0 36.5 -12.5t18.5 -27.5l117 -420l114 418q5 19 21 30.5t35 11.5t35 -11.5t21 -30.5l114 -418l117 420q4 15 18.5 27.5t36.5 12.5
q24 0 41 -17t17 -41q0 -9 -3 -18l-171 -573q-5 -17 -20.5 -28.5t-34.5 -11.5q-20 0 -35.5 12t-20.5 31zM492 722q-22 -21 -46 0l-98 90q-13 11 -12.5 28t16.5 32q15 15 32.5 16t27.5 -13l85 -108q20 -22 -5 -45z" />
    <glyph glyph-name="wgrave" unicode="&#x1e81;" horiz-adv-x="636" 
d="M381 30l-62 219l-62 -218q-5 -17 -19.5 -28t-32.5 -11q-37 0 -51 35l-137 357q-5 12 -5 24q0 22 16 38t38 16q38 0 51 -35l83 -246l67 242q4 16 17.5 27.5t34.5 11.5q19 0 33 -11t18 -25l67 -245l82 246q13 35 52 35q23 0 38.5 -15t15.5 -37q0 -9 -5 -21l-137 -363
q-12 -34 -50 -34q-18 0 -32.5 10.5t-19.5 27.5zM391 514q-22 -21 -46 0l-98 90q-13 11 -12.5 28t16.5 32q15 15 32.5 16t27.5 -13l85 -108q20 -22 -5 -45z" />
    <glyph glyph-name="Wacute" unicode="&#x1e82;" horiz-adv-x="838" 
d="M534 35l-115 410l-115 -410q-5 -19 -20.5 -31t-35.5 -12q-19 0 -34.5 11.5t-20.5 28.5l-171 573q-3 9 -3 18q0 24 17 41t41 17q22 0 36.5 -12.5t18.5 -27.5l117 -420l114 418q5 19 21 30.5t35 11.5t35 -11.5t21 -30.5l114 -418l117 420q4 15 18.5 27.5t36.5 12.5
q24 0 41 -17t17 -41q0 -9 -3 -18l-171 -573q-5 -17 -20.5 -28.5t-34.5 -11.5q-20 0 -35.5 12t-20.5 31zM346 722q-25 23 -5 45l85 108q10 14 27.5 13t32.5 -16q16 -15 16.5 -32t-12.5 -28l-98 -90q-24 -21 -46 0z" />
    <glyph glyph-name="wacute" unicode="&#x1e83;" horiz-adv-x="636" 
d="M381 30l-62 219l-62 -218q-5 -17 -19.5 -28t-32.5 -11q-37 0 -51 35l-137 357q-5 12 -5 24q0 22 16 38t38 16q38 0 51 -35l83 -246l67 242q4 16 17.5 27.5t34.5 11.5q19 0 33 -11t18 -25l67 -245l82 246q13 35 52 35q23 0 38.5 -15t15.5 -37q0 -9 -5 -21l-137 -363
q-12 -34 -50 -34q-18 0 -32.5 10.5t-19.5 27.5zM255 514q-25 23 -5 45l85 108q10 14 27.5 13t32.5 -16q16 -15 16.5 -32t-12.5 -28l-98 -90q-24 -21 -46 0z" />
    <glyph glyph-name="Wdieresis" unicode="&#x1e84;" horiz-adv-x="838" 
d="M534 35l-115 410l-115 -410q-5 -19 -20.5 -31t-35.5 -12q-19 0 -34.5 11.5t-20.5 28.5l-171 573q-3 9 -3 18q0 24 17 41t41 17q22 0 36.5 -12.5t18.5 -27.5l117 -420l114 418q5 19 21 30.5t35 11.5t35 -11.5t21 -30.5l114 -418l117 420q4 15 18.5 27.5t36.5 12.5
q24 0 41 -17t17 -41q0 -9 -3 -18l-171 -573q-5 -17 -20.5 -28.5t-34.5 -11.5q-20 0 -35.5 12t-20.5 31zM329 740q-50 0 -50 51q0 53 50 53t50 -53q0 -51 -50 -51zM510 740q-50 0 -50 51q0 53 50 53t50 -53q0 -51 -50 -51z" />
    <glyph glyph-name="wdieresis" unicode="&#x1e85;" horiz-adv-x="636" 
d="M381 30l-62 219l-62 -218q-5 -17 -19.5 -28t-32.5 -11q-37 0 -51 35l-137 357q-5 12 -5 24q0 22 16 38t38 16q38 0 51 -35l83 -246l67 242q4 16 17.5 27.5t34.5 11.5q19 0 33 -11t18 -25l67 -245l82 246q13 35 52 35q23 0 38.5 -15t15.5 -37q0 -9 -5 -21l-137 -363
q-12 -34 -50 -34q-18 0 -32.5 10.5t-19.5 27.5zM229 521q-50 0 -50 51q0 53 50 53t50 -53q0 -51 -50 -51zM410 521q-50 0 -50 51q0 53 50 53t50 -53q0 -51 -50 -51z" />
    <glyph glyph-name="Ygrave" unicode="&#x1ef2;" horiz-adv-x="554" 
d="M126 654l151 -237l151 237q17 27 49 27q24 0 41 -17t17 -41q0 -19 -9 -31l-191 -285v-257q0 -24 -17 -41t-41 -17t-41 17t-17 41v257l-191 285q-9 12 -9 31q0 24 17 41t41 17q32 0 49 -27zM346 722q-22 -21 -46 0l-98 90q-13 11 -12.5 28t16.5 32q15 15 32.5 16t27.5 -13
l85 -108q20 -22 -5 -45z" />
    <glyph glyph-name="ygrave" unicode="&#x1ef3;" horiz-adv-x="452" 
d="M43 -101q45 0 72 32t55 101l-154 355q-4 10 -4 21q0 22 16 38t38 16q37 0 50 -34l110 -278l110 278q13 34 50 34q22 0 38 -16t16 -38q0 -11 -4 -21l-186 -420q-75 -168 -207 -168q-22 0 -37 14t-15 36t15 36t37 14zM285 514q-22 -21 -46 0l-98 90q-13 11 -12.5 28
t16.5 32q15 15 32.5 16t27.5 -13l85 -108q20 -22 -5 -45z" />
    <glyph glyph-name="thinspace" unicode="&#x2009;" horiz-adv-x="15" 
 />
    <glyph glyph-name="endash" unicode="&#x2013;" horiz-adv-x="569" 
d="M485 282q0 -19 -13.5 -32.5t-32.5 -13.5h-309q-19 0 -32.5 13.5t-13.5 32.5t13.5 32.5t32.5 13.5h309q19 0 32.5 -13.5t13.5 -32.5z" />
    <glyph glyph-name="emdash" unicode="&#x2014;" horiz-adv-x="879" 
d="M795 282q0 -19 -13.5 -32.5t-32.5 -13.5h-619q-19 0 -32.5 13.5t-13.5 32.5t13.5 32.5t32.5 13.5h619q19 0 32.5 -13.5t13.5 -32.5z" />
    <glyph glyph-name="quoteleft" unicode="&#x2018;" horiz-adv-x="201" 
d="M94 386q-65 0 -65 67q0 71 31.5 130.5t73.5 91.5q8 6 16 6q9 0 15.5 -6.5t6.5 -15.5q0 -7 -6 -15l-22 -28.5t-13.5 -27.5t-6.5 -37t18 -48.5t18 -49.5q0 -67 -66 -67z" />
    <glyph glyph-name="quoteright" unicode="&#x2019;" horiz-adv-x="201" 
d="M107 681q65 0 65 -67q0 -71 -31.5 -130.5t-73.5 -91.5q-8 -6 -16 -6q-9 0 -15.5 6.5t-6.5 15.5q0 8 6 15l22 28.5t13.5 27.5t6.5 37q0 20 -18 49t-18 49q0 67 66 67z" />
    <glyph glyph-name="quotesinglbase" unicode="&#x201a;" horiz-adv-x="219" 
d="M107 124q65 0 65 -67q0 -71 -31.5 -130.5t-73.5 -91.5q-8 -6 -16 -6q-9 0 -15.5 6.5t-6.5 15.5q0 7 6 15l22 28.5t13.5 27.5t6.5 37t-18 49t-18 49q0 67 66 67z" />
    <glyph glyph-name="quotedblleft" unicode="&#x201c;" horiz-adv-x="364" 
d="M94 386q-65 0 -65 67q0 71 31.5 130.5t73.5 91.5q8 6 16 6q9 0 15.5 -6.5t6.5 -15.5q0 -7 -6 -15l-22 -28.5t-13.5 -27.5t-6.5 -37t18 -48.5t18 -49.5q0 -67 -66 -67zM257 386q-65 0 -65 67q0 71 31.5 130.5t73.5 91.5q8 6 16 6q9 0 15.5 -6.5t6.5 -15.5q0 -7 -6 -15
l-22 -28.5t-13.5 -27.5t-6.5 -37t18 -48.5t18 -49.5q0 -67 -66 -67z" />
    <glyph glyph-name="quotedblright" unicode="&#x201d;" horiz-adv-x="364" 
d="M270 681q65 0 65 -67q0 -71 -31.5 -130.5t-73.5 -91.5q-8 -6 -16 -6q-9 0 -15.5 6.5t-6.5 15.5q0 8 6 15l22 28.5t13.5 27.5t6.5 37q0 20 -18 49t-18 49q0 67 66 67zM107 681q65 0 65 -67q0 -71 -31.5 -130.5t-73.5 -91.5q-8 -6 -16 -6q-9 0 -15.5 6.5t-6.5 15.5
q0 8 6 15l22 28.5t13.5 27.5t6.5 37q0 20 -18 49t-18 49q0 67 66 67z" />
    <glyph glyph-name="quotedblbase" unicode="&#x201e;" horiz-adv-x="382" 
d="M270 124q65 0 65 -67q0 -71 -31.5 -130.5t-73.5 -91.5q-8 -6 -16 -6q-9 0 -15.5 6.5t-6.5 15.5q0 7 6 15l22 28.5t13.5 27.5t6.5 37t-18 49t-18 49q0 67 66 67zM107 124q65 0 65 -67q0 -71 -31.5 -130.5t-73.5 -91.5q-8 -6 -16 -6q-9 0 -15.5 6.5t-6.5 15.5q0 7 6 15
l22 28.5t13.5 27.5t6.5 37t-18 49t-18 49q0 67 66 67z" />
    <glyph glyph-name="dagger" unicode="&#x2020;" horiz-adv-x="455" 
d="M227 -150q-39 0 -39 38l-6 537h-84q-42 0 -42 46q0 45 42 45h83l-3 151q0 45 49 45t49 -45l-2 -151h82q42 0 42 -45q0 -46 -42 -46h-82l-9 -537q0 -38 -38 -38z" />
    <glyph glyph-name="daggerdbl" unicode="&#x2021;" horiz-adv-x="455" 
d="M274 425l-5 -169l5 -169h82q42 0 42 -46q0 -45 -42 -45h-82l2 -151q0 -45 -49 -45t-49 45l3 151h-83q-42 0 -42 45q0 46 42 46h84l6 169l-6 169h-84q-42 0 -42 46q0 45 42 45h83l-3 151q0 45 49 45t49 -45l-2 -151h82q42 0 42 -45q0 -46 -42 -46h-82z" />
    <glyph glyph-name="bullet" unicode="&#x2022;" horiz-adv-x="418" 
d="M209 149q-130 0 -130 130q0 136 130 136t130 -136q0 -130 -130 -130z" />
    <glyph glyph-name="perthousand" unicode="&#x2030;" horiz-adv-x="1120" 
d="M189 445q64 0 64 79t-64 79q-63 0 -63 -79t63 -79zM189 687q155 0 155 -163q0 -74 -37 -118.5t-118 -44.5q-80 0 -116.5 44.5t-36.5 118.5q0 163 153 163zM573 71q64 0 64 79t-64 79q-63 0 -63 -79t63 -79zM573 313q155 0 155 -163q0 -74 -37 -118.5t-118 -44.5
q-80 0 -116.5 44.5t-36.5 118.5q0 163 153 163zM535 681q20 0 34 -13.5t14 -32.5q0 -10 -5 -20l-314 -599q-14 -24 -42 -24q-20 0 -33.5 13t-13.5 33q0 11 5 21l314 597q10 25 41 25zM929 71q64 0 64 79t-64 79q-63 0 -63 -79t63 -79zM929 313q155 0 155 -163
q0 -74 -37 -118.5t-118 -44.5q-80 0 -116.5 44.5t-36.5 118.5q0 163 153 163z" />
    <glyph glyph-name="guilsinglleft" unicode="&#x2039;" horiz-adv-x="326" 
d="M46 212q0 14 11 27l154 177q13 15 30 15q16 0 27.5 -11.5t11.5 -27.5q0 -15 -10 -25l-141 -155l141 -155q10 -10 10 -25q0 -16 -11.5 -27.5t-27.5 -11.5q-17 0 -30 15l-154 177q-11 13 -11 27z" />
    <glyph glyph-name="guilsinglright" unicode="&#x203a;" horiz-adv-x="326" 
d="M280 212q0 -14 -11 -27l-154 -177q-13 -15 -30 -15q-16 0 -27.5 11.5t-11.5 27.5q0 15 10 25l141 155l-141 155q-10 10 -10 25q0 16 11.5 27.5t27.5 11.5q17 0 30 -15l154 -177q11 -13 11 -27z" />
    <glyph glyph-name="fraction" unicode="&#x2044;" horiz-adv-x="325" 
d="M6 49l235 605q11 27 39 27q18 0 30 -12.5t12 -29.5q0 -7 -3 -15l-235 -605q-10 -27 -39 -27q-17 0 -29.5 12.5t-12.5 29.5q0 8 3 15z" />
    <glyph glyph-name="zerosuperior" unicode="&#x2070;" horiz-adv-x="299" 
d="M149 441q56 0 56 90q0 91 -56 91q-55 0 -55 -91q0 -90 55 -90zM149 376q-130 0 -130 155q0 156 130 156q65 0 98 -37.5t33 -118.5t-33 -118t-98 -37z" />
    <glyph glyph-name="foursuperior" unicode="&#x2074;" horiz-adv-x="280" 
d="M219 690v-144h15q14 0 23 -9t9 -23t-9 -23t-23 -9h-15v-23q0 -15 -11 -26t-26 -11t-26 11t-11 26v23h-97q-14 0 -23.5 10t-9.5 23q0 11 7 20l129 175q14 17 31 17q15 0 26 -11t11 -26zM99 546h46v67z" />
    <glyph glyph-name="fivesuperior" unicode="&#x2075;" horiz-adv-x="272" 
d="M143 628q45 0 78 -24.5t33 -77.5q0 -51 -32 -79.5t-86 -28.5q-74 0 -103 49q-6 10 -6 19q0 14 9.5 23t22.5 9t29 -16q19 -19 48 -19q47 0 47 43t-47 43q-22 0 -43 -7.5t-27 -7.5q-14 0 -23 9t-9 23q0 7 2 15l15 93q6 28 34 28h128q14 0 24 -9.5t10 -23.5t-9.5 -22
t-24.5 -8h-106l-7 -37q18 6 43 6z" />
    <glyph glyph-name="sixsuperior" unicode="&#x2076;" horiz-adv-x="285" 
d="M156 623q47 0 76 -27.5t29 -72.5q0 -50 -33 -77t-85 -27q-60 0 -90 40.5t-30 109.5q0 82 33.5 121.5t92.5 39.5q53 0 81 -22q13 -11 13 -26q0 -14 -9.5 -23t-22.5 -9q-8 0 -20 6q-20 11 -40 11q-24 0 -39 -17t-15 -50q20 23 59 23zM140 482q46 0 46 43q0 17 -11 28.5
t-33 11.5q-15 0 -28.5 -8.5t-18.5 -19.5q0 -55 45 -55z" />
    <glyph glyph-name="sevensuperior" unicode="&#x2077;" horiz-adv-x="262" 
d="M57 456q0 38 16.5 69.5t35.5 48.5t35.5 39.5t16.5 44.5h-108q-13 0 -22.5 9t-9.5 23t9.5 23t22.5 9h154q13 0 22.5 -9t9.5 -23q0 -38 -11.5 -67t-27.5 -47t-32 -34t-27.5 -37.5t-11.5 -48.5q0 -15 -10.5 -25.5t-25.5 -10.5t-25.5 10.5t-10.5 25.5z" />
    <glyph glyph-name="eightsuperior" unicode="&#x2078;" horiz-adv-x="276" 
d="M138 419q-56 0 -87.5 24.5t-31.5 70.5q0 52 49 73q-39 18 -39 59q0 40 31 62t78 22t78 -22t31 -62q0 -41 -39 -59q49 -21 49 -73q0 -46 -31.5 -70.5t-87.5 -24.5zM138 671q-36 0 -36 -29q0 -28 36 -28t36 28q0 29 -36 29zM138 553q-44 0 -44 -35q0 -34 44 -34t44 34
q0 35 -44 35z" />
    <glyph glyph-name="ninesuperior" unicode="&#x2079;" horiz-adv-x="285" 
d="M128 526q-47 0 -76 27.5t-29 72.5q0 50 33 77t85 27q60 0 90 -40.5t30 -109.5q0 -82 -33.5 -121.5t-92.5 -39.5q-53 0 -81 22q-13 11 -13 26q0 13 9.5 22.5t22.5 9.5q8 0 20 -6q20 -11 40 -11q24 0 39 17t15 50q-20 -23 -59 -23zM144 667q-46 0 -46 -43q0 -17 11 -28.5
t33 -11.5q15 0 28.5 8.5t18.5 19.5q0 55 -45 55z" />
    <glyph glyph-name="zeroinferior" unicode="&#x2080;" horiz-adv-x="299" 
d="M149 -23q56 0 56 90q0 91 -56 91q-55 0 -55 -91q0 -90 55 -90zM149 -88q-130 0 -130 155q0 156 130 156q65 0 98 -37.5t33 -118.5t-33 -118t-98 -37z" />
    <glyph glyph-name="oneinferior" unicode="&#x2081;" horiz-adv-x="228" 
d="M144 -52q-15 0 -26 11t-11 26v169l-32 -20q-8 -4 -16 -4q-14 0 -24.5 10.5t-10.5 24.5q0 19 17 30l83 52q10 6 20 6q15 0 26 -11t11 -26v-231q0 -15 -11 -26t-26 -11z" />
    <glyph glyph-name="twoinferior" unicode="&#x2082;" horiz-adv-x="289" 
d="M45 212q13 17 40 29.5t56 12.5q53 0 85 -26.5t32 -68.5q0 -33 -23.5 -57.5t-52 -35.5t-52 -25t-23.5 -28h123q14 0 23 -9.5t9 -22.5t-9 -22.5t-23 -9.5h-167q-15 0 -25.5 10.5t-10.5 25.5q0 42 24.5 71.5t54 42t54 28t24.5 32.5q0 30 -43 30q-23 0 -51 -26q-10 -9 -22 -9
q-14 0 -23.5 10t-9.5 23q0 12 10 25z" />
    <glyph glyph-name="threeinferior" unicode="&#x2083;" horiz-adv-x="276" 
d="M174 139q38 0 58 -30.5t20 -63.5q0 -47 -30 -74.5t-89 -27.5q-38 0 -66 15.5t-40 30.5q-8 11 -8 22q0 13 9 22.5t22 9.5t23 -10q27 -27 60 -27q47 0 47 39t-38 39h-22q-12 0 -20.5 8.5t-8.5 20.5q0 13 12 26l43 45h-84q-14 0 -23 9t-9 23t9 23t23 9h141q13 0 22.5 -9
t9.5 -23q0 -13 -10 -24z" />
    <glyph glyph-name="fourinferior" unicode="&#x2084;" horiz-adv-x="280" 
d="M219 216v-144h15q14 0 23 -9t9 -23t-9 -23t-23 -9h-15v-23q0 -15 -11 -26t-26 -11t-26 11t-11 26v23h-97q-14 0 -23.5 10t-9.5 23q0 11 7 20l129 175q14 17 31 17q15 0 26 -11t11 -26zM99 72h46v67z" />
    <glyph glyph-name="fiveinferior" unicode="&#x2085;" horiz-adv-x="272" 
d="M143 152q45 0 78 -24.5t33 -77.5q0 -51 -32 -79.5t-86 -28.5q-74 0 -103 49q-6 10 -6 19q0 14 9.5 23t22.5 9t29 -16q19 -19 48 -19q47 0 47 43t-47 43q-22 0 -43 -7.5t-27 -7.5q-14 0 -23 9t-9 23q0 7 2 15l15 93q6 28 34 28h128q14 0 24 -9.5t10 -23.5t-9.5 -22
t-24.5 -8h-106l-7 -37q18 6 43 6z" />
    <glyph glyph-name="sixinferior" unicode="&#x2086;" horiz-adv-x="285" 
d="M156 147q47 0 76 -27.5t29 -72.5q0 -50 -33 -77t-85 -27q-60 0 -90 40.5t-30 109.5q0 82 33.5 121.5t92.5 39.5q53 0 81 -22q13 -11 13 -26q0 -14 -9.5 -23t-22.5 -9q-8 0 -20 6q-20 11 -40 11q-24 0 -39 -17t-15 -50q20 23 59 23zM140 6q46 0 46 43q0 17 -11 28.5
t-33 11.5q-15 0 -28.5 -8.5t-18.5 -19.5q0 -55 45 -55z" />
    <glyph glyph-name="seveninferior" unicode="&#x2087;" horiz-adv-x="262" 
d="M57 -18q0 38 16.5 69.5t35.5 48.5t35.5 39.5t16.5 44.5h-108q-13 0 -22.5 9t-9.5 23t9.5 23t22.5 9h154q13 0 22.5 -9t9.5 -23q0 -38 -11.5 -67t-27.5 -47t-32 -34t-27.5 -37.5t-11.5 -48.5q0 -15 -10.5 -25.5t-25.5 -10.5t-25.5 10.5t-10.5 25.5z" />
    <glyph glyph-name="eightinferior" unicode="&#x2088;" horiz-adv-x="276" 
d="M138 -57q-56 0 -87.5 24.5t-31.5 70.5q0 52 49 73q-39 18 -39 59q0 40 31 62t78 22t78 -22t31 -62q0 -41 -39 -59q49 -21 49 -73q0 -46 -31.5 -70.5t-87.5 -24.5zM138 195q-36 0 -36 -29q0 -28 36 -28t36 28q0 29 -36 29zM138 77q-44 0 -44 -35q0 -34 44 -34t44 34
q0 35 -44 35z" />
    <glyph glyph-name="nineinferior" unicode="&#x2089;" horiz-adv-x="285" 
d="M128 50q-47 0 -76 27.5t-29 72.5q0 50 33 77t85 27q60 0 90 -40.5t30 -109.5q0 -82 -33.5 -121.5t-92.5 -39.5q-53 0 -81 22q-13 11 -13 26q0 13 9.5 22.5t22.5 9.5q8 0 20 -6q20 -11 40 -11q24 0 39 17t15 50q-20 -23 -59 -23zM144 191q-46 0 -46 -43q0 -17 11 -28.5
t33 -11.5q15 0 28.5 8.5t18.5 19.5q0 55 -45 55z" />
    <glyph glyph-name="Euro" unicode="&#x20ac;" horiz-adv-x="647" 
d="M288 223h-121q18 -70 61.5 -101.5t119.5 -31.5q55 0 90 14.5t71 51.5q22 22 43 22q22 0 38 -16t16 -38q0 -17 -10 -30q-37 -49 -103 -78.5t-145 -29.5q-257 0 -303 237h-17q-18 0 -30.5 12.5t-12.5 30.5t12.5 30.5t30.5 12.5h7v44h-7q-18 0 -30.5 12.5t-12.5 30.5
t12.5 30.5t30.5 12.5h16q45 248 304 248q166 0 240 -108q11 -17 11 -33q0 -22 -16 -37.5t-38 -15.5q-24 0 -41 20q-31 36 -67 53t-89 17q-148 0 -183 -144h123q18 0 30.5 -12.5t12.5 -30.5t-12.5 -30.5t-30.5 -12.5h-133v-44h133q18 0 30.5 -12.5t12.5 -30.5t-12.5 -30.5
t-30.5 -12.5z" />
    <glyph glyph-name="numero" unicode="&#x2116;" horiz-adv-x="1112" 
d="M618 681q24 0 41 -17t17 -41v-573q0 -24 -17 -41t-41 -17q-27 0 -45 21l-384 462v-425q0 -24 -17 -41t-41 -17t-41 17t-17 41v573q0 24 17 41t41 17q26 0 43 -19l386 -464v425q0 24 17 41t41 17zM907 347q57 0 57 82t-57 82q-58 0 -58 -82t58 -82zM907 77q-63 0 -63 59
q0 62 63 62q62 0 62 -62q0 -59 -62 -59zM907 257q-76 0 -118 43.5t-42 128.5t42 128.5t118 43.5q75 0 116.5 -43.5t41.5 -128.5t-41.5 -128.5t-116.5 -43.5z" />
    <glyph glyph-name="trademark" unicode="&#x2122;" horiz-adv-x="419" 
d="M43 652h123q19 0 19 -19q0 -8 -5.5 -13.5t-13.5 -5.5h-40v-126q0 -8 -6.5 -14.5t-14.5 -6.5q-9 0 -15 6.5t-6 14.5v126h-41q-8 0 -13.5 5.5t-5.5 13.5q0 19 19 19zM294 505q-10 0 -16 10l-28 52v-80q0 -8 -6 -14t-14 -6t-14 6t-6 14v148q0 8 6 14t14 6q11 0 18 -11
l46 -82l46 82q7 11 18 11q8 0 14 -6t6 -14v-148q0 -8 -6 -14t-14 -6t-14 6t-6 14v80l-28 -52q-6 -10 -16 -10z" />
    <glyph glyph-name="minus" unicode="&#x2212;" horiz-adv-x="454" 
d="M454 218q0 -19 -13.5 -32.5t-32.5 -13.5h-362q-19 0 -32.5 13.5t-13.5 32.5t13.5 32.5t32.5 13.5h362q19 0 32.5 -13.5t13.5 -32.5z" />
    <glyph glyph-name="radical" unicode="&#x221a;" horiz-adv-x="560" 
d="M516 647l-216 -782q-5 -16 -18 -26t-30 -10q-32 0 -45 28l-161 347q-4 8 -4 20q0 21 14.5 35.5t35.5 14.5q32 0 46 -30l104 -239l178 671q3 14 16 25t32 11q21 0 35.5 -14.5t14.5 -35.5q0 -9 -2 -15z" />
    <glyph glyph-name="notequal" unicode="&#x2260;" horiz-adv-x="454" 
d="M454 131q0 -19 -13.5 -32.5t-32.5 -13.5h-248l-38 -56q-6 -8 -16 -8q-8 0 -14 6t-6 14q0 7 4 12l22 32h-66q-19 0 -32.5 13.5t-13.5 32.5t13.5 32.5t32.5 13.5h129l55 81h-184q-19 0 -32.5 13.5t-13.5 32.5t13.5 32.5t32.5 13.5h247l39 57q6 8 16 8q8 0 14 -6t6 -14
q0 -6 -4 -12l-23 -33h67q19 0 32.5 -13.5t13.5 -32.5t-13.5 -32.5t-32.5 -13.5h-130l-55 -81h185q19 0 32.5 -13.5t13.5 -32.5z" />
    <glyph glyph-name="lessequal" unicode="&#x2264;" horiz-adv-x="363" 
d="M363 46q0 -19 -13.5 -32.5t-32.5 -13.5h-271q-19 0 -32.5 13.5t-13.5 32.5t13.5 32.5t32.5 13.5h271q19 0 32.5 -13.5t13.5 -32.5zM0 308q0 26 24 40l270 142q12 6 23 6q19 0 32.5 -13.5t13.5 -32.5q0 -28 -24 -40l-202 -102l202 -102q24 -12 24 -40q0 -19 -13.5 -32.5
t-32.5 -13.5q-11 0 -23 6l-270 142q-24 14 -24 40z" />
    <glyph glyph-name="greaterequal" unicode="&#x2265;" horiz-adv-x="363" 
d="M0 46q0 19 13.5 32.5t32.5 13.5h271q19 0 32.5 -13.5t13.5 -32.5t-13.5 -32.5t-32.5 -13.5h-271q-19 0 -32.5 13.5t-13.5 32.5zM363 308q0 -26 -24 -40l-270 -142q-12 -6 -23 -6q-19 0 -32.5 13.5t-13.5 32.5q0 28 24 40l202 102l-202 102q-24 12 -24 40q0 19 13.5 32.5
t32.5 13.5q11 0 23 -6l270 -142q24 -14 24 -40z" />
    <glyph glyph-name="commaaccent" unicode="&#xf6c3;" horiz-adv-x="146" 
d="M78 -39q52 0 52 -53q0 -57 -25 -104.5t-59 -73.5q-7 -5 -13 -5q-7 0 -12.5 5.5t-5.5 12.5q0 8 6 14q33 33 33 72q0 16 -14.5 40t-14.5 39q0 53 53 53z" />
    <glyph glyph-name="s_t" unicode="&#xfb06;" horiz-adv-x="721" 
d="M211 374q-59 0 -59 -38q0 -20 25.5 -33.5t61.5 -24t72 -25t61.5 -45.5t25.5 -77q0 -68 -51 -105t-132 -37q-59 0 -107 21.5t-70 48.5q-12 15 -12 31q0 20 14 34t34 14q16 0 31 -12q50 -41 110 -41q74 0 74 40q0 22 -25 36t-61.5 24t-72.5 24.5t-61 46t-25 78.5
q0 65 47 99.5t120 34.5q55 0 103 -20q-62 57 -62 118q0 53 42.5 87t108.5 34q100 0 151.5 -46.5t51.5 -130.5v-56h45q19 0 32 -13t13 -32t-13 -32t-32 -13h-45v-242q0 -16 11.5 -26t26.5 -10q20 0 33.5 -14t13.5 -33t-13.5 -33t-33.5 -14q-66 0 -105 38t-39 98v236h-23
q-19 0 -32 13t-13 32t13 32t32 13h23v55q0 88 -98 88q-37 0 -58 -19.5t-21 -50.5q0 -32 10.5 -55t39.5 -66q10 -15 10 -30q0 -20 -14.5 -34t-33.5 -14q-15 0 -34 14q-44 32 -90 32z" />
    <glyph glyph-name="zero.tab" horiz-adv-x="615" 
d="M308 87q77 0 112 59t35 191q0 131 -35 190.5t-112 59.5t-112.5 -60t-35.5 -190q0 -132 35.5 -191t112.5 -59zM308 687q134 0 197.5 -85.5t63.5 -264.5q0 -180 -63.5 -265.5t-197.5 -85.5q-135 0 -198.5 85.5t-63.5 265.5t63.5 265t198.5 85z" />
    <glyph glyph-name="one.tab" horiz-adv-x="615" 
d="M271 525l-107 -73q-14 -11 -33 -11q-23 0 -39 16.5t-16 38.5q0 31 24 46l193 127q19 12 35 12q23 0 40 -17t17 -40v-575q0 -23 -17 -40t-40 -17t-40 17t-17 40v476z" />
    <glyph glyph-name="two.tab" horiz-adv-x="615" 
d="M94 560q25 58 79.5 92.5t133.5 34.5q108 0 169.5 -56t61.5 -149q0 -50 -25.5 -95.5t-64.5 -77.5t-83.5 -63t-83.5 -53.5t-64.5 -46.5t-25.5 -44h307q21 0 36 -15t15 -36t-15 -36t-36 -15h-382q-21 0 -36 15t-15 36q0 61 37 110.5t89.5 84l105.5 67t90 75.5t37 94
q0 44 -31 74.5t-86 30.5q-80 0 -114 -72q-17 -32 -50 -32q-23 0 -38.5 15.5t-15.5 38.5q0 12 5 23z" />
    <glyph glyph-name="three.tab" horiz-adv-x="615" 
d="M354 571h-201q-21 0 -36 15t-15 36t15 36t36 15h320q21 0 36 -15t15 -36q0 -20 -13 -34l-146 -165q98 -11 141 -71t43 -149q0 -104 -62.5 -160t-183.5 -56q-74 0 -134.5 31t-94.5 80q-9 14 -9 30q0 22 15.5 37.5t37.5 15.5q25 0 48 -26q59 -68 137 -68q66 0 99 30.5
t33 85.5q0 120 -119 120h-62q-23 0 -38.5 15t-15.5 37q0 19 13 35z" />
    <glyph glyph-name="four.tab" horiz-adv-x="615" 
d="M474 246h35q21 0 36 -15t15 -36t-15 -36t-36 -15h-35v-95q0 -23 -17 -40t-40 -17t-40 17t-17 40v95h-254q-21 0 -36 15t-15 36q0 15 9 28l305 431q19 26 48 26q23 0 40 -17t17 -40v-377zM202 246h158v230z" />
    <glyph glyph-name="five.tab" horiz-adv-x="615" 
d="M308 463q115 0 181.5 -59.5t66.5 -178.5q0 -120 -66.5 -179.5t-181.5 -59.5q-86 0 -149.5 40t-93.5 95q-7 13 -7 26q0 22 15.5 37.5t37.5 15.5q28 0 47 -28q30 -45 64 -65.5t86 -20.5q61 0 97.5 35.5t36.5 103.5t-36.5 103t-97.5 35q-72 0 -127 -40q-29 -20 -48 -20
q-22 0 -38 15.5t-16 37.5q0 7 2 17l50 259q3 16 16.5 28.5t33.5 12.5h300q21 0 36 -15t15 -36t-15 -36t-36 -15h-261l-26 -131q48 23 114 23z" />
    <glyph glyph-name="six.tab" horiz-adv-x="615" 
d="M322 448q108 0 173 -59.5t65 -168.5q0 -118 -68.5 -176t-184.5 -58q-128 0 -190.5 90.5t-62.5 245.5q0 365 268 365q59 0 104.5 -16.5t69.5 -40.5q17 -17 17 -38t-15.5 -36.5t-36.5 -15.5q-15 0 -32 11q-53 36 -107 36q-75 0 -114 -51.5t-39 -147.5q58 60 153 60zM307 87
q139 0 139 133q0 62 -37 94.5t-95 32.5q-95 0 -143 -84q0 -83 35.5 -129.5t100.5 -46.5z" />
    <glyph glyph-name="seven.tab" horiz-adv-x="615" 
d="M155 46q0 76 28 148.5t68 126.5t80 100t68 85t28 65h-303q-21 0 -36 15t-15 36t15 36t36 15h366q21 0 36 -15t15 -36q0 -57 -28 -112t-68.5 -102.5l-81 -98t-68.5 -118.5t-28 -145q0 -23 -16.5 -38.5t-39.5 -15.5t-39.5 15.5t-16.5 38.5z" />
    <glyph glyph-name="eight.tab" horiz-adv-x="615" 
d="M307 -14q-122 0 -187 54.5t-65 160.5q0 113 113 167q-35 19 -58 54t-23 80q0 89 57.5 137t162.5 48t162.5 -48t57.5 -137q0 -45 -23 -80t-58 -54q113 -54 113 -167q0 -106 -65 -160.5t-187 -54.5zM307 587q-51 0 -79.5 -22t-28.5 -63q0 -43 28.5 -65t79.5 -22t79.5 22
t28.5 65q0 41 -28.5 63t-79.5 22zM307 315q-65 0 -101.5 -29t-36.5 -85t37.5 -85t100.5 -29t100.5 29t37.5 85t-36.5 85t-101.5 29z" />
    <glyph glyph-name="nine.tab" horiz-adv-x="615" 
d="M292 225q-108 0 -173 59.5t-65 168.5q0 118 68.5 176t184.5 58q128 0 190.5 -90.5t62.5 -245.5q0 -365 -268 -365q-59 0 -104.5 16.5t-69.5 40.5q-17 17 -17 38t15.5 36.5t36.5 15.5q15 0 32 -11q53 -36 107 -36q75 0 114 51.5t39 147.5q-58 -60 -153 -60zM307 586
q-139 0 -139 -133q0 -62 37 -94.5t95 -32.5q95 0 143 84q0 83 -35.5 129.5t-100.5 46.5z" />
    <glyph glyph-name="ornament.A" horiz-adv-x="732" 
d="M578 687q51 0 86 -33t35 -83q0 -59 -43.5 -92t-110.5 -33q-37 0 -68 6q-21 -32 -56 -47q59 0 98 -31.5t39 -83.5q0 -44 -21 -71.5t-52 -36.5t-68 -15.5t-68 -10.5t-52 -20.5t-21 -45.5q0 -21 13.5 -33.5t35.5 -12.5q18 0 28 10.5t12 22.5t12 22.5t28 10.5q44 0 44 -45
q0 -21 -11.5 -36t-30.5 -22.5t-38 -11t-39 -3.5q-64 0 -114.5 30t-79.5 76.5t-44 97t-15 97.5q0 79 43 137t123 58q64 0 104 -44q-54 -35 -85 -64t-51 -73.5t-20 -102.5q0 -27 2 -40q2 -16 12 -16q9 0 9 17q0 5 -0.5 18.5t-0.5 20.5q0 70 35 117.5t103 89.5q46 28 67 55
q-59 15 -152 81q-12 9 -41 34.5t-52 39.5t-44 14q-18 0 -29 -11.5t-11 -29.5t11.5 -28.5t28.5 -10.5q13 0 33 20q8 6 17 6q11 0 18.5 -7.5t7.5 -18.5q0 -22 -26.5 -37t-53.5 -15q-38 0 -65 27t-27 64q0 38 27 65.5t65 27.5q54 0 122 -58q41 58 113 58q58 0 100 -42t42 -100
q0 -22 -7 -43q22 -4 50 -4q39 0 68.5 17.5t29.5 55.5q0 26 -18.5 45t-46.5 19q-12 0 -24.5 -6t-19.5 -6q-11 0 -18.5 7.5t-7.5 18.5q0 14 11 22q21 16 59 16zM440 510q6 16 6 35q0 34 -23.5 62t-62.5 28q-48 0 -71 -42q72 -57 151 -83z" />
    <glyph glyph-name="zero.onum" horiz-adv-x="608" 
d="M304 81q72 0 111 48.5t39 140.5t-39 140t-111 48t-111 -48t-39 -140t39 -140.5t111 -48.5zM304 -13q-119 0 -189.5 76.5t-70.5 206.5q0 129 70.5 205.5t189.5 76.5t189.5 -76.5t70.5 -205.5q0 -130 -70.5 -206.5t-189.5 -76.5z" />
    <glyph glyph-name="one.onum" horiz-adv-x="378" 
d="M190 402l-68 -47q-13 -10 -30 -10q-22 0 -37.5 14.5t-15.5 35.5q0 28 22 42l151 99q16 10 32 10q22 0 38 -15.5t16 -36.5v-448q0 -22 -16 -38t-38 -16t-38 16t-16 38v356z" />
    <glyph glyph-name="two.onum" horiz-adv-x="527" 
d="M57 436q22 50 73.5 83t127.5 33q97 0 154.5 -47t57.5 -117q0 -48 -33.5 -89t-81.5 -68.5t-96 -51t-81.5 -45t-33.5 -40.5h285q23 0 37.5 -11.5t14.5 -32.5t-15 -35.5t-37 -14.5h-342q-22 0 -37 14.5t-15 35.5q0 60 34 106t82 73t96 49.5t82 50t34 60.5q0 31 -27.5 50
t-77.5 19q-29 0 -51 -10.5t-33 -23t-25 -32.5q-17 -26 -45 -26q-20 0 -35.5 15.5t-15.5 35.5q0 10 4 19z" />
    <glyph glyph-name="three.onum" horiz-adv-x="553" 
d="M321 436h-201q-21 0 -36 15t-15 36t15 36t36 15h320q21 0 36 -15t15 -36q0 -20 -13 -34l-146 -165q98 -11 141 -71t43 -149q0 -104 -62.5 -160t-183.5 -56q-74 0 -134.5 31t-94.5 80q-9 13 -9 30q0 22 15.5 37.5t37.5 15.5q25 0 48 -26q59 -68 137 -68q66 0 99 30.5
t33 85.5q0 120 -119 120h-62q-23 0 -38.5 15t-15.5 37q0 19 13 35z" />
    <glyph glyph-name="four.onum" horiz-adv-x="553" 
d="M450 112h35q21 0 36 -15t15 -36t-15 -36t-36 -15h-35v-96q0 -23 -17 -40t-40 -17t-40 17t-17 40v96h-254q-21 0 -36 15t-15 36q0 15 9 28l305 431q19 26 48 26q23 0 40 -17t17 -40v-377zM178 112h158v230z" />
    <glyph glyph-name="five.onum" horiz-adv-x="579" 
d="M278 328q115 0 181.5 -59.5t66.5 -178.5q0 -120 -66.5 -179.5t-181.5 -59.5q-86 0 -149.5 40t-93.5 95q-7 13 -7 26q0 22 15.5 37.5t37.5 15.5q28 0 47 -28q30 -45 64 -65.5t86 -20.5q61 0 97.5 35.5t36.5 103.5t-36.5 103t-97.5 35q-72 0 -127 -40q-29 -20 -48 -20
q-22 0 -38 15.5t-16 37.5q0 7 2 17l50 259q3 16 16.5 28.5t33.5 12.5h300q21 0 36 -15t15 -36t-15 -36t-36 -15h-261l-26 -131q48 23 114 23z" />
    <glyph glyph-name="six.onum" horiz-adv-x="588" 
d="M309 446q108 0 173 -59.5t65 -167.5q0 -118 -68.5 -175.5t-184.5 -57.5q-128 0 -190.5 89.5t-62.5 244.5q0 361 268 361q59 0 104.5 -16.5t69.5 -40.5q17 -17 17 -38t-15.5 -36.5t-36.5 -15.5q-16 0 -32 11q-53 36 -107 36q-75 0 -114 -50t-39 -145q58 60 153 60zM294 87
q139 0 139 132q0 62 -37 94t-95 32q-95 0 -143 -84q0 -83 35.5 -128.5t100.5 -45.5z" />
    <glyph glyph-name="seven.onum" horiz-adv-x="502" 
d="M100 -89q0 76 28 148.5t68 126.5t80 100t68 85t28 65h-303q-21 0 -36 15t-15 36t15 36t36 15h366q21 0 36 -15t15 -36q0 -57 -28 -112t-68.5 -102.5l-81 -98t-68.5 -118.5t-28 -145q0 -23 -16.5 -38.5t-39.5 -15.5t-39.5 15.5t-16.5 38.5z" />
    <glyph glyph-name="eight.onum" horiz-adv-x="571" 
d="M287 -14q-122 0 -187 54t-65 159q0 112 113 166q-35 19 -58 53t-23 78q0 89 57.5 136.5t162.5 47.5t162.5 -47.5t57.5 -136.5q0 -44 -23 -78t-58 -53q113 -54 113 -166q0 -105 -65 -159t-187 -54zM287 580q-52 0 -80 -21.5t-28 -62.5q0 -84 108 -84t108 84q0 41 -28 62.5
t-80 21.5zM287 312q-66 0 -102 -29t-36 -84t37 -83.5t101 -28.5t101 28.5t37 83.5t-36 84t-102 29z" />
    <glyph glyph-name="nine.onum" horiz-adv-x="588" 
d="M279 92q-108 0 -173 59.5t-65 167.5q0 118 68.5 175.5t184.5 57.5q128 0 190.5 -89.5t62.5 -244.5q0 -361 -268 -361q-59 0 -104.5 16.5t-69.5 40.5q-17 17 -17 38t15.5 36.5t36.5 15.5q16 0 32 -11q53 -36 107 -36q75 0 114 50t39 145q-58 -60 -153 -60zM294 451
q-139 0 -139 -132q0 -62 37 -94t95 -32q95 0 143 84q0 83 -35.5 128.5t-100.5 45.5z" />
    <glyph glyph-name="hyphen.case" horiz-adv-x="378" 
d="M335 332q0 -19 -13.5 -32.5t-32.5 -13.5h-200q-19 0 -32.5 13.5t-13.5 32.5t13.5 32.5t32.5 13.5h200q19 0 32.5 -13.5t13.5 -32.5z" />
    <glyph glyph-name="parenleft.case" horiz-adv-x="315" 
d="M40 337q0 198 39 297.5t135 139.5q12 5 22 5q20 0 34.5 -14.5t14.5 -34.5q0 -32 -29 -45q-30 -13 -50 -37.5t-31 -51.5t-17 -73t-7 -83.5t-1 -102.5t1 -102.5t7 -83.5t17 -73t31 -51.5t50 -37.5q29 -13 29 -45q0 -20 -14.5 -34.5t-34.5 -14.5q-10 0 -22 5
q-96 40 -135 139.5t-39 297.5z" />
    <glyph glyph-name="parenright.case" horiz-adv-x="315" 
d="M275 337q0 -198 -39 -297.5t-135 -139.5q-12 -5 -22 -5q-20 0 -34.5 14.5t-14.5 34.5q0 32 29 45q30 13 50 37.5t31 51.5t17 73t7 83.5t1 102.5t-1 102.5t-7 83.5t-17 73t-31 51.5t-50 37.5q-29 13 -29 45q0 20 14.5 34.5t34.5 14.5q10 0 22 -5q96 -40 135 -139.5
t39 -297.5z" />
    <glyph glyph-name="bracketleft.case" horiz-adv-x="283" 
d="M256 -58q0 -20 -14 -33.5t-33 -13.5h-94q-24 0 -39.5 14.5t-15.5 37.5v780q0 22 15.5 37t39.5 15h94q19 0 33 -13.5t14 -33.5t-14 -33.5t-33 -13.5h-41v-696h41q19 0 33 -13.5t14 -33.5z" />
    <glyph glyph-name="bracketright.case" horiz-adv-x="283" 
d="M27 -58q0 20 13.5 33.5t33.5 13.5h41v696h-41q-20 0 -33.5 13.5t-13.5 33.5t13.5 33.5t33.5 13.5h94q24 0 39.5 -15t15.5 -37v-780q0 -23 -15.5 -37.5t-39.5 -14.5h-94q-20 0 -33.5 13.5t-13.5 33.5z" />
    <glyph glyph-name="braceleft.case" horiz-adv-x="358" 
d="M30 337q0 17 12.5 29.5t29.5 12.5q34 0 49.5 12.5t15.5 49.5q0 32 -8 97.5t-8 104.5q0 55 39.5 95.5t116.5 40.5q20 0 34.5 -14.5t14.5 -34.5t-14.5 -34.5t-34.5 -14.5q-47 0 -47 -47q0 -32 4.5 -85.5t4.5 -78.5q0 -55 -16 -86t-55 -47q39 -16 55 -47t16 -86
q0 -25 -4.5 -78.5t-4.5 -85.5q0 -47 47 -47q20 0 34.5 -14.5t14.5 -34.5t-14.5 -34.5t-34.5 -14.5q-77 0 -116.5 40.5t-39.5 95.5q0 39 8 104.5t8 97.5q0 37 -15.5 49.5t-49.5 12.5q-17 0 -29.5 12.5t-12.5 29.5z" />
    <glyph glyph-name="braceright.case" horiz-adv-x="358" 
d="M328 337q0 -17 -12.5 -29.5t-29.5 -12.5q-34 0 -49.5 -12.5t-15.5 -49.5q0 -32 8 -97.5t8 -104.5q0 -55 -39.5 -95.5t-116.5 -40.5q-20 0 -34.5 14.5t-14.5 34.5t14.5 34.5t34.5 14.5q47 0 47 47q0 32 -4.5 85.5t-4.5 78.5q0 55 16 86t55 47q-39 16 -55 47t-16 86
q0 25 4.5 78.5t4.5 85.5q0 47 -47 47q-20 0 -34.5 14.5t-14.5 34.5t14.5 34.5t34.5 14.5q77 0 116.5 -40.5t39.5 -95.5q0 -39 -8 -104.5t-8 -97.5q0 -37 15.5 -49.5t49.5 -12.5q17 0 29.5 -12.5t12.5 -29.5z" />
    <glyph glyph-name="guillemotleft.case" horiz-adv-x="521" 
d="M46 337q0 14 11 27l154 177q13 15 30 15q16 0 27.5 -11.5t11.5 -27.5q0 -15 -10 -25l-141 -155l141 -155q10 -10 10 -25q0 -16 -11.5 -27.5t-27.5 -11.5q-17 0 -30 15l-154 177q-11 13 -11 27zM241 337q0 14 11 27l154 177q14 15 30 15t27.5 -11.5t11.5 -27.5
q0 -15 -10 -25l-141 -155l141 -155q10 -10 10 -25q0 -16 -11.5 -27.5t-27.5 -11.5t-30 15l-154 177q-11 13 -11 27z" />
    <glyph glyph-name="guillemotright.case" horiz-adv-x="521" 
d="M475 337q0 -14 -11 -27l-154 -177q-14 -15 -30 -15t-27.5 11.5t-11.5 27.5q0 15 10 25l141 155l-141 155q-10 10 -10 25q0 16 11.5 27.5t27.5 11.5t30 -15l154 -177q11 -13 11 -27zM280 337q0 -14 -11 -27l-154 -177q-13 -15 -30 -15q-16 0 -27.5 11.5t-11.5 27.5
q0 15 10 25l141 155l-141 155q-10 10 -10 25q0 16 11.5 27.5t27.5 11.5q17 0 30 -15l154 -177q11 -13 11 -27z" />
    <glyph glyph-name="guilsinglleft.case" horiz-adv-x="326" 
d="M46 337q0 14 11 27l154 177q13 15 30 15q16 0 27.5 -11.5t11.5 -27.5q0 -15 -10 -25l-141 -155l141 -155q10 -10 10 -25q0 -16 -11.5 -27.5t-27.5 -11.5q-17 0 -30 15l-154 177q-11 13 -11 27z" />
    <glyph glyph-name="guilsinglright.case" horiz-adv-x="326" 
d="M280 337q0 -14 -11 -27l-154 -177q-13 -15 -30 -15q-16 0 -27.5 11.5t-11.5 27.5q0 15 10 25l141 155l-141 155q-10 10 -10 25q0 16 11.5 27.5t27.5 11.5q17 0 30 -15l154 -177q11 -13 11 -27z" />
    <glyph glyph-name="endash.case" horiz-adv-x="568" 
d="M485 332q0 -19 -13.5 -32.5t-32.5 -13.5h-309q-19 0 -32.5 13.5t-13.5 32.5t13.5 32.5t32.5 13.5h309q19 0 32.5 -13.5t13.5 -32.5z" />
    <glyph glyph-name="emdash.case" horiz-adv-x="879" 
d="M795 332q0 -19 -13.5 -32.5t-32.5 -13.5h-619q-19 0 -32.5 13.5t-13.5 32.5t13.5 32.5t32.5 13.5h619q19 0 32.5 -13.5t13.5 -32.5z" />
    <glyph glyph-name="periodcentered.case" horiz-adv-x="225" 
d="M113 262q-66 0 -66 65q0 67 66 67q65 0 65 -67q0 -65 -65 -65z" />
    <glyph glyph-name="questiondown.case" horiz-adv-x="453" 
d="M285 486q37 -36 37 -85q0 -42 -30.5 -75.5t-66.5 -52t-66.5 -48t-30.5 -64.5q0 -37 26.5 -57t74.5 -20q43 0 68.5 21.5t25.5 62.5q0 22 16.5 38.5t38.5 16.5t38.5 -16.5t16.5 -38.5q0 -86 -54 -134t-150 -48q-99 0 -154 45.5t-55 129.5q0 55 30 95.5t65.5 59t65.5 39
t30 39.5q0 10 -10 24q-9 14 -9 30q0 24 17 39t37 15q23 0 39 -16zM249 681q66 0 66 -65q0 -67 -66 -67q-65 0 -65 67q0 65 65 65z" />
    <glyph glyph-name="exclamdown.case" horiz-adv-x="212" 
d="M107 -8q-65 0 -62 56l18 398q2 38 44 38q40 0 42 -38l19 -398q3 -56 -61 -56zM107 681q65 0 65 -65q0 -67 -65 -67q-66 0 -66 67q0 65 66 65z" />
    <glyph glyph-name="bullet.case" horiz-adv-x="418" 
d="M209 207q-130 0 -130 130q0 136 130 136t130 -136q0 -130 -130 -130z" />
    <glyph glyph-name="dollar.onum" horiz-adv-x="491" 
d="M363 433q-45 56 -113 56q-89 0 -89 -59q0 -26 22.5 -44.5t56 -28.5t72.5 -25.5t72.5 -33.5t56 -54t22.5 -85q0 -71 -43 -115t-123 -54v-57q0 -19 -13.5 -33t-33.5 -14q-19 0 -32.5 14t-13.5 33v56q-54 6 -99.5 34.5t-69.5 65.5q-9 13 -9 29q0 22 15 37t36 15q26 0 43 -22
q45 -58 128 -58q105 0 105 69q0 32 -31 52.5t-75.5 34.5t-89 32t-75.5 56.5t-31 95.5q0 67 43 105.5t110 48.5v40q0 19 13.5 33t32.5 14q20 0 33.5 -13.5t13.5 -33.5v-41q40 -4 82.5 -28.5t66.5 -60.5q9 -12 9 -29q0 -21 -15 -36t-37 -15q-24 0 -40 19z" />
    <glyph glyph-name="cent.onum" horiz-adv-x="498" 
d="M22 264q0 120 52 186.5t144 79.5v61q0 19 13.5 33t32.5 14q20 0 33.5 -14t13.5 -33v-59q87 -12 141 -74q11 -15 11 -32q0 -21 -15 -36t-36 -15q-22 0 -38 17q-40 42 -106 42q-136 0 -136 -170q0 -178 136 -178q61 0 108 40q17 16 37 16q21 0 36 -15t15 -36q0 -18 -12 -33
q-9 -11 -24 -23.5t-48 -27.5t-69 -19v-55q0 -19 -13.5 -33t-33.5 -14q-19 0 -32.5 14t-13.5 33v56q-88 12 -142 83.5t-54 191.5z" />
    <glyph glyph-name="sterling.onum" horiz-adv-x="529" 
d="M305 226h-80q5 -20 5 -35q0 -63 -45 -98q29 15 62 15q25 0 59.5 -10t52.5 -10q25 0 51 28q18 19 41 19q22 0 37 -15t15 -37q0 -13 -6 -25q-37 -72 -132 -72q-27 0 -80.5 17.5t-80.5 17.5q-31 0 -70 -22q-16 -9 -30 -9q-24 0 -38 15t-14 34q0 25 25 43q53 39 53 92
q0 26 -8 52h-53q-19 0 -32 13t-13 32t13 32t32 13h11q-24 52 -24 96q0 70 54.5 122t152.5 52q77 0 129.5 -33.5t71.5 -84.5q5 -12 5 -22q0 -22 -14.5 -36.5t-36.5 -14.5q-32 0 -46 29q-32 68 -109 68q-47 0 -72.5 -22t-25.5 -58q0 -44 25 -96h115q19 0 32 -13t13 -32
t-13 -32t-32 -13z" />
    <glyph glyph-name="yen.onum" horiz-adv-x="554" 
d="M413 125h-78v-75q0 -24 -17 -41t-41 -17t-41 17t-17 41v75h-79q-16 0 -27.5 11.5t-11.5 28.5q0 16 11.5 28t27.5 12h79v39h-78q-16 0 -27.5 11.5t-11.5 28.5q0 16 11.5 28t27.5 12h15l-128 165q-9 12 -9 31q0 24 17 41t41 17q29 0 49 -27l151 -197l151 197q20 27 49 27
q24 0 41 -17t17 -41q0 -19 -9 -31l-129 -165h17q16 0 27.5 -11.5t11.5 -28.5t-11 -28.5t-28 -11.5h-79v-39h78q16 0 27.5 -11.5t11.5 -28.5t-11 -28.5t-28 -11.5z" />
    <glyph glyph-name="florin.onum" horiz-adv-x="478" 
d="M101 398h53l19 108q15 80 60 127t117 47q62 0 97 -26q20 -14 20 -38q0 -19 -13.5 -32.5t-32.5 -13.5q-9 0 -23 6q-23 10 -48 10q-55 0 -70 -81l-19 -107h66q19 0 32 -13t13 -32t-13 -32t-32 -13h-81l-58 -310q-37 -199 -213 -199q-42 0 -77 13q-32 12 -32 44
q0 20 13.5 34t32.5 14q6 0 18 -3q26 -7 45 -7q46 0 71.5 25.5t35.5 79.5l55 309h-36q-19 0 -32 13t-13 32t13 32t32 13z" />
    <glyph glyph-name="Euro.onum" horiz-adv-x="586" 
d="M328 186h-138q34 -105 153 -105q71 0 121 50q19 19 38 19q20 0 34.5 -14.5t14.5 -34.5q0 -17 -11 -30q-80 -84 -197 -84q-112 0 -177 54.5t-88 144.5h-23q-16 0 -27.5 11.5t-11.5 28.5q0 16 11.5 28t27.5 12h12v34h-12q-16 0 -27.5 11.5t-11.5 28.5q0 16 11.5 28t27.5 12
h22q22 92 87.5 148.5t178.5 56.5q66 0 118 -26.5t76 -56.5q11 -15 11 -31q0 -20 -14.5 -34t-34.5 -14t-37 17q-51 51 -119 51q-122 0 -155 -111h140q16 0 27.5 -11.5t11.5 -28.5t-11 -28.5t-28 -11.5h-152v-34h152q16 0 27.5 -11.5t11.5 -28.5t-11 -28.5t-28 -11.5z" />
    <glyph glyph-name="ampersand.salt1" horiz-adv-x="565" 
d="M263 84q53 0 87 18q-11 36 -78 96t-83 80q-48 -36 -48 -96q0 -48 34.5 -73t87.5 -25zM205 514q0 -50 21 -100q78 55 78 117q0 25 -11.5 41.5t-34.5 16.5q-53 0 -53 -75zM277 329q14 -20 67.5 -68.5t74.5 -82.5q12 19 12 45q0 45 -40 76q-23 17 -23 43q0 21 14 34.5
t34 13.5q14 0 27 -8q45 -26 67 -70t22 -87q0 -94 -65 -158q6 -25 6 -55q0 -34 -8 -65.5t-25.5 -61t-50.5 -47.5t-78 -18q-48 0 -82 20q-26 16 -26 45q0 21 15.5 36t37.5 15q10 0 27 -7t27 -7q24 0 41 17.5t17 45.5q0 7 -2 19q-54 -18 -103 -18q-99 0 -164.5 51.5
t-65.5 144.5q0 103 107 174q-43 73 -43 158q0 72 43.5 122.5t118.5 50.5t114 -45.5t39 -110.5q0 -99 -135 -202z" />
    <glyph glyph-name="ornament.B" horiz-adv-x="732" 
d="M591 681q39 0 66 -27t27 -65q0 -61 -58 -92t-127 -31l-19 1q2 -19 2 -45q0 -108 -68 -198t-146 -123q-6 -3 -6 -11q0 -10 11 -10q3 0 9 2q76 32 134 97t85 151q43 0 72.5 -30t29.5 -85q0 -93 -80.5 -158t-213.5 -65q-112 0 -186.5 55.5t-74.5 155.5q0 71 59 71
q43 0 43 -45q0 -19 -18 -36.5t-18 -30.5q0 -18 15 -32.5t34 -14.5q21 0 36.5 16t15.5 38q0 18 -18 73.5t-18 89.5q0 50 32 80t79 30q85 0 129 -78q8 22 8 68l-2 41q-68 13 -136.5 56t-92.5 102q-31 -2 -51.5 -20t-20.5 -45q0 -23 14.5 -35.5t38.5 -12.5q12 0 20 -8t8 -20
q0 -11 -8 -19.5t-20 -8.5q-44 0 -76.5 28t-32.5 76q0 57 45 89t108 32q77 0 148 -46.5t101 -120.5q14 -2 29 -2q57 0 93 21.5t36 49.5q0 15 -10.5 25.5t-26.5 10.5q-15 0 -25.5 -10.5t-10.5 -25.5q0 -11 -8 -19t-19 -8t-19 8t-8 19q0 38 25.5 65t64.5 27zM252 634
q29 -42 63.5 -63.5t89.5 -39.5q-23 38 -64 67.5t-89 35.5z" />
    <glyph glyph-name="slash.case" horiz-adv-x="422" 
d="M30 -13l261 739q13 35 51 35q22 0 38 -15.5t16 -38.5q0 -10 -4 -21l-261 -739q-13 -35 -51 -35q-22 0 -38 16t-16 38q0 10 4 21z" />
    <glyph glyph-name="backslash.case" horiz-adv-x="422" 
d="M131 726l261 -739q4 -11 4 -21q0 -22 -16 -38t-38 -16q-38 0 -51 35l-261 739q-4 11 -4 21q0 23 16 38.5t38 15.5q38 0 51 -35z" />
    <glyph glyph-name="bar.case" horiz-adv-x="220" 
d="M165 766v-858q0 -22 -16.5 -38.5t-38.5 -16.5t-38.5 16.5t-16.5 38.5v858q0 22 16.5 38.5t38.5 16.5t38.5 -16.5t16.5 -38.5z" />
    <glyph glyph-name="zero.numerator" horiz-adv-x="299" 
d="M149 441q56 0 56 90q0 91 -56 91q-55 0 -55 -91q0 -90 55 -90zM149 376q-130 0 -130 155q0 156 130 156q65 0 98 -37.5t33 -118.5t-33 -118t-98 -37z" />
    <glyph glyph-name="one.numerator" horiz-adv-x="228" 
d="M144 379q-15 0 -26 11t-11 26v169l-32 -20q-8 -4 -16 -4q-14 0 -24.5 10.5t-10.5 24.5q0 19 17 30l83 52q10 6 20 6q15 0 26 -11t11 -26v-231q0 -15 -11 -26t-26 -11z" />
    <glyph glyph-name="two.numerator" horiz-adv-x="289" 
d="M45 645q13 17 40 29.5t56 12.5q53 0 85 -26.5t32 -68.5q0 -33 -23.5 -57.5t-52 -35.5t-52 -25t-23.5 -28h123q14 0 23 -9t9 -23t-9 -23t-23 -9h-167q-15 0 -25.5 10.5t-10.5 25.5q0 42 24.5 71.5t54 42t54 28t24.5 32.5q0 30 -43 30q-23 0 -51 -26q-10 -9 -22 -9
q-14 0 -23.5 9.5t-9.5 23.5q0 12 10 25z" />
    <glyph glyph-name="three.numerator" horiz-adv-x="276" 
d="M174 572q38 0 58 -30.5t20 -63.5q0 -47 -30 -74.5t-89 -27.5q-38 0 -66 15.5t-40 30.5q-8 11 -8 22q0 13 9 22.5t22 9.5t23 -10q27 -27 60 -27q47 0 47 39t-38 39h-22q-12 0 -20.5 8.5t-8.5 20.5t12 26l43 45h-84q-14 0 -23 9.5t-9 22.5t9 22.5t23 9.5h141
q13 0 22.5 -9.5t9.5 -22.5t-10 -24z" />
    <glyph glyph-name="four.numerator" horiz-adv-x="280" 
d="M219 647v-144h15q14 0 23 -9.5t9 -22.5t-9 -22.5t-23 -9.5h-15v-23q0 -15 -11 -26t-26 -11t-26 11t-11 26v23h-97q-14 0 -23.5 9.5t-9.5 23.5q0 11 7 20l129 175q14 17 31 17q15 0 26 -11t11 -26zM99 503h46v67z" />
    <glyph glyph-name="five.numerator" horiz-adv-x="272" 
d="M143 586q45 0 78 -24.5t33 -77.5q0 -51 -32 -79.5t-86 -28.5q-74 0 -103 49q-6 10 -6 19q0 14 9.5 23t22.5 9t29 -16q19 -19 48 -19q47 0 47 43t-47 43q-22 0 -43 -7.5t-27 -7.5q-14 0 -23 9t-9 23q0 7 2 15l15 93q6 28 34 28h128q14 0 24 -9.5t10 -23.5t-9.5 -22
t-24.5 -8h-106l-7 -37q18 6 43 6z" />
    <glyph glyph-name="six.numerator" horiz-adv-x="285" 
d="M156 580q47 0 76 -27.5t29 -72.5q0 -50 -33 -77t-85 -27q-60 0 -90 40.5t-30 109.5q0 82 33.5 121.5t92.5 39.5q53 0 81 -22q13 -11 13 -26q0 -13 -9.5 -22.5t-22.5 -9.5q-8 0 -20 6q-20 11 -40 11q-24 0 -39 -17t-15 -50q20 23 59 23zM140 439q46 0 46 43q0 17 -11 28.5
t-33 11.5q-15 0 -28.5 -8.5t-18.5 -19.5q0 -55 45 -55z" />
    <glyph glyph-name="seven.numerator" horiz-adv-x="262" 
d="M57 415q0 38 16.5 69.5t35.5 48.5t35.5 39.5t16.5 44.5h-108q-13 0 -22.5 9.5t-9.5 22.5t9.5 22.5t22.5 9.5h154q13 0 22.5 -9.5t9.5 -22.5q0 -38 -11.5 -67t-27.5 -47t-32 -34t-27.5 -37.5t-11.5 -48.5q0 -15 -10.5 -25.5t-25.5 -10.5t-25.5 10.5t-10.5 25.5z" />
    <glyph glyph-name="eight.numerator" horiz-adv-x="276" 
d="M138 376q-56 0 -87.5 24.5t-31.5 70.5q0 52 49 73q-39 18 -39 59q0 40 31 62t78 22t78 -22t31 -62q0 -41 -39 -59q49 -21 49 -73q0 -46 -31.5 -70.5t-87.5 -24.5zM138 628q-36 0 -36 -29q0 -28 36 -28t36 28q0 29 -36 29zM138 510q-44 0 -44 -35q0 -34 44 -34t44 34
q0 35 -44 35z" />
    <glyph glyph-name="nine.numerator" horiz-adv-x="285" 
d="M129 483q-47 0 -76 27.5t-29 72.5q0 50 33 77t85 27q60 0 90 -40.5t30 -109.5q0 -82 -33.5 -121.5t-92.5 -39.5q-53 0 -81 22q-13 11 -13 26q0 14 9 23t23 9q8 0 20 -6q20 -11 40 -11q24 0 39 17t15 50q-20 -23 -59 -23zM145 624q-46 0 -46 -43q0 -17 11 -28.5t33 -11.5
q15 0 27.5 8.5t17.5 19.5q0 55 -43 55z" />
    <glyph glyph-name="zero.denominator" horiz-adv-x="299" 
d="M149 52q56 0 56 90q0 91 -56 91q-55 0 -55 -91q0 -90 55 -90zM149 -13q-130 0 -130 155q0 156 130 156q65 0 98 -37.5t33 -118.5t-33 -118t-98 -37z" />
    <glyph glyph-name="one.denominator" horiz-adv-x="228" 
d="M144 -8q-15 0 -26 11t-11 26v169l-32 -20q-8 -4 -16 -4q-14 0 -24.5 10.5t-10.5 24.5q0 19 17 30l83 52q10 6 20 6q15 0 26 -11t11 -26v-231q0 -15 -11 -26t-26 -11z" />
    <glyph glyph-name="two.denominator" horiz-adv-x="289" 
d="M45 263q13 17 40 29.5t56 12.5q53 0 85 -26.5t32 -68.5q0 -33 -23.5 -57.5t-52 -35.5t-52 -25t-23.5 -28h123q14 0 23 -9t9 -23t-9 -23t-23 -9h-167q-15 0 -25.5 10.5t-10.5 25.5q0 42 24.5 71.5t54 42t54 28t24.5 32.5q0 30 -43 30q-23 0 -51 -26q-11 -9 -22 -9
q-14 0 -23.5 9.5t-9.5 23.5q0 12 10 25z" />
    <glyph glyph-name="three.denominator" horiz-adv-x="276" 
d="M174 183q38 0 58 -30.5t20 -63.5q0 -47 -30 -74.5t-89 -27.5q-38 0 -66 15.5t-40 30.5q-8 11 -8 22q0 13 9 22.5t22 9.5t23 -10q27 -27 60 -27q47 0 47 39t-38 39h-22q-12 0 -20.5 8.5t-8.5 20.5q0 13 12 26l43 45h-84q-14 0 -23 9t-9 23t9 23t23 9h141q13 0 22.5 -9
t9.5 -23q0 -13 -10 -24z" />
    <glyph glyph-name="four.denominator" horiz-adv-x="280" 
d="M219 260v-144h15q14 0 23 -9t9 -23t-9 -23t-23 -9h-15v-23q0 -15 -11 -26t-26 -11t-26 11t-11 26v23h-97q-14 0 -23.5 10t-9.5 23q0 11 7 20l129 175q14 17 31 17q15 0 26 -11t11 -26zM99 116h46v67z" />
    <glyph glyph-name="five.denominator" horiz-adv-x="272" 
d="M143 196q45 0 78 -24.5t33 -77.5q0 -51 -32 -79.5t-86 -28.5q-74 0 -103 49q-6 10 -6 19q0 14 9.5 23t22.5 9t29 -16q19 -19 48 -19q47 0 47 43t-47 43q-22 0 -43 -7.5t-27 -7.5q-14 0 -23 9t-9 23q0 7 2 15l15 93q6 28 34 28h128q14 0 24 -9.5t10 -23.5t-9.5 -22
t-24.5 -8h-106l-7 -37q18 6 43 6z" />
    <glyph glyph-name="six.denominator" horiz-adv-x="285" 
d="M156 190q47 0 76 -27.5t29 -72.5q0 -50 -33 -77t-85 -27q-60 0 -90 40.5t-30 109.5q0 82 33.5 121.5t92.5 39.5q53 0 81 -22q13 -11 13 -26q0 -13 -9.5 -22.5t-22.5 -9.5q-8 0 -20 6q-20 11 -40 11q-24 0 -39 -17t-15 -50q20 23 59 23zM140 49q46 0 46 43q0 17 -11 28.5
t-33 11.5q-15 0 -28.5 -8.5t-18.5 -19.5q0 -55 45 -55z" />
    <glyph glyph-name="seven.denominator" horiz-adv-x="243" 
d="M57 26q0 38 16.5 69.5t35.5 48.5t35.5 39.5t16.5 44.5h-108q-13 0 -22.5 9t-9.5 23t9.5 23t22.5 9h154q13 0 22.5 -9t9.5 -23q0 -38 -11.5 -67t-27.5 -47t-32 -34t-27.5 -37.5t-11.5 -48.5q0 -15 -10.5 -25.5t-25.5 -10.5t-25.5 10.5t-10.5 25.5z" />
    <glyph glyph-name="eight.denominator" horiz-adv-x="276" 
d="M138 -14q-56 0 -87.5 24.5t-31.5 70.5q0 52 49 73q-39 18 -39 59q0 40 31 62t78 22t78 -22t31 -62q0 -41 -39 -59q49 -21 49 -73q0 -46 -31.5 -70.5t-87.5 -24.5zM138 238q-36 0 -36 -29q0 -28 36 -28t36 28q0 29 -36 29zM138 120q-44 0 -44 -35q0 -34 44 -34t44 34
q0 35 -44 35z" />
    <glyph glyph-name="nine.denominator" horiz-adv-x="285" 
d="M128 93q-47 0 -76 27.5t-29 72.5q0 50 33 77t85 27q60 0 90 -40.5t30 -109.5q0 -82 -33.5 -121.5t-92.5 -39.5q-53 0 -81 22q-13 11 -13 26q0 14 9.5 23t22.5 9q8 0 20 -6q20 -11 40 -11q24 0 39 17t15 50q-20 -23 -59 -23zM144 234q-46 0 -46 -43q0 -17 11 -28.5
t33 -11.5q15 0 28.5 8.5t18.5 19.5q0 55 -45 55z" />
    <glyph glyph-name="a.salt" horiz-adv-x="506" 
d="M461 408v-362q0 -22 -15.5 -38t-38.5 -16t-38.5 15.5t-15.5 37.5q-36 -58 -126 -58q-86 0 -142 61.5t-56 178.5t56.5 179t141.5 62q86 0 126 -61q0 23 15.5 39t38.5 16t38.5 -16t15.5 -38zM358 227q0 149 -110 149t-110 -149q0 -148 110 -148t110 148z" />
    <glyph glyph-name="aacute.salt" horiz-adv-x="506" 
d="M461 408v-362q0 -22 -15.5 -38t-38.5 -16t-38.5 15.5t-15.5 37.5q-36 -58 -126 -58q-86 0 -142 61.5t-56 178.5t56.5 179t141.5 62q86 0 126 -61q0 23 15.5 39t38.5 16t38.5 -16t15.5 -38zM358 227q0 149 -110 149t-110 -149q0 -148 110 -148t110 148zM200 514
q-25 23 -5 45l85 108q10 14 27.5 13t32.5 -16q16 -15 16.5 -32t-12.5 -28l-98 -90q-24 -21 -46 0z" />
    <glyph glyph-name="abreve.salt" horiz-adv-x="506" 
d="M461 408v-362q0 -22 -15.5 -38t-38.5 -16t-38.5 15.5t-15.5 37.5q-36 -58 -126 -58q-86 0 -142 61.5t-56 178.5t56.5 179t141.5 62q86 0 126 -61q0 23 15.5 39t38.5 16t38.5 -16t15.5 -38zM358 227q0 149 -110 149t-110 -149q0 -148 110 -148t110 148zM253 523
q-62 0 -100 26.5t-38 80.5q0 15 10.5 25.5t25.5 10.5t25.5 -10.5t10.5 -25.5q0 -39 66 -39t66 39q0 15 10.5 25.5t25.5 10.5t25.5 -10.5t10.5 -25.5q0 -54 -38 -80.5t-100 -26.5z" />
    <glyph glyph-name="acircumflex.salt" horiz-adv-x="506" 
d="M461 408v-362q0 -22 -15.5 -38t-38.5 -16t-38.5 15.5t-15.5 37.5q-36 -58 -126 -58q-86 0 -142 61.5t-56 178.5t56.5 179t141.5 62q86 0 126 -61q0 23 15.5 39t38.5 16t38.5 -16t15.5 -38zM358 227q0 149 -110 149t-110 -149q0 -148 110 -148t110 148zM250 657
q13 0 23 -7l93 -62q18 -13 18 -33q0 -17 -11 -28t-28 -11q-14 0 -23 7l-72 50l-72 -50q-9 -7 -23 -7q-17 0 -28 11t-11 28q0 20 18 33l93 62q10 7 23 7z" />
    <glyph glyph-name="adieresis.salt" horiz-adv-x="506" 
d="M461 408v-362q0 -22 -15.5 -38t-38.5 -16t-38.5 15.5t-15.5 37.5q-36 -58 -126 -58q-86 0 -142 61.5t-56 178.5t56.5 179t141.5 62q86 0 126 -61q0 23 15.5 39t38.5 16t38.5 -16t15.5 -38zM358 227q0 149 -110 149t-110 -149q0 -148 110 -148t110 148zM158 521
q-50 0 -50 51q0 53 50 53t50 -53q0 -51 -50 -51zM339 521q-50 0 -50 51q0 53 50 53t50 -53q0 -51 -50 -51z" />
    <glyph glyph-name="agrave.salt" horiz-adv-x="506" 
d="M461 408v-362q0 -22 -15.5 -38t-38.5 -16t-38.5 15.5t-15.5 37.5q-36 -58 -126 -58q-86 0 -142 61.5t-56 178.5t56.5 179t141.5 62q86 0 126 -61q0 23 15.5 39t38.5 16t38.5 -16t15.5 -38zM358 227q0 149 -110 149t-110 -149q0 -148 110 -148t110 148zM320 514
q-22 -21 -46 0l-98 90q-13 11 -12.5 28t16.5 32q15 15 32.5 16t27.5 -13l85 -108q20 -22 -5 -45z" />
    <glyph glyph-name="amacron.salt" horiz-adv-x="506" 
d="M461 408v-362q0 -22 -15.5 -38t-38.5 -16t-38.5 15.5t-15.5 37.5q-36 -58 -126 -58q-86 0 -142 61.5t-56 178.5t56.5 179t141.5 62q86 0 126 -61q0 23 15.5 39t38.5 16t38.5 -16t15.5 -38zM358 227q0 149 -110 149t-110 -149q0 -148 110 -148t110 148zM377 562
q0 -16 -11 -27t-27 -11h-173q-16 0 -27 11t-11 27t11 27t27 11h173q16 0 27 -11t11 -27z" />
    <glyph glyph-name="aogonek.salt" horiz-adv-x="506" 
d="M518 -149q0 -14 -10 -22q-20 -17 -73 -17q-49 0 -83 21t-34 67q0 31 18.5 58t44.5 40q-28 13 -28 47q-36 -58 -126 -58q-86 0 -142 61.5t-56 178.5t56.5 179t141.5 62q86 0 126 -61q0 23 15.5 39t38.5 16t38.5 -16t15.5 -38v-362q0 -28 -27 -48q-52 -38 -52 -78
q0 -46 62 -46q10 0 24 3.5t20 3.5q13 0 21.5 -8.5t8.5 -21.5zM358 227q0 149 -110 149t-110 -149q0 -148 110 -148t110 148z" />
    <glyph glyph-name="aring.salt" horiz-adv-x="506" 
d="M461 408v-362q0 -22 -15.5 -38t-38.5 -16t-38.5 15.5t-15.5 37.5q-36 -58 -126 -58q-86 0 -142 61.5t-56 178.5t56.5 179t141.5 62q86 0 126 -61q0 23 15.5 39t38.5 16t38.5 -16t15.5 -38zM358 227q0 149 -110 149t-110 -149q0 -148 110 -148t110 148zM253 551
q50 0 50 49t-50 49t-50 -49t50 -49zM253 699q52 0 79 -26t27 -73t-27 -73t-79 -26t-79 26t-27 73t27 73t79 26z" />
    <glyph glyph-name="aringacute.salt" horiz-adv-x="506" 
d="M461 408v-362q0 -22 -15.5 -38t-38.5 -16t-38.5 15.5t-15.5 37.5q-36 -58 -126 -58q-86 0 -142 61.5t-56 178.5t56.5 179t141.5 62q86 0 126 -61q0 23 15.5 39t38.5 16t38.5 -16t15.5 -38zM358 227q0 149 -110 149t-110 -149q0 -148 110 -148t110 148zM202 720
q-25 23 -5 45l85 108q10 14 27.5 13t32.5 -16q16 -15 16.5 -32t-12.5 -28l-98 -90q-24 -21 -46 0zM252 545q50 0 50 49t-50 49t-50 -49t50 -49zM252 693q52 0 79 -26t27 -73t-27 -73t-79 -26t-79 26t-27 73t27 73t79 26z" />
    <glyph glyph-name="atilde.salt" horiz-adv-x="506" 
d="M461 408v-362q0 -22 -15.5 -38t-38.5 -16t-38.5 15.5t-15.5 37.5q-36 -58 -126 -58q-86 0 -142 61.5t-56 178.5t56.5 179t141.5 62q86 0 126 -61q0 23 15.5 39t38.5 16t38.5 -16t15.5 -38zM358 227q0 149 -110 149t-110 -149q0 -148 110 -148t110 148zM316 599
q14 0 26 16q12 17 33 17q17 0 28 -11t11 -28q0 -10 -3 -16q-10 -24 -33.5 -38t-52.5 -14q-31 0 -73 17t-56 17t-26 -16q-12 -17 -33 -17q-17 0 -28 11t-11 28q0 10 3 16q10 24 33.5 38t52.5 14q30 0 71.5 -17t57.5 -17z" />
    <glyph glyph-name="c_t" horiz-adv-x="752" 
d="M531 454v55q0 88 -98 88q-37 0 -58 -19.5t-21 -50.5q0 -32 12 -57.5t43 -70.5q11 -17 11 -31q0 -20 -14 -34t-34 -14q-22 0 -37 17q-36 39 -89 39q-52 0 -80 -38.5t-28 -109.5q0 -72 28 -110.5t80 -38.5q45 0 99 40q14 10 30 10q20 0 34 -14t14 -34q0 -21 -17 -37
q-62 -57 -160 -57q-104 0 -160.5 60.5t-56.5 180.5t56.5 180t160.5 60q56 0 102 -23q-65 60 -65 121q0 53 42.5 87t108.5 34q100 0 151.5 -46.5t51.5 -130.5v-56h45q19 0 32 -13t13 -32t-13 -32t-32 -13h-45v-242q0 -16 11.5 -26t26.5 -10q19 0 33 -14t14 -33t-14 -33
t-33 -14q-66 0 -105 38t-39 98v236h-23q-19 0 -32 13t-13 32t13 32t32 13h23z" />
    <glyph glyph-name="at.case" horiz-adv-x="805" 
d="M399 457q-41 0 -80 -29q-11 -8 -24 -8q-15 0 -25.5 10.5t-10.5 25.5q0 17 9 26q47 51 131 51q72 0 113 -35t41 -96v-122q0 -19 12 -29t30 -10q77 0 77 121q0 124 -72.5 188.5t-196.5 64.5q-128 0 -200 -67t-72 -206q0 -141 72.5 -212.5t199.5 -71.5q125 0 204 47
q11 6 22 6q18 0 30.5 -12.5t12.5 -30.5q0 -26 -22 -38q-99 -56 -247 -56q-171 0 -267.5 95.5t-96.5 272.5q0 175 96 266t268 91q162 0 261.5 -87.5t99.5 -249.5q0 -36 -9 -69.5t-28 -65t-55 -51t-84 -19.5q-74 0 -102 56q-44 -56 -120 -56q-57 0 -92 32.5t-35 85.5
q0 52 36.5 80.5t90.5 28.5h103v14q0 27 -18.5 43t-51.5 16zM388 228q33 0 57 19t24 51v21h-92q-53 0 -53 -44q0 -47 64 -47z" />
    <glyph glyph-name="g.salt" horiz-adv-x="494" 
d="M233 -13q-97 0 -150 60.5t-53 180.5t55.5 180t158.5 60q94 0 150.5 -51.5t56.5 -148.5v-253q0 -216 -216 -216q-120 0 -175 66q-10 12 -10 29q0 20 14 34t34 14q14 0 32 -12q54 -39 105 -39q52 0 79.5 25.5t27.5 72.5v38q-40 -40 -109 -40zM343 130v138q0 51 -27.5 79.5
t-71.5 28.5q-107 0 -107 -148q0 -73 27.5 -111t79.5 -38q27 0 51.5 12.5t36.5 25.5z" />
    <glyph glyph-name="gcircumflex.salt" horiz-adv-x="494" 
d="M233 -13q-97 0 -150 60.5t-53 180.5t55.5 180t158.5 60q94 0 150.5 -51.5t56.5 -148.5v-253q0 -216 -216 -216q-120 0 -175 66q-10 12 -10 29q0 20 14 34t34 14q14 0 32 -12q54 -39 105 -39q52 0 79.5 25.5t27.5 72.5v38q-40 -40 -109 -40zM343 130v138q0 51 -27.5 79.5
t-71.5 28.5q-107 0 -107 -148q0 -73 27.5 -111t79.5 -38q27 0 51.5 12.5t36.5 25.5zM248 657q13 0 23 -7l93 -62q18 -13 18 -33q0 -17 -11 -28t-28 -11q-14 0 -23 7l-72 50l-72 -50q-9 -7 -23 -7q-17 0 -28 11t-11 28q0 20 18 33l93 62q10 7 23 7z" />
    <glyph glyph-name="gbreve.salt" horiz-adv-x="494" 
d="M233 -13q-97 0 -150 60.5t-53 180.5t55.5 180t158.5 60q94 0 150.5 -51.5t56.5 -148.5v-253q0 -216 -216 -216q-120 0 -175 66q-10 12 -10 29q0 20 14 34t34 14q14 0 32 -12q54 -39 105 -39q52 0 79.5 25.5t27.5 72.5v38q-40 -40 -109 -40zM343 130v138q0 51 -27.5 79.5
t-71.5 28.5q-107 0 -107 -148q0 -73 27.5 -111t79.5 -38q27 0 51.5 12.5t36.5 25.5zM250 523q-62 0 -100 26.5t-38 80.5q0 15 10.5 25.5t25.5 10.5t25.5 -10.5t10.5 -25.5q0 -39 66 -39t66 39q0 15 10.5 25.5t25.5 10.5t25.5 -10.5t10.5 -25.5q0 -54 -38 -80.5t-100 -26.5z
" />
    <glyph glyph-name="gdotaccent.salt" horiz-adv-x="494" 
d="M233 -13q-97 0 -150 60.5t-53 180.5t55.5 180t158.5 60q94 0 150.5 -51.5t56.5 -148.5v-253q0 -216 -216 -216q-120 0 -175 66q-10 12 -10 29q0 20 14 34t34 14q14 0 32 -12q54 -39 105 -39q52 0 79.5 25.5t27.5 72.5v38q-40 -40 -109 -40zM343 130v138q0 51 -27.5 79.5
t-71.5 28.5q-107 0 -107 -148q0 -73 27.5 -111t79.5 -38q27 0 51.5 12.5t36.5 25.5zM245 537q-52 0 -52 51q0 54 52 54t52 -54q0 -51 -52 -51z" />
    <glyph glyph-name="gcommaaccent.salt" horiz-adv-x="494" 
d="M233 -13q-97 0 -150 60.5t-53 180.5t55.5 180t158.5 60q94 0 150.5 -51.5t56.5 -148.5v-253q0 -216 -216 -216q-120 0 -175 66q-10 12 -10 29q0 20 14 34t34 14q14 0 32 -12q54 -39 105 -39q52 0 79.5 25.5t27.5 72.5v38q-40 -40 -109 -40zM343 130v138q0 51 -27.5 79.5
t-71.5 28.5q-107 0 -107 -148q0 -73 27.5 -111t79.5 -38q27 0 51.5 12.5t36.5 25.5zM240 519q-52 0 -52 53q0 57 25 104.5t59 73.5q7 5 13 5q7 0 12.5 -5.5t5.5 -12.5q0 -8 -6 -14q-33 -33 -33 -72q0 -16 14.5 -40t14.5 -39q0 -53 -53 -53z" />
    </font>
</defs>
</svg>
