<svg id="partner" xmlns="http://www.w3.org/2000/svg" viewBox="0 0 100 100">
  <defs>
    <style>
      .cls-1 {
        fill: #1377c9;
      }

      .cls-2 {
        fill: #ee3036;
      }
    </style>
  </defs>
  <title>ODRIindex_normal</title>
  <symbol id="logo_open_data_full" viewBox="0 20 290 60">
  <g id="logo">
    <path id="logo" fill="#1377c9" class="cls-1" d="M93.55,31.18a1.18,1.18,0,1,0-2.36,0V72.69h-8L73.57,57.55A14.07,14.07,0,0,0,69.41,30H58.83a1.18,1.18,0,0,0-1.19,1.18V73.76a1.19,1.19,0,0,0,2.38,0V32.37h9.39a11.73,11.73,0,0,1,3.33,23,2.24,2.24,0,0,0-1.6,2.17,2.31,2.31,0,0,0,.36,1.22l10,15.63a1.46,1.46,0,0,0,1.23.67H92a1.58,1.58,0,0,0,1.58-1.58Zm-41.87,14A12.15,12.15,0,0,0,39.53,33h-11V72.72h11A12.15,12.15,0,0,0,51.68,60.56ZM39.53,75.06H27.37a1.18,1.18,0,0,1-1.17-1.17V31.8a1.17,1.17,0,0,1,1.17-1.17H39.53A14.5,14.5,0,0,1,54,45.13V60.56A14.5,14.5,0,0,1,39.53,75.06Zm-28.1-8.53a3.74,3.74,0,1,0,0,7.48h5.36a3.74,3.74,0,1,0,0-7.48Zm10.23,3.74a4.88,4.88,0,0,1-4.87,4.87H11.43a4.87,4.87,0,0,1,0-9.74h5.36A4.88,4.88,0,0,1,21.66,70.27ZM7.88,58.62v2.79H15V58.62a3.56,3.56,0,1,0-7.12,0Zm8.25,0v2.79h4.78a.57.57,0,0,1,0,1.14H7.32A.58.58,0,0,1,6.75,62V58.62a4.69,4.69,0,1,1,9.38,0Zm5.34-15.21V50.5a.57.57,0,0,1-.56.56H7.31a.57.57,0,0,1-.56-.56V43.41a.57.57,0,0,1,1.13,0v6.52h5.33V44a.57.57,0,1,1,1.13,0v6h6V43.41a.54.54,0,0,1,.57-.56A.53.53,0,0,1,21.47,43.41Zm.1-12.27a.66.66,0,0,1-.36.54L9.34,38.86H20.91a.57.57,0,0,1,0,1.14H7.31c-.41,0-.66-.25-.66-.51A.68.68,0,0,1,7,38.94l11.88-7.18H7.31a.57.57,0,0,1,0-1.13h13.6C21.32,30.63,21.57,30.87,21.57,31.14Z"/>
    <g fill="#ee3036">
      <path class="cls-2" d="M111.57,72.85V31.37a1.18,1.18,0,0,1,1.18-1.18h0a1.17,1.17,0,0,1,1.17,1.18V72.85A1.17,1.17,0,0,1,112.75,74h0A1.17,1.17,0,0,1,111.57,72.85Z"/>
      <path class="cls-2" d="M150.31,74.41a1.14,1.14,0,0,1-1.17-1.17v-20a8.51,8.51,0,1,0-17,0v20a1.18,1.18,0,0,1-2.35,0v-20a10.86,10.86,0,0,1,21.72,0v20A1.14,1.14,0,0,1,150.31,74.41Z"/>
      <path class="cls-2" d="M170.27,75a10.87,10.87,0,0,1-10.86-10.86V53.28a10.86,10.86,0,0,1,19.37-6.75V31a1.18,1.18,0,1,1,2.35,0V64.14A10.88,10.88,0,0,1,170.27,75Zm8.51-21.72a8.51,8.51,0,1,0-17,0V64.14a8.51,8.51,0,1,0,17,0Z"/>
      <path class="cls-2" d="M209.59,58.56h-18.2v5.58c0,4.64,4.29,8.51,9.1,8.51,2.35,0,5.64-.94,7.11-3a1.14,1.14,0,0,1,1-.53,1.22,1.22,0,0,1,1.18,1.17c0,.53-.47,1-.77,1.35A11.73,11.73,0,0,1,200.49,75c-5.93,0-11.44-4.75-11.44-10.86V53.28a10.86,10.86,0,0,1,21.72,0v4.11A1.17,1.17,0,0,1,209.59,58.56Zm-1.17-5.28a8.52,8.52,0,0,0-17,0v2.94h17Z"/>
      <path class="cls-2" d="M237,74.41a1.15,1.15,0,0,1-1-.53l-8.57-13.32-8.57,13.32a1,1,0,0,1-.94.53,1.19,1.19,0,0,1-1-1.82L226,58.39l-8.74-13.56A1.19,1.19,0,0,1,218.34,43a1,1,0,0,1,.93.53l8.16,12.68,8.16-12.68a1.19,1.19,0,0,1,2,1.29l-8.75,13.56L238,72.59A1.17,1.17,0,0,1,237,74.41Z"/>
    </g>
  </g>
</symbol>
</svg>
