<?xml version="1.0" encoding="utf-8"?>
<!-- Generator: Adobe Illustrator 22.1.0, SVG Export Plug-In . SVG Version: 6.00 Build 0)  -->
<svg version="1.1" id="Layer_2_1_" xmlns="http://www.w3.org/2000/svg" xmlns:xlink="http://www.w3.org/1999/xlink" x="0px" y="0px"
	 viewBox="0 0 100 100" style="enable-background:new 0 0 100 100;" xml:space="preserve">
<style type="text/css">
	.st0{fill:#EE3036;}
	.st1{fill:#F3702B;}
	.st2{fill:#818285;}
	.st3{fill:#414447;}
	.st4{enable-background:new    ;}
</style>
<g id="payoff_x5F_ttf">
	<text transform="matrix(1 0 0 1 29.7466 507.5869)" style="font-family:'Variable-Black'; font-size:109.9418px;">Open</text>
	<text transform="matrix(1 0 0 1 365.7921 508.6867)" style="font-family:'Variable-Black'; font-size:109.9418px;">Data</text>
	<text transform="matrix(1 0 0 1 700.2478 507.9364)" style="font-family:'Variable-Black'; font-size:109.9418px;">for</text>
	<text transform="matrix(1 0 0 1 29.7466 640.543)" style="font-family:'Variable-Black'; font-size:109.9418px;">Resilience Index</text>
	<text transform="matrix(1 0 0 1 732.3064 704.0646)" style="font-family:'Variable-Black'; font-size:56.0275px;">beta</text>
</g>
<symbol id="logo_open_data_full" viewBox="-200 50 1100 60">
	<g id="logo">
		<path class="st0" fill="#EE3036" d="M-74.2,157.5c-46.4,0-84-37.6-84-84c0-25.9,11.7-49.1,30.2-64.5l19,20.4c-12.9,10.2-21.2,25.9-21.2,43.6
			c0,30.7,24.8,55.5,55.5,55.5s55.5-24.8,55.5-55.5S-44,17.5-74.7,17.5c-5.2,0-10.2,0.7-15,2.1L-99.9-6.5c8.1-2.6,16.7-4,25.7-4
			c46.4,0,84,37.6,84,84S-27.8,157.5-74.2,157.5z"/>
		<path class="st1" fill="#F3702B" d="M-130.2,73c0,18.1,8.6,34.1,22,44.2l-18.5,21.8c-19.2-15.4-31.5-39-31.5-65.6c0-25.9,11.7-49.1,30.2-64.5
			l19,20.4C-121.9,39.6-130.2,55.3-130.2,73z"/>
		<path class="st2" fill="#818285" d="M-56-17.8c-5.7-1.1-11.7-1.7-17.7-1.7c-51.6,0-93.5,41.9-93.5,93.5c0,39.8,24.9,73.9,60.1,87.3l-2.2,7.7
			c-38.5-14.4-65.8-51.5-65.8-95c0-56.1,45.4-101.5,101.5-101.5c6.8,0,13.5,0.7,19.9,2L-56-17.8z"/>
		<path class="st3" fill="#414447" d="M-88.7,166.3c4.9,0.8,9.9,1.2,15,1.2c51.6,0,93.5-41.9,93.5-93.5c0-21.4-7.2-41.2-19.4-56.9l2.1-1.5
			c12.7,16.3,20.3,36.7,20.3,59c0,53-43,96-96,96c-5.2,0-10.3-0.4-15.3-1.2L-88.7,166.3z"/>
		<path class="st3" fill="#414447" d="M-158.2-64.5l7-5l80,138L-158.2-64.5z"/>
	</g>
	<g id="payoff_x5F_outline">
		<g class="st4">
			<path d="M75.4,48.7c-15.8,0-28.6-12.8-28.6-28.6v-31.2c0-15.8,12.8-28.6,28.6-28.6c15.8,0,28.6,12.8,28.6,28.6v31.2
				C103.9,35.9,91.1,48.7,75.4,48.7z M75.3-32.7c-11.9,0-21.6,9.7-21.6,21.6v31.2c0,11.9,9.7,21.6,21.6,21.6S96.9,32,96.9,20.1
				v-31.2C96.9-23,87.2-32.7,75.3-32.7z"/>
			<path d="M124.6,69.6c-1.7,0-3.5-1.1-3.5-3.5V6.7c0-11.9,9.7-21.6,21.6-21.6s21.6,9.7,21.6,21.6V27c0,11.9-9.7,21.6-21.6,21.6
				c-4.1,0-8.4-1.6-11.3-4.2l-3.3-3v24.7C128.1,68.5,126.3,69.6,124.6,69.6z M142.7-7.9c-8.1,0-14.6,6.5-14.6,14.6V27
				c0,8.1,6.5,14.6,14.6,14.6c8,0,14.6-6.5,14.6-14.6V6.7C157.3-1.4,150.8-7.9,142.7-7.9z"/>
			<path d="M204.3,48.7c-11,0-22.7-8.7-22.7-21.6V6.8c0-11.9,9.7-21.6,21.6-21.6s21.6,9.7,21.6,21.6v7.7c0,0.9-0.3,1.7-0.9,2.3
				c-0.7,0.7-1.6,1.1-2.5,1.1h-32.8V27c0,7.8,7.3,14.6,15.7,14.6c5,0,9-1.6,12.1-4.8l0.1-0.1l0.1-0.2c0.8-1.1,1.6-1.6,2.7-1.6
				c1.9,0,3.7,1.7,3.7,3.5c0,0.7-0.2,1.3-0.7,2l-0.1,0.1l-0.1,0.1c0,0-0.3,0.6-1,1.3C217.2,46.3,211,48.7,204.3,48.7z M203.3-7.9
				c-8,0-14.6,6.5-14.6,14.6v4.2H218V4.7h-0.2C216.8-2.4,210.7-7.9,203.3-7.9z"/>
			<path d="M281.8,47.6c-1.7,0-3.5-1.1-3.5-3.5V6.7c0-8.1-6.5-14.6-14.6-14.6c-8.1,0-14.7,6.5-14.7,14.6v37.4c0,2.4-1.8,3.5-3.5,3.5
				c-1.7,0-3.5-1.1-3.5-3.5V6.7c0-11.9,9.7-21.6,21.6-21.6s21.6,9.7,21.6,21.6v37.4c0,1.1-0.3,1.9-0.8,2.5
				C283.7,47.2,282.8,47.6,281.8,47.6z"/>
		</g>
		<g class="st4">
			<path d="M388.5,48.7c-1.9,0-3.5-1.6-3.5-3.5V-34c0-1.9,1.6-3.5,3.5-3.5h22.9c15.8,0,28.6,12.8,28.6,28.6v29
				c0,15.8-12.8,28.6-28.6,28.6H388.5z M392,41.7h19.4c11.9,0,21.6-9.7,21.6-21.6v-29c0-11.9-9.7-21.6-21.6-21.6H392V41.7z"/>
			<path d="M475.7,49.8c-9.7,0-20.2-5.6-20.2-17.9c0-12.5,12-16.9,19.1-18.3l14.2-3V5.4c0-7.8-4.6-12.1-12.9-12.1
				c-5.3,0-8,2.5-10.1,4.4c-1.6,1.5-2.6,2.3-4.1,2.3c-2,0-3.5-1.5-3.5-3.5c0-1,0.5-2.1,1.5-3.1c3.9-4.5,9.8-7.1,16.2-7.1
				c12.1,0,19.9,7.5,19.9,19.1v25.4C495.8,43.1,485.4,49.8,475.7,49.8z M474.9,20.1c-9.1,1.9-12.4,7.2-12.4,11.7
				c0,6.7,5.1,11,13.1,11c7.6,0,13.2-5.1,13.2-12.1V17L474.9,20.1z"/>
			<path d="M537.1,49.8c-9.6,0-16.9-6.7-16.9-15.7V-5.7h-9.8c-2.4,0-3.5-1.8-3.5-3.5s1.1-3.5,3.5-3.5h9.8v-13.8
				c0-2.4,1.8-3.5,3.5-3.5c1.7,0,3.5,1.1,3.5,3.5v13.8h19.3c2.4,0,3.5,1.8,3.5,3.5s-1.1,3.5-3.5,3.5h-19.3v39.8
				c0,4.2,3.1,8.7,9.9,8.7c3.5,0,5.8-1.5,7.6-2.7c1.3-0.9,2.1-1.4,3-1.4c2.6,0,3.6,2.5,3.6,4c0,1.2-0.7,1.9-2.4,3.1
				C545.4,48.3,541.1,49.8,537.1,49.8z"/>
			<path d="M582.1,49.8c-9.7,0-20.2-5.6-20.2-17.9c0-12.5,12-16.9,19.1-18.3l14.2-3V5.4c0-7.8-4.6-12.1-12.9-12.1
				c-5.3,0-8,2.5-10.1,4.4c-1.6,1.5-2.6,2.3-4.1,2.3c-2,0-3.5-1.5-3.5-3.5c0-1,0.5-2.1,1.5-3.1c3.9-4.5,9.8-7.1,16.2-7.1
				c12.1,0,19.9,7.5,19.9,19.1v25.4C602.2,43.1,591.8,49.8,582.1,49.8z M581.3,20.1c-9.1,1.9-12.4,7.2-12.4,11.7
				c0,6.7,5.1,11,13.1,11c7.6,0,13.2-5.1,13.2-12.1V17L581.3,20.1z"/>
		</g>
		<g class="st4">
			<path d="M728.6,47.9c-1.7,0-3.5-1.1-3.5-3.5V-6.5h-9.8c-2.4,0-3.5-1.8-3.5-3.5s1.1-3.5,3.5-3.5h9.8v-10.1c0-9,7.3-15.7,16.9-15.7
				c7.8,0,11.3,3.2,11.3,6.4c0,1.5-0.9,3.1-2.6,3.1c-0.8,0-1.5-0.2-2.2-0.7c-1.9-1.2-4.3-1.8-6.5-1.8c-6.8,0-9.9,4.5-9.9,8.7v10.1
				h16.3c2.4,0,3.5,1.8,3.5,3.5s-1.1,3.5-3.5,3.5h-16.3v50.9C732.1,46.8,730.3,47.9,728.6,47.9z"/>
			<path d="M783.9,49c-11.9,0-21.6-9.7-21.6-21.6V7.1c0-11.9,9.7-21.6,21.6-21.6s21.6,9.7,21.6,21.6v20.3
				C805.5,39.3,795.8,49,783.9,49z M783.9-7.5c-8.1,0-14.6,6.5-14.6,14.6v20.3c0,8.1,6.5,14.6,14.6,14.6c8,0,14.6-6.5,14.6-14.6V7.1
				C798.5-1,792-7.5,783.9-7.5z"/>
			<path d="M826.8,47.9c-1.7,0-3.5-1.1-3.5-3.5V7.8c0-10.3,5.1-22.4,19.4-22.4c5,0,10.7,2.2,13.9,5.4c0.7,0.7,1,1.5,1,2.4
				c0,1.9-1.7,3.7-3.6,3.7c-0.9,0-1.8-0.4-2.6-1.2l-0.3-0.3L851-4.7c-2.3-1.9-5.4-2.9-8.3-2.9c-7.9,0-12.4,5.6-12.4,15.4v36.6
				C830.3,46.8,828.5,47.9,826.8,47.9z"/>
		</g>
		<g class="st4">
			<path d="M96.1,160.7c-0.4,0-1.9-0.1-2.8-1.6l-18.7-29.6H56V157c0,2.4-1.8,3.5-3.5,3.5c-1.7,0-3.5-1.1-3.5-3.5V77.9
				c0-1.9,1.6-3.5,3.5-3.5h19.6c15.2,0,27.6,12.3,27.6,27.5c0,10.8-6,20.3-15.8,24.9l-2.1,1l17.4,27.4c0.5,0.7,0.7,1.4,0.7,2
				C99.9,159,98,160.7,96.1,160.7z M70.1,122.4h2c11.4,0,20.6-9.2,20.6-20.5c0-11.4-9.2-20.6-20.6-20.6H56v41h14.1V122.4z"/>
			<path d="M138.1,161.7c-11,0-22.7-8.7-22.7-21.6v-20.3c0-12,9.7-21.8,21.6-21.8s21.6,9.7,21.6,21.6v7.7c0,0.9-0.3,1.8-1,2.5
				c-0.7,0.7-1.5,1.1-2.4,1.1h-32.8v9.1c0,7.8,7.3,14.6,15.7,14.6c5,0,9-1.6,12.1-4.8l0.1-0.1l0.1-0.2c0.8-1.1,1.6-1.6,2.7-1.6
				c1.9,0,3.7,1.7,3.7,3.5c0,0.7-0.2,1.3-0.7,2l-0.1,0.1l-0.1,0.1c0,0-0.3,0.6-1,1.3C151,159.3,144.8,161.7,138.1,161.7z
				 M137.1,105.1c-8,0-14.6,6.5-14.6,14.6v4.2h29.3v-6.2h-0.2C150.6,110.6,144.5,105.1,137.1,105.1z"/>
			<path d="M191.3,161.6c-5.9,0-13.5-2.6-16.9-7.6c-0.5-0.7-0.8-1.4-0.8-2.2c0-1.9,2-3.5,3.7-3.5c0.9,0,2,0.6,2.9,1.7
				c2.4,3,6.5,4.8,11.1,4.8c8.9,0,13.7-5.6,13.7-10.8c0-7.3-7.1-10.1-14-12.8c-8.3-3.2-16.9-6.6-16.9-17.3c0-10.9,9.3-15.9,18-15.9
				c6.5,0,13.6,3.7,16.9,8.8c0.4,0.6,0.6,1.2,0.6,2c0,1.9-1.7,3.5-3.7,3.5c-0.9,0-1.9-0.6-2.8-1.8c-2.6-3.6-6.4-5.6-10.9-5.6
				c-7.6,0-11,4.7-11,9.1c0,6,6.2,8.5,12.8,11.1c8.5,3.3,18.1,7.1,18.1,19C212,155.5,201.3,161.6,191.3,161.6z"/>
			<path d="M232.2,160.5c-1.7,0-3.5-1.1-3.5-3.5v-54.4c0-2.4,1.8-3.5,3.5-3.5c1.7,0,3.5,1.1,3.5,3.5V157
				C235.7,159.4,233.9,160.5,232.2,160.5z M232.2,85c-2.9,0-5.3-2.4-5.3-5.3c0.1-2.8,2.5-5.3,5.3-5.3c2.9,0,5.3,2.4,5.3,5.3
				S235.1,85,232.2,85z"/>
			<path d="M266.1,161.8c-0.4,0-0.9-0.1-1.4-0.3l-0.2,0c-0.2-0.1-0.8-0.3-1.7-0.9c-5.2-3.3-8.1-9.6-8.1-17.4V77.9
				c0-2.4,1.8-3.5,3.5-3.5c1.7,0,3.5,1.1,3.5,3.5v65.2c0,3.1,0.7,8.7,5.1,11.6l0.2,0.1l0.2,0.1c2,0.8,2.2,2.2,2.2,3
				C269.4,159.8,268.1,161.8,266.1,161.8z"/>
			<path d="M286.3,160.5c-1.7,0-3.5-1.1-3.5-3.5v-54.4c0-2.4,1.8-3.5,3.5-3.5c1.7,0,3.5,1.1,3.5,3.5V157
				C289.8,159.4,288,160.5,286.3,160.5z M286.3,85c-2.9,0-5.3-2.4-5.3-5.3c0.1-2.8,2.5-5.3,5.3-5.3c2.9,0,5.3,2.4,5.3,5.3
				S289.2,85,286.3,85z"/>
			<path d="M330.9,161.7c-11,0-22.7-8.7-22.7-21.6v-20.3c0-11.9,9.7-21.6,21.6-21.6s21.6,9.7,21.6,21.6v7.7c0,0.9-0.3,1.7-0.9,2.3
				c-0.7,0.7-1.6,1.1-2.5,1.1h-32.8v9.1c0,7.8,7.3,14.6,15.7,14.6c5,0,9-1.6,12.1-4.8l0.1-0.1l0.1-0.2c0.8-1.1,1.6-1.6,2.7-1.6
				c1.9,0,3.7,1.7,3.7,3.5c0,0.7-0.2,1.3-0.7,2l-0.1,0.1l-0.1,0.1c0,0-0.3,0.6-1,1.3C343.8,159.3,337.6,161.7,330.9,161.7z
				 M329.9,105.1c-8.1,0-14.6,6.5-14.6,14.6v4.2h29.3v-6.2h-0.2C343.4,110.6,337.3,105.1,329.9,105.1z"/>
			<path d="M408.5,160.5c-1.7,0-3.5-1.1-3.5-3.5v-37.4c0-8-6.5-14.6-14.6-14.6c-8.1,0-14.6,6.5-14.6,14.6V157c0,2.4-1.8,3.5-3.5,3.5
				c-1.7,0-3.5-1.1-3.5-3.5v-37.4c0-11.9,9.7-21.6,21.6-21.6s21.6,9.7,21.6,21.6V157C412,159.6,410.1,160.5,408.5,160.5z"/>
			<path d="M450.7,161.6c-12.4,0-21-7.9-21-19.1v-25.4c0-11.4,8.4-19.1,21-19.1c6.3,0,14.5,2.8,18,8.1c0.6,0.8,0.8,1.4,0.8,2.1
				c0,1.9-2,3.5-3.7,3.5c-1.2,0-2.2-1-2.8-1.8c-2.4-3.1-6.9-4.9-12.3-4.9c-8.5,0-14,4.7-14,12.1v25.4c0,5.8,3.7,12.1,14,12.1
				c5,0,9-1.6,12.1-4.8l0.1-0.1l0.1-0.2c0.8-1.1,1.6-1.6,2.7-1.6c1.9,0,3.7,1.7,3.7,3.5c0,0.6-0.2,1.2-0.8,2.1
				C465.1,158.6,458.4,161.6,450.7,161.6z"/>
			<path d="M507.7,161.7c-11,0-22.7-8.7-22.7-21.6v-20.3c0-11.9,9.7-21.6,21.6-21.6s21.6,9.7,21.6,21.6v7.7c0,0.9-0.3,1.7-0.9,2.3
				c-0.7,0.7-1.6,1.1-2.5,1.1H492v9.1c0,7.8,7.3,14.6,15.7,14.6c5,0,9-1.6,12.1-4.8l0.1-0.1l0.1-0.2c0.8-1.1,1.6-1.6,2.7-1.6
				c1.9,0,3.7,1.7,3.7,3.5c0,0.7-0.2,1.3-0.7,2l-0.1,0.1l-0.1,0.1c0,0-0.3,0.6-1,1.3C520.6,159.3,514.4,161.7,507.7,161.7z
				 M506.7,105.1c-8.1,0-14.6,6.5-14.6,14.6v4.2h29.3v-6.2h-0.2C520.2,110.6,514.1,105.1,506.7,105.1z"/>
			<path d="M572,160.5c-2.4,0-3.5-1.8-3.5-3.5c0-1.7,1.1-3.5,3.5-3.5h14.1V81.4H572c-2.4,0-3.5-1.8-3.5-3.5c0-1.7,1.1-3.5,3.5-3.5
				h35.2c2.4,0,3.5,1.8,3.5,3.5c0,1.7-1.1,3.5-3.5,3.5h-14.1v72.2h14.1c2.4,0,3.5,1.8,3.5,3.5c0,1.6-0.9,3.4-3.5,3.4H572z"/>
			<path d="M665.5,160.5c-1.7,0-3.5-1.1-3.5-3.5v-37.4c0-8-6.5-14.6-14.6-14.6c-8.1,0-14.6,6.5-14.6,14.6V157c0,2.4-1.8,3.5-3.5,3.5
				c-1.7,0-3.5-1.1-3.5-3.5v-37.4c0-11.9,9.7-21.6,21.6-21.6s21.6,9.7,21.6,21.6V157C669,160.3,666.1,160.5,665.5,160.5z"/>
			<path d="M708.4,161.6c-11.9,0-21.6-9.7-21.6-21.6v-20.3c0-11.9,9.7-21.6,21.6-21.6c4.1,0,8.4,1.6,11.3,4.2l3.3,3V77.9
				c0-2.4,1.8-3.5,3.5-3.5c1.7,0,3.5,1.1,3.5,3.5V140C730,151.9,720.3,161.6,708.4,161.6z M708.4,105.1c-8.2,0-14.7,6.4-14.7,14.6
				V140c0,8,6.5,14.6,14.6,14.6c8.1,0,14.7-6.5,14.7-14.6v-20.3C723,111.6,716.5,105.1,708.4,105.1z"/>
			<path d="M770.4,161.7c-11,0-22.7-8.7-22.7-21.6v-20.3c0-11.9,9.7-21.6,21.6-21.6s21.6,9.7,21.6,21.6v7.7c0,0.9-0.3,1.7-0.9,2.3
				c-0.7,0.7-1.6,1.1-2.5,1.1h-32.8v9.1c0,7.8,7.3,14.6,15.7,14.6c5,0,9-1.6,12.1-4.8l0.1-0.1l0.1-0.2c0.8-1.1,1.6-1.6,2.7-1.6
				c1.9,0,3.7,1.7,3.7,3.5c0,0.7-0.2,1.3-0.7,2l-0.1,0.1l-0.1,0.1c0,0-0.3,0.6-1,1.3C783.3,159.3,777.1,161.7,770.4,161.7z
				 M769.5,105.1c-8,0-14.6,6.5-14.6,14.6v4.2h29.3v-6.2H784C783,110.6,776.9,105.1,769.5,105.1z"/>
			<path d="M844.2,160.7c-1,0-2-0.6-2.7-1.7l-15-23.3l-15,23.2c-0.7,1.1-1.7,1.7-2.8,1.7c-1.7,0-3.7-1.5-3.7-3.5
				c0-0.5,0.1-1.2,0.6-2l16.6-26l-15.9-24.7c-0.6-0.8-0.7-1.5-0.7-2c0-2,2-3.5,3.7-3.5c0.6,0,1.8,0.2,2.8,1.7l14.2,22.1l14.3-22
				c0.9-1.4,2-1.7,2.7-1.7c1.8,0,3.8,1.4,3.8,3.5c0,0.7-0.2,1.4-0.6,2l-15.9,24.6l16.8,25.9c0.6,0.8,0.7,1.5,0.7,2
				C848,159.1,845.9,160.7,844.2,160.7z"/>
		</g>
	</g>
	<g id="beta_x5F_outline" class="st4">
		<path d="M750.6,194.6c1.6-1.5,3.9-2.4,6.4-2.4c6.7,0,12,5.4,12,12v10.4c0,6.7-5.4,12-12,12c-6.7,0-12-5.4-12-12v-31.7
			c0-1.8,1.4-2.8,2.8-2.8s2.8,1,2.8,2.8V194.6z M750.6,204.2v10.4c0,3.6,2.9,6.4,6.4,6.4s6.4-2.9,6.4-6.4v-10.4
			c0-3.6-2.9-6.4-6.4-6.4S750.6,200.6,750.6,204.2z"/>
		<path d="M797.1,210.9h-15.7v3.6c0,3.4,3.3,6.4,7,6.4c2.1,0,4-0.6,5.4-2.1c0.6-0.9,1.4-1.3,2.2-1.3c1.5,0,2.9,1.3,2.9,2.8
			c0,0.6-0.2,1.1-0.6,1.6c0,0-0.2,0.4-0.7,0.9c-2.4,2.5-5.9,3.7-9.3,3.7c-6.4,0-12.6-5.2-12.6-12v-10.4c0-6.7,5.4-12,12-12
			s12,5.4,12,12v3.9C799.9,209.6,798.6,210.9,797.1,210.9z M794.3,204.2c0-3.6-2.9-6.4-6.4-6.4s-6.4,2.9-6.4,6.4v1.1h12.9
			L794.3,204.2L794.3,204.2z"/>
		<path d="M826.2,224.4c-1.9,1.4-4.3,2.2-6.6,2.2c-5.4,0-9.6-3.8-9.6-9v-19.3h-4c-1.8,0-2.8-1.4-2.8-2.8c0-1.4,1-2.8,2.8-2.8h4v-6
			c0-1.8,1.4-2.8,2.8-2.8s2.8,1,2.8,2.8v6h8.8c1.8,0,2.8,1.4,2.8,2.8c0,1.4-1,2.8-2.8,2.8h-8.8v19.3c0,1.7,1.3,3.4,4,3.4
			s3.6-2.1,5.4-2.1c1.8,0,2.9,1.6,2.9,3.1C827.9,223.2,827.1,223.8,826.2,224.4z"/>
		<path d="M842.5,226.6c-5.7,0-11.3-3.4-11.3-10.1c0-6.2,5.2-9.2,10.5-10.4l6.4-1.4v-1.8c0-3.1-1.6-5.2-5.5-5.2
			c-4.1,0-4.6,3.4-7.2,3.4c-1.5,0-2.8-1.2-2.8-2.8c0-0.9,0.4-1.7,1-2.3c2.2-2.6,5.6-3.9,9-3.9c6.9,0,11.2,4.5,11.2,10.8v12.9
			C853.8,222.4,848.5,226.6,842.5,226.6z M848.2,210.2l-5.9,1.3c-3.7,0.8-5.5,2.9-5.5,4.9c0,2.7,2,4.6,5.7,4.6
			c3.4,0,5.7-2.2,5.7-5.2V210.2z"/>
	</g>
</symbol>
</svg>
