<?xml version="1.0" encoding="utf-8"?>
<!-- Generator: Adobe Illustrator 22.1.0, SVG Export Plug-In . SVG Version: 6.00 Build 0)  -->
<svg version="1.1" xmlns="http://www.w3.org/2000/svg" xmlns:xlink="http://www.w3.org/1999/xlink">
	<style type="text/css">
		.st0{fill:#555555;}
		.st1{fill:#1377C9;}
		.st2{fill:#003E6F;}
		.st3{fill-rule:evenodd;clip-rule:evenodd;fill:#003E6F;}
		.st4{fill:#C5C5C6;}
		.st5{fill:#939598;}
		.st6{fill:#636466;}
		.st7{fill:url(#SVGID_1_);}
		.st8{fill:url(#SVGID_2_);}
		.st9{fill:none;stroke:#666666;stroke-width:0.5187;}
		.st10{fill:url(#SVGID_3_);}
		.st11{fill:url(#SVGID_4_);}
		.st12{fill:url(#SVGID_5_);}
		.st13{fill:url(#SVGID_6_);}
		.st14{fill:#809AAA;}
		.st15{fill:#0267A1;}
		.st16{fill:#FFFFFF;}
	</style>

	<symbol id="logo_opendri" viewBox="0 0 0 100">
		
		<path id="opendri_txt" fill="#55555" class="st0" d="M-203.2-75.9c0-2.7-2.2-4.9-4.9-4.9c-2.7,0-4.9,2.2-4.9,4.9v7
		c0,2.7,2.2,4.9,4.9,4.9c2.7,0,4.9-2.2,4.9-4.9V-75.9z M-208.1-62.5c-3.5,0-6.4-2.9-6.4-6.4v-7c0-3.5,2.9-6.4,6.4-6.4
		s6.4,2.9,6.4,6.4v7C-201.7-65.3-204.6-62.5-208.1-62.5z M-190.8-71.9c0-1.9-1.5-3.3-3.3-3.3c-1.9,0-3.3,1.5-3.3,3.3v4.6
		c0,1.9,1.5,3.3,3.3,3.3c1.9,0,3.3-1.5,3.3-3.3V-71.9z M-197.5-58.5c0,0.5-0.4,0.7-0.7,0.7c-0.4,0-0.7-0.2-0.7-0.7v-13.4
		c0-2.7,2.2-4.8,4.8-4.8c2.7,0,4.8,2.2,4.8,4.8v4.6c0,2.7-2.2,4.8-4.8,4.8c-1.3,0-2.5-0.6-3.3-1.6V-58.5z M-178.4-71.9
		c0-1.9-1.5-3.3-3.3-3.3c-1.9,0-3.3,1.5-3.3,3.3v1h6.7V-71.9z M-177.7-69.4h-7.4v2.1c0,1.8,1.7,3.3,3.6,3.3c0.9,0,2.1-0.3,2.8-1.2
		c0.2-0.2,0.4-0.3,0.6-0.3c0.4,0,0.8,0.3,0.8,0.7c0,0.1,0,0.3-0.1,0.5c-0.9,1.2-2.5,1.8-4,1.8c-2.6,0-5.1-2.1-5.1-4.8v-4.6
		c0-2.7,2.2-4.8,4.8-4.8c2.7,0,4.8,2.2,4.8,4.8v1.7C-176.9-69.7-177.3-69.4-177.7-69.4z M-165.3-62.7c-0.4,0-0.7-0.2-0.7-0.7v-8.4
		c0-1.9-1.5-3.3-3.3-3.3c-1.9,0-3.3,1.5-3.3,3.3v8.4c0,0.5-0.4,0.7-0.7,0.7c-0.4,0-0.7-0.2-0.7-0.7v-8.4c0-2.7,2.2-4.8,4.8-4.8
		s4.8,2.2,4.8,4.8v8.4C-164.6-63-164.9-62.7-165.3-62.7z M-145.1-75.7c0-2.7-2.2-4.9-4.9-4.9h-4.4v16.4h4.4c2.7,0,4.9-2.2,4.9-4.9
		V-75.7z M-150-62.7h-5.2c-0.4,0-0.7-0.3-0.7-0.7v-17.9c0-0.4,0.3-0.7,0.7-0.7h5.2c3.5,0,6.4,2.9,6.4,6.4v6.5
		C-143.6-65.6-146.5-62.7-150-62.7z M-133.7-69.8l-3.2,0.7c-1.7,0.4-2.8,1.4-2.8,2.6c0,1.5,1.2,2.5,3,2.5c1.7,0,3-1.2,3-2.8V-69.8z
		 M-136.7-62.5c-2.4,0-4.5-1.4-4.5-4c0-2.5,2.1-3.7,4.3-4.2l3.2-0.7v-1.2c0-1.7-0.9-2.8-2.9-2.8c-0.9,0-1.6,0.3-2.1,0.7
		c-0.5,0.4-0.6,0.8-1.1,0.8c-0.4,0-0.7-0.3-0.7-0.7c0-0.3,0.2-0.5,0.3-0.7c0.9-1,2.2-1.5,3.6-1.5c2.8,0,4.4,1.8,4.4,4.3v5.7
		C-132.2-64.2-134.3-62.5-136.7-62.5z M-121.5-63.4c-0.7,0.5-1.7,0.9-2.6,0.9c-2.2,0-3.8-1.5-3.8-3.5v-9h-2.3
		c-0.5,0-0.7-0.4-0.7-0.7c0-0.4,0.2-0.7,0.7-0.7h2.3v-3.1c0-0.5,0.4-0.7,0.7-0.7c0.4,0,0.7,0.2,0.7,0.7v3.1h4.4
		c0.5,0,0.7,0.4,0.7,0.7c0,0.4-0.2,0.7-0.7,0.7h-4.4v9c0,1.1,0.8,2,2.3,2c1.4,0,1.8-0.9,2.4-0.9c0.4,0,0.7,0.4,0.7,0.8
		C-121-63.7-121.2-63.5-121.5-63.4z M-112.3-69.8l-3.2,0.7c-1.7,0.4-2.8,1.4-2.8,2.6c0,1.5,1.2,2.5,3,2.5c1.7,0,3-1.2,3-2.8V-69.8z
		 M-115.3-62.5c-2.4,0-4.5-1.4-4.5-4c0-2.5,2.1-3.7,4.3-4.2l3.2-0.7v-1.2c0-1.7-0.9-2.8-2.9-2.8c-0.9,0-1.6,0.3-2.1,0.7
		c-0.5,0.4-0.6,0.8-1.1,0.8c-0.4,0-0.7-0.3-0.7-0.7c0-0.3,0.2-0.5,0.3-0.7c0.9-1,2.2-1.5,3.6-1.5c2.8,0,4.4,1.8,4.4,4.3v5.7
		C-110.8-64.2-112.8-62.5-115.3-62.5z M-95.3-80.3c-0.4,0-0.8-0.5-1.9-0.5c-1.4,0-2.3,0.9-2.3,2v2.3h3.7c0.5,0,0.7,0.4,0.7,0.7
		c0,0.4-0.2,0.7-0.7,0.7h-3.7v11.5c0,0.5-0.4,0.7-0.7,0.7s-0.7-0.2-0.7-0.7V-75h-2.3c-0.5,0-0.7-0.4-0.7-0.7c0-0.4,0.2-0.7,0.7-0.7
		h2.3v-2.3c0-2,1.6-3.5,3.8-3.5c0.8,0,1.6,0.2,2.2,0.6c0.2,0.2,0.4,0.4,0.4,0.6C-94.6-80.7-94.9-80.3-95.3-80.3z M-85.5-71.9
		c0-1.9-1.5-3.3-3.3-3.3c-1.9,0-3.3,1.5-3.3,3.3v4.6c0,1.9,1.5,3.3,3.3,3.3c1.9,0,3.3-1.5,3.3-3.3V-71.9z M-88.9-62.5
		c-2.7,0-4.8-2.2-4.8-4.8v-4.6c0-2.7,2.2-4.8,4.8-4.8c2.7,0,4.8,2.2,4.8,4.8v4.6C-84.1-64.6-86.2-62.5-88.9-62.5z M-74.3-74.2
		c-0.2,0-0.3-0.1-0.5-0.2c0,0,0,0-0.1-0.1c-0.5-0.4-1.2-0.7-1.9-0.7c-1.8,0-2.8,1.3-2.8,3.5v8.3c0,0.5-0.4,0.7-0.7,0.7
		c-0.4,0-0.7-0.2-0.7-0.7v-8.3c0-2.8,1.5-5,4.3-5c1,0,2.3,0.4,3.1,1.2c0.2,0.2,0.2,0.3,0.2,0.5C-73.6-74.6-73.9-74.2-74.3-74.2z
		 M-208.9-55.8h-3.7v9.3h3.7c2.6,0,4.7-2,4.7-4.7C-204.2-53.7-206.3-55.8-208.9-55.8z M-203.4-37.9c-0.2,0-0.4-0.1-0.6-0.3l-4.3-6.7
		c-0.2,0-0.4,0-0.6,0h-3.7v6.3c0,0.5-0.4,0.7-0.7,0.7c-0.4,0-0.7-0.2-0.7-0.7v-17.9c0-0.4,0.3-0.7,0.7-0.7h4.4
		c3.4,0,6.2,2.8,6.2,6.1c0,2.7-1.7,4.9-4,5.8l3.9,6.2c0.1,0.1,0.1,0.3,0.1,0.4C-202.6-38.2-203-37.9-203.4-37.9z M-192.1-47.1
		c0-1.9-1.5-3.3-3.3-3.3c-1.9,0-3.3,1.5-3.3,3.3v1h6.7V-47.1z M-191.4-44.6h-7.4v2.1c0,1.8,1.7,3.3,3.6,3.3c0.9,0,2.1-0.3,2.8-1.2
		c0.2-0.2,0.4-0.3,0.6-0.3c0.4,0,0.8,0.3,0.8,0.7c0,0.1,0,0.3-0.1,0.5c-0.9,1.2-2.5,1.8-4,1.8c-2.6,0-5.1-2.1-5.1-4.8v-4.6
		c0-2.7,2.2-4.8,4.8-4.8c2.7,0,4.8,2.2,4.8,4.8v1.7C-190.6-45-191-44.6-191.4-44.6z M-184.5-37.7c-1.3,0-3-0.6-3.8-1.7
		c-0.1-0.1-0.1-0.3-0.1-0.4c0-0.4,0.4-0.7,0.8-0.7c0.2,0,0.4,0.1,0.6,0.3c0,0,0,0,0.1,0.1c0.6,0.6,1.5,0.9,2.4,0.9
		c1.9,0,3.1-1.1,3.1-2.4c0-3.5-7-2.2-7-6.8c0-2.4,2.1-3.5,4-3.5c1.4,0,3,0.7,3.8,2c0.1,0.1,0.1,0.3,0.1,0.4c0,0.4-0.4,0.7-0.8,0.7
		c-0.2,0-0.4-0.1-0.6-0.3c0,0-0.1,0-0.1-0.2c-0.6-0.7-1.5-1.1-2.4-1.1c-1.5,0-2.5,0.8-2.5,2.1c0,3.1,7,1.9,7,6.8
		C-179.9-39.2-182-37.7-184.5-37.7z M-176.6-37.9c-0.4,0-0.7-0.2-0.7-0.7v-12.3c0-0.5,0.4-0.7,0.7-0.7c0.4,0,0.7,0.2,0.7,0.7v12.3
		C-175.9-38.2-176.3-37.9-176.6-37.9z M-176.6-57c0.5,0,1,0.4,1,1c0,0.5-0.4,1-1,1c-0.5,0-1-0.4-1-1C-177.6-56.5-177.2-57-176.6-57z
		 M-170.4-37.7c-0.1,0-0.2,0-0.3,0c0,0-0.1,0-0.4-0.2c-1.3-0.8-1.8-2.4-1.8-3.9v-14.7c0-0.5,0.4-0.7,0.7-0.7c0.4,0,0.7,0.2,0.7,0.7
		v14.7c0,0.9,0.3,2.3,1.3,2.7c0.3,0.1,0.5,0.4,0.5,0.7C-169.7-38-170-37.7-170.4-37.7z M-167.2-37.9c-0.4,0-0.7-0.2-0.7-0.7v-12.3
		c0-0.5,0.4-0.7,0.7-0.7c0.4,0,0.7,0.2,0.7,0.7v12.3C-166.5-38.2-166.9-37.9-167.2-37.9z M-167.2-57c0.5,0,1,0.4,1,1
		c0,0.5-0.4,1-1,1c-0.5,0-1-0.4-1-1C-168.2-56.5-167.8-57-167.2-57z M-155.5-47.1c0-1.9-1.5-3.3-3.3-3.3c-1.9,0-3.3,1.5-3.3,3.3v1
		h6.7V-47.1z M-154.7-44.6h-7.4v2.1c0,1.8,1.7,3.3,3.6,3.3c0.9,0,2.1-0.3,2.8-1.2c0.2-0.2,0.4-0.3,0.6-0.3c0.4,0,0.8,0.3,0.8,0.7
		c0,0.1,0,0.3-0.1,0.5c-0.9,1.2-2.5,1.8-4,1.8c-2.6,0-5.1-2.1-5.1-4.8v-4.6c0-2.7,2.2-4.8,4.8-4.8c2.7,0,4.8,2.2,4.8,4.8v1.7
		C-154-45-154.3-44.6-154.7-44.6z M-142.3-37.9c-0.4,0-0.7-0.2-0.7-0.7v-8.4c0-1.9-1.5-3.3-3.3-3.3c-1.9,0-3.3,1.5-3.3,3.3v8.4
		c0,0.5-0.4,0.7-0.7,0.7c-0.4,0-0.7-0.2-0.7-0.7v-8.4c0-2.7,2.2-4.8,4.8-4.8s4.8,2.2,4.8,4.8v8.4C-141.6-38.2-142-37.9-142.3-37.9z
		 M-130-39.5c0,0-0.1,0.1-0.3,0.3c-1,1-2.4,1.5-3.8,1.5c-2.8,0-4.7-1.7-4.7-4.3v-5.7c0-2.6,1.9-4.3,4.7-4.3c1.4,0,3.2,0.6,4,1.8
		c0.1,0.1,0.1,0.3,0.1,0.4c0,0.4-0.4,0.7-0.8,0.7c-0.2,0-0.4-0.1-0.6-0.3c0,0,0,0-0.1-0.1c-0.7-0.7-1.7-1-2.7-1
		c-2.1,0-3.2,1.2-3.2,2.8v5.7c0,1.6,1.1,2.8,3.2,2.8c0.9,0,2.2-0.3,2.8-1.2c0.2-0.2,0.4-0.3,0.6-0.3c0.4,0,0.8,0.3,0.8,0.7
		C-129.9-39.8-129.9-39.6-130-39.5z M-119.3-47.1c0-1.9-1.5-3.3-3.3-3.3c-1.9,0-3.3,1.5-3.3,3.3v1h6.7V-47.1z M-118.6-44.6h-7.4v2.1
		c0,1.8,1.7,3.3,3.6,3.3c0.9,0,2.1-0.3,2.8-1.2c0.2-0.2,0.4-0.3,0.6-0.3c0.4,0,0.8,0.3,0.8,0.7c0,0.1,0,0.3-0.1,0.5
		c-0.9,1.2-2.5,1.8-4,1.8c-2.6,0-5.1-2.1-5.1-4.8v-4.6c0-2.7,2.2-4.8,4.8-4.8c2.7,0,4.8,2.2,4.8,4.8v1.7
		C-117.9-45-118.2-44.6-118.6-44.6z M-101.7-37.9h-7.9c-0.5,0-0.7-0.4-0.7-0.7c0-0.4,0.2-0.7,0.7-0.7h3.2v-16.4h-3.2
		c-0.5,0-0.7-0.4-0.7-0.7c0-0.4,0.2-0.7,0.7-0.7h7.9c0.5,0,0.7,0.4,0.7,0.7c0,0.4-0.2,0.7-0.7,0.7h-3.2v16.4h3.2
		c0.5,0,0.7,0.4,0.7,0.7C-101-38.3-101.3-37.9-101.7-37.9z M-89.9-37.9c-0.4,0-0.7-0.2-0.7-0.7v-8.4c0-1.9-1.5-3.3-3.3-3.3
		c-1.9,0-3.3,1.5-3.3,3.3v8.4c0,0.5-0.4,0.7-0.7,0.7c-0.4,0-0.7-0.2-0.7-0.7v-8.4c0-2.7,2.2-4.8,4.8-4.8s4.8,2.2,4.8,4.8v8.4
		C-89.1-38.2-89.5-37.9-89.9-37.9z M-85.4-37.9c-0.4,0-0.7-0.2-0.7-0.7v-12.3c0-0.5,0.4-0.7,0.7-0.7c0.4,0,0.7,0.2,0.7,0.7v12.3
		C-84.7-38.2-85-37.9-85.4-37.9z M-85.4-57c0.5,0,1,0.4,1,1c0,0.5-0.4,1-1,1c-0.5,0-1-0.4-1-1C-86.4-56.5-85.9-57-85.4-57z
		 M-73.8-38.6c-0.7,0.5-1.7,0.9-2.6,0.9c-2.2,0-3.8-1.5-3.8-3.5v-9h-2.3c-0.5,0-0.7-0.4-0.7-0.7c0-0.4,0.2-0.7,0.7-0.7h2.3v-3.1
		c0-0.5,0.4-0.7,0.7-0.7c0.4,0,0.7,0.2,0.7,0.7v3.1h4.4c0.5,0,0.7,0.4,0.7,0.7c0,0.4-0.2,0.7-0.7,0.7h-4.4v9c0,1.1,0.8,2,2.3,2
		c1.4,0,1.8-0.9,2.4-0.9c0.4,0,0.7,0.4,0.7,0.8C-73.3-39-73.5-38.8-73.8-38.6z M-70.8-37.9c-0.4,0-0.7-0.2-0.7-0.7v-12.3
		c0-0.5,0.4-0.7,0.7-0.7c0.4,0,0.7,0.2,0.7,0.7v12.3C-70.1-38.2-70.4-37.9-70.8-37.9z M-70.8-57c0.5,0,1,0.4,1,1c0,0.5-0.4,1-1,1
		c-0.5,0-1-0.4-1-1C-71.8-56.5-71.3-57-70.8-57z M-60.1-45l-3.2,0.7c-1.7,0.4-2.8,1.4-2.8,2.6c0,1.5,1.2,2.5,3,2.5
		c1.7,0,3-1.2,3-2.8V-45z M-63.1-37.7c-2.4,0-4.5-1.4-4.5-4c0-2.5,2.1-3.7,4.3-4.2l3.2-0.7v-1.2c0-1.7-0.9-2.8-2.9-2.8
		c-0.9,0-1.6,0.3-2.1,0.7c-0.5,0.4-0.6,0.8-1.1,0.8c-0.4,0-0.7-0.3-0.7-0.7c0-0.3,0.2-0.5,0.3-0.7c0.9-1,2.2-1.5,3.6-1.5
		c2.8,0,4.4,1.8,4.4,4.3v5.7C-58.6-39.4-60.7-37.7-63.1-37.7z M-47.8-38.6c-0.7,0.5-1.7,0.9-2.6,0.9c-2.2,0-3.8-1.5-3.8-3.5v-9h-2.3
		c-0.5,0-0.7-0.4-0.7-0.7c0-0.4,0.2-0.7,0.7-0.7h2.3v-3.1c0-0.5,0.4-0.7,0.7-0.7c0.4,0,0.7,0.2,0.7,0.7v3.1h4.4
		c0.5,0,0.7,0.4,0.7,0.7c0,0.4-0.2,0.7-0.7,0.7h-4.4v9c0,1.1,0.8,2,2.3,2c1.4,0,1.8-0.9,2.4-0.9c0.4,0,0.7,0.4,0.7,0.8
		C-47.3-39-47.6-38.8-47.8-38.6z M-44.9-37.9c-0.4,0-0.7-0.2-0.7-0.7v-12.3c0-0.5,0.4-0.7,0.7-0.7c0.4,0,0.7,0.2,0.7,0.7v12.3
		C-44.1-38.2-44.5-37.9-44.9-37.9z M-44.9-57c0.5,0,1,0.4,1,1c0,0.5-0.4,1-1,1c-0.5,0-1-0.4-1-1C-45.9-56.5-45.4-57-44.9-57z
		 M-31.3-50.7L-36-38.4c-0.1,0.4-0.4,0.6-0.7,0.6c-0.3,0-0.5-0.2-0.7-0.6l-4.7-12.3c0-0.1,0-0.2,0-0.3c0-0.4,0.4-0.7,0.8-0.7
		c0.3,0,0.5,0.1,0.7,0.5l4,10.5l4-10.5c0.1-0.3,0.4-0.5,0.7-0.5c0.4,0,0.8,0.3,0.8,0.7C-31.2-50.9-31.2-50.8-31.3-50.7z M-21.2-47.1
		c0-1.9-1.5-3.3-3.3-3.3c-1.9,0-3.3,1.5-3.3,3.3v1h6.7V-47.1z M-20.4-44.6h-7.4v2.1c0,1.8,1.7,3.3,3.6,3.3c0.9,0,2.1-0.3,2.8-1.2
		c0.2-0.2,0.4-0.3,0.6-0.3c0.4,0,0.8,0.3,0.8,0.7c0,0.1,0,0.3-0.1,0.5c-0.9,1.2-2.5,1.8-4,1.8c-2.6,0-5.1-2.1-5.1-4.8v-4.6
		c0-2.7,2.2-4.8,4.8-4.8c2.7,0,4.8,2.2,4.8,4.8v1.7C-19.7-45-20-44.6-20.4-44.6L-20.4-44.6z"/>
		<path id="opendri_logo" fill="#1377C9" class="st1" d="M-237.5-81.8c0-0.7-0.5-1.2-1.2-1.2s-1.2,0.5-1.2,1.2v41.5h-8
		l-9.7-15.1c5.8-1.8,10-7.2,10-13.5c0-7.8-6.4-14.1-14.2-14.1h-10.6c-0.7,0-1.2,0.5-1.2,1.2v42.6c0,0.8,0.6,1.2,1.2,1.2
		c0.6,0,1.2-0.4,1.2-1.2v-41.4h9.4c6.5,0,11.8,5.2,11.8,11.7c0,5.4-3.6,9.9-8.5,11.3c-1,0.3-1.6,1.2-1.6,2.2c0,0.4,0.1,0.9,0.4,1.2
		l10,15.6c0.3,0.4,0.7,0.7,1.2,0.7h9.3c0.9,0,1.6-0.7,1.6-1.6V-81.8z M-279.3-67.9c0-6.7-5.4-12.2-12.2-12.2h-11v39.8h11
		c6.7,0,12.2-5.4,12.2-12.2V-67.9z M-291.5-37.9h-12.2c-0.6,0-1.2-0.5-1.2-1.2v-42.1c0-0.6,0.5-1.2,1.2-1.2h12.2
		c8,0,14.5,6.5,14.5,14.5v15.4C-277-44.4-283.5-37.9-291.5-37.9z M-319.6-46.5c-2.1,0-3.7,1.7-3.7,3.7c0,2.1,1.7,3.7,3.7,3.7h5.4
		c2.1,0,3.7-1.7,3.7-3.7c0-2.1-1.7-3.7-3.7-3.7H-319.6z M-309.3-42.7c0,2.7-2.2,4.9-4.9,4.9h-5.4c-2.7,0-4.9-2.2-4.9-4.9
		c0-2.7,2.2-4.9,4.9-4.9h5.4C-311.5-47.6-309.3-45.4-309.3-42.7z M-323.1-54.4v2.8h7.1v-2.8c0-2-1.6-3.6-3.6-3.6
		C-321.5-58-323.1-56.3-323.1-54.4z M-314.9-54.4v2.8h4.8c0.4,0,0.6,0.3,0.6,0.6c0,0.3-0.2,0.6-0.6,0.6h-13.6
		c-0.3,0-0.6-0.3-0.6-0.6v-3.4c0-2.6,2.1-4.7,4.7-4.7C-317-59.1-314.9-57-314.9-54.4z M-309.5-69.6v7.1c0,0.3-0.3,0.6-0.6,0.6h-13.6
		c-0.3,0-0.6-0.3-0.6-0.6v-7.1c0-0.4,0.3-0.6,0.6-0.6c0.3,0,0.6,0.2,0.6,0.6v6.5h5.3v-6c0-0.4,0.3-0.6,0.6-0.6s0.6,0.2,0.6,0.6v6h6
		v-6.5c0-0.4,0.3-0.6,0.6-0.6C-309.8-70.2-309.5-70-309.5-69.6z M-309.4-81.9c0,0.2-0.1,0.4-0.4,0.5l-11.9,7.2h11.6
		c0.4,0,0.6,0.3,0.6,0.6c0,0.3-0.2,0.6-0.6,0.6h-13.6c-0.4,0-0.7-0.2-0.7-0.5c0-0.2,0.1-0.4,0.4-0.5l11.9-7.2h-11.6
		c-0.4,0-0.6-0.3-0.6-0.6c0-0.3,0.2-0.6,0.6-0.6h13.6C-309.7-82.4-309.4-82.1-309.4-81.9z"/>
	
	</symbol>

	

</svg>
