<svg version="1" id="partner" xmlns="http://www.w3.org/2000/svg">
  <symbol id="logo_x5F_opendri" viewBox="0 20 320 60">
    <path id="txt_2_" fill="#555" d="M127.8 33.1c0-2.7-2.2-4.9-4.9-4.9s-4.9 2.2-4.9 4.9v7c0 2.7 2.2 4.9 4.9 4.9s4.9-2.2 4.9-4.9v-7zm-4.9 13.4c-3.5 0-6.4-2.9-6.4-6.4v-7c0-3.5 2.9-6.4 6.4-6.4 3.5 0 6.4 2.9 6.4 6.4v7c0 3.6-2.9 6.4-6.4 6.4zm17.3-9.4c0-1.9-1.5-3.3-3.3-3.3-1.9 0-3.3 1.5-3.3 3.3v4.6c0 1.9 1.5 3.3 3.3 3.3 1.9 0 3.3-1.5 3.3-3.3v-4.6zm-6.7 13.4c0 .5-.4.7-.7.7-.4 0-.7-.2-.7-.7V37.1c0-2.7 2.2-4.8 4.8-4.8 2.7 0 4.8 2.2 4.8 4.8v4.6c0 2.7-2.2 4.8-4.8 4.8-1.3 0-2.5-.6-3.3-1.6v5.6zm19.1-13.4c0-1.9-1.5-3.3-3.3-3.3-1.9 0-3.3 1.5-3.3 3.3v1h6.7v-1zm.7 2.5h-7.4v2.1c0 1.8 1.7 3.3 3.6 3.3.9 0 2.1-.3 2.8-1.2.2-.2.4-.3.6-.3.4 0 .8.3.8.7 0 .1 0 .3-.1.5-.9 1.2-2.5 1.8-4 1.8-2.6 0-5.1-2.1-5.1-4.8v-4.6c0-2.7 2.2-4.8 4.8-4.8 2.7 0 4.8 2.2 4.8 4.8v1.7c0 .5-.4.8-.8.8zm12.4 6.7c-.4 0-.7-.2-.7-.7v-8.4c0-1.9-1.5-3.3-3.3-3.3-1.9 0-3.3 1.5-3.3 3.3v8.4c0 .5-.4.7-.7.7-.4 0-.7-.2-.7-.7v-8.4c0-2.7 2.2-4.8 4.8-4.8s4.8 2.2 4.8 4.8v8.4c-.2.4-.5.7-.9.7zm20.2-13c0-2.7-2.2-4.9-4.9-4.9h-4.4v16.4h4.4c2.7 0 4.9-2.2 4.9-4.9v-6.6zm-4.9 13h-5.2c-.4 0-.7-.3-.7-.7V27.7c0-.4.3-.7.7-.7h5.2c3.5 0 6.4 2.9 6.4 6.4v6.5c0 3.5-2.9 6.4-6.4 6.4zm16.3-7.1l-3.2.7c-1.7.4-2.8 1.4-2.8 2.6 0 1.5 1.2 2.5 3 2.5 1.7 0 3-1.2 3-2.8v-3zm-3 7.3c-2.4 0-4.5-1.4-4.5-4 0-2.5 2.1-3.7 4.3-4.2l3.2-.7v-1.2c0-1.7-.9-2.8-2.9-2.8-.9 0-1.6.3-2.1.7-.5.4-.6.8-1.1.8-.4 0-.7-.3-.7-.7 0-.3.2-.5.3-.7.9-1 2.2-1.5 3.6-1.5 2.8 0 4.4 1.8 4.4 4.3v5.7c0 2.6-2.1 4.3-4.5 4.3zm15.2-.9c-.7.5-1.7.9-2.6.9-2.2 0-3.8-1.5-3.8-3.5v-9h-2.3c-.5 0-.7-.4-.7-.7 0-.4.2-.7.7-.7h2.3v-3.1c0-.5.4-.7.7-.7.4 0 .7.2.7.7v3.1h4.4c.5 0 .7.4.7.7 0 .4-.2.7-.7.7h-4.4v9c0 1.1.8 2 2.3 2 1.4 0 1.8-.9 2.4-.9.4 0 .7.4.7.8.1.4-.1.6-.4.7zm9.2-6.4l-3.2.7c-1.7.4-2.8 1.4-2.8 2.6 0 1.5 1.2 2.5 3 2.5 1.7 0 3-1.2 3-2.8v-3zm-3 7.3c-2.4 0-4.5-1.4-4.5-4 0-2.5 2.1-3.7 4.3-4.2l3.2-.7v-1.2c0-1.7-.9-2.8-2.9-2.8-.9 0-1.6.3-2.1.7-.5.4-.6.8-1.1.8-.4 0-.7-.3-.7-.7 0-.3.2-.5.3-.7.9-1 2.2-1.5 3.6-1.5 2.8 0 4.4 1.8 4.4 4.3v5.7c0 2.6-2 4.3-4.5 4.3zm20-17.8c-.4 0-.8-.5-1.9-.5-1.4 0-2.3.9-2.3 2v2.3h3.7c.5 0 .7.4.7.7 0 .4-.2.7-.7.7h-3.7v11.5c0 .5-.4.7-.7.7s-.8-.1-.8-.6V34h-2.3c-.5 0-.7-.4-.7-.7 0-.4.2-.7.7-.7h2.3v-2.3c0-2 1.6-3.5 3.8-3.5.8 0 1.6.2 2.2.6.2.2.4.4.4.6 0 .3-.3.7-.7.7zm9.8 8.4c0-1.9-1.5-3.3-3.3-3.3-1.9 0-3.3 1.5-3.3 3.3v4.6c0 1.9 1.5 3.3 3.3 3.3 1.9 0 3.3-1.5 3.3-3.3v-4.6zm-3.4 9.4c-2.7 0-4.8-2.2-4.8-4.8v-4.6c0-2.7 2.2-4.8 4.8-4.8 2.7 0 4.8 2.2 4.8 4.8v4.6c0 2.7-2.1 4.8-4.8 4.8zm14.6-11.7c-.2 0-.3-.1-.5-.2l-.1-.1c-.5-.4-1.2-.7-1.9-.7-1.8 0-2.8 1.3-2.8 3.5v8.3c0 .5-.4.7-.7.7-.4 0-.7-.2-.7-.7v-8.3c0-2.8 1.5-5 4.3-5 1 0 2.3.4 3.1 1.2.2.2.2.3.2.5-.2.4-.5.8-.9.8zM122.1 53.2h-3.7v9.3h3.7c2.6 0 4.7-2 4.7-4.7 0-2.5-2.1-4.6-4.7-4.6zm5.5 17.9c-.2 0-.4-.1-.6-.3l-4.3-6.7h-4.3v6.3c0 .5-.4.7-.7.7-.4 0-.7-.2-.7-.7V52.5c0-.4.3-.7.7-.7h4.4c3.4 0 6.2 2.8 6.2 6.1 0 2.7-1.7 4.9-4 5.8l3.9 6.2c.1.1.1.3.1.4.1.5-.3.8-.7.8zm11.3-9.2c0-1.9-1.5-3.3-3.3-3.3-1.9 0-3.3 1.5-3.3 3.3v1h6.7v-1zm.7 2.5h-7.4v2.1c0 1.8 1.7 3.3 3.6 3.3.9 0 2.1-.3 2.8-1.2.2-.2.4-.3.6-.3.4 0 .8.3.8.7 0 .1 0 .3-.1.5-.9 1.2-2.5 1.8-4 1.8-2.6 0-5.1-2.1-5.1-4.8v-4.6c0-2.7 2.2-4.8 4.8-4.8 2.7 0 4.8 2.2 4.8 4.8v1.7c0 .4-.4.8-.8.8zm6.9 6.9c-1.3 0-3-.6-3.8-1.7-.1-.1-.1-.3-.1-.4 0-.4.4-.7.8-.7.2 0 .4.1.6.3l.1.1c.6.6 1.5.9 2.4.9 1.9 0 3.1-1.1 3.1-2.4 0-3.5-7-2.2-7-6.8 0-2.4 2.1-3.5 4-3.5 1.4 0 3 .7 3.8 2 .1.1.1.3.1.4 0 .4-.4.7-.8.7-.2 0-.4-.1-.6-.3 0 0-.1 0-.1-.2-.6-.7-1.5-1.1-2.4-1.1-1.5 0-2.5.8-2.5 2.1 0 3.1 7 1.9 7 6.8 0 2.3-2.1 3.8-4.6 3.8zm7.9-.2c-.4 0-.7-.2-.7-.7V58.1c0-.5.4-.7.7-.7.4 0 .7.2.7.7v12.3c0 .4-.4.7-.7.7zm0-19.1c.5 0 1 .4 1 1 0 .5-.4 1-1 1-.5 0-1-.4-1-1 0-.5.4-1 1-1zm6.2 19.3h-.3s-.1 0-.4-.2c-1.3-.8-1.8-2.4-1.8-3.9V52.5c0-.5.4-.7.7-.7.4 0 .7.2.7.7v14.7c0 .9.3 2.3 1.3 2.7.3.1.5.4.5.7 0 .4-.3.7-.7.7zm3.2-.2c-.4 0-.7-.2-.7-.7V58.1c0-.5.4-.7.7-.7.4 0 .7.2.7.7v12.3c0 .4-.4.7-.7.7zm0-19.1c.5 0 1 .4 1 1 0 .5-.4 1-1 1-.5 0-1-.4-1-1 0-.5.4-1 1-1zm11.7 9.9c0-1.9-1.5-3.3-3.3-3.3-1.9 0-3.3 1.5-3.3 3.3v1h6.7v-1zm.8 2.5h-7.4v2.1c0 1.8 1.7 3.3 3.6 3.3.9 0 2.1-.3 2.8-1.2.2-.2.4-.3.6-.3.4 0 .8.3.8.7 0 .1 0 .3-.1.5-.9 1.2-2.5 1.8-4 1.8-2.6 0-5.1-2.1-5.1-4.8v-4.6c0-2.7 2.2-4.8 4.8-4.8 2.7 0 4.8 2.2 4.8 4.8v1.7c-.1.4-.4.8-.8.8zm12.4 6.7c-.4 0-.7-.2-.7-.7V62c0-1.9-1.5-3.3-3.3-3.3-1.9 0-3.3 1.5-3.3 3.3v8.4c0 .5-.4.7-.7.7-.4 0-.7-.2-.7-.7V62c0-2.7 2.2-4.8 4.8-4.8s4.8 2.2 4.8 4.8v8.4c-.2.4-.6.7-.9.7zm12.3-1.6l-.3.3c-1 1-2.4 1.5-3.8 1.5-2.8 0-4.7-1.7-4.7-4.3v-5.7c0-2.6 1.9-4.3 4.7-4.3 1.4 0 3.2.6 4 1.8.1.1.1.3.1.4 0 .4-.4.7-.8.7-.2 0-.4-.1-.6-.3l-.1-.1c-.7-.7-1.7-1-2.7-1-2.1 0-3.2 1.2-3.2 2.8V67c0 1.6 1.1 2.8 3.2 2.8.9 0 2.2-.3 2.8-1.2.2-.2.4-.3.6-.3.4 0 .8.3.8.7.1.2.1.4 0 .5zm10.7-7.6c0-1.9-1.5-3.3-3.3-3.3-1.9 0-3.3 1.5-3.3 3.3v1h6.7v-1zm.7 2.5H205v2.1c0 1.8 1.7 3.3 3.6 3.3.9 0 2.1-.3 2.8-1.2.2-.2.4-.3.6-.3.4 0 .8.3.8.7 0 .1 0 .3-.1.5-.9 1.2-2.5 1.8-4 1.8-2.6 0-5.1-2.1-5.1-4.8v-4.6c0-2.7 2.2-4.8 4.8-4.8 2.7 0 4.8 2.2 4.8 4.8v1.7c-.1.4-.4.8-.8.8zm16.9 6.7h-7.9c-.5 0-.7-.4-.7-.7 0-.4.2-.7.7-.7h3.2V53.2h-3.2c-.5 0-.7-.4-.7-.7 0-.4.2-.7.7-.7h7.9c.5 0 .7.4.7.7 0 .4-.2.7-.7.7H226v16.4h3.2c.5 0 .7.4.7.7.1.4-.2.8-.6.8zm11.8 0c-.4 0-.7-.2-.7-.7V62c0-1.9-1.5-3.3-3.3-3.3-1.9 0-3.3 1.5-3.3 3.3v8.4c0 .5-.4.7-.7.7-.4 0-.7-.2-.7-.7V62c0-2.7 2.2-4.8 4.8-4.8s4.8 2.2 4.8 4.8v8.4c-.1.4-.5.7-.9.7zm4.5 0c-.4 0-.7-.2-.7-.7V58.1c0-.5.4-.7.7-.7.4 0 .7.2.7.7v12.3c0 .4-.3.7-.7.7zm0-19.1c.5 0 1 .4 1 1 0 .5-.4 1-1 1-.5 0-1-.4-1-1 0-.5.5-1 1-1zm11.6 18.4c-.7.5-1.7.9-2.6.9-2.2 0-3.8-1.5-3.8-3.5v-9h-2.3c-.5 0-.7-.4-.7-.7 0-.4.2-.7.7-.7h2.3v-3.1c0-.5.4-.7.7-.7.4 0 .7.2.7.7v3.1h4.4c.5 0 .7.4.7.7 0 .4-.2.7-.7.7h-4.4v9c0 1.1.8 2 2.3 2 1.4 0 1.8-.9 2.4-.9.4 0 .7.4.7.8.1.3-.1.5-.4.7zm3 .7c-.4 0-.7-.2-.7-.7V58.1c0-.5.4-.7.7-.7.4 0 .7.2.7.7v12.3c0 .4-.3.7-.7.7zm0-19.1c.5 0 1 .4 1 1 0 .5-.4 1-1 1-.5 0-1-.4-1-1 0-.5.5-1 1-1zm10.7 12l-3.2.7c-1.7.4-2.8 1.4-2.8 2.6 0 1.5 1.2 2.5 3 2.5 1.7 0 3-1.2 3-2.8v-3zm-3 7.3c-2.4 0-4.5-1.4-4.5-4 0-2.5 2.1-3.7 4.3-4.2l3.2-.7v-1.2c0-1.7-.9-2.8-2.9-2.8-.9 0-1.6.3-2.1.7-.5.4-.6.8-1.1.8-.4 0-.7-.3-.7-.7 0-.3.2-.5.3-.7.9-1 2.2-1.5 3.6-1.5 2.8 0 4.4 1.8 4.4 4.3V67c0 2.6-2.1 4.3-4.5 4.3zm15.3-.9c-.7.5-1.7.9-2.6.9-2.2 0-3.8-1.5-3.8-3.5v-9h-2.3c-.5 0-.7-.4-.7-.7 0-.4.2-.7.7-.7h2.3v-3.1c0-.5.4-.7.7-.7.4 0 .7.2.7.7v3.1h4.4c.5 0 .7.4.7.7 0 .4-.2.7-.7.7h-4.4v9c0 1.1.8 2 2.3 2 1.4 0 1.8-.9 2.4-.9.4 0 .7.4.7.8.1.3-.2.5-.4.7zm2.9.7c-.4 0-.7-.2-.7-.7V58.1c0-.5.4-.7.7-.7.4 0 .7.2.7.7v12.3c.1.4-.3.7-.7.7zm0-19.1c.5 0 1 .4 1 1 0 .5-.4 1-1 1-.5 0-1-.4-1-1 0-.5.5-1 1-1zm13.6 6.3L295 70.6c-.1.4-.4.6-.7.6-.3 0-.5-.2-.7-.6l-4.7-12.3V58c0-.4.4-.7.8-.7.3 0 .5.1.7.5l4 10.5 4-10.5c.1-.3.4-.5.7-.5.4 0 .8.3.8.7-.1.1-.1.2-.2.3zm10.1 3.6c0-1.9-1.5-3.3-3.3-3.3-1.9 0-3.3 1.5-3.3 3.3v1h6.7v-1zm.8 2.5h-7.4v2.1c0 1.8 1.7 3.3 3.6 3.3.9 0 2.1-.3 2.8-1.2.2-.2.4-.3.6-.3.4 0 .8.3.8.7 0 .1 0 .3-.1.5-.9 1.2-2.5 1.8-4 1.8-2.6 0-5.1-2.1-5.1-4.8v-4.6c0-2.7 2.2-4.8 4.8-4.8 2.7 0 4.8 2.2 4.8 4.8v1.7c-.1.4-.4.8-.8.8z"/>
    <path id="logo_2_" fill="#1377c9" d="M93.5 27.2c0-.7-.5-1.2-1.2-1.2-.6 0-1.2.5-1.2 1.2v41.5h-8l-9.7-15.1c5.8-1.8 10-7.2 10-13.5C83.4 32.3 77 26 69.2 26H58.8c-.7 0-1.2.5-1.2 1.2v42.6c0 .8.6 1.2 1.2 1.2s1.2-.4 1.2-1.2V28.4h9.4c6.5 0 11.8 5.2 11.8 11.7 0 5.4-3.6 9.9-8.5 11.3-1 .3-1.6 1.2-1.6 2.2 0 .4.1.9.4 1.2l10 15.6c.3.4.7.7 1.2.7H92c.9 0 1.6-.7 1.6-1.6V27.2zM51.7 41.1c0-6.7-5.4-12.2-12.2-12.2h-11v39.8h11c6.7 0 12.2-5.4 12.2-12.2V41.1zm-12.2 30H27.4c-.6 0-1.2-.5-1.2-1.2V27.8c0-.6.5-1.2 1.2-1.2h12.2c8 0 14.5 6.5 14.5 14.5v15.4c-.1 8.1-6.6 14.6-14.6 14.6zm-28.1-8.6c-2.1 0-3.7 1.7-3.7 3.7 0 2.1 1.7 3.7 3.7 3.7h5.4c2.1 0 3.7-1.7 3.7-3.7 0-2.1-1.7-3.7-3.7-3.7h-5.4zm10.3 3.8c0 2.7-2.2 4.9-4.9 4.9h-5.4c-2.7 0-4.9-2.2-4.9-4.9s2.2-4.9 4.9-4.9h5.4c2.7 0 4.9 2.2 4.9 4.9zM7.9 54.6v2.8H15v-2.8c0-2-1.6-3.6-3.6-3.6-1.9 0-3.5 1.7-3.5 3.6zm8.2 0v2.8h4.8c.4 0 .6.3.6.6s-.2.6-.6.6H7.3c-.3 0-.6-.3-.6-.6v-3.4c0-2.6 2.1-4.7 4.7-4.7s4.7 2.1 4.7 4.7zm5.4-15.2v7.1c0 .3-.3.6-.6.6H7.3c-.3 0-.6-.3-.6-.6v-7.1c0-.4.3-.6.6-.6s.6.2.6.6v6.5h5.3v-6c0-.4.3-.6.6-.6s.6.2.6.6v6h6v-6.5c0-.4.3-.6.6-.6.2 0 .5.2.5.6zm.1-12.3c0 .2-.1.4-.4.5L9.3 34.9h11.6c.4 0 .6.3.6.6s-.2.6-.6.6H7.3c-.4 0-.7-.2-.7-.5 0-.2.1-.4.4-.5l11.9-7.2H7.3c-.4 0-.6-.3-.6-.6s.2-.6.6-.6h13.6c.4-.1.7.2.7.4z"/>
  </symbol>
  <symbol id="logo_x5F_cima" viewBox="15 120 70 80">
    <g id="payoff" fill="#fff">
      <path d="M20 193.9v-4.3c.3-.1.8-.1 1.3-.1.7 0 1.1.1 1.4.3.3.2.4.5.4.9 0 .6-.4.9-.8 1.1.3.1.5.4.6.8.1.5.3 1.1.3 1.2h-1c-.1-.1-.2-.5-.3-1-.1-.6-.3-.7-.7-.7H21v1.7h-1zm1-2.4h.4c.5 0 .8-.2.8-.6 0-.4-.3-.6-.7-.6h-.4v1.2z"/>
      <polygon points="31,193.9 28.2,193.9 28.2,189.5 30.9,189.5 30.9,190.3 29.2,190.3 29.2,191.2 30.8,191.2 30.8,192 29.2,192 29.2,193.1 31,193.1"/>
      <path d="M37.1 193.9c-.5 0-1-.1-1.2-.3l.2-.8c.3.1.7.3 1.1.3.5 0 .7-.2.7-.5s-.2-.4-.7-.6c-.7-.3-1.2-.7-1.2-1.3 0-.7.6-1.3 1.6-1.3.5 0 .9.1 1.1.2l-.2.8c-.2-.1-.5-.2-.9-.2s-.6.2-.6.4c0 .3.2.4.8.6.8.3 1.1.7 1.1 1.3 0 .8-.6 1.4-1.8 1.4"/>
      <polygon points="46.6,193.9 43.8,193.9 43.8,189.5 46.5,189.5 46.5,190.3 44.8,190.3 44.8,191.2 46.4,191.2 46.4,192 44.8,192 44.8,193.1 46.6,193.1"/>
      <path d="M55.5 193.9h-1.1l-.3-1.1h-1.3l-.3 1.1h-1l1.3-4.4h1.3l1.4 4.4zM53 192h1l-.3-.9c-.1-.3-.2-.6-.2-.8 0 .3-.1.6-.2.8l-.3.9zM63.7 193.9h-1c-.1-.1-.2-.5-.3-1-.1-.6-.3-.7-.7-.7h-.3v1.7h-1v-4.3c.3-.1.8-.1 1.3-.1.6 0 1.1.1 1.4.3.3.2.4.5.4.9 0 .6-.4.9-.8 1.1.3.1.5.4.6.8.2.5.3 1.1.4 1.3m-2.3-2.4h.4c.5 0 .8-.2.8-.6 0-.4-.3-.6-.7-.6h-.4v1.2zM70.9 193.9c-1.5 0-2.3-.9-2.3-2.2 0-1.5 1.1-2.3 2.4-2.3.5 0 .9.1 1.1.2l-.2.8c-.2-.1-.5-.2-.8-.2-.8 0-1.4.5-1.4 1.5 0 .9.5 1.4 1.4 1.4.3 0 .6-.1.8-.1l.1.8c-.1 0-.6.1-1.1.1"/>
      <polygon points="80.6,193.9 79.6,193.9 79.6,192.1 78,192.1 78,193.9 77,193.9 77,189.5 78,189.5 78,191.2 79.6,191.2 79.6,189.5 80.6,189.5"/>
      <path d="M20 193.9v-4.3c.3-.1.8-.1 1.3-.1.7 0 1.1.1 1.4.3.3.2.4.5.4.9 0 .6-.4.9-.8 1.1.3.1.5.4.6.8.1.5.3 1.1.3 1.2h-1c-.1-.1-.2-.5-.3-1-.1-.6-.3-.7-.7-.7H21v1.7h-1zm1-2.4h.4c.5 0 .8-.2.8-.6 0-.4-.3-.6-.7-.6h-.4v1.2z"/>
      <polygon points="31,193.9 28.2,193.9 28.2,189.5 30.9,189.5 30.9,190.3 29.2,190.3 29.2,191.2 30.8,191.2 30.8,192 29.2,192 29.2,193.1 31,193.1"/>
      <path d="M37.1 193.9c-.5 0-1-.1-1.2-.3l.2-.8c.3.1.7.3 1.1.3.5 0 .7-.2.7-.5s-.2-.4-.7-.6c-.7-.3-1.2-.7-1.2-1.3 0-.7.6-1.3 1.6-1.3.5 0 .9.1 1.1.2l-.2.8c-.2-.1-.5-.2-.9-.2s-.6.2-.6.4c0 .3.2.4.8.6.8.3 1.1.7 1.1 1.3 0 .8-.6 1.4-1.8 1.4"/>
      <polygon points="46.6,193.9 43.8,193.9 43.8,189.5 46.5,189.5 46.5,190.3 44.8,190.3 44.8,191.2 46.4,191.2 46.4,192 44.8,192 44.8,193.1 46.6,193.1"/>
      <path d="M55.5 193.9h-1.1l-.3-1.1h-1.3l-.3 1.1h-1l1.3-4.4h1.3l1.4 4.4zM53 192h1l-.3-.9c-.1-.3-.2-.6-.2-.8 0 .3-.1.6-.2.8l-.3.9zM63.7 193.9h-1c-.1-.1-.2-.5-.3-1-.1-.6-.3-.7-.7-.7h-.3v1.7h-1v-4.3c.3-.1.8-.1 1.3-.1.6 0 1.1.1 1.4.3.3.2.4.5.4.9 0 .6-.4.9-.8 1.1.3.1.5.4.6.8.2.5.3 1.1.4 1.3m-2.3-2.4h.4c.5 0 .8-.2.8-.6 0-.4-.3-.6-.7-.6h-.4v1.2zM70.9 193.9c-1.5 0-2.3-.9-2.3-2.2 0-1.5 1.1-2.3 2.4-2.3.5 0 .9.1 1.1.2l-.2.8c-.2-.1-.5-.2-.8-.2-.8 0-1.4.5-1.4 1.5 0 .9.5 1.4 1.4 1.4.3 0 .6-.1.8-.1l.1.8c-.1 0-.6.1-1.1.1"/>
      <polygon points="80.6,193.9 79.6,193.9 79.6,192.1 78,192.1 78,193.9 77,193.9 77,189.5 78,189.5 78,191.2 79.6,191.2 79.6,189.5 80.6,189.5"/>
      <polygon points="22.7,196.5 22.7,197.3 21,197.3 21,198.3 22.6,198.3 22.6,199.1 21,199.1 21,200.8 20,200.8 20,196.5"/>
      <path d="M29.8 198.6c0 1.4-.9 2.3-2.1 2.3-1.3 0-2.1-1-2.1-2.2 0-1.3.8-2.3 2.1-2.3 1.4 0 2.1 1 2.1 2.2m-2.1 1.5c.7 0 1-.6 1-1.5 0-.8-.4-1.5-1-1.5-.7 0-1.1.7-1.1 1.5.1.9.4 1.5 1.1 1.5zM36.3 196.5v2.4c0 1.3-.7 2-1.8 2s-1.7-.6-1.7-2v-2.4h1v2.5c0 .8.3 1.1.8 1.1s.8-.4.8-1.1v-2.5h.9zM42.9 196.5v4.4h-1l-.9-1.7c-.3-.5-.6-1-.8-1.5v3.2h-.9v-4.4h1.2l.9 1.6c.3.5.5 1 .7 1.5-.1-.6-.1-1.2-.1-1.8v-1.3h.9zM49.7 198.5c0 .8-.3 1.4-.7 1.8-.5.4-1.2.6-2 .6-.5 0-.9 0-1.1-.1v-4.3c.4-.1.8-.1 1.3-.1.8 0 1.4.1 1.8.5.4.3.7.9.7 1.6m-2.5 1.6c.9 0 1.5-.5 1.5-1.5 0-.9-.5-1.4-1.4-1.4h-.4v2.9h.3zM56.6 200.8h-1.1l-.3-1.1H54l-.3 1.1h-1l1.3-4.4h1.3l1.3 4.4zm-1.5-1.8l-.3-.9c-.1-.3-.2-.6-.2-.8-.1.3-.1.6-.2.8l-.3.9h1z"/>
      <polygon points="63,196.5 63,197.3 61.8,197.3 61.8,200.8 60.8,200.8 60.8,197.3 59.6,197.3 59.6,196.5"/>
      <rect x="65.9" y="196.5" width="1" height="4.4"/>
      <path d="M74 198.6c0 1.4-.9 2.3-2.1 2.3-1.3 0-2-1-2-2.2 0-1.3.8-2.3 2.1-2.3s2 1 2 2.2m-2.1 1.5c.7 0 1-.6 1-1.5 0-.8-.4-1.5-1-1.5-.7 0-1.1.7-1.1 1.5.1.9.5 1.5 1.1 1.5zM80.6 196.5v4.4h-1l-.9-1.7c-.3-.5-.6-1-.8-1.5v3.2H77v-4.4h1.1l.9 1.6c.3.5.5 1 .7 1.5-.1-.6-.1-1.2-.1-1.8v-1.3h1z"/>
      <polygon points="22.7,196.5 22.7,197.3 21,197.3 21,198.3 22.6,198.3 22.6,199.1 21,199.1 21,200.8 20,200.8 20,196.5"/>
      <path d="M29.8 198.6c0 1.4-.9 2.3-2.1 2.3-1.3 0-2.1-1-2.1-2.2 0-1.3.8-2.3 2.1-2.3 1.4 0 2.1 1 2.1 2.2m-2.1 1.5c.7 0 1-.6 1-1.5 0-.8-.4-1.5-1-1.5-.7 0-1.1.7-1.1 1.5.1.9.4 1.5 1.1 1.5zM36.3 196.5v2.4c0 1.3-.7 2-1.8 2s-1.7-.6-1.7-2v-2.4h1v2.5c0 .8.3 1.1.8 1.1s.8-.4.8-1.1v-2.5h.9zM42.9 196.5v4.4h-1l-.9-1.7c-.3-.5-.6-1-.8-1.5v3.2h-.9v-4.4h1.2l.9 1.6c.3.5.5 1 .7 1.5-.1-.6-.1-1.2-.1-1.8v-1.3h.9zM49.7 198.5c0 .8-.3 1.4-.7 1.8-.5.4-1.2.6-2 .6-.5 0-.9 0-1.1-.1v-4.3c.4-.1.8-.1 1.3-.1.8 0 1.4.1 1.8.5.4.3.7.9.7 1.6m-2.5 1.6c.9 0 1.5-.5 1.5-1.5 0-.9-.5-1.4-1.4-1.4h-.4v2.9h.3zM56.6 200.8h-1.1l-.3-1.1H54l-.3 1.1h-1l1.3-4.4h1.3l1.3 4.4zm-1.5-1.8l-.3-.9c-.1-.3-.2-.6-.2-.8-.1.3-.1.6-.2.8l-.3.9h1z"/>
      <polygon points="63,196.5 63,197.3 61.8,197.3 61.8,200.8 60.8,200.8 60.8,197.3 59.6,197.3 59.6,196.5"/>
      <rect x="65.9" y="196.5" width="1" height="4.4"/>
      <path d="M74 198.6c0 1.4-.9 2.3-2.1 2.3-1.3 0-2-1-2-2.2 0-1.3.8-2.3 2.1-2.3s2 1 2 2.2m-2.1 1.5c.7 0 1-.6 1-1.5 0-.8-.4-1.5-1-1.5-.7 0-1.1.7-1.1 1.5.1.9.5 1.5 1.1 1.5zM80.6 196.5v4.4h-1l-.9-1.7c-.3-.5-.6-1-.8-1.5v3.2H77v-4.4h1.1l.9 1.6c.3.5.5 1 .7 1.5-.1-.6-.1-1.2-.1-1.8v-1.3h1z"/>
    </g>
    <g id="logo" fill="#003E6F">
      <polygon points="20,125.6 72.7,125.6 72.7,133.5 80.6,133.5 80.6,186.2 20,186.2" fill-rule="evenodd" clip-rule="evenodd" fill="#003e6f"/>
      <rect x="75.5" y="125.6" width="5.1" height="5.1" fill="#fff"/>
    </g>
    <g id="txt_1_" fill="#fff">
      <path d="M69.6 183.1c-.7 0-1.3-.2-1.8-.6-.5-.4-.9-.9-1.2-1.5-.3-.6-.5-1.3-.6-1.9-.1-.7-.2-1.3-.2-1.9 0-.6.1-1.4.2-2.2.1-.8.3-1.6.5-2.3.3-.7.7-1.4 1.2-1.9s1.1-.8 1.9-.8c.8 0 1.4.2 1.9.6.5.4.9.9 1.2 1.6.6 1.4.8 2.7.8 4.1 0 1.3-.2 2.7-.8 4.3-.3.7-.7 1.3-1.2 1.8-.4.5-1.1.7-1.9.7m5.2-3.1c.2.9.4 1.7.8 2.6.2.4.4.7.8 1 .3.3.7.4 1.2.4.4 0 .7-.1 1-.4.2-.3.4-.6.5-.9l.3-1.2v-1.2h-.6c0 .3-.1.6-.3.9-.2.3-.5.5-.9.5-.3 0-.5-.1-.7-.4-.2-.2-.5-.5-.6-.8-.2-.3-.3-.6-.5-.9-.1-.3-.2-.5-.2-.6 0-.2.1-.5.3-1 .2-.4.3-.8.3-1 .7-2.4 1.3-4.9 1.8-7.5h-2.7l-1 5.1h-.1c-.2-1.3-.6-2.5-1.3-3.6-.7-1.1-1.9-1.7-3.4-1.7-2 0-3.6.8-4.8 2.4-1.2 1.5-1.8 3.3-1.8 5.2 0 1.9.6 3.6 1.7 5 1.1 1.5 2.6 2.2 4.6 2.3 1.5 0 2.7-.5 3.7-1.4.9-1 1.6-1.8 1.9-2.8zM28.2 169.7c-2 0-3.6.7-4.9 2.2-1.3 1.5-1.9 3.2-1.9 5.3 0 2.1.6 3.8 1.8 5 1.2 1.2 2.5 1.8 4.1 1.8 1.6 0 3-.7 4.2-2 .6-.7 1.2-1.6 1.8-2.8l-.4-.3c-.6.8-1.1 1.5-1.5 1.9-.8.7-1.7 1-2.7 1-1.5 0-2.6-.6-3.5-1.8-.9-1.2-1.3-2.5-1.3-4 0-1.6.4-3 1.2-3.9.8-1 1.7-1.5 2.9-1.5.5 0 1 .1 1.3.3.3.2.5.6.7 1.1l.2.7c.1.5.3.8.6 1 .3.2.6.4.9.4.5 0 .8-.1 1.1-.4.2-.3.3-.6.3-.9 0-.8-.4-1.5-1.3-2.1-1.3-.7-2.4-1-3.6-1"/>
      <path d="M56.9 171.4c1.1 0 1.8.4 2.2 1.2.2.5.3 1.2.3 2.1v6.4c0 .8-.1 1.4-.4 1.6-.3.3-.9.4-1.7.5v.4H64v-.4c-.8-.1-1.4-.2-1.7-.5-.3-.3-.5-.7-.5-1.4v-6.2c0-1.6-.2-2.8-.5-3.5-.5-1.3-1.6-2-3.2-2-1 0-1.9.3-2.9.9-.5.4-1.2.9-1.9 1.7-.2-.6-.5-1.2-.8-1.5-.6-.7-1.4-1-2.4-1-.7 0-1.5.2-2.2.5-.7.3-1.6 1-2.5 1.9v-2-.3l-.1-.1c-.1 0-.5.2-1.4.5-.9.3-1.5.6-1.9.7l-1.1.4v.5c.1 0 .3-.1.4-.1h.5c.4 0 .8.1 1 .3.2.2.3.7.3 1.4v7.7c0 .9-.2 1.4-.6 1.7-.3.2-.8.3-1.5.4v.4h6.8v-.4c-.9 0-1.5-.2-1.7-.4-.3-.3-.4-.8-.4-1.5v-8.2c.4-.5 1-1 1.5-1.3.6-.3 1.2-.5 1.8-.5 1.1 0 1.7.5 2.1 1.5.2.6.3 1.6.3 3.2v4.2c0 1.3-.1 2.2-.4 2.5-.3.3-.9.6-1.8.7v.4H56v-.4c-.9 0-1.5-.3-1.8-.7-.3-.4-.4-1-.4-1.8v-7.7c.5-.6 1-1 1.4-1.2.4-.4 1.1-.6 1.7-.6M34.3 171.5c.5 0 .8.2.9.6.1.3.1.7.1 1.4v7.1c0 1.2-.1 1.9-.4 2.2-.3.3-.9.4-2 .5v.4h7.2v-.4c-1-.1-1.6-.3-1.8-.6-.3-.3-.4-1-.4-2.1V169.8c-.1 0-.3.1-.5.2-.7.3-1.9.7-3.6 1.2l-.6.2v.4c.5-.1.8-.2.9-.2 0-.1.1-.1.2-.1M36.6 160.9c-.4 0-.8.2-1.1.5-.3.3-.5.7-.5 1.1 0 .4.2.8.5 1.1.3.3.7.5 1.1.5.4 0 .8-.2 1.1-.5.3-.3.5-.7.5-1.1 0-.4-.1-.8-.5-1.1-.3-.4-.6-.5-1.1-.5"/>
    </g>
  </symbol>
  <symbol id="logo_x5F_gfdrr" viewBox="320 100 430 120">
    <g fill="#fff">
      <g id="logo_1_">
        <path d="M380.7 115.3c-25.3 0-45.7 20.5-45.7 45.7 0 20 12.8 37 30.7 43.2-15.8-6.4-27-21.9-27-40 0-23.8 19.3-43.2 43.2-43.2 23.8 0 43.2 19.3 43.2 43.2 0 7-1.7 13.6-4.6 19.4 3.8-6.7 6-14.4 6-22.6 0-25.2-20.5-45.7-45.8-45.7z"/>
        <path class="st6" d="M389.3 125.2c16 3.8 27.9 18.2 27.9 35.3 0 20-16.3 36.3-36.4 36.3-20.1 0-36-16-36-36.1 0-1.8-.9-.1-.9 2.7 0 21.4 17.4 38.8 38.8 38.8s38.8-17.4 38.8-38.8c-.1-19.1-14-35-32.2-38.2z"/>
        <path class="st6" d="M373.1 193.1c.1.1.2.1.3.1 0 0-.2-.1-.3-.1zM386.2 193.8c.1 0 .1 0 0 0 .1 0 .1 0 0 0z"/>
        <g>
          <path class="st6" d="M346.5 157.3c.2-.9.1-1.1.3-2.3.1-1 .4-2.3.7-3.3 4-13.3 16.3-22.6 31.5-22.6 4.4 0 8.6.8 12.4 2.3.6.1 1.2.1 1.8.1l.1-.2c-4.6-2.2-9.5-3.7-15.1-3.8-17.1-.2-30 10.9-33 25-.3 1.3-.6 2.8-.4 4 .2 1.4 1.3 1.7 1.7.8z"/>
        </g>
        <g>
          <path d="M410.3 172s-.7.6-1.5 1.2-3.7 2.3-5.9 2.9c1-2.5 2.1-4.9 2.8-7.4 1.4-3.7 1.6-7.5 1.8-7.8 2-1.3 3.3-3.4 3.9-4.6.8-1.4.8-2.5.6-2.6-.2-.2-.8.8-1.1 1.4-1.1 1.6-1.9 3.1-3.5 4.1 0 0-.2-8.3-3.7-10.8 1.6 4 2.7 8 2 12.1-2.5 1.4-6.3 2.6-9 2.9v-.7c.6-4.2.5-7.8-.1-11.8 1.6-.8 3.2-1.6 4.4-3 1.8-2.2 2-4.4 1.1-6.6l-.1-.1c-.7.7-.1 1.7-.9 3.6-1 2.1-2.5 3.2-4.7 4-.5-2.4-1.9-7.7-4.7-10 1.6 3.5 3.5 7.9 3.2 10.4-4 .8-7.1.7-10.9-.9 1.5-2.2 3.1-6 4.4-8.5l-.1-.4c-2.1 2.1-4 6.1-5.9 8.4-1.7-.9-3.2-1.9-4.5-3.2-.7-1-1.3-1.4-1.6-2.7 2.2-1.5 5.7-3.3 8.9-3.6l-.5-.4c-2.9.2-5.9 1.2-8.8 2.4-.1-1.6 0-3.4 1-4.8 2-.9 4.8-.6 6.6-.4-2.2-1-3.2-1.3-4.9-1.3.2-.7 1.3-.7 1.3-1.3-1.5-.1-2.4.5-3.7 1.4-7.3.2-12.3 4.5-12.3 4.5.7-2.1 1-2.8 2.7-3.9-2.2.7-3.7 1.5-5 5.4-4.8 3.5-5.1 4.9-5.7 7 2.2-2.9 3.9-3.9 5.3-4.8-.4 1.7.4 6.1 2.4 8.8-2.8 3.5-5.8 7.3-7.4 11.5-1.1-1.8-2-3.2-2.7-5.3-.9-2.3-1.5-4.4-1.7-6.2l-.4 1c0 .3-.1 1.1-.1 1.4.2 4.2 1.4 8.2 4 11.9-1 3.6-2.3 8.2-.7 11.8.9-2.8.8-6.1 2.4-8.5 3 3.9 6.9 7 11.3 9.6-.5 3-1 6.1-1.3 8.9-4.1-2-7.6-4.2-10.5-7.3h-.2c.2.8.4 1.1.9 2.2 2.2 3.7 5.6 5.6 9.7 7.6.2.1-.2 2.1.6 2.6.5.5 1.5 1.4 1.4-1.6 4.6 1.5 8.6 1.1 13.2.9l3.8-.9c-4.7-.2-12.1-.2-16.8-2.4.4-3.4.9-6.3 1.4-9.2l.3.1c5.2 2.1 11.5 2.8 15.7 2.7.2 0 .3-.9.3-.9-.3-.2-.3-.2-.8-.6-.4-.1-.9-.7-1.3-.9-.4-.1-.4-.1-1-.2-4.4-.2-8.6-.8-12.7-3.1 1.3-4.5 2.9-8.6 5.2-12.9 5.9 2.3 11.5 3.6 17.6 2.6-.7 4.1-1.7 7.3-3.3 11.3l-2.2 5.2s-1.7 3.6-2.8 5.1c2.1-1.3 4.3-5 4.8-5.8.4-.7 1.6-3.4 1.6-3.4 1.8-4.1 3.5-8.4 4.3-12.7 2.8-.8 6.2-1.4 8.8-2.9-.4 4.2-2.2 9.7-4.1 14.4l-.6 1.4-.5 1c-1.3 2.1-1.2 2.6-1.9 3.5 2.4-2.4 2.6-2.5 3.5-3.8 1.9-1.2 4.2-2 6.1-3.3-5.4 9.8-15.1 16.1-26.3 18.1v.2c10.1.3 18.6-5.6 24.9-12.6 2.9-3.5 5-7.6 6.3-11.5l-.8.9-1.3 1.2zm-45.2-23.2c-1.6-2.8-2.1-5.3-1.5-8.4 3.2-2.5 6.8-4.9 11.6-5.1-1 1.9-1.1 3.9-.8 5.8m-5.2 33.5c-4.5-2.4-7.9-6.2-11-9.7 1-4.9 4.1-8.6 6.8-12.2 2.4 3.4 5.4 6.3 9 8.7-2.4 4.2-4.4 10.5-4.8 13.2zm6.2-15.4c-3.9-1.7-6.5-5.1-9.1-8.2 2.3-3.3 5.2-5.9 8.6-7.9 1.4 2.7 3.9 4.5 6.5 6.1l-6 10zm19.1 4c-5.7.3-11.3.1-16.9-2.6 1.4-3 3.2-6.6 5.7-10.6 3.8 1.5 7.8 1.7 11.7 1.2.7 4 .4 7.8-.5 12zM402.3 139.9v0z"/>
        </g>
        <g>
          <radialGradient id="SVGID_1_" cx="373.0947" cy="132.9225" r=".1245" gradientTransform="matrix(1 0 0 -1 0 326)" gradientUnits="userSpaceOnUse">
            <stop offset="0" stop-color="#fff"/>
            <stop offset=".0262" stop-color="#dbdbdb"/>
            <stop offset=".0863" stop-color="#8e8e8e"/>
            <stop offset=".14" stop-color="#515151"/>
            <stop offset=".1852" stop-color="#252525"/>
            <stop offset=".2202" stop-color="#0a0a0a"/>
            <stop offset=".2407"/>
          </radialGradient>
          <path d="M372.9 193c.1.1.2.1.3.1 0 0-.2 0-.3-.1z" fill="url(#SVGID_1_)"/>
          <radialGradient id="SVGID_2_" cx="386.0686" cy="132.3196" r=".03324626" gradientTransform="matrix(1 0 0 -1 0 326)" gradientUnits="userSpaceOnUse">
            <stop offset="0" stop-color="#fff"/>
            <stop offset=".0262" stop-color="#dbdbdb"/>
            <stop offset=".0863" stop-color="#8e8e8e"/>
            <stop offset=".14" stop-color="#515151"/>
            <stop offset=".1852" stop-color="#252525"/>
            <stop offset=".2202" stop-color="#0a0a0a"/>
            <stop offset=".2407"/>
          </radialGradient>
          <path d="M386 193.7c.1 0 .1 0 0 0 .1 0 .1 0 0 0z" fill="url(#SVGID_2_)"/>
        </g>
      </g>
      <g id="payoff_1_">
        <path class="st6" d="M459.8 195.7c-.6-.3-1.5-.4-2.1-.4-1.9 0-3 1.3-3 3s1 3 2.8 3c.4 0 .8-.1 1.1-.1V199h-1.8v-1.3h3.4v4.5c-.9.2-1.8.4-2.7.4-2.7 0-4.6-1.4-4.6-4.2 0-2.9 1.7-4.5 4.6-4.5 1 0 1.7.1 2.4.4l-.1 1.4zM461.8 193.5h1.6v8.9h-1.6v-8.9zM467.9 196.1c1.8 0 3.2 1.2 3.2 3.3 0 1.8-1.2 3.2-3.2 3.2s-3.2-1.4-3.2-3.2c0-2.1 1.4-3.3 3.2-3.3zm0 5.2c1.2 0 1.6-1.1 1.6-2.1 0-.9-.5-1.8-1.6-1.8-1 0-1.5.9-1.5 1.8 0 1 .3 2.1 1.5 2.1zM472.4 193.5h1.6v3.6c.4-.6 1-.9 1.8-.9 1.9 0 2.6 1.5 2.6 3.2 0 1.7-.7 3.2-2.6 3.2-.7 0-1.4-.2-1.9-.9v.7h-1.6v-8.9zm3 7.8c1 0 1.3-1.1 1.3-2 0-.8-.3-2-1.3-2s-1.4 1.1-1.4 2c0 .9.4 2 1.4 2zM480 196.6c.6-.3 1.5-.5 2.1-.5 1.9 0 2.6.8 2.6 2.6v2.3c0 .5 0 .9.1 1.4h-1.4c-.1-.3-.1-.7-.1-.9-.4.7-1.2 1.1-1.9 1.1-1.1 0-2.1-.7-2.1-1.8 0-.9.4-1.4 1.1-1.7.6-.3 1.4-.4 2.1-.4h.9c0-1-.4-1.3-1.4-1.3-.7 0-1.4.3-1.9.7l-.1-1.5zm1.8 4.8c.5 0 .9-.2 1.1-.6.3-.4.3-.8.3-1.3h-.7c-.7 0-1.8.1-1.8 1.1.1.6.6.8 1.1.8zM486.4 193.5h1.6v8.9h-1.6v-8.9zM493.1 194.1h4.6v1.3h-3v2.1h2.8v1.3h-2.8v3.7H493v-8.4zM499.2 196.6c.6-.3 1.5-.5 2.1-.5 1.9 0 2.6.8 2.6 2.6v2.3c0 .5 0 .9.1 1.4h-1.4c-.1-.3-.1-.7-.1-.9-.4.7-1.2 1.1-1.9 1.1-1.1 0-2.1-.7-2.1-1.8 0-.9.4-1.4 1.1-1.7.6-.3 1.4-.4 2.1-.4h.9c0-1-.4-1.3-1.4-1.3-.7 0-1.4.3-1.9.7l-.1-1.5zm1.9 4.8c.5 0 .9-.2 1.1-.6.3-.4.3-.8.3-1.3h-.7c-.7 0-1.8.1-1.8 1.1.1.6.5.8 1.1.8zM509.5 197.6c-.3-.1-.6-.2-1.1-.2-1 0-1.6.8-1.6 1.9 0 1.1.5 2 1.7 2 .5 0 1-.2 1.2-.3l.1 1.3c-.5.1-.9.2-1.6.2-2 0-3-1.4-3-3.2 0-1.8 1.1-3.2 3-3.2.6 0 1.1.1 1.6.2l-.3 1.3zM510.9 193.6h1.6v1.5h-1.6v-1.5zm0 2.7h1.6v6.1h-1.6v-6.1zM514.2 193.5h1.6v8.9h-1.6v-8.9zM517.5 193.6h1.6v1.5h-1.6v-1.5zm0 2.7h1.6v6.1h-1.6v-6.1zM521.3 197.4h-1.2v-1.2h1.2V195l1.6-.5v1.7h1.4v1.2h-1.4v2.9c0 .5.1 1 .8 1 .3 0 .6-.1.7-.2v1.3c-.3.1-.7.1-1.2.1-1.3 0-1.9-.8-1.9-2v-3.1zM528 200.7l1.5-4.5h1.6l-2.3 6.1c-.5 1.4-.9 2.7-2.6 2.7-.4 0-.8-.1-1.1-.2l.1-1.2c.2.1.4.1.8.1.6 0 1-.4 1-1.1l-2.4-6.5h1.8l1.6 4.6zM536 197.4h-1.2v-1.2h1.2v-.9c0-1.2.7-2.1 2-2.1.4 0 .9.1 1.2.1l-.1 1.3c-.1-.1-.3-.2-.7-.2-.5 0-.7.5-.7.9v.8h1.4v1.2h-1.4v5H536v-4.9zM542.9 196.1c1.8 0 3.2 1.2 3.2 3.3 0 1.8-1.2 3.2-3.2 3.2s-3.2-1.4-3.2-3.2c-.1-2.1 1.3-3.3 3.2-3.3zm0 5.2c1.2 0 1.6-1.1 1.6-2.1 0-.9-.5-1.8-1.6-1.8-1 0-1.5.9-1.5 1.8-.1 1 .2 2.1 1.5 2.1zM547.4 196.3h1.4v1.4c.1-.6.7-1.5 1.7-1.5.2 0 .3 0 .5.1v1.6c-.2-.1-.4-.1-.7-.1-1.3 0-1.3 1.6-1.3 2.5v2.3h-1.6v-6.3zM555.4 194.1h2.3c2.6 0 4.8.9 4.8 4.2 0 3.3-2.3 4.2-4.8 4.2h-2.3v-8.4zm1.7 7h.9c1.4 0 2.7-1 2.7-2.8s-1.3-2.8-2.7-2.8h-.9v5.6zM563.9 193.6h1.6v1.5h-1.6v-1.5zm0 2.7h1.6v6.1h-1.6v-6.1zM570.9 197.6c-.5-.2-.8-.3-1.4-.3-.4 0-.9.2-.9.7 0 1 2.8.4 2.8 2.6 0 1.4-1.3 2-2.6 2-.6 0-1.2-.1-1.8-.3l.1-1.3c.5.3 1 .4 1.6.4.4 0 1.1-.2 1.1-.8 0-1.2-2.8-.4-2.8-2.6 0-1.3 1.2-1.9 2.4-1.9.7 0 1.2.1 1.7.2l-.2 1.3zM572.8 196.6c.6-.3 1.5-.5 2.1-.5 1.9 0 2.6.8 2.6 2.6v2.3c0 .5 0 .9.1 1.4h-1.4c-.1-.3-.1-.7-.1-.9-.4.7-1.2 1.1-1.9 1.1-1.1 0-2.1-.7-2.1-1.8 0-.9.4-1.4 1-1.7.6-.3 1.4-.4 2.1-.4h.9c0-1-.4-1.3-1.4-1.3-.7 0-1.4.3-1.9.7v-1.5zm1.9 4.8c.5 0 .9-.2 1.1-.6.3-.4.3-.8.3-1.3h-.7c-.7 0-1.8.1-1.8 1.1.1.6.5.8 1.1.8zM582.8 197.6c-.5-.2-.8-.3-1.4-.3-.4 0-.9.2-.9.7 0 1 2.8.4 2.8 2.6 0 1.4-1.3 2-2.6 2-.6 0-1.2-.1-1.8-.3l.1-1.3c.5.3 1 .4 1.6.4.4 0 1.1-.2 1.1-.8 0-1.2-2.8-.4-2.8-2.6 0-1.3 1.2-1.9 2.4-1.9.8 0 1.2.1 1.7.2l-.2 1.3zM585 197.4h-1.2v-1.2h1.2V195l1.6-.5v1.7h1.4v1.2h-1.4v2.9c0 .5.1 1 .8 1 .3 0 .6-.1.7-.2v1.3c-.3.1-.7.1-1.2.1-1.3 0-1.9-.8-1.9-2v-3.1zM594 202.1c-.6.3-1.3.5-2.1.5-2 0-3.2-1.2-3.2-3.2 0-1.8.9-3.3 2.8-3.3 2.3 0 2.9 1.6 2.9 3.7h-4.2c.1 1 .8 1.6 1.8 1.6.8 0 1.4-.3 2-.6v1.3zm-1-3.4c-.1-.8-.4-1.4-1.3-1.4s-1.4.6-1.4 1.4h2.7zM595.8 196.3h1.4v1.4c.1-.6.7-1.5 1.7-1.5.2 0 .3 0 .5.1v1.6c-.1-.1-.4-.1-.7-.1-1.3 0-1.3 1.6-1.3 2.5v2.3h-1.6v-6.3zM603.7 194.1h1.8c1.8 0 3.9-.1 3.9 2.3 0 1-.7 1.8-1.7 1.9.5 0 .7.5.9.9l1.3 3.3H608l-1-2.6c-.2-.6-.5-.9-1.2-.9h-.5v3.5h-1.7l.1-8.4zm1.7 3.5h.5c.8 0 1.8-.1 1.8-1.2 0-1-.9-1.1-1.8-1.1h-.5v2.3zM615.9 202.1c-.6.3-1.3.5-2.1.5-2 0-3.2-1.2-3.2-3.2 0-1.8.9-3.3 2.8-3.3 2.3 0 2.9 1.6 2.9 3.7h-4.2c.1 1 .8 1.6 1.8 1.6.8 0 1.4-.3 2-.6v1.3zm-1.1-3.4c-.1-.8-.4-1.4-1.3-1.4s-1.4.6-1.4 1.4h2.7zM621.7 201.7c-.5.6-1.2.8-1.9.8-1.9 0-2.6-1.6-2.6-3.2 0-1.7.7-3.2 2.6-3.2.8 0 1.4.3 1.8.9v-3.5h1.6v8.9h-1.6l.1-.7zm-1.5-.4c1.1 0 1.4-1.1 1.4-2 0-.9-.4-2-1.4-2-1 0-1.3 1.1-1.3 2 0 .9.3 2 1.3 2zM630.6 202.4H629v-.8c-.5.6-1.2 1-2 1-1.5 0-2.1-1-2.1-2.4v-3.9h1.6v3.3c0 .8 0 1.8 1 1.8 1.2 0 1.4-1.3 1.4-2v-3h1.6l.1 6zM636.2 197.6c-.3-.1-.6-.2-1.1-.2-1 0-1.6.8-1.6 1.9 0 1.1.5 2 1.7 2 .5 0 1-.2 1.2-.3l.1 1.3c-.5.1-.9.2-1.6.2-2 0-3-1.4-3-3.2 0-1.8 1.1-3.2 3-3.2.6 0 1.1.1 1.5.2l-.2 1.3zM638 197.4h-1.2v-1.2h1.2V195l1.6-.5v1.7h1.4v1.2h-1.4v2.9c0 .5.1 1 .8 1 .3 0 .6-.1.7-.2v1.3c-.3.1-.7.1-1.2.1-1.3 0-1.9-.8-1.9-2v-3.1zM642.2 193.6h1.6v1.5h-1.6v-1.5zm0 2.7h1.6v6.1h-1.6v-6.1zM648.3 196.1c1.8 0 3.2 1.2 3.2 3.3 0 1.8-1.2 3.2-3.2 3.2s-3.2-1.4-3.2-3.2c0-2.1 1.4-3.3 3.2-3.3zm0 5.2c1.2 0 1.6-1.1 1.6-2.1 0-.9-.5-1.8-1.6-1.8-1 0-1.5.9-1.5 1.8-.1 1 .3 2.1 1.5 2.1zM652.7 196.3h1.5v.8c.5-.7 1.2-1 2-1 1.5 0 2.1 1 2.1 2.4v3.9h-1.6v-3.3c0-.8 0-1.8-1-1.8-1.2 0-1.4 1.3-1.4 2v3h-1.6v-6zM663.6 196.6c.6-.3 1.5-.5 2.1-.5 1.9 0 2.6.8 2.6 2.6v2.3c0 .5 0 .9.1 1.4H667c-.1-.3-.1-.7-.1-.9-.4.7-1.2 1.1-1.9 1.1-1.1 0-2.2-.7-2.2-1.8 0-.9.4-1.4 1.1-1.7.6-.3 1.4-.4 2.1-.4h.9c0-1-.4-1.3-1.4-1.3-.7 0-1.4.3-1.9.7v-1.5zm1.9 4.8c.5 0 .9-.2 1.1-.6.3-.4.3-.8.3-1.3h-.7c-.7 0-1.8.1-1.8 1.1.1.6.5.8 1.1.8zM670 196.3h1.5v.8c.5-.7 1.2-1 2-1 1.5 0 2.1 1 2.1 2.4v3.9H674v-3.3c0-.8 0-1.8-1-1.8-1.2 0-1.4 1.3-1.4 2v3H670v-6zM681.4 201.7c-.5.6-1.2.8-1.9.8-1.9 0-2.6-1.6-2.6-3.2 0-1.7.7-3.2 2.6-3.2.8 0 1.4.3 1.8.9v-3.5h1.6v8.9h-1.5v-.7zm-1.5-.4c1.1 0 1.4-1.1 1.4-2 0-.9-.4-2-1.4-2-1 0-1.3 1.1-1.3 2 0 .9.3 2 1.3 2zM687.9 194.1h1.8c1.8 0 3.9-.1 3.9 2.3 0 1-.7 1.8-1.7 1.9.5 0 .7.5.9.9l1.3 3.3h-1.9l-1-2.6c-.2-.6-.4-.9-1.2-.9h-.5v3.5h-1.7l.1-8.4zm1.7 3.5h.6c.8 0 1.8-.1 1.8-1.2 0-1-.9-1.1-1.8-1.1h-.6v2.3zM700.1 202.1c-.6.3-1.3.5-2.1.5-2 0-3.2-1.2-3.2-3.2 0-1.8.9-3.3 2.9-3.3 2.3 0 2.9 1.6 2.9 3.7h-4.2c.1 1 .8 1.6 1.8 1.6.8 0 1.4-.3 2-.6l-.1 1.3zm-1.1-3.4c0-.8-.4-1.4-1.3-1.4s-1.4.6-1.4 1.4h2.7zM705.8 197.6c-.3-.1-.6-.2-1.1-.2-1 0-1.6.8-1.6 1.9 0 1.1.5 2 1.7 2 .5 0 1-.2 1.2-.3l.1 1.3c-.5.1-.9.2-1.6.2-2 0-3-1.4-3-3.2 0-1.8 1-3.2 3-3.2.6 0 1.1.1 1.5.2l-.2 1.3zM709.9 196.1c1.8 0 3.2 1.2 3.2 3.3 0 1.8-1.2 3.2-3.2 3.2s-3.2-1.4-3.2-3.2c0-2.1 1.4-3.3 3.2-3.3zm0 5.2c1.2 0 1.6-1.1 1.6-2.1 0-.9-.5-1.8-1.6-1.8-1 0-1.5.9-1.5 1.8 0 1 .3 2.1 1.5 2.1zM713.7 196.3h1.7l1.5 4.5 1.5-4.5h1.6l-2.3 6.1H716l-2.3-6.1zM726 202.1c-.6.3-1.3.5-2.1.5-2 0-3.2-1.2-3.2-3.2 0-1.8.9-3.3 2.8-3.3 2.3 0 2.9 1.6 2.9 3.7h-4.2c.1 1 .8 1.6 1.8 1.6.8 0 1.4-.3 2-.6v1.3zm-1.1-3.4c-.1-.8-.4-1.4-1.3-1.4s-1.3.6-1.4 1.4h2.7zM727.7 196.3h1.4v1.4c.1-.6.7-1.5 1.7-1.5.2 0 .3 0 .5.1v1.6c-.1-.1-.4-.1-.7-.1-1.3 0-1.3 1.6-1.3 2.5v2.3h-1.6v-6.3zM734.9 200.7l1.5-4.5h1.6l-2.3 6.1c-.5 1.4-.9 2.7-2.6 2.7-.4 0-.8-.1-1.1-.2l.1-1.2c.2.1.4.1.8.1.6 0 1-.4 1-1.1l-2.3-6.5h1.8l1.5 4.6z"/>
      </g>
      <line id="separator" x1="437.5" y1="121" x2="437.5" y2="198.6" fill="none" stroke="#666" stroke-width=".5187"/>
      <g id="txt">
        <linearGradient id="SVGID_3_" gradientUnits="userSpaceOnUse" x1="450.4595" y1="177.1403" x2="506.8858" y2="177.1403" gradientTransform="matrix(1 0 0 -1 0 326)">
          <stop offset="0" stop-color="#fff"/>
          <stop offset="0" stop-color="#dbdbdb" stop-opacity=".9891"/>
          <stop offset="0" stop-color="#8e8e8e" stop-opacity=".9641"/>
          <stop offset="0" stop-color="#515151" stop-opacity=".9418"/>
          <stop offset="0" stop-color="#252525" stop-opacity=".9231"/>
          <stop offset="0" stop-color="#0a0a0a" stop-opacity=".9085"/>
          <stop offset="0" stop-opacity=".9"/>
          <stop offset=".9292" stop-opacity=".9"/>
        </linearGradient>
        <path d="M504.1 129c-5-2.3-11.5-3.4-16.7-3.4-15.1 0-23.4 10.2-23.4 23.4s8.2 23.1 22 23.1c3.5 0 6.3-.4 8.5-.9v-16.9h-13.7v-10.2h26.1V179c-6.9 1.9-14 3.3-20.9 3.3-20.9 0-35.5-10.5-35.5-32.3 0-22.1 13.5-34.6 35.5-34.6 7.5 0 13.4 1 19 2.7l-.9 10.9z" fill="url(#SVGID_3_)"/>
        <linearGradient id="SVGID_4_" gradientUnits="userSpaceOnUse" x1="520.5062" y1="177.1389" x2="556.4517" y2="177.1389" gradientTransform="matrix(1 0 0 -1 0 326)">
          <stop offset="0" stop-color="#fff"/>
          <stop offset="0" stop-color="#dbdbdb" stop-opacity=".9891"/>
          <stop offset="0" stop-color="#8e8e8e" stop-opacity=".9641"/>
          <stop offset="0" stop-color="#515151" stop-opacity=".9418"/>
          <stop offset="0" stop-color="#252525" stop-opacity=".9231"/>
          <stop offset="0" stop-color="#0a0a0a" stop-opacity=".9085"/>
          <stop offset="0" stop-opacity=".9"/>
          <stop offset=".9292" stop-opacity=".9"/>
        </linearGradient>
        <path d="M520.5 116.5h35.9v10.2h-23v15.9h21.9v10.2h-21.9v28.4h-13v-64.7z" fill="url(#SVGID_4_)"/>
        <path d="M566.8 116.5h17.7c19.8 0 37.3 6.7 37.3 32.3 0 25.7-17.5 32.3-37.3 32.3h-17.7v-64.6zm13 54.5h7.2c10.8 0 21.3-8.1 21.3-22.1s-10.5-22.1-21.3-22.1h-7.2V171z"/>
        <linearGradient id="SVGID_5_" gradientUnits="userSpaceOnUse" x1="632.6252" y1="177.1395" x2="680.9827" y2="177.1395" gradientTransform="matrix(1 0 0 -1 0 326)">
          <stop offset="0" stop-color="#fff"/>
          <stop offset="0" stop-color="#dbdbdb" stop-opacity=".9891"/>
          <stop offset="0" stop-color="#8e8e8e" stop-opacity=".9641"/>
          <stop offset="0" stop-color="#515151" stop-opacity=".9418"/>
          <stop offset="0" stop-color="#252525" stop-opacity=".9231"/>
          <stop offset="0" stop-color="#0a0a0a" stop-opacity=".9085"/>
          <stop offset="0" stop-opacity=".9"/>
          <stop offset=".9292" stop-opacity=".9"/>
        </linearGradient>
        <path d="M632.6 116.5h14c13.9 0 30.5-.5 30.5 17.5 0 7.6-5.1 13.9-13.3 15v.2c3.5.3 5.6 3.8 6.9 6.7l10.4 25.3h-14.5l-7.8-20.2c-1.9-4.8-3.5-6.7-9-6.7h-4.2v26.9h-13v-64.7zm13 27.6h4.3c6.4 0 13.7-.9 13.7-9 0-7.8-7.2-8.4-13.7-8.4h-4.3v17.4z" fill="url(#SVGID_5_)"/>
        <linearGradient id="SVGID_6_" gradientUnits="userSpaceOnUse" x1="689.231" y1="177.1395" x2="737.5989" y2="177.1395" gradientTransform="matrix(1 0 0 -1 0 326)">
          <stop offset="0" stop-color="#fff"/>
          <stop offset="0" stop-color="#dbdbdb" stop-opacity=".9891"/>
          <stop offset="0" stop-color="#8e8e8e" stop-opacity=".9641"/>
          <stop offset="0" stop-color="#515151" stop-opacity=".9418"/>
          <stop offset="0" stop-color="#252525" stop-opacity=".9231"/>
          <stop offset="0" stop-color="#0a0a0a" stop-opacity=".9085"/>
          <stop offset="0" stop-opacity=".9"/>
          <stop offset=".9292" stop-opacity=".9"/>
        </linearGradient>
        <path d="M689.2 116.5h14c13.9 0 30.5-.5 30.5 17.5 0 7.6-5.1 13.9-13.3 15v.2c3.5.3 5.6 3.8 6.9 6.7l10.4 25.3h-14.5l-7.8-20.2c-1.8-4.8-3.5-6.7-9-6.7h-4.2v26.9h-13v-64.7zm13 27.6h4.3c6.4 0 13.7-.9 13.7-9 0-7.8-7.2-8.4-13.7-8.4h-4.3v17.4z" fill="url(#SVGID_6_)"/>
      </g>
    </g>
  </symbol>
  <symbol id="logo_x5F_deltares" viewBox="110 110 100 100">
    <g id="txt_3_" fill="#809AAA">
      <path class="st14" d="M146.4 145.5l-.1-.1.1.1zM146.6 145.8c0-.1 0-.1 0 0 0-.1 0-.1 0 0zM147 146.5zM146.2 145.3s0-.1 0 0c0-.1 0 0 0 0zM143.1 142c2.2 0 4 .6 5.3 1.7-1.3-1.1-3.1-1.7-5.3-1.7zM210.6 152.9c0-.5-.1-1-.4-1.6-.4-.9-1.5-1.1-2.3-1.4-.8-.3-1.5-.5-1.5-1.3v-.2c.1-.3.3-.5.6-.7.4-.1 1-.2 1.8-.2h.6c.3 0 .5-.2.5-.5v-1.4c-.5-.1-1-.2-1.5-.2h-.2-.1c-2.4 0-4.4.8-4.4 3.4 0 .5.1 1 .4 1.6.4.9 1.5 1.1 2.3 1.4.8.3 1.5.5 1.5 1.3v.2c-.1.3-.3.5-.6.7-.4.1-1 .2-1.8.2-.6 0-1.2-.1-1.6-.1v2.1c.7.1 1.3.2 2 .2H206.2c2.4-.1 4.4-1 4.4-3.5z"/>
      <path class="st14" d="M150.3 149.6v-.6c0-.4 0-.9-.1-1.3-.1-.5-.1-.9-.3-1.3-.1-.2-.1-.3-.2-.5 0-.1 0-.1-.1-.2-.1-.2-.2-.5-.3-.7-.1-.1-.2-.3-.2-.4-.2-.3-.5-.6-.8-.9-1.3-1.2-3.1-1.7-5.3-1.7h-.4-.1c-1.2 0-2.4.2-3.8.5V156c1.7.3 3.3.4 4.7.2.2 0 .3 0 .5-.1.2 0 .3-.1.4-.1.1 0 .3-.1.4-.1.1 0 .3-.1.4-.1.1 0 .3-.1.4-.1.1 0 .2-.1.4-.1h.1c.1 0 .2-.1.3-.2h.1c.1-.1.2-.1.3-.2h.1c.1-.1.2-.1.3-.2h.1c.1-.1.2-.1.3-.2 0 0 .1 0 .1-.1.1-.1.2-.1.2-.2 0 0 .1 0 .1-.1l.2-.2.1-.1.2-.2.1-.1.2-.2.1-.1.2-.2.1-.1c0-.1.1-.1.1-.2 0 0 .1-.1.1-.2s.1-.1.1-.2.1-.1.1-.2.1-.1.1-.2 0-.1.1-.2c0-.1.1-.1.1-.2s0-.1.1-.2c0-.1 0-.1.1-.2 0-.1 0-.2.1-.3v-.2c0-.1 0-.2.1-.3v-.2c0-.2 0-.3.1-.5v-.3zm-2.9-.2s0 .1 0 0V150.7c0 .1 0 .2-.1.2v.1c0 .1 0 .1-.1.2v.1c0 .1 0 .1-.1.2v.1c0 .1-.1.2-.1.2 0 .1-.1.1-.1.2v.1c0 .1-.1.1-.1.1v.1c0 .1-.1.1-.1.2s-.1.1-.1.2v.1l-.1.1c-.1 0-.1.1-.2.1-1.1.8-2.4.9-4.2.8v-9.5s2.6-.6 4.2.6c0 0 .1 0 .1.1h.1l.1.1.1.1c.1 0 .1.1.1.2l.1.1s0 .1.1.1v.1s0 .1.1.1v.1s0 .1.1.1v.1l.1.1v.1s0 .1.1.1c0 .1.1.1.1.2.1.3.2.5.2.8v.2c0 .2.1.4.1.7v.4c-.3.3-.3.5-.4.7z"/>
      <polygon class="st14" points="146.1,145.2 146.1,145.2 146.1,145.2"/>
      <polygon class="st14" points="146,145.1 146,145.1 146,145.1"/>
      <path class="st14" d="M147.1 146.7c.1.3.2.5.2.8 0-.2-.1-.5-.2-.8zM147.4 147.8c0 .2.1.4.1.7-.1-.3-.1-.5-.1-.7zM146.5 145.6c0 .1 0 0 0 0zM146.8 146.1zM146.7 145.9zM146.8 146.1s0-.1 0 0c0-.1 0-.1 0 0 0-.1 0 0 0 0zM146.6 145.8s.1 0 0 0c.1.1.1 0 0 0zM146.9 146.3c-.1-.1-.1-.2-.1-.2.1.1.1.2.2.3l-.1-.1zM146 145.1c-.1-.1-.1-.1 0 0-.1-.1-.1-.1 0 0-.1-.1-.1-.1 0 0zM146 145.1zM146 145.1zM146 145.1z"/>
      <polygon class="st14" points="146,145.1 146,145.1 146,145.1"/>
      <path class="st14" d="M165.4 152.3V142h-2c-.4 0-.7.3-.7.7v10.4c0 2.6 1.8 3.5 4.4 2.8V154c-1.5.5-1.7-.5-1.7-1.7zM173.3 147.8c.3 0 .5-.2.5-.5v-1.4h-2.5V142h-2c-.4 0-.7.3-.7.7v10.4c0 2.6 2.5 3.5 5.1 2.8V154c-1.9.5-2.4-.2-2.4-1.8v-4.5h2z"/>
      <g>
        <path class="st14" d="M184.5 155.8V146c-11.9-4.2-13.2 14.6 0 9.8zm-2.6-1.9c-5.7 2.1-5-7.9 0-6.1v6.1z"/>
      </g>
      <g>
        <path class="st14" d="M160.7 150.7s0 .1 0 0c0 .1 0 0 0 0zM151.8 149.9c-.2 1.8.1 4.1 1.3 5.2 1.4 1.3 4.7 1.4 7 .6v-2c-1.9.8-5 .8-5.7-1.2v-.1c-.1-.4-.2-.8-.1-1.2H160.2c.3 0 .5-.2.5-.4 1-6.5-8.3-6.9-8.9-.9zm2.5-.4c.3-2.7 4.1-2.6 4 0h-4z"/>
      </g>
      <g>
        <path class="st14" d="M202 150.7s0 .1 0 0c0 .1 0 0 0 0zM193.1 149.9c-.2 1.8.1 4.1 1.3 5.2 1.4 1.3 4.7 1.4 7 .6v-2c-1.9.8-5 .8-5.7-1.2v-.1c-.1-.4-.2-.8-.1-1.2H201.5c.3 0 .5-.2.5-.4 1-6.5-8.3-6.9-8.9-.9zm2.5-.4c.3-2.7 4.1-2.6 4 0h-4z"/>
      </g>
      <path class="st14" d="M190.7 145.9c-2 0-3.6 1.6-3.6 3.6v6.5h2.7v-6.8c0-.8.6-1.4 1.4-1.4h.8c.3 0 .5-.2.5-.5v-1.4h-1.8z"/>
    </g>
    <g id="payoff_2_" fill="#0267A1">
      <path class="st15" d="M148.9 167.5c.1 0 .3 0 .5-.2.2-.1.4-.4.4-.8 0-.2-.1-.5-.2-.6-.2-.2-.4-.4-.6-.4-.1 0-.3-.1-.3-.1s-.4 0-.7.2c-.4.2-.7.6-.7 1.3V167.6c0 .7.4 1.1.7 1.3.3.2.7.2.7.2h1v-.6h-1-.1c-.1 0-.2 0-.3-.1-.2-.1-.4-.2-.4-.7l1-.2c-.1 0-.1 0 0 0zm-.6-1.3c.1-.1.2-.1.3-.1h.1s.2 0 .3.1c.1.1.2.1.2.4 0 .2-.1.3-.1.3H148c-.1-.4.1-.6.3-.7zM139.1 165.5s-.4 0-.7.2c-.4.2-.7.6-.7 1.3v1.1c0 .1 0 .3.1.5s.4.5.9.5.8-.2 1.1-.4c0 .5-.2.6-.4.7-.1.1-.2.1-.3.1H137.9v.6h1.1s.4 0 .7-.2c.4-.2.7-.6.7-1.3v-2.5-.6H139.1zm.7 2.3c-.1.1-.2.3-.4.4-.2.2-.4.3-.7.3-.2 0-.3-.1-.3-.2s-.1-.2-.1-.2V167c0-.5.2-.6.4-.7.1-.1.2-.1.3-.1H139.8v1.6zM116 168c0 .5.4.9.9.9h2v-.6H117c-.2 0-.4-.2-.4-.4v-1.1h2.3v-.6h-2.3v-1.3h2.3v-.6H116v3.7zM160.9 167.9v-3.6h-.6v3.8c0 .5.4.9.9.9h1.6v-.6h-1.5c-.2-.1-.4-.3-.4-.5z"/>
      <polygon class="st15" points="130.6,164.3 129.9,164.3 129.9,164.9 130.6,164.9 130.6,169 131.2,169 131.2,164.3 131.1,164.3"/>
      <polygon class="st15" points="150.7,164.3 150.1,164.3 150.1,164.9 150.7,164.9 150.7,169 151.4,169 151.4,164.3 151.3,164.3"/>
      <path class="st15" d="M125.2 165.5h-.7s-.4 0-.7.2c-.4.2-.7.6-.7 1.3v1.1c0 .1 0 .3.1.5s.4.5.9.5c.4 0 .8-.2 1.1-.4v.3h.6v-3.5h-.6zm0 2.3l-.4.4c-.2.2-.4.3-.7.3-.2 0-.3-.1-.3-.2s-.1-.2-.1-.2V167c0-.5.2-.6.4-.7.1-.1.2-.1.3-.1H125.2v1.6zM156.8 165.5h-.7s-.4 0-.7.2c-.4.2-.7.6-.7 1.3v1.1c0 .1 0 .3.1.5s.4.5.9.5c.4 0 .8-.2 1.1-.4v.3h.6v-3.5h-.6zm0 2.3l-.4.4c-.2.2-.4.3-.7.3-.2 0-.3-.1-.3-.2s-.1-.2-.1-.2V167c0-.5.2-.6.4-.7.1-.1.2-.1.3-.1H156.8v1.6zM128.7 165.4c-.5 0-.9.2-1.1.4v-1.6h-.6v4.7H128.3s.4 0 .7-.2c.4-.2.7-.6.7-1.3v-1.1c0-.1 0-.3-.1-.5s-.5-.4-.9-.4zm.4 1v1.1c0 .5-.2.6-.4.7-.1.1-.2.1-.3.1H127.6v-1.6l.4-.4c.2-.2.4-.3.7-.3.2 0 .3.1.3.2.1.1.1.2.1.2z"/>
      <polygon class="st15" points="132.4,165.5 131.7,165.5 131.7,166.1 132.4,166.1 132.4,169 133,169 133,165.5 132.9,165.5"/>
      <rect x="132.4" y="164.3" class="st15" width=".6" height=".6"/>
      <polygon class="st15" points="163.5,165.5 162.9,165.5 162.9,166.1 163.5,166.1 163.5,169 164.2,169 164.2,165.5 164.1,165.5"/>
      <rect x="163.5" y="164.3" class="st15" width=".6" height=".6"/>
      <path class="st15" d="M121.8 165.6c-.2-.1-.4-.2-.6-.2-.4 0-.8.2-1 .4v-.4h-.6v3.5h.6v-2.1c.1-.1.2-.3.4-.4.2-.2.4-.3.6-.3.1 0 .2 0 .2.1.1 0 .1.1.1.2v2.6h.6v-2.5s0-.3-.1-.5c.1-.2 0-.3-.2-.4zM136.3 165.6c-.2-.1-.4-.2-.6-.2-.4 0-.8.2-1 .4v-.4h-.6v3.5h.6v-2.1c.1-.1.2-.3.4-.4.2-.2.4-.3.6-.3.1 0 .2 0 .2.1.1 0 .1.1.1.2v2.6h.6v-2.5s0-.3-.1-.5c.1-.2 0-.3-.2-.4zM168.6 168.3s-.1 0 0 0c-.2 0-.3-.1-.4-.1-.2-.1-.4-.2-.4-.7h1c.1 0 .3 0 .5-.2.2-.1.4-.4.4-.8 0-.2-.1-.5-.2-.6-.2-.2-.4-.4-.6-.4-.1 0-.3-.1-.3-.1s-.4 0-.7.2c-.4.2-.7.6-.7 1.3V167.6c0 .7.4 1.1.7 1.3.3.2.7.2.7.2h1v-.6l-1-.2zm-.4-2.1c.1-.1.2-.1.3-.1h.1s.2 0 .3.1c.1.1.2.1.2.4 0 .2-.1.3-.1.3h-1.1c0-.4.1-.6.3-.7zM153.3 168.3c0-.1-.1-.2-.1-.2v-1.9h.9v-.6h-.9v-.7h-.6v.7h-.5v.6h.5v1.8c0 .1 0 .3.1.5s.4.4.8.4h.6v-.6h-.6c-.2.1-.2 0-.2 0zM166.4 164.3c-.4 0-.7.2-.8.4-.1.2-.1.4-.1.5v.2h-.5v.6h.5v2.8h.6V166h.7v-.6h-.8v-.2s0-.1.1-.2c0-.1.1-.1.3-.1h.6v-.6h-.6zM146.5 165.9c0-.4-.1-.6-.2-.9-.2-.3-.6-.5-.8-.6-.3-.1-.5-.1-.5-.1h-1.9v4.6h1.5c.8 0 1.3-.3 1.6-.7.3-.4.3-.8.3-.9v-.1-1.3zm-.8 2c-.1.2-.4.4-1.1.4h-.9v-3.4h1.2s.3 0 .5.2c.2.1.4.3.4.8v1.5c.1.1.1.3-.1.5z"/>
    </g>
    <g id="logo_3_">
      <path class="st14" fill="#809AAA" d="M194.6 167.8c1.4 0 1.6-.1 1.6-.1.4-.2-.4-.8-.4-.8-1-.7-3.2-.5-3.2-.5s-.9.1-1.2-.2c-.4-.4.6-1.2.6-1.2s1.1-1.1.8-2.2c-.3-1.1-3.8-1.2-6.7-.6-2.8.6-4.9.8-5.6.2-.7-.6 1.2-3 1.2-3-1.6 1.1-3.3 2.3-3.6 4.6s4.2 1.4 4.2 1.4 3.8-.8 4.1.4c.3 1.2-2.7 3.5-2.7 3.5-5.1 4.2-6 8.1-6 8.8 0 .7.3.2.3.2 1-1.7 2.3-4.1 7.6-7.3 5.1-3.3 9-3.2 9-3.2z"/>
      <path class="st15" fill="#0267A1" d="M193.2 174.6l2-1.4s3.7-2.8-.6-2.7c-4.3.2-8.4 2.9-8.4 2.9-2.3 1.5-2.6 3.8-2.6 3.8s-.4 2.3 2.9 2.5c3.2.2 2.7 2.2 2.7 2.2-.9 3.9-8.8 3.5-8.8 3.5 8.5 2.1 13.1-3.6 14.7-6.3 1.6-2.6.1-3.1-1.8-3.3-1.9 0-.1-1.2-.1-1.2z"/>
    </g>
  </symbol>
  <symbol id="logo_x5F_gem" viewBox="220 115 95 90">
    <g fill="#fff">
      <g id="txt_4_">
        <path class="st16" d="M296.8 170.9l-.3-.3c-2.4-2.7-4.9-5.4-7.3-8.1-1.3-1.4-2.6-2.8-3.8-4.3-.2-.2-.4-.3-.7-.3h-2.3V188h7.8v-.5-6.6-5.7c0-.1-.1-.3.1-.5l.3.3c.5.5 1 1 1.5 1.6l4.2 4.5c.1.1.2.2.4.3.4 0 .7 0 1.1-.3l5.7-6 .4-.4V188c.9.1 7.5.1 7.8 0 .1-.8 0-29.7-.1-30.1h-2.1c-.4 0-.6.1-.8.4-3.8 4.1-7.5 8.2-11.3 12.3-.4 0-.5.1-.6.3zM256.3 168.1c0-.2 0-.3-.1-.4-.9-3.8-3-6.7-6.6-8.5-3.8-1.9-7.8-2.2-11.8-1-4.9 1.4-8.3 4.5-9.9 9.4-1 2.9-1.1 5.9-.5 8.9.8 4.2 3 7.4 6.7 9.6 4.3 2.5 8.9 2.8 13.6 1.4 2.7-.8 5-2.4 6.6-4.8 1.2-1.7 1.8-3.7 2.2-5.7.3-1.7.3-3.5.2-5.2 0-.3 0-.6-.1-.9-.6-.1-13.8-.1-14.1 0v6.6h6.3v.2c-.7 1.6-1.9 2.7-3.6 3.2-1.2.3-2.5.4-3.8.3-2.7-.3-4.7-1.7-5.7-4.2-1.1-2.5-1-5.1-.1-7.7.8-2.1 2.3-3.6 4.5-4.3 1.2-.4 2.3-.4 3.5-.3 2.2.2 3.8 1.2 4.9 3.2.1.1.1.2.2.3 2.6-.1 5.1-.1 7.6-.1zM277.5 175.8c.1-.4.1-6.4 0-6.8h-10.1v-4.3h11.1v-6.8h-18.7v30h19.1c.1-.5.1-6.4 0-6.8h-11.4c-.1-.7-.1-4.9 0-5.3h10z"/>
        <path d="M296.8 170.9l.4-.4c3.8-4.1 7.5-8.2 11.3-12.3.2-.3.5-.4.8-.4h2.1c.1.3.1 29.3.1 30.1-.3.1-6.9.1-7.8 0v-2.2-2.2-2.2-2.2-2.2-2.3l-.4.4-5.7 6c-.3.4-.7.4-1.1.3-.1 0-.3-.2-.4-.3l-4.2-4.5c-.5-.5-1-1-1.5-1.6l-.3-.3c-.2.1-.1.3-.1.5v12.8h-7.8v-30.1h2.3c.3 0 .5.1.7.3 1.3 1.4 2.5 2.8 3.8 4.3 2.4 2.7 4.9 5.4 7.3 8.1.3.1.4.2.5.4zM256.3 168.1h-7.5c-.1-.1-.1-.2-.2-.3-1-2-2.7-3-4.9-3.2-1.2-.1-2.4-.1-3.5.3-2.2.7-3.7 2.2-4.5 4.3-1 2.6-1 5.2.1 7.7s3 3.9 5.7 4.2c1.3.1 2.5.1 3.8-.3 1.7-.5 2.8-1.6 3.6-3.2v-.2h-6.3v-6.6c.3-.1 13.6-.1 14.1 0 0 .3.1.6.1.9.1 1.7.1 3.5-.2 5.2-.3 2-1 4-2.2 5.7-1.6 2.4-3.9 4-6.6 4.8-4.7 1.4-9.3 1.1-13.6-1.4-3.7-2.1-5.9-5.4-6.7-9.6-.6-3-.5-6 .5-8.9 1.6-4.9 5-8 9.9-9.4 4-1.2 8-.9 11.8 1 3.5 1.8 5.7 4.7 6.6 8.5v.5zM277.5 175.8h-10.1c-.1.4-.1 4.6 0 5.3h11.4c.1.3.1 6.3 0 6.8h-19.1v-30h18.7v6.8h-11.1v4.3h10.1c.2.4.2 6.4.1 6.8z"/>
      </g>
      <g id="logo_4_">
        <path class="st16" d="M287.4 153.9s0 .1 0 0c.6.1 1.1.1 1.7.1.4 0 .6-.1.9-.3 4-2.8 7.2-6.3 9.2-10.8 2.2-4.8 2.9-9.8 1.8-15-.8-3.7-2.6-6.9-5.3-9.6-.1-.1-.3-.3-.4-.3-.5-.1-1.1 0-1.7 0 .2.2.3.3.5.4 2.3 2 3.9 4.3 5 7.1 1.6 4.2 1.7 8.5.5 12.8-1.8 6.7-5.8 11.7-11.7 15.3-.2.1-.4.2-.5.3zM305.7 118.4c.1.1.1.2.1.2 3.6 4.4 5.4 9.4 5.8 15 .2 3.1-.1 6.2-.8 9.2-.9 3.8-2.5 7.3-4.7 10.6-.1.1-.2.3-.2.4.5.1.7 0 .9-.4.7-1.2 1.5-2.4 2.1-3.7 2.9-5.9 4-12.1 3.1-18.7-.6-4-2-7.7-4.3-11.1-.6-.5-1.2-1-2-1.5zM257.8 137.2c0 .1-.1.2-.1.3-.2.9-.4 1.7-.6 2.6-.2.7-.2 1.4 0 2.2.9 4.4 3 8.1 6.4 11.1.8.7.8.7 1.9.7h1c-6-4.2-8.6-9.9-8.6-16.9z"/>
        <path d="M287.4 153.9c.2-.1.3-.2.5-.3 5.9-3.5 9.9-8.6 11.7-15.3 1.2-4.3 1.1-8.6-.5-12.8-1.1-2.8-2.7-5.2-5-7.1-.1-.1-.2-.2-.5-.4h1.7c.1 0 .3.2.4.3 2.7 2.7 4.5 5.9 5.3 9.6 1.1 5.2.4 10.2-1.8 15-2.1 4.5-5.2 8-9.2 10.8-.3.2-.6.3-.9.3-.6 0-1.1 0-1.7-.1 0 .1 0 0 0 0zM305.7 118.4c.8.5 1.5.9 1.9 1.7 2.3 3.4 3.7 7.1 4.3 11.1.9 6.5-.2 12.8-3.1 18.7-.6 1.3-1.4 2.4-2.1 3.7-.2.4-.5.5-.9.4.1-.1.2-.3.2-.4 2.2-3.3 3.8-6.8 4.7-10.6.7-3 1-6.1.8-9.2-.4-5.6-2.2-10.7-5.8-15 .1-.2.1-.2 0-.4zM257.8 137.2c0 7 2.6 12.7 8.5 16.7h-1c-1.1 0-1.1 0-1.9-.7-3.4-3-5.5-6.7-6.4-11.1-.2-.7-.2-1.4 0-2.2.2-.9.4-1.7.6-2.6.2.1.2 0 .2-.1z"/>
        <path d="M292.2 129c-.9-4.4-3.5-7.7-7.7-9.5-3-1.3-6.1-1.5-9.3-.7-5.2 1.3-9 4.4-11.5 9-1.8 3.2-2.4 6.6-1.9 10.2.4 2.5 1.4 4.8 3 6.7 2.7 3.1 6.2 4.6 10.3 4.6 1.2 0 2.3-.1 3.5-.4 5.6-1.4 9.6-4.8 12.1-9.9 1.7-3.1 2.2-6.5 1.5-10zm-3.4 9.7c-2.3 4.3-5.7 7.1-10.5 8.3-3.1.8-6.2.5-9-1.2-3.2-1.8-4.9-4.6-5.5-8.2-.1-.6-.1-1.3-.2-1.6 0-3.3.9-6 2.5-8.4 2.4-3.6 5.6-6 9.9-7 3.2-.7 6.3-.3 9.1 1.4 2.9 1.8 4.5 4.5 5.1 7.8.6 3.2.1 6.2-1.4 8.9z"/>
        <path d="M284.4 130.9c-.3-2.2-1.3-4-3.1-5.3-1.7-1.3-3.7-1.6-5.8-1.4-4.6.6-8.4 4.9-8.4 9.6 0 2.4.8 4.4 2.6 6 1.9 1.6 4 2.1 6.4 1.8 5-.8 9-5.6 8.3-10.7zm-8.8 7.7c-1.5.2-2.9-.2-4-1.3s-1.5-2.4-1.4-3.8c.3-3 2.5-5.5 5.4-6.2.9-.2 1.8-.2 2.6.1 2 .6 3.2 2.4 3.2 4.6.1 3.2-2.6 6.2-5.8 6.6z"/>
      </g>
      <g id="payoff_3_">
        <path class="st16" d="M292.8 199.1v-.6-.6-.6c.3.3.6.6.9 1 .3-.3.6-.7.9-1v1.9h1c.1-.3 0-4.1 0-4.3-.2-.1-.4 0-.5.2l-1.2 1.5-.2.2-.2-.2c-.4-.5-.8-1-1.2-1.4-.1-.2-.3-.3-.5-.2v4.3c.4-.2.7-.2 1-.2zM231.4 196.2c-.1-.7-.5-1.1-1.1-1.4-1-.4-2.2.1-2.6 1.1-.2.6-.2 1.1-.1 1.7.3 1 1.3 1.7 2.4 1.4 1-.2 1.6-1.2 1.3-2.4-.3-.1-1.6 0-1.8 0v.9h.8c-.1.3-.2.4-.4.5-.5.2-1.1 0-1.3-.6-.2-.4-.1-.8 0-1.2.3-.7 1.2-.8 1.6-.2 0 0 .1.1.2.1.4.1.7.1 1 .1zM267.4 194.8h-1v4.3h1v-1.7h1.2v1.7c.3.1.8.1 1 0v-4.3h-1v1.5h-1.2v-.8-.7zM285.4 197c.4-.3.6-.6.7-1 .1-.4.1-.8.1-1.2h-1v.5c0 .2-.1.4-.1.6-.1.4-.6.6-.9.4v-1.6h-1c-.1.3 0 4.1 0 4.3h1v-1.6c.4-.1.4-.1.5.2.2.4.4.8.7 1.2 0 .1.1.2.2.2h1c.1-.1 0-.2 0-.3-.3-.5-.6-1-.8-1.5-.3 0-.4-.1-.4-.2zM277.3 194.8v2.8c0 .3-.2.5-.5.6-.4 0-.7-.2-.7-.6v-2.5-.3c-.3-.1-.8 0-.9 0v2.9c0 .3.1.6.3.8.3.3.6.5 1 .5.8.1 1.8-.4 1.8-1.5v-2.6-.2c-.3.1-.6.1-1 .1zM254.5 194.8c-.4-.1-2.2 0-2.4 0-.1.3 0 4.1 0 4.3h2.5v-.9h-1.5v-.8h1.3v-1h-1.3v-.6h1.4v-1zM287 194.8c-.1.3 0 4.1 0 4.3.4.1 2.3 0 2.5 0v-.9H288v-.7h1.3v-1H288v-.6c.5-.1 1 0 1.4 0v-.9c-.8-.2-1.6-.2-2.4-.2zM305.2 194.8c-.1.4 0 4.1 0 4.3.4.1 2.3 0 2.4 0v-.9h-1.5v-.8h1.3v-1h-1.3c-.1-.3-.1-.4 0-.6h1.4v-1h-2.3zM229.4 205.6c.2-.9.5-1.7.7-2.6h.1c.3.9.5 1.7.7 2.6h.9c.3-1.1.5-2.2.8-3.4h-.5c0 .1-.1.2-.1.3l-.6 2.4c0 .1 0 .2-.1.2 0-.1-.1-.2-.1-.3-.2-.8-.4-1.5-.7-2.3 0-.1-.1-.2-.1-.3H230.1c-.2 0-.2 0-.3.2-.1.3-.2.6-.3 1-.1.5-.3 1-.4 1.5 0 .1 0 .2-.2.2-.2-1-.4-2-.7-2.9h-.5c.3 1.1.5 2.3.8 3.4h.9zM264.9 195.7h1v-1H263v1h1v3.3h1c-.1-1.1-.1-2.1-.1-3.3zM232.2 199.1h2.4v-1h-1.4v-3.3h-1v4.3zM309.5 194.8h-1v4.3c.3.1 2.2 0 2.4 0v-.9h-1.4v-3.4zM249.9 198.1h-1.4v-1.7-1.6h-.9c-.1.2-.1 4.1 0 4.3h2.4c-.1-.4-.1-.7-.1-1zM264.8 205.6h.5v-.8-1.8c0-.1 0-.2.1-.2.3-.1.7-.2 1.1-.2.3 0 .4.2.5.4 0 .2.1.4.1.6v2h.5v-.1-2.2c0-.2 0-.4-.1-.5-.1-.4-.4-.6-.8-.7-.3 0-.7 0-1 .1-.1 0-.2 0-.3.1v-1.7h-.5c-.1 1.7-.1 3.4-.1 5zM238.4 200.8v4.9h.5v-1.5h.2c.2-.1.4 0 .5.2.2.4.5.8.8 1.2 0 .1.1.1.2.1h.5c-.1-.1-.1-.2-.2-.3-.3-.5-.6-.9-.9-1.4-.1-.2-.1-.2 0-.4.3-.4.5-.7.8-1.1 0-.1.1-.1.2-.2h-.3c-.2 0-.3.1-.4.2-.2.3-.5.7-.7 1 0 .1-.1.1-.2.1h-.4v-.3-2.3-.3c-.3.1-.4.1-.6.1zM310.2 205.6c-.4-.6-.8-1.2-1.1-1.8.4-.5.7-1 1.1-1.5h-.2c-.2 0-.3.1-.5.2-.2.3-.5.7-.7 1 0 .1-.1.1-.2.1s-.3.1-.5 0v-2.8h-.5c-.1.5 0 4.7 0 4.9h.5v-1.5h.3c.2 0 .3 0 .4.2.2.3.4.7.7 1 .2.3.2.3.7.2zM242.8 202.2c-.1.4 0 3.2 0 3.4h.5v-.3-2-.3c0-.1 0-.1.1-.2.3-.1.6-.2 1-.2.3 0 .5.2.5.5 0 .2.1.3.1.5v2.1h.5v-.1-2.1c0-.2 0-.4-.1-.6-.1-.4-.4-.6-.8-.6-.3 0-.6 0-1 .1-.1 0-.2.1-.3.1 0-.1-.1-.1-.1-.2-.1-.1-.3-.1-.4-.1zM293.7 205.6c.5.1 1.1.2 1.5.1h.3c.5-.1.7-.4.8-.9v-.2c0-.4-.2-.6-.5-.7-.2-.1-.5-.1-.7-.2-.2 0-.4-.1-.6-.1-.2-.1-.3-.2-.3-.4 0-.3.2-.5.5-.5h.8c.2 0 .4 0 .6.1v-.4c-.5-.1-1-.2-1.5-.1-.7.1-1 .5-1 1.1 0 .3.1.5.4.6.2.1.3.1.5.2.3.1.6.1.8.2.2.1.3.2.3.4 0 .3-.1.5-.3.5-.1 0-.2.1-.3.1h-.8c-.2 0-.3 0-.5-.1v.3zM304.4 205.6c.3 0 .6.1.8.1h.6c.7-.1 1.1-.3 1-1.2 0-.3-.2-.6-.5-.7-.2-.1-.5-.1-.7-.2-.2 0-.4-.1-.5-.1-.2-.1-.3-.2-.3-.4s.1-.4.3-.5c.1 0 .2-.1.3-.1h.8c.2 0 .4 0 .6.1v-.4c-.5-.1-1-.2-1.5-.1-.2 0-.3.1-.5.1-.4.2-.5.6-.5 1s.3.6.6.7c.2.1.4.1.6.1.2 0 .4.1.6.1.2.1.3.2.3.4 0 .4-.2.6-.5.6h-.9c-.2 0-.4 0-.6-.1v.6zM299.1 202.3c-.5-.1-1-.2-1.5-.1-.7.1-1 .5-.9 1.2 0 .3.2.5.4.6.2.1.5.1.7.2.2.1.4.1.6.1.2.1.3.2.3.4 0 .3-.2.5-.5.6h-.9c-.2 0-.4 0-.6-.1v.4c.5.1 1 .2 1.5.1.2 0 .4-.1.6-.2.2-.1.3-.2.3-.4.1-.2.1-.5.1-.8 0-.2-.2-.4-.4-.5-.2-.1-.4-.1-.6-.2-.3-.1-.5-.1-.8-.2-.2 0-.3-.2-.3-.4s.1-.4.3-.5c.1 0 .2-.1.3-.1h.7c.2 0 .4 0 .6.1.1.1.1-.1.1-.2zM287.6 205.6c.1 0 .2 0 .3.1.2 0 .4.1.6.1.3 0 .6 0 .9-.1.5-.1.7-.4.7-.9v-.2c0-.4-.2-.6-.5-.7-.2-.1-.5-.1-.7-.2-.2 0-.4-.1-.5-.1-.2 0-.3-.2-.3-.3 0-.2 0-.4.2-.5.1-.1.3-.1.4-.1h.8c.2 0 .4 0 .5.1v-.4c-.5-.1-1-.2-1.4-.1-.7.1-1 .5-1 1.1 0 .3.2.5.4.6.2.1.3.1.5.1.3.1.5.1.8.2.2.1.3.2.3.4 0 .3-.1.5-.3.5-.1 0-.2.1-.3.1h-.8c-.2 0-.3 0-.5-.1-.1.1-.1.2-.1.4zM286.9 202.3c-.3 0-.5-.1-.8-.1h-.6c-.2 0-.4.1-.6.2-.4.2-.5.5-.5.9s.2.6.6.7c.2.1.4.1.6.1.2 0 .4.1.6.1.2.1.3.2.3.5s-.2.5-.6.5h-.9c-.2 0-.3 0-.5-.1v.4c.5.1 1 .2 1.5.1.2 0 .3-.1.5-.1.2-.1.4-.3.4-.5v-.6c0-.3-.2-.5-.4-.6-.2-.1-.4-.1-.5-.2-.3-.1-.5-.1-.8-.2-.2 0-.3-.2-.3-.4s.1-.4.3-.5c.1 0 .2-.1.3-.1h.8c.2 0 .4 0 .6.1v-.2zM262.7 202.7V204.6c0 .2 0 .4.1.6.1.3.2.4.5.5.3.1.7 0 1-.1v-.4h-.4c-.5 0-.6-.1-.6-.6v-1.8-.2h1v-.5h-1v-1h-.5v1h-.5v.4c.1.2.2.2.4.2zM252.5 205.2H251.9c-.3 0-.4-.1-.5-.4v-.3-1.7-.2h1v-.4h-1.1v-1h-.5v1h-.5v.4h.5V204.5c0 .2 0 .5.1.7.1.2.2.4.5.4.3.1.7 0 1-.1.1 0 .1-.1.1-.3zM274.9 202.7v1.8c0 .2 0 .5.1.7.1.2.2.4.4.4.4.1.7 0 1.1 0v-.4h-.7c-.2 0-.3-.1-.4-.3v-.4-1.6-.2h1v-.4h-1.1v-1h-.5v1h-.4v.4h.5zM236.8 205.6v-.3-1.9c0-.2.1-.3.3-.4.3-.1.5-.2.8-.3.1 0 .1 0 .2-.1v-.5c-.4.1-.8.3-1.2.5v-.4h-.5v3.4h.4zM301.2 202.3c-.1.3 0 3.2 0 3.4h.5v-.3-2c0-.2 0-.3.2-.3.3-.1.5-.2.8-.3.1 0 .1 0 .2-.1v-.5c-.4 0-.8.3-1.2.5v-.4h-.5zM273.1 202.2c-.4.1-.8.3-1.2.5v-.4h-.5v3.4h.4v-.3-1.9c0-.2.1-.3.2-.4.3-.1.6-.3 1-.4.1-.2.1-.3.1-.5zM241.9 205.6v-3.4h-.4v3.4h.4zM303.7 205.6v-3.4h-.4c-.1.3-.1 3.2 0 3.4h.4zM241.5 201.4h.5v-.5h-.5v.5zM303.3 200.9c0 .2-.1.4 0 .6h.4v-.6h-.4z"/>
        <path d="M292.8 199.1h-1v-4.3c.2-.1.4 0 .5.2.4.5.8 1 1.2 1.4l.2.2.2-.2 1.2-1.5c.1-.2.3-.3.5-.2.1.2.1 4 0 4.3h-1v-1.9c-.4.3-.6.7-.9 1-.3-.3-.6-.6-.9-1-.1.2 0 .4 0 .6v1.4zM231.4 196.2h-.9c-.1 0-.1-.1-.2-.1-.5-.6-1.3-.5-1.6.2-.2.4-.2.8 0 1.2.2.5.8.8 1.3.6.2-.1.3-.2.4-.5h-.8v-.9c.2-.1 1.5-.1 1.8 0 .2 1.2-.3 2.2-1.3 2.4-1.1.2-2.1-.4-2.4-1.4-.2-.6-.1-1.1.1-1.7.4-1 1.6-1.5 2.6-1.1.5.2.9.7 1 1.3zM267.4 194.8v1.6h1.2v-1.5h1v4.3c-.2.1-.7.1-1 0v-1.7h-1.2v1.7h-1v-4.3c.4-.2.7-.1 1-.1zM285.4 197c.1.1.1.2.1.3.3.5.6 1 .8 1.5.1.1.1.2 0 .3h-1c-.1 0-.1-.1-.2-.2-.2-.4-.4-.8-.7-1.2-.2-.3-.2-.3-.5-.2v1.6h-1c-.1-.2-.1-4 0-4.3h1v1.6c.3.1.8-.1.9-.4.1-.2.1-.4.1-.6v-.5h1c0 .4 0 .8-.1 1.2.2.3-.1.6-.4.9zM277.3 194.8h.9V197.6c0 1.2-1 1.6-1.8 1.5-.4-.1-.8-.2-1-.5-.2-.2-.3-.5-.3-.8V195v-.1c.2-.1.6-.1.9 0v2.8c0 .4.3.7.7.6.3 0 .5-.2.5-.6v-.2-2.3c.1-.2.1-.3.1-.4zM254.5 194.8v.9h-1.4v.6h1.3v1h-1.3v.8h1.5v.9c-.2.1-2.2.1-2.5 0-.1-.2-.1-4 0-4.3.2 0 2.1 0 2.4.1zM287 194.8h2.4v.9c-.5.1-.9 0-1.4 0v.6h1.3v1H288v.7c.5.1 1 0 1.5 0v.9c-.2.1-2.1.1-2.5 0 0 0-.1-3.8 0-4.1zM305.2 194.8h2.4v1h-1.4c-.1.2-.1.4 0 .6h1.3v1h-1.3v.8h1.5v.9c-.2.1-2.1.1-2.4 0-.1-.2-.1-4-.1-4.3zM229.4 205.6h-.8c-.3-1.1-.5-2.2-.8-3.4h.5c.2 1 .5 2 .7 2.9.2 0 .2-.1.2-.2.1-.5.3-1 .4-1.5.1-.3.2-.6.3-1 .1-.2.1-.2.3-.2H230.5c0 .1.1.2.1.3.2.8.4 1.5.7 2.3 0 .1.1.2.1.3.1-.1.1-.2.1-.2l.6-2.4c0-.1.1-.2.1-.3h.5c-.3 1.1-.5 2.3-.8 3.4h-.9c-.3-.8-.5-1.7-.7-2.6h-.1c-.3.9-.5 1.8-.8 2.6zM264.9 195.7v3.3h-1v-3.3h-1v-1h2.9v1h-.9zM232.2 199.1v-4.3h1v3.3h1.4v1h-2.4zM309.5 194.8v3.3h1.4c.1.2.1.6 0 .9-.2.1-2.1.1-2.4 0v-4.3c.4 0 .7.1 1 .1zM249.9 198.1v1c-.2.1-2.1.1-2.4 0-.1-.2-.1-4 0-4.3h.9v3.3h1.5zM264.8 205.6v-5h.5v1.7c.1 0 .2-.1.3-.1.3-.1.7-.2 1-.1.4 0 .7.2.8.7 0 .2.1.4.1.5V205.6h-.5v-.3-1.7c0-.2 0-.4-.1-.6-.1-.3-.2-.4-.5-.4-.4 0-.7 0-1.1.2-.1 0-.1.1-.1.2v2.6h-.4zM238.4 200.8h.5V203.7h.4c.1 0 .1-.1.2-.1.3-.3.5-.6.7-1 .1-.2.2-.2.4-.2h.3c-.1.1-.1.2-.2.2-.3.4-.5.7-.8 1.1-.1.2-.1.2 0 .4.3.5.6.9.9 1.4 0 .1.1.1.2.3h-.5c-.1 0-.1-.1-.2-.1-.3-.4-.5-.8-.8-1.2-.1-.2-.3-.3-.5-.2h-.2v1.5h-.5c.1-1.8.1-3.4.1-5zM310.2 205.6c-.5 0-.5 0-.8-.3-.2-.3-.5-.7-.7-1-.1-.2-.2-.2-.4-.2h-.3v1.5h-.5c-.1-.2-.1-4.4 0-4.9h.5v2.8c.2.1.3 0 .5 0 .1 0 .1-.1.2-.1.3-.3.5-.6.7-1 .1-.2.3-.3.5-.2h.2c-.4.5-.7 1-1.1 1.5.4.7.8 1.3 1.2 1.9zM242.8 202.2h.4c0 .1 0 .1.1.2.1 0 .2-.1.3-.1.3-.1.6-.2 1-.1.4 0 .7.2.8.6.1.2.1.4.1.6v2.2h-.5v-.3-1.8c0-.2 0-.3-.1-.5-.1-.3-.2-.4-.5-.5-.4 0-.7.1-1 .2-.1 0-.1.1-.1.2V205.5h-.5s-.1-2.9 0-3.3zM293.7 205.6v-.4c.2 0 .4 0 .5.1h.8c.1 0 .2 0 .3-.1.2-.1.3-.3.3-.5s-.1-.4-.3-.4c-.3-.1-.6-.1-.8-.2-.2 0-.3-.1-.5-.2s-.4-.3-.4-.6c-.1-.7.3-1.1 1-1.1.5 0 1 0 1.5.1v.4c-.2 0-.4-.1-.6-.1h-.8c-.3 0-.5.2-.5.5 0 .2.1.3.3.4.2.1.4.1.6.1.2.1.5.1.7.2.4.1.5.3.5.7v.2c0 .5-.3.8-.8.9h-.3c-.4.1-1 .1-1.5 0zM304.4 205.6v-.4c.2 0 .4.1.6.1h.9c.4 0 .6-.2.5-.6 0-.2-.1-.3-.3-.4-.2-.1-.4-.1-.6-.1-.2 0-.4-.1-.6-.1-.3-.1-.6-.3-.6-.7 0-.4.1-.8.5-1 .1-.1.3-.1.5-.1.5-.1 1 0 1.5.1v.4c-.2 0-.4 0-.6-.1h-.8c-.1 0-.2 0-.3.1-.2.1-.3.3-.3.5s.1.3.3.4c.2.1.4.1.5.1.2.1.5.1.7.2.3.1.5.4.5.7 0 .8-.4 1.1-1 1.2h-.6c-.2-.2-.5-.3-.8-.3zM299.1 202.3v.4c-.2 0-.4 0-.6-.1h-.7c-.1 0-.2 0-.3.1-.2.1-.3.2-.3.5 0 .2.1.3.3.4.3.1.5.1.8.2.2 0 .4.1.6.2.2.1.3.3.4.5 0 .3 0 .5-.1.8-.1.2-.2.3-.3.4-.2.1-.4.1-.6.2-.5.1-1 0-1.5-.1v-.4c.2 0 .4.1.6.1h.9c.4 0 .5-.2.5-.6 0-.2-.1-.4-.3-.4-.2-.1-.4-.1-.6-.1-.2-.1-.5-.1-.7-.2-.3-.1-.4-.3-.4-.6-.1-.7.2-1.1.9-1.2.4-.3.9-.2 1.4-.1zM287.6 205.6v-.4c.2 0 .4 0 .5.1h.8c.1 0 .2 0 .3-.1.2-.1.3-.3.3-.5s-.1-.4-.3-.4c-.3-.1-.5-.1-.8-.2-.2 0-.3-.1-.5-.1-.3-.1-.4-.3-.4-.6-.1-.6.3-1.1 1-1.1.5 0 1 0 1.4.1v.4c-.2 0-.4 0-.5-.1h-.8c-.1 0-.3 0-.4.1-.2.1-.2.3-.2.5s.1.3.3.3c.2.1.4.1.5.1.2.1.5.1.7.2.3.1.5.3.5.7v.2c0 .5-.3.8-.7.9-.3.1-.6.1-.9.1-.2 0-.4 0-.6-.1 0-.1-.1-.1-.2-.1zM286.9 202.3v.4c-.2 0-.4 0-.6-.1h-.8c-.1 0-.2 0-.3.1-.2.1-.3.3-.3.5s.1.3.3.4c.3.1.5.1.8.2.2 0 .4.1.5.2.2.1.4.3.4.6v.6c0 .2-.2.4-.4.5-.2.1-.3.1-.5.1-.5 0-1 0-1.5-.1v-.4c.2 0 .4.1.5.1h.9c.4 0 .5-.2.6-.5 0-.2-.1-.4-.3-.5-.2-.1-.4-.1-.6-.1-.2 0-.4-.1-.6-.1-.4-.1-.6-.3-.6-.7 0-.4.1-.7.5-.9.2-.1.4-.1.6-.2h.6c.3-.2.6-.1.8-.1zM262.7 202.7h-.5v-.4h.5v-1h.5v1h1v.5h-1v2c0 .5.1.6.6.6h.4v.4c-.4.1-.7.1-1 .1-.3 0-.4-.2-.5-.5 0-.2-.1-.4-.1-.6v-1.6c.1-.3.1-.4.1-.5zM252.5 205.2v.4c-.4.1-.7.1-1 .1-.2 0-.4-.2-.5-.4-.1-.2-.1-.5-.1-.7V203v-.3h-.5v-.4h.5v-1h.5v1c.4.1.7 0 1.1 0v.4h-1V204.9c.1.3.2.4.5.4h.4c0-.1 0-.1.1-.1zM274.9 202.7h-.5v-.4h.4v-1h.5v1c.4.1.7 0 1.1 0v.4h-1v2.2c0 .2.2.3.4.3h.7v.4c-.4.1-.7.1-1.1 0-.2-.1-.4-.2-.4-.4-.1-.2-.1-.5-.1-.7V203v-.3zM236.8 205.6h-.5v-3.4h.5v.4c.4-.2.7-.4 1.2-.5v.5s-.1 0-.2.1c-.3.1-.5.2-.8.3-.2.1-.3.2-.3.4v1.9c.1.1.1.2.1.3zM301.2 202.3h.5v.4c.4-.2.7-.4 1.2-.5v.5c-.1 0-.1 0-.2.1-.3.1-.5.2-.8.3-.1.1-.2.2-.2.3v2.3h-.5v-3.4zM273.1 202.2v.5c-.3.1-.6.3-1 .4-.2.1-.2.2-.2.4V205.7h-.4c-.1-.2-.1-2.9 0-3.4h.5v.4c.3-.2.6-.4 1.1-.5zM241.9 205.6h-.5v-3.4h.4c.1 1.2.1 2.3.1 3.4zM303.7 205.6h-.4c-.1-.2-.1-3.1 0-3.4h.4v3.4zM241.5 201.4v-.5h.5v.5h-.5zM303.3 200.9h.4c.1.2 0 .4 0 .6h-.4c-.1-.2-.1-.4 0-.6zM274.5 198.8c-.1-.2-.2-.3-.2-.4-.1-.1-.1-.2 0-.3.3-.5.3-1.1.2-1.7-.2-.9-.9-1.6-1.8-1.7-1-.1-1.8.5-2.1 1.5-.2.5-.2 1 0 1.6.3 1 1.3 1.6 2.4 1.4.2 0 .3-.1.5-.2.1.2.2.2.4.2h.8c-.2-.3-.2-.3-.2-.4zm-1.2-1.2c-.4.6-1.2.6-1.6 0-.1-.2-.2-.5-.2-.7 0-.2 0-.5.2-.7.4-.6 1.3-.6 1.6 0 .2.5.2 1 0 1.4zM300.4 196.3c-.2-.9-.9-1.6-1.9-1.6-1 0-1.8.5-2 1.5-.1.5-.1 1.1 0 1.6.5 1.6 2.5 1.8 3.4.7.4-.5.5-1 .6-1.6-.1-.2-.1-.4-.1-.6zm-1.2 1.3c-.4.7-1.3.6-1.7 0-.1-.2-.2-.4-.2-.7 0-.2 0-.5.2-.7.2-.3.5-.5.8-.5.4 0 .7.2.8.5.4.5.4 1 .1 1.4zM239 196.2c-.2-.9-1-1.5-1.9-1.5-.9 0-1.7.5-2 1.4-.2.6-.2 1.1 0 1.7.3.8 1 1.3 1.9 1.3.9 0 1.6-.5 1.9-1.3.1-.3.1-.6.2-.9-.1-.2-.1-.4-.1-.7zm-1 .7c0 .2 0 .5-.2.7-.4.6-1.3.6-1.6 0-.3-.5-.3-.9 0-1.4.2-.3.5-.5.9-.5s.6.2.8.5c.1.3.1.5.1.7zM242.8 197.5c0-.2-.1-.4-.3-.6l-.1-.1c.1-.1.2-.3.2-.4.2-.6-.2-1.6-1.2-1.7h-1.5-.2v4.3h2.1c.4-.1.6-.3.8-.6.2-.2.2-.6.2-.9zm-2.1-1.7h.7c.2 0 .2.2.2.4s-.1.3-.3.3h-.7c.1-.3.1-.5.1-.7zm.8 2.3h-.8v-.7h.8c.2 0 .3.2.3.4 0 .1-.1.3-.3.3zM262.7 198.8c-.2-.3-.4-.7-.6-1 0-.1-.1-.1-.1-.2.4-.3.5-.7.6-1.2 0-.8-.4-1.7-1.5-1.6h-1.6v4.3h1v-1.2h.3c.2 0 .3 0 .4.2.1.3.3.6.5.9.1.1.1.2.3.2h1c-.2-.3-.3-.4-.3-.4zm-1.2-2.3c-.1.2-.2.3-.4.3h-.7v-1.1h.8c.1 0 .2.1.3.2.1.3.1.5 0 .6zM304.2 195.6c-.3-.5-.7-.7-1.3-.8h-1.7c-.1.3 0 4.1 0 4.3h1.7c.6 0 1-.3 1.3-.8.5-.8.5-2 0-2.7zm-.8 2c-.2.3-.4.5-.8.5h-.4c-.1-.2-.1-1.9 0-2.3h.6c.3 0 .5.2.6.4.2.5.3.9 0 1.4zM247 198.9l-1.8-4.2h-.4v.1c-.6 1.3-1.1 2.7-1.7 4v.3h.9c.1 0 .1-.1.2-.1.1-.1.1-.3.2-.4h1.6c0 .1.1.1.1.2.2.4.1.4.6.4h.5c-.2-.2-.1-.3-.2-.3zm-2.4-1.3c0-.2.3-.9.4-1.1 0 .1.1.1.1.2.1.3.2.6.4.9h-.9zM249.1 202.2h-1.9c-.5.1-.8.3-.9.7-.1.5-.1 1 .3 1.3l.1.1c-.2.3-.3.7-.1 1-.1.1-.2.1-.2.2-.3.3-.3.7-.2 1.1.1.4.4.5.7.6.4.1.9.1 1.3 0 .5-.1 1-.4.9-1.1v-.3c-.1-.3-.2-.5-.5-.5-.1 0-.2-.1-.4-.1h-.8c-.5 0-.6-.2-.4-.7.3 0 .6 0 .9-.1.5-.1.7-.4.8-.9 0-.3 0-.6-.2-.9h.6v-.4zm-1.9 3.4h.8c.5 0 .6.2.5.7 0 .2-.1.4-.4.5-.2.1-.4.1-.6.1-.2 0-.4 0-.5-.1-.4-.1-.6-.5-.4-.9.1-.2.3-.3.6-.3zm.9-2c0 .2-.2.4-.4.4h-.7c-.2 0-.4-.2-.4-.4v-.6c0-.2.2-.3.4-.4.2-.1.5-.1.7 0 .2.1.3.2.4.4v.3c.1.1.1.2 0 .3zM283.8 204.7v-.5-1.2c0-.5-.3-.8-.8-.8h-.8c-.2 0-.5.1-.7.1v.4h.2c.3 0 .7-.1 1-.1.4 0 .6.2.6.6v.3c-.2 0-.4 0-.5.1-.3 0-.6.1-.9.1-.4.1-.6.3-.7.7v.5c.1.5.4.7.9.7.4 0 .8-.1 1.1-.2h.3c.2.1.4.2.7.1v-.4c-.3.2-.4-.1-.4-.4zm-.5.4c-.1 0-.2.1-.3.1-.2 0-.5.1-.7.1-.3 0-.5-.1-.6-.4-.1-.5.1-.7.6-.8.3 0 .7-.1 1-.1v1.1zM262 204.2c.1-.3.1-.5 0-.8-.1-.9-.6-1.2-1.4-1.2-.7 0-1.1.3-1.3 1-.1.5-.1 1.1 0 1.6.1.6.5.9 1.2.9h.9c.2 0 .4 0 .5-.1v-.4H260.5c-.3 0-.5-.1-.6-.3-.1-.2-.2-.5-.2-.8.8.1 1.5.1 2.3.1zm-2.3-.5c0-.4 0-.8.4-1 .3-.2.7-.2 1 0 .4.2.4.6.4 1-.6.1-1.2.1-1.8 0zM255.5 203c-.1-.4-.4-.7-.8-.8-.2 0-.5-.1-.7 0-.6 0-1 .4-1.1 1-.1.5-.1 1 0 1.5 0 .1.1.3.1.4.1.3.4.6.7.7.3.1.7.1 1 0 .5-.1.9-.4 1-.9.1-.3.1-.5.1-.9-.2-.4-.2-.7-.3-1zm-.5 1.7c-.1.3-.3.5-.6.5h-.5c-.3 0-.5-.2-.6-.5v-.2c-.1-.4-.1-.9 0-1.3s.3-.6.8-.6c.7 0 1 .2 1.1.9v.5c-.1.3-.1.5-.2.7zM235.7 203.7c0-.2-.1-.5-.1-.7-.1-.4-.4-.7-.8-.7-.3 0-.6-.1-.9 0-.5.1-.9.4-1 .9-.1.3-.1.7-.1 1 0 .3 0 .5.1.8.1.4.4.6.8.7.2 0 .4 0 .5.1h.2c.7 0 1.1-.3 1.2-1 .1-.4.1-.8.1-1.1zm-.6.9c-.1.4-.3.6-.7.6h-.4c-.4 0-.6-.2-.6-.6v-.2-.5c0-.2 0-.5.1-.7.1-.4.3-.6.7-.6.7-.1 1.1.2 1.1.9-.1.4-.1.8-.2 1.1z"/>
        <path d="M259.2 202.2h-1.9c-.5.1-.8.3-.9.7-.1.5-.1 1 .3 1.3l.1.1c-.2.3-.3.7-.1 1-.1.1-.2.1-.2.2-.3.3-.3.7-.2 1.1.1.4.4.5.7.6.4.1.9.1 1.3 0 .5-.1 1-.4.9-1.1v-.3c-.1-.3-.2-.5-.5-.5-.1 0-.2-.1-.4-.1h-.8c-.5 0-.6-.2-.4-.7.3 0 .6 0 .9-.1.5-.1.7-.4.8-.9 0-.3 0-.6-.2-.9h.6v-.4zm-1.9 3.4h.8c.5 0 .6.2.5.7 0 .2-.1.4-.4.5-.2.1-.4.1-.6.1-.2 0-.4 0-.5-.1-.4-.1-.6-.5-.4-.9.1-.2.3-.3.6-.3zm1-2c0 .2-.2.4-.4.4h-.7c-.2 0-.4-.2-.4-.4v-.6c0-.2.2-.3.4-.4.2-.1.5-.1.7 0 .2.1.3.2.4.4v.6zM259 199l-1.8-4.2h-.4v.1c-.6 1.3-1.1 2.7-1.7 4v.3h.9c.1 0 .1-.1.2-.1.1-.1.1-.3.2-.4h1.6c0 .1.1.1.1.2.2.4.1.4.6.4h.5c-.2-.2-.2-.2-.2-.3zm-2.4-1.3c0-.2.3-.9.4-1.1 0 .1.1.1.1.2.1.3.2.6.4.9h-.9zM279.8 203.4c0-.2-.1-.5-.1-.7-.1-.4-.4-.7-.8-.7-.3 0-.6-.1-.9 0-.5.1-.9.4-1 .9-.1.3-.1.7-.1 1 0 .3 0 .5.1.8.1.4.4.6.8.7.2 0 .4 0 .5.1h.2c.7 0 1.1-.3 1.2-1 .1-.3.1-.7.1-1.1zm-.5 1c-.1.4-.3.6-.7.6h-.4c-.4 0-.6-.2-.6-.6v-.2-.5c0-.2 0-.5.1-.7.1-.4.3-.6.7-.6.7-.1 1.1.2 1.1.9-.2.4-.2.8-.2 1.1zM282.6 198.9l-1.8-4.2h-.4v.1c-.6 1.3-1.1 2.7-1.7 4v.3h.9c.1 0 .1-.1.2-.1.1-.1.1-.3.2-.4h1.6c0 .1.1.1.1.2.2.4.1.4.6.4h.5c-.2-.2-.1-.2-.2-.3zm-2.3-1.3c0-.2.3-.9.4-1.1 0 .1.1.1.1.2.1.3.2.6.4.9h-.9zM270.8 204.3c.1-.3.1-.5 0-.8-.1-.9-.6-1.2-1.4-1.2-.7 0-1.1.3-1.3 1-.1.5-.1 1.1 0 1.6.1.6.5.9 1.2.9h.9c.2 0 .4 0 .5-.1v-.4H269.3c-.3 0-.5-.1-.6-.3-.1-.2-.2-.5-.2-.8.8.1 1.5.1 2.3.1zm-2.3-.5c0-.4 0-.8.4-1 .3-.2.7-.2 1 0 .4.2.4.6.4 1-.6.1-1.2.1-1.8 0zM293.2 204.1c.1-.3.1-.5 0-.8-.1-.9-.6-1.2-1.4-1.2-.7 0-1.1.3-1.3 1-.1.5-.1 1.1 0 1.6.1.6.5.9 1.2.9h.9c.2 0 .4 0 .5-.1v-.4H291.7c-.3 0-.5-.1-.6-.3-.1-.2-.2-.5-.2-.8.8.1 1.5.1 2.3.1zm-2.3-.4c0-.4 0-.8.4-1 .3-.2.7-.2 1 0 .4.2.4.6.4 1h-1.8z"/>
      </g>
    </g>
  </symbol>
  <symbol id="logo_x5F_ur" viewBox="0 235 450 80">
    <path id="logo_5_" fill="#8b0000" d="M75.9 283.1c.3.5.7 1.1 1 1.6 1.2 1.9 2.4 3.8 3.7 5.8 1.3 2 2.5 4 3.8 6 1.2 1.9 2.4 3.7 3.5 5.6.8 1.2 1.5 2.4 2.3 3.6.2.4.4.8.4 1.2.1.8-.6 1.5-1.3 1.8-.8.3-1.6 0-2.1-.7-.9-1.5-1.9-3-2.9-4.6-1.4-2.3-2.9-4.5-4.3-6.8-.8-1.2-1.6-2.5-2.3-3.7l-4.2-6.6c-.5-.8-1-1.6-1.5-2.3 0-.1-.1-.2-.1-.3v-3.1c0-.2 0-.3.3-.3 1.3-.2 2.6-.6 3.8-1 1.5-.6 2.8-1.3 4-2.3.8-.7 1.6-1.3 2.3-2.1 1.3-1.3 2.3-2.9 3-4.6.4-1 .8-2 1.1-3.1.2-.8.3-1.6.4-2.4.1-.5.1-1.1.1-1.6 0-.8-.1-1.7-.2-2.5-.2-1.6-.7-3.1-1.3-4.6-.5-1.1-1-2.2-1.8-3.1-.6-.8-1.3-1.5-2-2.2-1-1-2.2-1.9-3.5-2.6-1.6-.8-3.2-1.5-4.9-1.8-.9-.2-1.8-.3-2.7-.3-1.8-.1-3.7-.1-5.5-.1h-9.1v42.3c0 1.6-.2 3.1-.6 4.6-.4 1.5-.8 2.9-1.5 4.2-.6 1.3-1.4 2.5-2.2 3.7-.7 1-1.5 1.9-2.4 2.8-1.2 1.1-2.5 2.1-3.9 3-1.3.8-2.7 1.4-4.1 1.9-1.3.4-2.7.7-4 .9-1.5.2-3 .2-4.5.1-1.8-.1-3.5-.4-5.1-1-2-.7-3.9-1.6-5.7-2.8-.8-.6-1.5-1.2-2.3-1.8-1.7-1.4-3-3.2-4.1-5.1-.8-1.2-1.4-2.5-1.8-3.9-.4-1.1-.6-2.3-.8-3.4-.3-1.4-.3-2.8-.3-4.2V244c0-.9.7-1.6 1.6-1.6.4 0 .8 0 1.1.2.6.4.8.9.8 1.5V287.8c0 1.7.2 3.5.7 5.1.6 1.9 1.3 3.7 2.5 5.3l1.5 1.8c.6.6 1.1 1.2 1.7 1.7.7.7 1.5 1.2 2.4 1.7 1.7.9 3.4 1.6 5.2 2 .9.2 1.7.3 2.6.3.7.1 1.4.1 2.2.1 1.8-.1 3.6-.4 5.3-1.1.8-.3 1.7-.7 2.5-1.1 1-.5 2-1.2 2.9-2 .5-.5 1-.9 1.5-1.4 1.5-1.6 2.8-3.4 3.6-5.4.4-1 .8-2 1-3.1.1-.6.3-1.3.3-2 .1-1.2.1-2.4.1-3.6v-42c0-.8.3-1.4 1.1-1.7.1-.1.3-.1.4-.1h17.5c1.2 0 2.4.3 3.5.6 1.4.4 2.8.9 4.1 1.5 1.1.6 2.2 1.2 3.2 2 .7.5 1.3 1 1.9 1.6 1.1 1 2 2.2 2.9 3.5 1.1 1.6 2 3.3 2.5 5.2.4 1.2.6 2.3.8 3.5.2 1.3.2 2.6.2 3.9-.1 1.9-.4 3.7-1 5.5-.5 1.6-1.3 3-2.1 4.4-.6 1-1.3 1.9-2.1 2.7-1.1 1.3-2.4 2.4-3.8 3.4-1.4 1.4-3.3 2.3-5.3 3z"/>
    <g id="txt_5_" fill="#fff">
      <path d="M118.4 272.6c-6.8 0-10.2-3.2-10.2-9.5v-19.3c0-.4.1-.8.4-1 .3-.3.6-.4 1-.4s.8.1 1 .4c.3.3.4.6.4 1V263c0 1 .1 1.8.3 2.5.2.7.6 1.4 1.1 2.1.5.7 1.3 1.2 2.2 1.5 1 .4 2.2.5 3.7.5 2.7 0 4.6-.6 5.7-1.9s1.6-2.9 1.6-4.9v-19.3c0-.4.1-.8.4-1 .3-.3.6-.4 1-.4s.8.1 1 .4c.3.3.4.6.4 1V263c.2 6.4-3.2 9.6-10 9.6zM153.4 242.7c.3-.3.6-.4 1-.4s.7.1 1 .4c.3.3.4.6.4 1v27.1c0 .4-.1.8-.4 1-.3.3-.6.4-1 .4-.5 0-.9-.2-1.2-.6l-15.3-23.1v22.3c0 .4-.1.7-.4 1s-.6.4-1 .4-.7-.1-1-.4c-.3-.3-.4-.6-.4-1v-27.1c0-.4.1-.7.4-1 .3-.3.6-.4 1-.4.5 0 .9.2 1.2.6l15.4 23.2v-22.4c-.1-.4 0-.7.3-1zM163.9 242.6h6.1c4.4 0 7.7 1.2 10 3.5s3.5 6.1 3.5 11.2c0 5.2-1.2 8.9-3.5 11.2-2.3 2.3-5.6 3.4-10 3.4h-6.1c-.4 0-.8-.1-1-.4-.3-.3-.4-.6-.4-1v-26.4c0-.4.1-.8.4-1 .2-.3.6-.5 1-.5zm1.5 2.7v23.9h4.7c3.4 0 6-.9 7.8-2.7 1.8-1.8 2.7-4.9 2.7-9.2 0-4.3-.9-7.4-2.7-9.2-1.8-1.8-4.4-2.8-7.8-2.8h-4.7zM204.8 272h-14.5c-.4 0-.8-.1-1-.4-.3-.3-.4-.6-.4-1v-26.4c0-.4.1-.8.4-1 .3-.3.6-.4 1-.4h14c.4 0 .7.1 1 .4.3.3.4.6.4 1s-.1.7-.4 1-.6.4-1 .4h-12.5v10.5h9.6c.4 0 .7.1 1 .4.3.3.4.6.4 1s-.1.7-.4 1c-.3.3-.6.4-1 .4h-9.6v10.7h13c.4 0 .7.1 1 .4.3.3.4.6.4 1s-.1.7-.4 1c-.3-.2-.6 0-1 0zM214.4 259.3v11.5c0 .4-.1.8-.4 1-.3.3-.6.4-1 .4s-.8-.1-1-.4c-.3-.3-.4-.6-.4-1v-26.7c0-.4.1-.8.4-1 .3-.3.6-.4 1-.4h8.7c2.4 0 4.4.8 6 2.4 1.6 1.6 2.4 3.6 2.4 5.9 0 2.3-.7 4.2-2.2 5.8-1.4 1.6-3.3 2.4-5.6 2.5l8 10.6c.2.2.3.5.3.9s-.1.8-.4 1c-.3.3-.6.4-1 .4-.5 0-.9-.2-1.3-.7l-8.8-12.3h-4.7zm0-14v11.2h7.3c1.5 0 2.8-.5 3.7-1.6 1-1.1 1.5-2.4 1.5-4s-.5-3-1.5-4c-1-1.1-2.3-1.6-3.9-1.6h-7.1zM251.1 248.2c-1.9-2.3-4.2-3.4-7.1-3.4-2.2 0-3.7.5-4.8 1.4-1 .9-1.5 2-1.5 3.4 0 1.3.6 2.4 1.7 3.2 1.1.9 2.5 1.5 4.1 2 1.6.5 3.2 1.1 4.8 1.7 1.6.6 3 1.6 4.1 2.8s1.7 2.9 1.7 4.8c0 2.7-.9 4.8-2.7 6.3-1.8 1.5-4.4 2.2-7.8 2.2-2.4 0-4.4-.5-6.3-1.5-1.8-1-3.1-2.3-3.9-3.8-.1-.3-.2-.6-.2-.8 0-.4.1-.7.4-1 .3-.3.6-.4 1-.4.5 0 .9.2 1.2.7 1.7 2.8 4.3 4.1 7.8 4.1 2.4 0 4.3-.5 5.6-1.5 1.3-1 1.9-2.4 1.9-4.3 0-1.2-.4-2.3-1.2-3.2-.8-.9-1.8-1.5-3.1-1.9-1.2-.4-2.5-.9-4-1.4-1.4-.5-2.7-1-4-1.5-1.2-.5-2.2-1.4-3-2.5-.8-1.1-1.2-2.5-1.2-4.1 0-2.1.8-3.9 2.4-5.3 1.6-1.4 3.9-2.1 6.9-2.1 2 0 3.9.4 5.5 1.2 1.6.8 2.9 1.9 3.8 3.3.2.3.3.5.3.8 0 .4-.1.7-.4 1-.3.3-.6.4-1 .4-.4-.1-.7-.3-1-.6zM265 245.4h-7.8c-.4 0-.7-.1-1-.4-.3-.3-.4-.6-.4-1s.1-.7.4-1c.3-.3.6-.4 1-.4h18.5c.4 0 .7.1 1 .4.3.3.4.6.4 1s-.1.7-.4 1c-.3.3-.6.4-1 .4H268v25.4c0 .4-.1.8-.4 1-.3.3-.6.4-1 .4s-.8-.1-1-.4-.4-.6-.4-1v-25.4zM293.3 263.3h-12.2l-3.2 8c-.3.7-.7 1-1.4 1-.4 0-.8-.1-1-.4-.3-.3-.4-.6-.4-1 0-.3 0-.5.1-.7l10.6-26.9c.3-.7.8-1 1.4-1 .7 0 1.1.3 1.4 1l10.6 26.9c.1.2.1.4.1.7 0 .4-.1.8-.4 1-.3.3-.7.4-1.1.4-.7 0-1.2-.3-1.4-1l-3.1-8zm-.9-2.7l-5.2-13.3-5.1 13.3h10.3zM322.1 242.7c.3-.3.6-.4 1-.4s.7.1 1 .4c.3.3.4.6.4 1v27.1c0 .4-.1.8-.4 1-.3.3-.6.4-1 .4-.5 0-.9-.2-1.2-.6l-15.3-23.1v22.3c0 .4-.1.7-.4 1s-.6.4-1 .4-.7-.1-1-.4c-.3-.3-.4-.6-.4-1v-27.1c0-.4.1-.7.4-1 .3-.3.6-.4 1-.4.5 0 .9.2 1.2.6l15.4 23.2v-22.4c-.1-.4 0-.7.3-1zM332.6 242.6h6.1c4.4 0 7.7 1.2 10 3.5s3.5 6.1 3.5 11.2c0 5.2-1.2 8.9-3.5 11.2-2.3 2.3-5.6 3.4-10 3.4h-6.1c-.4 0-.8-.1-1-.4-.3-.3-.4-.6-.4-1v-26.4c0-.4.1-.8.4-1 .2-.3.6-.5 1-.5zm1.4 2.7v23.9h4.7c3.4 0 6-.9 7.8-2.7 1.8-1.8 2.7-4.9 2.7-9.2 0-4.3-.9-7.4-2.7-9.2-1.8-1.8-4.4-2.8-7.8-2.8H334zM360.5 243.8v27.1c0 .4-.1.8-.4 1-.3.3-.6.4-1 .4s-.8-.1-1-.4c-.3-.3-.4-.6-.4-1v-27.1c0-.4.1-.8.4-1 .3-.3.6-.4 1-.4s.8.1 1 .4c.3.2.4.6.4 1zM385.6 242.7c.3-.3.6-.4 1-.4s.7.1 1 .4c.3.3.4.6.4 1v27.1c0 .4-.1.8-.4 1-.3.3-.6.4-1 .4-.5 0-.9-.2-1.2-.6l-15.4-23v22.3c0 .4-.1.7-.4 1s-.6.4-1 .4-.7-.1-1-.4c-.3-.3-.4-.6-.4-1v-27.1c0-.4.1-.7.4-1 .3-.3.6-.4 1-.4.5 0 .9.2 1.2.6l15.4 23.2v-22.4c-.1-.5.1-.8.4-1.1zM406.6 269.9c3.5 0 6.2-1.2 8.1-3.5v-6.3h-7.3c-.4 0-.7-.1-1-.4-.3-.3-.4-.6-.4-1s.1-.7.4-1c.3-.3.6-.4 1-.4h8.8c.3 0 .7.1.9.4.3.3.4.6.4 1v7.6c0 .5-.2 1-.6 1.4-2.7 3.2-6.2 4.8-10.4 4.8-9.1 0-13.6-5.1-13.6-15.3 0-5.1 1.2-8.9 3.6-11.4 2.4-2.6 5.7-3.9 10-3.9 2.1 0 4 .4 5.7 1.2s3.1 2 4.1 3.4c.2.3.3.6.3.9 0 .4-.1.7-.4 1-.3.3-.6.4-1 .4-.5 0-.8-.2-1.1-.6-.8-1.1-1.8-2-3.2-2.6-1.3-.7-2.8-1-4.4-1-3.4 0-6 1-7.8 3.1-1.8 2.1-2.7 5.2-2.7 9.5 0 4.4.9 7.6 2.7 9.6 1.7 2.1 4.4 3.1 7.9 3.1z"/>
      <g>
        <path d="M111.2 295.1v11.5c0 .4-.1.8-.4 1-.3.3-.6.4-1 .4s-.8-.1-1-.4c-.3-.3-.4-.6-.4-1v-26.7c0-.4.1-.8.4-1 .3-.3.6-.4 1-.4h8.7c2.4 0 4.4.8 6 2.4 1.6 1.6 2.4 3.6 2.4 5.9 0 2.3-.7 4.2-2.2 5.8-1.4 1.6-3.3 2.4-5.6 2.5l8 10.6c.2.2.3.5.3.9s-.1.8-.4 1c-.3.3-.6.4-1 .4-.5 0-.9-.2-1.3-.7l-8.8-12.3h-4.7zm0-13.9v11.2h7.3c1.5 0 2.8-.5 3.7-1.6 1-1.1 1.5-2.4 1.5-4s-.5-3-1.5-4-2.3-1.6-3.9-1.6h-7.1zM134.9 279.6v27.1c0 .4-.1.8-.4 1-.3.3-.6.4-1 .4s-.8-.1-1-.4c-.3-.3-.4-.6-.4-1v-27.1c0-.4.1-.8.4-1 .3-.3.6-.4 1-.4s.8.1 1 .4c.3.2.4.6.4 1zM157.7 284c-1.9-2.3-4.2-3.4-7.1-3.4-2.2 0-3.7.5-4.8 1.4-1 .9-1.5 2-1.5 3.4 0 1.3.6 2.4 1.7 3.2 1.1.9 2.5 1.5 4.1 2 1.6.5 3.2 1.1 4.8 1.7 1.6.6 3 1.6 4.1 2.8s1.7 2.9 1.7 4.8c0 2.7-.9 4.8-2.7 6.3-1.8 1.5-4.4 2.2-7.8 2.2-2.4 0-4.4-.5-6.3-1.5-1.8-1-3.1-2.3-3.9-3.8-.1-.3-.2-.6-.2-.8 0-.4.1-.7.4-1 .3-.3.6-.4 1-.4.5 0 .9.2 1.2.7 1.7 2.8 4.3 4.1 7.8 4.1 2.4 0 4.3-.5 5.6-1.5 1.3-1 1.9-2.4 1.9-4.3 0-1.2-.4-2.3-1.2-3.2-.8-.9-1.8-1.5-3.1-1.9-1.2-.4-2.5-.9-4-1.4-1.4-.5-2.7-1-4-1.5-1.2-.5-2.2-1.4-3-2.5-.8-1.1-1.2-2.5-1.2-4.1 0-2.1.8-3.9 2.4-5.3 1.6-1.4 3.9-2.1 6.9-2.1 2 0 3.9.4 5.5 1.2 1.6.8 2.9 1.9 3.8 3.3.2.3.3.5.3.8 0 .4-.1.7-.4 1-.3.3-.6.4-1 .4-.3 0-.7-.2-1-.6zM169.2 293.2l12.7-14.5c.3-.4.7-.6 1.2-.6.4 0 .8.2 1.1.5.3.3.5.7.5 1.1 0 .3-.1.7-.4 1l-9.1 10.2 10.5 14.9c.2.3.3.6.3.9 0 .4-.1.8-.4 1-.3.3-.6.4-1 .4-.5 0-.9-.2-1.3-.7L173 293l-3.8 4.3v9.3c0 .4-.1.8-.4 1-.3.3-.6.4-1 .4s-.8-.1-1-.4c-.3-.3-.4-.6-.4-1v-27.1c0-.4.1-.8.4-1 .3-.3.6-.4 1-.4s.8.1 1 .4c.3.3.4.6.4 1v13.7z"/>
      </g>
    </g>
  </symbol>
</svg>
