<?xml version="1.0" standalone="no"?>
<!DOCTYPE svg PUBLIC "-//W3C//DTD SVG 1.1//EN" "http://www.w3.org/Graphics/SVG/1.1/DTD/svg11.dtd" >
<svg xmlns="http://www.w3.org/2000/svg" xmlns:xlink="http://www.w3.org/1999/xlink" version="1.1">
<metadata>
Created by FontForge 20161116 at Wed Mar 31 12:14:02 2010
 By Jimmy Wärting
Copyright (c) Matt Desmond, 2010. All rights reserved.
</metadata>
<defs>
<font id="Variable-Bold" horiz-adv-x="530" >
  <font-face 
    font-family="Variable Bold"
    font-weight="400"
    font-stretch="normal"
    units-per-em="1000"
    panose-1="2 0 8 3 2 0 0 2 0 4"
    ascent="780"
    descent="-220"
    x-height="555"
    cap-height="780"
    bbox="-51 -246 1220 1220"
    underline-thickness="50"
    underline-position="-100"
    stemh="60"
    stemv="60"
    unicode-range="U+0020-F8FF"
  />
<missing-glyph horiz-adv-x="240" 
 />
    <glyph glyph-name=".notdef" horiz-adv-x="240" 
 />
    <glyph glyph-name="exclam" unicode="!" horiz-adv-x="200" 
d="M130 275c0 -20 -15 -30 -30 -30s-30 10 -30 30v475c0 20 15 30 30 30s30 -10 30 -30v-475zM60 40c0 22 18 40 40 40s40 -18 40 -40s-18 -40 -40 -40s-40 18 -40 40z" />
    <glyph glyph-name="exclamdown" unicode="&#xa1;" horiz-adv-x="200" 
d="M130 -170c0 -20 -15 -30 -30 -30s-30 10 -30 30v475c0 20 15 30 30 30s30 -10 30 -30v-475zM60 540c0 22 18 40 40 40s40 -18 40 -40s-18 -40 -40 -40s-40 18 -40 40z" />
    <glyph glyph-name="question" unicode="?" horiz-adv-x="490" 
d="M430 609c0 -177 -174 -206 -216 -342c-4 -16 -16 -22 -28 -22c-15 0 -31 11 -31 29c0 3 1 6 2 9c0 0 6 22 23 52c56 96 190 155 190 274c0 74 -44 121 -129 121c-56 0 -111 -35 -133 -87c-6 -13 -16 -18 -27 -18c-15 0 -31 12 -31 29c0 4 1 8 3 13c0 0 3 8 10 20
c38 63 102 103 178 103c116 0 189 -73 189 -181zM135 40c0 22 18 40 40 40s40 -18 40 -40s-18 -40 -40 -40s-40 18 -40 40z" />
    <glyph glyph-name="questiondown" unicode="&#xbf;" horiz-adv-x="490" 
d="M440 -74c0 -4 0 -8 -2 -13c0 0 -4 -8 -11 -20c-38 -63 -102 -103 -178 -103c-116 0 -189 73 -189 181c0 177 175 206 216 342c5 16 17 22 28 22c16 0 31 -11 31 -29c0 -3 0 -6 -1 -9c0 0 -6 -22 -24 -52c-56 -96 -190 -155 -190 -274c0 -74 45 -121 129 -121
c56 0 111 35 133 87c6 13 17 18 27 18c16 0 31 -12 31 -29zM275 540c0 22 18 40 40 40s40 -18 40 -40s-18 -40 -40 -40s-40 18 -40 40z" />
    <glyph glyph-name="numbersign" unicode="#" horiz-adv-x="746" 
d="M726 513c0 -15 -10 -30 -30 -30h-160l-20 -186h154c20 0 30 -15 30 -30s-10 -30 -30 -30h-160l-22 -210c-2 -18 -16 -27 -30 -27c-15 0 -32 10 -30 29c0 0 14 139 22 208h-186l-22 -210c-2 -18 -16 -27 -30 -27c-15 0 -32 10 -30 29c0 0 14 139 22 208h-154
c-20 0 -30 15 -30 30s10 30 30 30h160l20 186h-154c-20 0 -30 15 -30 30s10 30 30 30h160l22 210c2 18 16 27 29 27c16 0 33 -10 31 -29c0 0 -15 -139 -22 -208h186l22 210c2 18 16 27 29 27c16 0 33 -10 31 -29c0 0 -15 -139 -22 -208h154c20 0 30 -15 30 -30zM476 483
h-186l-20 -186h186z" />
    <glyph glyph-name="dollar" unicode="$" horiz-adv-x="590" 
d="M530 201c0 -115 -91 -190 -205 -207v-68c0 -20 -15 -30 -30 -30s-30 10 -30 30v64c-69 3 -158 34 -199 94c-4 6 -6 12 -6 17c0 17 15 30 31 30c9 0 17 -4 24 -13c0 0 3 -4 8 -9c37 -38 90 -57 142 -59v335c-100 38 -200 82 -200 208c0 118 96 188 200 196v57
c0 20 15 30 30 30s30 -10 30 -30v-59c67 -12 138 -49 177 -103c5 -6 7 -12 7 -18c0 -16 -14 -29 -30 -29c-9 0 -17 3 -24 11c0 0 -4 5 -11 12c-32 33 -74 57 -119 66v-299c102 -40 205 -89 205 -226zM265 450v279c-80 -7 -140 -60 -140 -136c0 -77 63 -112 140 -143z
M470 201c0 89 -66 128 -145 160v-307c89 16 145 74 145 147z" />
    <glyph glyph-name="percent" unicode="%" horiz-adv-x="837" 
d="M382 609c0 -94 -77 -171 -171 -171c-95 0 -171 77 -171 171s76 171 171 171c94 0 171 -77 171 -171zM707 750c0 -5 -2 -11 -6 -17l-517 -728c-7 -10 -15 -13 -24 -13c-16 0 -31 13 -31 30c0 5 2 11 6 17l517 728c7 10 15 13 24 13c16 0 31 -13 31 -30zM797 163
c0 -94 -77 -171 -171 -171c-95 0 -171 77 -171 171s76 171 171 171c94 0 171 -77 171 -171zM322 609c0 61 -50 111 -111 111c-62 0 -111 -50 -111 -111s49 -111 111 -111c61 0 111 50 111 111zM737 163c0 61 -50 111 -111 111c-62 0 -111 -50 -111 -111s49 -111 111 -111
c61 0 111 50 111 111z" />
    <glyph glyph-name="perthousand" unicode="&#x2030;" horiz-adv-x="1260" 
d="M1220 163c0 -94 -77 -171 -171 -171c-95 0 -171 77 -171 171s76 171 171 171c94 0 171 -77 171 -171zM382 609c0 -94 -77 -171 -171 -171s-171 77 -171 171s77 171 171 171s171 -77 171 -171zM708 750c0 -5 -2 -11 -7 -17l-517 -728c-6 -10 -15 -13 -23 -13
c-16 0 -32 13 -32 30c0 5 2 11 7 17l517 728c6 10 15 13 23 13c16 0 32 -13 32 -30zM797 163c0 -94 -77 -171 -171 -171s-171 77 -171 171s77 171 171 171s171 -77 171 -171zM1160 163c0 61 -50 111 -111 111c-62 0 -111 -50 -111 -111s49 -111 111 -111
c61 0 111 50 111 111zM322 609c0 61 -50 111 -111 111s-111 -50 -111 -111s50 -111 111 -111s111 50 111 111zM737 163c0 61 -50 111 -111 111s-111 -50 -111 -111s50 -111 111 -111s111 50 111 111z" />
    <glyph glyph-name="ampersand" unicode="&#x26;" horiz-adv-x="618" 
d="M593 31c0 -17 -15 -31 -31 -31c-8 0 -16 3 -22 11l-64 76c-43 -55 -101 -95 -177 -95c-131 0 -234 91 -234 224c0 102 58 161 125 209l-11 13c-51 60 -77 121 -77 172c0 91 64 180 171 180c96 0 164 -71 164 -162c0 -105 -82 -159 -161 -213l192 -227c23 47 33 90 33 93
c4 17 17 24 30 24c15 0 30 -10 30 -27c0 -3 0 -6 -1 -9c0 0 -4 -17 -12 -43c-10 -29 -22 -59 -38 -87l75 -89c6 -6 8 -13 8 -19zM377 628c0 57 -44 103 -104 103c-64 0 -110 -51 -110 -119c0 -42 24 -92 59 -134l16 -19c72 48 139 91 139 169zM436 134l-209 247
c-56 -42 -102 -90 -102 -165c0 -97 72 -164 174 -164c61 0 105 37 137 82z" />
    <glyph glyph-name="parenleft" unicode="(" horiz-adv-x="283" 
d="M233 -150c0 -17 -15 -30 -31 -30c-8 0 -16 3 -23 12c-2 3 -129 170 -129 473s127 470 129 473c7 9 15 13 23 13c16 0 31 -14 31 -31c0 -6 -2 -12 -6 -18c0 0 -7 -9 -17 -27c-71 -120 -100 -273 -100 -410c0 -128 33 -326 117 -437c4 -6 6 -12 6 -18z" />
    <glyph glyph-name="parenright" unicode=")" horiz-adv-x="283" 
d="M233 305c0 -138 -37 -355 -129 -473c-7 -9 -15 -13 -23 -13c-16 0 -30 14 -30 31c0 6 1 12 5 18c0 0 7 9 18 27c70 120 99 273 99 410c0 128 -33 326 -117 437c-4 6 -6 12 -6 18c0 17 16 31 32 31c8 0 16 -4 22 -13c0 0 9 -11 21 -32c77 -130 108 -293 108 -441z" />
    <glyph glyph-name="bracketleft" unicode="[" horiz-adv-x="313" 
d="M283 -150c0 -15 -10 -30 -30 -30h-163c-16 0 -30 14 -30 30v900c0 16 14 30 30 30h163c20 0 30 -15 30 -30s-10 -30 -30 -30h-133v-840h133c20 0 30 -15 30 -30z" />
    <glyph glyph-name="bracketright" unicode="]" horiz-adv-x="313" 
d="M253 -150c0 -16 -14 -30 -30 -30h-163c-20 0 -30 15 -30 30s10 30 30 30h133v840h-133c-20 0 -30 15 -30 30s10 30 30 30h163c16 0 30 -14 30 -30v-900z" />
    <glyph glyph-name="braceleft" unicode="{" horiz-adv-x="377" 
d="M347 -151c0 -15 -10 -30 -30 -30h-53c-78 0 -140 65 -140 142v226c0 46 -37 82 -83 82c-21 0 -31 15 -31 30s10 30 31 30c46 0 83 37 83 83v225c0 79 64 143 142 143h51c20 0 30 -15 30 -30s-10 -30 -30 -30h-51c-45 0 -82 -37 -82 -82v-226c0 -46 -22 -86 -55 -112
c33 -27 55 -67 55 -113v-225c0 -45 36 -83 80 -83h53c20 0 30 -15 30 -30z" />
    <glyph glyph-name="braceright" unicode="}" horiz-adv-x="377" 
d="M367 300c0 -15 -11 -30 -31 -30c-46 0 -83 -37 -83 -83v-225c0 -78 -63 -143 -140 -143h-54c-19 0 -29 15 -29 30s10 30 30 30h53c44 0 80 38 80 82v226c0 46 22 86 55 112c-33 27 -55 67 -55 113v225c0 46 -37 83 -82 83h-51c-20 0 -30 15 -30 30s10 30 30 30h50
c79 0 143 -64 143 -142v-226c0 -46 37 -82 82 -82c21 0 32 -15 32 -30z" />
    <glyph glyph-name="less" unicode="&#x3c;" horiz-adv-x="520" 
d="M460 30c0 -16 -15 -31 -31 -31c-6 0 -13 3 -20 9l-369 333c-7 6 -10 14 -10 22s3 16 10 22l369 333c7 6 14 9 20 9c16 0 31 -15 31 -31c0 -8 -3 -16 -11 -22l-344 -311l344 -311c8 -6 11 -14 11 -22z" />
    <glyph glyph-name="greater" unicode="&#x3e;" horiz-adv-x="520" 
d="M490 363c0 -8 -4 -16 -10 -22l-369 -333c-7 -6 -14 -9 -20 -9c-17 0 -31 15 -31 31c0 8 3 16 10 22l345 311l-345 311c-7 6 -10 14 -10 22c0 16 14 31 31 31c6 0 13 -3 20 -9l369 -333c6 -6 10 -14 10 -22z" />
    <glyph glyph-name="asterisk" unicode="*" horiz-adv-x="572" 
d="M522 395c0 -16 -13 -32 -30 -32c-5 0 -10 2 -15 5l-161 93v-186c0 -20 -15 -30 -30 -30s-30 10 -30 30v186l-161 -93c-5 -3 -10 -5 -15 -5c-17 0 -30 16 -30 32c0 9 5 18 15 25l161 92l-161 93c-10 7 -15 16 -15 25c0 16 13 32 30 32c5 0 10 -2 15 -5l161 -93v186
c0 20 15 30 30 30s30 -10 30 -30v-186l161 93c5 3 10 5 15 5c17 0 30 -16 30 -32c0 -9 -4 -18 -15 -25l-161 -92l161 -93c11 -7 15 -16 15 -25z" />
    <glyph glyph-name="plus" unicode="+" horiz-adv-x="720" 
d="M700 390c0 -15 -10 -30 -30 -30h-280v-280c0 -20 -15 -30 -30 -30s-30 10 -30 30v280h-280c-20 0 -30 15 -30 30s10 30 30 30h280v280c0 20 15 30 30 30s30 -10 30 -30v-280h280c20 0 30 -15 30 -30z" />
    <glyph glyph-name="plusminus" unicode="&#xb1;" horiz-adv-x="720" 
d="M670 0h-620c-20 0 -30 15 -30 30s10 30 30 30h620c20 0 30 -15 30 -30s-10 -30 -30 -30zM700 390c0 -15 -10 -30 -30 -30h-280v-200c0 -20 -15 -30 -30 -30s-30 10 -30 30v200h-280c-20 0 -30 15 -30 30s10 30 30 30h280v280c0 20 15 30 30 30s30 -10 30 -30v-280h280
c20 0 30 -15 30 -30z" />
    <glyph glyph-name="minus" unicode="&#x2212;" horiz-adv-x="640" 
d="M590 390c0 -14 -10 -30 -30 -30h-480c-20 0 -30 16 -30 30s10 30 30 30h480c20 0 30 -16 30 -30z" />
    <glyph glyph-name="multiply" unicode="&#xd7;" horiz-adv-x="620" 
d="M580 131c0 -16 -15 -31 -31 -31c-8 0 -15 3 -22 10l-217 236l-217 -236c-7 -7 -15 -10 -22 -10c-16 0 -31 15 -31 31c0 7 3 14 9 20l220 239l-220 239c-6 6 -9 13 -9 20c0 16 15 31 31 31c7 0 15 -3 22 -10l217 -236l217 236c7 7 14 10 22 10c16 0 31 -15 31 -31
c0 -7 -3 -14 -9 -20l-220 -239l220 -239c6 -6 9 -13 9 -20z" />
    <glyph glyph-name="divide" unicode="&#xf7;" horiz-adv-x="640" 
d="M590 393c0 -14 -10 -30 -30 -30h-480c-20 0 -30 16 -30 30s10 30 30 30h480c20 0 30 -16 30 -30zM280 190c0 22 18 40 40 40s40 -18 40 -40s-18 -40 -40 -40s-40 18 -40 40zM280 596c0 22 18 40 40 40s40 -18 40 -40s-18 -40 -40 -40s-40 18 -40 40z" />
    <glyph glyph-name="equal" unicode="=" horiz-adv-x="640" 
d="M590 500c0 -15 -10 -30 -30 -30h-480c-20 0 -30 15 -30 30s10 30 30 30h480c20 0 30 -15 30 -30zM590 280c0 -15 -10 -30 -30 -30h-480c-20 0 -30 15 -30 30s10 30 30 30h480c20 0 30 -15 30 -30z" />
    <glyph glyph-name="approxequal" unicode="&#x2248;" horiz-adv-x="632" 
d="M582 493c0 -12 -9 -22 -17 -30c-40 -37 -97 -51 -150 -51c-73 0 -125 51 -197 51c-38 0 -87 -15 -116 -43c-6 -6 -13 -8 -20 -8c-17 0 -32 15 -32 31c0 14 13 23 23 31c41 31 93 49 145 49c94 0 126 -51 197 -51c34 0 89 9 112 39c7 8 16 12 24 12c16 0 31 -13 31 -30z
M582 322c0 -12 -9 -22 -18 -30c-39 -36 -96 -50 -149 -50c-72 0 -125 50 -197 50c-38 0 -87 -15 -116 -42c-6 -6 -13 -8 -20 -8c-17 0 -32 15 -32 31c0 14 13 23 23 31c41 31 93 48 145 48c94 0 126 -50 197 -50c34 0 89 9 112 38c7 9 16 12 24 12c16 0 31 -13 31 -30z" />
    <glyph glyph-name="notequal" unicode="&#x2260;" horiz-adv-x="641" 
d="M591 628c0 -7 -3 -15 -9 -21l-78 -77h57c20 0 30 -15 30 -30s-10 -30 -30 -30h-117l-162 -160h279c20 0 30 -15 30 -30s-10 -30 -30 -30h-339l-120 -119c-7 -7 -14 -10 -21 -10c-16 0 -31 15 -31 31c0 7 3 15 9 21l78 77h-56c-20 0 -30 15 -30 30s10 30 30 30h116
l162 160h-278c-20 0 -30 15 -30 30s10 30 30 30h338l120 119c7 7 14 10 21 10c16 0 31 -15 31 -31z" />
    <glyph glyph-name="backslash" unicode="\" horiz-adv-x="336" 
d="M316 -79c0 -18 -15 -29 -31 -29c-12 0 -23 6 -28 22l-236 828c-1 3 -1 6 -1 9c0 18 16 29 31 29c12 0 24 -6 28 -22l236 -828c1 -3 1 -6 1 -9z" />
    <glyph glyph-name="slash" unicode="/" horiz-adv-x="336" 
d="M316 751c0 -3 0 -6 -1 -9l-236 -828c-4 -16 -16 -22 -28 -22c-15 0 -31 11 -31 29c0 3 0 6 1 9l236 828c5 16 16 22 28 22c16 0 31 -11 31 -29z" />
    <glyph glyph-name="zero" unicode="0" horiz-adv-x="576" 
d="M516 218c0 -126 -102 -228 -228 -228s-228 102 -228 228v344c0 126 102 228 228 228s228 -102 228 -228v-344zM456 218v344c0 93 -75 168 -168 168s-168 -75 -168 -168v-344c0 -93 75 -168 168 -168s168 75 168 168z" />
    <glyph glyph-name="one" unicode="1" horiz-adv-x="576" 
d="M546 30c0 -15 -10 -30 -30 -30h-396c-20 0 -30 15 -30 30s10 30 30 30h168v639l-132 -71c-5 -3 -10 -4 -15 -4c-17 0 -29 15 -29 30c0 10 5 20 16 26c72 39 165 92 165 92c10 5 19 8 27 8c16 0 28 -10 28 -30v-690h168c20 0 30 -15 30 -30z" />
    <glyph glyph-name="two" unicode="2" horiz-adv-x="575" 
d="M509 30c0 -15 -10 -30 -30 -30h-396c-21 0 -33 11 -33 26c0 7 3 15 9 23c90 114 218 267 318 402c34 46 56 89 56 148c0 74 -62 131 -149 131c-74 0 -120 -49 -148 -84c-7 -8 -15 -12 -23 -12c-17 0 -31 15 -31 31c0 6 2 13 7 19c38 52 110 106 195 106
c113 0 209 -77 209 -191c0 -101 -49 -161 -107 -234l-241 -305h334c20 0 30 -15 30 -30z" />
    <glyph glyph-name="three" unicode="3" horiz-adv-x="576" 
d="M494 211c0 -128 -104 -219 -228 -219c-75 0 -155 47 -191 114c-3 6 -4 11 -4 16c0 16 14 27 29 27c9 0 20 -5 27 -15c0 0 3 -4 8 -11c31 -42 78 -71 131 -71c95 0 168 68 168 159s-73 158 -168 158c-21 0 -31 15 -31 30s10 30 31 30c94 0 158 62 158 153
s-63 148 -158 148c-55 0 -112 -34 -139 -82c-6 -11 -16 -16 -26 -16c-15 0 -31 12 -31 28c0 5 2 11 5 16c0 0 4 8 12 19c42 57 106 95 179 95c124 0 218 -80 218 -208c0 -82 -39 -147 -101 -183c66 -37 111 -104 111 -188z" />
    <glyph glyph-name="four" unicode="4" horiz-adv-x="576" 
d="M531 228c0 -15 -10 -30 -30 -30h-67v-168c0 -20 -15 -30 -30 -30s-30 10 -30 30v168h-299c-18 0 -30 11 -30 27c0 4 1 8 2 13c1 2 97 279 335 533c9 9 18 13 26 13c15 0 26 -12 26 -34v-492h67c20 0 30 -15 30 -30zM374 258v413c-104 -123 -192 -264 -255 -413h255z" />
    <glyph glyph-name="five" unicode="5" horiz-adv-x="576" 
d="M516 218c0 -126 -102 -228 -228 -228s-228 102 -228 228c0 20 15 30 30 30s30 -10 30 -30c0 -93 75 -168 168 -168s168 75 168 168v79c0 93 -75 168 -168 168c-51 0 -118 -18 -158 -53c-9 -8 -18 -11 -26 -11c-14 0 -25 11 -25 30c0 2 1 5 1 8l50 316c2 13 17 25 30 25
h303c20 0 30 -15 30 -30s-10 -30 -30 -30h-277l-36 -226c34 16 81 31 138 31c126 0 228 -102 228 -228v-79z" />
    <glyph glyph-name="six" unicode="6" horiz-adv-x="576" 
d="M526 218c0 -126 -102 -228 -228 -228s-228 102 -228 228v79c0 202 76 399 271 477c37 15 52 17 59 17c18 0 29 -16 29 -32c0 -13 -8 -26 -25 -29c0 0 -17 -2 -41 -12c-113 -45 -178 -137 -209 -245c39 32 89 52 144 52c126 0 228 -102 228 -228v-79zM466 218v79
c0 93 -75 168 -168 168s-168 -75 -168 -168v-79c0 -93 75 -168 168 -168s168 75 168 168z" />
    <glyph glyph-name="seven" unicode="7" horiz-adv-x="577" 
d="M517 752c0 -2 -1 -4 -1 -6c0 0 -12 -87 -50 -223c-37 -135 -101 -317 -204 -507c-6 -11 -16 -16 -26 -16c-15 0 -30 12 -30 29c0 5 1 10 4 15c113 208 199 442 241 676h-371c-20 0 -30 15 -30 30s10 30 30 30h406c17 0 31 -12 31 -28z" />
    <glyph glyph-name="eight" unicode="8" horiz-adv-x="576" 
d="M506 200c0 -119 -98 -210 -218 -210c-118 0 -218 92 -218 210c0 112 74 165 155 209c-70 41 -130 94 -130 193c0 112 84 188 193 188c112 0 193 -76 193 -188c0 -99 -60 -152 -130 -193c81 -44 155 -97 155 -209zM421 602c0 76 -53 128 -133 128
c-79 0 -133 -52 -133 -128c0 -80 61 -122 133 -160c72 38 133 80 133 160zM446 200c0 91 -76 132 -158 175c-82 -43 -158 -84 -158 -175c0 -82 70 -150 158 -150c90 0 158 67 158 150z" />
    <glyph glyph-name="nine" unicode="9" horiz-adv-x="576" 
d="M506 483c0 -202 -76 -399 -271 -477c-37 -15 -52 -17 -59 -17c-18 0 -29 16 -29 32c0 13 8 26 25 29c0 0 17 2 41 12c113 45 178 137 209 245c-39 -32 -89 -52 -144 -52c-126 0 -228 102 -228 228v79c0 126 102 228 228 228s228 -102 228 -228v-79zM446 483v79
c0 93 -75 168 -168 168s-168 -75 -168 -168v-79c0 -93 75 -168 168 -168s168 75 168 168z" />
    <glyph glyph-name="at" unicode="@" horiz-adv-x="872" 
d="M812 178c0 -74 -51 -153 -137 -153c-64 0 -109 34 -124 88c-39 -38 -92 -63 -149 -63c-100 0 -179 77 -179 178c0 57 13 127 19 185c11 106 105 192 212 192c53 0 101 -22 134 -58l1 8c2 15 12 30 31 30c20 0 29 -21 28 -33l-41 -387c-5 -47 22 -80 68 -80
c45 0 77 44 77 93v233c0 176 -137 319 -313 319s-319 -143 -319 -319v-172c0 -176 143 -319 319 -319c50 0 90 10 133 34c4 2 9 4 15 4c19 0 30 -16 30 -31c0 -12 -7 -20 -14 -25c-49 -30 -110 -42 -164 -42c-209 0 -379 170 -379 379v172c0 209 170 379 379 379
c211 0 373 -171 373 -379v-233zM572 412c8 73 -45 133 -118 133c-76 0 -144 -63 -153 -138c-5 -55 -18 -125 -18 -179c0 -68 52 -118 119 -118c74 0 144 59 151 130z" />
    <glyph glyph-name="A" unicode="A" horiz-adv-x="601" 
d="M571 29c0 -18 -16 -29 -32 -29c-11 0 -22 6 -27 21l-75 225h-273l-75 -225c-5 -15 -16 -21 -28 -21c-15 0 -31 11 -31 29c0 3 1 7 2 10l240 720c6 18 17 26 28 26c12 0 23 -8 29 -26l240 -720c1 -3 2 -7 2 -10zM417 306l-117 349l-116 -349h233z" />
    <glyph glyph-name="B" unicode="B" horiz-adv-x="586" 
d="M536 218c0 -121 -98 -218 -218 -218h-208c-16 0 -30 14 -30 30v720c0 16 14 30 30 30h208c112 0 203 -91 203 -202c0 -73 -38 -136 -95 -172c65 -37 110 -108 110 -188zM476 217c0 87 -71 158 -158 158h-178v-315h178c87 0 158 71 158 157zM460 578l1 -1
c0 79 -64 143 -143 143h-178v-285h178c79 0 142 64 142 143z" />
    <glyph glyph-name="C" unicode="C" horiz-adv-x="598" 
d="M548 104c0 -6 -3 -13 -9 -19c0 0 -5 -6 -15 -16c-55 -52 -131 -79 -206 -79c-142 0 -258 116 -258 258v284c0 142 116 258 258 258c75 0 173 -33 221 -95c5 -7 7 -13 7 -19c0 -17 -15 -31 -31 -31c-8 0 -16 4 -22 12l-10 10c-44 42 -105 63 -165 63
c-109 0 -198 -89 -198 -198v-284c0 -109 89 -198 198 -198c59 0 135 25 175 73c6 8 14 11 22 11c17 0 33 -14 33 -30z" />
    <glyph glyph-name="D" unicode="D" horiz-adv-x="641" 
d="M576 258c0 -142 -116 -258 -258 -258h-208c-16 0 -30 14 -30 30v720c0 16 14 30 30 30h208c142 0 258 -116 258 -258v-264zM516 258v264c0 109 -89 198 -198 198h-178v-660h178c109 0 198 89 198 198z" />
    <glyph glyph-name="E" unicode="E" horiz-adv-x="565" 
d="M515 30c0 -15 -10 -30 -30 -30h-375c-16 0 -30 14 -30 30v720c0 16 14 30 30 30h375c20 0 30 -15 30 -30s-10 -30 -30 -30h-345v-282h315c20 0 30 -15 30 -30s-10 -30 -30 -30h-315v-318h345c20 0 30 -15 30 -30z" />
    <glyph glyph-name="F" unicode="F" horiz-adv-x="555" 
d="M515 750c0 -15 -10 -30 -30 -30h-345v-282h315c20 0 30 -15 30 -30s-10 -30 -30 -30h-315v-348c0 -20 -15 -30 -30 -30s-30 10 -30 30v720c0 16 14 30 30 30h375c20 0 30 -15 30 -30z" />
    <glyph glyph-name="G" unicode="G" horiz-adv-x="636" 
d="M576 248c0 -142 -116 -258 -258 -258s-258 116 -258 258v284c0 142 116 258 258 258c75 0 173 -33 221 -95c5 -7 7 -13 7 -19c0 -17 -15 -31 -31 -31c-8 0 -16 4 -22 12l-10 10c-44 42 -105 63 -165 63c-109 0 -198 -89 -198 -198v-284c0 -109 89 -198 198 -198
s198 89 198 198v108h-190c-20 0 -30 15 -30 30s10 30 30 30h220c16 0 30 -14 30 -30v-138z" />
    <glyph glyph-name="H" unicode="H" horiz-adv-x="656" 
d="M576 30c0 -20 -15 -30 -30 -30s-30 10 -30 30v360h-376v-360c0 -20 -15 -30 -30 -30s-30 10 -30 30v720c0 20 15 30 30 30s30 -10 30 -30v-300h376v300c0 20 15 30 30 30s30 -10 30 -30v-720z" />
    <glyph glyph-name="I" unicode="I" horiz-adv-x="460" 
d="M420 30c0 -15 -10 -30 -30 -30h-320c-20 0 -30 15 -30 30s10 30 30 30h130v660h-130c-20 0 -30 15 -30 30s10 30 30 30h320c20 0 30 -15 30 -30s-10 -30 -30 -30h-130v-660h130c20 0 30 -15 30 -30z" />
    <glyph glyph-name="I.alt" unicode="&#xf801;" horiz-adv-x="220" 
d="M80 30v720c0 20 15 30 30 30s30 -10 30 -30v-720c0 -20 -15 -30 -30 -30s-30 10 -30 30z" />
    <glyph glyph-name="J" unicode="J" horiz-adv-x="546" 
d="M466 248c0 -136 -93 -258 -238 -258c-70 0 -156 35 -193 99c-4 5 -5 11 -5 16c0 16 16 29 31 29c10 0 19 -4 25 -15c0 0 2 -3 7 -9c33 -40 84 -60 135 -60c104 0 178 88 178 198v472h-248c-20 0 -30 15 -30 30s10 30 30 30h278c16 0 30 -14 30 -30v-502z" />
    <glyph glyph-name="J.alt" unicode="&#xf802;" horiz-adv-x="448" 
d="M64 71c25 -13 55 -21 86 -21c104 0 158 68 158 178v522c0 20 15 30 30 30s30 -10 30 -30v-522c0 -136 -73 -238 -218 -238c-37 0 -81 9 -116 29c-8 5 -14 14 -14 25c0 17 13 30 30 30c5 0 10 -1 14 -3z" />
    <glyph glyph-name="K" unicode="K" horiz-adv-x="639" 
d="M609 30c0 -17 -16 -30 -32 -30c-8 0 -16 3 -23 12l-280 377l-134 -154v-205c0 -20 -15 -30 -30 -30s-30 10 -30 30v720c0 20 15 30 30 30s30 -10 30 -30v-423l384 443c7 7 15 11 22 11c17 0 32 -15 32 -31c0 -6 -3 -13 -8 -20l-256 -294l288 -388c5 -6 7 -12 7 -18z" />
    <glyph glyph-name="L" unicode="L" horiz-adv-x="545" 
d="M515 30c0 -15 -10 -30 -30 -30h-375c-16 0 -30 14 -30 30v720c0 20 15 30 30 30s30 -10 30 -30v-690h345c20 0 30 -15 30 -30z" />
    <glyph glyph-name="M" unicode="M" horiz-adv-x="820" 
d="M740 30c0 -20 -15 -30 -30 -30s-30 10 -30 30v568l-242 -580c-7 -15 -17 -23 -28 -23s-21 8 -28 23l-242 580v-568c0 -20 -15 -30 -30 -30s-30 10 -30 30v718c0 22 14 35 28 35c11 0 23 -8 30 -23l272 -652l272 652c7 15 19 23 30 23c14 0 28 -13 28 -35v-718z" />
    <glyph glyph-name="N" unicode="N" horiz-adv-x="656" 
d="M576 30c0 -22 -13 -35 -27 -35c-10 0 -21 6 -29 19l-380 629v-613c0 -20 -15 -30 -30 -30s-30 10 -30 30v720c0 22 13 35 27 35c10 0 21 -6 29 -19l380 -629v613c0 20 15 30 30 30s30 -10 30 -30v-720z" />
    <glyph glyph-name="O" unicode="O" horiz-adv-x="636" 
d="M576 248c0 -142 -116 -258 -258 -258s-258 116 -258 258v284c0 142 116 258 258 258s258 -116 258 -258v-284zM516 248v284c0 109 -89 198 -198 198s-198 -89 -198 -198v-284c0 -109 89 -198 198 -198s198 89 198 198z" />
    <glyph glyph-name="P" unicode="P" horiz-adv-x="577" 
d="M537 532c0 -138 -112 -249 -249 -249h-148v-253c0 -20 -15 -30 -30 -30s-30 10 -30 30v720c0 16 14 30 30 30h178c137 0 249 -111 249 -248zM477 531c0 105 -85 189 -189 189h-148v-377h148c104 0 189 83 189 188z" />
    <glyph glyph-name="Q" unicode="Q" horiz-adv-x="636" 
d="M576 248c0 -132 -100 -241 -228 -256v-22c0 -53 43 -95 95 -95c20 0 30 -15 30 -30s-10 -30 -30 -30c-85 0 -155 69 -155 155v22c-128 15 -228 124 -228 256v284c0 142 116 258 258 258s258 -116 258 -258v-284zM516 248v284c0 109 -89 198 -198 198s-198 -89 -198 -198
v-284c0 -109 89 -198 198 -198s198 89 198 198z" />
    <glyph glyph-name="Q.alt" unicode="&#xf803;" horiz-adv-x="636" 
d="M288 -170v162c-128 15 -228 124 -228 256v284c0 142 116 258 258 258s258 -116 258 -258v-284c0 -132 -100 -241 -228 -256v-162c0 -20 -15 -30 -30 -30s-30 10 -30 30zM516 248v284c0 109 -89 198 -198 198s-198 -89 -198 -198v-284c0 -109 89 -198 198 -198
s198 89 198 198z" />
    <glyph glyph-name="R" unicode="R" horiz-adv-x="589" 
d="M539 29c0 -16 -16 -29 -32 -29c-9 0 -18 4 -24 14l-172 270c-7 -1 -15 -1 -23 -1h-148v-253c0 -20 -15 -30 -30 -30s-30 10 -30 30v720c0 16 14 30 30 30h178c137 0 249 -111 249 -248c0 -108 -68 -199 -163 -234l159 -252c4 -6 6 -11 6 -17zM477 531
c0 105 -85 189 -189 189h-148v-377h148c103 0 189 82 189 188z" />
    <glyph glyph-name="S" unicode="S" horiz-adv-x="590" 
d="M530 201c0 -132 -119 -211 -255 -211c-71 0 -166 31 -209 94c-4 6 -6 12 -6 17c0 17 15 30 31 30c9 0 17 -4 24 -13c0 0 3 -4 8 -9c39 -41 97 -59 152 -59c118 0 195 65 195 151c0 219 -405 137 -405 392c0 126 108 197 220 197c78 0 170 -42 217 -106c5 -6 7 -12 7 -18
c0 -16 -14 -29 -30 -29c-9 0 -17 3 -24 11c0 0 -4 5 -11 12c-41 43 -99 70 -159 70c-90 0 -160 -55 -160 -137c0 -195 405 -119 405 -392z" />
    <glyph glyph-name="T" unicode="T" horiz-adv-x="560" 
d="M550 750c0 -15 -10 -30 -30 -30h-210v-690c0 -20 -15 -30 -30 -30s-30 10 -30 30v690h-210c-20 0 -30 15 -30 30s10 30 30 30h480c20 0 30 -15 30 -30z" />
    <glyph glyph-name="U" unicode="U" horiz-adv-x="656" 
d="M586 248c0 -142 -116 -258 -258 -258s-258 116 -258 258v502c0 20 15 30 30 30s30 -10 30 -30v-502c0 -109 89 -198 198 -198s198 89 198 198v502c0 20 15 30 30 30s30 -10 30 -30v-502z" />
    <glyph glyph-name="V" unicode="V" horiz-adv-x="581" 
d="M561 751c0 -3 -1 -7 -2 -10l-240 -728c-6 -18 -17 -26 -29 -26c-11 0 -23 8 -28 26l-240 728c-1 3 -2 7 -2 10c0 18 16 29 31 29c12 0 23 -6 28 -21l211 -641l212 641c5 15 16 21 27 21c16 0 32 -11 32 -29z" />
    <glyph glyph-name="W" unicode="W" horiz-adv-x="940" 
d="M920 751c0 -3 0 -6 -1 -9l-200 -728c-5 -18 -17 -27 -29 -27c-11 0 -23 9 -28 26l-192 633l-191 -633c-5 -17 -17 -26 -29 -26s-24 9 -29 27l-200 728c-1 3 -1 6 -1 9c0 18 16 29 31 29c12 0 24 -7 28 -22l173 -628l190 629c5 17 17 26 28 26c12 0 24 -9 29 -26l190 -629
l172 628c5 15 16 22 28 22c16 0 31 -11 31 -29z" />
    <glyph glyph-name="X" unicode="X" horiz-adv-x="580" 
d="M540 29c0 -16 -16 -29 -31 -29c-10 0 -19 4 -25 15l-194 330l-194 -330c-6 -11 -15 -15 -25 -15c-15 0 -31 13 -31 29c0 5 1 11 5 16l210 360l-193 330c-4 5 -5 11 -5 16c0 16 16 29 31 29c10 0 19 -4 25 -15l177 -301l177 301c6 11 15 15 25 15c15 0 31 -13 31 -29
c0 -5 -1 -11 -5 -16l-193 -330l210 -360c4 -5 5 -11 5 -16z" />
    <glyph glyph-name="Y" unicode="Y" horiz-adv-x="581" 
d="M561 751c0 -5 -1 -11 -5 -16l-236 -395v-310c0 -20 -15 -30 -30 -30s-30 10 -30 30v310l-235 395c-4 5 -5 11 -5 16c0 16 16 29 31 29c10 0 19 -4 25 -15l214 -358l215 358c6 11 15 15 25 15c15 0 31 -13 31 -29z" />
    <glyph glyph-name="Z" unicode="Z" horiz-adv-x="586" 
d="M541 30c0 -15 -10 -30 -30 -30h-434c-20 0 -32 11 -32 26c0 6 2 12 6 19l403 675h-354c-20 0 -30 15 -30 30s10 30 30 30h407c20 0 32 -11 32 -26c0 -6 -2 -12 -6 -19l-403 -675h381c20 0 30 -15 30 -30z" />
    <glyph glyph-name="a" unicode="a" horiz-adv-x="478" 
d="M413 162c0 -103 -84 -172 -181 -172c-95 0 -182 56 -182 161c0 100 84 149 175 168l128 27v47c0 67 -38 112 -119 112c-38 0 -63 -12 -84 -28c-20 -16 -25 -32 -46 -32c-15 0 -29 12 -29 29c0 11 7 21 14 29c36 41 90 62 145 62c113 0 179 -72 179 -172v-231zM353 162
v124l-129 -28c-69 -15 -114 -55 -114 -106c0 -62 48 -102 121 -102c70 0 122 47 122 112z" />
    <glyph glyph-name="a.alt" unicode="&#xf806;" horiz-adv-x="483" 
d="M232 -10c-95 0 -182 56 -182 161c0 100 84 149 175 168c0 0 79 17 128 27v47c0 67 -38 112 -119 112c-38 0 -63 -12 -84 -28c-20 -16 -25 -32 -46 -32c-15 0 -29 12 -29 29c0 11 7 21 14 29c36 41 90 62 145 62c113 0 179 -72 179 -172v-363c0 -20 -15 -30 -30 -30
s-30 10 -30 30v15c-25 -28 -67 -55 -121 -55zM353 162v125l-129 -29c-69 -15 -114 -55 -114 -106c0 -62 48 -102 121 -102c70 0 122 47 122 112z" />
    <glyph glyph-name="b" unicode="b" horiz-adv-x="525" 
d="M460 185c0 -108 -87 -195 -195 -195s-195 87 -195 195v565c0 20 15 30 30 30s30 -10 30 -30v-248c34 37 82 63 135 63c108 0 195 -87 195 -195v-185zM400 185v185c0 75 -60 135 -135 135s-135 -60 -135 -135v-185c0 -75 60 -135 135 -135s135 60 135 135z" />
    <glyph glyph-name="b.alt" unicode="&#xf807;" horiz-adv-x="525" 
d="M130 53v-23c0 -20 -15 -30 -30 -30s-30 10 -30 30v720c0 20 15 30 30 30s30 -10 30 -30v-248c34 37 82 63 135 63c108 0 195 -87 195 -195v-185c0 -108 -87 -195 -195 -195c-53 0 -101 26 -135 63zM130 185c0 -75 60 -135 135 -135s135 60 135 135v185
c0 75 -60 135 -135 135s-135 -60 -135 -135v-185z" />
    <glyph glyph-name="c" unicode="c" horiz-adv-x="473" 
d="M423 81c0 -6 -2 -12 -6 -18c0 0 -4 -5 -11 -13c-39 -41 -96 -60 -152 -60c-111 0 -189 69 -189 172v231c0 103 78 172 189 172c55 0 130 -24 163 -73c4 -6 5 -12 5 -17c0 -17 -15 -30 -31 -30c-8 0 -17 3 -24 13c0 0 -1 2 -5 6c-27 29 -69 41 -108 41
c-83 0 -129 -48 -129 -112v-231c0 -64 46 -112 129 -112c38 0 90 14 113 47c7 9 16 13 24 13c16 0 32 -13 32 -29z" />
    <glyph glyph-name="d" unicode="d" horiz-adv-x="525" 
d="M395 502v248c0 20 15 30 30 30s30 -10 30 -30v-565c0 -108 -87 -195 -195 -195s-195 87 -195 195v185c0 108 87 195 195 195c53 0 101 -26 135 -63zM395 185v185c0 75 -60 135 -135 135s-135 -60 -135 -135v-185c0 -75 60 -135 135 -135s135 60 135 135z" />
    <glyph glyph-name="d.alt" unicode="&#xf808;" horiz-adv-x="525" 
d="M395 30v23c-34 -37 -82 -63 -135 -63c-108 0 -195 87 -195 195v185c0 108 87 195 195 195c53 0 101 -26 135 -63v248c0 20 15 30 30 30s30 -10 30 -30v-720c0 -20 -15 -30 -30 -30s-30 10 -30 30zM395 185v185c0 75 -60 135 -135 135s-135 -60 -135 -135v-185
c0 -75 60 -135 135 -135s135 60 135 135z" />
    <glyph glyph-name="e" unicode="e" horiz-adv-x="515" 
d="M455 300c0 -16 -14 -30 -30 -30h-300v-85c0 -72 68 -135 145 -135c38 0 84 11 113 48c7 9 17 13 25 13c16 0 31 -13 31 -29c0 -6 -2 -13 -6 -19c-38 -50 -102 -73 -163 -73c-105 0 -205 85 -205 195v185c0 108 87 195 195 195s195 -87 195 -195v-70zM395 330v40
c0 75 -60 135 -135 135s-135 -60 -135 -135v-40h270z" />
    <glyph glyph-name="f" unicode="f" horiz-adv-x="378" 
d="M388 740c0 -16 -13 -32 -30 -32c-18 0 -34 22 -75 22c-58 0 -92 -37 -92 -81v-94h150c20 0 30 -15 30 -30s-10 -30 -30 -30h-150v-465c0 -20 -15 -30 -30 -30s-30 10 -30 30v465h-91c-20 0 -30 15 -30 30s10 30 30 30h91v94c0 80 64 141 152 141c34 0 66 -10 89 -24
c10 -7 16 -17 16 -26z" />
    <glyph glyph-name="g" unicode="g" horiz-adv-x="525" 
d="M395 -5v78c-34 -37 -82 -63 -135 -63c-108 0 -195 87 -195 195v165c0 108 87 195 195 195s195 -87 195 -195v-375c0 -108 -87 -195 -195 -195c-55 0 -130 24 -163 73c-4 6 -5 12 -5 17c0 17 15 30 31 30c8 0 17 -3 24 -13c0 0 1 -2 5 -6c27 -29 69 -41 108 -41
c75 0 135 60 135 135zM395 205v165c0 75 -60 135 -135 135s-135 -60 -135 -135v-165c0 -75 60 -135 135 -135s135 60 135 135z" />
    <glyph glyph-name="g.alt" unicode="&#xf809;" horiz-adv-x="525" 
d="M455 525v-530c0 -108 -87 -195 -195 -195c-55 0 -130 24 -163 73c-4 6 -5 12 -5 17c0 17 15 30 31 30c8 0 17 -3 24 -13c0 0 1 -2 5 -6c27 -29 69 -41 108 -41c75 0 135 60 135 135v78c-34 -37 -82 -63 -135 -63c-108 0 -195 87 -195 195v165c0 108 87 195 195 195
c53 0 101 -26 135 -63v23c0 20 15 30 30 30s30 -10 30 -30zM395 205v165c0 75 -60 135 -135 135s-135 -60 -135 -135v-165c0 -75 60 -135 135 -135s135 60 135 135z" />
    <glyph glyph-name="h" unicode="h" 
d="M130 750v-248c34 37 82 63 135 63c108 0 195 -87 195 -195v-340c0 -20 -15 -30 -30 -30s-30 10 -30 30v340c0 75 -60 135 -135 135s-135 -60 -135 -135v-340c0 -20 -15 -30 -30 -30s-30 10 -30 30v720c0 20 15 30 30 30s30 -10 30 -30z" />
    <glyph glyph-name="i" unicode="i" horiz-adv-x="200" 
d="M130 30c0 -20 -15 -30 -30 -30s-30 10 -30 30v495c0 20 15 30 30 30s30 -10 30 -30v-495zM60 728c0 22 18 40 40 40s40 -18 40 -40s-18 -40 -40 -40s-40 18 -40 40z" />
    <glyph glyph-name="j" unicode="j" horiz-adv-x="210" 
d="M140 30c0 -77 -36 -176 -102 -224c-6 -5 -12 -6 -18 -6c-16 0 -30 15 -30 31c0 8 4 16 13 23c0 0 4 3 10 10c44 43 67 104 67 166v495c0 20 15 30 30 30s30 -10 30 -30v-495zM70 728c0 22 18 40 40 40s40 -18 40 -40s-18 -40 -40 -40s-40 18 -40 40z" />
    <glyph glyph-name="k" unicode="k" horiz-adv-x="472" 
d="M452 30c0 -17 -16 -30 -32 -30c-8 0 -16 3 -23 12l-188 250l-79 -93v-139c0 -20 -15 -30 -30 -30s-30 10 -30 30v720c0 20 15 30 30 30s30 -10 30 -30v-489l242 283c7 8 15 12 22 12c17 0 32 -15 32 -31c0 -6 -3 -13 -8 -19l-169 -197l196 -261c5 -6 7 -12 7 -18z" />
    <glyph glyph-name="l" unicode="l" horiz-adv-x="220" 
d="M200 20c0 -15 -12 -30 -29 -30c-3 0 -8 0 -12 2c0 0 -6 2 -16 9c-52 33 -73 96 -73 156v593c0 20 15 30 30 30s30 -10 30 -30v-593c0 -37 12 -92 51 -109c13 -6 19 -17 19 -28z" />
    <glyph glyph-name="l.alt" unicode="&#xf804;" horiz-adv-x="200" 
d="M70 30v720c0 20 15 30 30 30s30 -10 30 -30v-720c0 -20 -15 -30 -30 -30s-30 10 -30 30z" />
    <glyph glyph-name="m" unicode="m" horiz-adv-x="780" 
d="M710 30c0 -20 -15 -30 -30 -30s-30 10 -30 30v360c0 64 -51 115 -115 115s-115 -51 -115 -115v-360c0 -21 -15 -31 -30 -31s-30 10 -30 31v360c0 64 -51 115 -115 115s-115 -51 -115 -115v-360c0 -20 -15 -30 -30 -30s-30 10 -30 30v360c0 97 78 175 175 175
c60 0 114 -31 145 -77c31 46 85 77 145 77c97 0 175 -78 175 -175v-360z" />
    <glyph glyph-name="m.alt" unicode="&#xf80a;" horiz-adv-x="780" 
d="M245 565c60 0 114 -31 145 -77c31 46 85 77 145 77c97 0 175 -78 175 -175v-360c0 -20 -15 -30 -30 -30s-30 10 -30 30v360c0 64 -51 115 -115 115s-115 -51 -115 -115v-360c0 -21 -15 -31 -30 -31s-30 10 -30 31v360c0 64 -51 115 -115 115s-115 -51 -115 -115v-360
c0 -20 -15 -30 -30 -30s-30 10 -30 30v495c0 20 15 30 30 30s30 -10 30 -30v-13c22 27 62 53 115 53z" />
    <glyph glyph-name="n" unicode="n" 
d="M460 30c0 -20 -15 -30 -30 -30s-30 10 -30 30v340c0 75 -60 135 -135 135s-135 -60 -135 -135v-340c0 -20 -15 -30 -30 -30s-30 10 -30 30v340c0 108 87 195 195 195s195 -87 195 -195v-340z" />
    <glyph glyph-name="n.alt" unicode="&#xf80b;" 
d="M70 30v495c0 20 15 30 30 30s30 -10 30 -30v-23c34 37 82 63 135 63c108 0 195 -87 195 -195v-340c0 -20 -15 -30 -30 -30s-30 10 -30 30v340c0 75 -60 135 -135 135s-135 -60 -135 -135v-340c0 -20 -15 -30 -30 -30s-30 10 -30 30z" />
    <glyph glyph-name="o" unicode="o" horiz-adv-x="520" 
d="M455 185c0 -108 -87 -195 -195 -195s-195 87 -195 195v185c0 108 87 195 195 195s195 -87 195 -195v-185zM395 185v185c0 75 -60 135 -135 135s-135 -60 -135 -135v-185c0 -75 60 -135 135 -135s135 60 135 135z" />
    <glyph glyph-name="p" unicode="p" horiz-adv-x="525" 
d="M130 53v-223c0 -20 -15 -30 -30 -30s-30 10 -30 30v540c0 108 87 195 195 195s195 -87 195 -195v-185c0 -108 -87 -195 -195 -195c-53 0 -101 26 -135 63zM400 185v185c0 75 -60 135 -135 135s-135 -60 -135 -135v-185c0 -75 60 -135 135 -135s135 60 135 135z" />
    <glyph glyph-name="p.alt" unicode="&#xf80c;" horiz-adv-x="525" 
d="M130 525v-23c34 37 82 63 135 63c108 0 195 -87 195 -195v-185c0 -108 -87 -195 -195 -195c-53 0 -101 26 -135 63v-248c0 -20 -15 -30 -30 -30s-30 10 -30 30v720c0 20 15 30 30 30s30 -10 30 -30zM130 370v-185c0 -75 60 -135 135 -135s135 60 135 135v185
c0 75 -60 135 -135 135s-135 -60 -135 -135z" />
    <glyph glyph-name="q" unicode="q" horiz-adv-x="525" 
d="M395 -170v223c-34 -37 -82 -63 -135 -63c-108 0 -195 87 -195 195v185c0 108 87 195 195 195s195 -87 195 -195v-540c0 -20 -15 -30 -30 -30s-30 10 -30 30zM395 185v185c0 75 -60 135 -135 135s-135 -60 -135 -135v-185c0 -75 60 -135 135 -135s135 60 135 135z" />
    <glyph glyph-name="q.alt" unicode="&#xf80d;" horiz-adv-x="525" 
d="M395 502v23c0 20 15 30 30 30s30 -10 30 -30v-720c0 -20 -15 -30 -30 -30s-30 10 -30 30v248c-34 -37 -82 -63 -135 -63c-108 0 -195 87 -195 195v185c0 108 87 195 195 195c53 0 101 -26 135 -63zM395 370c0 75 -60 135 -135 135s-135 -60 -135 -135v-185
c0 -75 60 -135 135 -135s135 60 135 135v185z" />
    <glyph glyph-name="r" unicode="r" horiz-adv-x="399" 
d="M379 495c0 -16 -14 -30 -31 -30c-7 0 -14 3 -21 9c0 0 -2 2 -5 4c-21 17 -49 27 -77 27c-72 0 -115 -52 -115 -142v-333c0 -20 -15 -30 -30 -30s-30 10 -30 30v333c0 111 59 202 175 202c41 0 94 -18 124 -49c7 -7 10 -14 10 -21z" />
    <glyph glyph-name="r.alt" unicode="&#xf80e;" horiz-adv-x="339" 
d="M310 553c11 -4 19 -15 19 -28c0 -17 -13 -30 -30 -30c-3 0 -7 1 -10 2c-14 5 -29 8 -44 8c-72 0 -115 -52 -115 -142v-333c0 -20 -15 -30 -30 -30s-30 10 -30 30v495c0 20 15 30 30 30s30 -10 30 -30v-18c21 30 62 58 115 58c20 0 43 -4 65 -12z" />
    <glyph glyph-name="s" unicode="s" horiz-adv-x="444" 
d="M394 148c0 -97 -87 -158 -186 -158c-51 0 -121 23 -152 69c-4 6 -6 12 -6 17c0 17 15 30 31 30c9 0 17 -3 24 -13l5 -5c25 -26 62 -38 98 -38c78 0 126 45 126 98c0 142 -281 90 -281 274c0 95 83 143 162 143c56 0 122 -30 153 -79c3 -5 5 -11 5 -17
c0 -16 -16 -29 -31 -29c-9 0 -18 4 -25 14c0 0 -2 2 -5 7c-24 27 -59 44 -97 44c-60 0 -102 -34 -102 -83c0 -124 281 -78 281 -274z" />
    <glyph glyph-name="t" unicode="t" horiz-adv-x="429" 
d="M409 55c0 -13 -10 -21 -20 -29c-30 -22 -68 -36 -106 -36c-88 0 -152 61 -152 141v364h-91c-20 0 -30 15 -30 30s10 30 30 30h91v127c0 20 15 30 30 30s30 -10 30 -30v-127h177c20 0 30 -15 30 -30s-10 -30 -30 -30h-177v-364c0 -44 34 -81 92 -81c55 0 74 36 97 36
c16 0 29 -15 29 -31z" />
    <glyph glyph-name="t.alt" unicode="&#xf810;" horiz-adv-x="412" 
d="M231 495v-465c0 -20 -15 -30 -30 -30s-30 10 -30 30v465h-121c-20 0 -30 15 -30 30s10 30 30 30h121v127c0 20 15 30 30 30s30 -10 30 -30v-127h131c20 0 30 -15 30 -30s-10 -30 -30 -30h-131z" />
    <glyph glyph-name="t.alt2" unicode="&#xf805;" horiz-adv-x="368" 
d="M70 131v551c0 20 15 30 30 30s30 -10 30 -30v-127h177c20 0 30 -15 30 -30s-10 -30 -30 -30h-177v-364c0 -44 34 -81 92 -81c55 0 74 36 97 36c16 0 29 -15 29 -31c0 -13 -10 -21 -20 -29c-30 -22 -68 -36 -106 -36c-88 0 -152 61 -152 141z" />
    <glyph glyph-name="u" unicode="u" 
d="M460 185c0 -108 -87 -195 -195 -195s-195 87 -195 195v340c0 20 15 30 30 30s30 -10 30 -30v-340c0 -75 60 -135 135 -135s135 60 135 135v340c0 20 15 30 30 30s30 -10 30 -30v-340z" />
    <glyph glyph-name="u.alt" unicode="&#xf80f;" 
d="M460 525v-495c0 -20 -15 -30 -30 -30s-30 10 -30 30v23c-34 -37 -82 -63 -135 -63c-108 0 -195 87 -195 195v340c0 20 15 30 30 30s30 -10 30 -30v-340c0 -75 60 -135 135 -135s135 60 135 135v340c0 20 15 30 30 30s30 -10 30 -30z" />
    <glyph glyph-name="v" unicode="v" horiz-adv-x="501" 
d="M471 526c0 -4 -1 -8 -3 -12l-190 -495c-6 -16 -17 -24 -28 -24s-22 8 -28 24l-190 495c-1 4 -2 8 -2 12c0 17 16 29 31 29c11 0 22 -6 27 -19l162 -422l162 422c6 13 16 19 27 19c16 0 32 -12 32 -29z" />
    <glyph glyph-name="w" unicode="w" horiz-adv-x="740" 
d="M710 526c0 -3 0 -6 -1 -10l-150 -495c-5 -17 -17 -26 -29 -26c-11 0 -23 8 -28 26l-132 406l-131 -406c-6 -18 -17 -26 -29 -26s-23 9 -28 26l-150 495c-2 4 -2 7 -2 10c0 18 16 29 31 29c12 0 23 -6 28 -21l122 -404l131 404c5 17 17 26 28 26c12 0 23 -9 29 -26
l130 -404l123 404c4 15 16 21 27 21c16 0 31 -11 31 -29z" />
    <glyph glyph-name="x" unicode="x" horiz-adv-x="467" 
d="M427 29c0 -16 -15 -29 -31 -29c-9 0 -18 4 -25 14l-137 214l-138 -214c-7 -10 -16 -14 -25 -14c-15 0 -31 13 -31 29c0 6 2 12 5 17l153 237l-146 226c-3 5 -5 11 -5 17c0 16 16 29 31 29c9 0 18 -4 25 -14l131 -203l130 203c7 10 16 14 25 14c16 0 31 -13 31 -29
c0 -6 -2 -12 -5 -17l-146 -226l153 -237c3 -5 5 -11 5 -17z" />
    <glyph glyph-name="y" unicode="y" horiz-adv-x="482" 
d="M452 526c0 -4 -1 -7 -3 -11l-259 -695c-5 -14 -16 -20 -27 -20c-15 0 -31 11 -31 29c0 4 1 7 2 11l71 192l-173 483c-1 4 -2 8 -2 11c0 18 16 29 31 29c11 0 22 -6 28 -20l149 -416l155 416c5 14 16 20 27 20c16 0 32 -11 32 -29z" />
    <glyph glyph-name="z" unicode="z" horiz-adv-x="458" 
d="M418 30c0 -15 -10 -30 -30 -30h-321c-20 0 -32 11 -32 25c0 7 2 14 7 21l287 449h-239c-20 0 -30 15 -30 30s10 30 30 30h294c20 0 32 -11 32 -25c0 -7 -2 -14 -7 -21l-287 -449h266c20 0 30 -15 30 -30z" />
    <glyph glyph-name="cent" unicode="&#xa2;" horiz-adv-x="473" 
d="M423 201c0 -6 -2 -12 -6 -18c0 0 -4 -5 -11 -13c-33 -34 -78 -53 -124 -58v-82c0 -20 -15 -30 -30 -30s-30 10 -30 30v82c-94 12 -157 77 -157 170v231c0 93 63 158 157 170v87c0 20 15 30 30 30s30 -10 30 -30v-87c50 -6 107 -30 135 -71c4 -6 5 -12 5 -17
c0 -17 -15 -30 -31 -30c-8 0 -17 3 -24 13c0 0 -1 2 -5 6c-21 22 -50 34 -80 39v-451c32 5 67 19 85 45c7 9 16 13 24 13c16 0 32 -13 32 -29zM222 173v449c-63 -10 -97 -53 -97 -109v-231c0 -56 34 -99 97 -109z" />
    <glyph glyph-name="sterling" unicode="&#xa3;" horiz-adv-x="579" 
d="M539 115c0 -4 -1 -8 -3 -13c0 0 -3 -7 -11 -18c-41 -59 -114 -84 -185 -84h-258c-24 0 -32 8 -32 19c0 21 28 54 36 68c13 25 26 61 26 109v113h-30c-20 0 -30 15 -30 30s10 30 30 30h30v183c0 129 86 238 218 238c80 0 169 -45 197 -124c1 -4 2 -8 2 -11
c0 -18 -16 -29 -32 -29c-11 0 -22 6 -27 20c0 0 -2 5 -6 11c-27 49 -77 73 -134 73c-92 0 -158 -75 -158 -178v-183h131c20 0 30 -15 30 -30s-10 -30 -30 -30h-131v-113c0 -59 -16 -104 -32 -136h200c48 0 118 17 141 66c6 13 16 18 27 18c15 0 31 -12 31 -29z" />
    <glyph glyph-name="yen" unicode="&#xa5;" horiz-adv-x="581" 
d="M561 751c0 -5 -1 -11 -5 -16l-236 -395v-43h129c20 0 30 -15 30 -30s-10 -30 -30 -30h-129v-63h129c20 0 30 -15 30 -30s-10 -30 -30 -30h-129v-84c0 -20 -15 -30 -30 -30s-30 10 -30 30v84h-129c-20 0 -30 15 -30 30s10 30 30 30h129v63h-129c-20 0 -30 15 -30 30
s10 30 30 30h129v43l-235 395c-4 5 -5 11 -5 16c0 16 16 29 31 29c10 0 19 -4 25 -15l214 -358l215 358c6 11 15 15 25 15c15 0 31 -13 31 -29z" />
    <glyph glyph-name="Euro" unicode="&#x20ac;" horiz-adv-x="628" 
d="M578 104c0 -13 -15 -26 -24 -35c-55 -52 -131 -79 -206 -79c-142 0 -258 116 -258 258v55h-50c-20 0 -30 15 -30 30s10 30 30 30h50v70h-50c-20 0 -30 15 -30 30s10 30 30 30h50v39c0 142 116 258 258 258c75 0 173 -33 221 -95c5 -7 7 -13 7 -19c0 -17 -15 -31 -31 -31
c-15 0 -22 13 -32 22c-44 42 -105 63 -165 63c-109 0 -198 -89 -198 -198v-39h245c20 0 30 -15 30 -30s-10 -30 -30 -30h-245v-70h171c20 0 30 -15 30 -30s-10 -30 -30 -30h-171v-55c0 -109 89 -198 198 -198c59 0 135 25 175 73c6 8 14 11 22 11c17 0 33 -14 33 -30z" />
    <glyph glyph-name="brokenbar" unicode="&#xa6;" horiz-adv-x="240" 
d="M150 345c0 -20 -15 -30 -30 -30s-30 10 -30 30v405c0 20 15 30 30 30s30 -10 30 -30v-405zM150 -170c0 -20 -15 -30 -30 -30s-30 10 -30 30v405c0 20 15 30 30 30s30 -10 30 -30v-405z" />
    <glyph glyph-name="bar" unicode="|" horiz-adv-x="260" 
d="M160 -170c0 -20 -15 -30 -30 -30s-30 10 -30 30v920c0 20 15 30 30 30s30 -10 30 -30v-920z" />
    <glyph glyph-name="dagger" unicode="&#x2020;" horiz-adv-x="560" 
d="M520 520c0 -15 -10 -30 -30 -30h-180v-660c0 -20 -15 -30 -30 -30s-30 10 -30 30v660h-180c-20 0 -30 15 -30 30s10 30 30 30h180v200c0 20 15 30 30 30s30 -10 30 -30v-200h180c20 0 30 -15 30 -30z" />
    <glyph glyph-name="daggerdbl" unicode="&#x2021;" horiz-adv-x="560" 
d="M520 60c0 -15 -10 -30 -30 -30h-180v-200c0 -20 -15 -30 -30 -30s-30 10 -30 30v200h-180c-20 0 -30 15 -30 30s10 30 30 30h180v400h-180c-20 0 -30 15 -30 30s10 30 30 30h180v200c0 20 15 30 30 30s30 -10 30 -30v-200h180c20 0 30 -15 30 -30s-10 -30 -30 -30h-180
v-400h180c20 0 30 -15 30 -30z" />
    <glyph glyph-name="section" unicode="&#xa7;" horiz-adv-x="590" 
d="M530 21c0 -132 -119 -211 -255 -211c-71 0 -166 31 -209 94c-4 6 -6 12 -6 17c0 17 15 30 31 30c9 0 17 -4 24 -13c0 0 3 -4 8 -9c39 -41 97 -59 152 -59c118 0 195 65 195 151c0 33 -16 60 -25 81l-1 2c-92 109 -379 75 -379 289c0 38 10 73 29 101
c-18 26 -29 58 -29 99c0 126 108 197 220 197c78 0 170 -42 217 -106c5 -6 7 -12 7 -18c0 -16 -14 -29 -30 -29c-9 0 -17 3 -24 11c0 0 -4 5 -11 12c-41 43 -99 70 -159 70c-90 0 -160 -55 -160 -137c0 -196 405 -98 405 -372c0 -37 -9 -70 -26 -98c17 -28 26 -62 26 -102z
M470 221c0 159 -215 149 -332 230c-8 -17 -13 -36 -13 -58c0 -143 221 -130 336 -222c6 15 9 32 9 50z" />
    <glyph glyph-name="paragraph" unicode="&#xb6;" horiz-adv-x="572" 
d="M487 -80c0 -20 -15 -30 -30 -30s-30 10 -30 30v800h-87v-800c0 -20 -15 -30 -30 -30s-30 10 -30 30v363h-1c-138 0 -249 111 -249 248c0 138 111 249 248 249h178c16 0 31 -14 31 -30v-830z" />
    <glyph glyph-name="copyright" unicode="&#xa9;" horiz-adv-x="888" 
d="M838 391c0 -217 -176 -399 -394 -399s-394 182 -394 399s176 399 394 399s394 -182 394 -399zM778 391c0 185 -150 339 -334 339s-334 -154 -334 -339s150 -339 334 -339s334 154 334 339zM590 224c0 -6 -2 -12 -8 -18c0 0 -3 -5 -10 -11c-35 -33 -84 -51 -132 -51
c-92 0 -167 75 -167 167v158c0 92 75 167 167 167c48 0 111 -22 142 -62c5 -6 7 -12 7 -19c0 -16 -15 -30 -31 -30c-8 0 -16 4 -23 12c0 0 -1 2 -5 5c-24 22 -57 34 -90 34c-59 0 -107 -48 -107 -107v-158c0 -59 48 -107 107 -107c32 0 73 13 95 39c7 8 15 11 23 11
c16 0 32 -14 32 -30z" />
    <glyph glyph-name="registered" unicode="&#xae;" horiz-adv-x="888" 
d="M838 391c0 -217 -176 -399 -394 -399s-394 182 -394 399s176 399 394 399s394 -182 394 -399zM778 391c0 185 -150 339 -334 339s-334 -154 -334 -339s150 -339 334 -339s334 154 334 339zM603 173c0 -16 -15 -29 -31 -29c-9 0 -18 4 -25 14l-98 156h-85v-140
c0 -20 -15 -30 -30 -30s-30 10 -30 30v432c0 16 14 30 30 30h107c89 0 161 -72 161 -161c0 -64 -38 -120 -92 -146l88 -139c4 -6 5 -11 5 -17zM542 475c0 56 -45 101 -101 101h-77v-202h77c55 0 101 45 101 101z" />
    <glyph glyph-name="published" unicode="&#x2117;" horiz-adv-x="888" 
d="M838 391c0 -217 -176 -399 -394 -399s-394 182 -394 399s176 399 394 399s394 -182 394 -399zM778 391c0 185 -150 339 -334 339s-334 -154 -334 -339s150 -339 334 -339s334 154 334 339zM461 314h-77v-140c0 -20 -15 -30 -30 -30s-30 10 -30 30v432c0 16 14 30 30 30
h107c89 0 161 -72 161 -161s-72 -161 -161 -161zM562 475c0 56 -45 101 -101 101h-77v-202h77c55 0 101 45 101 101z" />
    <glyph glyph-name="trademark" unicode="&#x2122;" horiz-adv-x="856" 
d="M796 319c0 -20 -15 -30 -30 -30s-30 10 -30 30v281l-122 -292c-7 -16 -17 -23 -28 -23s-21 7 -28 23l-122 292v-281c0 -20 -15 -30 -30 -30s-30 10 -30 30v431c0 22 14 35 28 35c11 0 23 -8 30 -23l152 -365l152 365c7 15 19 23 30 23c14 0 28 -13 28 -35v-431zM368 750
c0 -15 -10 -30 -30 -30h-114v-402c0 -20 -15 -30 -30 -30s-30 10 -30 30v402h-114c-20 0 -30 15 -30 30s10 30 30 30h288c20 0 30 -15 30 -30z" />
    <glyph glyph-name="ordfeminine" unicode="&#xaa;" horiz-adv-x="473" 
d="M413 407c0 -103 -84 -172 -181 -172c-95 0 -182 56 -182 161c0 98 81 147 170 167c0 0 95 22 133 29v26c0 67 -38 112 -119 112c-34 0 -80 -10 -101 -44c-7 -11 -17 -16 -26 -16c-16 0 -32 12 -32 29c0 5 1 10 4 15c30 57 96 76 155 76c113 0 179 -72 179 -172v-211z
M353 407v124l-129 -29c-69 -15 -114 -54 -114 -105c0 -62 48 -102 121 -102c70 0 122 47 122 112z" />
    <glyph glyph-name="ordmasculine" unicode="&#xba;" horiz-adv-x="510" 
d="M450 430c0 -108 -87 -195 -195 -195s-195 87 -195 195v165c0 108 87 195 195 195s195 -87 195 -195v-165zM390 430v165c0 75 -60 135 -135 135s-135 -60 -135 -135v-165c0 -75 60 -135 135 -135s135 60 135 135z" />
    <glyph glyph-name="degree" unicode="&#xb0;" horiz-adv-x="399" 
d="M349 641c0 -83 -67 -150 -149 -150c-83 0 -150 67 -150 149c0 83 67 150 149 150c83 0 150 -67 150 -149zM289 641v-1c0 50 -40 90 -89 90c-50 0 -90 -40 -90 -89c0 -50 40 -90 89 -90c50 0 90 40 90 90z" />
    <glyph glyph-name="guillemotleft" unicode="&#xab;" horiz-adv-x="528" 
d="M458 441c0 -8 -3 -16 -10 -22l-153 -137l153 -137c7 -6 10 -14 10 -22c0 -16 -14 -31 -30 -31c-7 0 -13 3 -20 9l-155 133c-20 17 -29 33 -29 48c0 16 10 32 29 48l155 133c7 6 13 9 20 9c16 0 30 -15 30 -31zM284 441c0 -8 -3 -16 -10 -22l-153 -137l153 -137
c7 -6 10 -14 10 -22c0 -16 -14 -31 -30 -31c-7 0 -14 3 -20 9l-155 133c-20 17 -29 33 -29 48c0 16 10 32 29 48l155 133c6 6 13 9 20 9c16 0 30 -15 30 -31z" />
    <glyph glyph-name="guillemotright" unicode="&#xbb;" horiz-adv-x="528" 
d="M478 282c0 -15 -9 -31 -28 -48l-155 -133c-7 -6 -14 -9 -20 -9c-17 0 -31 15 -31 31c0 8 3 16 11 22l153 137l-153 137c-8 6 -11 14 -11 22c0 16 14 31 31 31c6 0 13 -3 20 -9l155 -133c19 -16 28 -32 28 -48zM304 282c0 -15 -9 -31 -28 -48l-155 -133
c-7 -6 -14 -9 -20 -9c-17 0 -31 15 -31 31c0 8 3 16 11 22l152 137l-152 137c-8 6 -11 14 -11 22c0 16 14 31 31 31c6 0 13 -3 20 -9l155 -133c18 -16 28 -32 28 -48z" />
    <glyph glyph-name="guilsinglleft" unicode="&#x2039;" horiz-adv-x="354" 
d="M284 441c0 -8 -3 -16 -10 -22l-153 -137l153 -137c7 -6 10 -14 10 -22c0 -16 -14 -31 -30 -31c-7 0 -14 3 -20 9l-155 133c-20 17 -29 33 -29 48c0 16 10 32 29 48l155 133c6 6 13 9 20 9c16 0 30 -15 30 -31z" />
    <glyph glyph-name="guilsinglright" unicode="&#x203a;" horiz-adv-x="354" 
d="M304 282c0 -15 -9 -31 -28 -48l-155 -133c-7 -6 -14 -9 -20 -9c-17 0 -31 15 -31 31c0 8 3 16 11 22l152 137l-152 137c-8 6 -11 14 -11 22c0 16 14 31 31 31c6 0 13 -3 20 -9l155 -133c18 -16 28 -32 28 -48z" />
    <glyph glyph-name="germandbls" unicode="&#xdf;" horiz-adv-x="584" 
d="M524 211c0 -128 -104 -219 -228 -219c-20 0 -30 15 -30 30s10 30 30 30c95 0 168 68 168 159s-73 158 -168 158c-21 0 -31 15 -31 30s10 30 31 30c94 0 158 62 158 153s-63 148 -158 148c-88 0 -145 -57 -145 -152v-556c0 -20 -15 -30 -30 -30s-30 10 -30 30v425h-41
c-20 0 -30 15 -30 30s10 30 30 30h41v71c0 127 81 212 205 212s218 -80 218 -208c0 -82 -39 -147 -101 -183c66 -37 111 -104 111 -188z" />
    <glyph glyph-name="eth" unicode="&#xf0;" horiz-adv-x="525" 
d="M455 185c0 -108 -87 -195 -195 -195s-195 87 -195 195v185c0 108 87 195 195 195c42 0 81 -13 113 -36c-15 48 -37 92 -71 128l-34 -41c-7 -8 -15 -12 -22 -12c-17 0 -32 15 -32 31c0 6 3 13 8 19l34 41c-15 10 -33 19 -52 26s-32 9 -32 9c-18 3 -26 16 -26 30
c0 15 10 30 29 30h5c0 0 18 -2 45 -13c26 -9 49 -21 70 -36l32 38c7 8 15 12 22 12c17 0 32 -15 32 -31c0 -6 -3 -13 -8 -19l-32 -38c82 -84 114 -209 114 -333v-185zM395 185v185c0 75 -60 135 -135 135s-135 -60 -135 -135v-185c0 -75 60 -135 135 -135s135 60 135 135z
" />
    <glyph glyph-name="partialdiff" unicode="&#x2202;" horiz-adv-x="525" 
d="M455 185c0 -108 -87 -195 -195 -195s-195 87 -195 195v185c0 108 87 195 195 195c42 0 81 -13 113 -36c-26 85 -78 158 -169 192c-19 7 -32 9 -32 9c-18 3 -26 16 -26 30c0 15 10 30 29 30c13 0 39 -9 50 -13c169 -62 230 -236 230 -407v-185zM395 185v185
c0 75 -60 135 -135 135s-135 -60 -135 -135v-185c0 -75 60 -135 135 -135s135 60 135 135z" />
    <glyph glyph-name="Agrave" unicode="&#xc0;" horiz-adv-x="601" 
d="M571 29c0 -18 -16 -29 -32 -29c-11 0 -22 6 -27 21l-75 225h-273l-75 -225c-5 -15 -16 -21 -28 -21c-15 0 -31 11 -31 29c0 3 1 7 2 10l240 720c6 18 17 26 28 26c12 0 23 -8 29 -26l240 -720c1 -3 2 -7 2 -10zM417 306l-117 349l-116 -349h233zM380 883
c0 -14 -11 -27 -25 -27c-5 0 -10 2 -16 6l-109 87c-7 6 -9 13 -9 19c0 14 11 27 25 27c5 0 10 -2 16 -6l109 -87c7 -6 9 -13 9 -19z" />
    <glyph glyph-name="agrave" unicode="&#xe0;" horiz-adv-x="478" 
d="M413 162c0 -103 -84 -172 -181 -172c-95 0 -182 56 -182 161c0 100 84 149 175 168l128 27v47c0 67 -38 112 -119 112c-38 0 -63 -12 -84 -28c-20 -16 -25 -32 -46 -32c-15 0 -29 12 -29 29c0 11 7 21 14 29c36 41 90 62 145 62c113 0 179 -72 179 -172v-231zM353 162
v124l-129 -28c-69 -15 -114 -55 -114 -106c0 -62 48 -102 121 -102c70 0 122 47 122 112zM308 658c0 -14 -11 -27 -25 -27c-5 0 -10 2 -16 6l-109 87c-7 6 -9 13 -9 19c0 14 11 27 25 27c5 0 10 -2 16 -6l109 -87c7 -6 9 -13 9 -19z" />
    <glyph glyph-name="agrave.alt" unicode="&#xf81a;" horiz-adv-x="478" 
d="M308 658c0 -14 -11 -27 -25 -27c-5 0 -10 2 -16 6l-109 87c-7 6 -9 13 -9 19c0 14 11 27 25 27c5 0 10 -2 16 -6l109 -87c7 -6 9 -13 9 -19zM232 -10c-95 0 -182 56 -182 161c0 100 84 149 175 168c0 0 79 17 128 27v47c0 67 -38 112 -119 112c-38 0 -63 -12 -84 -28
c-20 -16 -25 -32 -46 -32c-15 0 -29 12 -29 29c0 11 7 21 14 29c36 41 90 62 145 62c113 0 179 -72 179 -172v-363c0 -20 -15 -30 -30 -30s-30 10 -30 30v15c-25 -28 -67 -55 -121 -55zM353 162v125l-129 -29c-69 -15 -114 -55 -114 -106c0 -62 48 -102 121 -102
c70 0 122 47 122 112z" />
    <glyph glyph-name="Aacute" unicode="&#xc1;" horiz-adv-x="601" 
d="M571 29c0 -18 -16 -29 -32 -29c-11 0 -22 6 -27 21l-75 225h-273l-75 -225c-5 -15 -16 -21 -28 -21c-15 0 -31 11 -31 29c0 3 1 7 2 10l240 720c6 18 17 26 28 26c12 0 23 -8 29 -26l240 -720c1 -3 2 -7 2 -10zM417 306l-117 349l-116 -349h233zM380 968
c0 -6 -2 -13 -9 -19l-109 -87c-6 -4 -11 -6 -16 -6c-14 0 -25 13 -25 27c0 6 2 13 9 19l109 87c6 4 11 6 16 6c14 0 25 -13 25 -27z" />
    <glyph glyph-name="aacute" unicode="&#xe1;" horiz-adv-x="478" 
d="M413 162c0 -103 -84 -172 -181 -172c-95 0 -182 56 -182 161c0 100 84 149 175 168l128 27v47c0 67 -38 112 -119 112c-38 0 -63 -12 -84 -28c-20 -16 -25 -32 -46 -32c-15 0 -29 12 -29 29c0 11 7 21 14 29c36 41 90 62 145 62c113 0 179 -72 179 -172v-231zM353 162
v124l-129 -28c-69 -15 -114 -55 -114 -106c0 -62 48 -102 121 -102c70 0 122 47 122 112zM328 743c0 -6 -2 -13 -9 -19l-109 -87c-6 -4 -11 -6 -16 -6c-14 0 -25 13 -25 27c0 6 2 13 9 19l109 87c6 4 11 6 16 6c14 0 25 -13 25 -27z" />
    <glyph glyph-name="aacute.alt" unicode="&#xf819;" horiz-adv-x="478" 
d="M328 743c0 -6 -2 -13 -9 -19l-109 -87c-6 -4 -11 -6 -16 -6c-14 0 -25 13 -25 27c0 6 2 13 9 19l109 87c6 4 11 6 16 6c14 0 25 -13 25 -27zM232 -10c-95 0 -182 56 -182 161c0 100 84 149 175 168c0 0 79 17 128 27v47c0 67 -38 112 -119 112c-38 0 -63 -12 -84 -28
c-20 -16 -25 -32 -46 -32c-15 0 -29 12 -29 29c0 11 7 21 14 29c36 41 90 62 145 62c113 0 179 -72 179 -172v-363c0 -20 -15 -30 -30 -30s-30 10 -30 30v15c-25 -28 -67 -55 -121 -55zM353 162v125l-129 -29c-69 -15 -114 -55 -114 -106c0 -62 48 -102 121 -102
c70 0 122 47 122 112z" />
    <glyph glyph-name="Acircumflex" unicode="&#xc2;" horiz-adv-x="601" 
d="M571 29c0 -18 -16 -29 -32 -29c-11 0 -22 6 -27 21l-75 225h-273l-75 -225c-5 -15 -16 -21 -28 -21c-15 0 -31 11 -31 29c0 3 1 7 2 10l240 720c6 18 17 26 28 26c12 0 23 -8 29 -26l240 -720c1 -3 2 -7 2 -10zM417 306l-117 349l-116 -349h233zM405 891
c0 -13 -12 -25 -26 -25c-5 0 -11 2 -17 7l-61 60l-62 -60c-6 -5 -12 -7 -17 -7c-14 0 -26 12 -26 25c0 6 2 12 8 18l69 69c10 10 19 15 27 15c9 0 18 -5 28 -15l69 -69c6 -6 8 -12 8 -18z" />
    <glyph glyph-name="acircumflex" unicode="&#xe2;" horiz-adv-x="478" 
d="M413 162c0 -103 -84 -172 -181 -172c-95 0 -182 56 -182 161c0 100 84 149 175 168l128 27v47c0 67 -38 112 -119 112c-38 0 -63 -12 -84 -28c-20 -16 -25 -32 -46 -32c-15 0 -29 12 -29 29c0 11 7 21 14 29c36 41 90 62 145 62c113 0 179 -72 179 -172v-231zM353 162
v124l-129 -28c-69 -15 -114 -55 -114 -106c0 -62 48 -102 121 -102c70 0 122 47 122 112zM343 666c0 -13 -12 -25 -26 -25c-5 0 -11 2 -17 7l-61 60l-62 -60c-6 -5 -12 -7 -17 -7c-14 0 -26 12 -26 25c0 6 2 12 8 18l69 69c10 10 19 15 27 15c9 0 18 -5 28 -15l69 -69
c6 -6 8 -12 8 -18z" />
    <glyph glyph-name="acircumflex.alt" unicode="&#xf81b;" horiz-adv-x="478" 
d="M343 666c0 -13 -12 -25 -26 -25c-5 0 -11 2 -17 7l-61 60l-62 -60c-6 -5 -12 -7 -17 -7c-14 0 -26 12 -26 25c0 6 2 12 8 18l69 69c10 10 19 15 27 15c9 0 18 -5 28 -15l69 -69c6 -6 8 -12 8 -18zM232 -10c-95 0 -182 56 -182 161c0 100 84 149 175 168c0 0 79 17 128 27
v47c0 67 -38 112 -119 112c-38 0 -63 -12 -84 -28c-20 -16 -25 -32 -46 -32c-15 0 -29 12 -29 29c0 11 7 21 14 29c36 41 90 62 145 62c113 0 179 -72 179 -172v-363c0 -20 -15 -30 -30 -30s-30 10 -30 30v15c-25 -28 -67 -55 -121 -55zM353 162v125l-129 -29
c-69 -15 -114 -55 -114 -106c0 -62 48 -102 121 -102c70 0 122 47 122 112z" />
    <glyph glyph-name="Atilde" unicode="&#xc3;" horiz-adv-x="601" 
d="M571 29c0 -18 -16 -29 -32 -29c-11 0 -22 6 -27 21l-75 225h-273l-75 -225c-5 -15 -16 -21 -28 -21c-15 0 -31 11 -31 29c0 3 1 7 2 10l240 720c6 18 17 26 28 26c12 0 23 -8 29 -26l240 -720c1 -3 2 -7 2 -10zM417 306l-117 349l-116 -349h233zM428 935
c0 -21 -41 -67 -86 -67s-57 39 -84 39c-39 0 -35 -42 -62 -42c-12 0 -23 10 -23 25c0 24 41 67 85 67c49 0 62 -39 84 -39c39 0 35 42 62 42c15 0 24 -9 24 -25z" />
    <glyph glyph-name="atilde" unicode="&#xe3;" horiz-adv-x="478" 
d="M413 162c0 -103 -84 -172 -181 -172c-95 0 -182 56 -182 161c0 100 84 149 175 168l128 27v47c0 67 -38 112 -119 112c-38 0 -63 -12 -84 -28c-20 -16 -25 -32 -46 -32c-15 0 -29 12 -29 29c0 11 7 21 14 29c36 41 90 62 145 62c113 0 179 -72 179 -172v-231zM353 162
v124l-129 -28c-69 -15 -114 -55 -114 -106c0 -62 48 -102 121 -102c70 0 122 47 122 112zM366 710c0 -21 -41 -67 -86 -67s-57 39 -84 39c-39 0 -35 -42 -62 -42c-12 0 -23 10 -23 25c0 24 41 67 85 67c49 0 62 -39 84 -39c39 0 35 42 62 42c15 0 24 -9 24 -25z" />
    <glyph glyph-name="atilde.alt" unicode="&#xf81d;" horiz-adv-x="478" 
d="M366 710c0 -21 -41 -67 -86 -67s-57 39 -84 39c-39 0 -35 -42 -62 -42c-12 0 -23 10 -23 25c0 24 41 67 85 67c49 0 62 -39 84 -39c39 0 35 42 62 42c15 0 24 -9 24 -25zM232 -10c-95 0 -182 56 -182 161c0 100 84 149 175 168c0 0 79 17 128 27v47
c0 67 -38 112 -119 112c-38 0 -63 -12 -84 -28c-20 -16 -25 -32 -46 -32c-15 0 -29 12 -29 29c0 11 7 21 14 29c36 41 90 62 145 62c113 0 179 -72 179 -172v-363c0 -20 -15 -30 -30 -30s-30 10 -30 30v15c-25 -28 -67 -55 -121 -55zM353 162v125l-129 -29
c-69 -15 -114 -55 -114 -106c0 -62 48 -102 121 -102c70 0 122 47 122 112z" />
    <glyph glyph-name="Adieresis" unicode="&#xc4;" horiz-adv-x="601" 
d="M571 29c0 -18 -16 -29 -32 -29c-11 0 -22 6 -27 21l-75 225h-273l-75 -225c-5 -15 -16 -21 -28 -21c-15 0 -31 11 -31 29c0 3 1 7 2 10l240 720c6 18 17 26 28 26c12 0 23 -8 29 -26l240 -720c1 -3 2 -7 2 -10zM417 306l-117 349l-116 -349h233zM180 904
c0 22 18 40 40 40s40 -18 40 -40s-18 -40 -40 -40s-40 18 -40 40zM340 904c0 22 18 40 40 40s40 -18 40 -40s-18 -40 -40 -40s-40 18 -40 40z" />
    <glyph glyph-name="adieresis" unicode="&#xe4;" horiz-adv-x="478" 
d="M413 162c0 -103 -84 -172 -181 -172c-95 0 -182 56 -182 161c0 100 84 149 175 168l128 27v47c0 67 -38 112 -119 112c-38 0 -63 -12 -84 -28c-20 -16 -25 -32 -46 -32c-15 0 -29 12 -29 29c0 11 7 21 14 29c36 41 90 62 145 62c113 0 179 -72 179 -172v-231zM353 162
v124l-129 -28c-69 -15 -114 -55 -114 -106c0 -62 48 -102 121 -102c70 0 122 47 122 112zM119 679c0 22 18 40 40 40s40 -18 40 -40s-18 -40 -40 -40s-40 18 -40 40zM279 679c0 22 18 40 40 40s40 -18 40 -40s-18 -40 -40 -40s-40 18 -40 40z" />
    <glyph glyph-name="adieresis.alt" unicode="&#xf81c;" horiz-adv-x="478" 
d="M119 679c0 22 18 40 40 40s40 -18 40 -40s-18 -40 -40 -40s-40 18 -40 40zM279 679c0 22 18 40 40 40s40 -18 40 -40s-18 -40 -40 -40s-40 18 -40 40zM232 -10c-95 0 -182 56 -182 161c0 100 84 149 175 168c0 0 79 17 128 27v47c0 67 -38 112 -119 112
c-38 0 -63 -12 -84 -28c-20 -16 -25 -32 -46 -32c-15 0 -29 12 -29 29c0 11 7 21 14 29c36 41 90 62 145 62c113 0 179 -72 179 -172v-363c0 -20 -15 -30 -30 -30s-30 10 -30 30v15c-25 -28 -67 -55 -121 -55zM353 162v125l-129 -29c-69 -15 -114 -55 -114 -106
c0 -62 48 -102 121 -102c70 0 122 47 122 112z" />
    <glyph glyph-name="Aring" unicode="&#xc5;" horiz-adv-x="601" 
d="M571 29c0 -18 -16 -29 -32 -29c-11 0 -22 6 -27 21l-75 225h-273l-75 -225c-5 -15 -16 -21 -28 -21c-15 0 -31 11 -31 29c0 3 1 7 2 10l240 720c6 18 17 26 28 26c12 0 23 -8 29 -26l240 -720c1 -3 2 -7 2 -10zM417 306l-117 349l-116 -349h233zM383 940
c0 -45 -38 -83 -83 -83c-46 0 -82 38 -82 83s37 82 82 82s83 -36 83 -82zM337 940c0 20 -17 36 -37 36s-36 -16 -36 -36s16 -37 36 -37s37 17 37 37z" />
    <glyph glyph-name="aring" unicode="&#xe5;" horiz-adv-x="478" 
d="M413 162c0 -103 -84 -172 -181 -172c-95 0 -182 56 -182 161c0 100 84 149 175 168l128 27v47c0 67 -38 112 -119 112c-38 0 -63 -12 -84 -28c-20 -16 -25 -32 -46 -32c-15 0 -29 12 -29 29c0 11 7 21 14 29c36 41 90 62 145 62c113 0 179 -72 179 -172v-231zM353 162
v124l-129 -28c-69 -15 -114 -55 -114 -106c0 -62 48 -102 121 -102c70 0 122 47 122 112zM341 715c0 -45 -38 -83 -83 -83c-46 0 -82 38 -82 83s37 82 82 82s83 -36 83 -82zM295 715c0 20 -17 36 -37 36s-36 -16 -36 -36s16 -37 36 -37s37 17 37 37z" />
    <glyph glyph-name="aring.alt" unicode="&#xf81e;" horiz-adv-x="478" 
d="M341 715c0 -45 -38 -83 -83 -83c-46 0 -82 38 -82 83s37 82 82 82s83 -36 83 -82zM295 715c0 20 -17 36 -37 36s-36 -16 -36 -36s16 -37 36 -37s37 17 37 37zM232 -10c-95 0 -182 56 -182 161c0 100 84 149 175 168c0 0 79 17 128 27v47c0 67 -38 112 -119 112
c-38 0 -63 -12 -84 -28c-20 -16 -25 -32 -46 -32c-15 0 -29 12 -29 29c0 11 7 21 14 29c36 41 90 62 145 62c113 0 179 -72 179 -172v-363c0 -20 -15 -30 -30 -30s-30 10 -30 30v15c-25 -28 -67 -55 -121 -55zM353 162v125l-129 -29c-69 -15 -114 -55 -114 -106
c0 -62 48 -102 121 -102c70 0 122 47 122 112z" />
    <glyph glyph-name="Aringacute" unicode="&#x1fa;" horiz-adv-x="601" 
d="M571 29c0 -18 -16 -29 -32 -29c-11 0 -22 6 -27 21l-75 225h-273l-75 -225c-5 -15 -16 -21 -28 -21c-15 0 -31 11 -31 29c0 3 1 7 2 10l240 720c6 18 17 26 28 26c12 0 23 -8 29 -26l240 -720c1 -3 2 -7 2 -10zM417 306l-117 349l-116 -349h233zM383 940
c0 -45 -38 -83 -83 -83c-46 0 -82 38 -82 83s37 82 82 82s83 -36 83 -82zM337 940c0 20 -17 36 -37 36s-36 -16 -36 -36s16 -37 36 -37s37 17 37 37zM390 1193c0 -6 -2 -13 -9 -19l-109 -87c-6 -4 -11 -6 -16 -6c-14 0 -25 13 -25 27c0 6 2 13 9 19l109 87c6 4 11 6 16 6
c14 0 25 -13 25 -27z" />
    <glyph glyph-name="aringacute" unicode="&#x1fb;" horiz-adv-x="478" 
d="M413 162c0 -103 -84 -172 -181 -172c-95 0 -182 56 -182 161c0 100 84 149 175 168l128 27v47c0 67 -38 112 -119 112c-38 0 -63 -12 -84 -28c-20 -16 -25 -32 -46 -32c-15 0 -29 12 -29 29c0 11 7 21 14 29c36 41 90 62 145 62c113 0 179 -72 179 -172v-231zM353 162
v124l-129 -28c-69 -15 -114 -55 -114 -106c0 -62 48 -102 121 -102c70 0 122 47 122 112zM321 715c0 -45 -38 -83 -83 -83c-46 0 -82 38 -82 83s37 82 82 82s83 -36 83 -82zM275 715c0 20 -17 36 -37 36s-36 -16 -36 -36s16 -37 36 -37s37 17 37 37zM318 966
c0 -6 -2 -13 -9 -19l-109 -87c-6 -4 -11 -6 -16 -6c-14 0 -25 13 -25 27c0 6 2 13 9 19l109 87c6 4 11 6 16 6c14 0 25 -13 25 -27z" />
    <glyph glyph-name="aringacute.alt" unicode="&#xf81f;" horiz-adv-x="478" 
d="M321 715c0 -45 -38 -83 -83 -83c-46 0 -82 38 -82 83s37 82 82 82s83 -36 83 -82zM275 715c0 20 -17 36 -37 36s-36 -16 -36 -36s16 -37 36 -37s37 17 37 37zM318 966c0 -6 -2 -13 -9 -19l-109 -87c-6 -4 -11 -6 -16 -6c-14 0 -25 13 -25 27c0 6 2 13 9 19l109 87
c6 4 11 6 16 6c14 0 25 -13 25 -27zM232 -10c-95 0 -182 56 -182 161c0 100 84 149 175 168c0 0 79 17 128 27v47c0 67 -38 112 -119 112c-38 0 -63 -12 -84 -28c-20 -16 -25 -32 -46 -32c-15 0 -29 12 -29 29c0 11 7 21 14 29c36 41 90 62 145 62c113 0 179 -72 179 -172
v-363c0 -20 -15 -30 -30 -30s-30 10 -30 30v15c-25 -28 -67 -55 -121 -55zM353 162v125l-129 -29c-69 -15 -114 -55 -114 -106c0 -62 48 -102 121 -102c70 0 122 47 122 112z" />
    <glyph glyph-name="Amacron" unicode="&#x100;" horiz-adv-x="601" 
d="M571 29c0 -18 -16 -29 -32 -29c-11 0 -22 6 -27 21l-75 225h-273l-75 -225c-5 -15 -16 -21 -28 -21c-15 0 -31 11 -31 29c0 3 1 7 2 10l240 720c6 18 17 26 28 26c12 0 23 -8 29 -26l240 -720c1 -3 2 -7 2 -10zM417 306l-117 349l-116 -349h233zM404 912
c0 -9 -6 -25 -24 -25h-158c-16 0 -25 13 -25 25s9 25 25 25h158c18 0 24 -16 24 -25z" />
    <glyph glyph-name="amacron" unicode="&#x101;" horiz-adv-x="478" 
d="M413 162c0 -103 -84 -172 -181 -172c-95 0 -182 56 -182 161c0 100 84 149 175 168l128 27v47c0 67 -38 112 -119 112c-38 0 -63 -12 -84 -28c-20 -16 -25 -32 -46 -32c-15 0 -29 12 -29 29c0 11 7 21 14 29c36 41 90 62 145 62c113 0 179 -72 179 -172v-231zM353 162
v124l-129 -28c-69 -15 -114 -55 -114 -106c0 -62 48 -102 121 -102c70 0 122 47 122 112zM352 687c0 -9 -6 -25 -24 -25h-158c-16 0 -25 13 -25 25s9 25 25 25h158c18 0 24 -16 24 -25z" />
    <glyph glyph-name="amacron.alt" unicode="&#xf820;" horiz-adv-x="478" 
d="M352 687c0 -9 -6 -25 -24 -25h-158c-16 0 -25 13 -25 25s9 25 25 25h158c18 0 24 -16 24 -25zM232 -10c-95 0 -182 56 -182 161c0 100 84 149 175 168c0 0 79 17 128 27v47c0 67 -38 112 -119 112c-38 0 -63 -12 -84 -28c-20 -16 -25 -32 -46 -32c-15 0 -29 12 -29 29
c0 11 7 21 14 29c36 41 90 62 145 62c113 0 179 -72 179 -172v-363c0 -20 -15 -30 -30 -30s-30 10 -30 30v15c-25 -28 -67 -55 -121 -55zM353 162v125l-129 -29c-69 -15 -114 -55 -114 -106c0 -62 48 -102 121 -102c70 0 122 47 122 112z" />
    <glyph glyph-name="Abreve" unicode="&#x102;" horiz-adv-x="601" 
d="M571 29c0 -18 -16 -29 -32 -29c-11 0 -22 6 -27 21l-75 225h-273l-75 -225c-5 -15 -16 -21 -28 -21c-15 0 -31 11 -31 29c0 3 1 7 2 10l240 720c6 18 17 26 28 26c12 0 23 -8 29 -26l240 -720c1 -3 2 -7 2 -10zM417 306l-117 349l-116 -349h233zM404 971
c0 -57 -47 -104 -104 -104s-104 47 -104 104c0 16 13 25 25 25s25 -9 25 -25c0 -30 24 -54 54 -54s54 24 54 54c0 16 13 25 25 25s25 -9 25 -25z" />
    <glyph glyph-name="abreve" unicode="&#x103;" horiz-adv-x="478" 
d="M413 162c0 -103 -84 -172 -181 -172c-95 0 -182 56 -182 161c0 100 84 149 175 168l128 27v47c0 67 -38 112 -119 112c-38 0 -63 -12 -84 -28c-20 -16 -25 -32 -46 -32c-15 0 -29 12 -29 29c0 11 7 21 14 29c36 41 90 62 145 62c113 0 179 -72 179 -172v-231zM353 162
v124l-129 -28c-69 -15 -114 -55 -114 -106c0 -62 48 -102 121 -102c70 0 122 47 122 112zM353 746c0 -57 -47 -104 -104 -104s-104 47 -104 104c0 16 13 25 25 25s25 -9 25 -25c0 -30 24 -54 54 -54s54 24 54 54c0 16 13 25 25 25s25 -9 25 -25z" />
    <glyph glyph-name="abreve.alt" unicode="&#xf821;" horiz-adv-x="478" 
d="M353 746c0 -57 -47 -104 -104 -104s-104 47 -104 104c0 16 13 25 25 25s25 -9 25 -25c0 -30 24 -54 54 -54s54 24 54 54c0 16 13 25 25 25s25 -9 25 -25zM232 -10c-95 0 -182 56 -182 161c0 100 84 149 175 168c0 0 79 17 128 27v47c0 67 -38 112 -119 112
c-38 0 -63 -12 -84 -28c-20 -16 -25 -32 -46 -32c-15 0 -29 12 -29 29c0 11 7 21 14 29c36 41 90 62 145 62c113 0 179 -72 179 -172v-363c0 -20 -15 -30 -30 -30s-30 10 -30 30v15c-25 -28 -67 -55 -121 -55zM353 162v125l-129 -29c-69 -15 -114 -55 -114 -106
c0 -62 48 -102 121 -102c70 0 122 47 122 112z" />
    <glyph glyph-name="Aogonek" unicode="&#x104;" horiz-adv-x="601" 
d="M453 -135c4 -28 33 -32 51 -27c20 5 36 19 46 32c6 8 16 12 23 12c13 0 28 -15 28 -30c0 -10 -6 -19 -13 -27c-21 -25 -58 -46 -96 -46c-41 0 -101 12 -101 89c0 65 70 124 118 162l-72 216h-273l-75 -225c-5 -15 -16 -21 -28 -21c-15 0 -31 11 -31 29c0 3 1 7 2 10
l240 720c6 18 17 26 28 26c12 0 23 -8 29 -26l240 -720c1 -3 2 -7 2 -10c0 -8 -3 -15 -8 -20c-3 -3 -6 -6 -10 -9c-41 -35 -107 -95 -100 -135zM417 306l-117 349l-116 -349h233z" />
    <glyph glyph-name="aogonek" unicode="&#x105;" horiz-adv-x="478" 
d="M252 -102c4 -28 33 -32 51 -27c20 5 36 19 46 32c6 8 16 12 23 12c13 0 28 -15 28 -30c0 -10 -6 -19 -13 -27c-21 -25 -58 -46 -96 -46c-41 0 -101 12 -101 89c0 32 17 62 39 89c-94 1 -179 57 -179 161c0 100 84 149 175 168l128 27v47c0 67 -38 112 -119 112
c-38 0 -63 -12 -84 -28c-20 -16 -25 -32 -46 -32c-15 0 -29 12 -29 29c0 11 7 21 14 29c36 41 90 62 145 62c113 0 179 -72 179 -172v-231c0 -61 -32 -108 -74 -140c-69 -53 -94 -88 -87 -124zM353 162v124l-129 -28c-69 -15 -114 -55 -114 -106c0 -62 48 -102 121 -102
c70 0 122 47 122 112z" />
    <glyph glyph-name="aogonek.alt" unicode="&#xf822;" horiz-adv-x="478" 
d="M294 -137c4 -28 33 -32 51 -27c20 5 36 19 46 32c6 8 16 12 23 12c13 0 28 -15 28 -30c0 -10 -6 -19 -13 -27c-21 -25 -58 -46 -96 -46c-41 0 -101 12 -101 89c0 66 73 127 121 164v15c-25 -28 -67 -55 -121 -55c-95 0 -182 56 -182 161c0 100 84 149 175 168
c0 0 79 17 128 27v47c0 67 -38 112 -119 112c-38 0 -63 -12 -84 -28c-20 -16 -25 -32 -46 -32c-15 0 -29 12 -29 29c0 11 7 21 14 29c36 41 90 62 145 62c113 0 179 -72 179 -172v-363c0 -15 -9 -24 -19 -32c-41 -35 -107 -95 -100 -135zM353 162v125l-129 -29
c-69 -15 -114 -55 -114 -106c0 -62 48 -102 121 -102c70 0 122 47 122 112z" />
    <glyph glyph-name="AE" unicode="&#xc6;" horiz-adv-x="956" 
d="M916 30c0 -15 -10 -30 -30 -30h-375c-15 0 -30 10 -30 30v216h-270l-156 -233c-6 -9 -15 -13 -24 -13c-16 0 -31 13 -31 30c0 5 2 11 6 17l475 712c14 21 33 21 47 21h358c20 0 30 -15 30 -30s-10 -30 -30 -30h-345v-282h315c20 0 30 -15 30 -30s-10 -30 -30 -30h-315
v-318h345c20 0 30 -15 30 -30zM481 306v345l-230 -345h230z" />
    <glyph glyph-name="ae" unicode="&#xe6;" horiz-adv-x="803" 
d="M743 300c0 -16 -14 -30 -30 -30h-300v-85c0 -72 68 -135 145 -135c38 0 90 14 113 47c7 9 16 13 24 13c16 0 32 -13 32 -29c0 -6 -2 -12 -6 -18c0 0 -4 -5 -11 -13c-39 -41 -96 -60 -152 -60c-66 0 -130 33 -168 85c-32 -53 -92 -85 -158 -85c-95 0 -182 56 -182 161
c0 100 84 150 175 169c0 0 79 17 128 27v46c0 67 -38 112 -119 112c-95 0 -99 -60 -128 -60c-15 0 -31 12 -31 29c0 11 7 21 14 29c35 44 91 62 145 62c74 0 128 -31 156 -80c36 48 93 80 158 80c108 0 195 -87 195 -195v-70zM683 330v40c0 75 -60 135 -135 135
s-135 -60 -135 -135v-40h270zM353 161v125l-129 -29c-69 -16 -114 -54 -114 -105c0 -62 48 -102 121 -102c70 0 122 47 122 111z" />
    <glyph glyph-name="AEacute" unicode="&#x1fc;" horiz-adv-x="956" 
d="M916 30c0 -15 -10 -30 -30 -30h-375c-15 0 -30 10 -30 30v216h-270l-156 -233c-6 -9 -15 -13 -24 -13c-16 0 -31 13 -31 30c0 5 2 11 6 17l475 712c14 21 33 21 47 21h358c20 0 30 -15 30 -30s-10 -30 -30 -30h-345v-282h315c20 0 30 -15 30 -30s-10 -30 -30 -30h-315
v-318h345c20 0 30 -15 30 -30zM481 306v345l-230 -345h230zM709 968c0 -6 -2 -13 -9 -19l-109 -87c-6 -4 -11 -6 -16 -6c-14 0 -25 13 -25 27c0 6 2 13 9 19l109 87c6 4 11 6 16 6c14 0 25 -13 25 -27z" />
    <glyph glyph-name="aeacute" unicode="&#x1fd;" horiz-adv-x="803" 
d="M743 300c0 -16 -14 -30 -30 -30h-300v-85c0 -72 68 -135 145 -135c38 0 90 14 113 47c7 9 16 13 24 13c16 0 32 -13 32 -29c0 -6 -2 -12 -6 -18c0 0 -4 -5 -11 -13c-39 -41 -96 -60 -152 -60c-66 0 -130 33 -168 85c-32 -53 -92 -85 -158 -85c-95 0 -182 56 -182 161
c0 100 84 150 175 169c0 0 79 17 128 27v46c0 67 -38 112 -119 112c-95 0 -99 -60 -128 -60c-15 0 -31 12 -31 29c0 11 7 21 14 29c35 44 91 62 145 62c74 0 128 -31 156 -80c36 48 93 80 158 80c108 0 195 -87 195 -195v-70zM683 330v40c0 75 -60 135 -135 135
s-135 -60 -135 -135v-40h270zM353 161v125l-129 -29c-69 -16 -114 -54 -114 -105c0 -62 48 -102 121 -102c70 0 122 47 122 111zM535 743c0 -6 -2 -13 -9 -19l-109 -87c-6 -4 -11 -6 -16 -6c-14 0 -25 13 -25 27c0 6 2 13 9 19l109 87c6 4 11 6 16 6c14 0 25 -13 25 -27z
" />
    <glyph glyph-name="Ccedilla" unicode="&#xc7;" horiz-adv-x="598" 
d="M383 -116c0 -43 -35 -78 -78 -78c-16 0 -25 13 -25 25s9 25 25 25c15 0 28 13 28 28s-12 27 -28 27c-24 0 -30 17 -22 41l15 39c-133 10 -238 122 -238 257v284c0 142 116 258 258 258c75 0 173 -33 221 -95c5 -7 7 -13 7 -19c0 -17 -15 -31 -31 -31c-8 0 -16 4 -22 12
l-10 10c-44 42 -105 63 -165 63c-109 0 -198 -89 -198 -198v-284c0 -109 89 -198 198 -198c59 0 135 25 175 73c6 8 14 11 22 11c17 0 33 -14 33 -30c0 -6 -3 -13 -9 -19c0 0 -5 -6 -15 -16c-48 -45 -110 -70 -175 -77l-12 -38c27 -12 46 -40 46 -70z" />
    <glyph glyph-name="ccedilla" unicode="&#xe7;" horiz-adv-x="473" 
d="M310 -116c0 -43 -35 -78 -78 -78c-16 0 -25 13 -25 25s9 25 25 25c15 0 28 13 28 28s-12 27 -28 27c-24 0 -30 17 -22 41l15 40c-96 10 -160 76 -160 170v231c0 103 78 172 189 172c55 0 130 -24 163 -73c4 -6 5 -12 5 -17c0 -17 -15 -30 -31 -30c-8 0 -17 3 -24 13
c0 0 -1 2 -5 6c-27 29 -69 41 -108 41c-83 0 -129 -48 -129 -112v-231c0 -64 46 -112 129 -112c38 0 90 14 113 47c7 9 16 13 24 13c16 0 32 -13 32 -29c0 -6 -2 -12 -6 -18c0 0 -4 -5 -11 -13c-34 -36 -81 -54 -130 -59l-12 -37c27 -12 46 -40 46 -70z" />
    <glyph glyph-name="Cacute" unicode="&#x106;" horiz-adv-x="598" 
d="M548 104c0 -6 -3 -13 -9 -19c0 0 -5 -6 -15 -16c-55 -52 -131 -79 -206 -79c-142 0 -258 116 -258 258v284c0 142 116 258 258 258c75 0 173 -33 221 -95c5 -7 7 -13 7 -19c0 -17 -15 -31 -31 -31c-8 0 -16 4 -22 12l-10 10c-44 42 -105 63 -165 63
c-109 0 -198 -89 -198 -198v-284c0 -109 89 -198 198 -198c59 0 135 25 175 73c6 8 14 11 22 11c17 0 33 -14 33 -30zM388 968c0 -6 -2 -13 -9 -19l-109 -87c-6 -4 -11 -6 -16 -6c-14 0 -25 13 -25 27c0 6 2 13 9 19l109 87c6 4 11 6 16 6c14 0 25 -13 25 -27z" />
    <glyph glyph-name="cacute" unicode="&#x107;" horiz-adv-x="473" 
d="M423 81c0 -6 -2 -12 -6 -18c0 0 -4 -5 -11 -13c-39 -41 -96 -60 -152 -60c-111 0 -189 69 -189 172v231c0 103 78 172 189 172c55 0 130 -24 163 -73c4 -6 5 -12 5 -17c0 -17 -15 -30 -31 -30c-8 0 -17 3 -24 13c0 0 -1 2 -5 6c-27 29 -69 41 -108 41
c-83 0 -129 -48 -129 -112v-231c0 -64 46 -112 129 -112c38 0 90 14 113 47c7 9 16 13 24 13c16 0 32 -13 32 -29zM326 743c0 -6 -2 -13 -9 -19l-109 -87c-6 -4 -11 -6 -16 -6c-14 0 -25 13 -25 27c0 6 2 13 9 19l109 87c6 4 11 6 16 6c14 0 25 -13 25 -27z" />
    <glyph glyph-name="Cdotaccent" unicode="&#x10a;" horiz-adv-x="598" 
d="M548 104c0 -6 -3 -13 -9 -19c0 0 -5 -6 -15 -16c-55 -52 -131 -79 -206 -79c-142 0 -258 116 -258 258v284c0 142 116 258 258 258c75 0 173 -33 221 -95c5 -7 7 -13 7 -19c0 -17 -15 -31 -31 -31c-8 0 -16 4 -22 12l-10 10c-44 42 -105 63 -165 63
c-109 0 -198 -89 -198 -198v-284c0 -109 89 -198 198 -198c59 0 135 25 175 73c6 8 14 11 22 11c17 0 33 -14 33 -30zM279 935c0 22 18 40 40 40s40 -18 40 -40s-18 -40 -40 -40s-40 18 -40 40z" />
    <glyph glyph-name="cdotaccent" unicode="&#x10b;" horiz-adv-x="473" 
d="M423 81c0 -6 -2 -12 -6 -18c0 0 -4 -5 -11 -13c-39 -41 -96 -60 -152 -60c-111 0 -189 69 -189 172v231c0 103 78 172 189 172c55 0 130 -24 163 -73c4 -6 5 -12 5 -17c0 -17 -15 -30 -31 -30c-8 0 -17 3 -24 13c0 0 -1 2 -5 6c-27 29 -69 41 -108 41
c-83 0 -129 -48 -129 -112v-231c0 -64 46 -112 129 -112c38 0 90 14 113 47c7 9 16 13 24 13c16 0 32 -13 32 -29zM216 710c0 22 18 40 40 40s40 -18 40 -40s-18 -40 -40 -40s-40 18 -40 40z" />
    <glyph glyph-name="Ccaron" unicode="&#x10c;" horiz-adv-x="598" 
d="M548 104c0 -6 -3 -13 -9 -19c0 0 -5 -6 -15 -16c-55 -52 -131 -79 -206 -79c-142 0 -258 116 -258 258v284c0 142 116 258 258 258c75 0 173 -33 221 -95c5 -7 7 -13 7 -19c0 -17 -15 -31 -31 -31c-8 0 -16 4 -22 12l-10 10c-44 42 -105 63 -165 63
c-109 0 -198 -89 -198 -198v-284c0 -109 89 -198 198 -198c59 0 135 25 175 73c6 8 14 11 22 11c17 0 33 -14 33 -30zM423 967c0 -6 -2 -12 -8 -18l-69 -69c-10 -10 -19 -14 -28 -14c-8 0 -17 4 -27 14l-69 69c-6 6 -8 12 -8 18c0 13 12 26 26 26c5 0 11 -3 17 -8l61 -60
l62 60c6 5 12 8 17 8c14 0 26 -13 26 -26z" />
    <glyph glyph-name="ccaron" unicode="&#x10d;" horiz-adv-x="473" 
d="M423 81c0 -6 -2 -12 -6 -18c0 0 -4 -5 -11 -13c-39 -41 -96 -60 -152 -60c-111 0 -189 69 -189 172v231c0 103 78 172 189 172c55 0 130 -24 163 -73c4 -6 5 -12 5 -17c0 -17 -15 -30 -31 -30c-8 0 -17 3 -24 13c0 0 -1 2 -5 6c-27 29 -69 41 -108 41
c-83 0 -129 -48 -129 -112v-231c0 -64 46 -112 129 -112c38 0 90 14 113 47c7 9 16 13 24 13c16 0 32 -13 32 -29zM361 742c0 -6 -2 -12 -8 -18l-69 -69c-10 -10 -19 -14 -28 -14c-8 0 -17 4 -27 14l-69 69c-6 6 -8 12 -8 18c0 13 12 26 26 26c5 0 11 -3 17 -8l61 -60l62 60
c6 5 12 8 17 8c14 0 26 -13 26 -26z" />
    <glyph glyph-name="Dcaron" unicode="&#x10e;" horiz-adv-x="641" 
d="M576 258c0 -142 -116 -258 -258 -258h-208c-16 0 -30 14 -30 30v720c0 16 14 30 30 30h208c142 0 258 -116 258 -258v-264zM516 258v264c0 109 -89 198 -198 198h-178v-660h178c109 0 198 89 198 198zM425 967c0 -6 -2 -12 -8 -18l-69 -69c-10 -10 -19 -14 -28 -14
c-8 0 -17 4 -27 14l-69 69c-6 6 -8 12 -8 18c0 13 12 26 26 26c5 0 11 -3 17 -8l61 -60l62 60c6 5 12 8 17 8c14 0 26 -13 26 -26z" />
    <glyph glyph-name="dcaron" unicode="&#x10f;" horiz-adv-x="668" 
d="M658 743c0 -6 -2 -13 -9 -19l-109 -87c-6 -4 -11 -6 -16 -6c-14 0 -25 13 -25 27c0 6 2 13 9 19l109 87c6 4 11 6 16 6c14 0 25 -13 25 -27zM395 502v248c0 20 15 30 30 30s30 -10 30 -30v-565c0 -108 -87 -195 -195 -195s-195 87 -195 195v185c0 108 87 195 195 195
c53 0 101 -26 135 -63zM395 185v185c0 75 -60 135 -135 135s-135 -60 -135 -135v-185c0 -75 60 -135 135 -135s135 60 135 135z" />
    <glyph glyph-name="dcaron.alt" unicode="&#xf823;" horiz-adv-x="668" 
d="M658 743c0 -6 -2 -13 -9 -19l-109 -87c-6 -4 -11 -6 -16 -6c-14 0 -25 13 -25 27c0 6 2 13 9 19l109 87c6 4 11 6 16 6c14 0 25 -13 25 -27zM395 30v23c-34 -37 -82 -63 -135 -63c-108 0 -195 87 -195 195v185c0 108 87 195 195 195c53 0 101 -26 135 -63v248
c0 20 15 30 30 30s30 -10 30 -30v-720c0 -20 -15 -30 -30 -30s-30 10 -30 30zM395 185v185c0 75 -60 135 -135 135s-135 -60 -135 -135v-185c0 -75 60 -135 135 -135s135 60 135 135z" />
    <glyph glyph-name="Eth" unicode="&#xd0;" horiz-adv-x="641" 
d="M576 258c0 -142 -116 -258 -258 -258h-208c-16 0 -30 14 -30 30v360h-50c-20 0 -30 15 -30 30s10 30 30 30h50v300c0 16 14 30 30 30h208c142 0 258 -116 258 -258v-264zM516 258v264c0 109 -89 198 -198 198h-178v-270h75c20 0 30 -15 30 -30s-10 -30 -30 -30h-75v-330
h178c109 0 198 89 198 198z" />
    <glyph glyph-name="Dcroat" unicode="&#x110;" horiz-adv-x="641" 
d="M576 258c0 -142 -116 -258 -258 -258h-208c-16 0 -30 14 -30 30v360h-50c-20 0 -30 15 -30 30s10 30 30 30h50v300c0 16 14 30 30 30h208c142 0 258 -116 258 -258v-264zM516 258v264c0 109 -89 198 -198 198h-178v-270h125c20 0 30 -15 30 -30s-10 -30 -30 -30h-125
v-330h178c109 0 198 89 198 198z" />
    <glyph glyph-name="dcroat" unicode="&#x111;" horiz-adv-x="525" 
d="M525 657c0 -15 -10 -30 -30 -30h-40v-442c0 -108 -87 -195 -195 -195s-195 87 -195 195v185c0 108 87 195 195 195c53 0 101 -26 135 -63v125h-120c-20 0 -30 15 -30 30s10 30 30 30h120v63c0 20 15 30 30 30s30 -10 30 -30v-63h40c20 0 30 -15 30 -30zM395 185v185
c0 75 -60 135 -135 135s-135 -60 -135 -135v-185c0 -75 60 -135 135 -135s135 60 135 135z" />
    <glyph glyph-name="dcroat.alt" unicode="&#xf824;" horiz-adv-x="525" 
d="M395 30v23c-34 -37 -82 -63 -135 -63c-108 0 -195 87 -195 195v185c0 108 87 195 195 195c53 0 101 -26 135 -63v125h-120c-20 0 -30 15 -30 30s10 30 30 30h120v63c0 20 15 30 30 30s30 -10 30 -30v-63h40c20 0 30 -15 30 -30s-10 -30 -30 -30h-40v-597
c0 -20 -15 -30 -30 -30s-30 10 -30 30zM395 185v185c0 75 -60 135 -135 135s-135 -60 -135 -135v-185c0 -75 60 -135 135 -135s135 60 135 135z" />
    <glyph glyph-name="Egrave" unicode="&#xc8;" horiz-adv-x="565" 
d="M515 30c0 -15 -10 -30 -30 -30h-375c-16 0 -30 14 -30 30v720c0 16 14 30 30 30h375c20 0 30 -15 30 -30s-10 -30 -30 -30h-345v-282h315c20 0 30 -15 30 -30s-10 -30 -30 -30h-315v-318h345c20 0 30 -15 30 -30zM342 883c0 -14 -11 -27 -25 -27c-5 0 -10 2 -16 6
l-109 87c-7 6 -9 13 -9 19c0 14 11 27 25 27c5 0 10 -2 16 -6l109 -87c7 -6 9 -13 9 -19z" />
    <glyph glyph-name="egrave" unicode="&#xe8;" horiz-adv-x="515" 
d="M455 300c0 -16 -14 -30 -30 -30h-300v-85c0 -72 68 -135 145 -135c38 0 84 11 113 48c7 9 17 13 25 13c16 0 31 -13 31 -29c0 -6 -2 -13 -6 -19c-38 -50 -102 -73 -163 -73c-105 0 -205 85 -205 195v185c0 108 87 195 195 195s195 -87 195 -195v-70zM395 330v40
c0 75 -60 135 -135 135s-135 -60 -135 -135v-40h270zM337 658c0 -14 -11 -27 -25 -27c-5 0 -10 2 -16 6l-109 87c-7 6 -9 13 -9 19c0 14 11 27 25 27c5 0 10 -2 16 -6l109 -87c7 -6 9 -13 9 -19z" />
    <glyph glyph-name="Eacute" unicode="&#xc9;" horiz-adv-x="565" 
d="M515 30c0 -15 -10 -30 -30 -30h-375c-16 0 -30 14 -30 30v720c0 16 14 30 30 30h375c20 0 30 -15 30 -30s-10 -30 -30 -30h-345v-282h315c20 0 30 -15 30 -30s-10 -30 -30 -30h-315v-318h345c20 0 30 -15 30 -30zM392 968c0 -6 -2 -13 -9 -19l-109 -87
c-6 -4 -11 -6 -16 -6c-14 0 -25 13 -25 27c0 6 2 13 9 19l109 87c6 4 11 6 16 6c14 0 25 -13 25 -27z" />
    <glyph glyph-name="eacute" unicode="&#xe9;" horiz-adv-x="515" 
d="M455 300c0 -16 -14 -30 -30 -30h-300v-85c0 -72 68 -135 145 -135c38 0 84 11 113 48c7 9 17 13 25 13c16 0 31 -13 31 -29c0 -6 -2 -13 -6 -19c-38 -50 -102 -73 -163 -73c-105 0 -205 85 -205 195v185c0 108 87 195 195 195s195 -87 195 -195v-70zM395 330v40
c0 75 -60 135 -135 135s-135 -60 -135 -135v-40h270zM337 743c0 -6 -2 -13 -9 -19l-109 -87c-6 -4 -11 -6 -16 -6c-14 0 -25 13 -25 27c0 6 2 13 9 19l109 87c6 4 11 6 16 6c14 0 25 -13 25 -27z" />
    <glyph glyph-name="Ecircumflex" unicode="&#xca;" horiz-adv-x="565" 
d="M515 30c0 -15 -10 -30 -30 -30h-375c-16 0 -30 14 -30 30v720c0 16 14 30 30 30h375c20 0 30 -15 30 -30s-10 -30 -30 -30h-345v-282h315c20 0 30 -15 30 -30s-10 -30 -30 -30h-315v-318h345c20 0 30 -15 30 -30zM387 891c0 -13 -12 -25 -26 -25c-5 0 -11 2 -17 7l-61 60
l-62 -60c-6 -5 -12 -7 -17 -7c-14 0 -26 12 -26 25c0 6 2 12 8 18l69 69c10 10 19 15 27 15c9 0 18 -5 28 -15l69 -69c6 -6 8 -12 8 -18z" />
    <glyph glyph-name="ecircumflex" unicode="&#xea;" horiz-adv-x="515" 
d="M455 300c0 -16 -14 -30 -30 -30h-300v-85c0 -72 68 -135 145 -135c38 0 84 11 113 48c7 9 17 13 25 13c16 0 31 -13 31 -29c0 -6 -2 -13 -6 -19c-38 -50 -102 -73 -163 -73c-105 0 -205 85 -205 195v185c0 108 87 195 195 195s195 -87 195 -195v-70zM395 330v40
c0 75 -60 135 -135 135s-135 -60 -135 -135v-40h270zM362 666c0 -13 -12 -25 -26 -25c-5 0 -11 2 -17 7l-61 60l-62 -60c-6 -5 -12 -7 -17 -7c-14 0 -26 12 -26 25c0 6 2 12 8 18l69 69c10 10 19 15 27 15c9 0 18 -5 28 -15l69 -69c6 -6 8 -12 8 -18z" />
    <glyph glyph-name="Edieresis" unicode="&#xcb;" horiz-adv-x="565" 
d="M515 30c0 -15 -10 -30 -30 -30h-375c-16 0 -30 14 -30 30v720c0 16 14 30 30 30h375c20 0 30 -15 30 -30s-10 -30 -30 -30h-345v-282h315c20 0 30 -15 30 -30s-10 -30 -30 -30h-315v-318h345c20 0 30 -15 30 -30zM182 904c0 22 18 40 40 40s40 -18 40 -40
s-18 -40 -40 -40s-40 18 -40 40zM342 904c0 22 18 40 40 40s40 -18 40 -40s-18 -40 -40 -40s-40 18 -40 40z" />
    <glyph glyph-name="edieresis" unicode="&#xeb;" horiz-adv-x="515" 
d="M455 300c0 -16 -14 -30 -30 -30h-300v-85c0 -72 68 -135 145 -135c38 0 84 11 113 48c7 9 17 13 25 13c16 0 31 -13 31 -29c0 -6 -2 -13 -6 -19c-38 -50 -102 -73 -163 -73c-105 0 -205 85 -205 195v185c0 108 87 195 195 195s195 -87 195 -195v-70zM395 330v40
c0 75 -60 135 -135 135s-135 -60 -135 -135v-40h270zM137 679c0 22 18 40 40 40s40 -18 40 -40s-18 -40 -40 -40s-40 18 -40 40zM297 679c0 22 18 40 40 40s40 -18 40 -40s-18 -40 -40 -40s-40 18 -40 40z" />
    <glyph glyph-name="Emacron" unicode="&#x112;" horiz-adv-x="565" 
d="M515 30c0 -15 -10 -30 -30 -30h-375c-16 0 -30 14 -30 30v720c0 16 14 30 30 30h375c20 0 30 -15 30 -30s-10 -30 -30 -30h-345v-282h315c20 0 30 -15 30 -30s-10 -30 -30 -30h-315v-318h345c20 0 30 -15 30 -30zM386 912c0 -9 -6 -25 -24 -25h-158c-16 0 -25 13 -25 25
s9 25 25 25h158c18 0 24 -16 24 -25z" />
    <glyph glyph-name="emacron" unicode="&#x113;" horiz-adv-x="515" 
d="M455 300c0 -16 -14 -30 -30 -30h-300v-85c0 -72 68 -135 145 -135c38 0 84 11 113 48c7 9 17 13 25 13c16 0 31 -13 31 -29c0 -6 -2 -13 -6 -19c-38 -50 -102 -73 -163 -73c-105 0 -205 85 -205 195v185c0 108 87 195 195 195s195 -87 195 -195v-70zM395 330v40
c0 75 -60 135 -135 135s-135 -60 -135 -135v-40h270zM371 687c0 -9 -6 -25 -24 -25h-158c-16 0 -25 13 -25 25s9 25 25 25h158c18 0 24 -16 24 -25z" />
    <glyph glyph-name="Ebreve" unicode="&#x114;" horiz-adv-x="565" 
d="M515 30c0 -15 -10 -30 -30 -30h-375c-16 0 -30 14 -30 30v720c0 16 14 30 30 30h375c20 0 30 -15 30 -30s-10 -30 -30 -30h-345v-282h315c20 0 30 -15 30 -30s-10 -30 -30 -30h-315v-318h345c20 0 30 -15 30 -30zM406 971c0 -57 -47 -104 -104 -104s-104 47 -104 104
c0 16 13 25 25 25s25 -9 25 -25c0 -30 24 -54 54 -54s54 24 54 54c0 16 13 25 25 25s25 -9 25 -25z" />
    <glyph glyph-name="ebreve" unicode="&#x115;" horiz-adv-x="515" 
d="M455 300c0 -16 -14 -30 -30 -30h-300v-85c0 -72 68 -135 145 -135c38 0 84 11 113 48c7 9 17 13 25 13c16 0 31 -13 31 -29c0 -6 -2 -13 -6 -19c-38 -50 -102 -73 -163 -73c-105 0 -205 85 -205 195v185c0 108 87 195 195 195s195 -87 195 -195v-70zM395 330v40
c0 75 -60 135 -135 135s-135 -60 -135 -135v-40h270zM366 746c0 -57 -47 -104 -104 -104s-104 47 -104 104c0 16 13 25 25 25s25 -9 25 -25c0 -30 24 -54 54 -54s54 24 54 54c0 16 13 25 25 25s25 -9 25 -25z" />
    <glyph glyph-name="Edotaccent" unicode="&#x116;" horiz-adv-x="565" 
d="M515 30c0 -15 -10 -30 -30 -30h-375c-16 0 -30 14 -30 30v720c0 16 14 30 30 30h375c20 0 30 -15 30 -30s-10 -30 -30 -30h-345v-282h315c20 0 30 -15 30 -30s-10 -30 -30 -30h-315v-318h345c20 0 30 -15 30 -30zM262 935c0 22 18 40 40 40s40 -18 40 -40
s-18 -40 -40 -40s-40 18 -40 40z" />
    <glyph glyph-name="edotaccent" unicode="&#x117;" horiz-adv-x="515" 
d="M455 300c0 -16 -14 -30 -30 -30h-300v-85c0 -72 68 -135 145 -135c38 0 84 11 113 48c7 9 17 13 25 13c16 0 31 -13 31 -29c0 -6 -2 -13 -6 -19c-38 -50 -102 -73 -163 -73c-105 0 -205 85 -205 195v185c0 108 87 195 195 195s195 -87 195 -195v-70zM395 330v40
c0 75 -60 135 -135 135s-135 -60 -135 -135v-40h270zM222 710c0 22 18 40 40 40s40 -18 40 -40s-18 -40 -40 -40s-40 18 -40 40z" />
    <glyph glyph-name="Eogonek" unicode="&#x118;" horiz-adv-x="565" 
d="M396 -136c4 -28 33 -32 51 -27c20 5 36 19 46 32c6 8 16 12 23 12c13 0 28 -15 28 -30c0 -10 -6 -19 -13 -27c-21 -25 -58 -46 -96 -46c-41 0 -101 12 -101 89c0 50 42 97 83 133h-307c-16 0 -30 14 -30 30v720c0 16 14 30 30 30h375c20 0 30 -15 30 -30s-10 -30 -30 -30
h-345v-282h315c20 0 30 -15 30 -30s-10 -30 -30 -30h-315v-318h345c20 0 30 -15 30 -30c0 -16 -9 -22 -19 -31c-44 -37 -107 -95 -100 -135z" />
    <glyph glyph-name="eogonek" unicode="&#x119;" horiz-adv-x="515" 
d="M295 -108c4 -28 33 -32 51 -27c20 5 36 19 46 32c6 8 16 12 23 12c13 0 28 -15 28 -30c0 -10 -6 -19 -13 -27c-21 -25 -58 -46 -96 -46c-41 0 -101 12 -101 89c0 34 19 67 44 95h-7c-105 0 -205 85 -205 195v185c0 108 87 195 195 195s195 -87 195 -195v-70
c0 -16 -14 -30 -30 -30h-300v-85c0 -72 68 -135 145 -135c38 0 84 11 113 48c7 9 17 13 25 13c16 0 31 -13 31 -29c0 -23 -30 -46 -46 -57c-69 -47 -105 -93 -98 -133zM395 330v40c0 75 -60 135 -135 135s-135 -60 -135 -135v-40h270z" />
    <glyph glyph-name="Ecaron" unicode="&#x11a;" horiz-adv-x="565" 
d="M515 30c0 -15 -10 -30 -30 -30h-375c-16 0 -30 14 -30 30v720c0 16 14 30 30 30h375c20 0 30 -15 30 -30s-10 -30 -30 -30h-345v-282h315c20 0 30 -15 30 -30s-10 -30 -30 -30h-315v-318h345c20 0 30 -15 30 -30zM407 967c0 -6 -2 -12 -8 -18l-69 -69
c-10 -10 -19 -14 -28 -14c-8 0 -17 4 -27 14l-69 69c-6 6 -8 12 -8 18c0 13 12 26 26 26c5 0 11 -3 17 -8l61 -60l62 60c6 5 12 8 17 8c14 0 26 -13 26 -26z" />
    <glyph glyph-name="ecaron" unicode="&#x11b;" horiz-adv-x="515" 
d="M455 300c0 -16 -14 -30 -30 -30h-300v-85c0 -72 68 -135 145 -135c38 0 84 11 113 48c7 9 17 13 25 13c16 0 31 -13 31 -29c0 -6 -2 -13 -6 -19c-38 -50 -102 -73 -163 -73c-105 0 -205 85 -205 195v185c0 108 87 195 195 195s195 -87 195 -195v-70zM395 330v40
c0 75 -60 135 -135 135s-135 -60 -135 -135v-40h270zM372 742c0 -6 -2 -12 -8 -18l-69 -69c-10 -10 -19 -14 -28 -14c-8 0 -17 4 -27 14l-69 69c-6 6 -8 12 -8 18c0 13 12 26 26 26c5 0 11 -3 17 -8l61 -60l62 60c6 5 12 8 17 8c14 0 26 -13 26 -26z" />
    <glyph glyph-name="Gbreve" unicode="&#x11e;" horiz-adv-x="636" 
d="M576 248c0 -142 -116 -258 -258 -258s-258 116 -258 258v284c0 142 116 258 258 258c75 0 173 -33 221 -95c5 -7 7 -13 7 -19c0 -17 -15 -31 -31 -31c-8 0 -16 4 -22 12l-10 10c-44 42 -105 63 -165 63c-109 0 -198 -89 -198 -198v-284c0 -109 89 -198 198 -198
s198 89 198 198v108h-190c-20 0 -30 15 -30 30s10 30 30 30h220c16 0 30 -14 30 -30v-138zM432 971c0 -57 -47 -104 -104 -104s-104 47 -104 104c0 16 13 25 25 25s25 -9 25 -25c0 -30 24 -54 54 -54s54 24 54 54c0 16 13 25 25 25s25 -9 25 -25z" />
    <glyph glyph-name="gbreve" unicode="&#x11f;" horiz-adv-x="525" 
d="M395 -5v78c-34 -37 -82 -63 -135 -63c-108 0 -195 87 -195 195v165c0 108 87 195 195 195s195 -87 195 -195v-375c0 -108 -87 -195 -195 -195c-55 0 -130 24 -163 73c-4 6 -5 12 -5 17c0 17 15 30 31 30c8 0 17 -3 24 -13c0 0 1 -2 5 -6c27 -29 69 -41 108 -41
c75 0 135 60 135 135zM395 205v165c0 75 -60 135 -135 135s-135 -60 -135 -135v-165c0 -75 60 -135 135 -135s135 60 135 135zM371 746c0 -57 -47 -104 -104 -104s-104 47 -104 104c0 16 13 25 25 25s25 -9 25 -25c0 -30 24 -54 54 -54s54 24 54 54c0 16 13 25 25 25
s25 -9 25 -25z" />
    <glyph glyph-name="Gdotaccent" unicode="&#x120;" horiz-adv-x="636" 
d="M576 248c0 -142 -116 -258 -258 -258s-258 116 -258 258v284c0 142 116 258 258 258c75 0 173 -33 221 -95c5 -7 7 -13 7 -19c0 -17 -15 -31 -31 -31c-8 0 -16 4 -22 12l-10 10c-44 42 -105 63 -165 63c-109 0 -198 -89 -198 -198v-284c0 -109 89 -198 198 -198
s198 89 198 198v108h-190c-20 0 -30 15 -30 30s10 30 30 30h220c16 0 30 -14 30 -30v-138zM278 935c0 22 18 40 40 40s40 -18 40 -40s-18 -40 -40 -40s-40 18 -40 40z" />
    <glyph glyph-name="gdotaccent" unicode="&#x121;" horiz-adv-x="525" 
d="M395 -5v78c-34 -37 -82 -63 -135 -63c-108 0 -195 87 -195 195v165c0 108 87 195 195 195s195 -87 195 -195v-375c0 -108 -87 -195 -195 -195c-55 0 -130 24 -163 73c-4 6 -5 12 -5 17c0 17 15 30 31 30c8 0 17 -3 24 -13c0 0 1 -2 5 -6c27 -29 69 -41 108 -41
c75 0 135 60 135 135zM395 205v165c0 75 -60 135 -135 135s-135 -60 -135 -135v-165c0 -75 60 -135 135 -135s135 60 135 135zM222 710c0 22 18 40 40 40s40 -18 40 -40s-18 -40 -40 -40s-40 18 -40 40z" />
    <glyph glyph-name="Gcommaaccent" unicode="&#x122;" horiz-adv-x="636" 
d="M576 248c0 -142 -116 -258 -258 -258s-258 116 -258 258v284c0 142 116 258 258 258c75 0 173 -33 221 -95c5 -7 7 -13 7 -19c0 -17 -15 -31 -31 -31c-8 0 -16 4 -22 12l-10 10c-44 42 -105 63 -165 63c-109 0 -198 -89 -198 -198v-284c0 -109 89 -198 198 -198
s198 89 198 198v108h-190c-20 0 -30 15 -30 30s10 30 30 30h220c16 0 30 -14 30 -30v-138zM377 -86c0 -77 -19 -112 -71 -154c-6 -5 -12 -6 -18 -6c-16 0 -30 15 -30 31c0 8 4 16 13 23c31 29 46 39 46 106c0 20 15 30 30 30s30 -10 30 -30z" />
    <glyph glyph-name="gcommaaccent" unicode="&#x123;" horiz-adv-x="525" 
d="M395 -5v78c-34 -37 -82 -63 -135 -63c-108 0 -195 87 -195 195v165c0 108 87 195 195 195s195 -87 195 -195v-375c0 -108 -87 -195 -195 -195c-55 0 -130 24 -163 73c-4 6 -5 12 -5 17c0 17 15 30 31 30c8 0 17 -3 24 -13c0 0 1 -2 5 -6c27 -29 69 -41 108 -41
c75 0 135 60 135 135zM395 205v165c0 75 -60 135 -135 135s-135 -60 -135 -135v-165c0 -75 60 -135 135 -135s135 60 135 135zM221 671c0 77 19 112 71 154c6 5 12 6 18 6c16 0 30 -15 30 -31c0 -8 -4 -16 -13 -23c-31 -29 -46 -39 -46 -106c0 -20 -15 -30 -30 -30
s-30 10 -30 30z" />
    <glyph glyph-name="Hbar" unicode="&#x126;" horiz-adv-x="656" 
d="M576 30c0 -20 -15 -30 -30 -30s-30 10 -30 30v360h-376v-360c0 -20 -15 -30 -30 -30s-30 10 -30 30v554h-50c-20 0 -30 15 -30 30s10 30 30 30h50v106c0 20 15 30 30 30s30 -10 30 -30v-106h376v106c0 20 15 30 30 30s30 -10 30 -30v-106h50c20 0 30 -15 30 -30
s-10 -30 -30 -30h-50v-554zM140 450h376v134h-376v-134z" />
    <glyph glyph-name="hbar" unicode="&#x127;" 
d="M130 750v-63h119c20 0 30 -15 30 -30s-10 -30 -30 -30h-119v-125c34 37 82 63 135 63c108 0 195 -87 195 -195v-340c0 -20 -15 -30 -30 -30s-30 10 -30 30v340c0 75 -60 135 -135 135s-135 -60 -135 -135v-340c0 -20 -15 -30 -30 -30s-30 10 -30 30v597h-41
c-20 0 -30 15 -30 30s10 30 30 30h41v63c0 20 15 30 30 30s30 -10 30 -30z" />
    <glyph glyph-name="Igrave" unicode="&#xcc;" horiz-adv-x="460" 
d="M420 30c0 -15 -10 -30 -30 -30h-320c-20 0 -30 15 -30 30s10 30 30 30h130v660h-130c-20 0 -30 15 -30 30s10 30 30 30h320c20 0 30 -15 30 -30s-10 -30 -30 -30h-130v-660h130c20 0 30 -15 30 -30zM309 883c0 -14 -11 -27 -25 -27c-5 0 -10 2 -16 6l-109 87
c-7 6 -9 13 -9 19c0 14 11 27 25 27c5 0 10 -2 16 -6l109 -87c7 -6 9 -13 9 -19z" />
    <glyph glyph-name="Igrave.alt" unicode="&#xf814;" horiz-adv-x="220" 
d="M189 883c0 -14 -11 -27 -25 -27c-5 0 -10 2 -16 6l-109 87c-7 6 -9 13 -9 19c0 14 11 27 25 27c5 0 10 -2 16 -6l109 -87c7 -6 9 -13 9 -19zM80 30v720c0 20 15 30 30 30s30 -10 30 -30v-720c0 -20 -15 -30 -30 -30s-30 10 -30 30z" />
    <glyph glyph-name="igrave" unicode="&#xec;" horiz-adv-x="200" 
d="M130 30c0 -20 -15 -30 -30 -30s-30 10 -30 30v495c0 20 15 30 30 30s30 -10 30 -30v-495zM180 658c0 -14 -11 -27 -25 -27c-5 0 -10 2 -16 6l-109 87c-7 6 -9 13 -9 19c0 14 11 27 25 27c5 0 10 -2 16 -6l109 -87c7 -6 9 -13 9 -19z" />
    <glyph glyph-name="Iacute" unicode="&#xcd;" horiz-adv-x="460" 
d="M420 30c0 -15 -10 -30 -30 -30h-320c-20 0 -30 15 -30 30s10 30 30 30h130v660h-130c-20 0 -30 15 -30 30s10 30 30 30h320c20 0 30 -15 30 -30s-10 -30 -30 -30h-130v-660h130c20 0 30 -15 30 -30zM309 968c0 -6 -2 -13 -9 -19l-109 -87c-6 -4 -11 -6 -16 -6
c-14 0 -25 13 -25 27c0 6 2 13 9 19l109 87c6 4 11 6 16 6c14 0 25 -13 25 -27z" />
    <glyph glyph-name="Iacute.alt" unicode="&#xf811;" horiz-adv-x="220" 
d="M189 968c0 -6 -2 -13 -9 -19l-109 -87c-6 -4 -11 -6 -16 -6c-14 0 -25 13 -25 27c0 6 2 13 9 19l109 87c6 4 11 6 16 6c14 0 25 -13 25 -27zM80 30v720c0 20 15 30 30 30s30 -10 30 -30v-720c0 -20 -15 -30 -30 -30s-30 10 -30 30z" />
    <glyph glyph-name="iacute" unicode="&#xed;" horiz-adv-x="200" 
d="M130 30c0 -20 -15 -30 -30 -30s-30 10 -30 30v495c0 20 15 30 30 30s30 -10 30 -30v-495zM180 743c0 -6 -2 -13 -9 -19l-109 -87c-6 -4 -11 -6 -16 -6c-14 0 -25 13 -25 27c0 6 2 13 9 19l109 87c6 4 11 6 16 6c14 0 25 -13 25 -27z" />
    <glyph glyph-name="Icircumflex" unicode="&#xce;" horiz-adv-x="460" 
d="M420 30c0 -15 -10 -30 -30 -30h-320c-20 0 -30 15 -30 30s10 30 30 30h130v660h-130c-20 0 -30 15 -30 30s10 30 30 30h320c20 0 30 -15 30 -30s-10 -30 -30 -30h-130v-660h130c20 0 30 -15 30 -30zM334 891c0 -13 -12 -25 -26 -25c-5 0 -11 2 -17 7l-61 60l-62 -60
c-6 -5 -12 -7 -17 -7c-14 0 -26 12 -26 25c0 6 2 12 8 18l69 69c10 10 19 15 27 15c9 0 18 -5 28 -15l69 -69c6 -6 8 -12 8 -18z" />
    <glyph glyph-name="Icircumflex.alt" unicode="&#xf812;" horiz-adv-x="220" 
d="M214 891c0 -13 -12 -25 -26 -25c-5 0 -11 2 -17 7l-61 60l-62 -60c-6 -5 -12 -7 -17 -7c-14 0 -26 12 -26 25c0 6 2 12 8 18l69 69c10 10 19 15 27 15c9 0 18 -5 28 -15l69 -69c6 -6 8 -12 8 -18zM80 30v720c0 20 15 30 30 30s30 -10 30 -30v-720c0 -20 -15 -30 -30 -30
s-30 10 -30 30z" />
    <glyph glyph-name="icircumflex" unicode="&#xee;" horiz-adv-x="200" 
d="M130 30c0 -20 -15 -30 -30 -30s-30 10 -30 30v495c0 20 15 30 30 30s30 -10 30 -30v-495zM205 666c0 -13 -12 -25 -26 -25c-5 0 -11 2 -17 7l-61 60l-62 -60c-6 -5 -12 -7 -17 -7c-14 0 -26 12 -26 25c0 6 2 12 8 18l69 69c10 10 19 15 27 15c9 0 18 -5 28 -15l69 -69
c6 -6 8 -12 8 -18z" />
    <glyph glyph-name="Idieresis" unicode="&#xcf;" horiz-adv-x="460" 
d="M420 30c0 -15 -10 -30 -30 -30h-320c-20 0 -30 15 -30 30s10 30 30 30h130v660h-130c-20 0 -30 15 -30 30s10 30 30 30h320c20 0 30 -15 30 -30s-10 -30 -30 -30h-130v-660h130c20 0 30 -15 30 -30zM110 904c0 22 18 40 40 40s40 -18 40 -40s-18 -40 -40 -40
s-40 18 -40 40zM270 904c0 22 18 40 40 40s40 -18 40 -40s-18 -40 -40 -40s-40 18 -40 40z" />
    <glyph glyph-name="Idieresis.alt" unicode="&#xf813;" horiz-adv-x="220" 
d="M-10 904c0 22 18 40 40 40s40 -18 40 -40s-18 -40 -40 -40s-40 18 -40 40zM150 904c0 22 18 40 40 40s40 -18 40 -40s-18 -40 -40 -40s-40 18 -40 40zM80 30v720c0 20 15 30 30 30s30 -10 30 -30v-720c0 -20 -15 -30 -30 -30s-30 10 -30 30z" />
    <glyph glyph-name="idieresis" unicode="&#xef;" horiz-adv-x="200" 
d="M130 30c0 -20 -15 -30 -30 -30s-30 10 -30 30v495c0 20 15 30 30 30s30 -10 30 -30v-495zM-20 679c0 22 18 40 40 40s40 -18 40 -40s-18 -40 -40 -40s-40 18 -40 40zM140 679c0 22 18 40 40 40s40 -18 40 -40s-18 -40 -40 -40s-40 18 -40 40z" />
    <glyph glyph-name="Imacron" unicode="&#x12a;" horiz-adv-x="460" 
d="M420 30c0 -15 -10 -30 -30 -30h-320c-20 0 -30 15 -30 30s10 30 30 30h130v660h-130c-20 0 -30 15 -30 30s10 30 30 30h320c20 0 30 -15 30 -30s-10 -30 -30 -30h-130v-660h130c20 0 30 -15 30 -30zM333 912c0 -9 -6 -25 -24 -25h-158c-16 0 -25 13 -25 25s9 25 25 25
h158c18 0 24 -16 24 -25z" />
    <glyph glyph-name="Imacron.alt" unicode="&#xf815;" horiz-adv-x="220" 
d="M213 912c0 -9 -6 -25 -24 -25h-158c-16 0 -25 13 -25 25s9 25 25 25h158c18 0 24 -16 24 -25zM80 30v720c0 20 15 30 30 30s30 -10 30 -30v-720c0 -20 -15 -30 -30 -30s-30 10 -30 30z" />
    <glyph glyph-name="imacron" unicode="&#x12b;" horiz-adv-x="200" 
d="M130 30c0 -20 -15 -30 -30 -30s-30 10 -30 30v495c0 20 15 30 30 30s30 -10 30 -30v-495zM204 687c0 -9 -6 -25 -24 -25h-158c-16 0 -25 13 -25 25s9 25 25 25h158c18 0 24 -16 24 -25z" />
    <glyph glyph-name="Ibreve" unicode="&#x12c;" horiz-adv-x="460" 
d="M420 30c0 -15 -10 -30 -30 -30h-320c-20 0 -30 15 -30 30s10 30 30 30h130v660h-130c-20 0 -30 15 -30 30s10 30 30 30h320c20 0 30 -15 30 -30s-10 -30 -30 -30h-130v-660h130c20 0 30 -15 30 -30zM334 971c0 -57 -47 -104 -104 -104s-104 47 -104 104c0 16 13 25 25 25
s25 -9 25 -25c0 -30 24 -54 54 -54s54 24 54 54c0 16 13 25 25 25s25 -9 25 -25z" />
    <glyph glyph-name="Ibreve.alt" unicode="&#xf816;" horiz-adv-x="220" 
d="M214 971c0 -57 -47 -104 -104 -104s-104 47 -104 104c0 16 13 25 25 25s25 -9 25 -25c0 -30 24 -54 54 -54s54 24 54 54c0 16 13 25 25 25s25 -9 25 -25zM80 30v720c0 20 15 30 30 30s30 -10 30 -30v-720c0 -20 -15 -30 -30 -30s-30 10 -30 30z" />
    <glyph glyph-name="ibreve" unicode="&#x12d;" horiz-adv-x="200" 
d="M130 30c0 -20 -15 -30 -30 -30s-30 10 -30 30v495c0 20 15 30 30 30s30 -10 30 -30v-495zM204 746c0 -57 -47 -104 -104 -104s-104 47 -104 104c0 16 13 25 25 25s25 -9 25 -25c0 -30 24 -54 54 -54s54 24 54 54c0 16 13 25 25 25s25 -9 25 -25z" />
    <glyph glyph-name="Iogonek" unicode="&#x12e;" horiz-adv-x="460" 
d="M299 -136c4 -28 33 -32 51 -27c20 5 36 19 46 32c6 8 16 12 23 12c13 0 28 -15 28 -30c0 -10 -6 -19 -13 -27c-21 -25 -58 -46 -96 -46c-41 0 -101 12 -101 89c0 50 42 97 83 133h-250c-20 0 -30 15 -30 30s10 30 30 30h130v660h-130c-20 0 -30 15 -30 30s10 30 30 30
h320c20 0 30 -15 30 -30s-10 -30 -30 -30h-130v-660h130c20 0 30 -15 30 -30c0 -13 -8 -22 -21 -31c-61 -45 -107 -95 -100 -135z" />
    <glyph glyph-name="Iogonek.alt" unicode="&#xf817;" horiz-adv-x="220" 
d="M21 -135c4 -28 33 -32 51 -27c20 5 36 19 46 32c6 8 16 12 23 12c13 0 28 -15 28 -30c0 -10 -6 -19 -13 -27c-21 -25 -58 -46 -96 -46c-41 0 -101 12 -101 89c0 66 73 127 121 164v718c0 20 15 30 30 30s30 -10 30 -30v-720c0 -12 -8 -20 -17 -29
c-41 -35 -109 -96 -102 -136z" />
    <glyph glyph-name="iogonek" unicode="&#x12f;" horiz-adv-x="200" 
d="M11 -136c4 -28 33 -32 51 -27c20 5 36 19 46 32c6 8 16 12 23 12c13 0 28 -15 28 -30c0 -10 -6 -19 -13 -27c-21 -25 -58 -46 -96 -46c-41 0 -101 12 -101 89c0 66 73 127 121 164v494c0 20 15 30 30 30s30 -10 30 -30v-495c0 -18 -8 -22 -19 -31
c-41 -34 -107 -95 -100 -135z" />
    <glyph glyph-name="Idotaccent" unicode="&#x130;" horiz-adv-x="460" 
d="M420 30c0 -15 -10 -30 -30 -30h-320c-20 0 -30 15 -30 30s10 30 30 30h130v660h-130c-20 0 -30 15 -30 30s10 30 30 30h320c20 0 30 -15 30 -30s-10 -30 -30 -30h-130v-660h130c20 0 30 -15 30 -30zM190 935c0 22 18 40 40 40s40 -18 40 -40s-18 -40 -40 -40
s-40 18 -40 40z" />
    <glyph glyph-name="Idotaccent.alt" unicode="&#xf818;" horiz-adv-x="220" 
d="M70 935c0 22 18 40 40 40s40 -18 40 -40s-18 -40 -40 -40s-40 18 -40 40zM80 30v720c0 20 15 30 30 30s30 -10 30 -30v-720c0 -20 -15 -30 -30 -30s-30 10 -30 30z" />
    <glyph glyph-name="dotlessi" unicode="&#x131;" horiz-adv-x="200" 
d="M130 30c0 -20 -15 -30 -30 -30s-30 10 -30 30v495c0 20 15 30 30 30s30 -10 30 -30v-495z" />
    <glyph glyph-name="Kcommaaccent" unicode="&#x136;" horiz-adv-x="639" 
d="M609 30c0 -17 -16 -30 -32 -30c-8 0 -16 3 -23 12l-280 377l-134 -154v-205c0 -20 -15 -30 -30 -30s-30 10 -30 30v720c0 20 15 30 30 30s30 -10 30 -30v-423l384 443c7 7 15 11 22 11c17 0 32 -15 32 -31c0 -6 -3 -13 -8 -20l-256 -294l288 -388c5 -6 7 -12 7 -18z
M369 -86c0 -77 -19 -112 -71 -154c-6 -5 -12 -6 -18 -6c-16 0 -30 15 -30 31c0 8 4 16 13 23c31 29 46 39 46 106c0 20 15 30 30 30s30 -10 30 -30z" />
    <glyph glyph-name="kcommaaccent" unicode="&#x137;" horiz-adv-x="472" 
d="M452 30c0 -17 -16 -30 -32 -30c-8 0 -16 3 -23 12l-188 250l-79 -93v-139c0 -20 -15 -30 -30 -30s-30 10 -30 30v720c0 20 15 30 30 30s30 -10 30 -30v-489l242 283c7 8 15 12 22 12c17 0 32 -15 32 -31c0 -6 -3 -13 -8 -19l-169 -197l196 -261c5 -6 7 -12 7 -18z
M285 -86c0 -77 -19 -112 -71 -154c-6 -5 -12 -6 -18 -6c-16 0 -30 15 -30 31c0 8 4 16 13 23c31 29 46 39 46 106c0 20 15 30 30 30s30 -10 30 -30z" />
    <glyph glyph-name="Lacute" unicode="&#x139;" horiz-adv-x="545" 
d="M515 30c0 -15 -10 -30 -30 -30h-375c-16 0 -30 14 -30 30v720c0 20 15 30 30 30s30 -10 30 -30v-690h345c20 0 30 -15 30 -30zM244 968c0 -6 -2 -13 -9 -19l-109 -87c-6 -4 -11 -6 -16 -6c-14 0 -25 13 -25 27c0 6 2 13 9 19l109 87c6 4 11 6 16 6c14 0 25 -13 25 -27z
" />
    <glyph glyph-name="lacute" unicode="&#x13a;" horiz-adv-x="220" 
d="M200 20c0 -15 -12 -30 -29 -30c-3 0 -8 0 -12 2c0 0 -6 2 -16 9c-52 33 -73 96 -73 156v593c0 20 15 30 30 30s30 -10 30 -30v-593c0 -37 12 -92 51 -109c13 -6 19 -17 19 -28zM230 968c0 -6 -2 -13 -9 -19l-109 -87c-6 -4 -11 -6 -16 -6c-14 0 -25 13 -25 27
c0 6 2 13 9 19l109 87c6 4 11 6 16 6c14 0 25 -13 25 -27z" />
    <glyph glyph-name="lacute.alt" unicode="&#xf825;" horiz-adv-x="200" 
d="M230 968c0 -6 -2 -13 -9 -19l-109 -87c-6 -4 -11 -6 -16 -6c-14 0 -25 13 -25 27c0 6 2 13 9 19l109 87c6 4 11 6 16 6c14 0 25 -13 25 -27zM70 30v720c0 20 15 30 30 30s30 -10 30 -30v-720c0 -20 -15 -30 -30 -30s-30 10 -30 30z" />
    <glyph glyph-name="Lcommaaccent" unicode="&#x13b;" horiz-adv-x="545" 
d="M515 30c0 -15 -10 -30 -30 -30h-375c-16 0 -30 14 -30 30v720c0 20 15 30 30 30s30 -10 30 -30v-690h345c20 0 30 -15 30 -30zM332 -86c0 -77 -19 -112 -71 -154c-6 -5 -12 -6 -18 -6c-16 0 -30 15 -30 31c0 8 4 16 13 23c31 29 46 39 46 106c0 20 15 30 30 30
s30 -10 30 -30z" />
    <glyph glyph-name="lcommaaccent" unicode="&#x13c;" horiz-adv-x="220" 
d="M200 20c0 -15 -12 -30 -29 -30c-3 0 -8 0 -12 2c0 0 -6 2 -16 9c-52 33 -73 96 -73 156v593c0 20 15 30 30 30s30 -10 30 -30v-593c0 -37 12 -92 51 -109c13 -6 19 -17 19 -28zM169 -86c0 -77 -19 -112 -71 -154c-6 -5 -12 -6 -18 -6c-16 0 -30 15 -30 31c0 8 4 16 13 23
c31 29 46 39 46 106c0 20 15 30 30 30s30 -10 30 -30z" />
    <glyph glyph-name="lcommaaccent.alt" unicode="&#xf826;" horiz-adv-x="200" 
d="M130 -86c0 -77 -19 -112 -71 -154c-6 -5 -12 -6 -18 -6c-16 0 -30 15 -30 31c0 8 4 16 13 23c31 29 46 39 46 106c0 20 15 30 30 30s30 -10 30 -30zM70 30v720c0 20 15 30 30 30s30 -10 30 -30v-720c0 -20 -15 -30 -30 -30s-30 10 -30 30z" />
    <glyph glyph-name="Lcaron" unicode="&#x13d;" horiz-adv-x="545" 
d="M365 743c0 -6 -2 -13 -9 -19l-109 -87c-6 -4 -11 -6 -16 -6c-14 0 -25 13 -25 27c0 6 2 13 9 19l109 87c6 4 11 6 16 6c14 0 25 -13 25 -27zM515 30c0 -15 -10 -30 -30 -30h-375c-16 0 -30 14 -30 30v720c0 20 15 30 30 30s30 -10 30 -30v-690h345c20 0 30 -15 30 -30z
" />
    <glyph glyph-name="lcaron" unicode="&#x13e;" horiz-adv-x="346" 
d="M336 743c0 -6 -2 -13 -9 -19l-109 -87c-6 -4 -11 -6 -16 -6c-14 0 -25 13 -25 27c0 6 2 13 9 19l109 87c6 4 11 6 16 6c14 0 25 -13 25 -27zM200 20c0 -15 -12 -30 -29 -30c-3 0 -8 0 -12 2c0 0 -6 2 -16 9c-52 33 -73 96 -73 156v593c0 20 15 30 30 30s30 -10 30 -30
v-593c0 -37 12 -92 51 -109c13 -6 19 -17 19 -28z" />
    <glyph glyph-name="lcaron.alt" unicode="&#xf827;" horiz-adv-x="346" 
d="M336 743c0 -6 -2 -13 -9 -19l-109 -87c-6 -4 -11 -6 -16 -6c-14 0 -25 13 -25 27c0 6 2 13 9 19l109 87c6 4 11 6 16 6c14 0 25 -13 25 -27zM70 30v720c0 20 15 30 30 30s30 -10 30 -30v-720c0 -20 -15 -30 -30 -30s-30 10 -30 30z" />
    <glyph glyph-name="Ldot" unicode="&#x13f;" horiz-adv-x="545" 
d="M515 30c0 -15 -10 -30 -30 -30h-375c-16 0 -30 14 -30 30v720c0 20 15 30 30 30s30 -10 30 -30v-690h345c20 0 30 -15 30 -30zM234 390c0 22 18 40 40 40s40 -18 40 -40s-18 -40 -40 -40s-40 18 -40 40z" />
    <glyph glyph-name="ldot" unicode="&#x140;" horiz-adv-x="261" 
d="M200 20c0 -15 -12 -30 -29 -30c-3 0 -8 0 -12 2c0 0 -6 2 -16 9c-52 33 -73 96 -73 156v593c0 20 15 30 30 30s30 -10 30 -30v-593c0 -37 12 -92 51 -109c13 -6 19 -17 19 -28zM171 390c0 22 18 40 40 40s40 -18 40 -40s-18 -40 -40 -40s-40 18 -40 40z" />
    <glyph glyph-name="ldot.alt" unicode="&#xf828;" horiz-adv-x="261" 
d="M171 390c0 22 18 40 40 40s40 -18 40 -40s-18 -40 -40 -40s-40 18 -40 40zM70 30v720c0 20 15 30 30 30s30 -10 30 -30v-720c0 -20 -15 -30 -30 -30s-30 10 -30 30z" />
    <glyph glyph-name="Lslash" unicode="&#x141;" horiz-adv-x="562" 
d="M543 30c0 -15 -10 -30 -30 -30h-375c-16 0 -30 14 -30 30v259l-57 -46c-16 -13 -33 -7 -43 4c-9 12 -11 30 5 42l95 77v384c0 20 15 30 30 30s30 -10 30 -30v-335l175 144c16 13 33 7 43 -4c9 -12 11 -30 -5 -42l-213 -175v-278h345c20 0 30 -15 30 -30z" />
    <glyph glyph-name="lslash" unicode="&#x142;" horiz-adv-x="267" 
d="M220 20c0 -15 -12 -30 -29 -30c-3 0 -8 0 -12 2c0 0 -6 2 -16 9c-52 33 -73 96 -73 156v201l-34 -22c-17 -11 -33 -4 -42 9c-8 13 -7 31 9 41l67 43v321c0 20 15 30 30 30s30 -10 30 -30v-282l58 38c17 11 33 4 42 -9c8 -13 7 -31 -9 -41l-91 -59v-240
c0 -37 12 -92 51 -109c13 -6 19 -17 19 -28z" />
    <glyph glyph-name="lslash.alt" unicode="&#xf83a;" horiz-adv-x="264" 
d="M90 30v328l-34 -22c-17 -11 -33 -4 -42 9c-8 13 -7 31 9 41l67 43v321c0 20 15 30 30 30s30 -10 30 -30v-282l58 38c17 11 33 4 42 -9c8 -13 7 -31 -9 -41l-91 -59v-367c0 -20 -15 -30 -30 -30s-30 10 -30 30z" />
    <glyph glyph-name="Nacute" unicode="&#x143;" horiz-adv-x="656" 
d="M576 30c0 -22 -13 -35 -27 -35c-10 0 -21 6 -29 19l-380 629v-613c0 -20 -15 -30 -30 -30s-30 10 -30 30v720c0 22 13 35 27 35c10 0 21 -6 29 -19l380 -629v613c0 20 15 30 30 30s30 -10 30 -30v-720zM447 968c0 -6 -2 -13 -9 -19l-109 -87c-6 -4 -11 -6 -16 -6
c-14 0 -25 13 -25 27c0 6 2 13 9 19l109 87c6 4 11 6 16 6c14 0 25 -13 25 -27z" />
    <glyph glyph-name="nacute" unicode="&#x144;" 
d="M460 30c0 -20 -15 -30 -30 -30s-30 10 -30 30v340c0 75 -60 135 -135 135s-135 -60 -135 -135v-340c0 -20 -15 -30 -30 -30s-30 10 -30 30v340c0 108 87 195 195 195s195 -87 195 -195v-340zM344 743c0 -6 -2 -13 -9 -19l-109 -87c-6 -4 -11 -6 -16 -6
c-14 0 -25 13 -25 27c0 6 2 13 9 19l109 87c6 4 11 6 16 6c14 0 25 -13 25 -27z" />
    <glyph glyph-name="nacute.alt" unicode="&#xf82a;" 
d="M344 743c0 -6 -2 -13 -9 -19l-109 -87c-6 -4 -11 -6 -16 -6c-14 0 -25 13 -25 27c0 6 2 13 9 19l109 87c6 4 11 6 16 6c14 0 25 -13 25 -27zM70 30v495c0 20 15 30 30 30s30 -10 30 -30v-23c34 37 82 63 135 63c108 0 195 -87 195 -195v-340c0 -20 -15 -30 -30 -30
s-30 10 -30 30v340c0 75 -60 135 -135 135s-135 -60 -135 -135v-340c0 -20 -15 -30 -30 -30s-30 10 -30 30z" />
    <glyph glyph-name="Ntilde" unicode="&#xd1;" horiz-adv-x="656" 
d="M576 30c0 -22 -13 -35 -27 -35c-10 0 -21 6 -29 19l-380 629v-613c0 -20 -15 -30 -30 -30s-30 10 -30 30v720c0 22 13 35 27 35c10 0 21 -6 29 -19l380 -629v613c0 20 15 30 30 30s30 -10 30 -30v-720zM465 935c0 -21 -41 -67 -86 -67s-57 39 -84 39
c-39 0 -35 -42 -62 -42c-12 0 -23 10 -23 25c0 24 41 67 85 67c49 0 62 -39 84 -39c39 0 35 42 62 42c15 0 24 -9 24 -25z" />
    <glyph glyph-name="ntilde" unicode="&#xf1;" 
d="M460 30c0 -20 -15 -30 -30 -30s-30 10 -30 30v340c0 75 -60 135 -135 135s-135 -60 -135 -135v-340c0 -20 -15 -30 -30 -30s-30 10 -30 30v340c0 108 87 195 195 195s195 -87 195 -195v-340zM392 710c0 -21 -41 -67 -86 -67s-57 39 -84 39c-39 0 -35 -42 -62 -42
c-12 0 -23 10 -23 25c0 24 41 67 85 67c49 0 62 -39 84 -39c39 0 35 42 62 42c15 0 24 -9 24 -25z" />
    <glyph glyph-name="ntilde.alt" unicode="&#xf829;" 
d="M392 710c0 -21 -41 -67 -86 -67s-57 39 -84 39c-39 0 -35 -42 -62 -42c-12 0 -23 10 -23 25c0 24 41 67 85 67c49 0 62 -39 84 -39c39 0 35 42 62 42c15 0 24 -9 24 -25zM70 30v495c0 20 15 30 30 30s30 -10 30 -30v-23c34 37 82 63 135 63c108 0 195 -87 195 -195v-340
c0 -20 -15 -30 -30 -30s-30 10 -30 30v340c0 75 -60 135 -135 135s-135 -60 -135 -135v-340c0 -20 -15 -30 -30 -30s-30 10 -30 30z" />
    <glyph glyph-name="Ncommaaccent" unicode="&#x145;" horiz-adv-x="656" 
d="M576 30c0 -22 -13 -35 -27 -35c-10 0 -21 6 -29 19l-380 629v-613c0 -20 -15 -30 -30 -30s-30 10 -30 30v720c0 22 13 35 27 35c10 0 21 -6 29 -19l380 -629v613c0 20 15 30 30 30s30 -10 30 -30v-720zM367 -86c0 -77 -19 -112 -71 -154c-6 -5 -12 -6 -18 -6
c-16 0 -30 15 -30 31c0 8 4 16 13 23c31 29 46 39 46 106c0 20 15 30 30 30s30 -10 30 -30z" />
    <glyph glyph-name="ncommaaccent" unicode="&#x146;" 
d="M460 30c0 -20 -15 -30 -30 -30s-30 10 -30 30v340c0 75 -60 135 -135 135s-135 -60 -135 -135v-340c0 -20 -15 -30 -30 -30s-30 10 -30 30v340c0 108 87 195 195 195s195 -87 195 -195v-340zM304 -86c0 -77 -19 -112 -71 -154c-6 -5 -12 -6 -18 -6c-16 0 -30 15 -30 31
c0 8 4 16 13 23c31 29 46 39 46 106c0 20 15 30 30 30s30 -10 30 -30z" />
    <glyph glyph-name="ncommaaccent.alt" unicode="&#xf82b;" 
d="M304 -86c0 -77 -19 -112 -71 -154c-6 -5 -12 -6 -18 -6c-16 0 -30 15 -30 31c0 8 4 16 13 23c31 29 46 39 46 106c0 20 15 30 30 30s30 -10 30 -30zM70 30v495c0 20 15 30 30 30s30 -10 30 -30v-23c34 37 82 63 135 63c108 0 195 -87 195 -195v-340
c0 -20 -15 -30 -30 -30s-30 10 -30 30v340c0 75 -60 135 -135 135s-135 -60 -135 -135v-340c0 -20 -15 -30 -30 -30s-30 10 -30 30z" />
    <glyph glyph-name="Ncaron" unicode="&#x147;" horiz-adv-x="656" 
d="M576 30c0 -22 -13 -35 -27 -35c-10 0 -21 6 -29 19l-380 629v-613c0 -20 -15 -30 -30 -30s-30 10 -30 30v720c0 22 13 35 27 35c10 0 21 -6 29 -19l380 -629v613c0 20 15 30 30 30s30 -10 30 -30v-720zM442 967c0 -6 -2 -12 -8 -18l-69 -69c-10 -10 -19 -14 -28 -14
c-8 0 -17 4 -27 14l-69 69c-6 6 -8 12 -8 18c0 13 12 26 26 26c5 0 11 -3 17 -8l61 -60l62 60c6 5 12 8 17 8c14 0 26 -13 26 -26z" />
    <glyph glyph-name="ncaron" unicode="&#x148;" 
d="M460 30c0 -20 -15 -30 -30 -30s-30 10 -30 30v340c0 75 -60 135 -135 135s-135 -60 -135 -135v-340c0 -20 -15 -30 -30 -30s-30 10 -30 30v340c0 108 87 195 195 195s195 -87 195 -195v-340zM370 742c0 -6 -2 -12 -8 -18l-69 -69c-10 -10 -19 -14 -28 -14
c-8 0 -17 4 -27 14l-69 69c-6 6 -8 12 -8 18c0 13 12 26 26 26c5 0 11 -3 17 -8l61 -60l62 60c6 5 12 8 17 8c14 0 26 -13 26 -26z" />
    <glyph glyph-name="ncaron.alt" unicode="&#xf82c;" 
d="M370 742c0 -6 -2 -12 -8 -18l-69 -69c-10 -10 -19 -14 -28 -14c-8 0 -17 4 -27 14l-69 69c-6 6 -8 12 -8 18c0 13 12 26 26 26c5 0 11 -3 17 -8l61 -60l62 60c6 5 12 8 17 8c14 0 26 -13 26 -26zM70 30v495c0 20 15 30 30 30s30 -10 30 -30v-23c34 37 82 63 135 63
c108 0 195 -87 195 -195v-340c0 -20 -15 -30 -30 -30s-30 10 -30 30v340c0 75 -60 135 -135 135s-135 -60 -135 -135v-340c0 -20 -15 -30 -30 -30s-30 10 -30 30z" />
    <glyph glyph-name="Ograve" unicode="&#xd2;" horiz-adv-x="636" 
d="M576 248c0 -142 -116 -258 -258 -258s-258 116 -258 258v284c0 142 116 258 258 258s258 -116 258 -258v-284zM516 248v284c0 109 -89 198 -198 198s-198 -89 -198 -198v-284c0 -109 89 -198 198 -198s198 89 198 198zM397 883c0 -14 -11 -27 -25 -27c-5 0 -10 2 -16 6
l-109 87c-7 6 -9 13 -9 19c0 14 11 27 25 27c5 0 10 -2 16 -6l109 -87c7 -6 9 -13 9 -19z" />
    <glyph glyph-name="ograve" unicode="&#xf2;" horiz-adv-x="520" 
d="M455 185c0 -108 -87 -195 -195 -195s-195 87 -195 195v185c0 108 87 195 195 195s195 -87 195 -195v-185zM395 185v185c0 75 -60 135 -135 135s-135 -60 -135 -135v-185c0 -75 60 -135 135 -135s135 60 135 135zM339 658c0 -14 -11 -27 -25 -27c-5 0 -10 2 -16 6l-109 87
c-7 6 -9 13 -9 19c0 14 11 27 25 27c5 0 10 -2 16 -6l109 -87c7 -6 9 -13 9 -19z" />
    <glyph glyph-name="Oacute" unicode="&#xd3;" horiz-adv-x="636" 
d="M576 248c0 -142 -116 -258 -258 -258s-258 116 -258 258v284c0 142 116 258 258 258s258 -116 258 -258v-284zM516 248v284c0 109 -89 198 -198 198s-198 -89 -198 -198v-284c0 -109 89 -198 198 -198s198 89 198 198zM397 968c0 -6 -2 -13 -9 -19l-109 -87
c-6 -4 -11 -6 -16 -6c-14 0 -25 13 -25 27c0 6 2 13 9 19l109 87c6 4 11 6 16 6c14 0 25 -13 25 -27z" />
    <glyph glyph-name="oacute" unicode="&#xf3;" horiz-adv-x="520" 
d="M455 185c0 -108 -87 -195 -195 -195s-195 87 -195 195v185c0 108 87 195 195 195s195 -87 195 -195v-185zM395 185v185c0 75 -60 135 -135 135s-135 -60 -135 -135v-185c0 -75 60 -135 135 -135s135 60 135 135zM339 743c0 -6 -2 -13 -9 -19l-109 -87
c-6 -4 -11 -6 -16 -6c-14 0 -25 13 -25 27c0 6 2 13 9 19l109 87c6 4 11 6 16 6c14 0 25 -13 25 -27z" />
    <glyph glyph-name="Ocircumflex" unicode="&#xd4;" horiz-adv-x="636" 
d="M576 248c0 -142 -116 -258 -258 -258s-258 116 -258 258v284c0 142 116 258 258 258s258 -116 258 -258v-284zM516 248v284c0 109 -89 198 -198 198s-198 -89 -198 -198v-284c0 -109 89 -198 198 -198s198 89 198 198zM422 891c0 -13 -12 -25 -26 -25c-5 0 -11 2 -17 7
l-61 60l-62 -60c-6 -5 -12 -7 -17 -7c-14 0 -26 12 -26 25c0 6 2 12 8 18l69 69c10 10 19 15 27 15c9 0 18 -5 28 -15l69 -69c6 -6 8 -12 8 -18z" />
    <glyph glyph-name="ocircumflex" unicode="&#xf4;" horiz-adv-x="520" 
d="M455 185c0 -108 -87 -195 -195 -195s-195 87 -195 195v185c0 108 87 195 195 195s195 -87 195 -195v-185zM395 185v185c0 75 -60 135 -135 135s-135 -60 -135 -135v-185c0 -75 60 -135 135 -135s135 60 135 135zM364 666c0 -13 -12 -25 -26 -25c-5 0 -11 2 -17 7l-61 60
l-62 -60c-6 -5 -12 -7 -17 -7c-14 0 -26 12 -26 25c0 6 2 12 8 18l69 69c10 10 19 15 27 15c9 0 18 -5 28 -15l69 -69c6 -6 8 -12 8 -18z" />
    <glyph glyph-name="Otilde" unicode="&#xd5;" horiz-adv-x="636" 
d="M576 248c0 -142 -116 -258 -258 -258s-258 116 -258 258v284c0 142 116 258 258 258s258 -116 258 -258v-284zM516 248v284c0 109 -89 198 -198 198s-198 -89 -198 -198v-284c0 -109 89 -198 198 -198s198 89 198 198zM445 935c0 -21 -41 -67 -86 -67s-57 39 -84 39
c-39 0 -35 -42 -62 -42c-12 0 -23 10 -23 25c0 24 41 67 85 67c49 0 62 -39 84 -39c39 0 35 42 62 42c15 0 24 -9 24 -25z" />
    <glyph glyph-name="otilde" unicode="&#xf5;" horiz-adv-x="520" 
d="M455 185c0 -108 -87 -195 -195 -195s-195 87 -195 195v185c0 108 87 195 195 195s195 -87 195 -195v-185zM395 185v185c0 75 -60 135 -135 135s-135 -60 -135 -135v-185c0 -75 60 -135 135 -135s135 60 135 135zM387 710c0 -21 -41 -67 -86 -67s-57 39 -84 39
c-39 0 -35 -42 -62 -42c-12 0 -23 10 -23 25c0 24 41 67 85 67c49 0 62 -39 84 -39c39 0 35 42 62 42c15 0 24 -9 24 -25z" />
    <glyph glyph-name="Odieresis" unicode="&#xd6;" horiz-adv-x="636" 
d="M576 248c0 -142 -116 -258 -258 -258s-258 116 -258 258v284c0 142 116 258 258 258s258 -116 258 -258v-284zM516 248v284c0 109 -89 198 -198 198s-198 -89 -198 -198v-284c0 -109 89 -198 198 -198s198 89 198 198zM198 904c0 22 18 40 40 40s40 -18 40 -40
s-18 -40 -40 -40s-40 18 -40 40zM358 904c0 22 18 40 40 40s40 -18 40 -40s-18 -40 -40 -40s-40 18 -40 40z" />
    <glyph glyph-name="odieresis" unicode="&#xf6;" horiz-adv-x="520" 
d="M455 185c0 -108 -87 -195 -195 -195s-195 87 -195 195v185c0 108 87 195 195 195s195 -87 195 -195v-185zM395 185v185c0 75 -60 135 -135 135s-135 -60 -135 -135v-185c0 -75 60 -135 135 -135s135 60 135 135zM140 679c0 22 18 40 40 40s40 -18 40 -40s-18 -40 -40 -40
s-40 18 -40 40zM300 679c0 22 18 40 40 40s40 -18 40 -40s-18 -40 -40 -40s-40 18 -40 40z" />
    <glyph glyph-name="Omacron" unicode="&#x14c;" horiz-adv-x="636" 
d="M576 248c0 -142 -116 -258 -258 -258s-258 116 -258 258v284c0 142 116 258 258 258s258 -116 258 -258v-284zM516 248v284c0 109 -89 198 -198 198s-198 -89 -198 -198v-284c0 -109 89 -198 198 -198s198 89 198 198zM421 912c0 -9 -6 -25 -24 -25h-158
c-16 0 -25 13 -25 25s9 25 25 25h158c18 0 24 -16 24 -25z" />
    <glyph glyph-name="omacron" unicode="&#x14d;" horiz-adv-x="520" 
d="M455 185c0 -108 -87 -195 -195 -195s-195 87 -195 195v185c0 108 87 195 195 195s195 -87 195 -195v-185zM395 185v185c0 75 -60 135 -135 135s-135 -60 -135 -135v-185c0 -75 60 -135 135 -135s135 60 135 135zM364 687c0 -9 -6 -25 -24 -25h-158c-16 0 -25 13 -25 25
s9 25 25 25h158c18 0 24 -16 24 -25z" />
    <glyph glyph-name="Obreve" unicode="&#x14e;" horiz-adv-x="636" 
d="M576 248c0 -142 -116 -258 -258 -258s-258 116 -258 258v284c0 142 116 258 258 258s258 -116 258 -258v-284zM516 248v284c0 109 -89 198 -198 198s-198 -89 -198 -198v-284c0 -109 89 -198 198 -198s198 89 198 198zM422 971c0 -57 -47 -104 -104 -104
s-104 47 -104 104c0 16 13 25 25 25s25 -9 25 -25c0 -30 24 -54 54 -54s54 24 54 54c0 16 13 25 25 25s25 -9 25 -25z" />
    <glyph glyph-name="obreve" unicode="&#x14f;" horiz-adv-x="520" 
d="M455 185c0 -108 -87 -195 -195 -195s-195 87 -195 195v185c0 108 87 195 195 195s195 -87 195 -195v-185zM395 185v185c0 75 -60 135 -135 135s-135 -60 -135 -135v-185c0 -75 60 -135 135 -135s135 60 135 135zM364 746c0 -57 -47 -104 -104 -104s-104 47 -104 104
c0 16 13 25 25 25s25 -9 25 -25c0 -30 24 -54 54 -54s54 24 54 54c0 16 13 25 25 25s25 -9 25 -25z" />
    <glyph glyph-name="Ohungarumlaut" unicode="&#x150;" horiz-adv-x="636" 
d="M576 248c0 -142 -116 -258 -258 -258s-258 116 -258 258v284c0 142 116 258 258 258s258 -116 258 -258v-284zM516 248v284c0 109 -89 198 -198 198s-198 -89 -198 -198v-284c0 -109 89 -198 198 -198s198 89 198 198zM507 969c0 -7 -3 -15 -10 -20l-109 -87
c-6 -5 -13 -5 -16 -5c-14 0 -25 11 -25 25c0 7 3 15 10 20l109 87c6 5 13 5 16 5c14 0 25 -11 25 -25zM368 969c0 -7 -3 -15 -10 -20l-109 -87c-6 -5 -13 -5 -16 -5c-14 0 -25 11 -25 25c0 7 3 15 10 20l109 87c6 5 13 5 16 5c14 0 25 -11 25 -25z" />
    <glyph glyph-name="ohungarumlaut" unicode="&#x151;" horiz-adv-x="520" 
d="M455 185c0 -108 -87 -195 -195 -195s-195 87 -195 195v185c0 108 87 195 195 195s195 -87 195 -195v-185zM395 185v185c0 75 -60 135 -135 135s-135 -60 -135 -135v-185c0 -75 60 -135 135 -135s135 60 135 135zM439 744c0 -7 -3 -15 -10 -20l-109 -87
c-6 -5 -13 -5 -16 -5c-14 0 -25 11 -25 25c0 7 3 15 10 20l109 87c6 5 13 5 16 5c14 0 25 -11 25 -25zM300 744c0 -7 -3 -15 -10 -20l-109 -87c-6 -5 -13 -5 -16 -5c-14 0 -25 11 -25 25c0 7 3 15 10 20l109 87c6 5 13 5 16 5c14 0 25 -11 25 -25z" />
    <glyph glyph-name="Oslash" unicode="&#xd8;" horiz-adv-x="637" 
d="M577 761c0 -6 -1 -11 -5 -17l-41 -66c29 -41 46 -92 46 -146v-284c0 -142 -116 -258 -258 -258c-66 0 -126 25 -172 65l-31 -51c-6 -10 -16 -14 -25 -14c-15 0 -31 13 -31 29c0 6 2 11 5 17l41 66c-29 41 -45 92 -45 146v284c0 142 115 258 258 258c65 0 125 -25 171 -65
l31 51c6 10 16 14 25 14c15 0 31 -13 31 -29zM458 673c-36 35 -85 57 -139 57c-110 0 -198 -89 -198 -198v-284c0 -32 7 -62 20 -88zM517 248v284c0 32 -8 62 -21 88l-317 -513c36 -35 85 -57 140 -57c109 0 198 89 198 198z" />
    <glyph glyph-name="oslash" unicode="&#xf8;" horiz-adv-x="531" 
d="M461 536c0 -6 -2 -11 -5 -17l-27 -42c20 -31 32 -68 32 -107v-185c0 -108 -88 -195 -195 -195c-46 0 -89 16 -122 42l-18 -28c-7 -10 -16 -14 -25 -14c-15 0 -31 13 -31 29c0 6 2 11 5 17l27 42c-20 31 -31 68 -31 107v185c0 108 87 195 195 195c45 0 88 -16 121 -42
l18 28c7 10 16 14 25 14c15 0 31 -13 31 -29zM354 472c-23 20 -54 33 -88 33c-75 0 -135 -60 -135 -135v-185c0 -17 3 -33 8 -49zM401 185v185c0 17 -4 33 -9 49l-215 -336c23 -20 55 -33 89 -33c74 0 135 60 135 135z" />
    <glyph glyph-name="Oslashacute" unicode="&#x1fe;" horiz-adv-x="636" 
d="M577 761c0 -6 -1 -11 -5 -17l-41 -66c29 -41 46 -92 46 -146v-284c0 -142 -116 -258 -258 -258c-66 0 -126 25 -172 65l-31 -51c-6 -10 -16 -14 -25 -14c-15 0 -31 13 -31 29c0 6 2 11 5 17l41 66c-29 41 -45 92 -45 146v284c0 142 115 258 258 258c65 0 125 -25 171 -65
l31 51c6 10 16 14 25 14c15 0 31 -13 31 -29zM458 673c-36 35 -85 57 -139 57c-110 0 -198 -89 -198 -198v-284c0 -32 7 -62 20 -88zM517 248v284c0 32 -8 62 -21 88l-317 -513c36 -35 85 -57 140 -57c109 0 198 89 198 198zM397 968c0 -6 -2 -13 -9 -19l-109 -87
c-6 -4 -11 -6 -16 -6c-14 0 -25 13 -25 27c0 6 2 13 9 19l109 87c6 4 11 6 16 6c14 0 25 -13 25 -27z" />
    <glyph glyph-name="oslashacute" unicode="&#x1ff;" horiz-adv-x="520" 
d="M461 536c0 -6 -2 -11 -5 -17l-27 -42c20 -31 32 -68 32 -107v-185c0 -108 -88 -195 -195 -195c-46 0 -89 16 -122 42l-18 -28c-7 -10 -16 -14 -25 -14c-15 0 -31 13 -31 29c0 6 2 11 5 17l27 42c-20 31 -31 68 -31 107v185c0 108 87 195 195 195c45 0 88 -16 121 -42
l18 28c7 10 16 14 25 14c15 0 31 -13 31 -29zM354 472c-23 20 -54 33 -88 33c-75 0 -135 -60 -135 -135v-185c0 -17 3 -33 8 -49zM401 185v185c0 17 -4 33 -9 49l-215 -336c23 -20 55 -33 89 -33c74 0 135 60 135 135zM339 743c0 -6 -2 -13 -9 -19l-109 -87
c-6 -4 -11 -6 -16 -6c-14 0 -25 13 -25 27c0 6 2 13 9 19l109 87c6 4 11 6 16 6c14 0 25 -13 25 -27z" />
    <glyph glyph-name="OE" unicode="&#x152;" horiz-adv-x="1001" 
d="M951 30c0 -15 -10 -30 -30 -30h-375c-16 0 -30 14 -30 30v53c-47 -57 -118 -93 -198 -93c-142 0 -258 116 -258 258v284c0 142 116 258 258 258c80 0 151 -36 198 -93v53c0 16 14 30 30 30h375c20 0 30 -15 30 -30s-10 -30 -30 -30h-345v-282h315c20 0 30 -15 30 -30
s-10 -30 -30 -30h-315v-318h345c20 0 30 -15 30 -30zM516 248v284c0 109 -89 198 -198 198s-198 -89 -198 -198v-284c0 -109 89 -198 198 -198s198 89 198 198z" />
    <glyph glyph-name="oe" unicode="&#x153;" horiz-adv-x="845" 
d="M785 300c0 -16 -14 -30 -30 -30h-300v-85c0 -72 68 -135 145 -135c38 0 90 14 113 47c7 9 16 13 24 13c16 0 32 -13 32 -29c0 -6 -2 -12 -6 -18c0 0 -4 -5 -11 -13c-39 -41 -96 -60 -152 -60c-69 0 -136 37 -174 93c-34 -56 -96 -93 -166 -93c-108 0 -195 87 -195 195
v185c0 108 87 195 195 195c69 0 130 -36 165 -91c35 55 96 91 165 91c108 0 195 -87 195 -195v-70zM725 330v40c0 75 -60 135 -135 135s-135 -60 -135 -135v-40h270zM395 185v185c0 75 -60 135 -135 135s-135 -60 -135 -135v-185c0 -75 60 -135 135 -135s135 60 135 135z
" />
    <glyph glyph-name="Thorn" unicode="&#xde;" horiz-adv-x="587" 
d="M537 412c0 -138 -112 -249 -249 -249h-148v-133c0 -20 -15 -30 -30 -30s-30 10 -30 30v720c0 20 15 30 30 30s30 -10 30 -30v-90h148c137 0 249 -111 249 -248zM476 412l1 -1c0 105 -85 189 -189 189h-148v-377h148c104 0 188 84 188 189z" />
    <glyph glyph-name="thorn" unicode="&#xfe;" horiz-adv-x="525" 
d="M265 -10c-53 0 -101 26 -135 63v-223c0 -20 -15 -30 -30 -30s-30 10 -30 30v920c0 20 15 30 30 30s30 -10 30 -30v-248c34 37 82 63 135 63c108 0 195 -87 195 -195v-185c0 -108 -87 -195 -195 -195zM400 185v185c0 75 -60 135 -135 135s-135 -60 -135 -135v-185
c0 -75 60 -135 135 -135s135 60 135 135z" />
    <glyph glyph-name="Racute" unicode="&#x154;" horiz-adv-x="589" 
d="M539 29c0 -16 -16 -29 -32 -29c-9 0 -18 4 -24 14l-172 270c-7 -1 -15 -1 -23 -1h-148v-253c0 -20 -15 -30 -30 -30s-30 10 -30 30v720c0 16 14 30 30 30h178c137 0 249 -111 249 -248c0 -108 -68 -199 -163 -234l159 -252c4 -6 6 -11 6 -17zM477 531
c0 105 -85 189 -189 189h-148v-377h148c103 0 189 82 189 188zM374 968c0 -6 -2 -13 -9 -19l-109 -87c-6 -4 -11 -6 -16 -6c-14 0 -25 13 -25 27c0 6 2 13 9 19l109 87c6 4 11 6 16 6c14 0 25 -13 25 -27z" />
    <glyph glyph-name="racute" unicode="&#x155;" horiz-adv-x="399" 
d="M379 495c0 -16 -14 -30 -31 -30c-7 0 -14 3 -21 9c0 0 -2 2 -5 4c-21 17 -49 27 -77 27c-72 0 -115 -52 -115 -142v-333c0 -20 -15 -30 -30 -30s-30 10 -30 30v333c0 111 59 202 175 202c41 0 94 -18 124 -49c7 -7 10 -14 10 -21zM289 743c0 -6 -2 -13 -9 -19l-109 -87
c-6 -4 -11 -6 -16 -6c-14 0 -25 13 -25 27c0 6 2 13 9 19l109 87c6 4 11 6 16 6c14 0 25 -13 25 -27z" />
    <glyph glyph-name="racute.alt" unicode="&#xf82d;" horiz-adv-x="339" 
d="M289 743c0 -6 -2 -13 -9 -19l-109 -87c-6 -4 -11 -6 -16 -6c-14 0 -25 13 -25 27c0 6 2 13 9 19l109 87c6 4 11 6 16 6c14 0 25 -13 25 -27zM310 553c11 -4 19 -15 19 -28c0 -17 -13 -30 -30 -30c-3 0 -7 1 -10 2c-14 5 -29 8 -44 8c-72 0 -115 -52 -115 -142v-333
c0 -20 -15 -30 -30 -30s-30 10 -30 30v495c0 20 15 30 30 30s30 -10 30 -30v-18c21 30 62 58 115 58c20 0 43 -4 65 -12z" />
    <glyph glyph-name="Rcommaaccent" unicode="&#x156;" horiz-adv-x="589" 
d="M539 29c0 -16 -16 -29 -32 -29c-9 0 -18 4 -24 14l-172 270c-7 -1 -15 -1 -23 -1h-148v-253c0 -20 -15 -30 -30 -30s-30 10 -30 30v720c0 16 14 30 30 30h178c137 0 249 -111 249 -248c0 -108 -68 -199 -163 -234l159 -252c4 -6 6 -11 6 -17zM477 531
c0 105 -85 189 -189 189h-148v-377h148c103 0 189 82 189 188zM334 -86c0 -77 -19 -112 -71 -154c-6 -5 -12 -6 -18 -6c-16 0 -30 15 -30 31c0 8 4 16 13 23c31 29 46 39 46 106c0 20 15 30 30 30s30 -10 30 -30z" />
    <glyph glyph-name="rcommaaccent" unicode="&#x157;" horiz-adv-x="399" 
d="M379 495c0 -16 -14 -30 -31 -30c-7 0 -14 3 -21 9c0 0 -2 2 -5 4c-21 17 -49 27 -77 27c-72 0 -115 -52 -115 -142v-333c0 -20 -15 -30 -30 -30s-30 10 -30 30v333c0 111 59 202 175 202c41 0 94 -18 124 -49c7 -7 10 -14 10 -21zM269 -86c0 -77 -19 -112 -71 -154
c-6 -5 -12 -6 -18 -6c-16 0 -30 15 -30 31c0 8 4 16 13 23c31 29 46 39 46 106c0 20 15 30 30 30s30 -10 30 -30z" />
    <glyph glyph-name="rcommaaccent.alt" unicode="&#xf82e;" horiz-adv-x="339" 
d="M229 -86c0 -77 -19 -112 -71 -154c-6 -5 -12 -6 -18 -6c-16 0 -30 15 -30 31c0 8 4 16 13 23c31 29 46 39 46 106c0 20 15 30 30 30s30 -10 30 -30zM310 553c11 -4 19 -15 19 -28c0 -17 -13 -30 -30 -30c-3 0 -7 1 -10 2c-14 5 -29 8 -44 8c-72 0 -115 -52 -115 -142
v-333c0 -20 -15 -30 -30 -30s-30 10 -30 30v495c0 20 15 30 30 30s30 -10 30 -30v-18c21 30 62 58 115 58c20 0 43 -4 65 -12z" />
    <glyph glyph-name="Rcaron" unicode="&#x158;" horiz-adv-x="589" 
d="M539 29c0 -16 -16 -29 -32 -29c-9 0 -18 4 -24 14l-172 270c-7 -1 -15 -1 -23 -1h-148v-253c0 -20 -15 -30 -30 -30s-30 10 -30 30v720c0 16 14 30 30 30h178c137 0 249 -111 249 -248c0 -108 -68 -199 -163 -234l159 -252c4 -6 6 -11 6 -17zM477 531
c0 105 -85 189 -189 189h-148v-377h148c103 0 189 82 189 188zM399 967c0 -6 -2 -12 -8 -18l-69 -69c-10 -10 -19 -14 -28 -14c-8 0 -17 4 -27 14l-69 69c-6 6 -8 12 -8 18c0 13 12 26 26 26c5 0 11 -3 17 -8l61 -60l62 60c6 5 12 8 17 8c14 0 26 -13 26 -26z" />
    <glyph glyph-name="rcaron" unicode="&#x159;" horiz-adv-x="399" 
d="M379 495c0 -16 -14 -30 -31 -30c-7 0 -14 3 -21 9c0 0 -2 2 -5 4c-21 17 -49 27 -77 27c-72 0 -115 -52 -115 -142v-333c0 -20 -15 -30 -30 -30s-30 10 -30 30v333c0 111 59 202 175 202c41 0 94 -18 124 -49c7 -7 10 -14 10 -21zM334 742c0 -6 -2 -12 -8 -18l-69 -69
c-10 -10 -19 -14 -28 -14c-8 0 -17 4 -27 14l-69 69c-6 6 -8 12 -8 18c0 13 12 26 26 26c5 0 11 -3 17 -8l61 -60l62 60c6 5 12 8 17 8c14 0 26 -13 26 -26z" />
    <glyph glyph-name="rcaron.alt" unicode="&#xf82f;" horiz-adv-x="339" 
d="M305 742c0 -6 -2 -12 -8 -18l-69 -69c-10 -10 -19 -14 -28 -14c-8 0 -17 4 -27 14l-69 69c-6 6 -8 12 -8 18c0 13 12 26 26 26c5 0 11 -3 17 -8l61 -60l62 60c6 5 12 8 17 8c14 0 26 -13 26 -26zM310 553c11 -4 19 -15 19 -28c0 -17 -13 -30 -30 -30c-3 0 -7 1 -10 2
c-14 5 -29 8 -44 8c-72 0 -115 -52 -115 -142v-333c0 -20 -15 -30 -30 -30s-30 10 -30 30v495c0 20 15 30 30 30s30 -10 30 -30v-18c21 30 62 58 115 58c20 0 43 -4 65 -12z" />
    <glyph glyph-name="Sacute" unicode="&#x15a;" horiz-adv-x="590" 
d="M530 201c0 -132 -119 -211 -255 -211c-71 0 -166 31 -209 94c-4 6 -6 12 -6 17c0 17 15 30 31 30c9 0 17 -4 24 -13c0 0 3 -4 8 -9c39 -41 97 -59 152 -59c118 0 195 65 195 151c0 219 -405 137 -405 392c0 126 108 197 220 197c78 0 170 -42 217 -106c5 -6 7 -12 7 -18
c0 -16 -14 -29 -30 -29c-9 0 -17 3 -24 11c0 0 -4 5 -11 12c-41 43 -99 70 -159 70c-90 0 -160 -55 -160 -137c0 -195 405 -119 405 -392zM374 968c0 -6 -2 -13 -9 -19l-109 -87c-6 -4 -11 -6 -16 -6c-14 0 -25 13 -25 27c0 6 2 13 9 19l109 87c6 4 11 6 16 6
c14 0 25 -13 25 -27z" />
    <glyph glyph-name="sacute" unicode="&#x15b;" horiz-adv-x="444" 
d="M394 148c0 -97 -87 -158 -186 -158c-51 0 -121 23 -152 69c-4 6 -6 12 -6 17c0 17 15 30 31 30c9 0 17 -3 24 -13l5 -5c25 -26 62 -38 98 -38c78 0 126 45 126 98c0 142 -281 90 -281 274c0 95 83 143 162 143c56 0 122 -30 153 -79c3 -5 5 -11 5 -17
c0 -16 -16 -29 -31 -29c-9 0 -18 4 -25 14c0 0 -2 2 -5 7c-24 27 -59 44 -97 44c-60 0 -102 -34 -102 -83c0 -124 281 -78 281 -274zM301 743c0 -6 -2 -13 -9 -19l-109 -87c-6 -4 -11 -6 -16 -6c-14 0 -25 13 -25 27c0 6 2 13 9 19l109 87c6 4 11 6 16 6c14 0 25 -13 25 -27
z" />
    <glyph glyph-name="Scedilla" unicode="&#x15e;" horiz-adv-x="590" 
d="M352 -116c0 -43 -35 -78 -78 -78c-16 0 -25 13 -25 25s9 25 25 25c15 0 28 13 28 28s-12 27 -28 27c-24 0 -30 17 -22 41l14 38c-70 3 -159 33 -200 94c-4 6 -6 12 -6 17c0 17 15 30 31 30c9 0 17 -4 24 -13c0 0 3 -4 8 -9c39 -41 97 -59 152 -59c118 0 195 65 195 151
c0 219 -405 137 -405 392c0 126 108 197 220 197c78 0 170 -42 217 -106c5 -6 7 -12 7 -18c0 -16 -14 -29 -30 -29c-9 0 -17 3 -24 11c0 0 -4 5 -11 12c-41 43 -99 70 -159 70c-90 0 -160 -55 -160 -137c0 -195 405 -119 405 -392c0 -118 -95 -193 -211 -208l-13 -39
c27 -12 46 -40 46 -70z" />
    <glyph glyph-name="scedilla" unicode="&#x15f;" horiz-adv-x="444" 
d="M276 -116c0 -43 -35 -78 -78 -78c-16 0 -25 13 -25 25s9 25 25 25c15 0 28 13 28 28s-12 27 -28 27c-24 0 -30 17 -22 41l15 39c-49 4 -108 27 -135 68c-4 6 -6 12 -6 17c0 17 15 30 31 30c9 0 17 -3 24 -13l5 -5c25 -26 62 -38 98 -38c78 0 126 45 126 98
c0 142 -281 90 -281 274c0 95 83 143 162 143c56 0 122 -30 153 -79c3 -5 5 -11 5 -17c0 -16 -16 -29 -31 -29c-9 0 -18 4 -25 14c0 0 -2 2 -5 7c-24 27 -59 44 -97 44c-60 0 -102 -34 -102 -83c0 -124 281 -78 281 -274c0 -86 -68 -143 -151 -155l-13 -39
c27 -12 46 -40 46 -70z" />
    <glyph glyph-name="Scaron" unicode="&#x160;" horiz-adv-x="590" 
d="M530 201c0 -132 -119 -211 -255 -211c-71 0 -166 31 -209 94c-4 6 -6 12 -6 17c0 17 15 30 31 30c9 0 17 -4 24 -13c0 0 3 -4 8 -9c39 -41 97 -59 152 -59c118 0 195 65 195 151c0 219 -405 137 -405 392c0 126 108 197 220 197c78 0 170 -42 217 -106c5 -6 7 -12 7 -18
c0 -16 -14 -29 -30 -29c-9 0 -17 3 -24 11c0 0 -4 5 -11 12c-41 43 -99 70 -159 70c-90 0 -160 -55 -160 -137c0 -195 405 -119 405 -392zM399 967c0 -6 -2 -12 -8 -18l-69 -69c-10 -10 -19 -14 -28 -14c-8 0 -17 4 -27 14l-69 69c-6 6 -8 12 -8 18c0 13 12 26 26 26
c5 0 11 -3 17 -8l61 -60l62 60c6 5 12 8 17 8c14 0 26 -13 26 -26z" />
    <glyph glyph-name="scaron" unicode="&#x161;" horiz-adv-x="444" 
d="M394 148c0 -97 -87 -158 -186 -158c-51 0 -121 23 -152 69c-4 6 -6 12 -6 17c0 17 15 30 31 30c9 0 17 -3 24 -13l5 -5c25 -26 62 -38 98 -38c78 0 126 45 126 98c0 142 -281 90 -281 274c0 95 83 143 162 143c56 0 122 -30 153 -79c3 -5 5 -11 5 -17
c0 -16 -16 -29 -31 -29c-9 0 -18 4 -25 14c0 0 -2 2 -5 7c-24 27 -59 44 -97 44c-60 0 -102 -34 -102 -83c0 -124 281 -78 281 -274zM326 742c0 -6 -2 -12 -8 -18l-69 -69c-10 -10 -19 -14 -28 -14c-8 0 -17 4 -27 14l-69 69c-6 6 -8 12 -8 18c0 13 12 26 26 26
c5 0 11 -3 17 -8l61 -60l62 60c6 5 12 8 17 8c14 0 26 -13 26 -26z" />
    <glyph glyph-name="Scommaaccent" unicode="&#x218;" horiz-adv-x="590" 
d="M530 201c0 -132 -119 -211 -255 -211c-71 0 -166 31 -209 94c-4 6 -6 12 -6 17c0 17 15 30 31 30c9 0 17 -4 24 -13c0 0 3 -4 8 -9c39 -41 97 -59 152 -59c118 0 195 65 195 151c0 219 -405 137 -405 392c0 126 108 197 220 197c78 0 170 -42 217 -106c5 -6 7 -12 7 -18
c0 -16 -14 -29 -30 -29c-9 0 -17 3 -24 11c0 0 -4 5 -11 12c-41 43 -99 70 -159 70c-90 0 -160 -55 -160 -137c0 -195 405 -119 405 -392zM315 -86c0 -77 -19 -112 -71 -154c-6 -5 -12 -6 -18 -6c-16 0 -30 15 -30 31c0 8 4 16 13 23c31 29 46 39 46 106c0 20 15 30 30 30
s30 -10 30 -30z" />
    <glyph glyph-name="scommaaccent" unicode="&#x219;" horiz-adv-x="444" 
d="M394 148c0 -97 -87 -158 -186 -158c-51 0 -121 23 -152 69c-4 6 -6 12 -6 17c0 17 15 30 31 30c9 0 17 -3 24 -13l5 -5c25 -26 62 -38 98 -38c78 0 126 45 126 98c0 142 -281 90 -281 274c0 95 83 143 162 143c56 0 122 -30 153 -79c3 -5 5 -11 5 -17
c0 -16 -16 -29 -31 -29c-9 0 -18 4 -25 14c0 0 -2 2 -5 7c-24 27 -59 44 -97 44c-60 0 -102 -34 -102 -83c0 -124 281 -78 281 -274zM248 -86c0 -77 -19 -112 -71 -154c-6 -5 -12 -6 -18 -6c-16 0 -30 15 -30 31c0 8 4 16 13 23c31 29 46 39 46 106c0 20 15 30 30 30
s30 -10 30 -30z" />
    <glyph glyph-name="Tcommaaccent" unicode="&#x162;" horiz-adv-x="560" 
d="M550 750c0 -15 -10 -30 -30 -30h-210v-690c0 -20 -15 -30 -30 -30s-30 10 -30 30v690h-210c-20 0 -30 15 -30 30s10 30 30 30h480c20 0 30 -15 30 -30zM310 -86c0 -77 -19 -112 -71 -154c-6 -5 -12 -6 -18 -6c-16 0 -30 15 -30 31c0 8 4 16 13 23c31 29 46 39 46 106
c0 20 15 30 30 30s30 -10 30 -30z" />
    <glyph glyph-name="tcommaaccent" unicode="&#x163;" horiz-adv-x="429" 
d="M409 55c0 -13 -10 -21 -20 -29c-30 -22 -68 -36 -106 -36c-88 0 -152 61 -152 141v364h-91c-20 0 -30 15 -30 30s10 30 30 30h91v127c0 20 15 30 30 30s30 -10 30 -30v-127h177c20 0 30 -15 30 -30s-10 -30 -30 -30h-177v-364c0 -44 34 -81 92 -81c55 0 74 36 97 36
c16 0 29 -15 29 -31zM274 -86c0 -77 -19 -112 -71 -154c-6 -5 -12 -6 -18 -6c-16 0 -30 15 -30 31c0 8 4 16 13 23c31 29 46 39 46 106c0 20 15 30 30 30s30 -10 30 -30z" />
    <glyph glyph-name="tcommaaccent.alt" unicode="&#xf830;" horiz-adv-x="412" 
d="M233 -86c0 -77 -19 -112 -71 -154c-6 -5 -12 -6 -18 -6c-16 0 -30 15 -30 31c0 8 4 16 13 23c31 29 46 39 46 106c0 20 15 30 30 30s30 -10 30 -30zM231 495v-465c0 -20 -15 -30 -30 -30s-30 10 -30 30v465h-121c-20 0 -30 15 -30 30s10 30 30 30h121v127
c0 20 15 30 30 30s30 -10 30 -30v-127h131c20 0 30 -15 30 -30s-10 -30 -30 -30h-131z" />
    <glyph glyph-name="Tcaron" unicode="&#x164;" horiz-adv-x="560" 
d="M550 750c0 -15 -10 -30 -30 -30h-210v-690c0 -20 -15 -30 -30 -30s-30 10 -30 30v690h-210c-20 0 -30 15 -30 30s10 30 30 30h480c20 0 30 -15 30 -30zM384 967c0 -6 -2 -12 -8 -18l-69 -69c-10 -10 -19 -14 -28 -14c-8 0 -17 4 -27 14l-69 69c-6 6 -8 12 -8 18
c0 13 12 26 26 26c5 0 11 -3 17 -8l61 -60l62 60c6 5 12 8 17 8c14 0 26 -13 26 -26z" />
    <glyph glyph-name="tcaron" unicode="&#x165;" horiz-adv-x="519" 
d="M509 743c0 -6 -2 -13 -9 -19l-109 -87c-6 -4 -11 -6 -16 -6c-14 0 -25 13 -25 27c0 6 2 13 9 19l109 87c6 4 11 6 16 6c14 0 25 -13 25 -27zM409 55c0 -13 -10 -21 -20 -29c-30 -22 -68 -36 -106 -36c-88 0 -152 61 -152 141v364h-91c-20 0 -30 15 -30 30s10 30 30 30h91
v127c0 20 15 30 30 30s30 -10 30 -30v-127h177c20 0 30 -15 30 -30s-10 -30 -30 -30h-177v-364c0 -44 34 -81 92 -81c55 0 74 36 97 36c16 0 29 -15 29 -31z" />
    <glyph glyph-name="tcaron.alt" unicode="&#xf831;" horiz-adv-x="529" 
d="M519 743c0 -6 -2 -13 -9 -19l-109 -87c-6 -4 -11 -6 -16 -6c-14 0 -25 13 -25 27c0 6 2 13 9 19l109 87c6 4 11 6 16 6c14 0 25 -13 25 -27zM231 495v-465c0 -20 -15 -30 -30 -30s-30 10 -30 30v465h-121c-20 0 -30 15 -30 30s10 30 30 30h121v127c0 20 15 30 30 30
s30 -10 30 -30v-127h131c20 0 30 -15 30 -30s-10 -30 -30 -30h-131z" />
    <glyph glyph-name="Ugrave" unicode="&#xd9;" horiz-adv-x="656" 
d="M586 248c0 -142 -116 -258 -258 -258s-258 116 -258 258v502c0 20 15 30 30 30s30 -10 30 -30v-502c0 -109 89 -198 198 -198s198 89 198 198v502c0 20 15 30 30 30s30 -10 30 -30v-502zM387 883c0 -14 -11 -27 -25 -27c-5 0 -10 2 -16 6l-109 87c-7 6 -9 13 -9 19
c0 14 11 27 25 27c5 0 10 -2 16 -6l109 -87c7 -6 9 -13 9 -19z" />
    <glyph glyph-name="ugrave" unicode="&#xf9;" 
d="M460 185c0 -108 -87 -195 -195 -195s-195 87 -195 195v340c0 20 15 30 30 30s30 -10 30 -30v-340c0 -75 60 -135 135 -135s135 60 135 135v340c0 20 15 30 30 30s30 -10 30 -30v-340zM314 658c0 -14 -11 -27 -25 -27c-5 0 -10 2 -16 6l-109 87c-7 6 -9 13 -9 19
c0 14 11 27 25 27c5 0 10 -2 16 -6l109 -87c7 -6 9 -13 9 -19z" />
    <glyph glyph-name="ugrave.alt" unicode="&#xf833;" 
d="M314 658c0 -14 -11 -27 -25 -27c-5 0 -10 2 -16 6l-109 87c-7 6 -9 13 -9 19c0 14 11 27 25 27c5 0 10 -2 16 -6l109 -87c7 -6 9 -13 9 -19zM460 525v-495c0 -20 -15 -30 -30 -30s-30 10 -30 30v23c-34 -37 -82 -63 -135 -63c-108 0 -195 87 -195 195v340
c0 20 15 30 30 30s30 -10 30 -30v-340c0 -75 60 -135 135 -135s135 60 135 135v340c0 20 15 30 30 30s30 -10 30 -30z" />
    <glyph glyph-name="Uacute" unicode="&#xda;" horiz-adv-x="656" 
d="M586 248c0 -142 -116 -258 -258 -258s-258 116 -258 258v502c0 20 15 30 30 30s30 -10 30 -30v-502c0 -109 89 -198 198 -198s198 89 198 198v502c0 20 15 30 30 30s30 -10 30 -30v-502zM427 968c0 -6 -2 -13 -9 -19l-109 -87c-6 -4 -11 -6 -16 -6c-14 0 -25 13 -25 27
c0 6 2 13 9 19l109 87c6 4 11 6 16 6c14 0 25 -13 25 -27z" />
    <glyph glyph-name="uacute" unicode="&#xfa;" 
d="M460 185c0 -108 -87 -195 -195 -195s-195 87 -195 195v340c0 20 15 30 30 30s30 -10 30 -30v-340c0 -75 60 -135 135 -135s135 60 135 135v340c0 20 15 30 30 30s30 -10 30 -30v-340zM374 743c0 -6 -2 -13 -9 -19l-109 -87c-6 -4 -11 -6 -16 -6c-14 0 -25 13 -25 27
c0 6 2 13 9 19l109 87c6 4 11 6 16 6c14 0 25 -13 25 -27z" />
    <glyph glyph-name="uacute.alt" unicode="&#xf832;" 
d="M374 743c0 -6 -2 -13 -9 -19l-109 -87c-6 -4 -11 -6 -16 -6c-14 0 -25 13 -25 27c0 6 2 13 9 19l109 87c6 4 11 6 16 6c14 0 25 -13 25 -27zM460 525v-495c0 -20 -15 -30 -30 -30s-30 10 -30 30v23c-34 -37 -82 -63 -135 -63c-108 0 -195 87 -195 195v340
c0 20 15 30 30 30s30 -10 30 -30v-340c0 -75 60 -135 135 -135s135 60 135 135v340c0 20 15 30 30 30s30 -10 30 -30z" />
    <glyph glyph-name="Ucircumflex" unicode="&#xdb;" horiz-adv-x="656" 
d="M586 248c0 -142 -116 -258 -258 -258s-258 116 -258 258v502c0 20 15 30 30 30s30 -10 30 -30v-502c0 -109 89 -198 198 -198s198 89 198 198v502c0 20 15 30 30 30s30 -10 30 -30v-502zM432 891c0 -13 -12 -25 -26 -25c-5 0 -11 2 -17 7l-61 60l-62 -60
c-6 -5 -12 -7 -17 -7c-14 0 -26 12 -26 25c0 6 2 12 8 18l69 69c10 10 19 15 27 15c9 0 18 -5 28 -15l69 -69c6 -6 8 -12 8 -18z" />
    <glyph glyph-name="ucircumflex" unicode="&#xfb;" 
d="M460 185c0 -108 -87 -195 -195 -195s-195 87 -195 195v340c0 20 15 30 30 30s30 -10 30 -30v-340c0 -75 60 -135 135 -135s135 60 135 135v340c0 20 15 30 30 30s30 -10 30 -30v-340zM369 666c0 -13 -12 -25 -26 -25c-5 0 -11 2 -17 7l-61 60l-62 -60
c-6 -5 -12 -7 -17 -7c-14 0 -26 12 -26 25c0 6 2 12 8 18l69 69c10 10 19 15 27 15c9 0 18 -5 28 -15l69 -69c6 -6 8 -12 8 -18z" />
    <glyph glyph-name="ucircumflex.alt" unicode="&#xf834;" 
d="M369 666c0 -13 -12 -25 -26 -25c-5 0 -11 2 -17 7l-61 60l-62 -60c-6 -5 -12 -7 -17 -7c-14 0 -26 12 -26 25c0 6 2 12 8 18l69 69c10 10 19 15 27 15c9 0 18 -5 28 -15l69 -69c6 -6 8 -12 8 -18zM460 525v-495c0 -20 -15 -30 -30 -30s-30 10 -30 30v23
c-34 -37 -82 -63 -135 -63c-108 0 -195 87 -195 195v340c0 20 15 30 30 30s30 -10 30 -30v-340c0 -75 60 -135 135 -135s135 60 135 135v340c0 20 15 30 30 30s30 -10 30 -30z" />
    <glyph glyph-name="Udieresis" unicode="&#xdc;" horiz-adv-x="656" 
d="M586 248c0 -142 -116 -258 -258 -258s-258 116 -258 258v502c0 20 15 30 30 30s30 -10 30 -30v-502c0 -109 89 -198 198 -198s198 89 198 198v502c0 20 15 30 30 30s30 -10 30 -30v-502zM208 904c0 22 18 40 40 40s40 -18 40 -40s-18 -40 -40 -40s-40 18 -40 40zM368 904
c0 22 18 40 40 40s40 -18 40 -40s-18 -40 -40 -40s-40 18 -40 40z" />
    <glyph glyph-name="udieresis" unicode="&#xfc;" 
d="M460 185c0 -108 -87 -195 -195 -195s-195 87 -195 195v340c0 20 15 30 30 30s30 -10 30 -30v-340c0 -75 60 -135 135 -135s135 60 135 135v340c0 20 15 30 30 30s30 -10 30 -30v-340zM145 679c0 22 18 40 40 40s40 -18 40 -40s-18 -40 -40 -40s-40 18 -40 40zM305 679
c0 22 18 40 40 40s40 -18 40 -40s-18 -40 -40 -40s-40 18 -40 40z" />
    <glyph glyph-name="udieresis.alt" unicode="&#xf835;" 
d="M145 679c0 22 18 40 40 40s40 -18 40 -40s-18 -40 -40 -40s-40 18 -40 40zM305 679c0 22 18 40 40 40s40 -18 40 -40s-18 -40 -40 -40s-40 18 -40 40zM460 525v-495c0 -20 -15 -30 -30 -30s-30 10 -30 30v23c-34 -37 -82 -63 -135 -63c-108 0 -195 87 -195 195v340
c0 20 15 30 30 30s30 -10 30 -30v-340c0 -75 60 -135 135 -135s135 60 135 135v340c0 20 15 30 30 30s30 -10 30 -30z" />
    <glyph glyph-name="Umacron" unicode="&#x16a;" horiz-adv-x="656" 
d="M586 248c0 -142 -116 -258 -258 -258s-258 116 -258 258v502c0 20 15 30 30 30s30 -10 30 -30v-502c0 -109 89 -198 198 -198s198 89 198 198v502c0 20 15 30 30 30s30 -10 30 -30v-502zM431 912c0 -9 -6 -25 -24 -25h-158c-16 0 -25 13 -25 25s9 25 25 25h158
c18 0 24 -16 24 -25z" />
    <glyph glyph-name="umacron" unicode="&#x16b;" 
d="M460 185c0 -108 -87 -195 -195 -195s-195 87 -195 195v340c0 20 15 30 30 30s30 -10 30 -30v-340c0 -75 60 -135 135 -135s135 60 135 135v340c0 20 15 30 30 30s30 -10 30 -30v-340zM368 687c0 -9 -6 -25 -24 -25h-158c-16 0 -25 13 -25 25s9 25 25 25h158
c18 0 24 -16 24 -25z" />
    <glyph glyph-name="umacron.alt" unicode="&#xf836;" 
d="M368 687c0 -9 -6 -25 -24 -25h-158c-16 0 -25 13 -25 25s9 25 25 25h158c18 0 24 -16 24 -25zM460 525v-495c0 -20 -15 -30 -30 -30s-30 10 -30 30v23c-34 -37 -82 -63 -135 -63c-108 0 -195 87 -195 195v340c0 20 15 30 30 30s30 -10 30 -30v-340
c0 -75 60 -135 135 -135s135 60 135 135v340c0 20 15 30 30 30s30 -10 30 -30z" />
    <glyph glyph-name="Uring" unicode="&#x16e;" horiz-adv-x="656" 
d="M586 248c0 -142 -116 -258 -258 -258s-258 116 -258 258v502c0 20 15 30 30 30s30 -10 30 -30v-502c0 -109 89 -198 198 -198s198 89 198 198v502c0 20 15 30 30 30s30 -10 30 -30v-502zM410 940c0 -45 -38 -83 -83 -83c-46 0 -82 38 -82 83s37 82 82 82s83 -36 83 -82z
M364 940c0 20 -17 36 -37 36s-36 -16 -36 -36s16 -37 36 -37s37 17 37 37z" />
    <glyph glyph-name="uring" unicode="&#x16f;" 
d="M460 185c0 -108 -87 -195 -195 -195s-195 87 -195 195v340c0 20 15 30 30 30s30 -10 30 -30v-340c0 -75 60 -135 135 -135s135 60 135 135v340c0 20 15 30 30 30s30 -10 30 -30v-340zM347 715c0 -45 -38 -83 -83 -83c-46 0 -82 38 -82 83s37 82 82 82s83 -36 83 -82z
M301 715c0 20 -17 36 -37 36s-36 -16 -36 -36s16 -37 36 -37s37 17 37 37z" />
    <glyph glyph-name="uring.alt" unicode="&#xf837;" 
d="M347 715c0 -45 -38 -83 -83 -83c-46 0 -82 38 -82 83s37 82 82 82s83 -36 83 -82zM301 715c0 20 -17 36 -37 36s-36 -16 -36 -36s16 -37 36 -37s37 17 37 37zM460 525v-495c0 -20 -15 -30 -30 -30s-30 10 -30 30v23c-34 -37 -82 -63 -135 -63c-108 0 -195 87 -195 195
v340c0 20 15 30 30 30s30 -10 30 -30v-340c0 -75 60 -135 135 -135s135 60 135 135v340c0 20 15 30 30 30s30 -10 30 -30z" />
    <glyph glyph-name="Uhungarumlaut" unicode="&#x170;" horiz-adv-x="656" 
d="M586 248c0 -142 -116 -258 -258 -258s-258 116 -258 258v502c0 20 15 30 30 30s30 -10 30 -30v-502c0 -109 89 -198 198 -198s198 89 198 198v502c0 20 15 30 30 30s30 -10 30 -30v-502zM517 969c0 -7 -3 -15 -10 -20l-109 -87c-6 -5 -13 -5 -16 -5c-14 0 -25 11 -25 25
c0 7 3 15 10 20l109 87c6 5 13 5 16 5c14 0 25 -11 25 -25zM378 969c0 -7 -3 -15 -10 -20l-109 -87c-6 -5 -13 -5 -16 -5c-14 0 -25 11 -25 25c0 7 3 15 10 20l109 87c6 5 13 5 16 5c14 0 25 -11 25 -25z" />
    <glyph glyph-name="uhungarumlaut" unicode="&#x171;" 
d="M460 185c0 -108 -87 -195 -195 -195s-195 87 -195 195v340c0 20 15 30 30 30s30 -10 30 -30v-340c0 -75 60 -135 135 -135s135 60 135 135v340c0 20 15 30 30 30s30 -10 30 -30v-340zM454 744c0 -7 -3 -15 -10 -20l-109 -87c-6 -5 -13 -5 -16 -5c-14 0 -25 11 -25 25
c0 7 3 15 10 20l109 87c6 5 13 5 16 5c14 0 25 -11 25 -25zM315 744c0 -7 -3 -15 -10 -20l-109 -87c-6 -5 -13 -5 -16 -5c-14 0 -25 11 -25 25c0 7 3 15 10 20l109 87c6 5 13 5 16 5c14 0 25 -11 25 -25z" />
    <glyph glyph-name="uhungarumlaut.alt" unicode="&#xf838;" 
d="M454 744c0 -7 -3 -15 -10 -20l-109 -87c-6 -5 -13 -5 -16 -5c-14 0 -25 11 -25 25c0 7 3 15 10 20l109 87c6 5 13 5 16 5c14 0 25 -11 25 -25zM315 744c0 -7 -3 -15 -10 -20l-109 -87c-6 -5 -13 -5 -16 -5c-14 0 -25 11 -25 25c0 7 3 15 10 20l109 87c6 5 13 5 16 5
c14 0 25 -11 25 -25zM460 525v-495c0 -20 -15 -30 -30 -30s-30 10 -30 30v23c-34 -37 -82 -63 -135 -63c-108 0 -195 87 -195 195v340c0 20 15 30 30 30s30 -10 30 -30v-340c0 -75 60 -135 135 -135s135 60 135 135v340c0 20 15 30 30 30s30 -10 30 -30z" />
    <glyph glyph-name="Uogonek" unicode="&#x172;" horiz-adv-x="656" 
d="M348 -114c4 -28 33 -32 51 -27c20 5 36 19 46 32c6 8 16 12 23 12c13 0 28 -15 28 -30c0 -10 -6 -19 -13 -27c-21 -25 -58 -46 -96 -46c-41 0 -101 12 -101 89c0 36 22 71 49 101h-7c-142 0 -258 116 -258 258v502c0 20 15 30 30 30s30 -10 30 -30v-502
c0 -109 89 -198 198 -198s198 89 198 198v502c0 20 15 30 30 30s30 -10 30 -30v-502c0 -100 -60 -187 -142 -230c-57 -30 -103 -93 -96 -132z" />
    <glyph glyph-name="uogonek" unicode="&#x173;" 
d="M270 -114c4 -28 33 -32 51 -27c20 5 36 19 46 32c6 8 16 12 23 12c13 0 28 -15 28 -30c0 -10 -6 -19 -13 -27c-21 -25 -58 -46 -96 -46c-41 0 -101 12 -101 89c0 36 22 71 49 101c-104 4 -187 89 -187 195v340c0 20 15 30 30 30s30 -10 30 -30v-340
c0 -75 60 -135 135 -135s135 60 135 135v340c0 20 15 30 30 30s30 -10 30 -30v-340c0 -71 -39 -130 -93 -167c-58 -40 -104 -93 -97 -132z" />
    <glyph glyph-name="uogonek.alt" unicode="&#xf839;" 
d="M400 30v23c-34 -37 -82 -63 -135 -63c-108 0 -195 87 -195 195v340c0 20 15 30 30 30s30 -10 30 -30v-340c0 -75 60 -135 135 -135s135 60 135 135v340c0 20 15 30 30 30s30 -10 30 -30v-495c0 -15 -9 -24 -19 -32c-41 -35 -107 -95 -100 -135c4 -28 33 -32 51 -27
c20 5 36 19 46 32c6 8 16 12 23 12c13 0 28 -15 28 -30c0 -10 -6 -19 -13 -27c-21 -25 -58 -46 -96 -46c-41 0 -101 12 -101 89c0 66 73 127 121 164z" />
    <glyph glyph-name="Wcircumflex" unicode="&#x174;" horiz-adv-x="940" 
d="M920 751c0 -3 0 -6 -1 -9l-200 -728c-5 -18 -17 -27 -29 -27c-11 0 -23 9 -28 26l-192 633l-191 -633c-5 -17 -17 -26 -29 -26s-24 9 -29 27l-200 728c-1 3 -1 6 -1 9c0 18 16 29 31 29c12 0 24 -7 28 -22l173 -628l190 629c5 17 17 26 28 26c12 0 24 -9 29 -26l190 -629
l172 628c5 15 16 22 28 22c16 0 31 -11 31 -29zM574 891c0 -13 -12 -25 -26 -25c-5 0 -11 2 -17 7l-61 60l-62 -60c-6 -5 -12 -7 -17 -7c-14 0 -26 12 -26 25c0 6 2 12 8 18l69 69c10 10 19 15 27 15c9 0 18 -5 28 -15l69 -69c6 -6 8 -12 8 -18z" />
    <glyph glyph-name="wcircumflex" unicode="&#x175;" horiz-adv-x="740" 
d="M710 526c0 -3 0 -6 -1 -10l-150 -495c-5 -17 -17 -26 -29 -26c-11 0 -23 8 -28 26l-132 406l-131 -406c-6 -18 -17 -26 -29 -26s-23 9 -28 26l-150 495c-2 4 -2 7 -2 10c0 18 16 29 31 29c12 0 23 -6 28 -21l122 -404l131 404c5 17 17 26 28 26c12 0 23 -9 29 -26
l130 -404l123 404c4 15 16 21 27 21c16 0 31 -11 31 -29zM474 666c0 -13 -12 -25 -26 -25c-5 0 -11 2 -17 7l-61 60l-62 -60c-6 -5 -12 -7 -17 -7c-14 0 -26 12 -26 25c0 6 2 12 8 18l69 69c10 10 19 15 27 15c9 0 18 -5 28 -15l69 -69c6 -6 8 -12 8 -18z" />
    <glyph glyph-name="Wgrave" unicode="&#x1e80;" horiz-adv-x="940" 
d="M920 751c0 -3 0 -6 -1 -9l-200 -728c-5 -18 -17 -27 -29 -27c-11 0 -23 9 -28 26l-192 633l-191 -633c-5 -17 -17 -26 -29 -26s-24 9 -29 27l-200 728c-1 3 -1 6 -1 9c0 18 16 29 31 29c12 0 24 -7 28 -22l173 -628l190 629c5 17 17 26 28 26c12 0 24 -9 29 -26l190 -629
l172 628c5 15 16 22 28 22c16 0 31 -11 31 -29zM573 873c0 -14 -11 -27 -25 -27c-5 0 -10 2 -16 6l-109 87c-7 6 -9 13 -9 19c0 14 11 27 25 27c5 0 10 -2 16 -6l109 -87c7 -6 9 -13 9 -19z" />
    <glyph glyph-name="wgrave" unicode="&#x1e81;" horiz-adv-x="740" 
d="M710 526c0 -3 0 -6 -1 -10l-150 -495c-5 -17 -17 -26 -29 -26c-11 0 -23 8 -28 26l-132 406l-131 -406c-6 -18 -17 -26 -29 -26s-23 9 -28 26l-150 495c-2 4 -2 7 -2 10c0 18 16 29 31 29c12 0 23 -6 28 -21l122 -404l131 404c5 17 17 26 28 26c12 0 23 -9 29 -26
l130 -404l123 404c4 15 16 21 27 21c16 0 31 -11 31 -29zM464 658c0 -14 -11 -27 -25 -27c-5 0 -10 2 -16 6l-109 87c-7 6 -9 13 -9 19c0 14 11 27 25 27c5 0 10 -2 16 -6l109 -87c7 -6 9 -13 9 -19z" />
    <glyph glyph-name="Wacute" unicode="&#x1e82;" horiz-adv-x="940" 
d="M920 751c0 -3 0 -6 -1 -9l-200 -728c-5 -18 -17 -27 -29 -27c-11 0 -23 9 -28 26l-192 633l-191 -633c-5 -17 -17 -26 -29 -26s-24 9 -29 27l-200 728c-1 3 -1 6 -1 9c0 18 16 29 31 29c12 0 24 -7 28 -22l173 -628l190 629c5 17 17 26 28 26c12 0 24 -9 29 -26l190 -629
l172 628c5 15 16 22 28 22c16 0 31 -11 31 -29zM543 958c0 -6 -2 -13 -9 -19l-109 -87c-6 -4 -11 -6 -16 -6c-14 0 -25 13 -25 27c0 6 2 13 9 19l109 87c6 4 11 6 16 6c14 0 25 -13 25 -27z" />
    <glyph glyph-name="wacute" unicode="&#x1e83;" horiz-adv-x="740" 
d="M710 526c0 -3 0 -6 -1 -10l-150 -495c-5 -17 -17 -26 -29 -26c-11 0 -23 8 -28 26l-132 406l-131 -406c-6 -18 -17 -26 -29 -26s-23 9 -28 26l-150 495c-2 4 -2 7 -2 10c0 18 16 29 31 29c12 0 23 -6 28 -21l122 -404l131 404c5 17 17 26 28 26c12 0 23 -9 29 -26
l130 -404l123 404c4 15 16 21 27 21c16 0 31 -11 31 -29zM436 743c0 -6 -2 -13 -9 -19l-109 -87c-6 -4 -11 -6 -16 -6c-14 0 -25 13 -25 27c0 6 2 13 9 19l109 87c6 4 11 6 16 6c14 0 25 -13 25 -27z" />
    <glyph glyph-name="Wdieresis" unicode="&#x1e84;" horiz-adv-x="940" 
d="M920 751c0 -3 0 -6 -1 -9l-200 -728c-5 -18 -17 -27 -29 -27c-11 0 -23 9 -28 26l-192 633l-191 -633c-5 -17 -17 -26 -29 -26s-24 9 -29 27l-200 728c-1 3 -1 6 -1 9c0 18 16 29 31 29c12 0 24 -7 28 -22l173 -628l190 629c5 17 17 26 28 26c12 0 24 -9 29 -26l190 -629
l172 628c5 15 16 22 28 22c16 0 31 -11 31 -29zM354 896c0 22 18 40 40 40s40 -18 40 -40s-18 -40 -40 -40s-40 18 -40 40zM514 896c0 22 18 40 40 40s40 -18 40 -40s-18 -40 -40 -40s-40 18 -40 40z" />
    <glyph glyph-name="wdieresis" unicode="&#x1e85;" horiz-adv-x="740" 
d="M710 526c0 -3 0 -6 -1 -10l-150 -495c-5 -17 -17 -26 -29 -26c-11 0 -23 8 -28 26l-132 406l-131 -406c-6 -18 -17 -26 -29 -26s-23 9 -28 26l-150 495c-2 4 -2 7 -2 10c0 18 16 29 31 29c12 0 23 -6 28 -21l122 -404l131 404c5 17 17 26 28 26c12 0 23 -9 29 -26
l130 -404l123 404c4 15 16 21 27 21c16 0 31 -11 31 -29zM253 679c0 22 18 40 40 40s40 -18 40 -40s-18 -40 -40 -40s-40 18 -40 40zM413 679c0 22 18 40 40 40s40 -18 40 -40s-18 -40 -40 -40s-40 18 -40 40z" />
    <glyph glyph-name="Ycircumflex" unicode="&#x176;" horiz-adv-x="581" 
d="M561 751c0 -5 -1 -11 -5 -16l-236 -395v-310c0 -20 -15 -30 -30 -30s-30 10 -30 30v310l-235 395c-4 5 -5 11 -5 16c0 16 16 29 31 29c10 0 19 -4 25 -15l214 -358l215 358c6 11 15 15 25 15c15 0 31 -13 31 -29zM395 891c0 -13 -12 -25 -26 -25c-5 0 -11 2 -17 7l-61 60
l-62 -60c-6 -5 -12 -7 -17 -7c-14 0 -26 12 -26 25c0 6 2 12 8 18l69 69c10 10 19 15 27 15c9 0 18 -5 28 -15l69 -69c6 -6 8 -12 8 -18z" />
    <glyph glyph-name="ycircumflex" unicode="&#x177;" horiz-adv-x="482" 
d="M452 526c0 -4 -1 -7 -3 -11l-259 -695c-5 -14 -16 -20 -27 -20c-15 0 -31 11 -31 29c0 4 1 7 2 11l71 192l-173 483c-1 4 -2 8 -2 11c0 18 16 29 31 29c11 0 22 -6 28 -20l149 -416l155 416c5 14 16 20 27 20c16 0 32 -11 32 -29zM345 666c0 -13 -12 -25 -26 -25
c-5 0 -11 2 -17 7l-61 60l-62 -60c-6 -5 -12 -7 -17 -7c-14 0 -26 12 -26 25c0 6 2 12 8 18l69 69c10 10 19 15 27 15c9 0 18 -5 28 -15l69 -69c6 -6 8 -12 8 -18z" />
    <glyph glyph-name="Ydieresis" unicode="&#x178;" horiz-adv-x="581" 
d="M561 751c0 -5 -1 -11 -5 -16l-236 -395v-310c0 -20 -15 -30 -30 -30s-30 10 -30 30v310l-235 395c-4 5 -5 11 -5 16c0 16 16 29 31 29c10 0 19 -4 25 -15l214 -358l215 358c6 11 15 15 25 15c15 0 31 -13 31 -29zM170 904c0 22 18 40 40 40s40 -18 40 -40
s-18 -40 -40 -40s-40 18 -40 40zM330 904c0 22 18 40 40 40s40 -18 40 -40s-18 -40 -40 -40s-40 18 -40 40z" />
    <glyph glyph-name="ydieresis" unicode="&#xff;" horiz-adv-x="482" 
d="M452 526c0 -4 -1 -7 -3 -11l-259 -695c-5 -14 -16 -20 -27 -20c-15 0 -31 11 -31 29c0 4 1 7 2 11l71 192l-173 483c-1 4 -2 8 -2 11c0 18 16 29 31 29c11 0 22 -6 28 -20l149 -416l155 416c5 14 16 20 27 20c16 0 32 -11 32 -29zM121 679c0 22 18 40 40 40
s40 -18 40 -40s-18 -40 -40 -40s-40 18 -40 40zM281 679c0 22 18 40 40 40s40 -18 40 -40s-18 -40 -40 -40s-40 18 -40 40z" />
    <glyph glyph-name="Ygrave" unicode="&#x1ef2;" horiz-adv-x="581" 
d="M561 751c0 -5 -1 -11 -5 -16l-236 -395v-310c0 -20 -15 -30 -30 -30s-30 10 -30 30v310l-235 395c-4 5 -5 11 -5 16c0 16 16 29 31 29c10 0 19 -4 25 -15l214 -358l215 358c6 11 15 15 25 15c15 0 31 -13 31 -29zM325 873c0 -14 -11 -27 -25 -27c-5 0 -10 2 -16 6
l-109 87c-7 6 -9 13 -9 19c0 14 11 27 25 27c5 0 10 -2 16 -6l109 -87c7 -6 9 -13 9 -19z" />
    <glyph glyph-name="ygrave" unicode="&#x1ef3;" horiz-adv-x="482" 
d="M452 526c0 -4 -1 -7 -3 -11l-259 -695c-5 -14 -16 -20 -27 -20c-15 0 -31 11 -31 29c0 4 1 7 2 11l71 192l-173 483c-1 4 -2 8 -2 11c0 18 16 29 31 29c11 0 22 -6 28 -20l149 -416l155 416c5 14 16 20 27 20c16 0 32 -11 32 -29zM276 658c0 -14 -11 -27 -25 -27
c-5 0 -10 2 -16 6l-109 87c-7 6 -9 13 -9 19c0 14 11 27 25 27c5 0 10 -2 16 -6l109 -87c7 -6 9 -13 9 -19z" />
    <glyph glyph-name="Yacute" unicode="&#xdd;" horiz-adv-x="581" 
d="M561 751c0 -5 -1 -11 -5 -16l-236 -395v-310c0 -20 -15 -30 -30 -30s-30 10 -30 30v310l-235 395c-4 5 -5 11 -5 16c0 16 16 29 31 29c10 0 19 -4 25 -15l214 -358l215 358c6 11 15 15 25 15c15 0 31 -13 31 -29zM400 968c0 -6 -2 -13 -9 -19l-109 -87
c-6 -4 -11 -6 -16 -6c-14 0 -25 13 -25 27c0 6 2 13 9 19l109 87c6 4 11 6 16 6c14 0 25 -13 25 -27z" />
    <glyph glyph-name="yacute" unicode="&#xfd;" horiz-adv-x="482" 
d="M452 526c0 -4 -1 -7 -3 -11l-259 -695c-5 -14 -16 -20 -27 -20c-15 0 -31 11 -31 29c0 4 1 7 2 11l71 192l-173 483c-1 4 -2 8 -2 11c0 18 16 29 31 29c11 0 22 -6 28 -20l149 -416l155 416c5 14 16 20 27 20c16 0 32 -11 32 -29zM350 743c0 -6 -2 -13 -9 -19l-109 -87
c-6 -4 -11 -6 -16 -6c-14 0 -25 13 -25 27c0 6 2 13 9 19l109 87c6 4 11 6 16 6c14 0 25 -13 25 -27z" />
    <glyph glyph-name="Zacute" unicode="&#x179;" horiz-adv-x="586" 
d="M541 30c0 -15 -10 -30 -30 -30h-434c-20 0 -32 11 -32 26c0 6 2 12 6 19l403 675h-354c-20 0 -30 15 -30 30s10 30 30 30h407c20 0 32 -11 32 -26c0 -6 -2 -12 -6 -19l-403 -675h381c20 0 30 -15 30 -30zM402 968c0 -6 -2 -13 -9 -19l-109 -87c-6 -4 -11 -6 -16 -6
c-14 0 -25 13 -25 27c0 6 2 13 9 19l109 87c6 4 11 6 16 6c14 0 25 -13 25 -27z" />
    <glyph glyph-name="zacute" unicode="&#x17a;" horiz-adv-x="458" 
d="M418 30c0 -15 -10 -30 -30 -30h-321c-20 0 -32 11 -32 25c0 7 2 14 7 21l287 449h-239c-20 0 -30 15 -30 30s10 30 30 30h294c20 0 32 -11 32 -25c0 -7 -2 -14 -7 -21l-287 -449h266c20 0 30 -15 30 -30zM338 743c0 -6 -2 -13 -9 -19l-109 -87c-6 -4 -11 -6 -16 -6
c-14 0 -25 13 -25 27c0 6 2 13 9 19l109 87c6 4 11 6 16 6c14 0 25 -13 25 -27z" />
    <glyph glyph-name="Zdotaccent" unicode="&#x17b;" horiz-adv-x="586" 
d="M541 30c0 -15 -10 -30 -30 -30h-434c-20 0 -32 11 -32 26c0 6 2 12 6 19l403 675h-354c-20 0 -30 15 -30 30s10 30 30 30h407c20 0 32 -11 32 -26c0 -6 -2 -12 -6 -19l-403 -675h381c20 0 30 -15 30 -30zM263 935c0 22 18 40 40 40s40 -18 40 -40s-18 -40 -40 -40
s-40 18 -40 40z" />
    <glyph glyph-name="zdotaccent" unicode="&#x17c;" horiz-adv-x="458" 
d="M418 30c0 -15 -10 -30 -30 -30h-321c-20 0 -32 11 -32 25c0 7 2 14 7 21l287 449h-239c-20 0 -30 15 -30 30s10 30 30 30h294c20 0 32 -11 32 -25c0 -7 -2 -14 -7 -21l-287 -449h266c20 0 30 -15 30 -30zM199 710c0 22 18 40 40 40s40 -18 40 -40s-18 -40 -40 -40
s-40 18 -40 40z" />
    <glyph glyph-name="Zcaron" unicode="&#x17d;" horiz-adv-x="586" 
d="M541 30c0 -15 -10 -30 -30 -30h-434c-20 0 -32 11 -32 26c0 6 2 12 6 19l403 675h-354c-20 0 -30 15 -30 30s10 30 30 30h407c20 0 32 -11 32 -26c0 -6 -2 -12 -6 -19l-403 -675h381c20 0 30 -15 30 -30zM417 967c0 -6 -2 -12 -8 -18l-69 -69c-10 -10 -19 -14 -28 -14
c-8 0 -17 4 -27 14l-69 69c-6 6 -8 12 -8 18c0 13 12 26 26 26c5 0 11 -3 17 -8l61 -60l62 60c6 5 12 8 17 8c14 0 26 -13 26 -26z" />
    <glyph glyph-name="zcaron" unicode="&#x17e;" horiz-adv-x="458" 
d="M418 30c0 -15 -10 -30 -30 -30h-321c-20 0 -32 11 -32 25c0 7 2 14 7 21l287 449h-239c-20 0 -30 15 -30 30s10 30 30 30h294c20 0 32 -11 32 -25c0 -7 -2 -14 -7 -21l-287 -449h266c20 0 30 -15 30 -30zM353 742c0 -6 -2 -12 -8 -18l-69 -69c-10 -10 -19 -14 -28 -14
c-8 0 -17 4 -27 14l-69 69c-6 6 -8 12 -8 18c0 13 12 26 26 26c5 0 11 -3 17 -8l61 -60l62 60c6 5 12 8 17 8c14 0 26 -13 26 -26z" />
    <glyph glyph-name="florin" unicode="&#x192;" horiz-adv-x="362" 
d="M342 525c0 -15 -10 -30 -30 -30h-110v-524c0 -80 -64 -141 -152 -141c-20 0 -30 15 -30 30s10 30 30 30c58 0 92 37 92 81v524h-91c-20 0 -30 15 -30 30s10 30 30 30h91v94c0 80 64 141 152 141c20 0 30 -15 30 -30s-10 -30 -30 -30c-58 0 -92 -37 -92 -81v-94h110
c20 0 30 -15 30 -30z" />
    <glyph glyph-name="integral" unicode="&#x222b;" horiz-adv-x="304" 
d="M304 760c0 -15 -10 -30 -30 -30c-58 0 -92 -37 -92 -81v-678c0 -80 -64 -141 -152 -141c-20 0 -30 15 -30 30s10 30 30 30c58 0 92 37 92 81v678c0 80 64 141 152 141c20 0 30 -15 30 -30z" />
    <glyph glyph-name="schwa" unicode="&#x259;" horiz-adv-x="515" 
d="M60 255c0 16 14 30 30 30h300v85c0 72 -68 135 -145 135c-38 0 -84 -11 -113 -48c-7 -9 -17 -13 -25 -13c-16 0 -31 13 -31 29c0 6 2 13 6 19c38 50 102 73 163 73c105 0 205 -85 205 -195v-185c0 -108 -87 -195 -195 -195s-195 87 -195 195v70zM120 225v-40
c0 -75 60 -135 135 -135s135 60 135 135v40h-270z" />
    <glyph glyph-name="circumflex" unicode="&#x2c6;" horiz-adv-x="403" 
d="M306 666c0 -13 -12 -25 -26 -25c-5 0 -11 2 -17 7l-61 60l-62 -60c-6 -5 -12 -7 -17 -7c-14 0 -26 12 -26 25c0 6 2 12 8 18l69 69c10 10 19 15 27 15c9 0 18 -5 28 -15l69 -69c6 -6 8 -12 8 -18z" />
    <glyph glyph-name="caron" unicode="&#x2c7;" horiz-adv-x="403" 
d="M306 742c0 -6 -2 -12 -8 -18l-69 -69c-10 -10 -19 -14 -28 -14c-8 0 -17 4 -27 14l-69 69c-6 6 -8 12 -8 18c0 13 12 26 26 26c5 0 11 -3 17 -8l61 -60l62 60c6 5 12 8 17 8c14 0 26 -13 26 -26z" />
    <glyph glyph-name="breve" unicode="&#x2d8;" horiz-adv-x="403" 
d="M306 746c0 -57 -47 -104 -104 -104s-104 47 -104 104c0 16 13 25 25 25s25 -9 25 -25c0 -30 24 -54 54 -54s54 24 54 54c0 16 13 25 25 25s25 -9 25 -25z" />
    <glyph glyph-name="dotaccent" unicode="&#x2d9;" horiz-adv-x="403" 
d="M162 710c0 22 18 40 40 40s40 -18 40 -40s-18 -40 -40 -40s-40 18 -40 40z" />
    <glyph glyph-name="ring" unicode="&#x2da;" horiz-adv-x="403" 
d="M299 715c0 -45 -38 -83 -83 -83c-46 0 -82 38 -82 83s37 82 82 82s83 -36 83 -82zM253 715c0 20 -17 36 -37 36s-36 -16 -36 -36s16 -37 36 -37s37 17 37 37z" />
    <glyph glyph-name="dieresis" unicode="&#xa8;" horiz-adv-x="340" 
d="M50 679c0 22 18 40 40 40s40 -18 40 -40s-18 -40 -40 -40s-40 18 -40 40zM210 679c0 22 18 40 40 40s40 -18 40 -40s-18 -40 -40 -40s-40 18 -40 40z" />
    <glyph glyph-name="tilde" unicode="&#x2dc;" horiz-adv-x="434" 
d="M345 710c0 -21 -41 -67 -86 -67s-57 39 -84 39c-39 0 -35 -42 -62 -42c-12 0 -23 10 -23 25c0 24 41 67 85 67c49 0 62 -39 84 -39c39 0 35 42 62 42c15 0 24 -9 24 -25z" />
    <glyph glyph-name="macron" unicode="&#xaf;" horiz-adv-x="403" 
d="M305 687c0 -9 -6 -25 -24 -25h-158c-16 0 -25 13 -25 25s9 25 25 25h158c18 0 24 -16 24 -25z" />
    <glyph glyph-name="hungarumlaut" unicode="&#x2dd;" horiz-adv-x="403" 
d="M351 744c0 -7 -3 -15 -10 -20l-109 -87c-6 -5 -13 -5 -16 -5c-14 0 -25 11 -25 25c0 7 3 15 10 20l109 87c6 5 13 5 16 5c14 0 25 -11 25 -25zM212 744c0 -7 -3 -15 -10 -20l-109 -87c-6 -5 -13 -5 -16 -5c-14 0 -25 11 -25 25c0 7 3 15 10 20l109 87c6 5 13 5 16 5
c14 0 25 -11 25 -25z" />
    <glyph glyph-name="grave" unicode="`" horiz-adv-x="403" 
d="M281 658c0 -14 -11 -27 -25 -27c-5 0 -10 2 -16 6l-109 87c-7 6 -9 13 -9 19c0 14 11 27 25 27c5 0 10 -2 16 -6l109 -87c7 -6 9 -13 9 -19z" />
    <glyph glyph-name="acute" unicode="&#xb4;" horiz-adv-x="403" 
d="M281 743c0 -6 -2 -13 -9 -19l-109 -87c-6 -4 -11 -6 -16 -6c-14 0 -25 13 -25 27c0 6 2 13 9 19l109 87c6 4 11 6 16 6c14 0 25 -13 25 -27z" />
    <glyph glyph-name="periodcentered" unicode="&#xb7;" horiz-adv-x="180" 
d="M50 390c0 22 18 40 40 40s40 -18 40 -40s-18 -40 -40 -40s-40 18 -40 40z" />
    <glyph glyph-name="ogonek" unicode="&#x2db;" horiz-adv-x="268" 
d="M103 -114c4 -28 33 -32 51 -27c20 5 36 19 46 32c6 8 16 12 23 12c13 0 28 -15 28 -30c0 -10 -6 -19 -13 -27c-21 -25 -58 -46 -96 -46c-41 0 -101 12 -101 89c0 67 75 128 123 166c20 15 40 18 50 8c13 -15 4 -30 -11 -42c-41 -35 -107 -95 -100 -135z" />
    <glyph glyph-name="cedilla" unicode="&#xb8;" horiz-adv-x="397" 
d="M265 -116c0 -43 -35 -78 -78 -78c-16 0 -25 13 -25 25s9 25 25 25c15 0 28 13 28 28s-12 27 -28 27c-24 0 -30 17 -22 41l21 55c4 10 14 20 24 20c16 0 29 -14 24 -28l-15 -45c27 -12 46 -40 46 -70z" />
    <glyph glyph-name="commaaccent" unicode="&#xf6c3;" horiz-adv-x="210" 
d="M150 -86c0 -77 -19 -112 -71 -154c-6 -5 -12 -6 -18 -6c-16 0 -30 15 -30 31c0 8 4 16 13 23c31 29 46 39 46 106c0 20 15 30 30 30s30 -10 30 -30z" />
    <glyph glyph-name="asciicircum" unicode="^" horiz-adv-x="535" 
d="M475 419c0 -17 -16 -29 -32 -29c-9 0 -19 4 -25 16l-151 281l-150 -281c-6 -12 -16 -16 -26 -16c-15 0 -31 12 -31 29c0 5 1 10 4 15l177 330c7 13 17 20 26 20c10 0 20 -7 27 -20l177 -330c3 -5 4 -10 4 -15z" />
    <glyph glyph-name="asciitilde" unicode="~" horiz-adv-x="476" 
d="M426 469c0 -4 -1 -8 -3 -12c0 0 -2 -5 -6 -13c-24 -40 -67 -62 -114 -62c-68 0 -81 56 -130 56c-26 0 -53 -18 -66 -41c-6 -11 -15 -15 -25 -15c-16 0 -32 13 -32 29c0 5 2 10 5 16c0 0 3 5 8 12c26 34 66 59 110 59c77 0 88 -56 130 -56c26 0 54 12 64 37
c6 13 17 19 28 19c15 0 31 -12 31 -29z" />
    <glyph glyph-name="hyphen" unicode="-" horiz-adv-x="380" 
d="M330 389c0 -15 -10 -30 -30 -30h-220c-20 0 -30 15 -30 30s10 30 30 30h220c20 0 30 -15 30 -30z" />
    <glyph glyph-name="endash" unicode="&#x2013;" horiz-adv-x="466" 
d="M416 389c0 -15 -10 -30 -30 -30h-306c-20 0 -30 15 -30 30s10 30 30 30h306c20 0 30 -15 30 -30z" />
    <glyph glyph-name="emdash" unicode="&#x2014;" horiz-adv-x="772" 
d="M722 389c0 -15 -10 -30 -30 -30h-612c-20 0 -30 15 -30 30s10 30 30 30h612c20 0 30 -15 30 -30z" />
    <glyph glyph-name="underscore" unicode="_" horiz-adv-x="500" 
d="M520 -170c0 -14 -10 -30 -30 -30h-480c-20 0 -30 16 -30 30s10 30 30 30h480c20 0 30 -16 30 -30z" />
    <glyph glyph-name="comma" unicode="," horiz-adv-x="210" 
d="M150 49c0 -77 -36 -176 -102 -224c-6 -5 -12 -6 -18 -6c-16 0 -30 15 -30 31c0 8 4 16 13 23c0 0 4 3 10 10c44 43 67 104 67 166c0 20 15 30 30 30s30 -10 30 -30z" />
    <glyph glyph-name="period" unicode="." horiz-adv-x="180" 
d="M50 40c0 22 18 40 40 40s40 -18 40 -40s-18 -40 -40 -40s-40 18 -40 40z" />
    <glyph glyph-name="colon" unicode=":" horiz-adv-x="180" 
d="M50 40c0 22 18 40 40 40s40 -18 40 -40s-18 -40 -40 -40s-40 18 -40 40zM50 515c0 22 18 40 40 40s40 -18 40 -40s-18 -40 -40 -40s-40 18 -40 40z" />
    <glyph glyph-name="semicolon" unicode=";" horiz-adv-x="210" 
d="M150 49c0 -77 -36 -176 -102 -224c-6 -5 -12 -6 -18 -6c-16 0 -30 15 -30 31c0 8 4 16 13 23c0 0 4 3 10 10c44 43 67 104 67 166c0 20 15 30 30 30s30 -10 30 -30zM80 515c0 22 18 40 40 40s40 -18 40 -40s-18 -40 -40 -40s-40 18 -40 40z" />
    <glyph glyph-name="quoteleft" unicode="&#x2018;" horiz-adv-x="220" 
d="M190 749c0 -8 -3 -17 -12 -24c0 0 -4 -3 -11 -9c-44 -44 -67 -105 -67 -166c0 -20 -15 -30 -30 -30s-30 10 -30 30c0 77 37 175 102 224c6 4 12 6 18 6c17 0 30 -15 30 -31z" />
    <glyph glyph-name="quoteright" unicode="&#x2019;" horiz-adv-x="220" 
d="M180 750c0 -77 -36 -176 -102 -224c-6 -5 -12 -6 -18 -6c-16 0 -30 15 -30 31c0 8 4 16 13 23c0 0 4 3 10 10c44 43 67 104 67 166c0 20 15 30 30 30s30 -10 30 -30z" />
    <glyph glyph-name="quotedbl" unicode="&#x22;" horiz-adv-x="311" 
d="M251 590c0 -20 -15 -30 -30 -30s-30 10 -30 30v160c0 20 15 30 30 30s30 -10 30 -30v-160zM120 590c0 -20 -15 -30 -30 -30s-30 10 -30 30v160c0 20 15 30 30 30s30 -10 30 -30v-160z" />
    <glyph glyph-name="quotesingle" unicode="'" horiz-adv-x="180" 
d="M120 590c0 -20 -15 -30 -30 -30s-30 10 -30 30v160c0 20 15 30 30 30s30 -10 30 -30v-160z" />
    <glyph glyph-name="quotesinglbase" unicode="&#x201a;" horiz-adv-x="210" 
d="M150 49c0 -77 -36 -176 -102 -224c-6 -5 -12 -6 -18 -6c-16 0 -30 15 -30 31c0 8 4 16 13 23c0 0 4 3 10 10c44 43 67 104 67 166c0 20 15 30 30 30s30 -10 30 -30z" />
    <glyph glyph-name="quotedblleft" unicode="&#x201c;" horiz-adv-x="372" 
d="M342 749c0 -8 -4 -17 -13 -24c0 0 -4 -3 -10 -9c-44 -44 -67 -105 -67 -166c0 -20 -15 -30 -30 -30s-30 10 -30 30c0 77 36 175 102 224c6 4 12 6 18 6c16 0 30 -15 30 -31zM190 749c0 -8 -3 -17 -12 -24c0 0 -4 -3 -11 -9c-44 -44 -67 -105 -67 -166
c0 -20 -15 -30 -30 -30s-30 10 -30 30c0 77 37 175 102 224c6 4 12 6 18 6c17 0 30 -15 30 -31z" />
    <glyph glyph-name="quotedblright" unicode="&#x201d;" horiz-adv-x="372" 
d="M332 750c0 -77 -37 -176 -102 -224c-6 -5 -12 -6 -18 -6c-17 0 -30 15 -30 31c0 8 3 16 12 23c0 0 4 3 11 10c44 43 67 104 67 166c0 20 15 30 30 30s30 -10 30 -30zM180 750c0 -77 -36 -176 -102 -224c-6 -5 -12 -6 -18 -6c-16 0 -30 15 -30 31c0 8 4 16 13 23
c0 0 4 3 10 10c44 43 67 104 67 166c0 20 15 30 30 30s30 -10 30 -30z" />
    <glyph glyph-name="quotedblbase" unicode="&#x201e;" horiz-adv-x="358" 
d="M150 49c0 -77 -36 -176 -102 -224c-6 -5 -12 -6 -18 -6c-16 0 -30 15 -30 31c0 8 4 16 13 23c0 0 4 3 10 10c44 43 67 104 67 166c0 20 15 30 30 30s30 -10 30 -30zM298 49c0 -77 -36 -176 -102 -224c-6 -5 -12 -6 -18 -6c-16 0 -30 15 -30 31c0 8 4 16 13 23
c0 0 4 3 10 10c44 43 67 104 67 166c0 20 15 30 30 30s30 -10 30 -30z" />
    <glyph glyph-name="bullet" unicode="&#x2022;" horiz-adv-x="379" 
d="M319 366c0 -72 -58 -130 -129 -130c-72 0 -130 58 -130 129c0 72 58 130 129 130c72 0 130 -58 130 -129z" />
    <glyph glyph-name="ellipsis" unicode="&#x2026;" horiz-adv-x="540" 
d="M50 40c0 22 18 40 40 40s40 -18 40 -40s-18 -40 -40 -40s-40 18 -40 40zM230 40c0 22 18 40 40 40s40 -18 40 -40s-18 -40 -40 -40s-40 18 -40 40zM410 40c0 22 18 40 40 40s40 -18 40 -40s-18 -40 -40 -40s-40 18 -40 40z" />
    <glyph glyph-name="fraction" unicode="&#x2044;" horiz-adv-x="678" 
d="M628 750c0 -5 -2 -11 -6 -17l-517 -728c-7 -10 -15 -13 -24 -13c-16 0 -31 13 -31 30c0 5 2 11 6 17l517 728c7 10 15 13 24 13c16 0 31 -13 31 -30z" />
    <glyph glyph-name="infinity" unicode="&#x221e;" horiz-adv-x="935" 
d="M885 388c0 -114 -89 -193 -198 -193c-107 0 -168 67 -220 141c-51 -74 -111 -141 -219 -141c-109 0 -198 79 -198 193c0 112 89 193 198 193c107 0 167 -67 219 -140c52 73 112 140 220 140c109 0 198 -81 198 -193zM825 388c0 76 -59 133 -138 133
c-86 0 -135 -62 -184 -133c49 -70 98 -133 184 -133c79 0 138 55 138 133zM431 388c-48 70 -98 133 -183 133c-79 0 -138 -57 -138 -133c0 -78 59 -133 138 -133c86 0 135 63 183 133z" />
    <glyph glyph-name="arrowleft" unicode="&#x2190;" horiz-adv-x="796" 
d="M746 359c0 -15 -10 -30 -30 -30h-584l238 -238c7 -6 10 -14 10 -21c0 -16 -15 -31 -31 -31c-7 0 -15 3 -21 10l-285 285c-9 5 -13 15 -13 25s4 20 13 25l285 285c6 7 14 10 21 10c16 0 31 -15 31 -31c0 -7 -3 -15 -10 -21l-238 -238h584c20 0 30 -15 30 -30z" />
    <glyph glyph-name="arrowup" unicode="&#x2191;" horiz-adv-x="739" 
d="M689 428c0 -16 -15 -31 -31 -31c-7 0 -14 3 -21 10l-237 238v-584c0 -20 -15 -30 -30 -30s-30 10 -30 30v584l-238 -238c-7 -7 -14 -10 -21 -10c-16 0 -31 15 -31 31c0 7 3 15 9 21l285 285c6 9 16 13 26 13c9 0 19 -4 25 -13l285 -285c6 -6 9 -14 9 -21z" />
    <glyph glyph-name="arrowright" unicode="&#x2192;" horiz-adv-x="796" 
d="M766 359c0 -10 -4 -20 -13 -25l-285 -285c-6 -7 -14 -10 -21 -10c-16 0 -31 15 -31 31c0 7 3 15 10 21l238 238h-584c-20 0 -30 15 -30 30s10 30 30 30h584l-238 238c-7 6 -10 14 -10 21c0 16 15 31 31 31c7 0 15 -3 21 -10l285 -285c9 -5 13 -15 13 -25z" />
    <glyph glyph-name="arrowdown" unicode="&#x2193;" horiz-adv-x="739" 
d="M689 350c0 -7 -3 -15 -9 -21l-285 -285c-6 -9 -16 -13 -25 -13c-10 0 -20 4 -26 13l-285 285c-6 6 -9 14 -9 21c0 16 15 31 31 31c7 0 14 -3 21 -10l238 -238v584c0 20 15 30 30 30s30 -10 30 -30v-584l237 238c7 7 14 10 21 10c16 0 31 -15 31 -31z" />
    <glyph glyph-name="apple" unicode="&#xf8ff;" horiz-adv-x="858" 
d="M436 588c15 0 39 6 72 17s62 17 87 17c40 0 76 -11 107 -32c17 -13 35 -29 52 -50c-26 -23 -45 -43 -57 -60c-22 -31 -33 -65 -33 -103c0 -41 11 -79 34 -112s50 -54 80 -63c-13 -40 -33 -82 -62 -125c-43 -65 -86 -98 -129 -98c-17 0 -40 5 -70 16c-29 11 -54 16 -75 16
s-45 -6 -72 -17s-49 -17 -66 -17c-51 0 -101 43 -150 130c-49 85 -74 169 -74 252c0 77 19 139 56 187c38 48 86 72 143 72c24 0 53 -5 88 -15s58 -15 69 -15zM589 790c0 -43 -18 -95 -61 -138c-18 -18 -36 -30 -54 -36c-11 -3 -29 -6 -52 -8c1 99 48 176 164 203
c3 -9 3 -16 3 -21z" />
    <glyph glyph-name="madslug" unicode="&#xf800;" horiz-adv-x="896" 
d="M650 51c-59 -37 -129 -60 -203 -60c-203 0 -367 165 -367 370c0 133 74 250 135 250c31 0 48 -19 48 -51c0 -56 -59 -281 -59 -295c0 -8 8 -11 17 -11c22 0 94 15 100 26c2 10 59 249 59 307c0 57 -52 82 -113 82c-7 0 -19 -2 -19 -2l-2 3c58 37 126 60 201 60
c205 0 369 -165 369 -370c0 -133 -74 -250 -135 -250c-31 0 -48 19 -48 51c0 56 59 281 59 294c0 9 -8 12 -17 12c-22 0 -94 -15 -100 -26c-2 -10 -59 -249 -59 -307c0 -57 52 -82 113 -82c7 0 19 1 19 1zM476 234c4 20 57 249 57 268c0 7 -6 9 -16 9c-20 0 -78 -9 -97 -24
c-4 -20 -57 -249 -57 -268c0 -7 6 -10 16 -10c20 0 78 10 97 25z" />
    <glyph glyph-name="space" unicode=" " horiz-adv-x="240" 
 />
    <glyph glyph-name="uni00A0" unicode="&#xa0;" horiz-adv-x="240" 
 />
    </font>
</defs>
</svg>
