<?xml version="1.0" standalone="no"?>
<!DOCTYPE svg PUBLIC "-//W3C//DTD SVG 1.1//EN" "http://www.w3.org/Graphics/SVG/1.1/DTD/svg11.dtd" >
<svg xmlns="http://www.w3.org/2000/svg" xmlns:xlink="http://www.w3.org/1999/xlink" version="1.1">
<metadata>
Created by FontForge 20170104 at Wed Mar 31 12:13:51 2010
 By myTaste
Copyright (c) Matthew Desmond, 2010. All rights reserved.
</metadata>
<defs>
<font id="Variable-Light" horiz-adv-x="490" >
  <font-face 
    font-family="Variable Light"
    font-weight="400"
    font-stretch="normal"
    units-per-em="1000"
    panose-1="2 0 5 6 2 0 0 2 0 3"
    ascent="740"
    descent="-260"
    x-height="505"
    cap-height="740"
    bbox="-63 -243 1158 1109"
    underline-thickness="20"
    underline-position="-200"
    unicode-range="U+0020-F8FF"
  />
<missing-glyph horiz-adv-x="240" 
 />
    <glyph glyph-name=".notdef" horiz-adv-x="240" 
 />
    <glyph glyph-name="exclam" unicode="!" horiz-adv-x="160" 
d="M90 255c0 -7 -5 -10 -10 -10s-10 3 -10 10v475c0 7 5 10 10 10s10 -3 10 -10v-475zM61 19c0 10 9 19 19 19s19 -9 19 -19s-9 -19 -19 -19s-19 9 -19 19z" />
    <glyph glyph-name="exclamdown" unicode="&#xa1;" horiz-adv-x="140" 
d="M80 -190c0 -7 -5 -10 -10 -10s-10 3 -10 10v475c0 7 5 10 10 10s10 -3 10 -10v-475zM51 521c0 10 9 19 19 19s19 -9 19 -19s-9 -19 -19 -19s-19 9 -19 19z" />
    <glyph glyph-name="question" unicode="?" horiz-adv-x="450" 
d="M390 589c0 -144 -133 -187 -195 -294c-15 -26 -20 -43 -20 -43c-1 -5 -6 -7 -10 -7c-5 0 -10 4 -10 10v3c41 136 215 184 215 331c0 85 -54 141 -149 141c-64 0 -127 -40 -152 -99c-2 -4 -5 -6 -9 -6c-5 0 -10 4 -10 10c0 1 0 3 1 4c0 0 3 7 9 18c35 57 92 93 161 93
c105 0 169 -64 169 -161zM136 19c0 10 9 19 19 19s19 -9 19 -19s-9 -19 -19 -19s-19 9 -19 19z" />
    <glyph glyph-name="questiondown" unicode="&#xbf;" horiz-adv-x="430" 
d="M390 -95c0 -1 0 -3 -1 -4c0 0 -3 -7 -9 -18c-35 -57 -92 -93 -161 -93c-105 0 -169 64 -169 161c0 144 133 187 195 294c15 26 20 43 20 43c1 5 6 7 10 7c5 0 10 -4 10 -10v-3c-41 -136 -215 -184 -215 -331c0 -85 54 -141 149 -141c64 0 127 40 152 99c2 4 5 6 9 6
c5 0 10 -4 10 -10zM256 521c0 10 9 19 19 19s19 -9 19 -19s-9 -19 -19 -19s-19 9 -19 19z" />
    <glyph glyph-name="numbersign" unicode="#" horiz-adv-x="706" 
d="M686 493c0 -5 -3 -10 -10 -10h-178l-24 -226h176c7 0 10 -5 10 -10s-3 -10 -10 -10h-178l-24 -228c-1 -6 -5 -9 -10 -9s-10 3 -10 10v1l24 226h-226l-24 -228c-1 -6 -5 -9 -10 -9s-10 3 -10 10v1l24 226h-176c-7 0 -10 5 -10 10s3 10 10 10h178l24 226h-176
c-7 0 -10 5 -10 10s3 10 10 10h178l24 228c0 6 5 9 10 9s10 -3 10 -10v-1l-24 -226h226l24 228c0 6 5 9 10 9s10 -3 10 -10v-1l-24 -226h176c7 0 10 -5 10 -10zM478 483h-226l-24 -226h226z" />
    <glyph glyph-name="dollar" unicode="$" horiz-adv-x="550" 
d="M490 181c0 -107 -89 -179 -205 -190v-82c0 -7 -5 -10 -10 -10s-10 3 -10 10v81h-10c-133 0 -192 84 -193 85c-1 2 -2 4 -2 6c0 6 5 10 10 10c3 0 6 -1 8 -4c0 0 3 -5 10 -12c43 -45 106 -65 167 -65h10v369c-100 38 -200 77 -200 194c0 111 95 177 200 177v79
c0 7 5 10 10 10s10 -3 10 -10v-80c67 -6 141 -43 181 -97c2 -2 2 -4 2 -6c0 -5 -5 -10 -10 -10c-3 0 -6 1 -8 4c0 0 -4 6 -12 14c-41 42 -95 70 -153 75v-336c102 -39 205 -82 205 -212zM265 401v329c-97 0 -180 -60 -180 -157c0 -100 87 -137 180 -172zM470 181
c0 113 -90 154 -185 190v-360c108 11 185 78 185 170z" />
    <glyph glyph-name="percent" unicode="%" horiz-adv-x="797" 
d="M352 599c0 -83 -68 -151 -151 -151s-151 68 -151 151s68 151 151 151s151 -68 151 -151zM332 599c0 72 -59 131 -131 131s-131 -59 -131 -131s59 -131 131 -131s131 59 131 131zM653 719c0 -2 -1 -4 -2 -6l-496 -707c-2 -3 -5 -4 -8 -4c-5 0 -10 4 -10 10c0 2 1 4 2 6
l496 707c2 3 5 4 8 4c5 0 10 -4 10 -10zM747 141c0 -83 -68 -151 -151 -151s-151 68 -151 151s68 151 151 151s151 -68 151 -151zM727 141c0 72 -59 131 -131 131s-131 -59 -131 -131s59 -131 131 -131s131 59 131 131z" />
    <glyph glyph-name="perthousand" unicode="&#x2030;" horiz-adv-x="1208" 
d="M1158 141c0 -83 -68 -151 -151 -151s-151 68 -151 151s68 151 151 151s151 -68 151 -151zM352 599c0 -83 -68 -151 -151 -151s-151 68 -151 151s68 151 151 151s151 -68 151 -151zM653 719c0 -2 -1 -4 -2 -6l-496 -707c-2 -3 -5 -4 -8 -4c-5 0 -10 4 -10 10c0 2 1 4 2 6
l496 707c2 3 5 4 8 4c5 0 10 -4 10 -10zM747 141c0 -83 -68 -151 -151 -151s-151 68 -151 151s68 151 151 151s151 -68 151 -151zM1138 141c0 72 -59 131 -131 131s-131 -59 -131 -131s59 -131 131 -131s131 59 131 131zM332 599c0 72 -59 131 -131 131s-131 -59 -131 -131
s59 -131 131 -131s131 59 131 131zM727 141c0 72 -59 131 -131 131s-131 -59 -131 -131s59 -131 131 -131s131 59 131 131z" />
    <glyph glyph-name="ampersand" unicode="&#x26;" horiz-adv-x="578" 
d="M553 9c0 -5 -6 -11 -11 -11c-3 0 -5 1 -7 4l-80 95c-40 -60 -98 -107 -176 -107c-121 0 -214 83 -214 204c0 103 63 159 132 206l-25 29c-38 45 -69 102 -69 149c0 93 55 172 152 172c75 0 142 -62 142 -142c0 -109 -88 -158 -170 -212l225 -265c35 61 49 122 49 124
c1 5 6 8 10 8c5 0 10 -3 10 -9v-3c0 0 -4 -17 -12 -41c-11 -32 -25 -65 -43 -96l84 -99c2 -2 3 -4 3 -6zM377 608c0 68 -57 122 -122 122c-82 0 -132 -66 -132 -152c0 -40 27 -91 64 -135l27 -32c80 53 163 99 163 197zM441 113l-231 272c-67 -45 -125 -97 -125 -191
c0 -109 83 -184 194 -184c75 0 127 49 162 103z" />
    <glyph glyph-name="parenleft" unicode="(" horiz-adv-x="243" 
d="M193 -170c0 -6 -5 -10 -10 -10c-3 0 -6 1 -8 4c-1 1 -125 163 -125 461s124 460 125 461c2 3 5 4 8 4c5 0 10 -4 10 -10c0 -2 -1 -4 -2 -6c0 0 -8 -10 -19 -29c-72 -123 -102 -279 -102 -420s30 -297 102 -420c11 -19 19 -29 19 -29c1 -2 2 -4 2 -6z" />
    <glyph glyph-name="parenright" unicode=")" horiz-adv-x="243" 
d="M193 285c0 -298 -124 -460 -125 -461c-2 -3 -5 -4 -8 -4c-5 0 -10 4 -10 10c0 2 1 4 2 6c0 0 8 10 19 29c72 123 102 279 102 420s-30 297 -102 420c-11 19 -19 29 -19 29c-1 2 -2 4 -2 6c0 6 5 10 10 10c3 0 6 -1 8 -4c1 -1 125 -163 125 -461z" />
    <glyph glyph-name="bracketleft" unicode="[" horiz-adv-x="273" 
d="M243 -180c0 -5 -3 -10 -10 -10h-163c-5 0 -10 5 -10 10v920c0 5 5 10 10 10h163c7 0 10 -5 10 -10s-3 -10 -10 -10h-153v-900h153c7 0 10 -5 10 -10z" />
    <glyph glyph-name="bracketright" unicode="]" horiz-adv-x="273" 
d="M213 -180c0 -5 -5 -10 -10 -10h-163c-7 0 -10 5 -10 10s3 10 10 10h153v900h-153c-7 0 -10 5 -10 10s3 10 10 10h163c5 0 10 -5 10 -10v-920z" />
    <glyph glyph-name="braceleft" unicode="{" horiz-adv-x="336" 
d="M306 -171c0 -5 -3 -10 -10 -10h-53c-67 0 -120 56 -120 123v230c0 57 -46 103 -103 103c-7 0 -10 5 -10 10s3 10 10 10c57 0 103 45 103 102v231c0 68 54 122 122 122h51c7 0 10 -5 10 -10s-3 -10 -10 -10h-51c-57 0 -102 -45 -102 -102v-231c0 -50 -30 -93 -74 -112
c44 -19 74 -63 74 -113v-230c0 -56 44 -103 100 -103h53c7 0 10 -5 10 -10z" />
    <glyph glyph-name="braceright" unicode="}" horiz-adv-x="336" 
d="M326 285c0 -5 -3 -10 -10 -10c-57 0 -103 -46 -103 -103v-230c0 -67 -53 -123 -120 -123h-53c-7 0 -10 5 -10 10s3 10 10 10h53c56 0 100 47 100 103v230c0 50 30 94 74 113c-44 19 -74 62 -74 112v231c0 57 -45 102 -102 102h-51c-7 0 -10 5 -10 10s3 10 10 10h51
c68 0 122 -54 122 -122v-231c0 -57 46 -102 103 -102c7 0 10 -5 10 -10z" />
    <glyph glyph-name="less" unicode="&#x3c;" horiz-adv-x="479" 
d="M419 30c0 -5 -5 -10 -10 -10c-2 0 -5 1 -7 3l-369 333c-2 2 -3 4 -3 7s1 5 3 7l369 333c2 2 5 3 7 3c5 0 10 -5 10 -10c0 -2 -1 -5 -3 -7l-361 -326l361 -326c2 -2 3 -5 3 -7z" />
    <glyph glyph-name="greater" unicode="&#x3e;" horiz-adv-x="479" 
d="M449 363c0 -3 -1 -5 -3 -7l-369 -333c-2 -2 -5 -3 -7 -3c-5 0 -10 5 -10 10c0 2 1 5 3 7l361 326l-361 326c-2 2 -3 5 -3 7c0 5 5 10 10 10c2 0 5 -1 7 -3l369 -333c2 -2 3 -4 3 -7z" />
    <glyph glyph-name="asterisk" unicode="*" horiz-adv-x="532" 
d="M482 374c0 -5 -5 -10 -10 -10c-2 0 -4 0 -6 1l-190 110v-220c0 -7 -5 -10 -10 -10s-10 3 -10 10v220l-191 -110c-2 -1 -3 -1 -5 -1c-6 0 -10 5 -10 10c0 3 2 6 5 8l191 110l-191 111c-3 2 -5 5 -5 8c0 5 4 10 10 10c2 0 3 0 5 -1l191 -110v220c0 7 5 10 10 10
s10 -3 10 -10v-220l190 110c2 1 4 1 6 1c5 0 10 -5 10 -10c0 -3 -2 -6 -6 -8l-190 -110l190 -111c4 -2 6 -5 6 -8z" />
    <glyph glyph-name="plus" unicode="+" horiz-adv-x="680" 
d="M660 360c0 -5 -3 -10 -10 -10h-300v-300c0 -7 -5 -10 -10 -10s-10 3 -10 10v300h-300c-7 0 -10 5 -10 10s3 10 10 10h300v300c0 7 5 10 10 10s10 -3 10 -10v-300h300c7 0 10 -5 10 -10z" />
    <glyph glyph-name="plusminus" unicode="&#xb1;" horiz-adv-x="680" 
d="M653 0h-620c-7 0 -10 5 -10 10s3 10 10 10h620c7 0 10 -5 10 -10s-3 -10 -10 -10zM660 360c0 -5 -3 -10 -10 -10h-300v-290c0 -7 -5 -10 -10 -10s-10 3 -10 10v290h-300c-7 0 -10 5 -10 10s3 10 10 10h300v300c0 7 5 10 10 10s10 -3 10 -10v-300h300c7 0 10 -5 10 -10z
" />
    <glyph glyph-name="minus" unicode="&#x2212;" horiz-adv-x="600" 
d="M550 360c0 -5 -3 -10 -10 -10h-480c-7 0 -10 5 -10 10s3 10 10 10h480c7 0 10 -5 10 -10z" />
    <glyph glyph-name="multiply" unicode="&#xd7;" horiz-adv-x="579" 
d="M539 101c0 -5 -6 -10 -11 -10c-2 0 -5 1 -7 3l-231 251l-232 -251c-2 -2 -6 -3 -8 -3c-5 0 -10 5 -10 10c0 2 1 5 3 7l233 252l-233 252c-2 2 -3 5 -3 7c0 5 5 10 10 10c2 0 6 -1 8 -3l231 -251l232 251c2 2 5 3 7 3c5 0 11 -5 11 -10c0 -2 -1 -5 -3 -7l-233 -252
l233 -252c2 -2 3 -5 3 -7z" />
    <glyph glyph-name="divide" unicode="&#xf7;" horiz-adv-x="600" 
d="M550 363c0 -5 -3 -10 -10 -10h-480c-7 0 -10 5 -10 10s3 10 10 10h480c7 0 10 -5 10 -10zM281 159c0 10 9 19 19 19s19 -9 19 -19s-9 -19 -19 -19s-19 9 -19 19zM281 567c0 10 9 19 19 19s19 -9 19 -19s-9 -19 -19 -19s-19 9 -19 19z" />
    <glyph glyph-name="equal" unicode="=" horiz-adv-x="600" 
d="M550 470c0 -5 -3 -10 -10 -10h-480c-7 0 -10 5 -10 10s3 10 10 10h480c7 0 10 -5 10 -10zM550 250c0 -5 -3 -10 -10 -10h-480c-7 0 -10 5 -10 10s3 10 10 10h480c7 0 10 -5 10 -10z" />
    <glyph glyph-name="approxequal" unicode="&#x2248;" horiz-adv-x="591" 
d="M541 463c0 -2 -1 -4 -3 -6c0 0 0 -1 -2 -3c-33 -38 -94 -52 -142 -52c-77 0 -117 51 -197 51c-43 0 -98 -17 -130 -48c-2 -2 -5 -3 -7 -3c-5 0 -10 5 -10 10c0 2 1 5 3 7c1 1 56 54 144 54s121 -51 197 -51c42 0 98 11 127 45l1 2c2 3 5 4 8 4c5 0 11 -5 11 -10zM541 292
c0 -2 -1 -4 -3 -6c0 0 0 -1 -2 -3c-34 -38 -94 -51 -142 -51c-77 0 -117 50 -197 50c-43 0 -98 -16 -130 -47c-2 -2 -5 -3 -7 -3c-5 0 -10 5 -10 10c0 2 1 5 3 7c1 1 56 53 144 53c86 0 122 -50 197 -50c41 0 98 10 127 44l1 2c2 3 5 4 8 4c5 0 11 -5 11 -10z" />
    <glyph glyph-name="notequal" unicode="&#x2260;" horiz-adv-x="600" 
d="M550 250c0 -5 -3 -10 -10 -10h-347l-126 -125c-2 -2 -5 -3 -7 -3c-5 0 -10 5 -10 10c0 2 1 5 3 7l112 111h-105c-7 0 -10 5 -10 10s3 10 10 10h125l202 200h-327c-7 0 -10 5 -10 10s3 10 10 10h347l126 125c2 2 5 3 7 3c5 0 10 -5 10 -10c0 -2 -1 -5 -3 -7l-112 -111h105
c7 0 10 -5 10 -10s-3 -10 -10 -10h-125l-202 -200h327c7 0 10 -5 10 -10z" />
    <glyph glyph-name="backslash" unicode="\" horiz-adv-x="296" 
d="M276 -108c0 -6 -5 -10 -10 -10c-4 0 -9 2 -10 7l-236 828v3c0 6 5 10 10 10c4 0 9 -2 10 -7l236 -828v-3z" />
    <glyph glyph-name="slash" unicode="/" horiz-adv-x="296" 
d="M276 717l-236 -828c-1 -5 -6 -7 -10 -7c-5 0 -10 4 -10 10v3l236 828c1 5 6 7 10 7c5 0 10 -4 10 -10v-3z" />
    <glyph glyph-name="zero" unicode="0" horiz-adv-x="536" 
d="M476 198c0 -115 -93 -208 -208 -208s-208 93 -208 208v344c0 115 93 208 208 208s208 -93 208 -208v-344zM456 198v344c0 104 -84 188 -188 188s-188 -84 -188 -188v-344c0 -104 84 -188 188 -188s188 84 188 188z" />
    <glyph glyph-name="one" unicode="1" horiz-adv-x="536" 
d="M506 10c0 -5 -3 -10 -10 -10h-396c-7 0 -10 5 -10 10s3 10 10 10h188v694l-162 -89c-1 -1 -3 -1 -4 -1c-6 0 -10 5 -10 10c0 4 2 7 6 9l166 94c5 3 10 5 14 5c6 0 10 -5 10 -12v-710h188c7 0 10 -5 10 -10z" />
    <glyph glyph-name="two" unicode="2" horiz-adv-x="536" 
d="M466 10c0 -5 -3 -10 -10 -10h-395c-7 0 -11 3 -11 8c0 2 1 5 3 8l280 354c52 66 98 118 98 209c0 87 -73 151 -169 151c-85 0 -141 -60 -163 -91c-2 -3 -5 -4 -8 -4c-5 0 -10 5 -10 10c0 2 1 4 2 6c42 59 112 99 179 99c104 0 189 -70 189 -171c0 -96 -47 -151 -102 -221
l-267 -338h374c7 0 10 -5 10 -10z" />
    <glyph glyph-name="three" unicode="3" horiz-adv-x="536" 
d="M453 188c0 -116 -94 -198 -208 -198c-69 0 -141 42 -174 103c-1 2 -1 3 -1 5c0 5 5 10 10 10c3 0 7 -1 9 -5c0 0 3 -5 9 -14c35 -47 87 -79 147 -79c105 0 188 75 188 178v1c0 103 -83 178 -188 178c-7 0 -10 5 -10 10s3 10 10 10c104 0 178 69 178 172v1
c0 103 -73 168 -178 168c-62 0 -126 -39 -156 -93c-2 -4 -5 -5 -8 -5c-5 0 -11 4 -11 10c0 2 0 3 1 5c33 61 105 103 174 103c114 0 198 -72 198 -188v-1c0 -91 -52 -158 -130 -182c81 -25 140 -96 140 -188v-1z" />
    <glyph glyph-name="four" unicode="4" horiz-adv-x="536" 
d="M491 208c0 -6 -4 -10 -10 -10h-87v-188c0 -6 -4 -10 -10 -10s-10 4 -10 10v188h-319c-5 0 -10 3 -10 9c0 1 1 3 1 4c11 36 29 72 45 106c73 151 171 298 286 420c2 2 5 4 8 4c6 0 9 -6 9 -11v-512h87c6 0 10 -4 10 -10zM374 218v486c-124 -137 -238 -313 -305 -486h305z
" />
    <glyph glyph-name="five" unicode="5" horiz-adv-x="536" 
d="M476 198c0 -115 -93 -208 -208 -208s-208 93 -208 208c0 7 5 10 10 10s10 -3 10 -10c0 -104 84 -188 188 -188s188 84 188 188v79c0 104 -84 188 -188 188c-55 0 -128 -20 -171 -58c-3 -3 -6 -4 -9 -4c-5 0 -8 4 -8 10v3l50 316c1 4 6 8 10 8h303c7 0 10 -5 10 -10
s-3 -10 -10 -10h-294l-45 -284c48 32 106 49 164 49c115 0 208 -93 208 -208v-79z" />
    <glyph glyph-name="six" unicode="6" horiz-adv-x="536" 
d="M486 198c0 -115 -93 -208 -208 -208s-208 93 -208 208v79c0 420 306 473 307 473h2c7 0 10 -5 10 -10s-3 -9 -8 -10c0 0 -18 -3 -45 -14c-146 -58 -217 -189 -239 -336c36 63 104 105 181 105c115 0 208 -93 208 -208v-79zM466 198v79c0 104 -84 188 -188 188
s-188 -84 -188 -188v-79c0 -104 84 -188 188 -188s188 84 188 188z" />
    <glyph glyph-name="seven" unicode="7" horiz-adv-x="536" 
d="M476 730v-1s-12 -87 -49 -221s-100 -315 -202 -503c-2 -4 -5 -5 -8 -5c-5 0 -11 4 -11 10c0 2 0 3 1 5c113 208 209 468 247 705h-404c-7 0 -10 5 -10 10s3 10 10 10h416c6 0 10 -4 10 -9v-1z" />
    <glyph glyph-name="eight" unicode="8" horiz-adv-x="536" 
d="M466 180c0 -107 -88 -188 -198 -188c-108 0 -198 82 -198 188c0 114 89 163 177 209c-79 42 -152 91 -152 193c0 100 74 168 173 168c101 0 173 -68 173 -168c0 -102 -73 -151 -152 -193c88 -46 177 -95 177 -209zM421 582c0 88 -62 148 -153 148
c-89 0 -153 -60 -153 -148c0 -96 73 -140 153 -182c80 42 153 86 153 182zM446 180c0 107 -89 151 -178 197c-89 -46 -178 -90 -178 -197c0 -94 80 -168 178 -168c100 0 178 73 178 168z" />
    <glyph glyph-name="nine" unicode="9" horiz-adv-x="536" 
d="M466 463c0 -420 -306 -473 -307 -473h-2c-7 0 -10 5 -10 10s3 9 8 10c0 0 18 3 45 14c146 58 217 189 239 336c-36 -63 -104 -105 -181 -105c-115 0 -208 93 -208 208v79c0 115 93 208 208 208s208 -93 208 -208v-79zM446 463v79c0 104 -84 188 -188 188
s-188 -84 -188 -188v-79c0 -104 84 -188 188 -188s188 84 188 188z" />
    <glyph glyph-name="at" unicode="@" horiz-adv-x="832" 
d="M772 158c0 -67 -45 -133 -117 -133c-68 0 -110 43 -110 111v7c-34 -55 -96 -93 -163 -93c-89 0 -159 68 -159 158c0 56 13 126 19 183c10 96 95 174 192 174c67 0 123 -39 147 -96l7 67c1 5 5 9 10 9c6 0 11 -5 10 -11l-41 -387c-5 -57 28 -102 88 -102s97 58 97 113v233
c0 186 -145 339 -333 339c-187 0 -339 -152 -339 -339v-172c0 -187 152 -339 339 -339c53 0 97 11 143 36c2 1 3 2 5 2c6 0 10 -5 10 -11c0 -3 -2 -6 -5 -8c-44 -28 -101 -39 -153 -39c-198 0 -359 161 -359 359v172c0 198 161 359 359 359c199 0 353 -162 353 -359v-233z
M572 390c9 84 -53 155 -138 155c-86 0 -163 -70 -172 -156c-6 -56 -19 -126 -19 -181c0 -79 61 -138 139 -138c84 0 162 65 171 148z" />
    <glyph glyph-name="A" unicode="A" horiz-adv-x="560" 
d="M530 8c0 -6 -5 -8 -10 -8c-4 0 -7 2 -9 7l-80 239h-302l-80 -239c-2 -5 -5 -7 -9 -7c-5 0 -10 3 -10 9c0 2 1 4 1 4l240 720c2 6 5 9 9 9s7 -3 9 -9l240 -720s1 -3 1 -5zM424 266l-144 432l-144 -432h288z" />
    <glyph glyph-name="B" unicode="B" horiz-adv-x="546" 
d="M496 198c0 -109 -89 -198 -198 -198h-208c-5 0 -10 5 -10 10v720c0 5 5 10 10 10h208c101 0 183 -81 183 -182c0 -79 -51 -148 -122 -173c79 -26 137 -99 137 -187zM461 558c0 90 -73 162 -163 162h-198v-325h198c90 0 163 73 163 163zM476 198c0 98 -80 177 -178 177
h-198v-355h198c98 0 178 80 178 178z" />
    <glyph glyph-name="C" unicode="C" horiz-adv-x="557" 
d="M507 84c0 -2 -1 -4 -3 -6c0 0 -5 -6 -14 -14c-51 -49 -121 -74 -192 -74c-131 0 -238 107 -238 238v284c0 131 107 238 238 238c69 0 160 -31 206 -88c2 -2 2 -4 2 -6c0 -5 -5 -10 -10 -10c-3 0 -6 1 -8 4c0 0 -3 5 -11 12c-48 45 -114 68 -179 68
c-120 0 -218 -98 -218 -218v-284c0 -120 98 -218 218 -218c64 0 148 27 190 80c2 3 5 4 8 4c5 0 11 -5 11 -10z" />
    <glyph glyph-name="D" unicode="D" horiz-adv-x="601" 
d="M536 238c0 -131 -107 -238 -238 -238h-208c-5 0 -10 5 -10 10v720c0 5 5 10 10 10h208c131 0 238 -107 238 -238v-264zM516 238v264c0 120 -98 218 -218 218h-198v-700h198c120 0 218 98 218 218z" />
    <glyph glyph-name="E" unicode="E" horiz-adv-x="525" 
d="M475 10c0 -5 -3 -10 -10 -10h-375c-5 0 -10 5 -10 10v720c0 5 5 10 10 10h375c7 0 10 -5 10 -10s-3 -10 -10 -10h-365v-322h335c7 0 10 -5 10 -10s-3 -10 -10 -10h-335v-358h365c7 0 10 -5 10 -10z" />
    <glyph glyph-name="F" unicode="F" horiz-adv-x="515" 
d="M475 730c0 -5 -3 -10 -10 -10h-365v-322h335c7 0 10 -5 10 -10s-3 -10 -10 -10h-335v-368c0 -6 -4 -10 -10 -10s-10 4 -10 10v720c0 5 5 10 10 10h375c7 0 10 -5 10 -10z" />
    <glyph glyph-name="G" unicode="G" horiz-adv-x="596" 
d="M536 228c0 -131 -107 -238 -238 -238s-238 107 -238 238v284c0 131 107 238 238 238c136 0 205 -87 206 -88c8 -10 -8 -23 -16 -12c0 0 -4 5 -11 12c-48 45 -114 68 -179 68c-120 0 -218 -98 -218 -218v-284c0 -120 98 -218 218 -218s218 98 218 218v128h-210
c-13 0 -13 20 0 20h220c5 0 10 -5 10 -10v-138z" />
    <glyph glyph-name="H" unicode="H" horiz-adv-x="616" 
d="M536 10c0 -7 -5 -10 -10 -10s-10 3 -10 10v370h-416v-370c0 -7 -5 -10 -10 -10s-10 3 -10 10v720c0 7 5 10 10 10s10 -3 10 -10v-330h416v330c0 7 5 10 10 10s10 -3 10 -10v-720z" />
    <glyph glyph-name="I" unicode="I" horiz-adv-x="420" 
d="M380 10c0 -5 -3 -10 -10 -10h-320c-7 0 -10 5 -10 10s3 10 10 10h150v700h-150c-7 0 -10 5 -10 10s3 10 10 10h320c7 0 10 -5 10 -10s-3 -10 -10 -10h-150v-700h150c7 0 10 -5 10 -10z" />
    <glyph glyph-name="I.alt" unicode="&#xf801;" horiz-adv-x="180" 
d="M100 730v-720c0 -7 -5 -10 -10 -10s-10 3 -10 10v720c0 7 5 10 10 10s10 -3 10 -10z" />
    <glyph glyph-name="J" unicode="J" horiz-adv-x="511" 
d="M436 228c0 -127 -87 -238 -218 -238c-123 0 -176 88 -176 89c-2 2 -2 4 -2 5c0 6 5 10 10 10c4 0 7 -1 9 -5c0 0 3 -5 9 -12c37 -44 92 -67 150 -67c117 0 198 99 198 218v492h-268c-7 0 -10 5 -10 10s3 10 10 10h278c5 0 10 -5 10 -10v-502z" />
    <glyph glyph-name="J.alt" unicode="&#xf802;" horiz-adv-x="407" 
d="M26 15c-4 2 -6 5 -6 9c0 5 4 10 9 10c3 0 5 -1 5 -1c29 -15 61 -23 95 -23c117 0 178 79 178 198v522c0 7 5 10 10 10s10 -3 10 -10v-522c0 -127 -67 -218 -198 -218c-43 0 -77 11 -103 25z" />
    <glyph glyph-name="K" unicode="K" horiz-adv-x="598" 
d="M568 10c0 -6 -5 -10 -10 -10c-3 0 -6 1 -8 4l-295 397l-155 -179v-212c0 -7 -5 -10 -10 -10s-10 3 -10 10v720c0 7 5 10 10 10s10 -3 10 -10v-477l419 484c3 2 5 3 8 3c5 0 10 -5 10 -10c0 -2 -1 -4 -2 -7l-267 -307l298 -400c2 -2 2 -4 2 -6z" />
    <glyph glyph-name="L" unicode="L" horiz-adv-x="505" 
d="M475 10c0 -6 -4 -10 -10 -10h-375c-5 0 -10 5 -10 10v720c0 6 4 10 10 10s10 -4 10 -10v-710h365c6 0 10 -4 10 -10z" />
    <glyph glyph-name="M" unicode="M" horiz-adv-x="780" 
d="M700 12c0 -7 -5 -10 -10 -10s-10 3 -10 10v668l-281 -672c-2 -5 -5 -8 -9 -8s-7 3 -9 8l-281 672v-668c0 -7 -5 -10 -10 -10s-10 3 -10 10v718c0 7 5 12 9 12s8 -3 10 -8l291 -696l291 696c2 5 6 8 10 8s9 -5 9 -12v-718z" />
    <glyph glyph-name="N" unicode="N" horiz-adv-x="616" 
d="M536 10c0 -7 -4 -12 -9 -12c-3 0 -7 2 -10 7l-417 689v-684c0 -7 -5 -10 -10 -10s-10 3 -10 10v720c0 7 4 12 9 12c3 0 7 -2 10 -7l417 -689v684c0 7 5 10 10 10s10 -3 10 -10v-720z" />
    <glyph glyph-name="O" unicode="O" horiz-adv-x="596" 
d="M536 228c0 -131 -107 -238 -238 -238s-238 107 -238 238v284c0 131 107 238 238 238s238 -107 238 -238v-284zM516 228v284c0 120 -98 218 -218 218s-218 -98 -218 -218v-284c0 -120 98 -218 218 -218s218 98 218 218z" />
    <glyph glyph-name="P" unicode="P" horiz-adv-x="537" 
d="M497 512c0 -126 -103 -229 -229 -229h-168v-273c0 -7 -5 -10 -10 -10s-10 3 -10 10v720c0 5 5 10 10 10h178c126 0 229 -102 229 -228zM477 512c0 115 -94 208 -209 208h-168v-417h168c115 0 209 94 209 209z" />
    <glyph glyph-name="Q" unicode="Q" horiz-adv-x="596" 
d="M536 228c0 -128 -101 -233 -228 -238v-40c0 -64 52 -115 115 -115c7 0 10 -5 10 -10s-3 -10 -10 -10c-74 0 -135 60 -135 135v40c-127 5 -228 110 -228 238v284c0 131 107 238 238 238s238 -107 238 -238v-284zM516 228v284c0 120 -98 218 -218 218s-218 -98 -218 -218
v-284c0 -120 98 -218 218 -218s218 98 218 218z" />
    <glyph glyph-name="Q.alt" unicode="&#xf803;" horiz-adv-x="596" 
d="M516 228v284c0 120 -98 218 -218 218s-218 -98 -218 -218v-284c0 -120 98 -218 218 -218s218 98 218 218zM288 -190v180c-127 5 -228 110 -228 238v284c0 131 107 238 238 238s238 -107 238 -238v-284c0 -128 -101 -233 -228 -238v-180c0 -6 -4 -10 -10 -10s-10 4 -10 10
z" />
    <glyph glyph-name="R" unicode="R" horiz-adv-x="548" 
d="M498 10c0 -6 -5 -10 -10 -10c-3 0 -6 2 -8 5l-178 280c-11 -2 -23 -2 -34 -2h-168v-273c0 -7 -5 -10 -10 -10s-10 3 -10 10v720c0 5 5 10 10 10h178c126 0 229 -102 229 -228c0 -107 -74 -197 -174 -222l173 -275c1 -2 2 -3 2 -5zM477 512c0 115 -94 208 -209 208h-168
v-417h168c115 0 209 94 209 209z" />
    <glyph glyph-name="S" unicode="S" horiz-adv-x="550" 
d="M490 181c0 -116 -105 -191 -235 -191c-133 0 -192 84 -193 85c-1 2 -2 4 -2 6c0 6 5 10 10 10c3 0 6 -1 8 -4c0 0 3 -5 10 -12c43 -45 106 -65 167 -65c124 0 215 70 215 171c0 239 -405 156 -405 392c0 111 95 177 200 177c72 0 157 -39 201 -98c2 -2 2 -4 2 -6
c0 -5 -5 -10 -10 -10c-3 0 -6 1 -8 4c0 0 -4 6 -12 14c-45 47 -107 76 -173 76c-97 0 -180 -60 -180 -157c0 -217 405 -135 405 -392z" />
    <glyph glyph-name="T" unicode="T" horiz-adv-x="520" 
d="M510 730c0 -5 -3 -10 -10 -10h-230v-710c0 -7 -5 -10 -10 -10s-10 3 -10 10v710h-230c-7 0 -10 5 -10 10s3 10 10 10h480c7 0 10 -5 10 -10z" />
    <glyph glyph-name="U" unicode="U" horiz-adv-x="616" 
d="M546 228c0 -131 -107 -238 -238 -238s-238 107 -238 238v502c0 7 5 10 10 10s10 -3 10 -10v-502c0 -120 98 -218 218 -218s218 98 218 218v502c0 7 5 10 10 10s10 -3 10 -10v-502z" />
    <glyph glyph-name="V" unicode="V" horiz-adv-x="541" 
d="M520 727l-240 -728c-2 -6 -6 -9 -10 -9s-7 3 -9 9l-240 728s-1 2 -1 4c0 6 5 9 10 9c4 0 8 -2 10 -7l230 -699l231 699c2 5 6 7 10 7c5 0 10 -2 10 -8c0 -2 -1 -5 -1 -5z" />
    <glyph glyph-name="W" unicode="W" horiz-adv-x="902" 
d="M881 726l-200 -727c-2 -6 -5 -9 -9 -9s-9 3 -11 9l-210 696l-210 -696c-2 -6 -6 -9 -10 -9s-8 3 -10 9l-200 727s-1 3 -1 5c0 6 6 9 11 9c4 0 9 -3 10 -8l190 -694l210 695c2 6 6 9 10 9s8 -3 10 -9l210 -695l190 694c1 5 6 8 10 8c5 0 11 -3 11 -9c0 -2 -1 -5 -1 -5z
" />
    <glyph glyph-name="X" unicode="X" horiz-adv-x="539" 
d="M499 10c0 -6 -5 -10 -10 -10c-3 0 -6 1 -8 5l-211 360l-211 -360c-2 -4 -6 -5 -9 -5c-5 0 -10 4 -10 10c0 2 1 3 2 5l216 370l-199 340c-1 2 -2 3 -2 5c0 6 5 10 10 10c3 0 7 -1 9 -5l194 -331l194 331c2 4 5 5 8 5c5 0 10 -4 10 -10c0 -2 0 -3 -1 -5l-200 -340l217 -370
c1 -2 1 -3 1 -5z" />
    <glyph glyph-name="Y" unicode="Y" horiz-adv-x="540" 
d="M520 730c0 -2 0 -3 -1 -5l-239 -400v-315c0 -7 -5 -10 -10 -10s-10 3 -10 10v315l-239 400c-1 2 -1 3 -1 5c0 6 5 10 10 10c3 0 7 -1 9 -5l231 -387l231 387c2 4 6 5 9 5c5 0 10 -4 10 -10z" />
    <glyph glyph-name="Z" unicode="Z" horiz-adv-x="545" 
d="M500 10c0 -5 -3 -10 -10 -10h-434c-7 0 -11 4 -11 9c0 2 1 4 2 6l421 705h-389c-7 0 -10 5 -10 10s3 10 10 10h407c7 0 11 -4 11 -9c0 -2 -1 -4 -2 -6l-421 -705h416c7 0 10 -5 10 -10z" />
    <glyph glyph-name="a" unicode="a" horiz-adv-x="438" 
d="M373 142c0 -91 -73 -152 -161 -152s-162 51 -162 141c0 81 70 128 145 145l158 35v52c0 78 -47 132 -139 132c-53 0 -95 -21 -119 -58c-3 -4 -9 -6 -14 -3c-5 2 -6 8 -4 13c3 5 36 68 137 68s159 -63 159 -152v-221zM353 142v149l-154 -35c-72 -16 -129 -58 -129 -124
c0 -77 61 -122 141 -122s142 54 142 132z" />
    <glyph glyph-name="a.alt" unicode="&#xf806;" horiz-adv-x="443" 
d="M353 10v55c-28 -47 -81 -75 -141 -75c-88 0 -162 51 -162 141c0 81 70 128 145 145l158 35v52c0 78 -47 132 -139 132c-53 0 -95 -21 -119 -58c-3 -4 -9 -6 -14 -3c-5 2 -6 8 -4 13c3 5 36 68 137 68s159 -63 159 -152v-353c0 -5 -5 -10 -10 -10s-10 5 -10 10zM353 142
v149l-154 -35c-72 -16 -129 -58 -129 -124c0 -77 61 -122 141 -122s142 54 142 132z" />
    <glyph glyph-name="b" unicode="b" horiz-adv-x="485" 
d="M420 165c0 -97 -78 -175 -175 -175s-175 78 -175 175v565c0 6 4 10 10 10s10 -4 10 -10v-309c29 56 88 94 155 94c97 0 175 -78 175 -175v-175zM400 165v175c0 86 -69 155 -155 155s-155 -69 -155 -155v-175c0 -86 69 -155 155 -155s155 69 155 155z" />
    <glyph glyph-name="b.alt" unicode="&#xf807;" horiz-adv-x="485" 
d="M420 165c0 -97 -78 -175 -175 -175c-68 0 -126 38 -155 93v-73c0 -5 -5 -10 -10 -10s-10 5 -10 10v720c0 6 4 10 10 10s10 -4 10 -10v-309c29 56 88 94 155 94c97 0 175 -78 175 -175v-175zM400 165v175c0 86 -69 155 -155 155s-155 -69 -155 -155v-175
c0 -86 69 -155 155 -155s155 69 155 155z" />
    <glyph glyph-name="c" unicode="c" horiz-adv-x="422" 
d="M371 55c-3 -5 -36 -65 -137 -65c-102 0 -169 62 -169 152v221c0 90 67 152 169 152c101 0 134 -60 137 -65c2 -5 1 -11 -4 -13c-5 -3 -11 -1 -14 3c-20 36 -66 55 -119 55c-92 0 -149 -55 -149 -132v-221c0 -77 57 -132 149 -132c53 0 99 19 119 55c3 4 9 6 14 3
c5 -2 6 -8 4 -13z" />
    <glyph glyph-name="d" unicode="d" horiz-adv-x="485" 
d="M415 165c0 -97 -78 -175 -175 -175s-175 78 -175 175v175c0 97 78 175 175 175c67 0 126 -38 155 -94v309c0 6 4 10 10 10s10 -4 10 -10v-565zM395 165v175c0 86 -69 155 -155 155s-155 -69 -155 -155v-175c0 -86 69 -155 155 -155s155 69 155 155z" />
    <glyph glyph-name="d.alt" unicode="&#xf808;" horiz-adv-x="485" 
d="M395 10v73c-29 -55 -88 -93 -155 -93c-97 0 -175 78 -175 175v175c0 97 78 175 175 175c67 0 126 -38 155 -94v309c0 6 4 10 10 10s10 -4 10 -10v-720c0 -5 -5 -10 -10 -10s-10 5 -10 10zM395 165v175c0 86 -69 155 -155 155s-155 -69 -155 -155v-175
c0 -86 69 -155 155 -155s155 69 155 155z" />
    <glyph glyph-name="e" unicode="e" horiz-adv-x="475" 
d="M415 280c0 -5 -5 -10 -10 -10h-320v-105c0 -85 79 -155 165 -155c43 0 104 17 130 56c3 4 9 6 13 4c5 -3 7 -9 4 -14c-1 -1 -45 -66 -147 -66c-96 0 -185 78 -185 175v175c0 97 78 175 175 175s175 -78 175 -175v-60zM395 290v50c0 86 -69 155 -155 155
s-155 -69 -155 -155v-50h310z" />
    <glyph glyph-name="f" unicode="f" horiz-adv-x="337" 
d="M347 719c0 -5 -4 -10 -9 -10c-2 0 -4 0 -6 1c-16 10 -40 20 -69 20c-68 0 -112 -45 -112 -101v-124h170c7 0 10 -5 10 -10s-3 -10 -10 -10h-170v-475c0 -7 -5 -10 -10 -10s-10 3 -10 10v475h-111c-7 0 -10 5 -10 10s3 10 10 10h111v124c0 68 54 121 132 121
c34 0 62 -12 79 -23c4 -2 5 -5 5 -8z" />
    <glyph glyph-name="g" unicode="g" horiz-adv-x="485" 
d="M415 -25c0 -97 -78 -175 -175 -175c-102 0 -145 63 -146 64c-3 5 -1 11 4 14c4 3 10 0 13 -4c30 -34 76 -54 129 -54c86 0 155 69 155 155v124c-29 -56 -88 -94 -155 -94c-97 0 -175 78 -175 175v160c0 97 78 175 175 175s175 -78 175 -175v-365zM395 180v160
c0 86 -69 155 -155 155s-155 -69 -155 -155v-160c0 -86 69 -155 155 -155s155 69 155 155z" />
    <glyph glyph-name="g.alt" unicode="&#xf809;" horiz-adv-x="485" 
d="M415 -25c0 -97 -78 -175 -175 -175c-102 0 -145 63 -146 64c-3 5 -1 11 4 14c4 3 10 0 13 -4c30 -34 76 -54 129 -54c86 0 155 69 155 155v124c-29 -56 -88 -94 -155 -94c-97 0 -175 78 -175 175v160c0 97 78 175 175 175c67 0 126 -38 155 -94v74c0 5 5 10 10 10
s10 -5 10 -10v-520zM395 180v160c0 86 -69 155 -155 155s-155 -69 -155 -155v-160c0 -86 69 -155 155 -155s155 69 155 155z" />
    <glyph glyph-name="h" unicode="h" 
d="M420 10c0 -6 -4 -10 -10 -10s-10 4 -10 10v330c0 86 -69 155 -155 155s-155 -69 -155 -155v-330c0 -6 -4 -10 -10 -10s-10 4 -10 10v720c0 6 4 10 10 10s10 -4 10 -10v-309c29 56 88 94 155 94c97 0 175 -78 175 -175v-330z" />
    <glyph glyph-name="i" unicode="i" horiz-adv-x="158" 
d="M60 707c0 10 9 19 19 19s19 -9 19 -19s-9 -19 -19 -19s-19 9 -19 19zM69 10v485c0 5 5 10 10 10s10 -5 10 -10v-485c0 -5 -5 -10 -10 -10s-10 5 -10 10z" />
    <glyph glyph-name="j" unicode="j" horiz-adv-x="169" 
d="M100 10c0 -74 -34 -164 -94 -208c-2 -1 -4 -2 -6 -2c-5 0 -10 2 -10 10s90 62 90 200v485c0 5 5 10 10 10c6 0 10 -5 10 -10v-485zM71 707c0 10 9 19 19 19s19 -9 19 -19s-9 -19 -19 -19s-19 9 -19 19z" />
    <glyph glyph-name="k" unicode="k" horiz-adv-x="431" 
d="M409 17c3 -5 2 -11 -2 -14c-4 -4 -11 -3 -14 1l-203 270l-100 -118v-146c0 -6 -4 -10 -10 -10s-10 4 -10 10v720c0 6 4 10 10 10s10 -4 10 -10v-543l271 317c4 4 10 5 14 1s5 -10 1 -14l-172 -202z" />
    <glyph glyph-name="l" unicode="l" horiz-adv-x="180" 
d="M160 0c0 -5 -4 -10 -10 -10c-5 0 -13 5 -16 8c-47 29 -64 87 -64 139v593c0 5 5 10 10 10s10 -5 10 -10v-593c0 -51 16 -103 64 -128c4 -2 6 -4 6 -9z" />
    <glyph glyph-name="l.alt" unicode="&#xf804;" horiz-adv-x="160" 
d="M70 10v720c0 5 5 10 10 10s10 -5 10 -10v-720c0 -5 -5 -10 -10 -10s-10 5 -10 10z" />
    <glyph glyph-name="m" unicode="m" horiz-adv-x="740" 
d="M670 10c0 -6 -4 -10 -10 -10s-10 4 -10 10v350c0 75 -60 135 -135 135s-135 -60 -135 -135v-350c0 -6 -4 -10 -10 -10s-10 4 -10 10v350c0 75 -60 135 -135 135s-135 -60 -135 -135v-350c0 -6 -4 -10 -10 -10s-10 4 -10 10v350c0 86 69 155 155 155
c66 0 123 -42 145 -100c22 58 79 100 145 100c86 0 155 -69 155 -155v-350z" />
    <glyph glyph-name="m.alt" unicode="&#xf80a;" horiz-adv-x="740" 
d="M90 495v-58c26 47 77 78 135 78c66 0 123 -42 145 -100c22 58 79 100 145 100c86 0 155 -69 155 -155v-350c0 -6 -4 -10 -10 -10s-10 4 -10 10v350c0 75 -60 135 -135 135s-135 -60 -135 -135v-350c0 -6 -4 -10 -10 -10s-10 4 -10 10v350c0 75 -60 135 -135 135
s-135 -60 -135 -135v-350c0 -6 -4 -10 -10 -10s-10 4 -10 10v485c0 5 5 10 10 10s10 -5 10 -10z" />
    <glyph glyph-name="n" unicode="n" 
d="M420 10c0 -6 -4 -10 -10 -10s-10 4 -10 10v330c0 86 -69 155 -155 155s-155 -69 -155 -155v-330c0 -6 -4 -10 -10 -10s-10 4 -10 10v330c0 97 78 175 175 175s175 -78 175 -175v-330z" />
    <glyph glyph-name="n.alt" unicode="&#xf80b;" 
d="M90 495v-74c29 56 87 94 155 94c97 0 175 -78 175 -175v-330c0 -6 -4 -10 -10 -10s-10 4 -10 10v330c0 86 -69 155 -155 155s-155 -69 -155 -155v-330c0 -6 -4 -10 -10 -10s-10 4 -10 10v485c0 5 5 10 10 10s10 -5 10 -10z" />
    <glyph glyph-name="o" unicode="o" horiz-adv-x="480" 
d="M415 165c0 -97 -78 -175 -175 -175s-175 78 -175 175v175c0 97 78 175 175 175s175 -78 175 -175v-175zM395 165v175c0 86 -69 155 -155 155s-155 -69 -155 -155v-175c0 -86 69 -155 155 -155s155 69 155 155z" />
    <glyph glyph-name="p" unicode="p" horiz-adv-x="485" 
d="M420 165c0 -97 -78 -175 -175 -175c-67 0 -126 38 -155 94v-274c0 -6 -4 -10 -10 -10s-10 4 -10 10v530c0 97 78 175 175 175s175 -78 175 -175v-175zM400 165v175c0 86 -69 155 -155 155s-155 -69 -155 -155v-175c0 -86 69 -155 155 -155s155 69 155 155z" />
    <glyph glyph-name="p.alt" unicode="&#xf80c;" horiz-adv-x="485" 
d="M420 340v-175c0 -97 -78 -175 -175 -175c-67 0 -126 38 -155 94v-274c0 -6 -4 -10 -10 -10s-10 4 -10 10v685c0 5 5 10 10 10s10 -5 10 -10v-73c29 55 87 93 155 93c97 0 175 -78 175 -175zM400 165v175c0 86 -69 155 -155 155s-155 -69 -155 -155v-175
c0 -86 69 -155 155 -155s155 69 155 155z" />
    <glyph glyph-name="q" unicode="q" horiz-adv-x="485" 
d="M415 -190c0 -6 -4 -10 -10 -10s-10 4 -10 10v274c-29 -56 -88 -94 -155 -94c-97 0 -175 78 -175 175v175c0 97 78 175 175 175s175 -78 175 -175v-530zM395 165v175c0 86 -69 155 -155 155s-155 -69 -155 -155v-175c0 -86 69 -155 155 -155s155 69 155 155z" />
    <glyph glyph-name="q.alt" unicode="&#xf80d;" horiz-adv-x="485" 
d="M65 340c0 97 78 175 175 175c68 0 126 -38 155 -93v73c0 5 5 10 10 10s10 -5 10 -10v-685c0 -6 -4 -10 -10 -10s-10 4 -10 10v274c-29 -56 -88 -94 -155 -94c-97 0 -175 78 -175 175v175zM85 340v-175c0 -86 69 -155 155 -155s155 69 155 155v175c0 86 -69 155 -155 155
s-155 -69 -155 -155z" />
    <glyph glyph-name="r" unicode="r" horiz-adv-x="359" 
d="M70 10v323c0 104 54 182 155 182c37 0 83 -16 110 -43c9 -10 -4 -23 -14 -14c0 0 -2 2 -6 5c-25 20 -58 32 -90 32c-87 0 -135 -65 -135 -162v-323c0 -6 -4 -10 -10 -10s-10 4 -10 10z" />
    <glyph glyph-name="r.alt" unicode="&#xf80e;" horiz-adv-x="294" 
d="M70 10v485c0 5 4 10 10 10s10 -5 10 -10v-71c21 55 70 91 135 91c16 0 37 -3 52 -9c4 -2 7 -5 7 -10c0 -6 -4 -10 -10 -10c-9 0 -22 9 -49 9c-87 0 -135 -65 -135 -162v-323c0 -5 -4 -10 -10 -10s-10 5 -10 10z" />
    <glyph glyph-name="s" unicode="s" horiz-adv-x="404" 
d="M354 128c0 -90 -85 -138 -166 -138c-48 0 -107 20 -136 60c-1 2 -2 4 -2 6c0 5 5 10 10 10c4 0 6 -1 8 -4c32 -36 72 -52 120 -52c70 0 146 39 146 118c0 163 -281 97 -281 264c0 79 69 123 142 123c51 0 108 -27 136 -70c1 -2 1 -3 1 -5c0 -6 -5 -10 -10 -10
c-4 0 -6 2 -8 5c-32 38 -68 60 -119 60c-62 0 -122 -35 -122 -103c0 -147 281 -83 281 -264z" />
    <glyph glyph-name="t" unicode="t" horiz-adv-x="388" 
d="M368 36c0 -6 -7 -11 -11 -14c-27 -20 -61 -32 -94 -32c-71 0 -132 47 -132 121v374h-111c-6 0 -10 4 -10 10s4 10 10 10h111v147c0 6 4 10 10 10s10 -4 10 -10v-147h197c6 0 10 -4 10 -10s-4 -10 -10 -10h-197v-374c0 -63 52 -101 112 -101c33 0 63 13 88 33c2 2 4 3 7 3
c5 0 10 -5 10 -10z" />
    <glyph glyph-name="t.alt" unicode="&#xf810;" horiz-adv-x="382" 
d="M201 485v-475c0 -6 -4 -10 -10 -10s-10 4 -10 10v475h-151c-6 0 -10 4 -10 10s4 10 10 10h151v147c0 6 4 10 10 10s10 -4 10 -10v-147h151c6 0 10 -4 10 -10s-4 -10 -10 -10h-151z" />
    <glyph glyph-name="t.alt2" unicode="&#xf805;" horiz-adv-x="327" 
d="M70 111v541c0 6 4 10 10 10s10 -4 10 -10v-147h197c6 0 10 -4 10 -10s-4 -10 -10 -10h-197v-374c0 -63 52 -101 112 -101c33 0 63 13 88 33c2 2 4 3 7 3c5 0 10 -5 10 -10c0 -6 -7 -11 -11 -14c-27 -20 -61 -32 -94 -32c-71 0 -132 47 -132 121z" />
    <glyph glyph-name="u" unicode="u" 
d="M420 165c0 -97 -78 -175 -175 -175s-175 78 -175 175v330c0 6 4 10 10 10s10 -4 10 -10v-330c0 -85 70 -155 155 -155s155 70 155 155v330c0 6 4 10 10 10s10 -4 10 -10v-330z" />
    <glyph glyph-name="u.alt" unicode="&#xf80f;" 
d="M400 10v74c-29 -56 -87 -94 -155 -94c-97 0 -175 78 -175 175v330c0 6 4 10 10 10s10 -4 10 -10v-330c0 -86 69 -155 155 -155s155 69 155 155v330c0 6 4 10 10 10s10 -4 10 -10v-485c0 -5 -5 -10 -10 -10s-10 5 -10 10z" />
    <glyph glyph-name="v" unicode="v" horiz-adv-x="460" 
d="M430 495c0 -5 -177 -462 -191 -499c-2 -4 -4 -8 -9 -8s-7 4 -9 8c-14 37 -191 494 -191 499c0 6 5 10 10 10c4 0 8 -2 9 -6l181 -471l181 471c1 4 5 6 9 6c5 0 10 -4 10 -10z" />
    <glyph glyph-name="w" unicode="w" horiz-adv-x="700" 
d="M670 495c0 -5 -139 -461 -150 -498c-1 -4 -5 -9 -10 -9s-8 5 -9 9l-151 465l-150 -465c-1 -4 -5 -9 -10 -9s-8 5 -9 9c-11 37 -151 492 -151 498s5 10 10 10c4 0 9 -3 10 -7l140 -465l151 465c1 4 4 9 9 9s9 -5 10 -9l150 -465l141 465c1 4 5 7 9 7c5 0 10 -4 10 -10z
" />
    <glyph glyph-name="x" unicode="x" horiz-adv-x="426" 
d="M379 495c0 -2 -1 -3 -2 -5l-153 -232l160 -243c1 -2 2 -3 2 -5c0 -6 -5 -10 -10 -10c-3 0 -6 2 -8 5l-155 236l-155 -236c-2 -3 -5 -5 -8 -5c-5 0 -10 4 -10 10c0 2 1 3 2 5l160 243l-153 232c-1 2 -2 3 -2 5c0 6 5 10 10 10c3 0 6 -2 8 -5l148 -225l148 225c2 3 5 5 8 5
c5 0 10 -4 10 -10z" />
    <glyph glyph-name="y" unicode="y" horiz-adv-x="441" 
d="M411 495c0 -1 0 -3 -1 -4l-259 -695c-2 -5 -5 -6 -9 -6c-5 0 -10 4 -10 10c0 1 0 2 1 3l74 199l-176 490c0 1 -1 2 -1 3c0 6 5 10 10 10c4 0 8 -2 10 -7l167 -467l175 467c2 5 5 7 9 7c5 0 10 -4 10 -10z" />
    <glyph glyph-name="z" unicode="z" horiz-adv-x="417" 
d="M377 10c0 -5 -3 -10 -10 -10h-321c-7 0 -11 3 -11 8c0 2 0 5 2 7l307 470h-275c-7 0 -10 5 -10 10s3 10 10 10h294c7 0 10 -3 10 -8c0 -2 0 -5 -2 -7l-307 -470h303c7 0 10 -5 10 -10z" />
    <glyph glyph-name="cent" unicode="&#xa2;" horiz-adv-x="406" 
d="M366 170c-3 -5 -34 -62 -129 -65v-105c0 -7 -5 -10 -10 -10s-10 3 -10 10v105c-95 5 -157 65 -157 152v221c0 87 62 147 157 152v110c0 7 5 10 10 10s10 -3 10 -10v-110c95 -3 126 -60 129 -65c2 -5 1 -11 -4 -13c-5 -3 -11 -1 -14 3c-19 34 -62 53 -111 55v-485
c49 2 92 21 111 55c3 4 9 6 14 3c5 -2 6 -8 4 -13zM217 125v485c-85 -5 -137 -58 -137 -132v-221c0 -74 52 -127 137 -132z" />
    <glyph glyph-name="sterling" unicode="&#xa3;" horiz-adv-x="537" 
d="M497 94c0 -1 0 -2 -1 -4s-40 -90 -177 -90h-258c-8 0 -11 2 -11 6c0 7 9 17 12 21c33 42 49 96 49 149v133h-50c-7 0 -10 5 -10 10s3 10 10 10h50v203c0 120 79 218 198 218c71 0 134 -31 169 -93c6 -11 8 -18 8 -18c1 -1 1 -2 1 -3c0 -6 -5 -10 -10 -10c-4 0 -7 2 -9 7
c0 0 -3 5 -8 14c-31 55 -87 83 -151 83c-105 0 -178 -86 -178 -198v-203h151c7 0 10 -5 10 -10s-3 -10 -10 -10h-151v-133c0 -55 -16 -111 -49 -156h237c54 0 134 22 159 78c2 4 6 6 9 6c5 0 10 -4 10 -10z" />
    <glyph glyph-name="yen" unicode="&#xa5;" horiz-adv-x="550" 
d="M525 730c0 -2 0 -3 -1 -5l-239 -400v-48h149c7 0 10 -5 10 -10s-3 -10 -10 -10h-149v-103h149c7 0 10 -5 10 -10s-3 -10 -10 -10h-149v-124c0 -7 -5 -10 -10 -10s-10 3 -10 10v124h-149c-7 0 -10 5 -10 10s3 10 10 10h149v103h-149c-7 0 -10 5 -10 10s3 10 10 10h149v48
l-238 400c-1 2 -2 3 -2 5c0 6 5 10 10 10c3 0 7 -1 9 -5l231 -387l232 387c2 4 5 5 8 5c5 0 10 -4 10 -10z" />
    <glyph glyph-name="Euro" unicode="&#x20ac;" horiz-adv-x="586" 
d="M536 84c0 -2 -1 -4 -2 -6c-1 -1 -70 -88 -206 -88c-131 0 -238 107 -238 238v75h-70c-7 0 -10 5 -10 10s3 10 10 10h70v90h-70c-7 0 -10 5 -10 10s3 10 10 10h70v59c0 131 107 238 238 238c136 0 205 -87 206 -88c1 -2 2 -4 2 -6c0 -6 -5 -10 -10 -10c-3 0 -6 1 -8 4
c0 0 -4 5 -11 12c-48 45 -114 68 -179 68c-120 0 -218 -98 -218 -218v-59h265c7 0 10 -5 10 -10s-3 -10 -10 -10h-265v-90h191c7 0 10 -5 10 -10s-3 -10 -10 -10h-191v-75c0 -120 98 -218 218 -218c64 0 148 27 190 80c2 3 5 4 8 4c5 0 10 -4 10 -10z" />
    <glyph glyph-name="brokenbar" unicode="&#xa6;" horiz-adv-x="220" 
d="M120 325c0 -7 -5 -10 -10 -10s-10 3 -10 10v405c0 7 5 10 10 10s10 -3 10 -10v-405zM120 -190c0 -7 -5 -10 -10 -10s-10 3 -10 10v405c0 7 5 10 10 10s10 -3 10 -10v-405z" />
    <glyph glyph-name="bar" unicode="|" horiz-adv-x="220" 
d="M120 -190c0 -7 -5 -10 -10 -10s-10 3 -10 10v920c0 7 5 10 10 10s10 -3 10 -10v-920z" />
    <glyph glyph-name="dagger" unicode="&#x2020;" horiz-adv-x="520" 
d="M480 490c0 -5 -3 -10 -10 -10h-200v-680c0 -7 -5 -10 -10 -10s-10 3 -10 10v680h-200c-7 0 -10 5 -10 10s3 10 10 10h200v220c0 7 5 10 10 10s10 -3 10 -10v-220h200c7 0 10 -5 10 -10z" />
    <glyph glyph-name="daggerdbl" unicode="&#x2021;" horiz-adv-x="520" 
d="M480 30c0 -5 -3 -10 -10 -10h-200v-220c0 -7 -5 -10 -10 -10s-10 3 -10 10v220h-200c-7 0 -10 5 -10 10s3 10 10 10h200v440h-200c-7 0 -10 5 -10 10s3 10 10 10h200v220c0 7 5 10 10 10s10 -3 10 -10v-220h200c7 0 10 -5 10 -10s-3 -10 -10 -10h-200v-440h200
c7 0 10 -5 10 -10z" />
    <glyph glyph-name="section" unicode="&#xa7;" horiz-adv-x="550" 
d="M490 1c0 -116 -105 -191 -235 -191c-133 0 -192 84 -193 85c-8 11 9 22 16 12c0 0 4 -5 10 -12c43 -45 106 -65 167 -65c124 0 215 70 215 171c0 239 -405 135 -405 372c0 40 12 75 33 102c-21 25 -33 56 -33 98c0 111 95 177 200 177c72 0 157 -39 201 -98
c8 -10 -7 -22 -16 -12c0 0 -4 6 -12 14c-45 46 -107 76 -173 76c-97 0 -180 -60 -180 -157c0 -217 405 -115 405 -372c0 -37 -11 -71 -30 -99c19 -26 30 -59 30 -101zM470 201c0 187 -250 164 -357 260c-18 -24 -28 -53 -28 -88c0 -172 258 -145 361 -255c15 24 24 52 24 83
z" />
    <glyph glyph-name="paragraph" unicode="&#xb6;" horiz-adv-x="532" 
d="M447 -100c0 -7 -5 -10 -10 -10s-10 3 -10 10v820h-127v-820c0 -7 -5 -10 -10 -10s-10 3 -10 10v383h-21c-126 0 -229 103 -229 229s103 228 229 228h178c5 0 10 -5 10 -10v-830z" />
    <glyph glyph-name="copyright" unicode="&#xa9;" horiz-adv-x="848" 
d="M798 369c0 -206 -167 -379 -374 -379s-374 173 -374 379s167 379 374 379s374 -173 374 -379zM778 369c0 196 -159 359 -354 359s-354 -163 -354 -359s159 -359 354 -359s354 163 354 359zM549 202c0 -2 -1 -4 -3 -6c0 0 -2 -4 -8 -9c-32 -30 -75 -45 -118 -45
c-81 0 -147 66 -147 147v158c0 81 66 147 147 147c43 0 98 -19 126 -54c2 -2 3 -4 3 -6c0 -5 -6 -11 -11 -11c-3 0 -5 1 -7 4l-7 7c-28 26 -66 40 -104 40c-70 0 -127 -57 -127 -127v-158c0 -70 57 -127 127 -127c37 0 86 16 111 47c2 3 4 3 7 3c5 0 11 -5 11 -10z" />
    <glyph glyph-name="registered" unicode="&#xae;" horiz-adv-x="848" 
d="M798 369c0 -206 -167 -379 -374 -379s-374 173 -374 379s167 379 374 379s374 -173 374 -379zM778 369c0 196 -159 359 -354 359s-354 -163 -354 -359s159 -359 354 -359s354 163 354 359zM564 150c0 -6 -5 -10 -10 -10c-3 0 -7 2 -9 5l-105 166c-6 -1 -12 -1 -18 -1h-97
v-160c0 -7 -5 -10 -10 -10s-10 3 -10 10v432c0 5 5 10 10 10h107c78 0 141 -63 141 -141c0 -64 -43 -119 -102 -136l101 -160c1 -2 2 -3 2 -5zM543 451c0 67 -54 121 -121 121h-97v-242h97c67 0 121 54 121 121z" />
    <glyph glyph-name="published" unicode="&#x2117;" horiz-adv-x="848" 
d="M798 369c0 -206 -167 -379 -374 -379s-374 173 -374 379s167 379 374 379s374 -173 374 -379zM778 369c0 196 -159 359 -354 359s-354 -163 -354 -359s159 -359 354 -359s354 163 354 359zM440 310h-97v-160c0 -7 -5 -10 -10 -10s-10 3 -10 10v432c0 5 5 10 10 10h107
c78 0 141 -63 141 -141s-63 -141 -141 -141zM561 451c0 67 -54 121 -121 121h-97v-242h97c67 0 121 54 121 121z" />
    <glyph glyph-name="trademark" unicode="&#x2122;" horiz-adv-x="806" 
d="M746 299c0 -7 -5 -10 -10 -10s-10 3 -10 10v381l-161 -385c-2 -5 -5 -7 -9 -7s-7 2 -9 7l-161 385v-381c0 -7 -5 -10 -10 -10s-10 3 -10 10v431c0 7 4 12 9 12c4 0 8 -3 10 -8l171 -409l171 409c2 5 6 8 10 8c5 0 9 -5 9 -12v-431zM328 730c0 -5 -3 -10 -10 -10h-134
v-422c0 -7 -5 -10 -10 -10s-10 3 -10 10v422h-134c-7 0 -10 5 -10 10s3 10 10 10h288c7 0 10 -5 10 -10z" />
    <glyph glyph-name="ordfeminine" unicode="&#xaa;" horiz-adv-x="443" 
d="M383 377c0 -91 -73 -152 -161 -152s-162 51 -162 141c0 81 70 128 145 145l158 35v52c0 78 -47 132 -139 132c-53 0 -95 -21 -119 -58c-3 -4 -9 -6 -14 -3c-5 2 -6 8 -4 13c3 5 36 68 137 68s159 -63 159 -152v-221zM363 377v149l-154 -35c-72 -16 -129 -58 -129 -124
c0 -77 61 -122 141 -122s142 54 142 132z" />
    <glyph glyph-name="ordmasculine" unicode="&#xba;" horiz-adv-x="470" 
d="M410 400c0 -97 -78 -175 -175 -175s-175 78 -175 175v175c0 97 78 175 175 175s175 -78 175 -175v-175zM390 400v175c0 86 -69 155 -155 155s-155 -69 -155 -155v-175c0 -86 69 -155 155 -155s155 69 155 155z" />
    <glyph glyph-name="degree" unicode="&#xb0;" horiz-adv-x="359" 
d="M309 621c0 -72 -58 -130 -129 -130c-72 0 -130 58 -130 129c0 72 58 130 129 130c72 0 130 -58 130 -129zM289 621v-1c0 61 -49 110 -109 110c-61 0 -110 -49 -110 -109c0 -61 49 -110 109 -110c61 0 110 49 110 110z" />
    <glyph glyph-name="guillemotleft" unicode="&#xab;" horiz-adv-x="452" 
d="M382 93c0 -5 -5 -10 -10 -10c-2 0 -5 1 -7 3l-178 159c-2 2 -3 4 -3 7s1 5 3 7l178 159c2 2 5 3 7 3c5 0 10 -5 10 -10c0 -3 -1 -5 -3 -7l-170 -152l170 -152c2 -2 3 -4 3 -7zM248 93c0 -5 -5 -10 -10 -10c-2 0 -5 1 -7 3l-178 159c-2 2 -3 4 -3 7s1 5 3 7l178 159
c2 2 5 3 7 3c5 0 10 -5 10 -10c0 -3 -1 -5 -3 -7l-170 -152l170 -152c2 -2 3 -4 3 -7z" />
    <glyph glyph-name="guillemotright" unicode="&#xbb;" horiz-adv-x="452" 
d="M402 252c0 -3 -1 -5 -3 -7l-178 -159c-2 -2 -5 -3 -7 -3c-5 0 -10 5 -10 10c0 3 1 5 3 7l170 152l-170 152c-2 2 -3 4 -3 7c0 5 5 10 10 10c2 0 5 -1 7 -3l178 -159c2 -2 3 -4 3 -7zM268 252c0 -3 -1 -5 -3 -7l-178 -159c-2 -2 -5 -3 -7 -3c-5 0 -10 5 -10 10
c0 3 1 5 3 7l170 152l-170 152c-2 2 -3 4 -3 7c0 5 5 10 10 10c2 0 5 -1 7 -3l178 -159c2 -2 3 -4 3 -7z" />
    <glyph glyph-name="guilsinglleft" unicode="&#x2039;" horiz-adv-x="318" 
d="M248 93c0 -5 -5 -10 -10 -10c-2 0 -5 1 -7 3l-178 159c-2 2 -3 4 -3 7s1 5 3 7l178 159c2 2 5 3 7 3c5 0 10 -5 10 -10c0 -3 -1 -5 -3 -7l-170 -152l170 -152c2 -2 3 -4 3 -7z" />
    <glyph glyph-name="guilsinglright" unicode="&#x203a;" horiz-adv-x="318" 
d="M268 252c0 -3 -1 -5 -3 -7l-178 -159c-2 -2 -5 -3 -7 -3c-5 0 -10 5 -10 10c0 3 1 5 3 7l170 152l-170 152c-2 2 -3 4 -3 7c0 5 5 10 10 10c2 0 5 -1 7 -3l178 -159c2 -2 3 -4 3 -7z" />
    <glyph glyph-name="germandbls" unicode="&#xdf;" horiz-adv-x="544" 
d="M484 190c0 -116 -94 -198 -208 -198c-7 0 -10 5 -10 10s3 10 10 10c105 0 188 75 188 178v1c0 103 -83 178 -188 178c-7 0 -10 5 -10 10s3 10 10 10c104 0 178 69 178 172v1c0 103 -73 168 -178 168c-100 0 -165 -66 -165 -172v-556c0 -7 -5 -10 -10 -10s-10 3 -10 10
v445h-61c-7 0 -10 5 -10 10s3 10 10 10h61v91c0 116 73 192 185 192c114 0 198 -72 198 -188v-1c0 -91 -52 -158 -130 -182c81 -25 140 -96 140 -188v-1z" />
    <glyph glyph-name="eth" unicode="&#xf0;" horiz-adv-x="480" 
d="M415 165c0 -97 -78 -175 -175 -175s-175 78 -175 175v175c0 97 78 175 175 175c63 0 118 -33 148 -82c-13 91 -47 179 -113 237l-52 -61c-3 -3 -5 -4 -8 -4c-5 0 -10 5 -10 10c0 2 1 4 2 6l52 62c-20 15 -42 28 -68 37c-22 8 -36 10 -36 10c-6 1 -9 5 -9 10s3 10 10 10h1
s17 -2 41 -11c28 -11 52 -24 74 -41l40 48c3 3 5 4 8 4c5 0 10 -5 10 -10c0 -2 -1 -4 -2 -6l-41 -48c93 -82 128 -218 128 -346v0v-175zM395 165v175c0 86 -69 155 -155 155s-155 -69 -155 -155v-175c0 -86 69 -155 155 -155s155 69 155 155z" />
    <glyph glyph-name="partialdiff" unicode="&#x2202;" horiz-adv-x="480" 
d="M415 165c0 -97 -78 -175 -175 -175s-175 78 -175 175v175c0 97 78 175 175 175c63 0 118 -33 148 -82c-17 123 -75 242 -197 287c-22 8 -36 10 -36 10c-6 1 -9 5 -9 10s3 10 10 10h1s17 -2 41 -11c161 -60 217 -237 217 -399v0v-175zM395 165v175c0 86 -69 155 -155 155
s-155 -69 -155 -155v-175c0 -86 69 -155 155 -155s155 69 155 155z" />
    <glyph glyph-name="Agrave" unicode="&#xc0;" horiz-adv-x="560" 
d="M530 8c0 -6 -5 -8 -10 -8c-4 0 -7 2 -9 7l-80 239h-302l-80 -239c-2 -5 -5 -7 -9 -7c-5 0 -10 3 -10 9c0 2 1 4 1 4l240 720c2 6 5 9 9 9s7 -3 9 -9l240 -720s1 -3 1 -5zM424 266l-144 432l-144 -432h288zM215 909c0 5 4 10 10 10c4 0 6 -2 6 -2l109 -87c3 -2 4 -5 4 -8
c0 -5 -4 -10 -10 -10c-3 0 -6 2 -6 2l-109 87c-3 2 -4 5 -4 8z" />
    <glyph glyph-name="agrave" unicode="&#xe0;" horiz-adv-x="438" 
d="M373 142c0 -91 -73 -152 -161 -152s-162 51 -162 141c0 81 70 128 145 145l158 35v52c0 78 -47 132 -139 132c-53 0 -95 -21 -119 -58c-3 -4 -9 -6 -14 -3c-5 2 -6 8 -4 13c3 5 36 68 137 68s159 -63 159 -152v-221zM353 142v149l-154 -35c-72 -16 -129 -58 -129 -124
c0 -77 61 -122 141 -122s142 54 142 132zM152 674c0 5 4 10 10 10c4 0 6 -2 6 -2l109 -87c3 -2 4 -5 4 -8c0 -5 -4 -10 -10 -10c-3 0 -6 2 -6 2l-109 87c-3 2 -4 5 -4 8z" />
    <glyph glyph-name="agrave.alt" unicode="&#xf81a;" horiz-adv-x="438" 
d="M152 674c0 5 4 10 10 10c4 0 6 -2 6 -2l109 -87c3 -2 4 -5 4 -8c0 -5 -4 -10 -10 -10c-3 0 -6 2 -6 2l-109 87c-3 2 -4 5 -4 8zM353 10v55c-28 -47 -81 -75 -141 -75c-88 0 -162 51 -162 141c0 81 70 128 145 145l158 35v52c0 78 -47 132 -139 132
c-53 0 -95 -21 -119 -58c-3 -4 -9 -6 -14 -3c-5 2 -6 8 -4 13c3 5 36 68 137 68s159 -63 159 -152v-353c0 -5 -5 -10 -10 -10s-10 5 -10 10zM353 142v149l-154 -35c-72 -16 -129 -58 -129 -124c0 -77 61 -122 141 -122s142 54 142 132z" />
    <glyph glyph-name="Aacute" unicode="&#xc1;" horiz-adv-x="560" 
d="M530 8c0 -6 -5 -8 -10 -8c-4 0 -7 2 -9 7l-80 239h-302l-80 -239c-2 -5 -5 -7 -9 -7c-5 0 -10 3 -10 9c0 2 1 4 1 4l240 720c2 6 5 9 9 9s7 -3 9 -9l240 -720s1 -3 1 -5zM424 266l-144 432l-144 -432h288zM344 909c0 -3 -1 -6 -4 -8l-109 -87s-3 -2 -6 -2
c-6 0 -10 5 -10 10c0 3 1 6 4 8l109 87s2 2 6 2c6 0 10 -5 10 -10z" />
    <glyph glyph-name="aacute" unicode="&#xe1;" horiz-adv-x="438" 
d="M373 142c0 -91 -73 -152 -161 -152s-162 51 -162 141c0 81 70 128 145 145l158 35v52c0 78 -47 132 -139 132c-53 0 -95 -21 -119 -58c-3 -4 -9 -6 -14 -3c-5 2 -6 8 -4 13c3 5 36 68 137 68s159 -63 159 -152v-221zM353 142v149l-154 -35c-72 -16 -129 -58 -129 -124
c0 -77 61 -122 141 -122s142 54 142 132zM281 674c0 -3 -1 -6 -4 -8l-109 -87s-3 -2 -6 -2c-6 0 -10 5 -10 10c0 3 1 6 4 8l109 87s2 2 6 2c6 0 10 -5 10 -10z" />
    <glyph glyph-name="aacute.alt" unicode="&#xf819;" horiz-adv-x="438" 
d="M281 674c0 -3 -1 -6 -4 -8l-109 -87s-3 -2 -6 -2c-6 0 -10 5 -10 10c0 3 1 6 4 8l109 87s2 2 6 2c6 0 10 -5 10 -10zM353 10v55c-28 -47 -81 -75 -141 -75c-88 0 -162 51 -162 141c0 81 70 128 145 145l158 35v52c0 78 -47 132 -139 132c-53 0 -95 -21 -119 -58
c-3 -4 -9 -6 -14 -3c-5 2 -6 8 -4 13c3 5 36 68 137 68s159 -63 159 -152v-353c0 -5 -5 -10 -10 -10s-10 5 -10 10zM353 142v149l-154 -35c-72 -16 -129 -58 -129 -124c0 -77 61 -122 141 -122s142 54 142 132z" />
    <glyph glyph-name="Acircumflex" unicode="&#xc2;" horiz-adv-x="560" 
d="M530 8c0 -6 -5 -8 -10 -8c-4 0 -7 2 -9 7l-80 239h-302l-80 -239c-2 -5 -5 -7 -9 -7c-5 0 -10 3 -10 9c0 2 1 4 1 4l240 720c2 6 5 9 9 9s7 -3 9 -9l240 -720s1 -3 1 -5zM424 266l-144 432l-144 -432h288zM369 832c0 -5 -6 -10 -11 -10c-2 0 -4 1 -6 3l-72 70l-73 -70
c-2 -2 -4 -3 -6 -3c-5 0 -11 5 -11 10c0 2 2 5 4 7l79 77c2 2 4 3 7 3s4 -1 6 -3l79 -77c2 -2 4 -5 4 -7z" />
    <glyph glyph-name="acircumflex" unicode="&#xe2;" horiz-adv-x="438" 
d="M373 142c0 -91 -73 -152 -161 -152s-162 51 -162 141c0 81 70 128 145 145l158 35v52c0 78 -47 132 -139 132c-53 0 -95 -21 -119 -58c-3 -4 -9 -6 -14 -3c-5 2 -6 8 -4 13c3 5 36 68 137 68s159 -63 159 -152v-221zM353 142v149l-154 -35c-72 -16 -129 -58 -129 -124
c0 -77 61 -122 141 -122s142 54 142 132zM306 597c0 -5 -6 -10 -11 -10c-2 0 -4 1 -6 3l-72 70l-73 -70c-2 -2 -4 -3 -6 -3c-5 0 -11 5 -11 10c0 2 2 5 4 7l79 77c2 2 4 3 7 3s4 -1 6 -3l79 -77c2 -2 4 -5 4 -7z" />
    <glyph glyph-name="acircumflex.alt" unicode="&#xf81b;" horiz-adv-x="438" 
d="M306 597c0 -5 -6 -10 -11 -10c-2 0 -4 1 -6 3l-72 70l-73 -70c-2 -2 -4 -3 -6 -3c-5 0 -11 5 -11 10c0 2 2 5 4 7l79 77c2 2 4 3 7 3s4 -1 6 -3l79 -77c2 -2 4 -5 4 -7zM353 10v55c-28 -47 -81 -75 -141 -75c-88 0 -162 51 -162 141c0 81 70 128 145 145l158 35v52
c0 78 -47 132 -139 132c-53 0 -95 -21 -119 -58c-3 -4 -9 -6 -14 -3c-5 2 -6 8 -4 13c3 5 36 68 137 68s159 -63 159 -152v-353c0 -5 -5 -10 -10 -10s-10 5 -10 10zM353 142v149l-154 -35c-72 -16 -129 -58 -129 -124c0 -77 61 -122 141 -122s142 54 142 132z" />
    <glyph glyph-name="Atilde" unicode="&#xc3;" horiz-adv-x="560" 
d="M530 8c0 -6 -5 -8 -10 -8c-4 0 -7 2 -9 7l-80 239h-302l-80 -239c-2 -5 -5 -7 -9 -7c-5 0 -10 3 -10 9c0 2 1 4 1 4l240 720c2 6 5 9 9 9s7 -3 9 -9l240 -720s1 -3 1 -5zM424 266l-144 432l-144 -432h288zM391 875c0 -1 -1 -2 -1 -3c0 0 -2 -3 -4 -8
c-13 -25 -35 -41 -64 -41c-41 0 -48 39 -84 39c-21 0 -40 -18 -49 -36c-2 -4 -6 -6 -9 -6c-5 0 -11 5 -11 10c0 2 1 3 2 5c0 0 1 2 4 7c14 22 36 40 63 40c46 0 52 -39 84 -39c37 0 49 35 49 35c2 5 5 7 9 7c5 0 11 -4 11 -10z" />
    <glyph glyph-name="atilde" unicode="&#xe3;" horiz-adv-x="438" 
d="M373 142c0 -91 -73 -152 -161 -152s-162 51 -162 141c0 81 70 128 145 145l158 35v52c0 78 -47 132 -139 132c-53 0 -95 -21 -119 -58c-3 -4 -9 -6 -14 -3c-5 2 -6 8 -4 13c3 5 36 68 137 68s159 -63 159 -152v-221zM353 142v149l-154 -35c-72 -16 -129 -58 -129 -124
c0 -77 61 -122 141 -122s142 54 142 132zM328 640c0 -1 -1 -2 -1 -3c0 0 -2 -3 -4 -8c-13 -25 -35 -41 -64 -41c-41 0 -48 39 -84 39c-21 0 -40 -18 -49 -36c-2 -4 -6 -6 -9 -6c-5 0 -11 5 -11 10c0 2 1 3 2 5c0 0 1 2 4 7c14 22 36 40 63 40c46 0 52 -39 84 -39
c37 0 49 35 49 35c2 5 5 7 9 7c5 0 11 -4 11 -10z" />
    <glyph glyph-name="atilde.alt" unicode="&#xf81d;" horiz-adv-x="438" 
d="M328 640c0 -1 -1 -2 -1 -3c0 0 -2 -3 -4 -8c-13 -25 -35 -41 -64 -41c-41 0 -48 39 -84 39c-21 0 -40 -18 -49 -36c-2 -4 -6 -6 -9 -6c-5 0 -11 5 -11 10c0 2 1 3 2 5c0 0 1 2 4 7c14 22 36 40 63 40c46 0 52 -39 84 -39c37 0 49 35 49 35c2 5 5 7 9 7c5 0 11 -4 11 -10z
M353 10v55c-28 -47 -81 -75 -141 -75c-88 0 -162 51 -162 141c0 81 70 128 145 145l158 35v52c0 78 -47 132 -139 132c-53 0 -95 -21 -119 -58c-3 -4 -9 -6 -14 -3c-5 2 -6 8 -4 13c3 5 36 68 137 68s159 -63 159 -152v-353c0 -5 -5 -10 -10 -10s-10 5 -10 10zM353 142v149
l-154 -35c-72 -16 -129 -58 -129 -124c0 -77 61 -122 141 -122s142 54 142 132z" />
    <glyph glyph-name="Adieresis" unicode="&#xc4;" horiz-adv-x="560" 
d="M530 8c0 -6 -5 -8 -10 -8c-4 0 -7 2 -9 7l-80 239h-302l-80 -239c-2 -5 -5 -7 -9 -7c-5 0 -10 3 -10 9c0 2 1 4 1 4l240 720c2 6 5 9 9 9s7 -3 9 -9l240 -720s1 -3 1 -5zM424 266l-144 432l-144 -432h288zM190 848c0 10 9 19 19 19s19 -9 19 -19s-9 -19 -19 -19
s-19 9 -19 19zM331 848c0 10 9 19 19 19s19 -9 19 -19s-9 -19 -19 -19s-19 9 -19 19z" />
    <glyph glyph-name="adieresis" unicode="&#xe4;" horiz-adv-x="438" 
d="M373 142c0 -91 -73 -152 -161 -152s-162 51 -162 141c0 81 70 128 145 145l158 35v52c0 78 -47 132 -139 132c-53 0 -95 -21 -119 -58c-3 -4 -9 -6 -14 -3c-5 2 -6 8 -4 13c3 5 36 68 137 68s159 -63 159 -152v-221zM353 142v149l-154 -35c-72 -16 -129 -58 -129 -124
c0 -77 61 -122 141 -122s142 54 142 132zM127 613c0 10 9 19 19 19s19 -9 19 -19s-9 -19 -19 -19s-19 9 -19 19zM268 613c0 10 9 19 19 19s19 -9 19 -19s-9 -19 -19 -19s-19 9 -19 19z" />
    <glyph glyph-name="adieresis.alt" unicode="&#xf81c;" horiz-adv-x="438" 
d="M127 613c0 10 9 19 19 19s19 -9 19 -19s-9 -19 -19 -19s-19 9 -19 19zM268 613c0 10 9 19 19 19s19 -9 19 -19s-9 -19 -19 -19s-19 9 -19 19zM353 10v55c-28 -47 -81 -75 -141 -75c-88 0 -162 51 -162 141c0 81 70 128 145 145l158 35v52c0 78 -47 132 -139 132
c-53 0 -95 -21 -119 -58c-3 -4 -9 -6 -14 -3c-5 2 -6 8 -4 13c3 5 36 68 137 68s159 -63 159 -152v-353c0 -5 -5 -10 -10 -10s-10 5 -10 10zM353 142v149l-154 -35c-72 -16 -129 -58 -129 -124c0 -77 61 -122 141 -122s142 54 142 132z" />
    <glyph glyph-name="Aring" unicode="&#xc5;" horiz-adv-x="560" 
d="M530 8c0 -6 -5 -8 -10 -8c-4 0 -7 2 -9 7l-80 239h-302l-80 -239c-2 -5 -5 -7 -9 -7c-5 0 -10 3 -10 9c0 2 1 4 1 4l240 720c2 6 5 9 9 9s7 -3 9 -9l240 -720s1 -3 1 -5zM424 266l-144 432l-144 -432h288zM347 880c0 -37 -31 -68 -68 -68s-67 31 -67 68s30 67 67 67
s68 -30 68 -67zM327 880c0 26 -22 47 -48 47s-47 -21 -47 -47s21 -48 47 -48s48 22 48 48z" />
    <glyph glyph-name="aring" unicode="&#xe5;" horiz-adv-x="438" 
d="M373 142c0 -91 -73 -152 -161 -152s-162 51 -162 141c0 81 70 128 145 145l158 35v52c0 78 -47 132 -139 132c-53 0 -95 -21 -119 -58c-3 -4 -9 -6 -14 -3c-5 2 -6 8 -4 13c3 5 36 68 137 68s159 -63 159 -152v-221zM353 142v149l-154 -35c-72 -16 -129 -58 -129 -124
c0 -77 61 -122 141 -122s142 54 142 132zM284 645c0 -37 -31 -68 -68 -68s-67 31 -67 68s30 67 67 67s68 -30 68 -67zM264 645c0 26 -22 47 -48 47s-47 -21 -47 -47s21 -48 47 -48s48 22 48 48z" />
    <glyph glyph-name="aring.alt" unicode="&#xf81e;" horiz-adv-x="438" 
d="M284 645c0 -37 -31 -68 -68 -68s-67 31 -67 68s30 67 67 67s68 -30 68 -67zM264 645c0 26 -22 47 -48 47s-47 -21 -47 -47s21 -48 47 -48s48 22 48 48zM353 10v55c-28 -47 -81 -75 -141 -75c-88 0 -162 51 -162 141c0 81 70 128 145 145l158 35v52c0 78 -47 132 -139 132
c-53 0 -95 -21 -119 -58c-3 -4 -9 -6 -14 -3c-5 2 -6 8 -4 13c3 5 36 68 137 68s159 -63 159 -152v-353c0 -5 -5 -10 -10 -10s-10 5 -10 10zM353 142v149l-154 -35c-72 -16 -129 -58 -129 -124c0 -77 61 -122 141 -122s142 54 142 132z" />
    <glyph glyph-name="Aringacute" unicode="&#x1fa;" horiz-adv-x="560" 
d="M530 8c0 -6 -5 -8 -10 -8c-4 0 -7 2 -9 7l-80 239h-302l-80 -239c-2 -5 -5 -7 -9 -7c-5 0 -10 3 -10 9c0 2 1 4 1 4l240 720c2 6 5 9 9 9s7 -3 9 -9l240 -720s1 -3 1 -5zM424 266l-144 432l-144 -432h288zM347 880c0 -37 -31 -68 -68 -68s-67 31 -67 68s30 67 67 67
s68 -30 68 -67zM327 880c0 26 -22 47 -48 47s-47 -21 -47 -47s21 -48 47 -48s48 22 48 48zM344 1099c0 -3 -1 -6 -4 -8l-109 -87s-3 -2 -6 -2c-6 0 -10 5 -10 10c0 3 1 6 4 8l109 87s2 2 6 2c6 0 10 -5 10 -10z" />
    <glyph glyph-name="aringacute" unicode="&#x1fb;" horiz-adv-x="438" 
d="M373 142c0 -91 -73 -152 -161 -152s-162 51 -162 141c0 81 70 128 145 145l158 35v52c0 78 -47 132 -139 132c-53 0 -95 -21 -119 -58c-3 -4 -9 -6 -14 -3c-5 2 -6 8 -4 13c3 5 36 68 137 68s159 -63 159 -152v-221zM353 142v149l-154 -35c-72 -16 -129 -58 -129 -124
c0 -77 61 -122 141 -122s142 54 142 132zM284 645c0 -37 -31 -68 -68 -68s-67 31 -67 68s30 67 67 67s68 -30 68 -67zM264 645c0 26 -22 47 -48 47s-47 -21 -47 -47s21 -48 47 -48s48 22 48 48zM281 854c0 -3 -1 -6 -4 -8l-109 -87s-3 -2 -6 -2c-6 0 -10 5 -10 10
c0 3 1 6 4 8l109 87s2 2 6 2c6 0 10 -5 10 -10z" />
    <glyph glyph-name="aringacute.alt" unicode="&#xf81f;" horiz-adv-x="438" 
d="M284 645c0 -37 -31 -68 -68 -68s-67 31 -67 68s30 67 67 67s68 -30 68 -67zM264 645c0 26 -22 47 -48 47s-47 -21 -47 -47s21 -48 47 -48s48 22 48 48zM281 854c0 -3 -1 -6 -4 -8l-109 -87s-3 -2 -6 -2c-6 0 -10 5 -10 10c0 3 1 6 4 8l109 87s2 2 6 2c6 0 10 -5 10 -10z
M353 10v55c-28 -47 -81 -75 -141 -75c-88 0 -162 51 -162 141c0 81 70 128 145 145l158 35v52c0 78 -47 132 -139 132c-53 0 -95 -21 -119 -58c-3 -4 -9 -6 -14 -3c-5 2 -6 8 -4 13c3 5 36 68 137 68s159 -63 159 -152v-353c0 -5 -5 -10 -10 -10s-10 5 -10 10zM353 142v149
l-154 -35c-72 -16 -129 -58 -129 -124c0 -77 61 -122 141 -122s142 54 142 132z" />
    <glyph glyph-name="Amacron" unicode="&#x100;" horiz-adv-x="560" 
d="M530 8c0 -6 -5 -8 -10 -8c-4 0 -7 2 -9 7l-80 239h-302l-80 -239c-2 -5 -5 -7 -9 -7c-5 0 -10 3 -10 9c0 2 1 4 1 4l240 720c2 6 5 9 9 9s7 -3 9 -9l240 -720s1 -3 1 -5zM424 266l-144 432l-144 -432h288zM368 852c0 -5 -2 -10 -9 -10h-158c-7 0 -10 5 -10 10s3 10 10 10
h158c7 0 9 -5 9 -10z" />
    <glyph glyph-name="amacron" unicode="&#x101;" horiz-adv-x="438" 
d="M373 142c0 -91 -73 -152 -161 -152s-162 51 -162 141c0 81 70 128 145 145l158 35v52c0 78 -47 132 -139 132c-53 0 -95 -21 -119 -58c-3 -4 -9 -6 -14 -3c-5 2 -6 8 -4 13c3 5 36 68 137 68s159 -63 159 -152v-221zM353 142v149l-154 -35c-72 -16 -129 -58 -129 -124
c0 -77 61 -122 141 -122s142 54 142 132zM315 617c0 -5 -2 -10 -9 -10h-158c-7 0 -10 5 -10 10s3 10 10 10h158c7 0 9 -5 9 -10z" />
    <glyph glyph-name="amacron.alt" unicode="&#xf820;" horiz-adv-x="438" 
d="M315 617c0 -5 -2 -10 -9 -10h-158c-7 0 -10 5 -10 10s3 10 10 10h158c7 0 9 -5 9 -10zM353 10v55c-28 -47 -81 -75 -141 -75c-88 0 -162 51 -162 141c0 81 70 128 145 145l158 35v52c0 78 -47 132 -139 132c-53 0 -95 -21 -119 -58c-3 -4 -9 -6 -14 -3c-5 2 -6 8 -4 13
c3 5 36 68 137 68s159 -63 159 -152v-353c0 -5 -5 -10 -10 -10s-10 5 -10 10zM353 142v149l-154 -35c-72 -16 -129 -58 -129 -124c0 -77 61 -122 141 -122s142 54 142 132z" />
    <glyph glyph-name="Abreve" unicode="&#x102;" horiz-adv-x="560" 
d="M530 8c0 -6 -5 -8 -10 -8c-4 0 -7 2 -9 7l-80 239h-302l-80 -239c-2 -5 -5 -7 -9 -7c-5 0 -10 3 -10 9c0 2 1 4 1 4l240 720c2 6 5 9 9 9s7 -3 9 -9l240 -720s1 -3 1 -5zM424 266l-144 432l-144 -432h288zM369 911c0 -49 -40 -89 -89 -89s-89 40 -89 89c0 7 5 10 10 10
s10 -3 10 -10c0 -38 31 -69 69 -69s69 31 69 69c0 7 5 10 10 10s10 -3 10 -10z" />
    <glyph glyph-name="abreve" unicode="&#x103;" horiz-adv-x="438" 
d="M373 142c0 -91 -73 -152 -161 -152s-162 51 -162 141c0 81 70 128 145 145l158 35v52c0 78 -47 132 -139 132c-53 0 -95 -21 -119 -58c-3 -4 -9 -6 -14 -3c-5 2 -6 8 -4 13c3 5 36 68 137 68s159 -63 159 -152v-221zM353 142v149l-154 -35c-72 -16 -129 -58 -129 -124
c0 -77 61 -122 141 -122s142 54 142 132zM315 676c0 -49 -40 -89 -89 -89s-89 40 -89 89c0 7 5 10 10 10s10 -3 10 -10c0 -38 31 -69 69 -69s69 31 69 69c0 7 5 10 10 10s10 -3 10 -10z" />
    <glyph glyph-name="abreve.alt" unicode="&#xf821;" horiz-adv-x="438" 
d="M315 676c0 -49 -40 -89 -89 -89s-89 40 -89 89c0 7 5 10 10 10s10 -3 10 -10c0 -38 31 -69 69 -69s69 31 69 69c0 7 5 10 10 10s10 -3 10 -10zM353 10v55c-28 -47 -81 -75 -141 -75c-88 0 -162 51 -162 141c0 81 70 128 145 145l158 35v52c0 78 -47 132 -139 132
c-53 0 -95 -21 -119 -58c-3 -4 -9 -6 -14 -3c-5 2 -6 8 -4 13c3 5 36 68 137 68s159 -63 159 -152v-353c0 -5 -5 -10 -10 -10s-10 5 -10 10zM353 142v149l-154 -35c-72 -16 -129 -58 -129 -124c0 -77 61 -122 141 -122s142 54 142 132z" />
    <glyph glyph-name="Aogonek" unicode="&#x104;" horiz-adv-x="560" 
d="M396 -156c0 -52 49 -55 68 -55c16 0 45 9 70 43c3 4 6 5 9 5c5 0 9 -4 9 -9c0 -4 -4 -9 -8 -14c-19 -21 -48 -42 -81 -42c-37 0 -86 12 -86 71c0 56 70 115 117 152c5 4 11 9 16 13l-79 238h-302l-80 -239c-2 -5 -5 -7 -9 -7c-5 0 -10 3 -10 9c0 2 1 4 1 4l240 720
c2 6 5 9 9 9s7 -3 9 -9l240 -720s1 -3 1 -5c0 -3 -1 -5 -3 -7s-12 -9 -20 -16c-42 -37 -111 -94 -111 -141zM424 266l-144 432l-144 -432h288z" />
    <glyph glyph-name="aogonek" unicode="&#x105;" horiz-adv-x="438" 
d="M194 -126c0 -52 49 -55 68 -55c16 0 45 9 70 43c3 4 6 5 9 5c5 0 9 -4 9 -9c0 -4 -4 -9 -8 -14c-19 -21 -48 -42 -81 -42c-37 0 -86 12 -86 71c0 43 41 88 81 123c-14 -4 -29 -6 -44 -6c-88 0 -162 51 -162 141c0 81 70 128 145 145l158 35v52c0 78 -47 132 -139 132
c-53 0 -95 -21 -119 -58c-3 -4 -9 -6 -14 -3c-5 2 -6 8 -4 13c3 5 36 68 137 68s159 -63 159 -152v-221c0 -58 -28 -96 -68 -127c-44 -35 -111 -94 -111 -141zM353 142v149l-154 -35c-72 -16 -129 -58 -129 -124c0 -77 61 -122 141 -122s142 54 142 132z" />
    <glyph glyph-name="aogonek.alt" unicode="&#xf822;" horiz-adv-x="438" 
d="M239 -154c0 -52 49 -55 68 -55c16 0 45 9 70 43c3 4 6 5 9 5c5 0 9 -4 9 -9c0 -4 -4 -9 -8 -14c-19 -21 -48 -42 -81 -42c-37 0 -86 12 -86 71c0 56 70 115 117 152c5 4 11 9 16 13v55c-28 -47 -81 -75 -141 -75c-88 0 -162 51 -162 141c0 81 70 128 145 145l158 35v52
c0 78 -47 132 -139 132c-53 0 -95 -21 -119 -58c-3 -4 -9 -6 -14 -3c-5 2 -6 8 -4 13c3 5 36 68 137 68s159 -63 159 -152v-353c0 -4 -2 -7 -5 -9c-4 -3 -11 -8 -18 -14c-44 -35 -111 -94 -111 -141zM353 142v149l-154 -35c-72 -16 -129 -58 -129 -124
c0 -77 61 -122 141 -122s142 54 142 132z" />
    <glyph glyph-name="AE" unicode="&#xc6;" horiz-adv-x="935" 
d="M875 730c0 -5 -3 -10 -10 -10h-365v-322h335c7 0 10 -5 10 -10s-3 -10 -10 -10h-335v-358h365c7 0 10 -5 10 -10s-3 -10 -10 -10h-375c-5 0 -10 3 -10 10v236h-300l-162 -242c-2 -3 -5 -4 -8 -4c-5 0 -10 4 -10 10c0 2 1 4 2 6l476 714c5 8 13 10 18 10h369
c7 0 10 -5 10 -10zM480 266v431l-287 -431h287z" />
    <glyph glyph-name="ae" unicode="&#xe6;" horiz-adv-x="763" 
d="M703 280c0 -5 -5 -10 -10 -10h-320v-105c0 -85 79 -155 165 -155c43 0 104 17 130 56c3 4 9 6 13 4c5 -3 7 -9 4 -14c-1 -1 -45 -66 -147 -66c-73 0 -142 45 -171 109c-19 -66 -82 -109 -155 -109c-88 0 -162 51 -162 141c0 81 70 128 145 145l158 35v52
c0 78 -47 132 -139 132c-53 0 -95 -21 -119 -58c-3 -4 -9 -6 -14 -3c-5 2 -6 8 -4 13c3 5 36 68 137 68c82 0 136 -42 153 -106c27 62 89 106 161 106c97 0 175 -78 175 -175v-60zM683 290v50c0 86 -69 155 -155 155s-155 -69 -155 -155v-50h310zM353 141v150l-154 -35
c-72 -16 -129 -58 -129 -124c0 -77 61 -122 141 -122s142 54 142 131z" />
    <glyph glyph-name="AEacute" unicode="&#x1fc;" horiz-adv-x="935" 
d="M875 730c0 -5 -3 -10 -10 -10h-365v-322h335c7 0 10 -5 10 -10s-3 -10 -10 -10h-335v-358h365c7 0 10 -5 10 -10s-3 -10 -10 -10h-375c-5 0 -10 3 -10 10v236h-300l-162 -242c-2 -3 -5 -4 -8 -4c-5 0 -10 4 -10 10c0 2 1 4 2 6l476 714c5 8 13 10 18 10h369
c7 0 10 -5 10 -10zM480 266v431l-287 -431h287zM656 909c0 -3 -1 -6 -4 -8l-109 -87s-3 -2 -6 -2c-6 0 -10 5 -10 10c0 3 1 6 4 8l109 87s2 2 6 2c6 0 10 -5 10 -10z" />
    <glyph glyph-name="aeacute" unicode="&#x1fd;" horiz-adv-x="763" 
d="M703 280c0 -5 -5 -10 -10 -10h-320v-105c0 -85 79 -155 165 -155c43 0 104 17 130 56c3 4 9 6 13 4c5 -3 7 -9 4 -14c-1 -1 -45 -66 -147 -66c-73 0 -142 45 -171 109c-19 -66 -82 -109 -155 -109c-88 0 -162 51 -162 141c0 81 70 128 145 145l158 35v52
c0 78 -47 132 -139 132c-53 0 -95 -21 -119 -58c-3 -4 -9 -6 -14 -3c-5 2 -6 8 -4 13c3 5 36 68 137 68c82 0 136 -42 153 -106c27 62 89 106 161 106c97 0 175 -78 175 -175v-60zM683 290v50c0 86 -69 155 -155 155s-155 -69 -155 -155v-50h310zM353 141v150l-154 -35
c-72 -16 -129 -58 -129 -124c0 -77 61 -122 141 -122s142 54 142 131zM481 674c0 -3 -1 -6 -4 -8l-109 -87s-3 -2 -6 -2c-6 0 -10 5 -10 10c0 3 1 6 4 8l109 87s2 2 6 2c6 0 10 -5 10 -10z" />
    <glyph glyph-name="Ccedilla" unicode="&#xc7;" horiz-adv-x="557" 
d="M346 -119c0 -35 -28 -63 -63 -63c-7 0 -10 5 -10 10s3 10 10 10c23 0 43 20 43 43s-20 42 -43 42c-7 0 -12 6 -10 12l20 55c-129 3 -233 108 -233 238v284c0 131 107 238 238 238c69 0 160 -31 206 -88c2 -2 2 -4 2 -6c0 -5 -5 -10 -10 -10c-3 0 -6 1 -8 4
c0 0 -3 5 -11 12c-48 45 -114 68 -179 68c-120 0 -218 -98 -218 -218v-284c0 -120 98 -218 218 -218c64 0 148 27 190 80c2 3 5 4 8 4c5 0 11 -5 11 -10c0 -2 -1 -4 -3 -6c0 0 -5 -6 -14 -14c-48 -46 -111 -70 -177 -74l-16 -48c28 -6 49 -31 49 -61z" />
    <glyph glyph-name="ccedilla" unicode="&#xe7;" horiz-adv-x="406" 
d="M271 -120c0 -35 -28 -63 -63 -63c-7 0 -10 5 -10 10s3 10 10 10c23 0 43 20 43 43s-20 42 -43 42c-7 0 -12 6 -10 12l20 56c-96 5 -158 65 -158 152v221c0 90 67 152 169 152c101 0 134 -60 137 -65c2 -5 1 -11 -4 -13c-5 -3 -11 -1 -14 3c-20 36 -66 55 -119 55
c-92 0 -149 -55 -149 -132v-221c0 -77 57 -132 149 -132c53 0 99 19 119 55c3 4 9 6 14 3c5 -2 6 -8 4 -13c-3 -5 -34 -61 -128 -65l-16 -49c28 -6 49 -31 49 -61z" />
    <glyph glyph-name="Cacute" unicode="&#x106;" horiz-adv-x="557" 
d="M507 84c0 -2 -1 -4 -3 -6c0 0 -5 -6 -14 -14c-51 -49 -121 -74 -192 -74c-131 0 -238 107 -238 238v284c0 131 107 238 238 238c69 0 160 -31 206 -88c2 -2 2 -4 2 -6c0 -5 -5 -10 -10 -10c-3 0 -6 1 -8 4c0 0 -3 5 -11 12c-48 45 -114 68 -179 68
c-120 0 -218 -98 -218 -218v-284c0 -120 98 -218 218 -218c64 0 148 27 190 80c2 3 5 4 8 4c5 0 11 -5 11 -10zM353 909c0 -3 -1 -6 -4 -8l-109 -87s-3 -2 -6 -2c-6 0 -10 5 -10 10c0 3 1 6 4 8l109 87s2 2 6 2c6 0 10 -5 10 -10z" />
    <glyph glyph-name="cacute" unicode="&#x107;" horiz-adv-x="422" 
d="M371 55c-3 -5 -36 -65 -137 -65c-102 0 -169 62 -169 152v221c0 90 67 152 169 152c101 0 134 -60 137 -65c2 -5 1 -11 -4 -13c-5 -3 -11 -1 -14 3c-20 36 -66 55 -119 55c-92 0 -149 -55 -149 -132v-221c0 -77 57 -132 149 -132c53 0 99 19 119 55c3 4 9 6 14 3
c5 -2 6 -8 4 -13zM282 674c0 -3 -1 -6 -4 -8l-109 -87s-3 -2 -6 -2c-6 0 -10 5 -10 10c0 3 1 6 4 8l109 87s2 2 6 2c6 0 10 -5 10 -10z" />
    <glyph glyph-name="Cdotaccent" unicode="&#x10a;" horiz-adv-x="557" 
d="M507 84c0 -2 -1 -4 -3 -6c0 0 -5 -6 -14 -14c-51 -49 -121 -74 -192 -74c-131 0 -238 107 -238 238v284c0 131 107 238 238 238c69 0 160 -31 206 -88c2 -2 2 -4 2 -6c0 -5 -5 -10 -10 -10c-3 0 -6 1 -8 4c0 0 -3 5 -11 12c-48 45 -114 68 -179 68
c-120 0 -218 -98 -218 -218v-284c0 -120 98 -218 218 -218c64 0 148 27 190 80c2 3 5 4 8 4c5 0 11 -5 11 -10zM279 858c0 10 9 19 19 19s19 -9 19 -19s-9 -19 -19 -19s-19 9 -19 19z" />
    <glyph glyph-name="cdotaccent" unicode="&#x10b;" horiz-adv-x="422" 
d="M371 55c-3 -5 -36 -65 -137 -65c-102 0 -169 62 -169 152v221c0 90 67 152 169 152c101 0 134 -60 137 -65c2 -5 1 -11 -4 -13c-5 -3 -11 -1 -14 3c-20 36 -66 55 -119 55c-92 0 -149 -55 -149 -132v-221c0 -77 57 -132 149 -132c53 0 99 19 119 55c3 4 9 6 14 3
c5 -2 6 -8 4 -13zM209 623c0 10 9 19 19 19s19 -9 19 -19s-9 -19 -19 -19s-19 9 -19 19z" />
    <glyph glyph-name="Ccaron" unicode="&#x10c;" horiz-adv-x="557" 
d="M507 84c0 -2 -1 -4 -3 -6c0 0 -5 -6 -14 -14c-51 -49 -121 -74 -192 -74c-131 0 -238 107 -238 238v284c0 131 107 238 238 238c69 0 160 -31 206 -88c2 -2 2 -4 2 -6c0 -5 -5 -10 -10 -10c-3 0 -6 1 -8 4c0 0 -3 5 -11 12c-48 45 -114 68 -179 68
c-120 0 -218 -98 -218 -218v-284c0 -120 98 -218 218 -218c64 0 148 27 190 80c2 3 5 4 8 4c5 0 11 -5 11 -10zM388 909c0 -3 -1 -5 -4 -7l-79 -77c-1 -2 -4 -3 -6 -3c-3 0 -6 1 -7 3l-79 77c-3 2 -4 4 -4 7c0 5 5 10 11 10c2 0 4 -1 6 -3l72 -70l73 70c2 2 4 3 6 3
c6 0 11 -5 11 -10z" />
    <glyph glyph-name="ccaron" unicode="&#x10d;" horiz-adv-x="422" 
d="M371 55c-3 -5 -36 -65 -137 -65c-102 0 -169 62 -169 152v221c0 90 67 152 169 152c101 0 134 -60 137 -65c2 -5 1 -11 -4 -13c-5 -3 -11 -1 -14 3c-20 36 -66 55 -119 55c-92 0 -149 -55 -149 -132v-221c0 -77 57 -132 149 -132c53 0 99 19 119 55c3 4 9 6 14 3
c5 -2 6 -8 4 -13zM317 674c0 -3 -1 -5 -4 -7l-79 -77c-1 -2 -4 -3 -6 -3c-3 0 -6 1 -7 3l-79 77c-3 2 -4 4 -4 7c0 5 5 10 11 10c2 0 4 -1 6 -3l72 -70l73 70c2 2 4 3 6 3c6 0 11 -5 11 -10z" />
    <glyph glyph-name="Dcaron" unicode="&#x10e;" horiz-adv-x="601" 
d="M536 238c0 -131 -107 -238 -238 -238h-208c-5 0 -10 5 -10 10v720c0 5 5 10 10 10h208c131 0 238 -107 238 -238v-264zM516 238v264c0 120 -98 218 -218 218h-198v-700h198c120 0 218 98 218 218zM390 909c0 -3 -1 -5 -4 -7l-79 -77c-1 -2 -4 -3 -6 -3c-3 0 -6 1 -7 3
l-79 77c-3 2 -4 4 -4 7c0 5 5 10 11 10c2 0 4 -1 6 -3l72 -70l73 70c2 2 4 3 6 3c6 0 11 -5 11 -10z" />
    <glyph glyph-name="dcaron" unicode="&#x10f;" horiz-adv-x="589" 
d="M579 674c0 -3 -1 -6 -4 -8l-109 -87c-2 -1 -4 -2 -6 -2c-6 0 -10 5 -10 10c0 3 1 6 4 8l109 87c2 1 4 2 6 2c6 0 10 -5 10 -10zM415 165c0 -97 -78 -175 -175 -175s-175 78 -175 175v175c0 97 78 175 175 175c67 0 126 -38 155 -94v309c0 6 4 10 10 10s10 -4 10 -10v-565
zM395 165v175c0 86 -69 155 -155 155s-155 -69 -155 -155v-175c0 -86 69 -155 155 -155s155 69 155 155z" />
    <glyph glyph-name="dcaron.alt" unicode="&#xf823;" horiz-adv-x="589" 
d="M579 674c0 -3 -1 -6 -4 -8l-109 -87c-2 -1 -4 -2 -6 -2c-6 0 -10 5 -10 10c0 3 1 6 4 8l109 87c2 1 4 2 6 2c6 0 10 -5 10 -10zM395 10v73c-29 -55 -88 -93 -155 -93c-97 0 -175 78 -175 175v175c0 97 78 175 175 175c67 0 126 -38 155 -94v309c0 6 4 10 10 10
s10 -4 10 -10v-720c0 -5 -5 -10 -10 -10s-10 5 -10 10zM395 165v175c0 86 -69 155 -155 155s-155 -69 -155 -155v-175c0 -86 69 -155 155 -155s155 69 155 155z" />
    <glyph glyph-name="Eth" unicode="&#xd0;" horiz-adv-x="601" 
d="M536 238c0 -131 -107 -238 -238 -238h-208c-5 0 -10 5 -10 10v380h-70c-7 0 -10 5 -10 10s3 10 10 10h70v320c0 5 5 10 10 10h208c131 0 238 -107 238 -238v-264zM516 238v264c0 120 -98 218 -218 218h-198v-310h95c7 0 10 -5 10 -10s-3 -10 -10 -10h-95v-370h198
c120 0 218 98 218 218z" />
    <glyph glyph-name="Dcroat" unicode="&#x110;" horiz-adv-x="601" 
d="M536 238c0 -131 -107 -238 -238 -238h-208c-5 0 -10 5 -10 10v380h-70c-7 0 -10 5 -10 10s3 10 10 10h70v320c0 5 5 10 10 10h208c131 0 238 -107 238 -238v-264zM516 238v264c0 120 -98 218 -218 218h-198v-310h145c7 0 10 -5 10 -10s-3 -10 -10 -10h-145v-370h198
c120 0 218 98 218 218z" />
    <glyph glyph-name="dcroat" unicode="&#x111;" horiz-adv-x="485" 
d="M250 635h145v95c0 6 4 10 10 10s10 -4 10 -10v-95h70c7 0 10 -5 10 -10s-3 -10 -10 -10h-70v-450c0 -97 -78 -175 -175 -175s-175 78 -175 175v175c0 97 78 175 175 175c67 0 126 -38 155 -94v194h-145c-7 0 -10 5 -10 10s3 10 10 10zM395 165v175c0 86 -69 155 -155 155
s-155 -69 -155 -155v-175c0 -86 69 -155 155 -155s155 69 155 155z" />
    <glyph glyph-name="dcroat.alt" unicode="&#xf824;" horiz-adv-x="485" 
d="M395 10v73c-29 -55 -88 -93 -155 -93c-97 0 -175 78 -175 175v175c0 97 78 175 175 175c67 0 126 -38 155 -94v194h-145c-7 0 -10 5 -10 10s3 10 10 10h145v95c0 6 4 10 10 10s10 -4 10 -10v-95h70c7 0 10 -5 10 -10s-3 -10 -10 -10h-70v-605c0 -5 -5 -10 -10 -10
s-10 5 -10 10zM395 165v175c0 86 -69 155 -155 155s-155 -69 -155 -155v-175c0 -86 69 -155 155 -155s155 69 155 155z" />
    <glyph glyph-name="Egrave" unicode="&#xc8;" horiz-adv-x="525" 
d="M475 10c0 -5 -3 -10 -10 -10h-375c-5 0 -10 5 -10 10v720c0 5 5 10 10 10h375c7 0 10 -5 10 -10s-3 -10 -10 -10h-365v-322h335c7 0 10 -5 10 -10s-3 -10 -10 -10h-335v-358h365c7 0 10 -5 10 -10zM198 909c0 5 4 10 10 10c4 0 6 -2 6 -2l109 -87c3 -2 4 -5 4 -8
c0 -5 -4 -10 -10 -10c-3 0 -6 2 -6 2l-109 87c-3 2 -4 5 -4 8z" />
    <glyph glyph-name="egrave" unicode="&#xe8;" horiz-adv-x="475" 
d="M415 280c0 -5 -5 -10 -10 -10h-320v-105c0 -85 79 -155 165 -155c43 0 104 17 130 56c3 4 9 6 13 4c5 -3 7 -9 4 -14c-1 -1 -45 -66 -147 -66c-96 0 -185 78 -185 175v175c0 97 78 175 175 175s175 -78 175 -175v-60zM395 290v50c0 86 -69 155 -155 155
s-155 -69 -155 -155v-50h310zM170 674c0 5 4 10 10 10c4 0 6 -2 6 -2l109 -87c3 -2 4 -5 4 -8c0 -5 -4 -10 -10 -10c-3 0 -6 2 -6 2l-109 87c-3 2 -4 5 -4 8z" />
    <glyph glyph-name="Eacute" unicode="&#xc9;" horiz-adv-x="525" 
d="M475 10c0 -5 -3 -10 -10 -10h-375c-5 0 -10 5 -10 10v720c0 5 5 10 10 10h375c7 0 10 -5 10 -10s-3 -10 -10 -10h-365v-322h335c7 0 10 -5 10 -10s-3 -10 -10 -10h-335v-358h365c7 0 10 -5 10 -10zM347 909c0 -3 -1 -6 -4 -8l-109 -87s-3 -2 -6 -2c-6 0 -10 5 -10 10
c0 3 1 6 4 8l109 87s2 2 6 2c6 0 10 -5 10 -10z" />
    <glyph glyph-name="eacute" unicode="&#xe9;" horiz-adv-x="475" 
d="M415 280c0 -5 -5 -10 -10 -10h-320v-105c0 -85 79 -155 165 -155c43 0 104 17 130 56c3 4 9 6 13 4c5 -3 7 -9 4 -14c-1 -1 -45 -66 -147 -66c-96 0 -185 78 -185 175v175c0 97 78 175 175 175s175 -78 175 -175v-60zM395 290v50c0 86 -69 155 -155 155
s-155 -69 -155 -155v-50h310zM299 674c0 -3 -1 -6 -4 -8l-109 -87s-3 -2 -6 -2c-6 0 -10 5 -10 10c0 3 1 6 4 8l109 87s2 2 6 2c6 0 10 -5 10 -10z" />
    <glyph glyph-name="Ecircumflex" unicode="&#xca;" horiz-adv-x="525" 
d="M475 10c0 -5 -3 -10 -10 -10h-375c-5 0 -10 5 -10 10v720c0 5 5 10 10 10h375c7 0 10 -5 10 -10s-3 -10 -10 -10h-365v-322h335c7 0 10 -5 10 -10s-3 -10 -10 -10h-335v-358h365c7 0 10 -5 10 -10zM372 832c0 -5 -6 -10 -11 -10c-2 0 -4 1 -6 3l-72 70l-73 -70
c-2 -2 -4 -3 -6 -3c-5 0 -11 5 -11 10c0 2 2 5 4 7l79 77c2 2 4 3 7 3s4 -1 6 -3l79 -77c2 -2 4 -5 4 -7z" />
    <glyph glyph-name="ecircumflex" unicode="&#xea;" horiz-adv-x="475" 
d="M415 280c0 -5 -5 -10 -10 -10h-320v-105c0 -85 79 -155 165 -155c43 0 104 17 130 56c3 4 9 6 13 4c5 -3 7 -9 4 -14c-1 -1 -45 -66 -147 -66c-96 0 -185 78 -185 175v175c0 97 78 175 175 175s175 -78 175 -175v-60zM395 290v50c0 86 -69 155 -155 155
s-155 -69 -155 -155v-50h310zM324 597c0 -5 -6 -10 -11 -10c-2 0 -4 1 -6 3l-72 70l-73 -70c-2 -2 -4 -3 -6 -3c-5 0 -11 5 -11 10c0 2 2 5 4 7l79 77c2 2 4 3 7 3s4 -1 6 -3l79 -77c2 -2 4 -5 4 -7z" />
    <glyph glyph-name="Edieresis" unicode="&#xcb;" horiz-adv-x="525" 
d="M475 10c0 -5 -3 -10 -10 -10h-375c-5 0 -10 5 -10 10v720c0 5 5 10 10 10h375c7 0 10 -5 10 -10s-3 -10 -10 -10h-365v-322h335c7 0 10 -5 10 -10s-3 -10 -10 -10h-335v-358h365c7 0 10 -5 10 -10zM173 848c0 10 9 19 19 19s19 -9 19 -19s-9 -19 -19 -19s-19 9 -19 19z
M314 848c0 10 9 19 19 19s19 -9 19 -19s-9 -19 -19 -19s-19 9 -19 19z" />
    <glyph glyph-name="edieresis" unicode="&#xeb;" horiz-adv-x="475" 
d="M415 280c0 -5 -5 -10 -10 -10h-320v-105c0 -85 79 -155 165 -155c43 0 104 17 130 56c3 4 9 6 13 4c5 -3 7 -9 4 -14c-1 -1 -45 -66 -147 -66c-96 0 -185 78 -185 175v175c0 97 78 175 175 175s175 -78 175 -175v-60zM395 290v50c0 86 -69 155 -155 155
s-155 -69 -155 -155v-50h310zM145 613c0 10 9 19 19 19s19 -9 19 -19s-9 -19 -19 -19s-19 9 -19 19zM286 613c0 10 9 19 19 19s19 -9 19 -19s-9 -19 -19 -19s-19 9 -19 19z" />
    <glyph glyph-name="Emacron" unicode="&#x112;" horiz-adv-x="525" 
d="M475 10c0 -5 -3 -10 -10 -10h-375c-5 0 -10 5 -10 10v720c0 5 5 10 10 10h375c7 0 10 -5 10 -10s-3 -10 -10 -10h-365v-322h335c7 0 10 -5 10 -10s-3 -10 -10 -10h-335v-358h365c7 0 10 -5 10 -10zM351 852c0 -5 -2 -10 -9 -10h-158c-7 0 -10 5 -10 10s3 10 10 10h158
c7 0 9 -5 9 -10z" />
    <glyph glyph-name="emacron" unicode="&#x113;" horiz-adv-x="475" 
d="M415 280c0 -5 -5 -10 -10 -10h-320v-105c0 -85 79 -155 165 -155c43 0 104 17 130 56c3 4 9 6 13 4c5 -3 7 -9 4 -14c-1 -1 -45 -66 -147 -66c-96 0 -185 78 -185 175v175c0 97 78 175 175 175s175 -78 175 -175v-60zM395 290v50c0 86 -69 155 -155 155
s-155 -69 -155 -155v-50h310zM323 617c0 -5 -2 -10 -9 -10h-158c-7 0 -10 5 -10 10s3 10 10 10h158c7 0 9 -5 9 -10z" />
    <glyph glyph-name="Ebreve" unicode="&#x114;" horiz-adv-x="525" 
d="M475 10c0 -5 -3 -10 -10 -10h-375c-5 0 -10 5 -10 10v720c0 5 5 10 10 10h375c7 0 10 -5 10 -10s-3 -10 -10 -10h-365v-322h335c7 0 10 -5 10 -10s-3 -10 -10 -10h-335v-358h365c7 0 10 -5 10 -10zM351 911c0 -49 -40 -89 -89 -89s-89 40 -89 89c0 7 5 10 10 10
s10 -3 10 -10c0 -38 31 -69 69 -69s69 31 69 69c0 7 5 10 10 10s10 -3 10 -10z" />
    <glyph glyph-name="ebreve" unicode="&#x115;" horiz-adv-x="475" 
d="M415 280c0 -5 -5 -10 -10 -10h-320v-105c0 -85 79 -155 165 -155c43 0 104 17 130 56c3 4 9 6 13 4c5 -3 7 -9 4 -14c-1 -1 -45 -66 -147 -66c-96 0 -185 78 -185 175v175c0 97 78 175 175 175s175 -78 175 -175v-60zM395 290v50c0 86 -69 155 -155 155
s-155 -69 -155 -155v-50h310zM324 676c0 -49 -40 -89 -89 -89s-89 40 -89 89c0 7 5 10 10 10s10 -3 10 -10c0 -38 31 -69 69 -69s69 31 69 69c0 7 5 10 10 10s10 -3 10 -10z" />
    <glyph glyph-name="Edotaccent" unicode="&#x116;" horiz-adv-x="525" 
d="M475 10c0 -5 -3 -10 -10 -10h-375c-5 0 -10 5 -10 10v720c0 5 5 10 10 10h375c7 0 10 -5 10 -10s-3 -10 -10 -10h-365v-322h335c7 0 10 -5 10 -10s-3 -10 -10 -10h-335v-358h365c7 0 10 -5 10 -10zM243 858c0 10 9 19 19 19s19 -9 19 -19s-9 -19 -19 -19s-19 9 -19 19z
" />
    <glyph glyph-name="edotaccent" unicode="&#x117;" horiz-adv-x="475" 
d="M415 280c0 -5 -5 -10 -10 -10h-320v-105c0 -85 79 -155 165 -155c43 0 104 17 130 56c3 4 9 6 13 4c5 -3 7 -9 4 -14c-1 -1 -45 -66 -147 -66c-96 0 -185 78 -185 175v175c0 97 78 175 175 175s175 -78 175 -175v-60zM395 290v50c0 86 -69 155 -155 155
s-155 -69 -155 -155v-50h310zM216 623c0 10 9 19 19 19s19 -9 19 -19s-9 -19 -19 -19s-19 9 -19 19z" />
    <glyph glyph-name="Eogonek" unicode="&#x118;" horiz-adv-x="525" 
d="M340 -155c0 -52 49 -55 68 -55c16 0 45 9 70 43c3 4 6 5 9 5c5 0 9 -4 9 -9c0 -4 -4 -9 -8 -14c-19 -21 -48 -42 -81 -42c-37 0 -86 12 -86 71c0 56 70 115 117 152l5 4h-353c-5 0 -10 5 -10 10v720c0 5 5 10 10 10h375c7 0 10 -5 10 -10s-3 -10 -10 -10h-365v-322h335
c7 0 10 -5 10 -10s-3 -10 -10 -10h-335v-358h365c7 0 10 -5 10 -10c0 -7 -15 -16 -24 -24c-44 -35 -111 -94 -111 -141z" />
    <glyph glyph-name="eogonek" unicode="&#x119;" horiz-adv-x="475" 
d="M230 -134c0 -52 46 -55 65 -55c31 0 58 21 73 43c3 4 6 5 9 5c5 0 9 -4 9 -9c0 -11 -41 -56 -91 -56c-37 0 -84 12 -84 71c0 47 48 95 91 132c-15 -4 -32 -7 -52 -7c-96 0 -185 78 -185 175v175c0 97 78 175 175 175s175 -78 175 -175v-60c0 -5 -5 -10 -10 -10h-320v-105
c0 -85 79 -155 165 -155c43 0 104 17 130 56c2 3 6 5 10 5c5 0 9 -5 9 -9c0 -2 -1 -4 -2 -6c-24 -41 -167 -109 -167 -190zM395 290v50c0 86 -69 155 -155 155s-155 -69 -155 -155v-50h310z" />
    <glyph glyph-name="Ecaron" unicode="&#x11a;" horiz-adv-x="525" 
d="M475 10c0 -5 -3 -10 -10 -10h-375c-5 0 -10 5 -10 10v720c0 5 5 10 10 10h375c7 0 10 -5 10 -10s-3 -10 -10 -10h-365v-322h335c7 0 10 -5 10 -10s-3 -10 -10 -10h-335v-358h365c7 0 10 -5 10 -10zM362 909c0 -3 -1 -5 -4 -7l-79 -77c-1 -2 -4 -3 -6 -3c-3 0 -6 1 -7 3
l-79 77c-3 2 -4 4 -4 7c0 5 5 10 11 10c2 0 4 -1 6 -3l72 -70l73 70c2 2 4 3 6 3c6 0 11 -5 11 -10z" />
    <glyph glyph-name="ecaron" unicode="&#x11b;" horiz-adv-x="475" 
d="M415 280c0 -5 -5 -10 -10 -10h-320v-105c0 -85 79 -155 165 -155c43 0 104 17 130 56c3 4 9 6 13 4c5 -3 7 -9 4 -14c-1 -1 -45 -66 -147 -66c-96 0 -185 78 -185 175v175c0 97 78 175 175 175s175 -78 175 -175v-60zM395 290v50c0 86 -69 155 -155 155
s-155 -69 -155 -155v-50h310zM330 674c0 -3 -1 -5 -4 -7l-79 -77c-1 -2 -4 -3 -6 -3c-3 0 -6 1 -7 3l-79 77c-3 2 -4 4 -4 7c0 5 5 10 11 10c2 0 4 -1 6 -3l72 -70l73 70c2 2 4 3 6 3c6 0 11 -5 11 -10z" />
    <glyph glyph-name="Gbreve" unicode="&#x11e;" horiz-adv-x="596" 
d="M536 228c0 -131 -107 -238 -238 -238s-238 107 -238 238v284c0 131 107 238 238 238c136 0 205 -87 206 -88c8 -10 -8 -23 -16 -12c0 0 -4 5 -11 12c-48 45 -114 68 -179 68c-120 0 -218 -98 -218 -218v-284c0 -120 98 -218 218 -218s218 98 218 218v128h-210
c-13 0 -13 20 0 20h220c5 0 10 -5 10 -10v-138zM387 911c0 -49 -40 -89 -89 -89s-89 40 -89 89c0 7 5 10 10 10s10 -3 10 -10c0 -38 31 -69 69 -69s69 31 69 69c0 7 5 10 10 10s10 -3 10 -10z" />
    <glyph glyph-name="gbreve" unicode="&#x11f;" horiz-adv-x="485" 
d="M415 -25c0 -97 -78 -175 -175 -175c-102 0 -145 63 -146 64c-3 5 -1 11 4 14c4 3 10 0 13 -4c30 -34 76 -54 129 -54c86 0 155 69 155 155v124c-29 -56 -88 -94 -155 -94c-97 0 -175 78 -175 175v160c0 97 78 175 175 175s175 -78 175 -175v-365zM395 180v160
c0 86 -69 155 -155 155s-155 -69 -155 -155v-160c0 -86 69 -155 155 -155s155 69 155 155zM329 676c0 -49 -40 -89 -89 -89s-89 40 -89 89c0 7 5 10 10 10s10 -3 10 -10c0 -38 31 -69 69 -69s69 31 69 69c0 7 5 10 10 10s10 -3 10 -10z" />
    <glyph glyph-name="Gdotaccent" unicode="&#x120;" horiz-adv-x="596" 
d="M536 228c0 -131 -107 -238 -238 -238s-238 107 -238 238v284c0 131 107 238 238 238c136 0 205 -87 206 -88c8 -10 -8 -23 -16 -12c0 0 -4 5 -11 12c-48 45 -114 68 -179 68c-120 0 -218 -98 -218 -218v-284c0 -120 98 -218 218 -218s218 98 218 218v128h-210
c-13 0 -13 20 0 20h220c5 0 10 -5 10 -10v-138zM279 858c0 10 9 19 19 19s19 -9 19 -19s-9 -19 -19 -19s-19 9 -19 19z" />
    <glyph glyph-name="gdotaccent" unicode="&#x121;" horiz-adv-x="485" 
d="M415 -25c0 -97 -78 -175 -175 -175c-102 0 -145 63 -146 64c-3 5 -1 11 4 14c4 3 10 0 13 -4c30 -34 76 -54 129 -54c86 0 155 69 155 155v124c-29 -56 -88 -94 -155 -94c-97 0 -175 78 -175 175v160c0 97 78 175 175 175s175 -78 175 -175v-365zM395 180v160
c0 86 -69 155 -155 155s-155 -69 -155 -155v-160c0 -86 69 -155 155 -155s155 69 155 155zM221 623c0 10 9 19 19 19s19 -9 19 -19s-9 -19 -19 -19s-19 9 -19 19z" />
    <glyph glyph-name="Gcommaaccent" unicode="&#x122;" horiz-adv-x="596" 
d="M536 228c0 -131 -107 -238 -238 -238s-238 107 -238 238v284c0 131 107 238 238 238c136 0 205 -87 206 -88c8 -10 -8 -23 -16 -12c0 0 -4 5 -11 12c-48 45 -114 68 -179 68c-120 0 -218 -98 -218 -218v-284c0 -120 98 -218 218 -218s218 98 218 218v128h-210
c-13 0 -13 20 0 20h220c5 0 10 -5 10 -10v-138zM322 -83c0 -72 -24 -114 -73 -158c-2 -2 -4 -2 -6 -2c-6 0 -10 5 -10 10c0 3 1 6 4 8c0 0 5 4 13 12c32 30 52 63 52 130c0 7 5 10 10 10s10 -3 10 -10z" />
    <glyph glyph-name="gcommaaccent" unicode="&#x123;" horiz-adv-x="485" 
d="M415 -25c0 -97 -78 -175 -175 -175c-102 0 -145 63 -146 64c-3 5 -1 11 4 14c4 3 10 0 13 -4c30 -34 76 -54 129 -54c86 0 155 69 155 155v124c-29 -56 -88 -94 -155 -94c-97 0 -175 78 -175 175v160c0 97 78 175 175 175s175 -78 175 -175v-365zM395 180v160
c0 86 -69 155 -155 155s-155 -69 -155 -155v-160c0 -86 69 -155 155 -155s155 69 155 155zM217 597c0 72 24 114 73 158c2 2 4 2 6 2c6 0 10 -5 10 -10c0 -3 -1 -6 -4 -8c0 0 -5 -4 -13 -12c-32 -30 -52 -63 -52 -130c0 -7 -5 -10 -10 -10s-10 3 -10 10z" />
    <glyph glyph-name="Hbar" unicode="&#x126;" horiz-adv-x="616" 
d="M536 10c0 -7 -5 -10 -10 -10s-10 3 -10 10v370h-416v-370c0 -7 -5 -10 -10 -10s-10 3 -10 10v557h-61c-7 0 -10 5 -10 10s3 10 10 10h61v143c0 7 5 10 10 10s10 -3 10 -10v-143h416v143c0 7 5 10 10 10s10 -3 10 -10v-143h60c7 0 10 -5 10 -10s-3 -10 -10 -10h-60v-557z
M100 400h416v167h-416v-167z" />
    <glyph glyph-name="hbar" unicode="&#x127;" 
d="M420 10c0 -6 -4 -10 -10 -10s-10 4 -10 10v330c0 86 -69 155 -155 155s-155 -69 -155 -155v-330c0 -6 -4 -10 -10 -10s-10 4 -10 10v605h-70c-7 0 -10 5 -10 10s3 10 10 10h70v95c0 6 4 10 10 10s10 -4 10 -10v-95h145c7 0 10 -5 10 -10s-3 -10 -10 -10h-145v-194
c29 56 88 94 155 94c97 0 175 -78 175 -175v-330z" />
    <glyph glyph-name="Igrave" unicode="&#xcc;" horiz-adv-x="420" 
d="M380 10c0 -5 -3 -10 -10 -10h-320c-7 0 -10 5 -10 10s3 10 10 10h150v700h-150c-7 0 -10 5 -10 10s3 10 10 10h320c7 0 10 -5 10 -10s-3 -10 -10 -10h-150v-700h150c7 0 10 -5 10 -10zM145 909c0 5 4 10 10 10c4 0 6 -2 6 -2l109 -87c3 -2 4 -5 4 -8c0 -5 -4 -10 -10 -10
c-3 0 -6 2 -6 2l-109 87c-3 2 -4 5 -4 8z" />
    <glyph glyph-name="Igrave.alt" unicode="&#xf814;" horiz-adv-x="180" 
d="M25 909c0 5 4 10 10 10c4 0 6 -2 6 -2l109 -87c3 -2 4 -5 4 -8c0 -5 -4 -10 -10 -10c-3 0 -6 2 -6 2l-109 87c-3 2 -4 5 -4 8zM100 730v-720c0 -7 -5 -10 -10 -10s-10 3 -10 10v720c0 7 5 10 10 10s10 -3 10 -10z" />
    <glyph glyph-name="igrave" unicode="&#xec;" horiz-adv-x="160" 
d="M90 10c0 -5 -5 -10 -10 -10s-10 5 -10 10v485c0 5 5 10 10 10s10 -5 10 -10v-485zM16 674c0 5 4 10 10 10c4 0 6 -2 6 -2l109 -87c3 -2 4 -5 4 -8c0 -5 -4 -10 -10 -10c-3 0 -6 2 -6 2l-109 87c-3 2 -4 5 -4 8z" />
    <glyph glyph-name="Iacute" unicode="&#xcd;" horiz-adv-x="420" 
d="M380 10c0 -5 -3 -10 -10 -10h-320c-7 0 -10 5 -10 10s3 10 10 10h150v700h-150c-7 0 -10 5 -10 10s3 10 10 10h320c7 0 10 -5 10 -10s-3 -10 -10 -10h-150v-700h150c7 0 10 -5 10 -10zM274 909c0 -3 -1 -6 -4 -8l-109 -87s-3 -2 -6 -2c-6 0 -10 5 -10 10c0 3 1 6 4 8
l109 87s2 2 6 2c6 0 10 -5 10 -10z" />
    <glyph glyph-name="Iacute.alt" unicode="&#xf811;" horiz-adv-x="180" 
d="M154 909c0 -3 -1 -6 -4 -8l-109 -87s-3 -2 -6 -2c-6 0 -10 5 -10 10c0 3 1 6 4 8l109 87s2 2 6 2c6 0 10 -5 10 -10zM100 730v-720c0 -7 -5 -10 -10 -10s-10 3 -10 10v720c0 7 5 10 10 10s10 -3 10 -10z" />
    <glyph glyph-name="iacute" unicode="&#xed;" horiz-adv-x="160" 
d="M90 10c0 -5 -5 -10 -10 -10s-10 5 -10 10v485c0 5 5 10 10 10s10 -5 10 -10v-485zM145 674c0 -3 -1 -6 -4 -8l-109 -87s-3 -2 -6 -2c-6 0 -10 5 -10 10c0 3 1 6 4 8l109 87s2 2 6 2c6 0 10 -5 10 -10z" />
    <glyph glyph-name="Icircumflex" unicode="&#xce;" horiz-adv-x="420" 
d="M380 10c0 -5 -3 -10 -10 -10h-320c-7 0 -10 5 -10 10s3 10 10 10h150v700h-150c-7 0 -10 5 -10 10s3 10 10 10h320c7 0 10 -5 10 -10s-3 -10 -10 -10h-150v-700h150c7 0 10 -5 10 -10zM299 832c0 -5 -6 -10 -11 -10c-2 0 -4 1 -6 3l-72 70l-73 -70c-2 -2 -4 -3 -6 -3
c-5 0 -11 5 -11 10c0 2 2 5 4 7l79 77c2 2 4 3 7 3s4 -1 6 -3l79 -77c2 -2 4 -5 4 -7z" />
    <glyph glyph-name="Icircumflex.alt" unicode="&#xf812;" horiz-adv-x="180" 
d="M179 832c0 -5 -6 -10 -11 -10c-2 0 -4 1 -6 3l-72 70l-73 -70c-2 -2 -4 -3 -6 -3c-5 0 -11 5 -11 10c0 2 2 5 4 7l79 77c2 2 4 3 7 3s4 -1 6 -3l79 -77c2 -2 4 -5 4 -7zM100 730v-720c0 -7 -5 -10 -10 -10s-10 3 -10 10v720c0 7 5 10 10 10s10 -3 10 -10z" />
    <glyph glyph-name="icircumflex" unicode="&#xee;" horiz-adv-x="160" 
d="M90 10c0 -5 -5 -10 -10 -10s-10 5 -10 10v485c0 5 5 10 10 10s10 -5 10 -10v-485zM170 597c0 -5 -6 -10 -11 -10c-2 0 -4 1 -6 3l-72 70l-73 -70c-2 -2 -4 -3 -6 -3c-5 0 -11 5 -11 10c0 2 2 5 4 7l79 77c2 2 4 3 7 3s4 -1 6 -3l79 -77c2 -2 4 -5 4 -7z" />
    <glyph glyph-name="Idieresis" unicode="&#xcf;" horiz-adv-x="420" 
d="M380 10c0 -5 -3 -10 -10 -10h-320c-7 0 -10 5 -10 10s3 10 10 10h150v700h-150c-7 0 -10 5 -10 10s3 10 10 10h320c7 0 10 -5 10 -10s-3 -10 -10 -10h-150v-700h150c7 0 10 -5 10 -10zM120 848c0 10 9 19 19 19s19 -9 19 -19s-9 -19 -19 -19s-19 9 -19 19zM261 848
c0 10 9 19 19 19s19 -9 19 -19s-9 -19 -19 -19s-19 9 -19 19z" />
    <glyph glyph-name="Idieresis.alt" unicode="&#xf813;" horiz-adv-x="180" 
d="M0 848c0 10 9 19 19 19s19 -9 19 -19s-9 -19 -19 -19s-19 9 -19 19zM141 848c0 10 9 19 19 19s19 -9 19 -19s-9 -19 -19 -19s-19 9 -19 19zM100 730v-720c0 -7 -5 -10 -10 -10s-10 3 -10 10v720c0 7 5 10 10 10s10 -3 10 -10z" />
    <glyph glyph-name="idieresis" unicode="&#xef;" horiz-adv-x="160" 
d="M90 10c0 -5 -5 -10 -10 -10s-10 5 -10 10v485c0 5 5 10 10 10s10 -5 10 -10v-485zM-9 613c0 10 9 19 19 19s19 -9 19 -19s-9 -19 -19 -19s-19 9 -19 19zM132 613c0 10 9 19 19 19s19 -9 19 -19s-9 -19 -19 -19s-19 9 -19 19z" />
    <glyph glyph-name="Imacron" unicode="&#x12a;" horiz-adv-x="420" 
d="M380 10c0 -5 -3 -10 -10 -10h-320c-7 0 -10 5 -10 10s3 10 10 10h150v700h-150c-7 0 -10 5 -10 10s3 10 10 10h320c7 0 10 -5 10 -10s-3 -10 -10 -10h-150v-700h150c7 0 10 -5 10 -10zM298 852c0 -5 -2 -10 -9 -10h-158c-7 0 -10 5 -10 10s3 10 10 10h158c7 0 9 -5 9 -10
z" />
    <glyph glyph-name="Imacron.alt" unicode="&#xf815;" horiz-adv-x="180" 
d="M178 852c0 -5 -2 -10 -9 -10h-158c-7 0 -10 5 -10 10s3 10 10 10h158c7 0 9 -5 9 -10zM100 730v-720c0 -7 -5 -10 -10 -10s-10 3 -10 10v720c0 7 5 10 10 10s10 -3 10 -10z" />
    <glyph glyph-name="imacron" unicode="&#x12b;" horiz-adv-x="160" 
d="M90 10c0 -5 -5 -10 -10 -10s-10 5 -10 10v485c0 5 5 10 10 10s10 -5 10 -10v-485zM169 617c0 -5 -2 -10 -9 -10h-158c-7 0 -10 5 -10 10s3 10 10 10h158c7 0 9 -5 9 -10z" />
    <glyph glyph-name="Ibreve" unicode="&#x12c;" horiz-adv-x="420" 
d="M380 10c0 -5 -3 -10 -10 -10h-320c-7 0 -10 5 -10 10s3 10 10 10h150v700h-150c-7 0 -10 5 -10 10s3 10 10 10h320c7 0 10 -5 10 -10s-3 -10 -10 -10h-150v-700h150c7 0 10 -5 10 -10zM299 911c0 -49 -40 -89 -89 -89s-89 40 -89 89c0 7 5 10 10 10s10 -3 10 -10
c0 -38 31 -69 69 -69s69 31 69 69c0 7 5 10 10 10s10 -3 10 -10z" />
    <glyph glyph-name="Ibreve.alt" unicode="&#xf816;" horiz-adv-x="180" 
d="M179 911c0 -49 -40 -89 -89 -89s-89 40 -89 89c0 7 5 10 10 10s10 -3 10 -10c0 -38 31 -69 69 -69s69 31 69 69c0 7 5 10 10 10s10 -3 10 -10zM100 730v-720c0 -7 -5 -10 -10 -10s-10 3 -10 10v720c0 7 5 10 10 10s10 -3 10 -10z" />
    <glyph glyph-name="ibreve" unicode="&#x12d;" horiz-adv-x="160" 
d="M90 10c0 -5 -5 -10 -10 -10s-10 5 -10 10v485c0 5 5 10 10 10s10 -5 10 -10v-485zM169 676c0 -49 -40 -89 -89 -89s-89 40 -89 89c0 7 5 10 10 10s10 -3 10 -10c0 -38 31 -69 69 -69s69 31 69 69c0 7 5 10 10 10s10 -3 10 -10z" />
    <glyph glyph-name="Iogonek" unicode="&#x12e;" horiz-adv-x="420" 
d="M246 -155c0 -52 49 -55 68 -55c16 0 45 9 70 43c3 4 6 5 9 5c5 0 9 -4 9 -9c0 -4 -4 -9 -8 -14c-19 -21 -48 -42 -81 -42c-37 0 -86 12 -86 71c0 56 70 115 117 152l5 4h-299c-7 0 -10 5 -10 10s3 10 10 10h150v700h-150c-7 0 -10 5 -10 10s3 10 10 10h320
c7 0 10 -5 10 -10s-3 -10 -10 -10h-150v-700h150c7 0 10 -5 10 -10c0 -10 -12 -14 -23 -24c-44 -35 -111 -94 -111 -141z" />
    <glyph glyph-name="Iogonek.alt" unicode="&#xf817;" horiz-adv-x="180" 
d="M-35 -157c0 -52 49 -55 68 -55c16 0 45 9 70 43c3 4 6 5 9 5c5 0 9 -4 9 -9c0 -4 -4 -9 -8 -14c-19 -21 -48 -42 -81 -42c-37 0 -86 12 -86 71c0 56 72 112 117 152c6 5 17 14 17 14v722c0 7 5 10 10 10s10 -3 10 -10v-718c0 -10 -9 -16 -24 -28
c-44 -35 -111 -94 -111 -141z" />
    <glyph glyph-name="iogonek" unicode="&#x12f;" horiz-adv-x="160" 
d="M-44 -154c0 -52 49 -55 68 -55c16 0 45 9 70 43c3 4 6 5 9 5c5 0 9 -4 9 -9c0 -4 -4 -9 -8 -14c-19 -21 -48 -42 -81 -42c-37 0 -86 12 -86 71c0 56 70 115 117 152c5 4 11 9 16 13v485c0 5 5 10 10 10s10 -5 10 -10v-485c0 -4 -2 -7 -5 -9c-4 -3 -11 -8 -18 -14
c-44 -35 -111 -94 -111 -141z" />
    <glyph glyph-name="Idotaccent" unicode="&#x130;" horiz-adv-x="420" 
d="M380 10c0 -5 -3 -10 -10 -10h-320c-7 0 -10 5 -10 10s3 10 10 10h150v700h-150c-7 0 -10 5 -10 10s3 10 10 10h320c7 0 10 -5 10 -10s-3 -10 -10 -10h-150v-700h150c7 0 10 -5 10 -10zM191 858c0 10 9 19 19 19s19 -9 19 -19s-9 -19 -19 -19s-19 9 -19 19z" />
    <glyph glyph-name="Idotaccent.alt" unicode="&#xf818;" horiz-adv-x="180" 
d="M71 858c0 10 9 19 19 19s19 -9 19 -19s-9 -19 -19 -19s-19 9 -19 19zM100 730v-720c0 -7 -5 -10 -10 -10s-10 3 -10 10v720c0 7 5 10 10 10s10 -3 10 -10z" />
    <glyph glyph-name="dotlessi" unicode="&#x131;" horiz-adv-x="160" 
d="M90 10c0 -5 -5 -10 -10 -10s-10 5 -10 10v485c0 5 5 10 10 10s10 -5 10 -10v-485z" />
    <glyph glyph-name="Kcommaaccent" unicode="&#x136;" horiz-adv-x="598" 
d="M568 10c0 -6 -5 -10 -10 -10c-3 0 -6 1 -8 4l-295 397l-155 -179v-212c0 -7 -5 -10 -10 -10s-10 3 -10 10v720c0 7 5 10 10 10s10 -3 10 -10v-477l419 484c3 2 5 3 8 3c5 0 10 -5 10 -10c0 -2 -1 -4 -2 -7l-267 -307l298 -400c2 -2 2 -4 2 -6zM323 -83
c0 -72 -24 -114 -73 -158c-2 -2 -4 -2 -6 -2c-6 0 -10 5 -10 10c0 3 1 6 4 8c0 0 5 4 13 12c32 30 52 63 52 130c0 7 5 10 10 10s10 -3 10 -10z" />
    <glyph glyph-name="kcommaaccent" unicode="&#x137;" horiz-adv-x="431" 
d="M409 17c3 -5 2 -11 -2 -14c-4 -4 -11 -3 -14 1l-203 270l-100 -118v-146c0 -6 -4 -10 -10 -10s-10 4 -10 10v720c0 6 4 10 10 10s10 -4 10 -10v-543l271 317c4 4 10 5 14 1s5 -10 1 -14l-172 -202zM244 -83c0 -72 -24 -114 -73 -158c-2 -2 -4 -2 -6 -2c-6 0 -10 5 -10 10
c0 3 1 6 4 8c0 0 5 4 13 12c32 30 52 63 52 130c0 7 5 10 10 10s10 -3 10 -10z" />
    <glyph glyph-name="Lacute" unicode="&#x139;" horiz-adv-x="505" 
d="M475 10c0 -6 -4 -10 -10 -10h-375c-5 0 -10 5 -10 10v720c0 6 4 10 10 10s10 -4 10 -10v-710h365c6 0 10 -4 10 -10zM207 909c0 -3 -1 -6 -4 -8l-109 -87s-3 -2 -6 -2c-6 0 -10 5 -10 10c0 3 1 6 4 8l109 87s2 2 6 2c6 0 10 -5 10 -10z" />
    <glyph glyph-name="lacute" unicode="&#x13a;" horiz-adv-x="180" 
d="M160 0c0 -5 -4 -10 -10 -10c-5 0 -13 5 -16 8c-47 29 -64 87 -64 139v593c0 5 5 10 10 10s10 -5 10 -10v-593c0 -51 16 -103 64 -128c4 -2 6 -4 6 -9zM195 909c0 -3 -1 -6 -4 -8l-109 -87s-3 -2 -6 -2c-6 0 -10 5 -10 10c0 3 1 6 4 8l109 87s2 2 6 2c6 0 10 -5 10 -10z
" />
    <glyph glyph-name="lacute.alt" unicode="&#xf825;" horiz-adv-x="160" 
d="M195 909c0 -3 -1 -6 -4 -8l-109 -87s-3 -2 -6 -2c-6 0 -10 5 -10 10c0 3 1 6 4 8l109 87s2 2 6 2c6 0 10 -5 10 -10zM70 10v720c0 5 5 10 10 10s10 -5 10 -10v-720c0 -5 -5 -10 -10 -10s-10 5 -10 10z" />
    <glyph glyph-name="Lcommaaccent" unicode="&#x13b;" horiz-adv-x="505" 
d="M475 10c0 -6 -4 -10 -10 -10h-375c-5 0 -10 5 -10 10v720c0 6 4 10 10 10s10 -4 10 -10v-710h365c6 0 10 -4 10 -10zM297 -83c0 -72 -24 -114 -73 -158c-2 -2 -4 -2 -6 -2c-6 0 -10 5 -10 10c0 3 1 6 4 8c0 0 5 4 13 12c32 30 52 63 52 130c0 7 5 10 10 10s10 -3 10 -10z
" />
    <glyph glyph-name="lcommaaccent" unicode="&#x13c;" horiz-adv-x="180" 
d="M160 0c0 -5 -4 -10 -10 -10c-5 0 -13 5 -16 8c-47 29 -64 87 -64 139v593c0 5 5 10 10 10s10 -5 10 -10v-593c0 -51 16 -103 64 -128c4 -2 6 -4 6 -9zM125 -83c0 -72 -24 -114 -73 -158c-2 -2 -4 -2 -6 -2c-6 0 -10 5 -10 10c0 3 1 6 4 8c0 0 5 4 13 12
c32 30 52 63 52 130c0 7 5 10 10 10s10 -3 10 -10z" />
    <glyph glyph-name="lcommaaccent.alt" unicode="&#xf826;" horiz-adv-x="160" 
d="M90 -83c0 -72 -24 -114 -73 -158c-2 -2 -4 -2 -6 -2c-6 0 -10 5 -10 10c0 3 1 6 4 8c0 0 5 4 13 12c32 30 52 63 52 130c0 7 5 10 10 10s10 -3 10 -10zM70 10v720c0 5 5 10 10 10s10 -5 10 -10v-720c0 -5 -5 -10 -10 -10s-10 5 -10 10z" />
    <glyph glyph-name="Lcaron" unicode="&#x13d;" horiz-adv-x="505" 
d="M286 674c0 -3 -1 -6 -4 -8l-109 -87s-3 -2 -6 -2c-6 0 -10 5 -10 10c0 3 1 6 4 8l109 87s2 2 6 2c6 0 10 -5 10 -10zM475 10c0 -6 -4 -10 -10 -10h-375c-5 0 -10 5 -10 10v720c0 6 4 10 10 10s10 -4 10 -10v-710h365c6 0 10 -4 10 -10z" />
    <glyph glyph-name="lcaron" unicode="&#x13e;" horiz-adv-x="276" 
d="M266 674c0 -3 -1 -6 -4 -8l-109 -87s-3 -2 -6 -2c-6 0 -10 5 -10 10c0 3 1 6 4 8l109 87s2 2 6 2c6 0 10 -5 10 -10zM160 0c0 -5 -4 -10 -10 -10c-5 0 -13 5 -16 8c-47 29 -64 87 -64 139v593c0 5 5 10 10 10s10 -5 10 -10v-593c0 -51 16 -103 64 -128c4 -2 6 -4 6 -9z
" />
    <glyph glyph-name="lcaron.alt" unicode="&#xf827;" horiz-adv-x="276" 
d="M266 674c0 -3 -1 -6 -4 -8l-109 -87s-3 -2 -6 -2c-6 0 -10 5 -10 10c0 3 1 6 4 8l109 87s2 2 6 2c6 0 10 -5 10 -10zM70 10v720c0 5 5 10 10 10s10 -5 10 -10v-720c0 -5 -5 -10 -10 -10s-10 5 -10 10z" />
    <glyph glyph-name="Ldot" unicode="&#x13f;" horiz-adv-x="505" 
d="M475 10c0 -6 -4 -10 -10 -10h-375c-5 0 -10 5 -10 10v720c0 6 4 10 10 10s10 -4 10 -10v-710h365c6 0 10 -4 10 -10zM190 355c0 10 9 19 19 19s19 -9 19 -19s-9 -19 -19 -19s-19 9 -19 19z" />
    <glyph glyph-name="ldot" unicode="&#x140;" horiz-adv-x="180" 
d="M160 0c0 -5 -4 -10 -10 -10c-5 0 -13 5 -16 8c-47 29 -64 87 -64 139v593c0 5 5 10 10 10s10 -5 10 -10v-593c0 -51 16 -103 64 -128c4 -2 6 -4 6 -9zM141 355c0 10 9 19 19 19s19 -9 19 -19s-9 -19 -19 -19s-19 9 -19 19z" />
    <glyph glyph-name="ldot.alt" unicode="&#xf828;" horiz-adv-x="180" 
d="M141 355c0 10 9 19 19 19s19 -9 19 -19s-9 -19 -19 -19s-19 9 -19 19zM70 10v720c0 5 5 10 10 10s10 -5 10 -10v-720c0 -5 -5 -10 -10 -10s-10 5 -10 10z" />
    <glyph glyph-name="Lslash" unicode="&#x141;" horiz-adv-x="536" 
d="M522 10c0 -6 -4 -10 -10 -10h-375c-5 0 -10 5 -10 10v323l-98 -79c-5 -4 -11 -2 -14 2c-3 3 -4 9 2 14l110 89v371c0 6 4 10 10 10s10 -4 10 -10v-355l207 167c5 4 11 2 14 -2c3 -3 4 -9 -2 -14l-219 -177v-329h365c6 0 10 -4 10 -10z" />
    <glyph glyph-name="lslash" unicode="&#x142;" horiz-adv-x="225" 
d="M180 0c0 -5 -4 -10 -10 -10c-5 0 -13 5 -16 8c-47 29 -64 87 -64 139v257l-68 -44c-6 -4 -12 -1 -14 3c-3 4 -3 10 3 14l79 51v312c0 5 5 10 10 10s10 -5 10 -10v-299l90 58c6 4 12 1 14 -3c3 -4 3 -10 -3 -14l-101 -65v-270c0 -51 16 -103 64 -128c4 -2 6 -4 6 -9z" />
    <glyph glyph-name="lslash.alt" unicode="&#xf83a;" horiz-adv-x="222" 
d="M90 10v384l-68 -44c-6 -4 -12 -1 -14 3c-3 4 -3 10 3 14l79 51v312c0 5 5 10 10 10s10 -5 10 -10v-299l90 58c6 4 12 1 14 -3c3 -4 3 -10 -3 -14l-101 -65v-397c0 -5 -5 -10 -10 -10s-10 5 -10 10z" />
    <glyph glyph-name="Nacute" unicode="&#x143;" horiz-adv-x="616" 
d="M536 10c0 -7 -4 -12 -9 -12c-3 0 -7 2 -10 7l-417 689v-684c0 -7 -5 -10 -10 -10s-10 3 -10 10v720c0 7 4 12 9 12c3 0 7 -2 10 -7l417 -689v684c0 7 5 10 10 10s10 -3 10 -10v-720zM402 909c0 -3 -1 -6 -4 -8l-109 -87s-3 -2 -6 -2c-6 0 -10 5 -10 10c0 3 1 6 4 8
l109 87s2 2 6 2c6 0 10 -5 10 -10z" />
    <glyph glyph-name="nacute" unicode="&#x144;" 
d="M420 10c0 -6 -4 -10 -10 -10s-10 4 -10 10v330c0 86 -69 155 -155 155s-155 -69 -155 -155v-330c0 -6 -4 -10 -10 -10s-10 4 -10 10v330c0 97 78 175 175 175s175 -78 175 -175v-330zM309 674c0 -3 -1 -6 -4 -8l-109 -87s-3 -2 -6 -2c-6 0 -10 5 -10 10c0 3 1 6 4 8
l109 87s2 2 6 2c6 0 10 -5 10 -10z" />
    <glyph glyph-name="nacute.alt" unicode="&#xf82a;" 
d="M309 674c0 -3 -1 -6 -4 -8l-109 -87s-3 -2 -6 -2c-6 0 -10 5 -10 10c0 3 1 6 4 8l109 87s2 2 6 2c6 0 10 -5 10 -10zM90 495v-74c29 56 87 94 155 94c97 0 175 -78 175 -175v-330c0 -6 -4 -10 -10 -10s-10 4 -10 10v330c0 86 -69 155 -155 155s-155 -69 -155 -155v-330
c0 -6 -4 -10 -10 -10s-10 4 -10 10v485c0 5 5 10 10 10s10 -5 10 -10z" />
    <glyph glyph-name="Ntilde" unicode="&#xd1;" horiz-adv-x="616" 
d="M536 10c0 -7 -4 -12 -9 -12c-3 0 -7 2 -10 7l-417 689v-684c0 -7 -5 -10 -10 -10s-10 3 -10 10v720c0 7 4 12 9 12c3 0 7 -2 10 -7l417 -689v684c0 7 5 10 10 10s10 -3 10 -10v-720zM419 875c0 -1 -1 -2 -1 -3c0 0 -2 -3 -4 -8c-13 -25 -35 -41 -64 -41
c-41 0 -48 39 -84 39c-21 0 -40 -18 -49 -36c-2 -4 -6 -6 -9 -6c-5 0 -11 5 -11 10c0 2 1 3 2 5c0 0 1 2 4 7c14 22 36 40 63 40c46 0 52 -39 84 -39c37 0 49 35 49 35c2 5 5 7 9 7c5 0 11 -4 11 -10z" />
    <glyph glyph-name="ntilde" unicode="&#xf1;" 
d="M420 10c0 -6 -4 -10 -10 -10s-10 4 -10 10v330c0 86 -69 155 -155 155s-155 -69 -155 -155v-330c0 -6 -4 -10 -10 -10s-10 4 -10 10v330c0 97 78 175 175 175s175 -78 175 -175v-330zM356 640c0 -1 -1 -2 -1 -3c0 0 -2 -3 -4 -8c-13 -25 -35 -41 -64 -41
c-41 0 -48 39 -84 39c-21 0 -40 -18 -49 -36c-2 -4 -6 -6 -9 -6c-5 0 -11 5 -11 10c0 2 1 3 2 5c0 0 1 2 4 7c14 22 36 40 63 40c46 0 52 -39 84 -39c37 0 49 35 49 35c2 5 5 7 9 7c5 0 11 -4 11 -10z" />
    <glyph glyph-name="ntilde.alt" unicode="&#xf829;" 
d="M356 640c0 -1 -1 -2 -1 -3c0 0 -2 -3 -4 -8c-13 -25 -35 -41 -64 -41c-41 0 -48 39 -84 39c-21 0 -40 -18 -49 -36c-2 -4 -6 -6 -9 -6c-5 0 -11 5 -11 10c0 2 1 3 2 5c0 0 1 2 4 7c14 22 36 40 63 40c46 0 52 -39 84 -39c37 0 49 35 49 35c2 5 5 7 9 7c5 0 11 -4 11 -10z
M90 495v-74c29 56 87 94 155 94c97 0 175 -78 175 -175v-330c0 -6 -4 -10 -10 -10s-10 4 -10 10v330c0 86 -69 155 -155 155s-155 -69 -155 -155v-330c0 -6 -4 -10 -10 -10s-10 4 -10 10v485c0 5 5 10 10 10s10 -5 10 -10z" />
    <glyph glyph-name="Ncommaaccent" unicode="&#x145;" horiz-adv-x="616" 
d="M536 10c0 -7 -4 -12 -9 -12c-3 0 -7 2 -10 7l-417 689v-684c0 -7 -5 -10 -10 -10s-10 3 -10 10v720c0 7 4 12 9 12c3 0 7 -2 10 -7l417 -689v684c0 7 5 10 10 10s10 -3 10 -10v-720zM327 -83c0 -72 -24 -114 -73 -158c-2 -2 -4 -2 -6 -2c-6 0 -10 5 -10 10c0 3 1 6 4 8
c0 0 5 4 13 12c32 30 52 63 52 130c0 7 5 10 10 10s10 -3 10 -10z" />
    <glyph glyph-name="ncommaaccent" unicode="&#x146;" 
d="M420 10c0 -6 -4 -10 -10 -10s-10 4 -10 10v330c0 86 -69 155 -155 155s-155 -69 -155 -155v-330c0 -6 -4 -10 -10 -10s-10 4 -10 10v330c0 97 78 175 175 175s175 -78 175 -175v-330zM264 -83c0 -72 -24 -114 -73 -158c-2 -2 -4 -2 -6 -2c-6 0 -10 5 -10 10c0 3 1 6 4 8
c0 0 5 4 13 12c32 30 52 63 52 130c0 7 5 10 10 10s10 -3 10 -10z" />
    <glyph glyph-name="ncommaaccent.alt" unicode="&#xf82b;" 
d="M264 -83c0 -72 -24 -114 -73 -158c-2 -2 -4 -2 -6 -2c-6 0 -10 5 -10 10c0 3 1 6 4 8c0 0 5 4 13 12c32 30 52 63 52 130c0 7 5 10 10 10s10 -3 10 -10zM90 495v-74c29 56 87 94 155 94c97 0 175 -78 175 -175v-330c0 -6 -4 -10 -10 -10s-10 4 -10 10v330
c0 86 -69 155 -155 155s-155 -69 -155 -155v-330c0 -6 -4 -10 -10 -10s-10 4 -10 10v485c0 5 5 10 10 10s10 -5 10 -10z" />
    <glyph glyph-name="Ncaron" unicode="&#x147;" horiz-adv-x="616" 
d="M536 10c0 -7 -4 -12 -9 -12c-3 0 -7 2 -10 7l-417 689v-684c0 -7 -5 -10 -10 -10s-10 3 -10 10v720c0 7 4 12 9 12c3 0 7 -2 10 -7l417 -689v684c0 7 5 10 10 10s10 -3 10 -10v-720zM397 909c0 -3 -1 -5 -4 -7l-79 -77c-1 -2 -4 -3 -6 -3c-3 0 -6 1 -7 3l-79 77
c-3 2 -4 4 -4 7c0 5 5 10 11 10c2 0 4 -1 6 -3l72 -70l73 70c2 2 4 3 6 3c6 0 11 -5 11 -10z" />
    <glyph glyph-name="ncaron" unicode="&#x148;" 
d="M420 10c0 -6 -4 -10 -10 -10s-10 4 -10 10v330c0 86 -69 155 -155 155s-155 -69 -155 -155v-330c0 -6 -4 -10 -10 -10s-10 4 -10 10v330c0 97 78 175 175 175s175 -78 175 -175v-330zM334 674c0 -3 -1 -5 -4 -7l-79 -77c-1 -2 -4 -3 -6 -3c-3 0 -6 1 -7 3l-79 77
c-3 2 -4 4 -4 7c0 5 5 10 11 10c2 0 4 -1 6 -3l72 -70l73 70c2 2 4 3 6 3c6 0 11 -5 11 -10z" />
    <glyph glyph-name="ncaron.alt" unicode="&#xf82c;" 
d="M334 674c0 -3 -1 -5 -4 -7l-79 -77c-1 -2 -4 -3 -6 -3c-3 0 -6 1 -7 3l-79 77c-3 2 -4 4 -4 7c0 5 5 10 11 10c2 0 4 -1 6 -3l72 -70l73 70c2 2 4 3 6 3c6 0 11 -5 11 -10zM90 495v-74c29 56 87 94 155 94c97 0 175 -78 175 -175v-330c0 -6 -4 -10 -10 -10s-10 4 -10 10
v330c0 86 -69 155 -155 155s-155 -69 -155 -155v-330c0 -6 -4 -10 -10 -10s-10 4 -10 10v485c0 5 5 10 10 10s10 -5 10 -10z" />
    <glyph glyph-name="Ograve" unicode="&#xd2;" horiz-adv-x="596" 
d="M536 228c0 -131 -107 -238 -238 -238s-238 107 -238 238v284c0 131 107 238 238 238s238 -107 238 -238v-284zM516 228v284c0 120 -98 218 -218 218s-218 -98 -218 -218v-284c0 -120 98 -218 218 -218s218 98 218 218zM233 909c0 5 4 10 10 10c4 0 6 -2 6 -2l109 -87
c3 -2 4 -5 4 -8c0 -5 -4 -10 -10 -10c-3 0 -6 2 -6 2l-109 87c-3 2 -4 5 -4 8z" />
    <glyph glyph-name="ograve" unicode="&#xf2;" horiz-adv-x="480" 
d="M415 165c0 -97 -78 -175 -175 -175s-175 78 -175 175v175c0 97 78 175 175 175s175 -78 175 -175v-175zM395 165v175c0 86 -69 155 -155 155s-155 -69 -155 -155v-175c0 -86 69 -155 155 -155s155 69 155 155zM175 674c0 5 4 10 10 10c4 0 6 -2 6 -2l109 -87
c3 -2 4 -5 4 -8c0 -5 -4 -10 -10 -10c-3 0 -6 2 -6 2l-109 87c-3 2 -4 5 -4 8z" />
    <glyph glyph-name="Oacute" unicode="&#xd3;" horiz-adv-x="596" 
d="M536 228c0 -131 -107 -238 -238 -238s-238 107 -238 238v284c0 131 107 238 238 238s238 -107 238 -238v-284zM516 228v284c0 120 -98 218 -218 218s-218 -98 -218 -218v-284c0 -120 98 -218 218 -218s218 98 218 218zM362 909c0 -3 -1 -6 -4 -8l-109 -87s-3 -2 -6 -2
c-6 0 -10 5 -10 10c0 3 1 6 4 8l109 87s2 2 6 2c6 0 10 -5 10 -10z" />
    <glyph glyph-name="oacute" unicode="&#xf3;" horiz-adv-x="480" 
d="M415 165c0 -97 -78 -175 -175 -175s-175 78 -175 175v175c0 97 78 175 175 175s175 -78 175 -175v-175zM395 165v175c0 86 -69 155 -155 155s-155 -69 -155 -155v-175c0 -86 69 -155 155 -155s155 69 155 155zM304 674c0 -3 -1 -6 -4 -8l-109 -87s-3 -2 -6 -2
c-6 0 -10 5 -10 10c0 3 1 6 4 8l109 87s2 2 6 2c6 0 10 -5 10 -10z" />
    <glyph glyph-name="Ocircumflex" unicode="&#xd4;" horiz-adv-x="596" 
d="M536 228c0 -131 -107 -238 -238 -238s-238 107 -238 238v284c0 131 107 238 238 238s238 -107 238 -238v-284zM516 228v284c0 120 -98 218 -218 218s-218 -98 -218 -218v-284c0 -120 98 -218 218 -218s218 98 218 218zM387 832c0 -5 -6 -10 -11 -10c-2 0 -4 1 -6 3
l-72 70l-73 -70c-2 -2 -4 -3 -6 -3c-5 0 -11 5 -11 10c0 2 2 5 4 7l79 77c2 2 4 3 7 3s4 -1 6 -3l79 -77c2 -2 4 -5 4 -7z" />
    <glyph glyph-name="ocircumflex" unicode="&#xf4;" horiz-adv-x="480" 
d="M415 165c0 -97 -78 -175 -175 -175s-175 78 -175 175v175c0 97 78 175 175 175s175 -78 175 -175v-175zM395 165v175c0 86 -69 155 -155 155s-155 -69 -155 -155v-175c0 -86 69 -155 155 -155s155 69 155 155zM329 597c0 -5 -6 -10 -11 -10c-2 0 -4 1 -6 3l-72 70
l-73 -70c-2 -2 -4 -3 -6 -3c-5 0 -11 5 -11 10c0 2 2 5 4 7l79 77c2 2 4 3 7 3s4 -1 6 -3l79 -77c2 -2 4 -5 4 -7z" />
    <glyph glyph-name="Otilde" unicode="&#xd5;" horiz-adv-x="596" 
d="M536 228c0 -131 -107 -238 -238 -238s-238 107 -238 238v284c0 131 107 238 238 238s238 -107 238 -238v-284zM516 228v284c0 120 -98 218 -218 218s-218 -98 -218 -218v-284c0 -120 98 -218 218 -218s218 98 218 218zM409 875c0 -1 -1 -2 -1 -3c0 0 -2 -3 -4 -8
c-13 -25 -35 -41 -64 -41c-41 0 -48 39 -84 39c-21 0 -40 -18 -49 -36c-2 -4 -6 -6 -9 -6c-5 0 -11 5 -11 10c0 2 1 3 2 5c0 0 1 2 4 7c14 22 36 40 63 40c46 0 52 -39 84 -39c37 0 49 35 49 35c2 5 5 7 9 7c5 0 11 -4 11 -10z" />
    <glyph glyph-name="otilde" unicode="&#xf5;" horiz-adv-x="480" 
d="M415 165c0 -97 -78 -175 -175 -175s-175 78 -175 175v175c0 97 78 175 175 175s175 -78 175 -175v-175zM395 165v175c0 86 -69 155 -155 155s-155 -69 -155 -155v-175c0 -86 69 -155 155 -155s155 69 155 155zM351 640c0 -1 -1 -2 -1 -3c0 0 -2 -3 -4 -8
c-13 -25 -35 -41 -64 -41c-41 0 -48 39 -84 39c-21 0 -40 -18 -49 -36c-2 -4 -6 -6 -9 -6c-5 0 -11 5 -11 10c0 2 1 3 2 5c0 0 1 2 4 7c14 22 36 40 63 40c46 0 52 -39 84 -39c37 0 49 35 49 35c2 5 5 7 9 7c5 0 11 -4 11 -10z" />
    <glyph glyph-name="Odieresis" unicode="&#xd6;" horiz-adv-x="596" 
d="M536 228c0 -131 -107 -238 -238 -238s-238 107 -238 238v284c0 131 107 238 238 238s238 -107 238 -238v-284zM516 228v284c0 120 -98 218 -218 218s-218 -98 -218 -218v-284c0 -120 98 -218 218 -218s218 98 218 218zM208 848c0 10 9 19 19 19s19 -9 19 -19
s-9 -19 -19 -19s-19 9 -19 19zM349 848c0 10 9 19 19 19s19 -9 19 -19s-9 -19 -19 -19s-19 9 -19 19z" />
    <glyph glyph-name="odieresis" unicode="&#xf6;" horiz-adv-x="480" 
d="M415 165c0 -97 -78 -175 -175 -175s-175 78 -175 175v175c0 97 78 175 175 175s175 -78 175 -175v-175zM395 165v175c0 86 -69 155 -155 155s-155 -69 -155 -155v-175c0 -86 69 -155 155 -155s155 69 155 155zM150 613c0 10 9 19 19 19s19 -9 19 -19s-9 -19 -19 -19
s-19 9 -19 19zM291 613c0 10 9 19 19 19s19 -9 19 -19s-9 -19 -19 -19s-19 9 -19 19z" />
    <glyph glyph-name="Omacron" unicode="&#x14c;" horiz-adv-x="596" 
d="M536 228c0 -131 -107 -238 -238 -238s-238 107 -238 238v284c0 131 107 238 238 238s238 -107 238 -238v-284zM516 228v284c0 120 -98 218 -218 218s-218 -98 -218 -218v-284c0 -120 98 -218 218 -218s218 98 218 218zM386 852c0 -5 -2 -10 -9 -10h-158
c-7 0 -10 5 -10 10s3 10 10 10h158c7 0 9 -5 9 -10z" />
    <glyph glyph-name="omacron" unicode="&#x14d;" horiz-adv-x="480" 
d="M415 165c0 -97 -78 -175 -175 -175s-175 78 -175 175v175c0 97 78 175 175 175s175 -78 175 -175v-175zM395 165v175c0 86 -69 155 -155 155s-155 -69 -155 -155v-175c0 -86 69 -155 155 -155s155 69 155 155zM328 617c0 -5 -2 -10 -9 -10h-158c-7 0 -10 5 -10 10
s3 10 10 10h158c7 0 9 -5 9 -10z" />
    <glyph glyph-name="Obreve" unicode="&#x14e;" horiz-adv-x="596" 
d="M536 228c0 -131 -107 -238 -238 -238s-238 107 -238 238v284c0 131 107 238 238 238s238 -107 238 -238v-284zM516 228v284c0 120 -98 218 -218 218s-218 -98 -218 -218v-284c0 -120 98 -218 218 -218s218 98 218 218zM387 911c0 -49 -40 -89 -89 -89s-89 40 -89 89
c0 7 5 10 10 10s10 -3 10 -10c0 -38 31 -69 69 -69s69 31 69 69c0 7 5 10 10 10s10 -3 10 -10z" />
    <glyph glyph-name="obreve" unicode="&#x14f;" horiz-adv-x="480" 
d="M415 165c0 -97 -78 -175 -175 -175s-175 78 -175 175v175c0 97 78 175 175 175s175 -78 175 -175v-175zM395 165v175c0 86 -69 155 -155 155s-155 -69 -155 -155v-175c0 -86 69 -155 155 -155s155 69 155 155zM329 676c0 -49 -40 -89 -89 -89s-89 40 -89 89
c0 7 5 10 10 10s10 -3 10 -10c0 -38 31 -69 69 -69s69 31 69 69c0 7 5 10 10 10s10 -3 10 -10z" />
    <glyph glyph-name="Ohungarumlaut" unicode="&#x150;" horiz-adv-x="596" 
d="M536 228c0 -131 -107 -238 -238 -238s-238 107 -238 238v284c0 131 107 238 238 238s238 -107 238 -238v-284zM516 228v284c0 120 -98 218 -218 218s-218 -98 -218 -218v-284c0 -120 98 -218 218 -218s218 98 218 218zM332 909c0 -3 -1 -6 -4 -8l-109 -87s-3 -2 -6 -2
c-6 0 -10 5 -10 10c0 3 1 6 4 8l109 87s2 2 6 2c6 0 10 -5 10 -10zM471 909c0 -3 -1 -6 -4 -8l-109 -87s-3 -2 -6 -2c-6 0 -10 5 -10 10c0 3 1 6 4 8l109 87s2 2 6 2c6 0 10 -5 10 -10z" />
    <glyph glyph-name="ohungarumlaut" unicode="&#x151;" horiz-adv-x="480" 
d="M415 165c0 -97 -78 -175 -175 -175s-175 78 -175 175v175c0 97 78 175 175 175s175 -78 175 -175v-175zM395 165v175c0 86 -69 155 -155 155s-155 -69 -155 -155v-175c0 -86 69 -155 155 -155s155 69 155 155zM264 674c0 -3 -1 -6 -4 -8l-109 -87s-3 -2 -6 -2
c-6 0 -10 5 -10 10c0 3 1 6 4 8l109 87s2 2 6 2c6 0 10 -5 10 -10zM403 674c0 -3 -1 -6 -4 -8l-109 -87s-3 -2 -6 -2c-6 0 -10 5 -10 10c0 3 1 6 4 8l109 87s2 2 6 2c6 0 10 -5 10 -10z" />
    <glyph glyph-name="Oslash" unicode="&#xd8;" horiz-adv-x="596" 
d="M536 228c0 -131 -107 -238 -238 -238c-71 0 -135 31 -178 81l-42 -66c-2 -3 -5 -5 -8 -5c-5 0 -10 4 -10 10c0 2 1 3 2 5l45 71c-30 40 -47 89 -47 142v284c0 131 107 238 238 238c71 0 135 -31 178 -81l42 66c2 3 5 5 8 5c5 0 10 -4 10 -10c0 -2 -1 -3 -2 -5l-45 -71
c30 -40 47 -89 47 -142v-284zM465 652c-40 48 -100 78 -167 78c-120 0 -218 -98 -218 -218v-284c0 -46 14 -89 39 -124zM516 228v284c0 46 -14 89 -39 124l-346 -548c40 -48 100 -78 167 -78c120 0 218 98 218 218z" />
    <glyph glyph-name="oslash" unicode="&#xf8;" horiz-adv-x="470" 
d="M410 165c0 -97 -78 -175 -175 -175c-50 0 -94 21 -126 54l-27 -41c-2 -3 -5 -4 -8 -4c-5 0 -11 4 -11 10c0 2 1 4 2 6l30 45c-22 29 -35 65 -35 105v175c0 97 78 175 175 175c50 0 95 -21 127 -54l26 40c2 3 5 4 8 4c5 0 11 -4 11 -10c0 -2 -1 -4 -2 -6l-30 -44
c22 -29 35 -66 35 -105v-175zM350 444c-28 32 -69 51 -115 51c-86 0 -155 -69 -155 -155v-175c0 -32 10 -62 27 -87zM390 165v175c0 32 -10 62 -27 87l-243 -366c28 -31 69 -51 115 -51c86 0 155 69 155 155z" />
    <glyph glyph-name="Oslashacute" unicode="&#x1fe;" horiz-adv-x="596" 
d="M536 228c0 -131 -107 -238 -238 -238c-71 0 -135 31 -178 81l-42 -66c-2 -3 -5 -5 -8 -5c-5 0 -10 4 -10 10c0 2 1 3 2 5l45 71c-30 40 -47 89 -47 142v284c0 131 107 238 238 238c71 0 135 -31 178 -81l42 66c2 3 5 5 8 5c5 0 10 -4 10 -10c0 -2 -1 -3 -2 -5l-45 -71
c30 -40 47 -89 47 -142v-284zM465 652c-40 48 -100 78 -167 78c-120 0 -218 -98 -218 -218v-284c0 -46 14 -89 39 -124zM516 228v284c0 46 -14 89 -39 124l-346 -548c40 -48 100 -78 167 -78c120 0 218 98 218 218zM362 909c0 -3 -1 -6 -4 -8l-109 -87s-3 -2 -6 -2
c-6 0 -10 5 -10 10c0 3 1 6 4 8l109 87s2 2 6 2c6 0 10 -5 10 -10z" />
    <glyph glyph-name="oslashacute" unicode="&#x1ff;" horiz-adv-x="480" 
d="M415 165c0 -97 -78 -175 -175 -175c-50 0 -94 21 -126 54l-27 -41c-2 -3 -5 -4 -8 -4c-5 0 -11 4 -11 10c0 2 1 4 2 6l30 45c-22 29 -35 65 -35 105v175c0 97 78 175 175 175c50 0 95 -21 127 -54l26 40c2 3 5 4 8 4c5 0 11 -4 11 -10c0 -2 -1 -4 -2 -6l-30 -44
c22 -29 35 -66 35 -105v-175zM355 444c-28 32 -69 51 -115 51c-86 0 -155 -69 -155 -155v-175c0 -32 10 -62 27 -87zM395 165v175c0 32 -10 62 -27 87l-243 -366c28 -31 69 -51 115 -51c86 0 155 69 155 155zM304 674c0 -3 -1 -6 -4 -8l-109 -87s-3 -2 -6 -2
c-6 0 -10 5 -10 10c0 3 1 6 4 8l109 87s2 2 6 2c6 0 10 -5 10 -10z" />
    <glyph glyph-name="OE" unicode="&#x152;" horiz-adv-x="972" 
d="M912 10c0 -5 -4 -10 -10 -10h-375c-6 0 -10 5 -10 10v124c-37 -85 -121 -144 -219 -144c-131 0 -238 107 -238 238v284c0 131 107 238 238 238c98 0 182 -59 219 -144v124c0 5 4 10 10 10h375c6 0 10 -5 10 -10s-4 -10 -10 -10h-365v-322h335c6 0 10 -5 10 -10
s-4 -10 -10 -10h-335v-358h365c6 0 10 -5 10 -10zM516 228v284c0 120 -98 218 -218 218s-218 -98 -218 -218v-284c0 -120 98 -218 218 -218s218 98 218 218z" />
    <glyph glyph-name="oe" unicode="&#x153;" horiz-adv-x="805" 
d="M745 280c0 -5 -5 -10 -10 -10h-320v-105c0 -85 79 -155 165 -155c43 0 104 17 130 56c3 4 9 6 13 4c5 -3 7 -9 4 -14c-1 -1 -45 -66 -147 -66c-76 0 -148 49 -174 118c-24 -69 -89 -118 -166 -118c-97 0 -175 78 -175 175v175c0 97 78 175 175 175c76 0 141 -49 165 -117
c24 68 89 117 165 117c97 0 175 -78 175 -175v-60zM725 290v50c0 86 -69 155 -155 155s-155 -69 -155 -155v-50h310zM395 165v175c0 86 -69 155 -155 155s-155 -69 -155 -155v-175c0 -86 69 -155 155 -155s155 69 155 155z" />
    <glyph glyph-name="Thorn" unicode="&#xde;" horiz-adv-x="547" 
d="M497 392c0 -126 -103 -229 -229 -229h-168v-153c0 -7 -5 -10 -10 -10s-10 3 -10 10v720c0 7 5 10 10 10s10 -3 10 -10v-110h168c126 0 229 -102 229 -228zM477 392c0 115 -94 208 -209 208h-168v-417h168c115 0 209 94 209 209z" />
    <glyph glyph-name="thorn" unicode="&#xfe;" horiz-adv-x="485" 
d="M420 165c0 -97 -78 -175 -175 -175c-67 0 -126 38 -155 94v-274c0 -7 -5 -10 -10 -10s-10 3 -10 10v920c0 7 5 10 10 10s10 -3 10 -10v-309c29 56 88 94 155 94c97 0 175 -78 175 -175v-175zM400 165v175c0 86 -69 155 -155 155s-155 -69 -155 -155v-175
c0 -86 69 -155 155 -155s155 69 155 155z" />
    <glyph glyph-name="Racute" unicode="&#x154;" horiz-adv-x="548" 
d="M498 10c0 -6 -5 -10 -10 -10c-3 0 -6 2 -8 5l-178 280c-11 -2 -23 -2 -34 -2h-168v-273c0 -7 -5 -10 -10 -10s-10 3 -10 10v720c0 5 5 10 10 10h178c126 0 229 -102 229 -228c0 -107 -74 -197 -174 -222l173 -275c1 -2 2 -3 2 -5zM477 512c0 115 -94 208 -209 208h-168
v-417h168c115 0 209 94 209 209zM338 909c0 -3 -1 -6 -4 -8l-109 -87s-3 -2 -6 -2c-6 0 -10 5 -10 10c0 3 1 6 4 8l109 87s2 2 6 2c6 0 10 -5 10 -10z" />
    <glyph glyph-name="racute" unicode="&#x155;" horiz-adv-x="359" 
d="M335 472c9 -10 -4 -23 -14 -14c0 0 -2 2 -6 5c-25 20 -58 32 -90 32c-87 0 -135 -65 -135 -162v-333c0 -13 -20 -13 -20 0v333c0 104 54 182 155 182c37 0 83 -16 110 -43zM259 674c0 -3 -1 -6 -4 -8l-109 -87s-3 -2 -6 -2c-6 0 -10 5 -10 10c0 3 1 6 4 8l109 87s2 2 6 2
c6 0 10 -5 10 -10z" />
    <glyph glyph-name="racute.alt" unicode="&#xf82d;" horiz-adv-x="294" 
d="M259 674c0 -3 -1 -6 -4 -8l-109 -87s-3 -2 -6 -2c-6 0 -10 5 -10 10c0 3 1 6 4 8l109 87s2 2 6 2c6 0 10 -5 10 -10zM70 10v485c0 5 4 10 10 10s10 -5 10 -10v-71c21 55 70 91 135 91c16 0 37 -3 52 -9c4 -2 7 -5 7 -10c0 -6 -4 -10 -10 -10c-9 0 -22 9 -49 9
c-87 0 -135 -65 -135 -162v-323c0 -5 -4 -10 -10 -10s-10 5 -10 10z" />
    <glyph glyph-name="Rcommaaccent" unicode="&#x156;" horiz-adv-x="548" 
d="M498 10c0 -6 -5 -10 -10 -10c-3 0 -6 2 -8 5l-178 280c-11 -2 -23 -2 -34 -2h-168v-273c0 -7 -5 -10 -10 -10s-10 3 -10 10v720c0 5 5 10 10 10h178c126 0 229 -102 229 -228c0 -107 -74 -197 -174 -222l173 -275c1 -2 2 -3 2 -5zM477 512c0 115 -94 208 -209 208h-168
v-417h168c115 0 209 94 209 209zM298 -83c0 -72 -24 -114 -73 -158c-2 -2 -4 -2 -6 -2c-6 0 -10 5 -10 10c0 3 1 6 4 8c0 0 5 4 13 12c32 30 52 63 52 130c0 7 5 10 10 10s10 -3 10 -10z" />
    <glyph glyph-name="rcommaaccent" unicode="&#x157;" horiz-adv-x="359" 
d="M335 472c9 -10 -4 -23 -14 -14c0 0 -2 2 -6 5c-25 20 -58 32 -90 32c-87 0 -135 -65 -135 -162v-333c0 -13 -20 -13 -20 0v333c0 104 54 182 155 182c37 0 83 -16 110 -43zM208 -83c0 -72 -24 -114 -73 -158c-2 -2 -4 -2 -6 -2c-6 0 -10 5 -10 10c0 3 1 6 4 8
c0 0 5 4 13 12c32 30 52 63 52 130c0 7 5 10 10 10s10 -3 10 -10z" />
    <glyph glyph-name="rcommaaccent.alt" unicode="&#xf82e;" horiz-adv-x="294" 
d="M178 -83c0 -72 -24 -114 -73 -158c-2 -2 -4 -2 -6 -2c-6 0 -10 5 -10 10c0 3 1 6 4 8c0 0 5 4 13 12c32 30 52 63 52 130c0 7 5 10 10 10s10 -3 10 -10zM70 10v485c0 5 4 10 10 10s10 -5 10 -10v-71c21 55 70 91 135 91c16 0 37 -3 52 -9c4 -2 7 -5 7 -10
c0 -6 -4 -10 -10 -10c-9 0 -22 9 -49 9c-87 0 -135 -65 -135 -162v-323c0 -5 -4 -10 -10 -10s-10 5 -10 10z" />
    <glyph glyph-name="Rcaron" unicode="&#x158;" horiz-adv-x="548" 
d="M498 10c0 -6 -5 -10 -10 -10c-3 0 -6 2 -8 5l-178 280c-11 -2 -23 -2 -34 -2h-168v-273c0 -7 -5 -10 -10 -10s-10 3 -10 10v720c0 5 5 10 10 10h178c126 0 229 -102 229 -228c0 -107 -74 -197 -174 -222l173 -275c1 -2 2 -3 2 -5zM477 512c0 115 -94 208 -209 208h-168
v-417h168c115 0 209 94 209 209zM363 909c0 -3 -1 -5 -4 -7l-79 -77c-1 -2 -4 -3 -6 -3c-3 0 -6 1 -7 3l-79 77c-3 2 -4 4 -4 7c0 5 5 10 11 10c2 0 4 -1 6 -3l72 -70l73 70c2 2 4 3 6 3c6 0 11 -5 11 -10z" />
    <glyph glyph-name="rcaron" unicode="&#x159;" horiz-adv-x="359" 
d="M335 472c9 -10 -4 -23 -14 -14c0 0 -2 2 -6 5c-25 20 -58 32 -90 32c-87 0 -135 -65 -135 -162v-333c0 -13 -20 -13 -20 0v333c0 104 54 182 155 182c37 0 83 -16 110 -43zM304 674c0 -3 -1 -5 -4 -7l-79 -77c-1 -2 -4 -3 -6 -3c-3 0 -6 1 -7 3l-79 77c-3 2 -4 4 -4 7
c0 5 5 10 11 10c2 0 4 -1 6 -3l72 -70l73 70c2 2 4 3 6 3c6 0 11 -5 11 -10z" />
    <glyph glyph-name="rcaron.alt" unicode="&#xf82f;" horiz-adv-x="294" 
d="M264 674c0 -3 -1 -5 -4 -7l-79 -77c-1 -2 -4 -3 -6 -3c-3 0 -6 1 -7 3l-79 77c-3 2 -4 4 -4 7c0 5 5 10 11 10c2 0 4 -1 6 -3l72 -70l73 70c2 2 4 3 6 3c6 0 11 -5 11 -10zM70 10v485c0 5 4 10 10 10s10 -5 10 -10v-71c21 55 70 91 135 91c16 0 37 -3 52 -9
c4 -2 7 -5 7 -10c0 -6 -4 -10 -10 -10c-9 0 -22 9 -49 9c-87 0 -135 -65 -135 -162v-323c0 -5 -4 -10 -10 -10s-10 5 -10 10z" />
    <glyph glyph-name="Sacute" unicode="&#x15a;" horiz-adv-x="550" 
d="M490 181c0 -116 -105 -191 -235 -191c-133 0 -192 84 -193 85c-1 2 -2 4 -2 6c0 6 5 10 10 10c3 0 6 -1 8 -4c0 0 3 -5 10 -12c43 -45 106 -65 167 -65c124 0 215 70 215 171c0 239 -405 156 -405 392c0 111 95 177 200 177c72 0 157 -39 201 -98c2 -2 2 -4 2 -6
c0 -5 -5 -10 -10 -10c-3 0 -6 1 -8 4c0 0 -4 6 -12 14c-45 47 -107 76 -173 76c-97 0 -180 -60 -180 -157c0 -217 405 -135 405 -392zM339 909c0 -3 -1 -6 -4 -8l-109 -87s-3 -2 -6 -2c-6 0 -10 5 -10 10c0 3 1 6 4 8l109 87s2 2 6 2c6 0 10 -5 10 -10z" />
    <glyph glyph-name="sacute" unicode="&#x15b;" horiz-adv-x="404" 
d="M354 128c0 -90 -85 -138 -166 -138c-48 0 -107 20 -136 60c-1 2 -2 4 -2 6c0 5 5 10 10 10c4 0 6 -1 8 -4c32 -36 72 -52 120 -52c70 0 146 39 146 118c0 163 -281 97 -281 264c0 79 69 123 142 123c51 0 108 -27 136 -70c1 -2 1 -3 1 -5c0 -6 -5 -10 -10 -10
c-4 0 -6 2 -8 5c-32 38 -68 60 -119 60c-62 0 -122 -35 -122 -103c0 -147 281 -83 281 -264zM256 674c0 -3 -1 -6 -4 -8l-109 -87s-3 -2 -6 -2c-6 0 -10 5 -10 10c0 3 1 6 4 8l109 87s2 2 6 2c6 0 10 -5 10 -10z" />
    <glyph glyph-name="Scedilla" unicode="&#x15e;" horiz-adv-x="550" 
d="M490 181c0 -116 -105 -191 -235 -191c-133 0 -192 84 -193 85c-1 2 -2 4 -2 6c0 6 5 10 10 10c3 0 6 -1 8 -4c0 0 3 -5 10 -12c43 -45 106 -65 167 -65c124 0 215 70 215 171c0 239 -405 156 -405 392c0 111 95 177 200 177c72 0 157 -39 201 -98c2 -2 2 -4 2 -6
c0 -5 -5 -10 -10 -10c-3 0 -6 1 -8 4c0 0 -4 6 -12 14c-45 47 -107 76 -173 76c-97 0 -180 -60 -180 -157c0 -217 405 -135 405 -392zM312 -116c0 -35 -28 -63 -63 -63c-7 0 -10 5 -10 10s3 10 10 10c23 0 43 20 43 43s-20 42 -43 42c-7 0 -12 6 -10 12l23 64c2 5 5 7 9 7
c5 0 10 -3 10 -9c0 -2 -1 -4 -1 -4l-17 -51c28 -6 49 -31 49 -61z" />
    <glyph glyph-name="scedilla" unicode="&#x15f;" horiz-adv-x="404" 
d="M354 128c0 -90 -85 -138 -166 -138c-48 0 -107 20 -136 60c-1 2 -2 4 -2 6c0 5 5 10 10 10c4 0 6 -1 8 -4c32 -36 72 -52 120 -52c70 0 146 39 146 118c0 163 -281 97 -281 264c0 79 69 123 142 123c51 0 108 -27 136 -70c1 -2 1 -3 1 -5c0 -6 -5 -10 -10 -10
c-4 0 -6 2 -8 5c-32 38 -68 60 -119 60c-62 0 -122 -35 -122 -103c0 -147 281 -83 281 -264zM240 -116c0 -35 -28 -63 -63 -63c-7 0 -10 5 -10 10s3 10 10 10c23 0 43 20 43 43s-20 42 -43 42c-7 0 -12 6 -10 12l23 64c2 5 5 7 9 7c5 0 10 -3 10 -9c0 -2 -1 -4 -1 -4
l-17 -51c28 -6 49 -31 49 -61z" />
    <glyph glyph-name="Scaron" unicode="&#x160;" horiz-adv-x="550" 
d="M490 181c0 -116 -105 -191 -235 -191c-133 0 -192 84 -193 85c-1 2 -2 4 -2 6c0 6 5 10 10 10c3 0 6 -1 8 -4c0 0 3 -5 10 -12c43 -45 106 -65 167 -65c124 0 215 70 215 171c0 239 -405 156 -405 392c0 111 95 177 200 177c72 0 157 -39 201 -98c2 -2 2 -4 2 -6
c0 -5 -5 -10 -10 -10c-3 0 -6 1 -8 4c0 0 -4 6 -12 14c-45 47 -107 76 -173 76c-97 0 -180 -60 -180 -157c0 -217 405 -135 405 -392zM364 909c0 -3 -1 -5 -4 -7l-79 -77c-1 -2 -4 -3 -6 -3c-3 0 -6 1 -7 3l-79 77c-3 2 -4 4 -4 7c0 5 5 10 11 10c2 0 4 -1 6 -3l72 -70
l73 70c2 2 4 3 6 3c6 0 11 -5 11 -10z" />
    <glyph glyph-name="scaron" unicode="&#x161;" horiz-adv-x="404" 
d="M354 128c0 -90 -85 -138 -166 -138c-48 0 -107 20 -136 60c-1 2 -2 4 -2 6c0 5 5 10 10 10c4 0 6 -1 8 -4c32 -36 72 -52 120 -52c70 0 146 39 146 118c0 163 -281 97 -281 264c0 79 69 123 142 123c51 0 108 -27 136 -70c1 -2 1 -3 1 -5c0 -6 -5 -10 -10 -10
c-4 0 -6 2 -8 5c-32 38 -68 60 -119 60c-62 0 -122 -35 -122 -103c0 -147 281 -83 281 -264zM291 674c0 -3 -1 -5 -4 -7l-79 -77c-1 -2 -4 -3 -6 -3c-3 0 -6 1 -7 3l-79 77c-3 2 -4 4 -4 7c0 5 5 10 11 10c2 0 4 -1 6 -3l72 -70l73 70c2 2 4 3 6 3c6 0 11 -5 11 -10z" />
    <glyph glyph-name="Scommaaccent" unicode="&#x218;" horiz-adv-x="550" 
d="M490 181c0 -116 -105 -191 -235 -191c-133 0 -192 84 -193 85c-1 2 -2 4 -2 6c0 6 5 10 10 10c3 0 6 -1 8 -4c0 0 3 -5 10 -12c43 -45 106 -65 167 -65c124 0 215 70 215 171c0 239 -405 156 -405 392c0 111 95 177 200 177c72 0 157 -39 201 -98c2 -2 2 -4 2 -6
c0 -5 -5 -10 -10 -10c-3 0 -6 1 -8 4c0 0 -4 6 -12 14c-45 47 -107 76 -173 76c-97 0 -180 -60 -180 -157c0 -217 405 -135 405 -392zM284 -83c0 -72 -24 -114 -73 -158c-2 -2 -4 -2 -6 -2c-6 0 -10 5 -10 10c0 3 1 6 4 8c0 0 5 4 13 12c32 30 52 63 52 130c0 7 5 10 10 10
s10 -3 10 -10z" />
    <glyph glyph-name="scommaaccent" unicode="&#x219;" horiz-adv-x="404" 
d="M354 128c0 -90 -85 -138 -166 -138c-48 0 -107 20 -136 60c-1 2 -2 4 -2 6c0 5 5 10 10 10c4 0 6 -1 8 -4c32 -36 72 -52 120 -52c70 0 146 39 146 118c0 163 -281 97 -281 264c0 79 69 123 142 123c51 0 108 -27 136 -70c1 -2 1 -3 1 -5c0 -6 -5 -10 -10 -10
c-4 0 -6 2 -8 5c-32 38 -68 60 -119 60c-62 0 -122 -35 -122 -103c0 -147 281 -83 281 -264zM218 -83c0 -72 -24 -114 -73 -158c-2 -2 -4 -2 -6 -2c-6 0 -10 5 -10 10c0 3 1 6 4 8c0 0 5 4 13 12c32 30 52 63 52 130c0 7 5 10 10 10s10 -3 10 -10z" />
    <glyph glyph-name="Tcommaaccent" unicode="&#x162;" horiz-adv-x="520" 
d="M510 730c0 -5 -3 -10 -10 -10h-230v-710c0 -7 -5 -10 -10 -10s-10 3 -10 10v710h-230c-7 0 -10 5 -10 10s3 10 10 10h480c7 0 10 -5 10 -10zM271 -83c0 -72 -24 -114 -73 -158c-2 -2 -4 -2 -6 -2c-6 0 -10 5 -10 10c0 3 1 6 4 8c0 0 5 4 13 12c32 30 52 63 52 130
c0 7 5 10 10 10s10 -3 10 -10z" />
    <glyph glyph-name="tcommaaccent" unicode="&#x163;" horiz-adv-x="388" 
d="M368 36c0 -6 -7 -11 -11 -14c-27 -20 -61 -32 -94 -32c-71 0 -132 47 -132 121v374h-111c-6 0 -10 4 -10 10s4 10 10 10h111v147c0 6 4 10 10 10s10 -4 10 -10v-147h197c6 0 10 -4 10 -10s-4 -10 -10 -10h-197v-374c0 -63 52 -101 112 -101c33 0 63 13 88 33c2 2 4 3 7 3
c5 0 10 -5 10 -10zM246 -83c0 -72 -24 -114 -73 -158c-2 -2 -4 -2 -6 -2c-6 0 -10 5 -10 10c0 3 1 6 4 8c0 0 5 4 13 12c32 30 52 63 52 130c0 7 5 10 10 10s10 -3 10 -10z" />
    <glyph glyph-name="tcommaaccent.alt" unicode="&#xf830;" horiz-adv-x="382" 
d="M201 -83c0 -72 -24 -114 -73 -158c-2 -2 -4 -2 -6 -2c-6 0 -10 5 -10 10c0 3 1 6 4 8c0 0 5 4 13 12c32 30 52 63 52 130c0 7 5 10 10 10s10 -3 10 -10zM201 485v-475c0 -6 -4 -10 -10 -10s-10 4 -10 10v475h-151c-6 0 -10 4 -10 10s4 10 10 10h151v147c0 6 4 10 10 10
s10 -4 10 -10v-147h151c6 0 10 -4 10 -10s-4 -10 -10 -10h-151z" />
    <glyph glyph-name="Tcaron" unicode="&#x164;" horiz-adv-x="520" 
d="M510 730c0 -5 -3 -10 -10 -10h-230v-710c0 -7 -5 -10 -10 -10s-10 3 -10 10v710h-230c-7 0 -10 5 -10 10s3 10 10 10h480c7 0 10 -5 10 -10zM349 909c0 -3 -1 -5 -4 -7l-79 -77c-1 -2 -4 -3 -6 -3c-3 0 -6 1 -7 3l-79 77c-3 2 -4 4 -4 7c0 5 5 10 11 10c2 0 4 -1 6 -3
l72 -70l73 70c2 2 4 3 6 3c6 0 11 -5 11 -10z" />
    <glyph glyph-name="tcaron" unicode="&#x165;" horiz-adv-x="467" 
d="M457 674c0 -3 -1 -6 -4 -8l-109 -87s-3 -2 -6 -2c-6 0 -10 5 -10 10c0 3 1 6 4 8l109 87s2 2 6 2c6 0 10 -5 10 -10zM368 36c0 -6 -7 -11 -11 -14c-27 -20 -61 -32 -94 -32c-71 0 -132 47 -132 121v374h-111c-6 0 -10 4 -10 10s4 10 10 10h111v147c0 6 4 10 10 10
s10 -4 10 -10v-147h197c6 0 10 -4 10 -10s-4 -10 -10 -10h-197v-374c0 -63 52 -101 112 -101c33 0 63 13 88 33c2 2 4 3 7 3c5 0 10 -5 10 -10z" />
    <glyph glyph-name="tcaron.alt" unicode="&#xf831;" horiz-adv-x="467" 
d="M457 674c0 -3 -1 -6 -4 -8l-109 -87s-3 -2 -6 -2c-6 0 -10 5 -10 10c0 3 1 6 4 8l109 87s2 2 6 2c6 0 10 -5 10 -10zM201 485v-475c0 -6 -4 -10 -10 -10s-10 4 -10 10v475h-151c-6 0 -10 4 -10 10s4 10 10 10h151v147c0 6 4 10 10 10s10 -4 10 -10v-147h151
c6 0 10 -4 10 -10s-4 -10 -10 -10h-151z" />
    <glyph glyph-name="Ugrave" unicode="&#xd9;" horiz-adv-x="616" 
d="M546 228c0 -131 -107 -238 -238 -238s-238 107 -238 238v502c0 7 5 10 10 10s10 -3 10 -10v-502c0 -120 98 -218 218 -218s218 98 218 218v502c0 7 5 10 10 10s10 -3 10 -10v-502zM223 909c0 5 4 10 10 10c4 0 6 -2 6 -2l109 -87c3 -2 4 -5 4 -8c0 -5 -4 -10 -10 -10
c-3 0 -6 2 -6 2l-109 87c-3 2 -4 5 -4 8z" />
    <glyph glyph-name="ugrave" unicode="&#xf9;" 
d="M420 165c0 -97 -78 -175 -175 -175s-175 78 -175 175v330c0 6 4 10 10 10s10 -4 10 -10v-330c0 -85 70 -155 155 -155s155 70 155 155v330c0 6 4 10 10 10s10 -4 10 -10v-330zM160 674c0 5 4 10 10 10c4 0 6 -2 6 -2l109 -87c3 -2 4 -5 4 -8c0 -5 -4 -10 -10 -10
c-3 0 -6 2 -6 2l-109 87c-3 2 -4 5 -4 8z" />
    <glyph glyph-name="ugrave.alt" unicode="&#xf833;" 
d="M160 674c0 5 4 10 10 10c4 0 6 -2 6 -2l109 -87c3 -2 4 -5 4 -8c0 -5 -4 -10 -10 -10c-3 0 -6 2 -6 2l-109 87c-3 2 -4 5 -4 8zM400 10v74c-29 -56 -87 -94 -155 -94c-97 0 -175 78 -175 175v330c0 6 4 10 10 10s10 -4 10 -10v-330c0 -86 69 -155 155 -155
s155 69 155 155v330c0 6 4 10 10 10s10 -4 10 -10v-485c0 -5 -5 -10 -10 -10s-10 5 -10 10z" />
    <glyph glyph-name="Uacute" unicode="&#xda;" horiz-adv-x="616" 
d="M546 228c0 -131 -107 -238 -238 -238s-238 107 -238 238v502c0 7 5 10 10 10s10 -3 10 -10v-502c0 -120 98 -218 218 -218s218 98 218 218v502c0 7 5 10 10 10s10 -3 10 -10v-502zM392 909c0 -3 -1 -6 -4 -8l-109 -87s-3 -2 -6 -2c-6 0 -10 5 -10 10c0 3 1 6 4 8l109 87
s2 2 6 2c6 0 10 -5 10 -10z" />
    <glyph glyph-name="uacute" unicode="&#xfa;" 
d="M420 165c0 -97 -78 -175 -175 -175s-175 78 -175 175v330c0 6 4 10 10 10s10 -4 10 -10v-330c0 -85 70 -155 155 -155s155 70 155 155v330c0 6 4 10 10 10s10 -4 10 -10v-330zM329 674c0 -3 -1 -6 -4 -8l-109 -87s-3 -2 -6 -2c-6 0 -10 5 -10 10c0 3 1 6 4 8l109 87
s2 2 6 2c6 0 10 -5 10 -10z" />
    <glyph glyph-name="uacute.alt" unicode="&#xf832;" 
d="M329 674c0 -3 -1 -6 -4 -8l-109 -87s-3 -2 -6 -2c-6 0 -10 5 -10 10c0 3 1 6 4 8l109 87s2 2 6 2c6 0 10 -5 10 -10zM400 10v74c-29 -56 -87 -94 -155 -94c-97 0 -175 78 -175 175v330c0 6 4 10 10 10s10 -4 10 -10v-330c0 -86 69 -155 155 -155s155 69 155 155v330
c0 6 4 10 10 10s10 -4 10 -10v-485c0 -5 -5 -10 -10 -10s-10 5 -10 10z" />
    <glyph glyph-name="Ucircumflex" unicode="&#xdb;" horiz-adv-x="616" 
d="M546 228c0 -131 -107 -238 -238 -238s-238 107 -238 238v502c0 7 5 10 10 10s10 -3 10 -10v-502c0 -120 98 -218 218 -218s218 98 218 218v502c0 7 5 10 10 10s10 -3 10 -10v-502zM397 832c0 -5 -6 -10 -11 -10c-2 0 -4 1 -6 3l-72 70l-73 -70c-2 -2 -4 -3 -6 -3
c-5 0 -11 5 -11 10c0 2 2 5 4 7l79 77c2 2 4 3 7 3s4 -1 6 -3l79 -77c2 -2 4 -5 4 -7z" />
    <glyph glyph-name="ucircumflex" unicode="&#xfb;" 
d="M420 165c0 -97 -78 -175 -175 -175s-175 78 -175 175v330c0 6 4 10 10 10s10 -4 10 -10v-330c0 -85 70 -155 155 -155s155 70 155 155v330c0 6 4 10 10 10s10 -4 10 -10v-330zM334 597c0 -5 -6 -10 -11 -10c-2 0 -4 1 -6 3l-72 70l-73 -70c-2 -2 -4 -3 -6 -3
c-5 0 -11 5 -11 10c0 2 2 5 4 7l79 77c2 2 4 3 7 3s4 -1 6 -3l79 -77c2 -2 4 -5 4 -7z" />
    <glyph glyph-name="ucircumflex.alt" unicode="&#xf834;" 
d="M334 597c0 -5 -6 -10 -11 -10c-2 0 -4 1 -6 3l-72 70l-73 -70c-2 -2 -4 -3 -6 -3c-5 0 -11 5 -11 10c0 2 2 5 4 7l79 77c2 2 4 3 7 3s4 -1 6 -3l79 -77c2 -2 4 -5 4 -7zM400 10v74c-29 -56 -87 -94 -155 -94c-97 0 -175 78 -175 175v330c0 6 4 10 10 10s10 -4 10 -10
v-330c0 -86 69 -155 155 -155s155 69 155 155v330c0 6 4 10 10 10s10 -4 10 -10v-485c0 -5 -5 -10 -10 -10s-10 5 -10 10z" />
    <glyph glyph-name="Udieresis" unicode="&#xdc;" horiz-adv-x="616" 
d="M546 228c0 -131 -107 -238 -238 -238s-238 107 -238 238v502c0 7 5 10 10 10s10 -3 10 -10v-502c0 -120 98 -218 218 -218s218 98 218 218v502c0 7 5 10 10 10s10 -3 10 -10v-502zM218 848c0 10 9 19 19 19s19 -9 19 -19s-9 -19 -19 -19s-19 9 -19 19zM359 848
c0 10 9 19 19 19s19 -9 19 -19s-9 -19 -19 -19s-19 9 -19 19z" />
    <glyph glyph-name="udieresis" unicode="&#xfc;" 
d="M420 165c0 -97 -78 -175 -175 -175s-175 78 -175 175v330c0 6 4 10 10 10s10 -4 10 -10v-330c0 -85 70 -155 155 -155s155 70 155 155v330c0 6 4 10 10 10s10 -4 10 -10v-330zM155 613c0 10 9 19 19 19s19 -9 19 -19s-9 -19 -19 -19s-19 9 -19 19zM296 613
c0 10 9 19 19 19s19 -9 19 -19s-9 -19 -19 -19s-19 9 -19 19z" />
    <glyph glyph-name="udieresis.alt" unicode="&#xf835;" 
d="M155 613c0 10 9 19 19 19s19 -9 19 -19s-9 -19 -19 -19s-19 9 -19 19zM296 613c0 10 9 19 19 19s19 -9 19 -19s-9 -19 -19 -19s-19 9 -19 19zM400 10v74c-29 -56 -87 -94 -155 -94c-97 0 -175 78 -175 175v330c0 6 4 10 10 10s10 -4 10 -10v-330c0 -86 69 -155 155 -155
s155 69 155 155v330c0 6 4 10 10 10s10 -4 10 -10v-485c0 -5 -5 -10 -10 -10s-10 5 -10 10z" />
    <glyph glyph-name="Umacron" unicode="&#x16a;" horiz-adv-x="616" 
d="M546 228c0 -131 -107 -238 -238 -238s-238 107 -238 238v502c0 7 5 10 10 10s10 -3 10 -10v-502c0 -120 98 -218 218 -218s218 98 218 218v502c0 7 5 10 10 10s10 -3 10 -10v-502zM396 852c0 -5 -2 -10 -9 -10h-158c-7 0 -10 5 -10 10s3 10 10 10h158c7 0 9 -5 9 -10z
" />
    <glyph glyph-name="umacron" unicode="&#x16b;" 
d="M420 165c0 -97 -78 -175 -175 -175s-175 78 -175 175v330c0 6 4 10 10 10s10 -4 10 -10v-330c0 -85 70 -155 155 -155s155 70 155 155v330c0 6 4 10 10 10s10 -4 10 -10v-330zM333 617c0 -5 -2 -10 -9 -10h-158c-7 0 -10 5 -10 10s3 10 10 10h158c7 0 9 -5 9 -10z" />
    <glyph glyph-name="umacron.alt" unicode="&#xf836;" 
d="M333 617c0 -5 -2 -10 -9 -10h-158c-7 0 -10 5 -10 10s3 10 10 10h158c7 0 9 -5 9 -10zM400 10v74c-29 -56 -87 -94 -155 -94c-97 0 -175 78 -175 175v330c0 6 4 10 10 10s10 -4 10 -10v-330c0 -86 69 -155 155 -155s155 69 155 155v330c0 6 4 10 10 10s10 -4 10 -10v-485
c0 -5 -5 -10 -10 -10s-10 5 -10 10z" />
    <glyph glyph-name="Uring" unicode="&#x16e;" horiz-adv-x="616" 
d="M546 228c0 -131 -107 -238 -238 -238s-238 107 -238 238v502c0 7 5 10 10 10s10 -3 10 -10v-502c0 -120 98 -218 218 -218s218 98 218 218v502c0 7 5 10 10 10s10 -3 10 -10v-502zM375 880c0 -37 -31 -68 -68 -68s-67 31 -67 68s30 67 67 67s68 -30 68 -67zM355 880
c0 26 -22 47 -48 47s-47 -21 -47 -47s21 -48 47 -48s48 22 48 48z" />
    <glyph glyph-name="uring" unicode="&#x16f;" 
d="M420 165c0 -97 -78 -175 -175 -175s-175 78 -175 175v330c0 6 4 10 10 10s10 -4 10 -10v-330c0 -85 70 -155 155 -155s155 70 155 155v330c0 6 4 10 10 10s10 -4 10 -10v-330zM312 645c0 -37 -31 -68 -68 -68s-67 31 -67 68s30 67 67 67s68 -30 68 -67zM292 645
c0 26 -22 47 -48 47s-47 -21 -47 -47s21 -48 47 -48s48 22 48 48z" />
    <glyph glyph-name="uring.alt" unicode="&#xf837;" 
d="M312 645c0 -37 -31 -68 -68 -68s-67 31 -67 68s30 67 67 67s68 -30 68 -67zM292 645c0 26 -22 47 -48 47s-47 -21 -47 -47s21 -48 47 -48s48 22 48 48zM400 10v74c-29 -56 -87 -94 -155 -94c-97 0 -175 78 -175 175v330c0 6 4 10 10 10s10 -4 10 -10v-330
c0 -86 69 -155 155 -155s155 69 155 155v330c0 6 4 10 10 10s10 -4 10 -10v-485c0 -5 -5 -10 -10 -10s-10 5 -10 10z" />
    <glyph glyph-name="Uhungarumlaut" unicode="&#x170;" horiz-adv-x="616" 
d="M546 228c0 -131 -107 -238 -238 -238s-238 107 -238 238v502c0 7 5 10 10 10s10 -3 10 -10v-502c0 -120 98 -218 218 -218s218 98 218 218v502c0 7 5 10 10 10s10 -3 10 -10v-502zM332 909c0 -3 -1 -6 -4 -8l-109 -87s-3 -2 -6 -2c-6 0 -10 5 -10 10c0 3 1 6 4 8l109 87
s2 2 6 2c6 0 10 -5 10 -10zM471 909c0 -3 -1 -6 -4 -8l-109 -87s-3 -2 -6 -2c-6 0 -10 5 -10 10c0 3 1 6 4 8l109 87s2 2 6 2c6 0 10 -5 10 -10z" />
    <glyph glyph-name="uhungarumlaut" unicode="&#x171;" 
d="M420 165c0 -97 -78 -175 -175 -175s-175 78 -175 175v330c0 6 4 10 10 10s10 -4 10 -10v-330c0 -85 70 -155 155 -155s155 70 155 155v330c0 6 4 10 10 10s10 -4 10 -10v-330zM279 674c0 -3 -1 -6 -4 -8l-109 -87s-3 -2 -6 -2c-6 0 -10 5 -10 10c0 3 1 6 4 8l109 87
s2 2 6 2c6 0 10 -5 10 -10zM418 674c0 -3 -1 -6 -4 -8l-109 -87s-3 -2 -6 -2c-6 0 -10 5 -10 10c0 3 1 6 4 8l109 87s2 2 6 2c6 0 10 -5 10 -10z" />
    <glyph glyph-name="uhungarumlaut.alt" unicode="&#xf838;" 
d="M279 674c0 -3 -1 -6 -4 -8l-109 -87s-3 -2 -6 -2c-6 0 -10 5 -10 10c0 3 1 6 4 8l109 87s2 2 6 2c6 0 10 -5 10 -10zM418 674c0 -3 -1 -6 -4 -8l-109 -87s-3 -2 -6 -2c-6 0 -10 5 -10 10c0 3 1 6 4 8l109 87s2 2 6 2c6 0 10 -5 10 -10zM400 10v74
c-29 -56 -87 -94 -155 -94c-97 0 -175 78 -175 175v330c0 6 4 10 10 10s10 -4 10 -10v-330c0 -86 69 -155 155 -155s155 69 155 155v330c0 6 4 10 10 10s10 -4 10 -10v-485c0 -5 -5 -10 -10 -10s-10 5 -10 10z" />
    <glyph glyph-name="Uogonek" unicode="&#x172;" horiz-adv-x="616" 
d="M299 -128c0 -52 49 -55 68 -55c16 0 45 9 70 43c3 4 6 5 9 5c5 0 9 -4 9 -9c0 -4 -4 -9 -8 -14c-19 -21 -48 -42 -81 -42c-37 0 -86 12 -86 71c0 44 44 91 85 126c-18 -4 -37 -7 -57 -7c-131 0 -238 107 -238 238v502c0 7 5 10 10 10s10 -3 10 -10v-502
c0 -120 98 -218 218 -218s218 98 218 218v502c0 7 5 10 10 10s10 -3 10 -10v-502c0 -95 -56 -177 -136 -215c-44 -35 -111 -94 -111 -141z" />
    <glyph glyph-name="uogonek" unicode="&#x173;" 
d="M194 -144c0 -52 49 -55 68 -55c16 0 45 9 70 43c3 4 6 5 9 5c5 0 9 -4 9 -9c0 -4 -4 -9 -8 -14c-19 -21 -48 -42 -81 -42c-37 0 -86 12 -86 71c0 49 54 101 99 138c-10 -2 -19 -3 -29 -3c-97 0 -175 78 -175 175v330c0 6 4 10 10 10s10 -4 10 -10v-330
c0 -85 70 -155 155 -155s155 70 155 155v330c0 6 4 10 10 10s10 -4 10 -10v-330c0 -73 -44 -136 -108 -162c-2 -2 -5 -4 -7 -6c-44 -35 -111 -94 -111 -141z" />
    <glyph glyph-name="uogonek.alt" unicode="&#xf839;" 
d="M400 10v74c-29 -56 -87 -94 -155 -94c-97 0 -175 78 -175 175v330c0 6 4 10 10 10s10 -4 10 -10v-330c0 -86 69 -155 155 -155s155 69 155 155v330c0 6 4 10 10 10s10 -4 10 -10v-485c0 -4 -2 -7 -5 -9c-4 -3 -11 -8 -18 -14c-44 -35 -111 -94 -111 -141
c0 -52 49 -55 68 -55c16 0 45 9 70 43c3 4 6 5 9 5c5 0 9 -4 9 -9c0 -4 -4 -9 -8 -14c-19 -21 -48 -42 -81 -42c-37 0 -86 12 -86 71c0 56 70 115 117 152c5 4 11 9 16 13z" />
    <glyph glyph-name="Wcircumflex" unicode="&#x174;" horiz-adv-x="901" 
d="M880 726l-200 -727c-2 -6 -5 -9 -9 -9s-9 3 -11 9l-210 696l-210 -696c-2 -6 -6 -9 -10 -9s-8 3 -10 9l-200 727s-1 3 -1 5c0 6 6 9 11 9c4 0 9 -3 10 -8l190 -694l210 695c2 6 6 9 10 9s8 -3 10 -9l210 -695l190 694c1 5 6 8 10 8c5 0 11 -3 11 -9c0 -2 -1 -5 -1 -5z
M540 832c0 -5 -6 -10 -11 -10c-2 0 -4 1 -6 3l-72 70l-73 -70c-2 -2 -4 -3 -6 -3c-5 0 -11 5 -11 10c0 2 2 5 4 7l79 77c2 2 4 3 7 3s4 -1 6 -3l79 -77c2 -2 4 -5 4 -7z" />
    <glyph glyph-name="wcircumflex" unicode="&#x175;" horiz-adv-x="700" 
d="M670 495c0 -5 -139 -461 -150 -498c-1 -4 -5 -9 -10 -9s-8 5 -9 9l-151 465l-150 -465c-1 -4 -5 -9 -10 -9s-8 5 -9 9c-11 37 -151 492 -151 498s5 10 10 10c4 0 9 -3 10 -7l140 -465l151 465c1 4 4 9 9 9s9 -5 10 -9l150 -465l141 465c1 4 5 7 9 7c5 0 10 -4 10 -10z
M439 597c0 -5 -6 -10 -11 -10c-2 0 -4 1 -6 3l-72 70l-73 -70c-2 -2 -4 -3 -6 -3c-5 0 -11 5 -11 10c0 2 2 5 4 7l79 77c2 2 4 3 7 3s4 -1 6 -3l79 -77c2 -2 4 -5 4 -7z" />
    <glyph glyph-name="Wgrave" unicode="&#x1e80;" horiz-adv-x="901" 
d="M880 726l-200 -727c-2 -6 -5 -9 -9 -9s-9 3 -11 9l-210 696l-210 -696c-2 -6 -6 -9 -10 -9s-8 3 -10 9l-200 727s-1 3 -1 5c0 6 6 9 11 9c4 0 9 -3 10 -8l190 -694l210 695c2 6 6 9 10 9s8 -3 10 -9l210 -695l190 694c1 5 6 8 10 8c5 0 11 -3 11 -9c0 -2 -1 -5 -1 -5z
M384 907c0 5 4 10 10 10c4 0 6 -2 6 -2l109 -87c3 -2 4 -5 4 -8c0 -5 -4 -10 -10 -10c-3 0 -6 2 -6 2l-109 87c-3 2 -4 5 -4 8z" />
    <glyph glyph-name="wgrave" unicode="&#x1e81;" horiz-adv-x="700" 
d="M670 495c0 -5 -139 -461 -150 -498c-1 -4 -5 -9 -10 -9s-8 5 -9 9l-151 465l-150 -465c-1 -4 -5 -9 -10 -9s-8 5 -9 9c-11 37 -151 492 -151 498s5 10 10 10c4 0 9 -3 10 -7l140 -465l151 465c1 4 4 9 9 9s9 -5 10 -9l150 -465l141 465c1 4 5 7 9 7c5 0 10 -4 10 -10z
M286 674c0 5 4 10 10 10c4 0 6 -2 6 -2l109 -87c3 -2 4 -5 4 -8c0 -5 -4 -10 -10 -10c-3 0 -6 2 -6 2l-109 87c-3 2 -4 5 -4 8z" />
    <glyph glyph-name="Wacute" unicode="&#x1e82;" horiz-adv-x="901" 
d="M880 726l-200 -727c-2 -6 -5 -9 -9 -9s-9 3 -11 9l-210 696l-210 -696c-2 -6 -6 -9 -10 -9s-8 3 -10 9l-200 727s-1 3 -1 5c0 6 6 9 11 9c4 0 9 -3 10 -8l190 -694l210 695c2 6 6 9 10 9s8 -3 10 -9l210 -695l190 694c1 5 6 8 10 8c5 0 11 -3 11 -9c0 -2 -1 -5 -1 -5z
M494 906c0 -3 -1 -6 -4 -8l-109 -87s-3 -2 -6 -2c-6 0 -10 5 -10 10c0 3 1 6 4 8l109 87s2 2 6 2c6 0 10 -5 10 -10z" />
    <glyph glyph-name="wacute" unicode="&#x1e83;" horiz-adv-x="700" 
d="M670 495c0 -5 -139 -461 -150 -498c-1 -4 -5 -9 -10 -9s-8 5 -9 9l-151 465l-150 -465c-1 -4 -5 -9 -10 -9s-8 5 -9 9c-11 37 -151 492 -151 498s5 10 10 10c4 0 9 -3 10 -7l140 -465l151 465c1 4 4 9 9 9s9 -5 10 -9l150 -465l141 465c1 4 5 7 9 7c5 0 10 -4 10 -10z
M400 674c0 -3 -1 -6 -4 -8l-109 -87s-3 -2 -6 -2c-6 0 -10 5 -10 10c0 3 1 6 4 8l109 87s2 2 6 2c6 0 10 -5 10 -10z" />
    <glyph glyph-name="Wdieresis" unicode="&#x1e84;" horiz-adv-x="901" 
d="M880 726l-200 -727c-2 -6 -5 -9 -9 -9s-9 3 -11 9l-210 696l-210 -696c-2 -6 -6 -9 -10 -9s-8 3 -10 9l-200 727s-1 3 -1 5c0 6 6 9 11 9c4 0 9 -3 10 -8l190 -694l210 695c2 6 6 9 10 9s8 -3 10 -9l210 -695l190 694c1 5 6 8 10 8c5 0 11 -3 11 -9c0 -2 -1 -5 -1 -5z
M359 840c0 10 9 19 19 19s19 -9 19 -19s-9 -19 -19 -19s-19 9 -19 19zM500 840c0 10 9 19 19 19s19 -9 19 -19s-9 -19 -19 -19s-19 9 -19 19z" />
    <glyph glyph-name="wdieresis" unicode="&#x1e85;" horiz-adv-x="700" 
d="M670 495c0 -5 -139 -461 -150 -498c-1 -4 -5 -9 -10 -9s-8 5 -9 9l-151 465l-150 -465c-1 -4 -5 -9 -10 -9s-8 5 -9 9c-11 37 -151 492 -151 498s5 10 10 10c4 0 9 -3 10 -7l140 -465l151 465c1 4 4 9 9 9s9 -5 10 -9l150 -465l141 465c1 4 5 7 9 7c5 0 10 -4 10 -10z
M260 613c0 10 9 19 19 19s19 -9 19 -19s-9 -19 -19 -19s-19 9 -19 19zM401 613c0 10 9 19 19 19s19 -9 19 -19s-9 -19 -19 -19s-19 9 -19 19z" />
    <glyph glyph-name="Ycircumflex" unicode="&#x176;" horiz-adv-x="540" 
d="M520 730c0 -2 0 -3 -1 -5l-239 -400v-315c0 -7 -5 -10 -10 -10s-10 3 -10 10v315l-239 400c-1 2 -1 3 -1 5c0 6 5 10 10 10c3 0 7 -1 9 -5l231 -387l231 387c2 4 6 5 9 5c5 0 10 -4 10 -10zM359 832c0 -5 -6 -10 -11 -10c-2 0 -4 1 -6 3l-72 70l-73 -70
c-2 -2 -4 -3 -6 -3c-5 0 -11 5 -11 10c0 2 2 5 4 7l79 77c2 2 4 3 7 3s4 -1 6 -3l79 -77c2 -2 4 -5 4 -7z" />
    <glyph glyph-name="ycircumflex" unicode="&#x177;" horiz-adv-x="441" 
d="M411 495c0 -1 0 -3 -1 -4l-259 -695c-2 -5 -5 -6 -9 -6c-5 0 -10 4 -10 10c0 1 0 2 1 3l74 199l-176 490c0 1 -1 2 -1 3c0 6 5 10 10 10c4 0 8 -2 10 -7l167 -467l175 467c2 5 5 7 9 7c5 0 10 -4 10 -10zM310 597c0 -5 -6 -10 -11 -10c-2 0 -4 1 -6 3l-72 70l-73 -70
c-2 -2 -4 -3 -6 -3c-5 0 -11 5 -11 10c0 2 2 5 4 7l79 77c2 2 4 3 7 3s4 -1 6 -3l79 -77c2 -2 4 -5 4 -7z" />
    <glyph glyph-name="Ydieresis" unicode="&#x178;" horiz-adv-x="540" 
d="M520 730c0 -2 0 -3 -1 -5l-239 -400v-315c0 -7 -5 -10 -10 -10s-10 3 -10 10v315l-239 400c-1 2 -1 3 -1 5c0 6 5 10 10 10c3 0 7 -1 9 -5l231 -387l231 387c2 4 6 5 9 5c5 0 10 -4 10 -10zM180 848c0 10 9 19 19 19s19 -9 19 -19s-9 -19 -19 -19s-19 9 -19 19zM321 848
c0 10 9 19 19 19s19 -9 19 -19s-9 -19 -19 -19s-19 9 -19 19z" />
    <glyph glyph-name="ydieresis" unicode="&#xff;" horiz-adv-x="441" 
d="M411 495c0 -1 0 -3 -1 -4l-259 -695c-2 -5 -5 -6 -9 -6c-5 0 -10 4 -10 10c0 1 0 2 1 3l74 199l-176 490c0 1 -1 2 -1 3c0 6 5 10 10 10c4 0 8 -2 10 -7l167 -467l175 467c2 5 5 7 9 7c5 0 10 -4 10 -10zM131 613c0 10 9 19 19 19s19 -9 19 -19s-9 -19 -19 -19
s-19 9 -19 19zM272 613c0 10 9 19 19 19s19 -9 19 -19s-9 -19 -19 -19s-19 9 -19 19z" />
    <glyph glyph-name="Ygrave" unicode="&#x1ef2;" horiz-adv-x="540" 
d="M520 730c0 -2 0 -3 -1 -5l-239 -400v-315c0 -7 -5 -10 -10 -10s-10 3 -10 10v315l-239 400c-1 2 -1 3 -1 5c0 6 5 10 10 10c3 0 7 -1 9 -5l231 -387l231 387c2 4 6 5 9 5c5 0 10 -4 10 -10zM173 897c0 5 4 10 10 10c4 0 6 -2 6 -2l109 -87c3 -2 4 -5 4 -8
c0 -5 -4 -10 -10 -10c-3 0 -6 2 -6 2l-109 87c-3 2 -4 5 -4 8z" />
    <glyph glyph-name="ygrave" unicode="&#x1ef3;" horiz-adv-x="441" 
d="M411 495c0 -1 0 -3 -1 -4l-259 -695c-2 -5 -5 -6 -9 -6c-5 0 -10 4 -10 10c0 1 0 2 1 3l74 199l-176 490c0 1 -1 2 -1 3c0 6 5 10 10 10c4 0 8 -2 10 -7l167 -467l175 467c2 5 5 7 9 7c5 0 10 -4 10 -10zM117 674c0 5 4 10 10 10c4 0 6 -2 6 -2l109 -87c3 -2 4 -5 4 -8
c0 -5 -4 -10 -10 -10c-3 0 -6 2 -6 2l-109 87c-3 2 -4 5 -4 8z" />
    <glyph glyph-name="Yacute" unicode="&#xdd;" horiz-adv-x="540" 
d="M520 730c0 -2 0 -3 -1 -5l-239 -400v-315c0 -7 -5 -10 -10 -10s-10 3 -10 10v315l-239 400c-1 2 -1 3 -1 5c0 6 5 10 10 10c3 0 7 -1 9 -5l231 -387l231 387c2 4 6 5 9 5c5 0 10 -4 10 -10zM364 909c0 -3 -1 -6 -4 -8l-109 -87s-3 -2 -6 -2c-6 0 -10 5 -10 10
c0 3 1 6 4 8l109 87s2 2 6 2c6 0 10 -5 10 -10z" />
    <glyph glyph-name="yacute" unicode="&#xfd;" horiz-adv-x="441" 
d="M411 495c0 -1 0 -3 -1 -4l-259 -695c-2 -5 -5 -6 -9 -6c-5 0 -10 4 -10 10c0 1 0 2 1 3l74 199l-176 490c0 1 -1 2 -1 3c0 6 5 10 10 10c4 0 8 -2 10 -7l167 -467l175 467c2 5 5 7 9 7c5 0 10 -4 10 -10zM315 674c0 -3 -1 -6 -4 -8l-109 -87s-3 -2 -6 -2
c-6 0 -10 5 -10 10c0 3 1 6 4 8l109 87s2 2 6 2c6 0 10 -5 10 -10z" />
    <glyph glyph-name="Zacute" unicode="&#x179;" horiz-adv-x="545" 
d="M500 10c0 -5 -3 -10 -10 -10h-434c-7 0 -11 4 -11 9c0 2 1 4 2 6l421 705h-389c-7 0 -10 5 -10 10s3 10 10 10h407c7 0 11 -4 11 -9c0 -2 -1 -4 -2 -6l-421 -705h416c7 0 10 -5 10 -10zM347 909c0 -3 -1 -6 -4 -8l-109 -87s-3 -2 -6 -2c-6 0 -10 5 -10 10c0 3 1 6 4 8
l109 87s2 2 6 2c6 0 10 -5 10 -10z" />
    <glyph glyph-name="zacute" unicode="&#x17a;" horiz-adv-x="417" 
d="M377 10c0 -5 -3 -10 -10 -10h-321c-7 0 -11 3 -11 8c0 2 0 5 2 7l307 470h-275c-7 0 -10 5 -10 10s3 10 10 10h294c7 0 10 -3 10 -8c0 -2 0 -5 -2 -7l-307 -470h303c7 0 10 -5 10 -10zM283 674c0 -3 -1 -6 -4 -8l-109 -87s-3 -2 -6 -2c-6 0 -10 5 -10 10c0 3 1 6 4 8
l109 87s2 2 6 2c6 0 10 -5 10 -10z" />
    <glyph glyph-name="Zdotaccent" unicode="&#x17b;" horiz-adv-x="545" 
d="M500 10c0 -5 -3 -10 -10 -10h-434c-7 0 -11 4 -11 9c0 2 1 4 2 6l421 705h-389c-7 0 -10 5 -10 10s3 10 10 10h407c7 0 11 -4 11 -9c0 -2 -1 -4 -2 -6l-421 -705h416c7 0 10 -5 10 -10zM253 858c0 10 9 19 19 19s19 -9 19 -19s-9 -19 -19 -19s-19 9 -19 19z" />
    <glyph glyph-name="zdotaccent" unicode="&#x17c;" horiz-adv-x="417" 
d="M377 10c0 -5 -3 -10 -10 -10h-321c-7 0 -11 3 -11 8c0 2 0 5 2 7l307 470h-275c-7 0 -10 5 -10 10s3 10 10 10h294c7 0 10 -3 10 -8c0 -2 0 -5 -2 -7l-307 -470h303c7 0 10 -5 10 -10zM189 623c0 10 9 19 19 19s19 -9 19 -19s-9 -19 -19 -19s-19 9 -19 19z" />
    <glyph glyph-name="Zcaron" unicode="&#x17d;" horiz-adv-x="545" 
d="M500 10c0 -5 -3 -10 -10 -10h-434c-7 0 -11 4 -11 9c0 2 1 4 2 6l421 705h-389c-7 0 -10 5 -10 10s3 10 10 10h407c7 0 11 -4 11 -9c0 -2 -1 -4 -2 -6l-421 -705h416c7 0 10 -5 10 -10zM372 909c0 -3 -1 -5 -4 -7l-79 -77c-1 -2 -4 -3 -6 -3c-3 0 -6 1 -7 3l-79 77
c-3 2 -4 4 -4 7c0 5 5 10 11 10c2 0 4 -1 6 -3l72 -70l73 70c2 2 4 3 6 3c6 0 11 -5 11 -10z" />
    <glyph glyph-name="zcaron" unicode="&#x17e;" horiz-adv-x="417" 
d="M377 10c0 -5 -3 -10 -10 -10h-321c-7 0 -11 3 -11 8c0 2 0 5 2 7l307 470h-275c-7 0 -10 5 -10 10s3 10 10 10h294c7 0 10 -3 10 -8c0 -2 0 -5 -2 -7l-307 -470h303c7 0 10 -5 10 -10zM308 674c0 -3 -1 -5 -4 -7l-79 -77c-1 -2 -4 -3 -6 -3c-3 0 -6 1 -7 3l-79 77
c-3 2 -4 4 -4 7c0 5 5 10 11 10c2 0 4 -1 6 -3l72 -70l73 70c2 2 4 3 6 3c6 0 11 -5 11 -10z" />
    <glyph glyph-name="florin" unicode="&#x192;" horiz-adv-x="322" 
d="M302 495c0 -5 -3 -10 -10 -10h-130v-544c0 -68 -54 -121 -132 -121c-7 0 -10 5 -10 10s3 10 10 10c68 0 112 45 112 101v544h-111c-7 0 -10 5 -10 10s3 10 10 10h111v124c0 68 54 121 132 121c7 0 10 -5 10 -10s-3 -10 -10 -10c-68 0 -112 -45 -112 -101v-124h130
c7 0 10 -5 10 -10z" />
    <glyph glyph-name="integral" unicode="&#x222b;" horiz-adv-x="264" 
d="M264 740c0 -5 -3 -10 -10 -10c-68 0 -112 -45 -112 -101v-688c0 -68 -54 -121 -132 -121c-7 0 -10 5 -10 10s3 10 10 10c68 0 112 45 112 101v688c0 68 54 121 132 121c7 0 10 -5 10 -10z" />
    <glyph glyph-name="schwa" unicode="&#x259;" horiz-adv-x="475" 
d="M60 225c0 5 5 10 10 10h320v105c0 85 -79 155 -165 155c-43 0 -104 -17 -130 -56c-3 -4 -9 -6 -13 -4c-5 3 -7 9 -4 14c1 1 45 66 147 66c96 0 185 -78 185 -175v-175c0 -97 -78 -175 -175 -175s-175 78 -175 175v60zM80 215v-50c0 -86 69 -155 155 -155s155 69 155 155
v50h-310z" />
    <glyph glyph-name="circumflex" unicode="&#x2c6;" horiz-adv-x="403" 
d="M291 597c0 -5 -6 -10 -11 -10c-2 0 -4 1 -6 3l-72 70l-73 -70c-2 -2 -4 -3 -6 -3c-5 0 -11 5 -11 10c0 2 2 5 4 7l79 77c2 2 4 3 7 3s4 -1 6 -3l79 -77c2 -2 4 -5 4 -7z" />
    <glyph glyph-name="caron" unicode="&#x2c7;" horiz-adv-x="403" 
d="M291 674c0 -3 -1 -5 -4 -7l-79 -77c-1 -2 -4 -3 -6 -3c-3 0 -6 1 -7 3l-79 77c-3 2 -4 4 -4 7c0 5 5 10 11 10c2 0 4 -1 6 -3l72 -70l73 70c2 2 4 3 6 3c6 0 11 -5 11 -10z" />
    <glyph glyph-name="breve" unicode="&#x2d8;" horiz-adv-x="403" 
d="M291 676c0 -49 -40 -89 -89 -89s-89 40 -89 89c0 7 5 10 10 10s10 -3 10 -10c0 -38 31 -69 69 -69s69 31 69 69c0 7 5 10 10 10s10 -3 10 -10z" />
    <glyph glyph-name="dotaccent" unicode="&#x2d9;" horiz-adv-x="403" 
d="M183 623c0 10 9 19 19 19s19 -9 19 -19s-9 -19 -19 -19s-19 9 -19 19z" />
    <glyph glyph-name="ring" unicode="&#x2da;" horiz-adv-x="403" 
d="M284 645c0 -37 -31 -68 -68 -68s-67 31 -67 68s30 67 67 67s68 -30 68 -67zM264 645c0 26 -22 47 -48 47s-47 -21 -47 -47s21 -48 47 -48s48 22 48 48z" />
    <glyph glyph-name="dieresis" unicode="&#xa8;" horiz-adv-x="403" 
d="M110 613c0 10 9 19 19 19s19 -9 19 -19s-9 -19 -19 -19s-19 9 -19 19zM251 613c0 10 9 19 19 19s19 -9 19 -19s-9 -19 -19 -19s-19 9 -19 19z" />
    <glyph glyph-name="tilde" unicode="&#x2dc;" horiz-adv-x="434" 
d="M328 640c0 -1 -1 -2 -1 -3c0 0 -2 -3 -4 -8c-13 -25 -35 -41 -64 -41c-41 0 -48 39 -84 39c-21 0 -40 -18 -49 -36c-2 -4 -6 -6 -9 -6c-5 0 -11 5 -11 10c0 2 1 3 2 5c0 0 1 2 4 7c14 22 36 40 63 40c46 0 52 -39 84 -39c37 0 49 35 49 35c2 5 5 7 9 7c5 0 11 -4 11 -10z
" />
    <glyph glyph-name="macron" unicode="&#xaf;" horiz-adv-x="403" 
d="M290 617c0 -5 -2 -10 -9 -10h-158c-7 0 -10 5 -10 10s3 10 10 10h158c7 0 9 -5 9 -10z" />
    <glyph glyph-name="hungarumlaut" unicode="&#x2dd;" horiz-adv-x="403" 
d="M196 674c0 -3 -1 -6 -4 -8l-109 -87s-3 -2 -6 -2c-6 0 -10 5 -10 10c0 3 1 6 4 8l109 87s2 2 6 2c6 0 10 -5 10 -10zM335 674c0 -3 -1 -6 -4 -8l-109 -87s-3 -2 -6 -2c-6 0 -10 5 -10 10c0 3 1 6 4 8l109 87s2 2 6 2c6 0 10 -5 10 -10z" />
    <glyph glyph-name="grave" unicode="`" horiz-adv-x="403" 
d="M137 674c0 5 4 10 10 10c4 0 6 -2 6 -2l109 -87c3 -2 4 -5 4 -8c0 -5 -4 -10 -10 -10c-3 0 -6 2 -6 2l-109 87c-3 2 -4 5 -4 8z" />
    <glyph glyph-name="acute" unicode="&#xb4;" horiz-adv-x="403" 
d="M266 674c0 -3 -1 -6 -4 -8l-109 -87s-3 -2 -6 -2c-6 0 -10 5 -10 10c0 3 1 6 4 8l109 87s2 2 6 2c6 0 10 -5 10 -10z" />
    <glyph glyph-name="periodcentered" unicode="&#xb7;" horiz-adv-x="140" 
d="M51 355c0 10 9 19 19 19s19 -9 19 -19s-9 -19 -19 -19s-19 9 -19 19z" />
    <glyph glyph-name="ogonek" unicode="&#x2db;" horiz-adv-x="268" 
d="M75 -128c0 -52 49 -55 68 -55c16 0 45 9 70 43c3 4 6 5 9 5c5 0 9 -4 9 -9c0 -4 -4 -9 -8 -14c-19 -21 -48 -42 -81 -42c-37 0 -86 12 -86 71c0 56 70 115 117 152c13 10 27 24 34 16c6 -7 -5 -13 -21 -26c-44 -35 -111 -94 -111 -141z" />
    <glyph glyph-name="cedilla" unicode="&#xb8;" horiz-adv-x="397" 
d="M250 -116c0 -35 -28 -63 -63 -63c-7 0 -10 5 -10 10s3 10 10 10c23 0 43 20 43 43s-20 42 -43 42c-7 0 -12 6 -10 12l23 64c2 5 5 7 9 7c5 0 10 -3 10 -9c0 -2 -1 -4 -1 -4l-17 -51c28 -6 49 -31 49 -61z" />
    <glyph glyph-name="commaaccent" unicode="&#xf6c3;" horiz-adv-x="189" 
d="M119 -83c0 -72 -24 -114 -73 -158c-2 -2 -4 -2 -6 -2c-6 0 -10 5 -10 10c0 3 1 6 4 8c0 0 5 4 13 12c32 30 52 63 52 130c0 7 5 10 10 10s10 -3 10 -10z" />
    <glyph glyph-name="asciicircum" unicode="^" horiz-adv-x="494" 
d="M434 390c0 -6 -5 -10 -10 -10c-3 0 -7 1 -9 5l-168 314l-168 -314c-2 -4 -6 -5 -9 -5c-5 0 -10 4 -10 10c0 2 0 3 1 5l177 330c2 4 6 6 9 6s7 -2 9 -6l177 -330c1 -2 1 -3 1 -5z" />
    <glyph glyph-name="asciitilde" unicode="~" horiz-adv-x="435" 
d="M385 438c0 -4 -5 -11 -7 -14c-20 -34 -55 -52 -96 -52c-63 0 -69 56 -130 56c-33 0 -66 -23 -83 -51c-2 -4 -5 -5 -8 -5c-6 0 -11 4 -11 10c0 4 6 12 8 15c23 29 56 51 94 51c70 0 77 -56 130 -56c33 0 70 18 83 50c2 4 6 6 9 6c5 0 11 -4 11 -10z" />
    <glyph glyph-name="hyphen" unicode="-" horiz-adv-x="340" 
d="M290 359c0 -5 -3 -10 -10 -10h-220c-7 0 -10 5 -10 10s3 10 10 10h220c7 0 10 -5 10 -10z" />
    <glyph glyph-name="endash" unicode="&#x2013;" horiz-adv-x="426" 
d="M376 359c0 -5 -3 -10 -10 -10h-306c-7 0 -10 5 -10 10s3 10 10 10h306c7 0 10 -5 10 -10z" />
    <glyph glyph-name="emdash" unicode="&#x2014;" horiz-adv-x="732" 
d="M682 359c0 -5 -3 -10 -10 -10h-612c-7 0 -10 5 -10 10s3 10 10 10h612c7 0 10 -5 10 -10z" />
    <glyph glyph-name="underscore" unicode="_" horiz-adv-x="460" 
d="M480 -190c0 -5 -3 -10 -10 -10h-480c-7 0 -10 5 -10 10s3 10 10 10h480c7 0 10 -5 10 -10z" />
    <glyph glyph-name="comma" unicode="," horiz-adv-x="170" 
d="M110 28c0 -72 -33 -163 -94 -208c-2 -2 -4 -2 -6 -2c-6 0 -10 5 -10 10c0 3 1 6 4 8c0 0 5 4 13 12c48 47 73 113 73 180c0 7 5 10 10 10s10 -3 10 -10z" />
    <glyph glyph-name="period" unicode="." horiz-adv-x="140" 
d="M51 19c0 10 9 19 19 19s19 -9 19 -19s-9 -19 -19 -19s-19 9 -19 19z" />
    <glyph glyph-name="colon" unicode=":" horiz-adv-x="140" 
d="M51 19c0 10 9 19 19 19s19 -9 19 -19s-9 -19 -19 -19s-19 9 -19 19zM51 486c0 10 9 19 19 19s19 -9 19 -19s-9 -19 -19 -19s-19 9 -19 19z" />
    <glyph glyph-name="semicolon" unicode=";" horiz-adv-x="170" 
d="M110 28c0 -72 -33 -163 -94 -208c-2 -2 -4 -2 -6 -2c-6 0 -10 5 -10 10c0 3 1 6 4 8c0 0 5 4 13 12c48 47 73 113 73 180c0 7 5 10 10 10s10 -3 10 -10zM81 486c0 10 9 19 19 19s19 -9 19 -19s-9 -19 -19 -19s-19 9 -19 19z" />
    <glyph glyph-name="quoteleft" unicode="&#x2018;" horiz-adv-x="180" 
d="M150 730c0 -3 -1 -6 -4 -8c0 0 -5 -4 -13 -12c-48 -47 -73 -113 -73 -180c0 -7 -5 -10 -10 -10s-10 3 -10 10c0 72 33 163 94 208c2 2 4 2 6 2c6 0 10 -5 10 -10z" />
    <glyph glyph-name="quoteright" unicode="&#x2019;" horiz-adv-x="180" 
d="M140 730c0 -72 -33 -163 -94 -208c-2 -2 -4 -2 -6 -2c-6 0 -10 5 -10 10c0 3 1 6 4 8c0 0 5 4 13 12c48 47 73 113 73 180c0 7 5 10 10 10s10 -3 10 -10z" />
    <glyph glyph-name="quotedbl" unicode="&#x22;" horiz-adv-x="271" 
d="M211 570c0 -7 -5 -10 -10 -10s-10 3 -10 10v160c0 7 5 10 10 10s10 -3 10 -10v-160zM80 570c0 -7 -5 -10 -10 -10s-10 3 -10 10v160c0 7 5 10 10 10s10 -3 10 -10v-160z" />
    <glyph glyph-name="quotesingle" unicode="'" horiz-adv-x="140" 
d="M80 570c0 -7 -5 -10 -10 -10s-10 3 -10 10v160c0 7 5 10 10 10s10 -3 10 -10v-160z" />
    <glyph glyph-name="quotesinglbase" unicode="&#x201a;" horiz-adv-x="170" 
d="M110 28c0 -72 -33 -163 -94 -208c-2 -2 -4 -2 -6 -2c-6 0 -10 5 -10 10c0 3 1 6 4 8c0 0 5 4 13 12c48 47 73 113 73 180c0 7 5 10 10 10s10 -3 10 -10z" />
    <glyph glyph-name="quotedblleft" unicode="&#x201c;" horiz-adv-x="314" 
d="M284 730c0 -3 -1 -6 -4 -8c0 0 -5 -4 -13 -12c-48 -47 -73 -113 -73 -180c0 -7 -5 -10 -10 -10s-10 3 -10 10c0 72 33 163 94 208c2 2 4 2 6 2c6 0 10 -5 10 -10zM150 730c0 -3 -1 -6 -4 -8c0 0 -5 -4 -13 -12c-48 -47 -73 -113 -73 -180c0 -7 -5 -10 -10 -10
s-10 3 -10 10c0 72 33 163 94 208c2 2 4 2 6 2c6 0 10 -5 10 -10z" />
    <glyph glyph-name="quotedblright" unicode="&#x201d;" horiz-adv-x="314" 
d="M274 730c0 -72 -33 -163 -94 -208c-2 -2 -4 -2 -6 -2c-6 0 -10 5 -10 10c0 3 1 6 4 8c0 0 5 4 13 12c48 47 73 113 73 180c0 7 5 10 10 10s10 -3 10 -10zM140 730c0 -72 -33 -163 -94 -208c-2 -2 -4 -2 -6 -2c-6 0 -10 5 -10 10c0 3 1 6 4 8c0 0 5 4 13 12
c48 47 73 113 73 180c0 7 5 10 10 10s10 -3 10 -10z" />
    <glyph glyph-name="quotedblbase" unicode="&#x201e;" horiz-adv-x="304" 
d="M110 28c0 -72 -33 -163 -94 -208c-2 -2 -4 -2 -6 -2c-6 0 -10 5 -10 10c0 3 1 6 4 8c0 0 5 4 13 12c48 47 73 113 73 180c0 7 5 10 10 10s10 -3 10 -10zM244 28c0 -72 -33 -163 -94 -208c-2 -2 -4 -2 -6 -2c-6 0 -10 5 -10 10c0 3 1 6 4 8c0 0 5 4 13 12
c48 47 73 113 73 180c0 7 5 10 10 10s10 -3 10 -10z" />
    <glyph glyph-name="bullet" unicode="&#x2022;" horiz-adv-x="339" 
d="M279 366c0 -61 -49 -110 -109 -110c-61 0 -110 49 -110 109c0 61 49 110 109 110c61 0 110 -49 110 -109z" />
    <glyph glyph-name="ellipsis" unicode="&#x2026;" horiz-adv-x="400" 
d="M51 19c0 10 9 19 19 19s19 -9 19 -19s-9 -19 -19 -19s-19 9 -19 19zM181 19c0 10 9 19 19 19s19 -9 19 -19s-9 -19 -19 -19s-19 9 -19 19zM311 19c0 10 9 19 19 19s19 -9 19 -19s-9 -19 -19 -19s-19 9 -19 19z" />
    <glyph glyph-name="fraction" unicode="&#x2044;" horiz-adv-x="637" 
d="M573 719c0 -2 -1 -4 -2 -6l-496 -707c-2 -3 -5 -4 -8 -4c-5 0 -10 4 -10 10c0 2 1 4 2 6l496 707c2 3 5 4 8 4c5 0 10 -4 10 -10z" />
    <glyph glyph-name="infinity" unicode="&#x221e;" horiz-adv-x="895" 
d="M845 358c0 -102 -79 -173 -178 -173c-108 0 -166 77 -220 156c-54 -79 -110 -156 -219 -156c-99 0 -178 71 -178 173c0 100 79 173 178 173c108 0 165 -76 219 -155c54 79 111 155 220 155c99 0 178 -73 178 -173zM825 358c0 88 -69 153 -158 153
c-101 0 -155 -75 -208 -153c54 -78 107 -153 208 -153c89 0 158 63 158 153zM435 358c-53 78 -107 153 -207 153c-89 0 -158 -65 -158 -153c0 -90 69 -153 158 -153c101 0 154 75 207 153z" />
    <glyph glyph-name="arrowleft" unicode="&#x2190;" horiz-adv-x="756" 
d="M706 359c0 -5 -3 -10 -10 -10h-632l272 -272c2 -2 3 -5 3 -7c0 -5 -5 -10 -10 -10c-2 0 -5 1 -7 3l-288 288c-3 1 -4 5 -4 8s1 7 4 8l288 288c2 2 5 3 7 3c5 0 10 -5 10 -10c0 -2 -1 -5 -3 -7l-272 -272h632c7 0 10 -5 10 -10z" />
    <glyph glyph-name="arrowup" unicode="&#x2191;" horiz-adv-x="698" 
d="M648 398c0 -5 -5 -10 -10 -10c-2 0 -5 1 -7 3l-272 272v-632c0 -7 -5 -10 -10 -10s-10 3 -10 10v632l-272 -272c-2 -2 -5 -3 -7 -3c-5 0 -10 5 -10 10c0 2 1 5 3 7l288 288c2 3 5 4 8 4s7 -1 9 -4l287 -288c2 -2 3 -5 3 -7z" />
    <glyph glyph-name="arrowright" unicode="&#x2192;" horiz-adv-x="756" 
d="M726 359c0 -3 -1 -7 -4 -8l-288 -288c-2 -2 -5 -3 -7 -3c-5 0 -10 5 -10 10c0 2 1 5 3 7l272 272h-632c-7 0 -10 5 -10 10s3 10 10 10h632l-272 272c-2 2 -3 5 -3 7c0 5 5 10 10 10c2 0 5 -1 7 -3l288 -288c3 -1 4 -5 4 -8z" />
    <glyph glyph-name="arrowdown" unicode="&#x2193;" horiz-adv-x="698" 
d="M648 320c0 -2 -1 -5 -3 -7l-287 -288c-2 -3 -6 -4 -9 -4s-6 1 -8 4l-288 288c-2 2 -3 5 -3 7c0 5 5 10 10 10c2 0 5 -1 7 -3l272 -272v632c0 7 5 10 10 10s10 -3 10 -10v-632l272 272c2 2 5 3 7 3c5 0 10 -5 10 -10z" />
    <glyph glyph-name="apple" unicode="&#xf8ff;" horiz-adv-x="858" 
d="M436 588c15 0 39 6 72 17s62 17 87 17c40 0 76 -11 107 -32c17 -13 35 -29 52 -50c-26 -23 -45 -43 -57 -60c-22 -31 -33 -65 -33 -103c0 -41 11 -79 34 -112s50 -54 80 -63c-13 -40 -33 -82 -62 -125c-43 -65 -86 -98 -129 -98c-17 0 -40 5 -70 16c-29 11 -54 16 -75 16
s-45 -6 -72 -17s-49 -17 -66 -17c-51 0 -101 43 -150 130c-49 85 -74 169 -74 252c0 77 19 139 56 187c38 48 86 72 143 72c24 0 53 -5 88 -15s58 -15 69 -15zM589 790c0 -43 -18 -95 -61 -138c-18 -18 -36 -30 -54 -36c-11 -3 -29 -6 -52 -8c1 99 48 176 164 203
c3 -9 3 -16 3 -21z" />
    <glyph glyph-name="madslug" unicode="&#xf800;" horiz-adv-x="896" 
d="M650 51c-59 -37 -129 -60 -203 -60c-203 0 -367 165 -367 370c0 133 74 250 135 250c31 0 48 -19 48 -51c0 -56 -59 -281 -59 -295c0 -8 8 -11 17 -11c22 0 94 15 100 26c2 10 59 249 59 307c0 57 -52 82 -113 82c-7 0 -19 -2 -19 -2l-2 3c58 37 126 60 201 60
c205 0 369 -165 369 -370c0 -133 -74 -250 -135 -250c-31 0 -48 19 -48 51c0 56 59 281 59 294c0 9 -8 12 -17 12c-22 0 -94 -15 -100 -26c-2 -10 -59 -249 -59 -307c0 -57 52 -82 113 -82c7 0 19 1 19 1zM476 234c4 20 57 249 57 268c0 7 -6 9 -16 9c-20 0 -78 -9 -97 -24
c-4 -20 -57 -249 -57 -268c0 -7 6 -10 16 -10c20 0 78 10 97 25z" />
    <glyph glyph-name="space" unicode=" " horiz-adv-x="240" 
 />
    <glyph glyph-name="uni00A0" unicode="&#xa0;" horiz-adv-x="240" 
 />
    </font>
</defs>
</svg>
