<?xml version="1.0" standalone="no"?>
<!DOCTYPE svg PUBLIC "-//W3C//DTD SVG 1.1//EN" "http://www.w3.org/Graphics/SVG/1.1/DTD/svg11.dtd" >
<svg xmlns="http://www.w3.org/2000/svg" xmlns:xlink="http://www.w3.org/1999/xlink" version="1.1">
<metadata>
Created by FontForge 20161116 at Wed Mar 31 12:13:11 2010
 By Jimmy Wärting
Copyright (c) Matt Desmond, 2010. All rights reserved.
</metadata>
<defs>
<font id="Variable" horiz-adv-x="510" >
  <font-face 
    font-family="Variable"
    font-weight="400"
    font-stretch="normal"
    units-per-em="1000"
    panose-1="2 0 5 6 2 0 0 2 0 4"
    ascent="760"
    descent="-240"
    x-height="535"
    cap-height="760"
    bbox="-63 -236 1170 1166"
    underline-thickness="50"
    underline-position="-100"
    unicode-range="U+0020-F8FF"
  />
<missing-glyph horiz-adv-x="240" 
 />
    <glyph glyph-name=".notdef" horiz-adv-x="240" 
 />
    <glyph glyph-name="exclam" unicode="!" horiz-adv-x="180" 
d="M110 265c0 -13 -10 -20 -20 -20s-20 7 -20 20v475c0 13 10 20 20 20s20 -7 20 -20v-475zM59 31c0 17 14 31 31 31s31 -14 31 -31s-14 -31 -31 -31s-31 14 -31 31z" />
    <glyph glyph-name="exclamdown" unicode="&#xa1;" horiz-adv-x="180" 
d="M110 -190c0 -13 -10 -20 -20 -20s-20 7 -20 20v475c0 13 10 20 20 20s20 -7 20 -20v-475zM59 519c0 17 14 31 31 31s31 -14 31 -31s-14 -31 -31 -31s-31 14 -31 31z" />
    <glyph glyph-name="question" unicode="?" horiz-adv-x="470" 
d="M410 599c0 -170 -174 -202 -216 -340c-3 -10 -10 -14 -18 -14c-11 0 -21 7 -21 19c0 2 0 4 1 7c0 0 6 20 23 49c57 99 191 153 191 279c0 79 -49 131 -139 131c-60 0 -119 -38 -142 -93c-4 -8 -11 -12 -18 -12c-11 0 -21 8 -21 19c0 3 1 6 2 9c0 0 3 7 10 19
c36 60 97 98 169 98c111 0 179 -68 179 -171zM134 31c0 17 14 31 31 31s31 -14 31 -31s-14 -31 -31 -31s-31 14 -31 31z" />
    <glyph glyph-name="questiondown" unicode="&#xbf;" horiz-adv-x="470" 
d="M420 -84c0 -3 0 -6 -2 -9c0 0 -3 -7 -10 -19c-36 -60 -97 -98 -169 -98c-110 0 -179 68 -179 171c0 170 175 202 216 340c3 10 11 14 18 14c11 0 21 -7 21 -19c0 -2 0 -4 -1 -7c0 0 -6 -20 -23 -49c-57 -99 -191 -153 -191 -279c0 -79 49 -131 139 -131
c60 0 119 38 143 93c3 8 10 12 17 12c11 0 21 -8 21 -19zM274 529c0 17 14 31 31 31s31 -14 31 -31s-14 -31 -31 -31s-31 14 -31 31z" />
    <glyph glyph-name="numbersign" unicode="#" horiz-adv-x="726" 
d="M706 503c0 -10 -7 -20 -20 -20h-169l-22 -206h165c13 0 20 -10 20 -20s-7 -20 -20 -20h-169l-23 -219c-1 -12 -10 -18 -20 -18s-20 7 -20 19v3l23 215h-206l-23 -219c-1 -12 -10 -18 -20 -18s-20 7 -20 19v3l23 215h-165c-13 0 -20 10 -20 20s7 20 20 20h169l22 206h-165
c-13 0 -20 10 -20 20s7 20 20 20h169l23 219c1 12 10 18 20 18s20 -7 20 -19v-3l-23 -215h206l23 219c1 12 10 18 20 18s20 -7 20 -19v-3l-23 -215h165c13 0 20 -10 20 -20zM477 483h-206l-22 -206h206z" />
    <glyph glyph-name="dollar" unicode="$" horiz-adv-x="570" 
d="M510 191c0 -111 -90 -185 -205 -199v-77c0 -13 -10 -20 -20 -20s-20 7 -20 20v75c-68 0 -160 29 -201 89c-3 4 -4 8 -4 12c0 11 10 20 20 20c6 0 12 -3 16 -9c0 0 3 -4 9 -10c41 -42 102 -62 160 -62v352c-101 38 -201 79 -201 201c0 115 96 183 201 187v65
c0 13 10 20 20 20s20 -7 20 -20v-67c67 -9 139 -46 179 -100c3 -4 4 -8 4 -12c0 -11 -9 -20 -20 -20c-6 0 -11 2 -16 8c0 0 -4 5 -11 13c-36 37 -84 63 -136 71v-318c102 -39 205 -85 205 -219zM265 730c-89 -4 -161 -61 -161 -147c0 -89 75 -125 161 -158v305zM470 191
c0 100 -78 141 -165 175v-333c99 13 165 76 165 158z" />
    <glyph glyph-name="percent" unicode="%" horiz-adv-x="817" 
d="M372 599c0 -89 -72 -161 -161 -161s-161 72 -161 161s72 161 161 161s161 -72 161 -161zM688 740c0 -4 -2 -8 -4 -12l-517 -728c-5 -6 -10 -8 -16 -8c-11 0 -21 9 -21 20c0 4 1 8 4 12l517 728c4 6 10 8 16 8c10 0 21 -9 21 -20zM767 153c0 -89 -72 -161 -161 -161
s-161 72 -161 161s72 161 161 161s161 -72 161 -161zM332 599c0 67 -54 121 -121 121c-66 0 -121 -54 -121 -121s55 -121 121 -121c67 0 121 54 121 121zM727 153c0 67 -54 121 -121 121c-66 0 -121 -54 -121 -121s55 -121 121 -121c67 0 121 54 121 121z" />
    <glyph glyph-name="perthousand" unicode="&#x2030;" horiz-adv-x="1220" 
d="M1170 153c0 -89 -72 -161 -161 -161s-161 72 -161 161s72 161 161 161s161 -72 161 -161zM372 599c0 -89 -72 -161 -161 -161s-161 72 -161 161s72 161 161 161s161 -72 161 -161zM688 740c0 -4 -2 -8 -4 -12l-517 -728c-5 -6 -10 -8 -16 -8c-11 0 -21 9 -21 20
c0 4 1 8 4 12l517 728c4 6 10 8 16 8c10 0 21 -9 21 -20zM767 153c0 -89 -72 -161 -161 -161s-161 72 -161 161s72 161 161 161s161 -72 161 -161zM1130 153c0 67 -54 121 -121 121s-121 -54 -121 -121s54 -121 121 -121s121 54 121 121zM332 599c0 67 -54 121 -121 121
c-66 0 -121 -54 -121 -121s55 -121 121 -121c67 0 121 54 121 121zM727 153c0 67 -54 121 -121 121c-66 0 -121 -54 -121 -121s55 -121 121 -121c67 0 121 54 121 121z" />
    <glyph glyph-name="ampersand" unicode="&#x26;" horiz-adv-x="598" 
d="M573 21c0 -11 -10 -21 -21 -21c-5 0 -10 2 -15 8l-72 84c-43 -57 -102 -100 -176 -100c-126 0 -224 87 -224 214c0 103 60 160 127 207l-17 20c-39 45 -72 105 -72 155c0 97 58 182 162 182c80 0 152 -67 152 -152c0 -110 -84 -161 -165 -214l208 -244
c29 54 41 106 41 109c3 11 11 16 19 16c11 0 21 -7 21 -19c0 -2 0 -3 -1 -5c-9 -44 -27 -91 -52 -134l80 -93c3 -4 5 -9 5 -13zM377 618c0 63 -53 112 -112 112c-75 0 -122 -60 -122 -142c0 -36 26 -86 62 -129l20 -24c77 50 152 94 152 183zM438 124l-220 258
c-61 -42 -113 -91 -113 -176c0 -103 78 -174 184 -174c68 0 116 43 149 92z" />
    <glyph glyph-name="parenleft" unicode="(" horiz-adv-x="263" 
d="M213 -160c0 -11 -10 -20 -20 -20c-6 0 -11 2 -16 8c-2 2 -127 166 -127 467s125 465 127 467c5 6 10 9 16 9c10 0 20 -10 20 -21c0 -4 -1 -8 -4 -12c0 0 -7 -10 -18 -28c-71 -121 -101 -276 -101 -415c0 -130 34 -331 119 -443c3 -4 4 -8 4 -12z" />
    <glyph glyph-name="parenright" unicode=")" horiz-adv-x="263" 
d="M213 295c0 -301 -125 -465 -127 -467c-4 -6 -10 -8 -15 -8c-11 0 -21 9 -21 20c0 4 1 8 4 12c86 112 119 313 119 443c0 139 -29 294 -101 415c-10 18 -18 28 -18 28c-2 4 -3 8 -3 12c0 11 9 21 20 21c5 0 11 -3 15 -9c2 -2 127 -166 127 -467z" />
    <glyph glyph-name="bracketleft" unicode="[" horiz-adv-x="293" 
d="M263 -160c0 -10 -7 -20 -20 -20h-163c-11 0 -20 9 -20 20v900c0 11 9 20 20 20h163c13 0 20 -10 20 -20s-7 -20 -20 -20h-143v-860h143c13 0 20 -10 20 -20z" />
    <glyph glyph-name="bracketright" unicode="]" horiz-adv-x="293" 
d="M233 -160c0 -11 -9 -20 -20 -20h-163c-13 0 -20 10 -20 20s7 20 20 20h143v860h-143c-13 0 -20 10 -20 20s7 20 20 20h163c11 0 20 -9 20 -20v-900z" />
    <glyph glyph-name="braceleft" unicode="{" horiz-adv-x="356" 
d="M326 740c0 -10 -6 -20 -20 -20h-50c-51 0 -93 -41 -93 -92v-226c0 -47 -25 -89 -62 -112c37 -24 62 -66 62 -113v-225c0 -51 41 -94 91 -93h1l51 1c14 0 20 -10 20 -20s-6 -20 -19 -20l-51 -1h-3c-72 -1 -130 60 -130 132v226c0 51 -41 92 -92 92c-14 0 -21 10 -21 20
s7 20 21 20c51 0 92 42 92 93v225c0 74 60 133 133 133h50c14 0 20 -10 20 -20z" />
    <glyph glyph-name="braceright" unicode="}" horiz-adv-x="356" 
d="M346 290c0 -10 -7 -20 -21 -20c-51 0 -92 -42 -92 -93v-225c0 -73 -58 -134 -130 -133h-3l-50 1c-14 0 -20 10 -20 20s7 20 20 20l51 -1h2c50 -1 90 42 90 92v226c0 47 25 89 62 112c-37 24 -62 66 -62 113v225c0 52 -41 93 -93 93h-50c-13 0 -20 10 -20 20s7 20 20 20
h50c74 0 133 -59 133 -132v-226c0 -51 41 -92 92 -92c14 0 21 -10 21 -20z" />
    <glyph glyph-name="less" unicode="&#x3c;" horiz-adv-x="500" 
d="M433 35c19 -18 -7 -48 -27 -30l-369 333c-9 8 -9 22 0 30l369 333c20 18 46 -12 27 -30l-353 -318z" />
    <glyph glyph-name="greater" unicode="&#x3e;" horiz-adv-x="500" 
d="M463 338l-369 -333c-20 -18 -47 12 -27 30l352 318l-352 318c-20 18 7 48 27 30l369 -333c9 -8 9 -22 0 -30z" />
    <glyph glyph-name="asterisk" unicode="*" horiz-adv-x="552" 
d="M502 384c0 -10 -9 -21 -20 -21c-3 0 -7 1 -10 3l-176 102v-203c0 -13 -10 -20 -20 -20s-20 7 -20 20v203l-176 -102c-3 -2 -7 -3 -10 -3c-11 0 -20 11 -20 21c0 7 3 13 10 17l176 101l-176 102c-7 4 -10 10 -10 17c0 10 9 21 20 21c3 0 7 -1 10 -3l176 -102v203
c0 13 10 20 20 20s20 -7 20 -20v-203l176 102c3 2 7 3 10 3c11 0 20 -11 20 -21c0 -7 -3 -13 -10 -17l-176 -101l176 -102c7 -4 10 -10 10 -17z" />
    <glyph glyph-name="plus" unicode="+" horiz-adv-x="700" 
d="M680 380c0 -10 -7 -20 -20 -20h-290v-290c0 -13 -10 -20 -20 -20s-20 7 -20 20v290h-290c-13 0 -20 10 -20 20s7 20 20 20h290v290c0 13 10 20 20 20s20 -7 20 -20v-290h290c13 0 20 -10 20 -20z" />
    <glyph glyph-name="plusminus" unicode="&#xb1;" horiz-adv-x="700" 
d="M660 0h-620c-13 0 -20 10 -20 20s7 20 20 20h620c13 0 20 -10 20 -20s-7 -20 -20 -20zM680 380c0 -10 -7 -20 -20 -20h-290v-240c0 -13 -10 -20 -20 -20s-20 7 -20 20v240h-290c-13 0 -20 10 -20 20s7 20 20 20h290v290c0 13 10 20 20 20s20 -7 20 -20v-290h290
c13 0 20 -10 20 -20z" />
    <glyph glyph-name="minus" unicode="&#x2212;" horiz-adv-x="620" 
d="M570 380c0 -9 -7 -20 -20 -20h-480c-13 0 -20 11 -20 20s7 20 20 20h480c13 0 20 -11 20 -20z" />
    <glyph glyph-name="multiply" unicode="&#xd7;" horiz-adv-x="599" 
d="M559 121c0 -11 -10 -21 -21 -21c-4 0 -10 2 -14 7l-224 244l-225 -244c-4 -5 -9 -7 -14 -7c-11 0 -21 10 -21 21c0 4 2 9 6 13l226 246l-226 246c-4 4 -6 9 -6 13c0 11 10 21 21 21c5 0 10 -2 14 -7l225 -244l224 244c4 5 10 7 14 7c11 0 21 -10 21 -21
c0 -4 -2 -9 -6 -13l-226 -246l226 -246c4 -4 6 -9 6 -13z" />
    <glyph glyph-name="divide" unicode="&#xf7;" horiz-adv-x="620" 
d="M330 496c0 -13 -11 -20 -20 -20s-20 7 -20 20v80c0 13 11 20 20 20s20 -7 20 -20v-80zM570 363c0 -9 -7 -20 -20 -20h-480c-13 0 -20 11 -20 20s7 20 20 20h480c13 0 20 -11 20 -20zM330 150c0 -13 -11 -20 -20 -20s-20 7 -20 20v80c0 13 11 20 20 20s20 -7 20 -20v-80z
" />
    <glyph glyph-name="equal" unicode="=" horiz-adv-x="620" 
d="M550 470h-480c-27 0 -27 40 0 40h480c27 0 27 -40 0 -40zM550 250h-480c-27 0 -27 40 0 40h480c27 0 27 -40 0 -40z" />
    <glyph glyph-name="approxequal" unicode="&#x2248;" horiz-adv-x="612" 
d="M562 483c0 -6 -4 -11 -8 -15c-35 -41 -98 -56 -149 -56c-73 0 -125 51 -197 51c-41 0 -93 -16 -123 -45c-4 -4 -9 -6 -14 -6c-11 0 -21 10 -21 21c0 10 11 17 18 23c40 30 90 47 140 47c92 0 123 -51 197 -51c38 0 92 10 119 42l1 1c4 5 10 8 16 8c11 0 21 -9 21 -20z
M562 312c0 -6 -4 -11 -8 -15c-35 -40 -98 -55 -149 -55c-72 0 -125 50 -197 50c-40 0 -93 -16 -123 -44c-5 -4 -9 -6 -14 -6c-11 0 -21 10 -21 21c0 10 11 17 18 23c40 30 90 46 140 46c91 0 123 -50 197 -50c38 0 92 10 119 41l1 1c5 5 10 8 16 8c11 0 21 -9 21 -20z" />
    <glyph glyph-name="notequal" unicode="&#x2260;" horiz-adv-x="621" 
d="M571 618c0 -5 -2 -10 -7 -14l-94 -94h80c14 0 20 -10 20 -20s-6 -20 -20 -20h-120l-182 -180h302c14 0 20 -10 20 -20s-6 -20 -20 -20h-342l-124 -122c-4 -5 -9 -6 -13 -6c-11 0 -21 9 -21 20c0 5 2 10 6 14l95 94h-81c-13 0 -20 10 -20 20s7 20 20 20h121l182 180h-303
c-13 0 -20 10 -20 20s7 20 20 20h343l123 122c5 5 10 6 14 6c11 0 21 -9 21 -20z" />
    <glyph glyph-name="backslash" unicode="\" horiz-adv-x="316" 
d="M296 -89c0 -12 -10 -19 -20 -19c-8 0 -16 4 -19 15l-236 828c-1 2 -1 4 -1 6c0 12 10 19 21 19c8 0 15 -4 18 -15l236 -828c1 -2 1 -4 1 -6z" />
    <glyph glyph-name="slash" unicode="/" horiz-adv-x="316" 
d="M296 741c0 -2 0 -4 -1 -6l-236 -828c-3 -11 -10 -15 -18 -15c-11 0 -21 7 -21 19c0 2 0 4 1 6l236 828c3 11 11 15 19 15c10 0 20 -7 20 -19z" />
    <glyph glyph-name="zero" unicode="0" horiz-adv-x="556" 
d="M496 208c0 -120 -98 -218 -218 -218s-218 98 -218 218v344c0 120 98 218 218 218s218 -98 218 -218v-344zM456 208v344c0 98 -80 178 -178 178s-178 -80 -178 -178v-344c0 -98 80 -178 178 -178s178 80 178 178z" />
    <glyph glyph-name="one" unicode="1" horiz-adv-x="556" 
d="M526 20c0 -10 -7 -20 -20 -20h-396c-13 0 -20 10 -20 20s7 20 20 20h178v666l-146 -80c-4 -2 -8 -2 -11 -2c-11 0 -19 10 -19 21c0 6 2 13 10 17l176 96c4 2 9 3 13 3c10 0 17 -8 17 -21v-700h178c13 0 20 -10 20 -20z" />
    <glyph glyph-name="two" unicode="2" horiz-adv-x="556" 
d="M488 20c0 -10 -7 -20 -20 -20h-396c-14 0 -22 7 -22 17c0 5 2 10 6 15c90 114 218 268 318 403c35 48 58 92 58 154c0 81 -68 141 -159 141c-72 0 -119 -43 -155 -87c-5 -6 -11 -8 -16 -8c-11 0 -21 9 -21 20c0 4 2 8 5 12c36 50 104 103 187 103c109 0 199 -74 199 -181
c0 -99 -47 -156 -104 -227l-255 -322h355c13 0 20 -10 20 -20z" />
    <glyph glyph-name="three" unicode="3" horiz-adv-x="556" 
d="M474 201c0 -122 -99 -209 -218 -209c-72 0 -148 45 -183 108c-7 13 3 30 18 30c13 0 19 -14 26 -23c33 -44 82 -75 139 -75c100 0 178 72 178 169s-78 168 -178 168c-14 0 -21 10 -21 20s7 20 21 20c99 0 168 66 168 163s-68 158 -168 158c-58 0 -120 -37 -148 -88
c-4 -7 -10 -11 -16 -11c-12 0 -21 9 -21 20c0 9 8 20 14 28c40 54 101 91 171 91c119 0 208 -76 208 -198c0 -86 -45 -152 -113 -183c72 -32 123 -101 123 -188z" />
    <glyph glyph-name="four" unicode="4" horiz-adv-x="556" 
d="M511 218c0 -10 -7 -20 -20 -20h-77v-178c0 -13 -10 -20 -20 -20s-20 7 -20 20v178h-309c-13 0 -20 7 -20 18c0 3 0 6 1 9c0 1 96 276 333 529c6 6 12 9 18 9c10 0 17 -9 17 -23v-502h77c13 0 20 -10 20 -20zM374 238v450c-115 -131 -214 -288 -280 -450h280z" />
    <glyph glyph-name="five" unicode="5" horiz-adv-x="556" 
d="M496 208c0 -120 -98 -218 -218 -218s-218 98 -218 218c0 13 10 20 20 20s20 -7 20 -20c0 -98 80 -178 178 -178s178 80 178 178v79c0 98 -80 178 -178 178c-53 0 -123 -20 -165 -56c-6 -5 -12 -7 -17 -7c-9 0 -16 8 -16 20v5l50 316c1 8 12 17 20 17h303
c13 0 20 -10 20 -20s-7 -20 -20 -20h-286l-40 -254c46 25 98 39 151 39c120 0 218 -98 218 -218v-79z" />
    <glyph glyph-name="six" unicode="6" horiz-adv-x="556" 
d="M506 208c0 -120 -98 -218 -218 -218s-218 98 -218 218v79c0 428 312 482 316 483c13 2 23 -5 23 -18c0 -19 -25 -21 -59 -35c-127 -52 -197 -160 -225 -285c40 45 98 73 163 73c120 0 218 -98 218 -218v-79zM466 208v79c0 98 -80 178 -178 178s-178 -80 -178 -178v-79
c0 -98 80 -178 178 -178s178 80 178 178z" />
    <glyph glyph-name="seven" unicode="7" horiz-adv-x="556" 
d="M496 737c-38 -216 -112 -470 -252 -727c-4 -8 -11 -10 -17 -10c-11 0 -21 8 -21 19c0 3 0 7 2 11c115 211 205 452 245 690h-383c-13 0 -20 10 -20 20s7 20 20 20h406c11 0 20 -9 20 -19v-4z" />
    <glyph glyph-name="eight" unicode="8" horiz-adv-x="556" 
d="M486 188c0 -113 -93 -198 -208 -198c-113 0 -208 86 -208 198c0 113 82 166 166 211c-75 42 -141 92 -141 193c0 106 79 178 183 178c106 0 183 -72 183 -178c0 -101 -66 -151 -141 -193c84 -45 166 -98 166 -211zM421 592c0 82 -57 138 -143 138
c-84 0 -143 -56 -143 -138c0 -88 67 -131 143 -171c76 40 143 83 143 171zM446 188c0 99 -83 143 -168 188c-85 -45 -168 -89 -168 -188c0 -88 75 -158 168 -158c95 0 168 69 168 158z" />
    <glyph glyph-name="nine" unicode="9" horiz-adv-x="556" 
d="M486 473c0 -198 -74 -391 -265 -467c-12 -5 -41 -16 -55 -16c-12 0 -19 10 -19 20c0 9 5 18 17 20c0 0 16 3 42 13c128 51 197 160 225 285c-40 -45 -98 -73 -163 -73c-120 0 -218 98 -218 218v79c0 120 98 218 218 218s218 -98 218 -218v-79zM446 473v79
c0 98 -80 178 -178 178s-178 -80 -178 -178v-79c0 -98 80 -178 178 -178s178 80 178 178z" />
    <glyph glyph-name="at" unicode="@" horiz-adv-x="852" 
d="M792 168c0 -70 -48 -143 -127 -143c-66 0 -110 38 -118 99c-38 -45 -94 -74 -155 -74c-95 0 -169 73 -169 168c0 57 13 126 19 184c11 101 100 183 202 183c59 0 110 -28 140 -73c1 7 5 32 5 32c1 11 9 21 21 21s19 -13 18 -22l-41 -387c-5 -52 25 -91 78 -91
c52 0 87 51 87 103v233c0 181 -141 329 -323 329s-329 -147 -329 -329v-172c0 -182 147 -329 329 -329c52 0 93 10 138 35c3 1 6 3 10 3c12 0 20 -11 20 -21c0 -8 -4 -13 -9 -16c-47 -29 -106 -41 -159 -41c-204 0 -369 165 -369 369v172c0 204 165 369 369 369
c205 0 363 -167 363 -369v-233zM572 401c9 78 -49 144 -128 144c-81 0 -154 -67 -162 -147c-6 -56 -19 -126 -19 -180c0 -73 56 -128 129 -128c79 0 153 62 161 139z" />
    <glyph glyph-name="A" unicode="A" horiz-adv-x="580" 
d="M550 19c0 -12 -10 -19 -20 -19c-8 0 -16 4 -19 14l-77 232h-287l-78 -232c-3 -10 -11 -14 -19 -14c-10 0 -20 7 -20 19c0 3 1 7 1 7l240 720c4 11 12 17 19 17c8 0 15 -6 19 -17l240 -720s1 -3 1 -7zM420 286l-130 391l-130 -391h260z" />
    <glyph glyph-name="B" unicode="B" horiz-adv-x="566" 
d="M516 208c0 -115 -93 -208 -208 -208h-208c-11 0 -20 9 -20 20v720c0 11 9 20 20 20h208c106 0 193 -86 193 -192c0 -75 -44 -140 -106 -172c71 -33 121 -105 121 -188zM476 208c0 93 -75 167 -168 167h-188v-335h188c92 0 168 75 168 168zM461 568c0 84 -69 152 -153 152
h-188v-305h188c84 0 153 69 153 153z" />
    <glyph glyph-name="C" unicode="C" horiz-adv-x="577" 
d="M527 94c0 -4 -1 -8 -5 -12c0 0 -5 -7 -15 -16c-53 -50 -126 -76 -199 -76c-137 0 -248 111 -248 248v284c0 137 111 248 248 248c72 0 167 -32 214 -92c3 -4 5 -8 5 -12c0 -11 -11 -20 -21 -20c-6 0 -11 3 -16 8c0 0 -3 4 -10 11c-46 43 -109 65 -172 65
c-115 0 -208 -93 -208 -208v-284c0 -115 93 -208 208 -208c62 0 141 26 182 76c4 5 10 8 16 8c11 0 21 -9 21 -20z" />
    <glyph glyph-name="D" unicode="D" horiz-adv-x="621" 
d="M556 248c0 -137 -111 -248 -248 -248h-208c-11 0 -20 9 -20 20v720c0 11 9 20 20 20h208c137 0 248 -111 248 -248v-264zM516 248v264c0 115 -93 208 -208 208h-188v-680h188c115 0 208 93 208 208z" />
    <glyph glyph-name="E" unicode="E" horiz-adv-x="545" 
d="M495 20c0 -10 -7 -20 -20 -20h-375c-11 0 -20 9 -20 20v720c0 11 9 20 20 20h375c13 0 20 -10 20 -20s-7 -20 -20 -20h-355v-302h325c13 0 20 -10 20 -20s-7 -20 -20 -20h-325v-338h355c13 0 20 -10 20 -20z" />
    <glyph glyph-name="F" unicode="F" horiz-adv-x="535" 
d="M495 740c0 -10 -7 -20 -20 -20h-355v-302h325c13 0 20 -10 20 -20s-7 -20 -20 -20h-325v-358c0 -13 -10 -20 -20 -20s-20 7 -20 20v720c0 11 9 20 20 20h375c13 0 20 -10 20 -20z" />
    <glyph glyph-name="G" unicode="G" horiz-adv-x="616" 
d="M556 238c0 -137 -111 -248 -248 -248s-248 111 -248 248v284c0 137 111 248 248 248c72 0 167 -32 214 -92c3 -4 5 -8 5 -12c0 -11 -11 -20 -21 -20c-12 0 -18 12 -26 19c-46 43 -109 65 -172 65c-115 0 -208 -93 -208 -208v-284c0 -115 93 -208 208 -208s208 93 208 208
v118h-200c-13 0 -20 10 -20 20s7 20 20 20h220c11 0 20 -9 20 -20v-138z" />
    <glyph glyph-name="H" unicode="H" horiz-adv-x="636" 
d="M556 20c0 -13 -10 -20 -20 -20s-20 7 -20 20v370h-396v-370c0 -13 -10 -20 -20 -20s-20 7 -20 20v720c0 13 10 20 20 20s20 -7 20 -20v-310h396v310c0 13 10 20 20 20s20 -7 20 -20v-720z" />
    <glyph glyph-name="I" unicode="I" horiz-adv-x="440" 
d="M400 20c0 -10 -7 -20 -20 -20h-320c-13 0 -20 10 -20 20s7 20 20 20h140v680h-140c-13 0 -20 10 -20 20s7 20 20 20h320c13 0 20 -10 20 -20s-7 -20 -20 -20h-140v-680h140c13 0 20 -10 20 -20z" />
    <glyph glyph-name="I.alt" unicode="&#xf801;" horiz-adv-x="200" 
d="M80 20v720c0 13 10 20 20 20s20 -7 20 -20v-720c0 -13 -10 -20 -20 -20s-20 7 -20 20z" />
    <glyph glyph-name="J" unicode="J" horiz-adv-x="531" 
d="M456 238c0 -131 -90 -248 -228 -248c-67 0 -149 33 -185 94c-2 4 -3 7 -3 11c0 11 10 19 20 19c7 0 13 -3 17 -10c0 0 3 -4 8 -10c35 -42 88 -64 143 -64c111 0 188 93 188 208v482h-258c-13 0 -20 10 -20 20s7 20 20 20h278c11 0 20 -9 20 -20v-502z" />
    <glyph glyph-name="J.alt" unicode="&#xf802;" horiz-adv-x="428" 
d="M30 17c-6 4 -10 9 -10 17c0 9 7 20 19 20c3 0 8 -1 11 -3c25 -14 57 -21 90 -21c111 0 168 73 168 188v522c0 13 10 20 20 20s20 -7 20 -20v-522c0 -131 -70 -228 -208 -228c-36 0 -83 9 -110 27z" />
    <glyph glyph-name="K" unicode="K" horiz-adv-x="618" 
d="M588 20c0 -11 -10 -20 -20 -20c-6 0 -12 2 -16 8l-288 387l-144 -166v-209c0 -13 -10 -20 -20 -20s-20 7 -20 20v720c0 13 10 20 20 20s20 -7 20 -20v-450l402 463c4 5 10 7 15 7c10 0 20 -9 20 -20c0 -4 -1 -9 -5 -13l-261 -301l293 -394c3 -4 4 -8 4 -12z" />
    <glyph glyph-name="L" unicode="L" horiz-adv-x="525" 
d="M495 20c0 -10 -7 -20 -20 -20h-375c-11 0 -20 9 -20 20v720c0 13 10 20 20 20s20 -7 20 -20v-700h355c13 0 20 -10 20 -20z" />
    <glyph glyph-name="M" unicode="M" horiz-adv-x="800" 
d="M720 20c0 -13 -10 -20 -20 -20s-20 7 -20 20v618l-262 -626c-4 -10 -11 -15 -18 -15s-14 5 -18 15l-262 626v-618c0 -13 -10 -20 -20 -20s-20 7 -20 20v718c0 15 9 23 19 23c7 0 15 -5 19 -15l282 -674l282 674c4 10 12 15 19 15c10 0 19 -8 19 -23v-718z" />
    <glyph glyph-name="N" unicode="N" horiz-adv-x="636" 
d="M556 20c0 -15 -8 -23 -18 -23c-6 0 -14 4 -19 13l-399 658v-648c0 -13 -10 -20 -20 -20s-20 7 -20 20v720c0 15 8 23 18 23c6 0 14 -4 19 -13l399 -658v648c0 13 10 20 20 20s20 -7 20 -20v-720z" />
    <glyph glyph-name="O" unicode="O" horiz-adv-x="616" 
d="M556 238c0 -137 -111 -248 -248 -248s-248 111 -248 248v284c0 137 111 248 248 248s248 -111 248 -248v-284zM516 238v284c0 115 -93 208 -208 208s-208 -93 -208 -208v-284c0 -115 93 -208 208 -208s208 93 208 208z" />
    <glyph glyph-name="P" unicode="P" horiz-adv-x="557" 
d="M517 522c0 -132 -107 -239 -239 -239h-158v-263c0 -13 -10 -20 -20 -20s-20 7 -20 20v720c0 11 9 20 20 20h178c132 0 239 -106 239 -238zM477 522c0 110 -89 198 -199 198h-158v-397h158c110 0 199 89 199 199z" />
    <glyph glyph-name="Q" unicode="Q" horiz-adv-x="616" 
d="M556 238c0 -130 -100 -237 -228 -247v-31c0 -58 47 -105 105 -105c14 0 20 -10 20 -20s-6 -20 -20 -20c-80 0 -145 65 -145 145v31c-128 10 -228 117 -228 247v284c0 137 111 248 248 248s248 -111 248 -248v-284zM516 238v284c0 115 -93 208 -208 208
s-208 -93 -208 -208v-284c0 -115 93 -208 208 -208s208 93 208 208z" />
    <glyph glyph-name="Q.alt" unicode="&#xf803;" horiz-adv-x="616" 
d="M288 -180v171c-128 10 -228 117 -228 247v284c0 137 111 248 248 248s248 -111 248 -248v-284c0 -130 -100 -237 -228 -247v-171c0 -13 -10 -20 -20 -20s-20 7 -20 20zM516 238v284c0 115 -93 208 -208 208s-208 -93 -208 -208v-284c0 -115 93 -208 208 -208
s208 93 208 208z" />
    <glyph glyph-name="R" unicode="R" horiz-adv-x="568" 
d="M518 20c0 -11 -10 -20 -21 -20c-6 0 -12 2 -16 9l-175 276c-7 -1 -20 -2 -30 -2h-156v-263c0 -13 -10 -20 -20 -20s-20 7 -20 20v720c0 11 9 20 20 20h178c132 0 239 -106 239 -238c0 -107 -72 -198 -169 -228l167 -263c2 -4 3 -8 3 -11zM120 323h158
c110 0 199 89 199 199s-89 198 -199 198h-158v-397z" />
    <glyph glyph-name="S" unicode="S" horiz-adv-x="570" 
d="M510 191c0 -124 -112 -201 -245 -201c-68 0 -160 29 -201 89c-3 4 -4 8 -4 12c0 11 10 20 20 20c6 0 12 -3 16 -9c0 0 3 -4 9 -10c41 -42 102 -62 160 -62c121 0 205 68 205 161c0 229 -406 146 -406 392c0 118 103 187 211 187c75 0 163 -40 209 -102c3 -4 4 -8 4 -12
c0 -11 -9 -20 -20 -20c-6 0 -11 2 -16 8c0 0 -4 5 -11 13c-43 44 -103 73 -166 73c-94 0 -171 -58 -171 -147c0 -206 406 -126 406 -392z" />
    <glyph glyph-name="T" unicode="T" horiz-adv-x="540" 
d="M530 740c0 -10 -7 -20 -20 -20h-220v-700c0 -13 -10 -20 -20 -20s-20 7 -20 20v700h-220c-13 0 -20 10 -20 20s7 20 20 20h480c13 0 20 -10 20 -20z" />
    <glyph glyph-name="U" unicode="U" horiz-adv-x="636" 
d="M566 238c0 -137 -111 -248 -248 -248s-248 111 -248 248v502c0 13 10 20 20 20s20 -7 20 -20v-502c0 -115 93 -208 208 -208s208 93 208 208v502c0 13 10 20 20 20s20 -7 20 -20v-502z" />
    <glyph glyph-name="V" unicode="V" horiz-adv-x="560" 
d="M540 741c0 -3 -1 -7 -1 -7l-240 -728c-4 -11 -11 -17 -19 -17c-7 0 -15 6 -19 17l-240 728s-1 4 -1 7c0 12 10 19 21 19c7 0 15 -4 18 -14l221 -670l221 670c3 10 11 14 19 14c10 0 20 -7 20 -19z" />
    <glyph glyph-name="W" unicode="W" horiz-adv-x="920" 
d="M900 742c0 -3 -1 -7 -1 -7l-200 -728c-3 -12 -11 -18 -19 -18s-16 5 -19 17l-201 665l-201 -665c-4 -12 -11 -17 -19 -17s-16 6 -19 18l-200 728s-1 3 -1 6c0 12 10 19 20 19c8 0 16 -5 19 -15l182 -661l200 662c3 12 11 18 19 18s15 -6 19 -18l200 -662l182 661
c3 10 11 15 19 15c10 0 20 -6 20 -18z" />
    <glyph glyph-name="X" unicode="X" horiz-adv-x="559" 
d="M519 19c0 -11 -10 -19 -20 -19c-6 0 -13 3 -17 10l-202 345l-203 -345c-4 -7 -10 -10 -17 -10c-10 0 -20 8 -20 19c0 4 1 7 3 11l213 365l-196 335c-2 4 -3 7 -3 11c0 11 10 19 20 19c7 0 13 -3 17 -10l185 -316l186 316c4 7 11 10 17 10c10 0 20 -8 20 -19
c0 -4 -1 -7 -3 -11l-196 -335l213 -365c2 -4 3 -7 3 -11z" />
    <glyph glyph-name="Y" unicode="Y" horiz-adv-x="560" 
d="M540 741c0 -4 -1 -7 -3 -11l-237 -398v-312c0 -13 -10 -20 -20 -20s-20 7 -20 20v312l-237 398c-2 4 -3 7 -3 11c0 11 10 19 20 19c7 0 13 -3 17 -10l223 -373l223 373c4 7 11 10 17 10c10 0 20 -8 20 -19z" />
    <glyph glyph-name="Z" unicode="Z" horiz-adv-x="565" 
d="M520 20c0 -10 -7 -20 -20 -20h-434c-13 0 -21 7 -21 17c0 4 1 8 4 13l412 690h-372c-13 0 -20 10 -20 20s7 20 20 20h407c13 0 21 -7 21 -17c0 -4 -1 -8 -4 -13l-412 -690h399c13 0 20 -10 20 -20z" />
    <glyph glyph-name="a" unicode="a" horiz-adv-x="458" 
d="M393 152c0 -96 -78 -162 -171 -162c-91 0 -172 54 -172 152c0 89 72 137 155 155l148 32v54c0 73 -43 122 -129 122c-93 0 -107 -60 -129 -60c-10 0 -20 8 -20 19c0 9 7 17 12 23c35 41 86 58 137 58c108 0 169 -67 169 -162v-231zM353 152v136l-142 -32
c-70 -16 -121 -55 -121 -114c0 -69 55 -112 132 -112c74 0 131 51 131 122z" />
    <glyph glyph-name="a.alt" unicode="&#xf806;" horiz-adv-x="463" 
d="M353 20v25c-32 -35 -79 -55 -131 -55c-91 0 -172 54 -172 152c0 89 72 137 155 155l148 32v54c0 73 -43 122 -129 122c-93 0 -107 -60 -129 -60c-10 0 -20 8 -20 19c0 9 7 17 12 23c35 41 86 58 137 58c108 0 169 -67 169 -162v-363c0 -13 -10 -20 -20 -20s-20 7 -20 20z
M353 146v142l-142 -32c-70 -16 -121 -55 -121 -114c0 -69 55 -112 132 -112c72 0 128 48 131 116z" />
    <glyph glyph-name="b" unicode="b" horiz-adv-x="505" 
d="M440 175c0 -102 -83 -185 -185 -185s-185 83 -185 185v565c0 13 10 20 20 20s20 -7 20 -20v-265c34 43 86 70 145 70c102 0 185 -83 185 -185v-185zM400 175v185c0 80 -65 145 -145 145s-145 -65 -145 -145v-185c0 -80 65 -145 145 -145s145 65 145 145z" />
    <glyph glyph-name="b.alt" unicode="&#xf807;" horiz-adv-x="505" 
d="M70 20v720c0 13 10 20 20 20s20 -7 20 -20v-265c34 43 86 70 145 70c102 0 185 -83 185 -185v-185c0 -102 -83 -185 -185 -185c-59 0 -111 27 -145 70v-40c0 -13 -10 -20 -20 -20s-20 7 -20 20zM400 175v185c0 80 -65 145 -145 145s-145 -65 -145 -145v-185
c0 -80 65 -145 145 -145s145 65 145 145z" />
    <glyph glyph-name="c" unicode="c" horiz-adv-x="452" 
d="M402 70c0 -9 -8 -17 -13 -23c-37 -39 -92 -57 -145 -57c-106 0 -179 65 -179 162v231c0 97 73 162 179 162c52 0 120 -21 155 -69c2 -4 3 -8 3 -11c0 -11 -10 -20 -21 -20s-15 9 -21 16c-30 30 -74 44 -116 44c-88 0 -139 -51 -139 -122v-231c0 -71 51 -122 139 -122
c40 0 96 16 121 51c5 7 11 9 17 9c10 0 20 -9 20 -20z" />
    <glyph glyph-name="d" unicode="d" horiz-adv-x="505" 
d="M435 175c0 -102 -83 -185 -185 -185s-185 83 -185 185v185c0 102 83 185 185 185c59 0 111 -27 145 -70v265c0 13 10 20 20 20s20 -7 20 -20v-565zM395 175v185c0 80 -65 145 -145 145s-145 -65 -145 -145v-185c0 -80 65 -145 145 -145s145 65 145 145z" />
    <glyph glyph-name="d.alt" unicode="&#xf808;" horiz-adv-x="505" 
d="M435 740v-720c0 -13 -10 -20 -20 -20s-20 7 -20 20v40c-34 -43 -86 -70 -145 -70c-102 0 -185 83 -185 185v185c0 102 83 185 185 185c59 0 111 -27 145 -70v265c0 13 10 20 20 20s20 -7 20 -20zM105 360v-185c0 -80 65 -145 145 -145s145 65 145 145v185
c0 80 -65 145 -145 145s-145 -65 -145 -145z" />
    <glyph glyph-name="e" unicode="e" horiz-adv-x="495" 
d="M435 290c0 -11 -9 -20 -20 -20h-310v-95c0 -79 73 -145 155 -145c40 0 96 16 121 51c5 7 11 9 17 9c10 0 20 -9 20 -20c0 -9 -8 -17 -13 -23c-37 -39 -92 -57 -145 -57c-101 0 -195 81 -195 185v185c0 102 83 185 185 185s185 -83 185 -185v-70zM395 310v50
c0 80 -65 145 -145 145s-145 -65 -145 -145v-50h290z" />
    <glyph glyph-name="f" unicode="f" horiz-adv-x="358" 
d="M368 729c0 -10 -9 -21 -20 -21c-4 0 -7 1 -11 3c-15 9 -37 19 -64 19c-63 0 -102 -41 -102 -91v-104h160c13 0 20 -10 20 -20s-7 -20 -20 -20h-160v-475c0 -13 -10 -20 -20 -20s-20 7 -20 20v475h-101c-13 0 -20 10 -20 20s7 20 20 20h101v104c0 74 59 131 142 131
c36 0 66 -13 85 -24c7 -4 10 -11 10 -17z" />
    <glyph glyph-name="g" unicode="g" horiz-adv-x="505" 
d="M435 -15c0 -102 -83 -185 -185 -185c-52 0 -123 22 -155 69c-2 4 -3 8 -3 11c0 11 10 20 21 20s15 -9 21 -16c30 -30 74 -44 116 -44c80 0 145 65 145 145v95c-34 -43 -86 -70 -145 -70c-102 0 -185 83 -185 185v165c0 102 83 185 185 185s185 -83 185 -185v-375z
M395 195v165c0 80 -65 145 -145 145s-145 -65 -145 -145v-165c0 -80 65 -145 145 -145s145 65 145 145z" />
    <glyph glyph-name="g.alt" unicode="&#xf809;" horiz-adv-x="505" 
d="M395 195v165c0 80 -65 145 -145 145s-145 -65 -145 -145v-165c0 -80 65 -145 145 -145s145 65 145 145zM435 515v-530c0 -102 -83 -185 -185 -185c-52 0 -123 22 -155 69c-2 4 -3 8 -3 11c0 11 10 20 21 20s15 -9 21 -16c30 -30 74 -44 116 -44c80 0 145 65 145 145v95
c-34 -43 -86 -70 -145 -70c-102 0 -185 83 -185 185v165c0 102 83 185 185 185c59 0 111 -27 145 -70v40c0 13 10 20 20 20s20 -7 20 -20z" />
    <glyph glyph-name="h" unicode="h" 
d="M440 20c0 -13 -10 -20 -20 -20s-20 7 -20 20v340c0 80 -65 145 -145 145s-145 -65 -145 -145v-340c0 -13 -10 -20 -20 -20s-20 7 -20 20v720c0 13 10 20 20 20s20 -7 20 -20v-265c34 43 86 70 145 70c102 0 185 -83 185 -185v-340z" />
    <glyph glyph-name="i" unicode="i" horiz-adv-x="182" 
d="M71 20v495c0 13 10 20 20 20s20 -7 20 -20v-495c0 -13 -10 -20 -20 -20s-20 7 -20 20zM60 719c0 17 14 31 31 31s31 -14 31 -31s-14 -31 -31 -31s-31 14 -31 31z" />
    <glyph glyph-name="j" unicode="j" horiz-adv-x="191" 
d="M120 20c0 -75 -35 -170 -98 -216c-4 -3 -8 -4 -12 -4c-11 0 -20 10 -20 20c0 12 13 19 20 27c46 45 70 109 70 173v495c0 13 10 20 20 20s20 -7 20 -20v-495zM69 719c0 17 14 31 31 31s31 -14 31 -31s-14 -31 -31 -31s-31 14 -31 31z" />
    <glyph glyph-name="k" unicode="k" horiz-adv-x="451" 
d="M431 20c0 -11 -10 -20 -20 -20c-6 0 -12 2 -16 8l-195 260l-90 -105v-143c0 -13 -10 -20 -20 -20s-20 7 -20 20v720c0 13 10 20 20 20s20 -7 20 -20v-516l260 304c4 5 10 7 15 7c10 0 20 -9 20 -20c0 -4 -1 -9 -5 -13l-173 -203l200 -267c3 -4 4 -8 4 -12z" />
    <glyph glyph-name="l" unicode="l" horiz-adv-x="200" 
d="M180 10c0 -10 -8 -20 -19 -20c-8 0 -17 5 -23 9c-49 32 -68 91 -68 148v593c0 13 10 20 20 20s20 -7 20 -20v-593c0 -40 15 -101 57 -118c9 -4 13 -11 13 -19z" />
    <glyph glyph-name="l.alt" unicode="&#xf804;" horiz-adv-x="200" 
d="M70 20v720c0 13 10 20 20 20s20 -7 20 -20v-720c0 -13 -10 -20 -20 -20s-20 7 -20 20z" />
    <glyph glyph-name="m" unicode="m" horiz-adv-x="760" 
d="M690 20c0 -13 -10 -20 -20 -20s-20 7 -20 20v360c0 69 -56 125 -125 125s-125 -56 -125 -125v-360c0 -14 -10 -21 -20 -21s-20 7 -20 21v360c0 69 -56 125 -125 125s-125 -56 -125 -125v-360c0 -13 -10 -20 -20 -20s-20 7 -20 20v360c0 91 74 165 165 165
c63 0 117 -35 145 -86c28 51 82 86 145 86c91 0 165 -74 165 -165v-360z" />
    <glyph glyph-name="m.alt" unicode="&#xf80a;" horiz-adv-x="760" 
d="M70 20v495c0 13 10 20 20 20s20 -7 20 -20v-28c30 35 75 58 125 58c63 0 117 -35 145 -86c28 51 82 86 145 86c91 0 165 -74 165 -165v-360c0 -13 -10 -20 -20 -20s-20 7 -20 20v360c0 69 -56 125 -125 125s-125 -56 -125 -125v-360c0 -14 -10 -21 -20 -21s-20 7 -20 21
v360c0 69 -56 125 -125 125s-125 -56 -125 -125v-360c0 -13 -10 -20 -20 -20s-20 7 -20 20z" />
    <glyph glyph-name="n" unicode="n" 
d="M440 20c0 -13 -10 -20 -20 -20s-20 7 -20 20v340c0 80 -65 145 -145 145s-145 -65 -145 -145v-340c0 -13 -10 -20 -20 -20s-20 7 -20 20v340c0 102 83 185 185 185s185 -83 185 -185v-340z" />
    <glyph glyph-name="n.alt" unicode="&#xf80b;" 
d="M70 20v495c0 13 10 20 20 20s20 -7 20 -20v-40c34 42 86 70 145 70c102 0 185 -83 185 -185v-340c0 -13 -10 -20 -20 -20s-20 7 -20 20v340c0 80 -65 145 -145 145s-145 -65 -145 -145v-340c0 -13 -10 -20 -20 -20s-20 7 -20 20z" />
    <glyph glyph-name="o" unicode="o" horiz-adv-x="500" 
d="M435 175c0 -102 -83 -185 -185 -185s-185 83 -185 185v185c0 102 83 185 185 185s185 -83 185 -185v-185zM395 175v185c0 80 -65 145 -145 145s-145 -65 -145 -145v-185c0 -80 65 -145 145 -145s145 65 145 145z" />
    <glyph glyph-name="p" unicode="p" horiz-adv-x="505" 
d="M440 175c0 -102 -83 -185 -185 -185c-59 0 -111 27 -145 70v-240c0 -13 -10 -20 -20 -20s-20 7 -20 20v540c0 102 83 185 185 185s185 -83 185 -185v-185zM400 175v185c0 80 -65 145 -145 145s-145 -65 -145 -145v-185c0 -80 65 -145 145 -145s145 65 145 145z" />
    <glyph glyph-name="p.alt" unicode="&#xf80c;" horiz-adv-x="505" 
d="M70 -180v695c0 13 10 20 20 20s20 -7 20 -20v-40c34 43 86 70 145 70c102 0 185 -83 185 -185v-185c0 -102 -83 -185 -185 -185c-59 0 -111 27 -145 70v-240c0 -13 -10 -20 -20 -20s-20 7 -20 20zM400 175v185c0 80 -65 145 -145 145s-145 -65 -145 -145v-185
c0 -80 65 -145 145 -145s145 65 145 145z" />
    <glyph glyph-name="q" unicode="q" horiz-adv-x="505" 
d="M435 -180c0 -13 -10 -20 -20 -20s-20 7 -20 20v240c-34 -43 -86 -70 -145 -70c-102 0 -185 83 -185 185v185c0 102 83 185 185 185s185 -83 185 -185v-540zM395 175v185c0 80 -65 145 -145 145s-145 -65 -145 -145v-185c0 -80 65 -145 145 -145s145 65 145 145z" />
    <glyph glyph-name="q.alt" unicode="&#xf80d;" horiz-adv-x="505" 
d="M435 515v-695c0 -13 -10 -20 -20 -20s-20 7 -20 20v240c-34 -43 -86 -70 -145 -70c-102 0 -185 83 -185 185v185c0 102 83 185 185 185c59 0 111 -27 145 -70v40c0 13 10 20 20 20s20 -7 20 -20zM105 360v-185c0 -80 65 -145 145 -145s145 65 145 145v185
c0 80 -65 145 -145 145s-145 -65 -145 -145z" />
    <glyph glyph-name="r" unicode="r" horiz-adv-x="379" 
d="M359 485c0 -11 -10 -20 -21 -20c-9 0 -13 6 -20 11c-23 18 -53 29 -83 29c-79 0 -125 -58 -125 -152v-333c0 -13 -10 -20 -20 -20s-20 7 -20 20v333c0 107 56 192 165 192c39 0 89 -17 117 -46c5 -5 7 -9 7 -14z" />
    <glyph glyph-name="r.alt" unicode="&#xf80e;" horiz-adv-x="315" 
d="M110 477c25 38 69 68 125 68c38 0 70 -9 70 -29c0 -11 -9 -19 -20 -19s-24 8 -50 8c-79 0 -125 -58 -125 -152v-333c0 -13 -10 -20 -20 -20s-20 7 -20 20v495c0 13 10 20 20 20s20 -7 20 -20v-38z" />
    <glyph glyph-name="s" unicode="s" horiz-adv-x="424" 
d="M374 138c0 -90 -81 -148 -176 -148c-48 0 -115 21 -144 65c-3 4 -4 8 -4 11c0 11 10 20 21 20s15 -8 21 -15c27 -28 68 -41 106 -41c81 0 136 48 136 108c0 152 -281 98 -281 274c0 87 76 133 152 133c53 0 115 -28 144 -74c3 -4 4 -8 4 -11c0 -11 -11 -20 -21 -20
c-12 0 -16 9 -23 17c-26 30 -63 48 -104 48c-63 0 -112 -36 -112 -93c0 -136 281 -85 281 -274z" />
    <glyph glyph-name="t" unicode="t" horiz-adv-x="409" 
d="M389 45c0 -9 -9 -15 -16 -21c-29 -21 -64 -34 -100 -34c-83 0 -142 57 -142 131v374h-101c-13 0 -20 10 -20 20s7 20 20 20h101v137c0 13 10 20 20 20s20 -7 20 -20v-137h187c13 0 20 -10 20 -20s-7 -20 -20 -20h-187v-374c0 -50 39 -91 102 -91c27 0 61 12 81 31
c5 4 9 5 14 5c11 0 21 -10 21 -21z" />
    <glyph glyph-name="t.alt" unicode="&#xf810;" horiz-adv-x="392" 
d="M211 495v-475c0 -13 -10 -20 -20 -20s-20 7 -20 20v475h-131c-13 0 -20 10 -20 20s7 20 20 20h131v137c0 13 10 20 20 20s20 -7 20 -20v-137h141c13 0 20 -10 20 -20s-7 -20 -20 -20h-141z" />
    <glyph glyph-name="t.alt2" unicode="&#xf805;" horiz-adv-x="348" 
d="M70 121v551c0 13 10 20 20 20s20 -7 20 -20v-137h187c13 0 20 -10 20 -20s-7 -20 -20 -20h-187v-374c0 -50 39 -91 102 -91c27 0 61 12 81 31c5 4 9 5 14 5c11 0 21 -10 21 -21c0 -9 -9 -15 -16 -21c-29 -21 -64 -34 -100 -34c-83 0 -142 57 -142 131z" />
    <glyph glyph-name="u" unicode="u" 
d="M440 175c0 -102 -83 -185 -185 -185s-185 83 -185 185v340c0 13 10 20 20 20s20 -7 20 -20v-340c0 -80 65 -145 145 -145s145 65 145 145v340c0 13 10 20 20 20s20 -7 20 -20v-340z" />
    <glyph glyph-name="u.alt" unicode="&#xf80f;" 
d="M440 515v-495c0 -13 -10 -20 -20 -20s-20 7 -20 20v40c-34 -42 -86 -70 -145 -70c-102 0 -185 83 -185 185v340c0 13 10 20 20 20s20 -7 20 -20v-340c0 -80 65 -145 145 -145s145 65 145 145v340c0 13 10 20 20 20s20 -7 20 -20z" />
    <glyph glyph-name="v" unicode="v" horiz-adv-x="482" 
d="M450 508l-190 -495c-4 -11 -12 -16 -19 -16s-14 5 -19 16l-190 495c-5 14 5 27 20 27c7 0 14 -4 18 -13l171 -446l171 446c4 9 11 13 18 13c15 0 25 -13 20 -27z" />
    <glyph glyph-name="w" unicode="w" horiz-adv-x="720" 
d="M689 509l-150 -495c-3 -12 -11 -17 -19 -17s-15 5 -19 17l-141 436l-141 -436c-4 -12 -11 -17 -19 -17s-15 5 -19 17l-150 495c-4 14 5 26 20 26c7 0 15 -4 18 -14l132 -434l140 434c4 12 11 17 19 17s15 -5 19 -17l140 -434l132 434c3 10 11 14 19 14
c14 0 23 -12 19 -26z" />
    <glyph glyph-name="x" unicode="x" horiz-adv-x="448" 
d="M404 31c9 -14 -1 -31 -17 -31c-6 0 -12 2 -17 9l-146 227l-146 -227c-4 -7 -10 -9 -16 -9c-16 0 -27 17 -18 31l156 242l-149 231c-9 14 2 31 18 31c6 0 12 -2 16 -9l139 -216l139 216c5 7 11 9 17 9c16 0 26 -17 17 -31l-149 -231z" />
    <glyph glyph-name="y" unicode="y" horiz-adv-x="461" 
d="M431 516c0 -3 0 -5 -1 -8l-259 -695c-3 -9 -11 -13 -18 -13c-11 0 -21 8 -21 19c0 3 0 5 1 8l73 195l-175 486c-1 3 -1 5 -1 8c0 11 10 19 21 19c7 0 15 -4 18 -13l159 -442l164 442c4 9 11 13 19 13c10 0 20 -8 20 -19z" />
    <glyph glyph-name="z" unicode="z" horiz-adv-x="437" 
d="M397 20c0 -10 -6 -20 -20 -20h-321c-13 0 -21 7 -21 17c0 4 1 9 5 14l297 464h-258c-13 0 -20 10 -20 20s7 20 20 20h294c14 0 22 -7 22 -17c0 -4 -2 -9 -5 -14l-297 -464h284c14 0 20 -10 20 -20z" />
    <glyph glyph-name="cent" unicode="&#xa2;" horiz-adv-x="447" 
d="M397 185c0 -9 -8 -17 -13 -23c-33 -35 -80 -53 -127 -56v-86c0 -13 -10 -20 -20 -20s-20 7 -20 20v86c-94 9 -157 71 -157 161v231c0 90 63 152 157 161v81c0 13 10 20 20 20s20 -7 20 -20v-81c48 -4 106 -25 137 -68c2 -4 3 -8 3 -11c0 -11 -10 -20 -21 -20
s-15 9 -21 16c-26 26 -62 40 -98 43v-473c37 4 82 20 103 50c5 7 11 9 17 9c10 0 20 -9 20 -20zM217 146v473c-74 -8 -117 -56 -117 -121v-231c0 -65 43 -113 117 -121z" />
    <glyph glyph-name="sterling" unicode="&#xa3;" horiz-adv-x="526" 
d="M496 105c0 -3 0 -6 -2 -9c0 0 -3 -7 -9 -17c-40 -56 -110 -79 -177 -79h-258c-15 0 -21 5 -21 13c0 19 28 49 33 59c14 26 28 64 28 114v123h-40c-13 0 -20 10 -20 20s7 20 20 20h40v193c0 125 83 228 208 228c75 0 161 -42 187 -117c1 -3 1 -5 1 -8
c0 -11 -10 -19 -21 -19c-7 0 -14 4 -18 13c0 0 -2 6 -6 13c-30 52 -83 78 -143 78c-99 0 -168 -81 -168 -188v-193h141c13 0 20 -10 20 -20s-7 -20 -20 -20h-141v-123c0 -51 -13 -102 -40 -146h218c51 0 126 20 150 72c4 9 11 12 18 12c10 0 20 -8 20 -19z" />
    <glyph glyph-name="yen" unicode="&#xa5;" horiz-adv-x="561" 
d="M541 740c0 -3 -1 -7 -3 -10l-238 -398v-35h139c14 0 20 -10 20 -20s-6 -20 -20 -20h-139v-83h139c14 0 20 -10 20 -20s-6 -20 -20 -20h-139v-114c0 -13 -10 -20 -20 -20s-20 7 -20 20v114h-139c-13 0 -20 10 -20 20s7 20 20 20h139v83h-139c-13 0 -20 10 -20 20
s7 20 20 20h139v35l-237 398c-2 3 -3 7 -3 10c0 12 10 20 21 20c6 0 12 -3 17 -10l222 -373l223 373c4 7 11 10 17 10c10 0 21 -8 21 -20z" />
    <glyph glyph-name="Euro" unicode="&#x20ac;" horiz-adv-x="607" 
d="M557 94c0 -10 -13 -22 -20 -28c-53 -50 -126 -76 -199 -76c-137 0 -248 111 -248 248v75h-60c-13 0 -20 10 -20 20s7 20 20 20h60v70h-60c-13 0 -20 10 -20 20s7 20 20 20h60v59c0 137 111 248 248 248c72 0 166 -32 214 -92c3 -4 4 -8 4 -12c0 -11 -10 -20 -20 -20
c-12 0 -19 12 -26 19c-46 43 -109 65 -172 65c-115 0 -208 -93 -208 -208v-59h255c13 0 20 -10 20 -20s-7 -20 -20 -20h-255v-70h181c13 0 20 -10 20 -20s-7 -20 -20 -20h-181v-75c0 -115 93 -208 208 -208c62 0 142 26 182 76c5 6 10 8 15 8c11 0 22 -9 22 -20z" />
    <glyph glyph-name="brokenbar" unicode="&#xa6;" horiz-adv-x="220" 
d="M130 335c0 -13 -11 -20 -20 -20s-20 7 -20 20v405c0 13 11 20 20 20s20 -7 20 -20v-405zM130 -180c0 -13 -11 -20 -20 -20s-20 7 -20 20v405c0 13 11 20 20 20s20 -7 20 -20v-405z" />
    <glyph glyph-name="bar" unicode="|" horiz-adv-x="240" 
d="M140 -180c0 -13 -10 -20 -20 -20s-20 7 -20 20v920c0 13 10 20 20 20s20 -7 20 -20v-920z" />
    <glyph glyph-name="dagger" unicode="&#x2020;" horiz-adv-x="540" 
d="M500 510c0 -10 -7 -20 -20 -20h-190v-670c0 -13 -10 -20 -20 -20s-20 7 -20 20v670h-190c-13 0 -20 10 -20 20s7 20 20 20h190v210c0 13 10 20 20 20s20 -7 20 -20v-210h190c13 0 20 -10 20 -20z" />
    <glyph glyph-name="daggerdbl" unicode="&#x2021;" horiz-adv-x="540" 
d="M500 50c0 -10 -7 -20 -20 -20h-190v-210c0 -13 -10 -20 -20 -20s-20 7 -20 20v210h-190c-13 0 -20 10 -20 20s7 20 20 20h190v420h-190c-13 0 -20 10 -20 20s7 20 20 20h190v210c0 13 10 20 20 20s20 -7 20 -20v-210h190c13 0 20 -10 20 -20s-7 -20 -20 -20h-190v-420
h190c13 0 20 -10 20 -20z" />
    <glyph glyph-name="section" unicode="&#xa7;" horiz-adv-x="570" 
d="M510 11c0 -124 -112 -201 -245 -201c-68 0 -160 29 -201 89c-3 4 -4 8 -4 12c0 11 10 20 21 20c12 0 17 -11 25 -19c40 -42 101 -62 159 -62c121 0 205 68 205 161c0 39 -11 67 -28 89c-92 115 -377 78 -377 283c0 39 11 74 31 102c-20 25 -31 56 -31 98
c0 118 102 187 210 187c75 0 163 -40 209 -102c3 -4 5 -8 5 -12c0 -11 -10 -20 -21 -20c-12 0 -19 13 -27 21c-43 44 -103 73 -166 73c-94 0 -170 -58 -170 -147c0 -207 405 -106 405 -372c0 -37 -10 -70 -28 -99c18 -27 28 -60 28 -101zM470 211c0 173 -232 157 -345 245
c-13 -20 -20 -45 -20 -73c0 -157 236 -137 348 -237c8 17 17 38 17 65z" />
    <glyph glyph-name="paragraph" unicode="&#xb6;" horiz-adv-x="552" 
d="M467 -90c0 -13 -10 -20 -20 -20s-20 7 -20 20v810h-107v-810c0 -13 -10 -20 -20 -20s-20 7 -20 20v373h-11c-132 0 -239 107 -239 238c0 132 107 239 238 239h178c11 0 21 -9 21 -20v-830z" />
    <glyph glyph-name="copyright" unicode="&#xa9;" horiz-adv-x="868" 
d="M818 381c0 -212 -172 -389 -384 -389s-384 177 -384 389s172 389 384 389s384 -177 384 -389zM778 381c0 190 -154 349 -344 349s-344 -159 -344 -349s154 -349 344 -349s344 159 344 349zM570 214c0 -8 -9 -16 -15 -22c-33 -31 -79 -48 -125 -48c-87 0 -157 70 -157 157
v158c0 87 70 157 157 157c45 0 105 -20 134 -58c4 -4 5 -8 5 -13c0 -10 -10 -20 -21 -20c-10 0 -14 8 -21 14c-26 24 -62 37 -97 37c-65 0 -117 -52 -117 -117v-158c0 -65 52 -117 117 -117c35 0 80 14 103 43c4 5 10 7 15 7c11 0 22 -9 22 -20z" />
    <glyph glyph-name="registered" unicode="&#xae;" horiz-adv-x="868" 
d="M818 381c0 -212 -172 -389 -384 -389s-384 177 -384 389s172 389 384 389s384 -177 384 -389zM778 381c0 190 -154 349 -344 349s-344 -159 -344 -349s154 -349 344 -349s344 159 344 349zM583 164c0 -11 -10 -20 -21 -20c-6 0 -12 3 -16 9l-102 161h-100v-150
c0 -13 -10 -20 -20 -20s-20 7 -20 20v432c0 11 9 20 20 20h107c83 0 151 -68 151 -151c0 -64 -40 -119 -97 -141l95 -149c2 -4 3 -8 3 -11zM542 465c0 61 -50 111 -111 111h-87v-222h87c60 0 111 50 111 111z" />
    <glyph glyph-name="published" unicode="&#x2117;" horiz-adv-x="868" 
d="M818 381c0 -212 -172 -389 -384 -389s-384 177 -384 389s172 389 384 389s384 -177 384 -389zM778 381c0 190 -154 349 -344 349s-344 -159 -344 -349s154 -349 344 -349s344 159 344 349zM453 314h-87v-150c0 -13 -10 -20 -20 -20s-20 7 -20 20v432c0 11 9 20 20 20h107
c83 0 151 -68 151 -151s-68 -151 -151 -151zM564 465c0 61 -50 111 -111 111h-87v-222h87c60 0 111 50 111 111z" />
    <glyph glyph-name="trademark" unicode="&#x2122;" horiz-adv-x="826" 
d="M766 309c0 -13 -10 -20 -20 -20s-20 7 -20 20v331l-142 -339c-4 -10 -11 -15 -18 -15s-14 5 -18 15l-142 339v-331c0 -13 -10 -20 -20 -20s-20 7 -20 20v431c0 15 9 23 19 23c7 0 15 -5 19 -15l162 -387l162 387c4 10 12 15 19 15c10 0 19 -8 19 -23v-431zM348 740
c0 -10 -7 -20 -20 -20h-124v-412c0 -13 -10 -20 -20 -20s-20 7 -20 20v412h-124c-13 0 -20 10 -20 20s7 20 20 20h288c13 0 20 -10 20 -20z" />
    <glyph glyph-name="ordfeminine" unicode="&#xaa;" horiz-adv-x="463" 
d="M403 397c0 -96 -78 -162 -171 -162c-91 0 -172 54 -172 152c0 89 72 137 155 155l148 32v34c0 73 -43 122 -129 122c-93 0 -107 -60 -129 -60c-10 0 -20 8 -20 19c0 9 7 17 12 23c35 41 86 58 137 58c108 0 169 -67 169 -162v-211zM363 397v136l-142 -32
c-70 -16 -121 -55 -121 -114c0 -69 55 -112 132 -112c74 0 131 51 131 122z" />
    <glyph glyph-name="ordmasculine" unicode="&#xba;" horiz-adv-x="490" 
d="M430 420c0 -102 -83 -185 -185 -185s-185 83 -185 185v165c0 102 83 185 185 185s185 -83 185 -185v-165zM390 420v165c0 80 -65 145 -145 145s-145 -65 -145 -145v-165c0 -80 65 -145 145 -145s145 65 145 145z" />
    <glyph glyph-name="degree" unicode="&#xb0;" horiz-adv-x="379" 
d="M329 631c0 -78 -62 -140 -139 -140c-78 0 -140 62 -140 139c0 78 62 140 139 140c78 0 140 -62 140 -139zM289 631v-1c0 55 -45 100 -99 100c-55 0 -100 -45 -100 -99c0 -55 45 -100 99 -100c55 0 100 45 100 100z" />
    <glyph glyph-name="guillemotleft" unicode="&#xab;" horiz-adv-x="495" 
d="M425 113c0 -10 -9 -20 -20 -20c-4 0 -9 1 -13 5l-178 159c-5 4 -7 10 -7 15s2 11 7 15l178 159c4 4 9 5 13 5c11 0 20 -10 20 -20c0 -5 -2 -10 -7 -15l-161 -144l161 -144c5 -5 7 -10 7 -15zM269 113c0 -10 -10 -20 -21 -20c-4 0 -9 1 -13 5l-178 159c-5 4 -7 10 -7 15
s2 11 7 15l178 159c4 4 9 5 13 5c11 0 21 -10 21 -20c0 -5 -3 -10 -7 -15l-162 -144l162 -144c4 -5 7 -10 7 -15z" />
    <glyph glyph-name="guillemotright" unicode="&#xbb;" horiz-adv-x="495" 
d="M445 272c0 -5 -2 -11 -7 -15l-178 -159c-4 -4 -8 -5 -13 -5c-11 0 -20 10 -20 20c0 5 2 10 7 15l161 144l-161 144c-5 5 -7 10 -7 15c0 10 9 20 20 20c5 0 9 -1 13 -5l178 -159c5 -4 7 -10 7 -15zM289 272c0 -5 -3 -11 -7 -15l-178 -159c-5 -4 -9 -5 -14 -5
c-10 0 -20 10 -20 20c0 5 2 10 7 15l161 144l-161 144c-5 5 -7 10 -7 15c0 10 10 20 20 20c5 0 9 -1 14 -5l178 -159c4 -4 7 -10 7 -15z" />
    <glyph glyph-name="guilsinglleft" unicode="&#x2039;" horiz-adv-x="339" 
d="M269 113c0 -10 -10 -20 -21 -20c-4 0 -9 1 -13 5l-178 159c-5 4 -7 10 -7 15s2 11 7 15l178 159c4 4 9 5 13 5c11 0 21 -10 21 -20c0 -5 -3 -10 -7 -15l-162 -144l162 -144c4 -5 7 -10 7 -15z" />
    <glyph glyph-name="guilsinglright" unicode="&#x203a;" horiz-adv-x="339" 
d="M289 272c0 -5 -3 -11 -7 -15l-178 -159c-5 -4 -9 -5 -14 -5c-10 0 -20 10 -20 20c0 5 2 10 7 15l161 144l-161 144c-5 5 -7 10 -7 15c0 10 10 20 20 20c5 0 9 -1 14 -5l178 -159c4 -4 7 -10 7 -15z" />
    <glyph glyph-name="germandbls" unicode="&#xdf;" horiz-adv-x="564" 
d="M504 201c0 -122 -99 -209 -218 -209c-13 0 -20 10 -20 20s7 20 20 20c100 0 178 72 178 169s-78 168 -178 168c-14 0 -21 10 -21 20s7 20 21 20c99 0 168 66 168 163s-68 158 -168 158c-94 0 -155 -61 -155 -162v-556c0 -13 -10 -20 -20 -20s-20 7 -20 20v435h-51
c-13 0 -20 10 -20 20s7 20 20 20h51v81c0 121 77 202 195 202c119 0 208 -76 208 -198c0 -86 -44 -152 -112 -183c72 -32 122 -101 122 -188z" />
    <glyph glyph-name="eth" unicode="&#xf0;" horiz-adv-x="505" 
d="M435 175c0 -102 -83 -185 -185 -185s-185 83 -185 185v185c0 102 83 185 185 185c51 0 98 -21 131 -54c-15 65 -43 125 -89 170l-42 -49c-4 -5 -9 -7 -15 -7c-10 0 -20 9 -20 20c0 4 1 9 5 13l41 49c-19 14 -40 25 -63 34c-21 7 -35 9 -35 9c-12 2 -17 11 -17 20
c0 10 7 20 19 20h4c0 0 17 -2 43 -12c28 -10 53 -24 75 -40l38 45c4 5 9 7 15 7c10 0 20 -9 20 -20c0 -4 -1 -9 -5 -13l-37 -45c85 -81 117 -208 117 -332v-185zM395 175v185c0 80 -65 145 -145 145s-145 -65 -145 -145v-185c0 -80 65 -145 145 -145s145 65 145 145z" />
    <glyph glyph-name="partialdiff" unicode="&#x2202;" horiz-adv-x="505" 
d="M435 175c0 -102 -83 -185 -185 -185s-185 83 -185 185v185c0 102 83 185 185 185c51 0 98 -21 131 -54c-23 101 -78 191 -183 230c-21 7 -35 9 -35 9c-12 2 -17 11 -17 20c0 10 7 20 19 20s38 -9 47 -12c165 -61 223 -232 223 -398v-185zM395 175v185
c0 80 -65 145 -145 145s-145 -65 -145 -145v-185c0 -80 65 -145 145 -145s145 65 145 145z" />
    <glyph glyph-name="Agrave" unicode="&#xc0;" horiz-adv-x="580" 
d="M550 19c0 -12 -10 -19 -20 -19c-8 0 -16 4 -19 14l-77 232h-287l-78 -232c-3 -10 -11 -14 -19 -14c-10 0 -20 7 -20 19c0 3 1 7 1 7l240 720c4 11 12 17 19 17c8 0 15 -6 19 -17l240 -720s1 -3 1 -7zM420 286l-130 391l-130 -391h260zM364 852c0 -10 -9 -20 -20 -20
c-4 0 -8 1 -12 4l-109 87c-6 5 -8 10 -8 16c0 10 9 20 20 20c4 0 8 -1 12 -4l109 -87c6 -5 8 -10 8 -16z" />
    <glyph glyph-name="agrave" unicode="&#xe0;" horiz-adv-x="458" 
d="M393 152c0 -96 -78 -162 -171 -162c-91 0 -172 54 -172 152c0 89 72 137 155 155l148 32v54c0 73 -43 122 -129 122c-93 0 -107 -60 -129 -60c-10 0 -20 8 -20 19c0 9 7 17 12 23c35 41 86 58 137 58c108 0 169 -67 169 -162v-231zM353 152v136l-142 -32
c-70 -16 -121 -55 -121 -114c0 -69 55 -112 132 -112c74 0 131 51 131 122zM301 627c0 -10 -9 -20 -20 -20c-4 0 -8 1 -12 4l-109 87c-6 5 -8 10 -8 16c0 10 9 20 20 20c4 0 8 -1 12 -4l109 -87c6 -5 8 -10 8 -16z" />
    <glyph glyph-name="agrave.alt" unicode="&#xf81a;" horiz-adv-x="458" 
d="M301 627c0 -10 -9 -20 -20 -20c-4 0 -8 1 -12 4l-109 87c-6 5 -8 10 -8 16c0 10 9 20 20 20c4 0 8 -1 12 -4l109 -87c6 -5 8 -10 8 -16zM353 20v25c-32 -35 -79 -55 -131 -55c-91 0 -172 54 -172 152c0 89 72 137 155 155l148 32v54c0 73 -43 122 -129 122
c-93 0 -107 -60 -129 -60c-10 0 -20 8 -20 19c0 9 7 17 12 23c35 41 86 58 137 58c108 0 169 -67 169 -162v-363c0 -13 -10 -20 -20 -20s-20 7 -20 20zM353 146v142l-142 -32c-70 -16 -121 -55 -121 -114c0 -69 55 -112 132 -112c72 0 128 48 131 116z" />
    <glyph glyph-name="Aacute" unicode="&#xc1;" horiz-adv-x="580" 
d="M550 19c0 -12 -10 -19 -20 -19c-8 0 -16 4 -19 14l-77 232h-287l-78 -232c-3 -10 -11 -14 -19 -14c-10 0 -20 7 -20 19c0 3 1 7 1 7l240 720c4 11 12 17 19 17c8 0 15 -6 19 -17l240 -720s1 -3 1 -7zM420 286l-130 391l-130 -391h260zM364 939c0 -6 -2 -11 -8 -16
l-109 -87c-4 -3 -8 -4 -12 -4c-11 0 -20 10 -20 20c0 6 2 11 8 16l109 87c4 3 8 4 12 4c11 0 20 -10 20 -20z" />
    <glyph glyph-name="aacute" unicode="&#xe1;" horiz-adv-x="458" 
d="M393 152c0 -96 -78 -162 -171 -162c-91 0 -172 54 -172 152c0 89 72 137 155 155l148 32v54c0 73 -43 122 -129 122c-93 0 -107 -60 -129 -60c-10 0 -20 8 -20 19c0 9 7 17 12 23c35 41 86 58 137 58c108 0 169 -67 169 -162v-231zM353 152v136l-142 -32
c-70 -16 -121 -55 -121 -114c0 -69 55 -112 132 -112c74 0 131 51 131 122zM301 714c0 -6 -2 -11 -8 -16l-109 -87c-4 -3 -8 -4 -12 -4c-11 0 -20 10 -20 20c0 6 2 11 8 16l109 87c4 3 8 4 12 4c11 0 20 -10 20 -20z" />
    <glyph glyph-name="aacute.alt" unicode="&#xf819;" horiz-adv-x="458" 
d="M301 714c0 -6 -2 -11 -8 -16l-109 -87c-4 -3 -8 -4 -12 -4c-11 0 -20 10 -20 20c0 6 2 11 8 16l109 87c4 3 8 4 12 4c11 0 20 -10 20 -20zM353 20v25c-32 -35 -79 -55 -131 -55c-91 0 -172 54 -172 152c0 89 72 137 155 155l148 32v54c0 73 -43 122 -129 122
c-93 0 -107 -60 -129 -60c-10 0 -20 8 -20 19c0 9 7 17 12 23c35 41 86 58 137 58c108 0 169 -67 169 -162v-363c0 -13 -10 -20 -20 -20s-20 7 -20 20zM353 146v142l-142 -32c-70 -16 -121 -55 -121 -114c0 -69 55 -112 132 -112c72 0 128 48 131 116z" />
    <glyph glyph-name="Acircumflex" unicode="&#xc2;" horiz-adv-x="580" 
d="M550 19c0 -12 -10 -19 -20 -19c-8 0 -16 4 -19 14l-77 232h-287l-78 -232c-3 -10 -11 -14 -19 -14c-10 0 -20 7 -20 19c0 3 1 7 1 7l240 720c4 11 12 17 19 17c8 0 15 -6 19 -17l240 -720s1 -3 1 -7zM420 286l-130 391l-130 -391h260zM389 862c0 -12 -11 -20 -21 -20
c-6 0 -10 3 -13 6l-65 63l-66 -63c-3 -3 -7 -6 -13 -6c-10 0 -21 8 -21 20c0 7 5 12 7 14l79 77c3 3 8 6 14 6c7 0 11 -4 13 -6l79 -77c2 -2 7 -7 7 -14z" />
    <glyph glyph-name="acircumflex" unicode="&#xe2;" horiz-adv-x="458" 
d="M393 152c0 -96 -78 -162 -171 -162c-91 0 -172 54 -172 152c0 89 72 137 155 155l148 32v54c0 73 -43 122 -129 122c-93 0 -107 -60 -129 -60c-10 0 -20 8 -20 19c0 9 7 17 12 23c35 41 86 58 137 58c108 0 169 -67 169 -162v-231zM353 152v136l-142 -32
c-70 -16 -121 -55 -121 -114c0 -69 55 -112 132 -112c74 0 131 51 131 122zM326 637c0 -12 -11 -20 -21 -20c-6 0 -10 3 -13 6l-65 63l-66 -63c-3 -3 -7 -6 -13 -6c-10 0 -21 8 -21 20c0 7 5 12 7 14l79 77c3 3 8 6 14 6c7 0 11 -4 13 -6l79 -77c2 -2 7 -7 7 -14z" />
    <glyph glyph-name="acircumflex.alt" unicode="&#xf81b;" horiz-adv-x="458" 
d="M326 637c0 -12 -11 -20 -21 -20c-6 0 -10 3 -13 6l-65 63l-66 -63c-3 -3 -7 -6 -13 -6c-10 0 -21 8 -21 20c0 7 5 12 7 14l79 77c3 3 8 6 14 6c7 0 11 -4 13 -6l79 -77c2 -2 7 -7 7 -14zM353 20v25c-32 -35 -79 -55 -131 -55c-91 0 -172 54 -172 152c0 89 72 137 155 155
l148 32v54c0 73 -43 122 -129 122c-93 0 -107 -60 -129 -60c-10 0 -20 8 -20 19c0 9 7 17 12 23c35 41 86 58 137 58c108 0 169 -67 169 -162v-363c0 -13 -10 -20 -20 -20s-20 7 -20 20zM353 146v142l-142 -32c-70 -16 -121 -55 -121 -114c0 -69 55 -112 132 -112
c72 0 128 48 131 116z" />
    <glyph glyph-name="Atilde" unicode="&#xc3;" horiz-adv-x="580" 
d="M550 19c0 -12 -10 -19 -20 -19c-8 0 -16 4 -19 14l-77 232h-287l-78 -232c-3 -10 -11 -14 -19 -14c-10 0 -20 7 -20 19c0 3 1 7 1 7l240 720c4 11 12 17 19 17c8 0 15 -6 19 -17l240 -720s1 -3 1 -7zM420 286l-130 391l-130 -391h260zM411 905c0 -2 -1 -4 -1 -5
c-14 -33 -40 -57 -78 -57c-43 0 -52 39 -84 39c-36 0 -35 -42 -58 -42c-10 0 -21 8 -21 20c0 4 2 7 3 10c14 27 43 52 76 52c45 0 55 -39 84 -39c31 0 40 28 40 28c2 9 10 14 18 14c9 0 21 -7 21 -20z" />
    <glyph glyph-name="atilde" unicode="&#xe3;" horiz-adv-x="458" 
d="M393 152c0 -96 -78 -162 -171 -162c-91 0 -172 54 -172 152c0 89 72 137 155 155l148 32v54c0 73 -43 122 -129 122c-93 0 -107 -60 -129 -60c-10 0 -20 8 -20 19c0 9 7 17 12 23c35 41 86 58 137 58c108 0 169 -67 169 -162v-231zM353 152v136l-142 -32
c-70 -16 -121 -55 -121 -114c0 -69 55 -112 132 -112c74 0 131 51 131 122zM347 680c0 -2 -1 -4 -1 -5c-14 -33 -40 -57 -78 -57c-43 0 -52 39 -84 39c-36 0 -35 -42 -58 -42c-10 0 -21 8 -21 20c0 4 2 7 3 10c14 27 43 52 76 52c45 0 55 -39 84 -39c31 0 40 28 40 28
c2 9 10 14 18 14c9 0 21 -7 21 -20z" />
    <glyph glyph-name="atilde.alt" unicode="&#xf81d;" horiz-adv-x="458" 
d="M347 680c0 -2 -1 -4 -1 -5c-14 -33 -40 -57 -78 -57c-43 0 -52 39 -84 39c-36 0 -35 -42 -58 -42c-10 0 -21 8 -21 20c0 4 2 7 3 10c14 27 43 52 76 52c45 0 55 -39 84 -39c31 0 40 28 40 28c2 9 10 14 18 14c9 0 21 -7 21 -20zM353 20v25c-32 -35 -79 -55 -131 -55
c-91 0 -172 54 -172 152c0 89 72 137 155 155l148 32v54c0 73 -43 122 -129 122c-93 0 -107 -60 -129 -60c-10 0 -20 8 -20 19c0 9 7 17 12 23c35 41 86 58 137 58c108 0 169 -67 169 -162v-363c0 -13 -10 -20 -20 -20s-20 7 -20 20zM353 146v142l-142 -32
c-70 -16 -121 -55 -121 -114c0 -69 55 -112 132 -112c72 0 128 48 131 116z" />
    <glyph glyph-name="Adieresis" unicode="&#xc4;" horiz-adv-x="580" 
d="M550 19c0 -12 -10 -19 -20 -19c-8 0 -16 4 -19 14l-77 232h-287l-78 -232c-3 -10 -11 -14 -19 -14c-10 0 -20 7 -20 19c0 3 1 7 1 7l240 720c4 11 12 17 19 17c8 0 15 -6 19 -17l240 -720s1 -3 1 -7zM420 286l-130 391l-130 -391h260zM188 870c0 17 14 31 31 31
s31 -14 31 -31s-14 -31 -31 -31s-31 14 -31 31zM329 870c0 17 14 31 31 31s31 -14 31 -31s-14 -31 -31 -31s-31 14 -31 31z" />
    <glyph glyph-name="adieresis" unicode="&#xe4;" horiz-adv-x="458" 
d="M393 152c0 -96 -78 -162 -171 -162c-91 0 -172 54 -172 152c0 89 72 137 155 155l148 32v54c0 73 -43 122 -129 122c-93 0 -107 -60 -129 -60c-10 0 -20 8 -20 19c0 9 7 17 12 23c35 41 86 58 137 58c108 0 169 -67 169 -162v-231zM353 152v136l-142 -32
c-70 -16 -121 -55 -121 -114c0 -69 55 -112 132 -112c74 0 131 51 131 122zM125 645c0 17 14 31 31 31s31 -14 31 -31s-14 -31 -31 -31s-31 14 -31 31zM266 645c0 17 14 31 31 31s31 -14 31 -31s-14 -31 -31 -31s-31 14 -31 31z" />
    <glyph glyph-name="adieresis.alt" unicode="&#xf81c;" horiz-adv-x="458" 
d="M125 645c0 17 14 31 31 31s31 -14 31 -31s-14 -31 -31 -31s-31 14 -31 31zM266 645c0 17 14 31 31 31s31 -14 31 -31s-14 -31 -31 -31s-31 14 -31 31zM353 20v25c-32 -35 -79 -55 -131 -55c-91 0 -172 54 -172 152c0 89 72 137 155 155l148 32v54c0 73 -43 122 -129 122
c-93 0 -107 -60 -129 -60c-10 0 -20 8 -20 19c0 9 7 17 12 23c35 41 86 58 137 58c108 0 169 -67 169 -162v-363c0 -13 -10 -20 -20 -20s-20 7 -20 20zM353 146v142l-142 -32c-70 -16 -121 -55 -121 -114c0 -69 55 -112 132 -112c72 0 128 48 131 116z" />
    <glyph glyph-name="Aring" unicode="&#xc5;" horiz-adv-x="580" 
d="M550 19c0 -12 -10 -19 -20 -19c-8 0 -16 4 -19 14l-77 232h-287l-78 -232c-3 -10 -11 -14 -19 -14c-10 0 -20 7 -20 19c0 3 1 7 1 7l240 720c4 11 12 17 19 17c8 0 15 -6 19 -17l240 -720s1 -3 1 -7zM420 286l-130 391l-130 -391h260zM367 910c0 -43 -35 -78 -78 -78
s-77 35 -77 78s34 77 77 77s78 -34 78 -77zM330 910c0 22 -18 40 -41 40c-22 0 -40 -18 -40 -40c0 -23 18 -41 40 -41s41 19 41 41z" />
    <glyph glyph-name="aring" unicode="&#xe5;" horiz-adv-x="458" 
d="M393 152c0 -96 -78 -162 -171 -162c-91 0 -172 54 -172 152c0 89 72 137 155 155l148 32v54c0 73 -43 122 -129 122c-93 0 -107 -60 -129 -60c-10 0 -20 8 -20 19c0 9 7 17 12 23c35 41 86 58 137 58c108 0 169 -67 169 -162v-231zM353 152v136l-142 -32
c-70 -16 -121 -55 -121 -114c0 -69 55 -112 132 -112c74 0 131 51 131 122zM304 685c0 -43 -35 -78 -78 -78s-77 35 -77 78s34 77 77 77s78 -34 78 -77zM267 685c0 22 -18 40 -41 40c-22 0 -40 -18 -40 -40c0 -23 18 -41 40 -41s41 19 41 41z" />
    <glyph glyph-name="aring.alt" unicode="&#xf81e;" horiz-adv-x="458" 
d="M304 685c0 -43 -35 -78 -78 -78s-77 35 -77 78s34 77 77 77s78 -34 78 -77zM267 685c0 22 -18 40 -41 40c-22 0 -40 -18 -40 -40c0 -23 18 -41 40 -41s41 19 41 41zM353 20v25c-32 -35 -79 -55 -131 -55c-91 0 -172 54 -172 152c0 89 72 137 155 155l148 32v54
c0 73 -43 122 -129 122c-93 0 -107 -60 -129 -60c-10 0 -20 8 -20 19c0 9 7 17 12 23c35 41 86 58 137 58c108 0 169 -67 169 -162v-363c0 -13 -10 -20 -20 -20s-20 7 -20 20zM353 146v142l-142 -32c-70 -16 -121 -55 -121 -114c0 -69 55 -112 132 -112c72 0 128 48 131 116
z" />
    <glyph glyph-name="Aringacute" unicode="&#x1fa;" horiz-adv-x="580" 
d="M550 19c0 -12 -10 -19 -20 -19c-8 0 -16 4 -19 14l-77 232h-287l-78 -232c-3 -10 -11 -14 -19 -14c-10 0 -20 7 -20 19c0 3 1 7 1 7l240 720c4 11 12 17 19 17c8 0 15 -6 19 -17l240 -720s1 -3 1 -7zM420 286l-130 391l-130 -391h260zM367 910c0 -43 -35 -78 -78 -78
s-77 35 -77 78s34 77 77 77s78 -34 78 -77zM330 910c0 22 -18 40 -41 40c-22 0 -40 -18 -40 -40c0 -23 18 -41 40 -41s41 19 41 41zM364 1146c0 -6 -2 -11 -8 -16l-109 -87c-4 -3 -8 -4 -12 -4c-11 0 -20 10 -20 20c0 6 2 11 8 16l109 87c4 3 8 4 12 4c11 0 20 -10 20 -20z
" />
    <glyph glyph-name="aringacute" unicode="&#x1fb;" horiz-adv-x="458" 
d="M393 152c0 -96 -78 -162 -171 -162c-91 0 -172 54 -172 152c0 89 72 137 155 155l148 32v54c0 73 -43 122 -129 122c-93 0 -107 -60 -129 -60c-10 0 -20 8 -20 19c0 9 7 17 12 23c35 41 86 58 137 58c108 0 169 -67 169 -162v-231zM353 152v136l-142 -32
c-70 -16 -121 -55 -121 -114c0 -69 55 -112 132 -112c74 0 131 51 131 122zM304 685c0 -43 -35 -78 -78 -78s-77 35 -77 78s34 77 77 77s78 -34 78 -77zM267 685c0 22 -18 40 -41 40c-22 0 -40 -18 -40 -40c0 -23 18 -41 40 -41s41 19 41 41zM301 918c0 -6 -2 -11 -8 -16
l-109 -87c-4 -3 -8 -4 -12 -4c-11 0 -20 10 -20 20c0 6 2 11 8 16l109 87c4 3 8 4 12 4c11 0 20 -10 20 -20z" />
    <glyph glyph-name="aringacute.alt" unicode="&#xf81f;" horiz-adv-x="458" 
d="M304 685c0 -43 -35 -78 -78 -78s-77 35 -77 78s34 77 77 77s78 -34 78 -77zM267 685c0 22 -18 40 -41 40c-22 0 -40 -18 -40 -40c0 -23 18 -41 40 -41s41 19 41 41zM301 918c0 -6 -2 -11 -8 -16l-109 -87c-4 -3 -8 -4 -12 -4c-11 0 -20 10 -20 20c0 6 2 11 8 16l109 87
c4 3 8 4 12 4c11 0 20 -10 20 -20zM353 20v25c-32 -35 -79 -55 -131 -55c-91 0 -172 54 -172 152c0 89 72 137 155 155l148 32v54c0 73 -43 122 -129 122c-93 0 -107 -60 -129 -60c-10 0 -20 8 -20 19c0 9 7 17 12 23c35 41 86 58 137 58c108 0 169 -67 169 -162v-363
c0 -13 -10 -20 -20 -20s-20 7 -20 20zM353 146v142l-142 -32c-70 -16 -121 -55 -121 -114c0 -69 55 -112 132 -112c72 0 128 48 131 116z" />
    <glyph glyph-name="Amacron" unicode="&#x100;" horiz-adv-x="580" 
d="M550 19c0 -12 -10 -19 -20 -19c-8 0 -16 4 -19 14l-77 232h-287l-78 -232c-3 -10 -11 -14 -19 -14c-10 0 -20 7 -20 19c0 3 1 7 1 7l240 720c4 11 12 17 19 17c8 0 15 -6 19 -17l240 -720s1 -3 1 -7zM420 286l-130 391l-130 -391h260zM388 882c0 -8 -4 -20 -19 -20h-158
c-13 0 -20 11 -20 20s7 20 20 20h158c15 0 19 -12 19 -20z" />
    <glyph glyph-name="amacron" unicode="&#x101;" horiz-adv-x="458" 
d="M393 152c0 -96 -78 -162 -171 -162c-91 0 -172 54 -172 152c0 89 72 137 155 155l148 32v54c0 73 -43 122 -129 122c-93 0 -107 -60 -129 -60c-10 0 -20 8 -20 19c0 9 7 17 12 23c35 41 86 58 137 58c108 0 169 -67 169 -162v-231zM353 152v136l-142 -32
c-70 -16 -121 -55 -121 -114c0 -69 55 -112 132 -112c74 0 131 51 131 122zM335 657c0 -8 -4 -20 -19 -20h-158c-13 0 -20 11 -20 20s7 20 20 20h158c15 0 19 -12 19 -20z" />
    <glyph glyph-name="amacron.alt" unicode="&#xf820;" horiz-adv-x="458" 
d="M335 657c0 -8 -4 -20 -19 -20h-158c-13 0 -20 11 -20 20s7 20 20 20h158c15 0 19 -12 19 -20zM353 20v25c-32 -35 -79 -55 -131 -55c-91 0 -172 54 -172 152c0 89 72 137 155 155l148 32v54c0 73 -43 122 -129 122c-93 0 -107 -60 -129 -60c-10 0 -20 8 -20 19
c0 9 7 17 12 23c35 41 86 58 137 58c108 0 169 -67 169 -162v-363c0 -13 -10 -20 -20 -20s-20 7 -20 20zM353 146v142l-142 -32c-70 -16 -121 -55 -121 -114c0 -69 55 -112 132 -112c72 0 128 48 131 116z" />
    <glyph glyph-name="Abreve" unicode="&#x102;" horiz-adv-x="580" 
d="M550 19c0 -12 -10 -19 -20 -19c-8 0 -16 4 -19 14l-77 232h-287l-78 -232c-3 -10 -11 -14 -19 -14c-10 0 -20 7 -20 19c0 3 1 7 1 7l240 720c4 11 12 17 19 17c8 0 15 -6 19 -17l240 -720s1 -3 1 -7zM420 286l-130 391l-130 -391h260zM389 941c0 -55 -44 -99 -99 -99
s-99 44 -99 99c0 13 11 20 20 20s20 -7 20 -20c0 -33 26 -59 59 -59s59 26 59 59c0 13 11 20 20 20s20 -7 20 -20z" />
    <glyph glyph-name="abreve" unicode="&#x103;" horiz-adv-x="458" 
d="M393 152c0 -96 -78 -162 -171 -162c-91 0 -172 54 -172 152c0 89 72 137 155 155l148 32v54c0 73 -43 122 -129 122c-93 0 -107 -60 -129 -60c-10 0 -20 8 -20 19c0 9 7 17 12 23c35 41 86 58 137 58c108 0 169 -67 169 -162v-231zM353 152v136l-142 -32
c-70 -16 -121 -55 -121 -114c0 -69 55 -112 132 -112c74 0 131 51 131 122zM335 716c0 -55 -44 -99 -99 -99s-99 44 -99 99c0 13 11 20 20 20s20 -7 20 -20c0 -33 26 -59 59 -59s59 26 59 59c0 13 11 20 20 20s20 -7 20 -20z" />
    <glyph glyph-name="abreve.alt" unicode="&#xf821;" horiz-adv-x="458" 
d="M335 716c0 -55 -44 -99 -99 -99s-99 44 -99 99c0 13 11 20 20 20s20 -7 20 -20c0 -33 26 -59 59 -59s59 26 59 59c0 13 11 20 20 20s20 -7 20 -20zM353 20v25c-32 -35 -79 -55 -131 -55c-91 0 -172 54 -172 152c0 89 72 137 155 155l148 32v54c0 73 -43 122 -129 122
c-93 0 -107 -60 -129 -60c-10 0 -20 8 -20 19c0 9 7 17 12 23c35 41 86 58 137 58c108 0 169 -67 169 -162v-363c0 -13 -10 -20 -20 -20s-20 7 -20 20zM353 146v142l-142 -32c-70 -16 -121 -55 -121 -114c0 -69 55 -112 132 -112c72 0 128 48 131 116z" />
    <glyph glyph-name="Aogonek" unicode="&#x104;" horiz-adv-x="580" 
d="M420 -145c0 -42 39 -44 56 -43c10 1 39 7 61 37c5 7 11 9 17 9c10 0 20 -9 20 -20c0 -9 -8 -17 -13 -23c-21 -21 -53 -43 -89 -43c-38 0 -94 15 -94 82c0 65 84 130 130 167l-74 225h-287l-78 -232c-3 -10 -11 -14 -19 -14c-10 0 -20 7 -20 19c0 3 1 7 1 7l240 720
c4 11 12 17 19 17c8 0 15 -6 19 -17l240 -720s1 -3 1 -7c0 -6 -4 -13 -10 -18c-41 -31 -120 -97 -120 -146zM420 286l-130 391l-130 -391h260z" />
    <glyph glyph-name="aogonek" unicode="&#x105;" horiz-adv-x="458" 
d="M208 -123c0 -42 39 -44 56 -43c10 1 39 7 61 37c5 7 11 9 17 9c10 0 20 -9 20 -20c0 -9 -8 -17 -13 -23c-21 -21 -53 -43 -89 -43c-38 0 -94 15 -94 82c0 41 32 81 68 115c-4 0 -8 -1 -12 -1c-91 0 -172 54 -172 152c0 89 72 137 155 155l148 32v54
c0 73 -43 122 -129 122c-93 0 -107 -60 -129 -60c-10 0 -20 8 -20 19c0 9 7 17 12 23c35 41 86 58 137 58c108 0 169 -67 169 -162v-231c0 -48 -28 -101 -65 -129c-72 -53 -120 -97 -120 -146zM353 152v136l-142 -32c-70 -16 -121 -55 -121 -114c0 -69 55 -112 132 -112
c74 0 131 51 131 122z" />
    <glyph glyph-name="aogonek.alt" unicode="&#xf822;" horiz-adv-x="458" 
d="M262 -143c0 -42 39 -44 56 -43c10 1 39 7 61 37c5 7 11 9 17 9c10 0 20 -9 20 -20c0 -9 -8 -17 -13 -23c-21 -21 -53 -43 -89 -43c-38 0 -94 15 -94 82c0 66 86 131 133 170v19c-32 -35 -79 -55 -131 -55c-91 0 -172 54 -172 152c0 89 72 137 155 155l148 32v54
c0 73 -43 122 -129 122c-93 0 -107 -60 -129 -60c-10 0 -20 8 -20 19c0 9 7 17 12 23c35 41 86 58 137 58c108 0 169 -67 169 -162v-357c0 -11 -8 -21 -14 -25c-44 -29 -117 -96 -117 -144zM353 146v142l-142 -32c-70 -16 -121 -55 -121 -114c0 -69 55 -112 132 -112
c72 0 128 48 131 116z" />
    <glyph glyph-name="AE" unicode="&#xc6;" horiz-adv-x="955" 
d="M895 740c0 -10 -6 -20 -20 -20h-355v-302h325c14 0 20 -10 20 -20s-6 -20 -20 -20h-325v-338h355c14 0 20 -10 20 -20s-6 -20 -20 -20h-375c-10 0 -20 7 -20 20v226h-285l-158 -237c-4 -7 -10 -9 -16 -9c-11 0 -21 9 -21 20c0 3 1 7 4 11l472 710c10 14 22 19 36 19h363
c14 0 20 -10 20 -20zM480 286v388l-258 -388h258z" />
    <glyph glyph-name="ae" unicode="&#xe6;" horiz-adv-x="783" 
d="M723 290c0 -11 -9 -20 -20 -20h-310v-95c0 -79 73 -145 155 -145c40 0 96 16 121 51c5 7 11 9 17 9c10 0 20 -9 20 -20c0 -9 -8 -17 -13 -23c-37 -39 -92 -57 -145 -57c-69 0 -134 38 -169 95c-27 -59 -88 -95 -157 -95c-91 0 -172 54 -172 152c0 89 72 137 155 155
l148 32v54c0 73 -43 122 -129 122c-37 0 -90 -13 -110 -49c-4 -8 -11 -11 -18 -11c-10 0 -21 8 -21 19c0 9 7 17 12 23c32 41 86 58 137 58c78 0 131 -35 155 -90c32 54 92 90 159 90c102 0 185 -83 185 -185v-70zM683 310v50c0 80 -65 145 -145 145s-145 -65 -145 -145v-50
h290zM353 152v136l-142 -32c-70 -16 -121 -55 -121 -114c0 -69 55 -112 132 -112c74 0 131 51 131 122z" />
    <glyph glyph-name="AEacute" unicode="&#x1fc;" horiz-adv-x="955" 
d="M895 740c0 -10 -6 -20 -20 -20h-355v-302h325c14 0 20 -10 20 -20s-6 -20 -20 -20h-325v-338h355c14 0 20 -10 20 -20s-6 -20 -20 -20h-375c-10 0 -20 7 -20 20v226h-285l-158 -237c-4 -7 -10 -9 -16 -9c-11 0 -21 9 -21 20c0 3 1 7 4 11l472 710c10 14 22 19 36 19h363
c14 0 20 -10 20 -20zM480 286v388l-258 -388h258zM680 939c0 -6 -2 -11 -8 -16l-109 -87c-4 -3 -8 -4 -12 -4c-11 0 -20 10 -20 20c0 6 2 11 8 16l109 87c4 3 8 4 12 4c11 0 20 -10 20 -20z" />
    <glyph glyph-name="aeacute" unicode="&#x1fd;" horiz-adv-x="783" 
d="M723 290c0 -11 -9 -20 -20 -20h-310v-95c0 -79 73 -145 155 -145c40 0 96 16 121 51c5 7 11 9 17 9c10 0 20 -9 20 -20c0 -9 -8 -17 -13 -23c-37 -39 -92 -57 -145 -57c-69 0 -134 38 -169 95c-27 -59 -88 -95 -157 -95c-91 0 -172 54 -172 152c0 89 72 137 155 155
l148 32v54c0 73 -43 122 -129 122c-37 0 -90 -13 -110 -49c-4 -8 -11 -11 -18 -11c-10 0 -21 8 -21 19c0 9 7 17 12 23c32 41 86 58 137 58c78 0 131 -35 155 -90c32 54 92 90 159 90c102 0 185 -83 185 -185v-70zM683 310v50c0 80 -65 145 -145 145s-145 -65 -145 -145v-50
h290zM353 152v136l-142 -32c-70 -16 -121 -55 -121 -114c0 -69 55 -112 132 -112c74 0 131 51 131 122zM520 714c0 -6 -2 -11 -8 -16l-109 -87c-4 -3 -8 -4 -12 -4c-11 0 -20 10 -20 20c0 6 2 11 8 16l109 87c4 3 8 4 12 4c11 0 20 -10 20 -20z" />
    <glyph glyph-name="Ccedilla" unicode="&#xc7;" horiz-adv-x="577" 
d="M367 -116c0 -40 -33 -73 -73 -73c-13 0 -20 11 -20 20s7 20 20 20c18 0 33 15 33 33s-15 32 -33 32c-12 0 -24 12 -19 25l18 50c-130 8 -233 115 -233 247v284c0 137 111 248 248 248c72 0 167 -32 214 -92c3 -4 5 -8 5 -12c0 -11 -11 -20 -21 -20c-6 0 -11 3 -16 8
c0 0 -3 4 -10 11c-46 43 -109 65 -172 65c-115 0 -208 -93 -208 -208v-284c0 -115 93 -208 208 -208c62 0 141 26 182 76c4 5 10 8 16 8c11 0 21 -9 21 -20c0 -4 -1 -8 -5 -12c0 0 -5 -7 -15 -16c-47 -44 -109 -69 -173 -75l-13 -39c27 -11 46 -37 46 -68z" />
    <glyph glyph-name="ccedilla" unicode="&#xe7;" horiz-adv-x="452" 
d="M272 -116c0 -40 -33 -73 -73 -73c-13 0 -20 11 -20 20s7 20 20 20c18 0 33 15 33 33s-15 32 -33 32c-12 0 -24 12 -19 25l19 54c-81 15 -134 74 -134 157v231c0 97 73 162 179 162c52 0 120 -21 155 -69c2 -4 3 -8 3 -11c0 -11 -10 -20 -21 -20s-15 9 -21 16
c-30 30 -74 44 -116 44c-88 0 -139 -51 -139 -122v-231c0 -71 51 -122 139 -122c40 0 96 16 121 51c5 7 11 9 17 9c10 0 20 -9 20 -20c0 -9 -8 -17 -13 -23c-37 -39 -92 -57 -145 -57h-6l-12 -38c27 -11 46 -37 46 -68z" />
    <glyph glyph-name="Cacute" unicode="&#x106;" horiz-adv-x="577" 
d="M527 94c0 -4 -1 -8 -5 -12c0 0 -5 -7 -15 -16c-53 -50 -126 -76 -199 -76c-137 0 -248 111 -248 248v284c0 137 111 248 248 248c72 0 167 -32 214 -92c3 -4 5 -8 5 -12c0 -11 -11 -20 -21 -20c-6 0 -11 3 -16 8c0 0 -3 4 -10 11c-46 43 -109 65 -172 65
c-115 0 -208 -93 -208 -208v-284c0 -115 93 -208 208 -208c62 0 141 26 182 76c4 5 10 8 16 8c11 0 21 -9 21 -20zM383 939c0 -6 -2 -11 -8 -16l-109 -87c-4 -3 -8 -4 -12 -4c-11 0 -20 10 -20 20c0 6 2 11 8 16l109 87c4 3 8 4 12 4c11 0 20 -10 20 -20z" />
    <glyph glyph-name="cacute" unicode="&#x107;" horiz-adv-x="452" 
d="M402 70c0 -9 -8 -17 -13 -23c-37 -39 -92 -57 -145 -57c-106 0 -179 65 -179 162v231c0 97 73 162 179 162c52 0 120 -21 155 -69c2 -4 3 -8 3 -11c0 -11 -10 -20 -21 -20s-15 9 -21 16c-30 30 -74 44 -116 44c-88 0 -139 -51 -139 -122v-231c0 -71 51 -122 139 -122
c40 0 96 16 121 51c5 7 11 9 17 9c10 0 20 -9 20 -20zM308 714c0 -6 -2 -11 -8 -16l-109 -87c-4 -3 -8 -4 -12 -4c-11 0 -20 10 -20 20c0 6 2 11 8 16l109 87c4 3 8 4 12 4c11 0 20 -10 20 -20z" />
    <glyph glyph-name="Cdotaccent" unicode="&#x10a;" horiz-adv-x="577" 
d="M527 94c0 -4 -1 -8 -5 -12c0 0 -5 -7 -15 -16c-53 -50 -126 -76 -199 -76c-137 0 -248 111 -248 248v284c0 137 111 248 248 248c72 0 167 -32 214 -92c3 -4 5 -8 5 -12c0 -11 -11 -20 -21 -20c-6 0 -11 3 -16 8c0 0 -3 4 -10 11c-46 43 -109 65 -172 65
c-115 0 -208 -93 -208 -208v-284c0 -115 93 -208 208 -208c62 0 141 26 182 76c4 5 10 8 16 8c11 0 21 -9 21 -20zM277 896c0 17 14 31 31 31s31 -14 31 -31s-14 -31 -31 -31s-31 14 -31 31z" />
    <glyph glyph-name="cdotaccent" unicode="&#x10b;" horiz-adv-x="452" 
d="M402 70c0 -9 -8 -17 -13 -23c-37 -39 -92 -57 -145 -57c-106 0 -179 65 -179 162v231c0 97 73 162 179 162c52 0 120 -21 155 -69c2 -4 3 -8 3 -11c0 -11 -10 -20 -21 -20s-15 9 -21 16c-30 30 -74 44 -116 44c-88 0 -139 -51 -139 -122v-231c0 -71 51 -122 139 -122
c40 0 96 16 121 51c5 7 11 9 17 9c10 0 20 -9 20 -20zM212 671c0 17 14 31 31 31s31 -14 31 -31s-14 -31 -31 -31s-31 14 -31 31z" />
    <glyph glyph-name="Ccaron" unicode="&#x10c;" horiz-adv-x="577" 
d="M527 94c0 -4 -1 -8 -5 -12c0 0 -5 -7 -15 -16c-53 -50 -126 -76 -199 -76c-137 0 -248 111 -248 248v284c0 137 111 248 248 248c72 0 167 -32 214 -92c3 -4 5 -8 5 -12c0 -11 -11 -20 -21 -20c-6 0 -11 3 -16 8c0 0 -3 4 -10 11c-46 43 -109 65 -172 65
c-115 0 -208 -93 -208 -208v-284c0 -115 93 -208 208 -208c62 0 141 26 182 76c4 5 10 8 16 8c11 0 21 -9 21 -20zM408 939c0 -6 -2 -11 -7 -15l-79 -77c-4 -4 -9 -5 -13 -5c-5 0 -10 1 -14 5l-79 77c-5 4 -7 9 -7 15c0 10 10 20 21 20c5 0 10 -2 13 -6l65 -63l66 63
c3 4 8 6 13 6c11 0 21 -10 21 -20z" />
    <glyph glyph-name="ccaron" unicode="&#x10d;" horiz-adv-x="452" 
d="M402 70c0 -9 -8 -17 -13 -23c-37 -39 -92 -57 -145 -57c-106 0 -179 65 -179 162v231c0 97 73 162 179 162c52 0 120 -21 155 -69c2 -4 3 -8 3 -11c0 -11 -10 -20 -21 -20s-15 9 -21 16c-30 30 -74 44 -116 44c-88 0 -139 -51 -139 -122v-231c0 -71 51 -122 139 -122
c40 0 96 16 121 51c5 7 11 9 17 9c10 0 20 -9 20 -20zM343 714c0 -6 -2 -11 -7 -15l-79 -77c-4 -4 -9 -5 -13 -5c-5 0 -10 1 -14 5l-79 77c-5 4 -7 9 -7 15c0 10 10 20 21 20c5 0 10 -2 13 -6l65 -63l66 63c3 4 8 6 13 6c11 0 21 -10 21 -20z" />
    <glyph glyph-name="Dcaron" unicode="&#x10e;" horiz-adv-x="621" 
d="M556 248c0 -137 -111 -248 -248 -248h-208c-11 0 -20 9 -20 20v720c0 11 9 20 20 20h208c137 0 248 -111 248 -248v-264zM516 248v264c0 115 -93 208 -208 208h-188v-680h188c115 0 208 93 208 208zM410 939c0 -6 -2 -11 -7 -15l-79 -77c-4 -4 -9 -5 -13 -5
c-5 0 -10 1 -14 5l-79 77c-5 4 -7 9 -7 15c0 10 10 20 21 20c5 0 10 -2 13 -6l65 -63l66 63c3 4 8 6 13 6c11 0 21 -10 21 -20z" />
    <glyph glyph-name="dcaron" unicode="&#x10f;" horiz-adv-x="630" 
d="M620 714c0 -6 -2 -11 -8 -16l-109 -87c-4 -3 -8 -4 -12 -4c-11 0 -20 10 -20 20c0 6 2 11 8 16l109 87c4 3 8 4 12 4c11 0 20 -10 20 -20zM435 175c0 -102 -83 -185 -185 -185s-185 83 -185 185v185c0 102 83 185 185 185c59 0 111 -27 145 -70v265c0 13 10 20 20 20
s20 -7 20 -20v-565zM395 175v185c0 80 -65 145 -145 145s-145 -65 -145 -145v-185c0 -80 65 -145 145 -145s145 65 145 145z" />
    <glyph glyph-name="dcaron.alt" unicode="&#xf823;" horiz-adv-x="630" 
d="M620 714c0 -6 -2 -11 -8 -16l-109 -87c-4 -3 -8 -4 -12 -4c-11 0 -20 10 -20 20c0 6 2 11 8 16l109 87c4 3 8 4 12 4c11 0 20 -10 20 -20zM435 740v-720c0 -13 -10 -20 -20 -20s-20 7 -20 20v40c-34 -43 -86 -70 -145 -70c-102 0 -185 83 -185 185v185
c0 102 83 185 185 185c59 0 111 -27 145 -70v265c0 13 10 20 20 20s20 -7 20 -20zM105 360v-185c0 -80 65 -145 145 -145s145 65 145 145v185c0 80 -65 145 -145 145s-145 -65 -145 -145z" />
    <glyph glyph-name="Eth" unicode="&#xd0;" horiz-adv-x="621" 
d="M556 248c0 -137 -111 -248 -248 -248h-208c-11 0 -20 9 -20 20v370h-60c-13 0 -20 10 -20 20s7 20 20 20h60v310c0 11 9 20 20 20h208c137 0 248 -111 248 -248v-264zM516 248v264c0 115 -93 208 -208 208h-188v-290h85c13 0 20 -10 20 -20s-7 -20 -20 -20h-85v-350h188
c115 0 208 93 208 208z" />
    <glyph glyph-name="Dcroat" unicode="&#x110;" horiz-adv-x="621" 
d="M556 248c0 -137 -111 -248 -248 -248h-208c-11 0 -20 9 -20 20v370h-60c-13 0 -20 10 -20 20s7 20 20 20h60v310c0 11 9 20 20 20h208c137 0 248 -111 248 -248v-264zM516 248v264c0 115 -93 208 -208 208h-188v-290h135c13 0 20 -10 20 -20s-7 -20 -20 -20h-135v-350
h188c115 0 208 93 208 208z" />
    <glyph glyph-name="dcroat" unicode="&#x111;" horiz-adv-x="505" 
d="M260 659h135v81c0 13 10 20 20 20s20 -7 20 -20v-81h50c13 0 20 -10 20 -20s-7 -20 -20 -20h-50v-444c0 -102 -83 -185 -185 -185s-185 83 -185 185v185c0 102 83 185 185 185c59 0 111 -27 145 -70v144h-135c-13 0 -20 10 -20 20s7 20 20 20zM395 175v185
c0 80 -65 145 -145 145s-145 -65 -145 -145v-185c0 -80 65 -145 145 -145s145 65 145 145z" />
    <glyph glyph-name="dcroat.alt" unicode="&#xf824;" horiz-adv-x="505" 
d="M435 740v-81h50c13 0 20 -10 20 -20s-7 -20 -20 -20h-50v-599c0 -13 -10 -20 -20 -20s-20 7 -20 20v40c-34 -43 -86 -70 -145 -70c-102 0 -185 83 -185 185v185c0 102 83 185 185 185c59 0 111 -27 145 -70v144h-135c-13 0 -20 10 -20 20s7 20 20 20h135v81
c0 13 10 20 20 20s20 -7 20 -20zM105 360v-185c0 -80 65 -145 145 -145s145 65 145 145v185c0 80 -65 145 -145 145s-145 -65 -145 -145z" />
    <glyph glyph-name="Egrave" unicode="&#xc8;" horiz-adv-x="545" 
d="M495 20c0 -10 -7 -20 -20 -20h-375c-11 0 -20 9 -20 20v720c0 11 9 20 20 20h375c13 0 20 -10 20 -20s-7 -20 -20 -20h-355v-302h325c13 0 20 -10 20 -20s-7 -20 -20 -20h-325v-338h355c13 0 20 -10 20 -20zM347 852c0 -10 -9 -20 -20 -20c-4 0 -8 1 -12 4l-109 87
c-6 5 -8 10 -8 16c0 10 9 20 20 20c4 0 8 -1 12 -4l109 -87c6 -5 8 -10 8 -16z" />
    <glyph glyph-name="egrave" unicode="&#xe8;" horiz-adv-x="495" 
d="M435 290c0 -11 -9 -20 -20 -20h-310v-95c0 -79 73 -145 155 -145c40 0 96 16 121 51c5 7 11 9 17 9c10 0 20 -9 20 -20c0 -9 -8 -17 -13 -23c-37 -39 -92 -57 -145 -57c-101 0 -195 81 -195 185v185c0 102 83 185 185 185s185 -83 185 -185v-70zM395 310v50
c0 80 -65 145 -145 145s-145 -65 -145 -145v-50h290zM314 627c0 -10 -9 -20 -20 -20c-4 0 -8 1 -12 4l-109 87c-6 5 -8 10 -8 16c0 10 9 20 20 20c4 0 8 -1 12 -4l109 -87c6 -5 8 -10 8 -16z" />
    <glyph glyph-name="Eacute" unicode="&#xc9;" horiz-adv-x="545" 
d="M495 20c0 -10 -7 -20 -20 -20h-375c-11 0 -20 9 -20 20v720c0 11 9 20 20 20h375c13 0 20 -10 20 -20s-7 -20 -20 -20h-355v-302h325c13 0 20 -10 20 -20s-7 -20 -20 -20h-325v-338h355c13 0 20 -10 20 -20zM367 939c0 -6 -2 -11 -8 -16l-109 -87c-4 -3 -8 -4 -12 -4
c-11 0 -20 10 -20 20c0 6 2 11 8 16l109 87c4 3 8 4 12 4c11 0 20 -10 20 -20z" />
    <glyph glyph-name="eacute" unicode="&#xe9;" horiz-adv-x="495" 
d="M435 290c0 -11 -9 -20 -20 -20h-310v-95c0 -79 73 -145 155 -145c40 0 96 16 121 51c5 7 11 9 17 9c10 0 20 -9 20 -20c0 -9 -8 -17 -13 -23c-37 -39 -92 -57 -145 -57c-101 0 -195 81 -195 185v185c0 102 83 185 185 185s185 -83 185 -185v-70zM395 310v50
c0 80 -65 145 -145 145s-145 -65 -145 -145v-50h290zM314 714c0 -6 -2 -11 -8 -16l-109 -87c-4 -3 -8 -4 -12 -4c-11 0 -20 10 -20 20c0 6 2 11 8 16l109 87c4 3 8 4 12 4c11 0 20 -10 20 -20z" />
    <glyph glyph-name="Ecircumflex" unicode="&#xca;" horiz-adv-x="545" 
d="M495 20c0 -10 -7 -20 -20 -20h-375c-11 0 -20 9 -20 20v720c0 11 9 20 20 20h375c13 0 20 -10 20 -20s-7 -20 -20 -20h-355v-302h325c13 0 20 -10 20 -20s-7 -20 -20 -20h-325v-338h355c13 0 20 -10 20 -20zM372 862c0 -12 -11 -20 -21 -20c-6 0 -10 3 -13 6l-65 63
l-66 -63c-3 -3 -7 -6 -13 -6c-10 0 -21 8 -21 20c0 7 5 12 7 14l79 77c3 3 8 6 14 6c7 0 11 -4 13 -6l79 -77c2 -2 7 -7 7 -14z" />
    <glyph glyph-name="ecircumflex" unicode="&#xea;" horiz-adv-x="495" 
d="M435 290c0 -11 -9 -20 -20 -20h-310v-95c0 -79 73 -145 155 -145c40 0 96 16 121 51c5 7 11 9 17 9c10 0 20 -9 20 -20c0 -9 -8 -17 -13 -23c-37 -39 -92 -57 -145 -57c-101 0 -195 81 -195 185v185c0 102 83 185 185 185s185 -83 185 -185v-70zM395 310v50
c0 80 -65 145 -145 145s-145 -65 -145 -145v-50h290zM339 637c0 -12 -11 -20 -21 -20c-6 0 -10 3 -13 6l-65 63l-66 -63c-3 -3 -7 -6 -13 -6c-10 0 -21 8 -21 20c0 7 5 12 7 14l79 77c3 3 8 6 14 6c7 0 11 -4 13 -6l79 -77c2 -2 7 -7 7 -14z" />
    <glyph glyph-name="Edieresis" unicode="&#xcb;" horiz-adv-x="545" 
d="M495 20c0 -10 -7 -20 -20 -20h-375c-11 0 -20 9 -20 20v720c0 11 9 20 20 20h375c13 0 20 -10 20 -20s-7 -20 -20 -20h-355v-302h325c13 0 20 -10 20 -20s-7 -20 -20 -20h-325v-338h355c13 0 20 -10 20 -20zM171 870c0 17 14 31 31 31s31 -14 31 -31s-14 -31 -31 -31
s-31 14 -31 31zM312 870c0 17 14 31 31 31s31 -14 31 -31s-14 -31 -31 -31s-31 14 -31 31z" />
    <glyph glyph-name="edieresis" unicode="&#xeb;" horiz-adv-x="495" 
d="M435 290c0 -11 -9 -20 -20 -20h-310v-95c0 -79 73 -145 155 -145c40 0 96 16 121 51c5 7 11 9 17 9c10 0 20 -9 20 -20c0 -9 -8 -17 -13 -23c-37 -39 -92 -57 -145 -57c-101 0 -195 81 -195 185v185c0 102 83 185 185 185s185 -83 185 -185v-70zM395 310v50
c0 80 -65 145 -145 145s-145 -65 -145 -145v-50h290zM138 645c0 17 14 31 31 31s31 -14 31 -31s-14 -31 -31 -31s-31 14 -31 31zM279 645c0 17 14 31 31 31s31 -14 31 -31s-14 -31 -31 -31s-31 14 -31 31z" />
    <glyph glyph-name="Emacron" unicode="&#x112;" horiz-adv-x="545" 
d="M495 20c0 -10 -7 -20 -20 -20h-375c-11 0 -20 9 -20 20v720c0 11 9 20 20 20h375c13 0 20 -10 20 -20s-7 -20 -20 -20h-355v-302h325c13 0 20 -10 20 -20s-7 -20 -20 -20h-325v-338h355c13 0 20 -10 20 -20zM371 882c0 -8 -4 -20 -19 -20h-158c-13 0 -20 11 -20 20
s7 20 20 20h158c15 0 19 -12 19 -20z" />
    <glyph glyph-name="emacron" unicode="&#x113;" horiz-adv-x="495" 
d="M435 290c0 -11 -9 -20 -20 -20h-310v-95c0 -79 73 -145 155 -145c40 0 96 16 121 51c5 7 11 9 17 9c10 0 20 -9 20 -20c0 -9 -8 -17 -13 -23c-37 -39 -92 -57 -145 -57c-101 0 -195 81 -195 185v185c0 102 83 185 185 185s185 -83 185 -185v-70zM395 310v50
c0 80 -65 145 -145 145s-145 -65 -145 -145v-50h290zM350 657c0 -8 -4 -20 -19 -20h-158c-13 0 -20 11 -20 20s7 20 20 20h158c15 0 19 -12 19 -20z" />
    <glyph glyph-name="Ebreve" unicode="&#x114;" horiz-adv-x="545" 
d="M495 20c0 -10 -7 -20 -20 -20h-375c-11 0 -20 9 -20 20v720c0 11 9 20 20 20h375c13 0 20 -10 20 -20s-7 -20 -20 -20h-355v-302h325c13 0 20 -10 20 -20s-7 -20 -20 -20h-325v-338h355c13 0 20 -10 20 -20zM371 941c0 -55 -44 -99 -99 -99s-99 44 -99 99
c0 13 11 20 20 20s20 -7 20 -20c0 -33 26 -59 59 -59s59 26 59 59c0 13 11 20 20 20s20 -7 20 -20z" />
    <glyph glyph-name="ebreve" unicode="&#x115;" horiz-adv-x="495" 
d="M435 290c0 -11 -9 -20 -20 -20h-310v-95c0 -79 73 -145 155 -145c40 0 96 16 121 51c5 7 11 9 17 9c10 0 20 -9 20 -20c0 -9 -8 -17 -13 -23c-37 -39 -92 -57 -145 -57c-101 0 -195 81 -195 185v185c0 102 83 185 185 185s185 -83 185 -185v-70zM395 310v50
c0 80 -65 145 -145 145s-145 -65 -145 -145v-50h290zM339 716c0 -55 -44 -99 -99 -99s-99 44 -99 99c0 13 11 20 20 20s20 -7 20 -20c0 -33 26 -59 59 -59s59 26 59 59c0 13 11 20 20 20s20 -7 20 -20z" />
    <glyph glyph-name="Edotaccent" unicode="&#x116;" horiz-adv-x="545" 
d="M495 20c0 -10 -7 -20 -20 -20h-375c-11 0 -20 9 -20 20v720c0 11 9 20 20 20h375c13 0 20 -10 20 -20s-7 -20 -20 -20h-355v-302h325c13 0 20 -10 20 -20s-7 -20 -20 -20h-325v-338h355c13 0 20 -10 20 -20zM251 896c0 17 14 31 31 31s31 -14 31 -31s-14 -31 -31 -31
s-31 14 -31 31z" />
    <glyph glyph-name="edotaccent" unicode="&#x117;" horiz-adv-x="495" 
d="M435 290c0 -11 -9 -20 -20 -20h-310v-95c0 -79 73 -145 155 -145c40 0 96 16 121 51c5 7 11 9 17 9c10 0 20 -9 20 -20c0 -9 -8 -17 -13 -23c-37 -39 -92 -57 -145 -57c-101 0 -195 81 -195 185v185c0 102 83 185 185 185s185 -83 185 -185v-70zM395 310v50
c0 80 -65 145 -145 145s-145 -65 -145 -145v-50h290zM219 671c0 17 14 31 31 31s31 -14 31 -31s-14 -31 -31 -31s-31 14 -31 31z" />
    <glyph glyph-name="Eogonek" unicode="&#x118;" horiz-adv-x="545" 
d="M365 -144c0 -42 39 -44 56 -43c10 1 39 7 61 37c5 7 11 9 17 9c10 0 20 -9 20 -20c0 -9 -8 -17 -13 -23c-21 -21 -53 -43 -89 -43c-38 0 -94 15 -94 82c0 54 57 107 103 145h-326c-11 0 -20 9 -20 20v720c0 11 9 20 20 20h375c13 0 20 -10 20 -20s-7 -20 -20 -20h-355
v-302h325c13 0 20 -10 20 -20s-7 -20 -20 -20h-325v-338h355c13 0 20 -10 20 -20c0 -7 -3 -13 -10 -18c-41 -30 -120 -97 -120 -146z" />
    <glyph glyph-name="eogonek" unicode="&#x119;" horiz-adv-x="495" 
d="M263 -114c0 -42 39 -44 56 -43c10 1 39 7 61 37c5 7 11 9 17 9c10 0 20 -9 20 -20c0 -9 -8 -17 -13 -23c-21 -21 -53 -43 -89 -43c-38 0 -94 15 -94 82c0 37 27 74 59 106c0 0 -13 -1 -20 -1c-101 0 -195 81 -195 185v185c0 102 83 185 185 185s185 -83 185 -185v-70
c0 -11 -9 -20 -20 -20h-310v-95c0 -79 73 -145 155 -145c40 0 96 16 121 51c5 7 11 9 17 9c10 0 20 -9 20 -20c0 -9 -8 -17 -13 -23c-14 -15 -30 -26 -48 -35c-41 -34 -94 -86 -94 -126zM395 310v50c0 80 -65 145 -145 145s-145 -65 -145 -145v-50h290z" />
    <glyph glyph-name="Ecaron" unicode="&#x11a;" horiz-adv-x="545" 
d="M495 20c0 -10 -7 -20 -20 -20h-375c-11 0 -20 9 -20 20v720c0 11 9 20 20 20h375c13 0 20 -10 20 -20s-7 -20 -20 -20h-355v-302h325c13 0 20 -10 20 -20s-7 -20 -20 -20h-325v-338h355c13 0 20 -10 20 -20zM372 939c0 -6 -2 -11 -7 -15l-79 -77c-4 -4 -9 -5 -13 -5
c-5 0 -10 1 -14 5l-79 77c-5 4 -7 9 -7 15c0 10 10 20 21 20c5 0 10 -2 13 -6l65 -63l66 63c3 4 8 6 13 6c11 0 21 -10 21 -20z" />
    <glyph glyph-name="ecaron" unicode="&#x11b;" horiz-adv-x="495" 
d="M435 290c0 -11 -9 -20 -20 -20h-310v-95c0 -79 73 -145 155 -145c40 0 96 16 121 51c5 7 11 9 17 9c10 0 20 -9 20 -20c0 -9 -8 -17 -13 -23c-37 -39 -92 -57 -145 -57c-101 0 -195 81 -195 185v185c0 102 83 185 185 185s185 -83 185 -185v-70zM395 310v50
c0 80 -65 145 -145 145s-145 -65 -145 -145v-50h290zM339 714c0 -6 -2 -11 -7 -15l-79 -77c-4 -4 -9 -5 -13 -5c-5 0 -10 1 -14 5l-79 77c-5 4 -7 9 -7 15c0 10 10 20 21 20c5 0 10 -2 13 -6l65 -63l66 63c3 4 8 6 13 6c11 0 21 -10 21 -20z" />
    <glyph glyph-name="Gbreve" unicode="&#x11e;" horiz-adv-x="616" 
d="M556 238c0 -137 -111 -248 -248 -248s-248 111 -248 248v284c0 137 111 248 248 248c72 0 167 -32 214 -92c3 -4 5 -8 5 -12c0 -11 -11 -20 -21 -20c-12 0 -18 12 -26 19c-46 43 -109 65 -172 65c-115 0 -208 -93 -208 -208v-284c0 -115 93 -208 208 -208s208 93 208 208
v118h-200c-13 0 -20 10 -20 20s7 20 20 20h220c11 0 20 -9 20 -20v-138zM407 941c0 -55 -44 -99 -99 -99s-99 44 -99 99c0 13 11 20 20 20s20 -7 20 -20c0 -33 26 -59 59 -59s59 26 59 59c0 13 11 20 20 20s20 -7 20 -20z" />
    <glyph glyph-name="gbreve" unicode="&#x11f;" horiz-adv-x="505" 
d="M435 -15c0 -102 -83 -185 -185 -185c-52 0 -123 22 -155 69c-2 4 -3 8 -3 11c0 11 10 20 21 20s15 -9 21 -16c30 -30 74 -44 116 -44c80 0 145 65 145 145v95c-34 -43 -86 -70 -145 -70c-102 0 -185 83 -185 185v165c0 102 83 185 185 185s185 -83 185 -185v-375z
M395 195v165c0 80 -65 145 -145 145s-145 -65 -145 -145v-165c0 -80 65 -145 145 -145s145 65 145 145zM344 716c0 -55 -44 -99 -99 -99s-99 44 -99 99c0 13 11 20 20 20s20 -7 20 -20c0 -33 26 -59 59 -59s59 26 59 59c0 13 11 20 20 20s20 -7 20 -20z" />
    <glyph glyph-name="Gdotaccent" unicode="&#x120;" horiz-adv-x="616" 
d="M556 238c0 -137 -111 -248 -248 -248s-248 111 -248 248v284c0 137 111 248 248 248c72 0 167 -32 214 -92c3 -4 5 -8 5 -12c0 -11 -11 -20 -21 -20c-12 0 -18 12 -26 19c-46 43 -109 65 -172 65c-115 0 -208 -93 -208 -208v-284c0 -115 93 -208 208 -208s208 93 208 208
v118h-200c-13 0 -20 10 -20 20s7 20 20 20h220c11 0 20 -9 20 -20v-138zM277 896c0 17 14 31 31 31s31 -14 31 -31s-14 -31 -31 -31s-31 14 -31 31z" />
    <glyph glyph-name="gdotaccent" unicode="&#x121;" horiz-adv-x="505" 
d="M435 -15c0 -102 -83 -185 -185 -185c-52 0 -123 22 -155 69c-2 4 -3 8 -3 11c0 11 10 20 21 20s15 -9 21 -16c30 -30 74 -44 116 -44c80 0 145 65 145 145v95c-34 -43 -86 -70 -145 -70c-102 0 -185 83 -185 185v165c0 102 83 185 185 185s185 -83 185 -185v-375z
M395 195v165c0 80 -65 145 -145 145s-145 -65 -145 -145v-165c0 -80 65 -145 145 -145s145 65 145 145zM214 671c0 17 14 31 31 31s31 -14 31 -31s-14 -31 -31 -31s-31 14 -31 31z" />
    <glyph glyph-name="Gcommaaccent" unicode="&#x122;" horiz-adv-x="616" 
d="M556 238c0 -137 -111 -248 -248 -248s-248 111 -248 248v284c0 137 111 248 248 248c72 0 167 -32 214 -92c3 -4 5 -8 5 -12c0 -11 -11 -20 -21 -20c-12 0 -18 12 -26 19c-46 43 -109 65 -172 65c-115 0 -208 -93 -208 -208v-284c0 -115 93 -208 208 -208s208 93 208 208
v118h-200c-13 0 -20 10 -20 20s7 20 20 20h220c11 0 20 -9 20 -20v-138zM350 -73c0 -75 -31 -121 -72 -159c-4 -3 -8 -4 -12 -4c-11 0 -20 10 -20 20c0 6 2 12 8 16c0 0 5 4 12 11c22 25 44 51 44 116c0 13 10 20 20 20s20 -7 20 -20z" />
    <glyph glyph-name="gcommaaccent" unicode="&#x123;" horiz-adv-x="505" 
d="M435 -15c0 -102 -83 -185 -185 -185c-52 0 -123 22 -155 69c-2 4 -3 8 -3 11c0 11 10 20 21 20s15 -9 21 -16c30 -30 74 -44 116 -44c80 0 145 65 145 145v95c-34 -43 -86 -70 -145 -70c-102 0 -185 83 -185 185v165c0 102 83 185 185 185s185 -83 185 -185v-375z
M395 195v165c0 80 -65 145 -145 145s-145 -65 -145 -145v-165c0 -80 65 -145 145 -145s145 65 145 145zM214 637c0 75 31 121 72 159c4 3 8 4 12 4c11 0 20 -10 20 -20c0 -6 -2 -12 -8 -16c0 0 -5 -4 -12 -11c-22 -25 -44 -51 -44 -116c0 -13 -10 -20 -20 -20s-20 7 -20 20z
" />
    <glyph glyph-name="Hbar" unicode="&#x126;" horiz-adv-x="636" 
d="M556 20c0 -13 -10 -20 -20 -20s-20 7 -20 20v370h-396v-370c0 -13 -10 -20 -20 -20s-20 7 -20 20v538h-50c-13 0 -20 10 -20 20s7 20 20 20h50v142c0 13 10 20 20 20s20 -7 20 -20v-142h396v142c0 13 10 20 20 20s20 -7 20 -20v-142h50c13 0 20 -10 20 -20
s-7 -20 -20 -20h-50v-538zM120 430h396v128h-396v-128z" />
    <glyph glyph-name="hbar" unicode="&#x127;" 
d="M440 20c0 -13 -10 -20 -20 -20s-20 7 -20 20v340c0 80 -65 145 -145 145s-145 -65 -145 -145v-340c0 -13 -10 -20 -20 -20s-20 7 -20 20v599h-50c-13 0 -20 10 -20 20s7 20 20 20h50v81c0 13 10 20 20 20s20 -7 20 -20v-81h135c13 0 20 -10 20 -20s-7 -20 -20 -20h-135
v-144c34 43 86 70 145 70c102 0 185 -83 185 -185v-340z" />
    <glyph glyph-name="Igrave" unicode="&#xcc;" horiz-adv-x="440" 
d="M400 20c0 -10 -7 -20 -20 -20h-320c-13 0 -20 10 -20 20s7 20 20 20h140v680h-140c-13 0 -20 10 -20 20s7 20 20 20h320c13 0 20 -10 20 -20s-7 -20 -20 -20h-140v-680h140c13 0 20 -10 20 -20zM294 852c0 -10 -9 -20 -20 -20c-4 0 -8 1 -12 4l-109 87c-6 5 -8 10 -8 16
c0 10 9 20 20 20c4 0 8 -1 12 -4l109 -87c6 -5 8 -10 8 -16z" />
    <glyph glyph-name="Igrave.alt" unicode="&#xf814;" horiz-adv-x="200" 
d="M174 852c0 -10 -9 -20 -20 -20c-4 0 -8 1 -12 4l-109 87c-6 5 -8 10 -8 16c0 10 9 20 20 20c4 0 8 -1 12 -4l109 -87c6 -5 8 -10 8 -16zM80 20v720c0 13 10 20 20 20s20 -7 20 -20v-720c0 -13 -10 -20 -20 -20s-20 7 -20 20z" />
    <glyph glyph-name="igrave" unicode="&#xec;" horiz-adv-x="180" 
d="M110 20c0 -13 -10 -20 -20 -20s-20 7 -20 20v495c0 13 10 20 20 20s20 -7 20 -20v-495zM165 627c0 -10 -9 -20 -20 -20c-4 0 -8 1 -12 4l-109 87c-6 5 -8 10 -8 16c0 10 9 20 20 20c4 0 8 -1 12 -4l109 -87c6 -5 8 -10 8 -16z" />
    <glyph glyph-name="Iacute" unicode="&#xcd;" horiz-adv-x="440" 
d="M400 20c0 -10 -7 -20 -20 -20h-320c-13 0 -20 10 -20 20s7 20 20 20h140v680h-140c-13 0 -20 10 -20 20s7 20 20 20h320c13 0 20 -10 20 -20s-7 -20 -20 -20h-140v-680h140c13 0 20 -10 20 -20zM294 939c0 -6 -2 -11 -8 -16l-109 -87c-4 -3 -8 -4 -12 -4
c-11 0 -20 10 -20 20c0 6 2 11 8 16l109 87c4 3 8 4 12 4c11 0 20 -10 20 -20z" />
    <glyph glyph-name="Iacute.alt" unicode="&#xf811;" horiz-adv-x="200" 
d="M174 939c0 -6 -2 -11 -8 -16l-109 -87c-4 -3 -8 -4 -12 -4c-11 0 -20 10 -20 20c0 6 2 11 8 16l109 87c4 3 8 4 12 4c11 0 20 -10 20 -20zM80 20v720c0 13 10 20 20 20s20 -7 20 -20v-720c0 -13 -10 -20 -20 -20s-20 7 -20 20z" />
    <glyph glyph-name="iacute" unicode="&#xed;" horiz-adv-x="180" 
d="M110 20c0 -13 -10 -20 -20 -20s-20 7 -20 20v495c0 13 10 20 20 20s20 -7 20 -20v-495zM165 714c0 -6 -2 -11 -8 -16l-109 -87c-4 -3 -8 -4 -12 -4c-11 0 -20 10 -20 20c0 6 2 11 8 16l109 87c4 3 8 4 12 4c11 0 20 -10 20 -20z" />
    <glyph glyph-name="Icircumflex" unicode="&#xce;" horiz-adv-x="440" 
d="M400 20c0 -10 -7 -20 -20 -20h-320c-13 0 -20 10 -20 20s7 20 20 20h140v680h-140c-13 0 -20 10 -20 20s7 20 20 20h320c13 0 20 -10 20 -20s-7 -20 -20 -20h-140v-680h140c13 0 20 -10 20 -20zM319 862c0 -12 -11 -20 -21 -20c-6 0 -10 3 -13 6l-65 63l-66 -63
c-3 -3 -7 -6 -13 -6c-10 0 -21 8 -21 20c0 7 5 12 7 14l79 77c3 3 8 6 14 6c7 0 11 -4 13 -6l79 -77c2 -2 7 -7 7 -14z" />
    <glyph glyph-name="Icircumflex.alt" unicode="&#xf812;" horiz-adv-x="200" 
d="M199 862c0 -12 -11 -20 -21 -20c-6 0 -10 3 -13 6l-65 63l-66 -63c-3 -3 -7 -6 -13 -6c-10 0 -21 8 -21 20c0 7 5 12 7 14l79 77c3 3 8 6 14 6c7 0 11 -4 13 -6l79 -77c2 -2 7 -7 7 -14zM80 20v720c0 13 10 20 20 20s20 -7 20 -20v-720c0 -13 -10 -20 -20 -20
s-20 7 -20 20z" />
    <glyph glyph-name="icircumflex" unicode="&#xee;" horiz-adv-x="180" 
d="M110 20c0 -13 -10 -20 -20 -20s-20 7 -20 20v495c0 13 10 20 20 20s20 -7 20 -20v-495zM190 637c0 -12 -11 -20 -21 -20c-6 0 -10 3 -13 6l-65 63l-66 -63c-3 -3 -7 -6 -13 -6c-10 0 -21 8 -21 20c0 7 5 12 7 14l79 77c3 3 8 6 14 6c7 0 11 -4 13 -6l79 -77
c2 -2 7 -7 7 -14z" />
    <glyph glyph-name="Idieresis" unicode="&#xcf;" horiz-adv-x="440" 
d="M400 20c0 -10 -7 -20 -20 -20h-320c-13 0 -20 10 -20 20s7 20 20 20h140v680h-140c-13 0 -20 10 -20 20s7 20 20 20h320c13 0 20 -10 20 -20s-7 -20 -20 -20h-140v-680h140c13 0 20 -10 20 -20zM118 870c0 17 14 31 31 31s31 -14 31 -31s-14 -31 -31 -31s-31 14 -31 31z
M259 870c0 17 14 31 31 31s31 -14 31 -31s-14 -31 -31 -31s-31 14 -31 31z" />
    <glyph glyph-name="Idieresis.alt" unicode="&#xf813;" horiz-adv-x="200" 
d="M-2 870c0 17 14 31 31 31s31 -14 31 -31s-14 -31 -31 -31s-31 14 -31 31zM139 870c0 17 14 31 31 31s31 -14 31 -31s-14 -31 -31 -31s-31 14 -31 31zM80 20v720c0 13 10 20 20 20s20 -7 20 -20v-720c0 -13 -10 -20 -20 -20s-20 7 -20 20z" />
    <glyph glyph-name="idieresis" unicode="&#xef;" horiz-adv-x="180" 
d="M110 20c0 -13 -10 -20 -20 -20s-20 7 -20 20v495c0 13 10 20 20 20s20 -7 20 -20v-495zM-11 645c0 17 14 31 31 31s31 -14 31 -31s-14 -31 -31 -31s-31 14 -31 31zM130 645c0 17 14 31 31 31s31 -14 31 -31s-14 -31 -31 -31s-31 14 -31 31z" />
    <glyph glyph-name="Imacron" unicode="&#x12a;" horiz-adv-x="440" 
d="M400 20c0 -10 -7 -20 -20 -20h-320c-13 0 -20 10 -20 20s7 20 20 20h140v680h-140c-13 0 -20 10 -20 20s7 20 20 20h320c13 0 20 -10 20 -20s-7 -20 -20 -20h-140v-680h140c13 0 20 -10 20 -20zM318 882c0 -8 -4 -20 -19 -20h-158c-13 0 -20 11 -20 20s7 20 20 20h158
c15 0 19 -12 19 -20z" />
    <glyph glyph-name="Imacron.alt" unicode="&#xf815;" horiz-adv-x="200" 
d="M198 882c0 -8 -4 -20 -19 -20h-158c-13 0 -20 11 -20 20s7 20 20 20h158c15 0 19 -12 19 -20zM80 20v720c0 13 10 20 20 20s20 -7 20 -20v-720c0 -13 -10 -20 -20 -20s-20 7 -20 20z" />
    <glyph glyph-name="imacron" unicode="&#x12b;" horiz-adv-x="180" 
d="M110 20c0 -13 -10 -20 -20 -20s-20 7 -20 20v495c0 13 10 20 20 20s20 -7 20 -20v-495zM189 657c0 -8 -4 -20 -19 -20h-158c-13 0 -20 11 -20 20s7 20 20 20h158c15 0 19 -12 19 -20z" />
    <glyph glyph-name="Ibreve" unicode="&#x12c;" horiz-adv-x="440" 
d="M400 20c0 -10 -7 -20 -20 -20h-320c-13 0 -20 10 -20 20s7 20 20 20h140v680h-140c-13 0 -20 10 -20 20s7 20 20 20h320c13 0 20 -10 20 -20s-7 -20 -20 -20h-140v-680h140c13 0 20 -10 20 -20zM319 941c0 -55 -44 -99 -99 -99s-99 44 -99 99c0 13 11 20 20 20
s20 -7 20 -20c0 -33 26 -59 59 -59s59 26 59 59c0 13 11 20 20 20s20 -7 20 -20z" />
    <glyph glyph-name="Ibreve.alt" unicode="&#xf816;" horiz-adv-x="200" 
d="M199 941c0 -55 -44 -99 -99 -99s-99 44 -99 99c0 13 11 20 20 20s20 -7 20 -20c0 -33 26 -59 59 -59s59 26 59 59c0 13 11 20 20 20s20 -7 20 -20zM80 20v720c0 13 10 20 20 20s20 -7 20 -20v-720c0 -13 -10 -20 -20 -20s-20 7 -20 20z" />
    <glyph glyph-name="ibreve" unicode="&#x12d;" horiz-adv-x="180" 
d="M110 20c0 -13 -10 -20 -20 -20s-20 7 -20 20v495c0 13 10 20 20 20s20 -7 20 -20v-495zM189 716c0 -55 -44 -99 -99 -99s-99 44 -99 99c0 13 11 20 20 20s20 -7 20 -20c0 -33 26 -59 59 -59s59 26 59 59c0 13 11 20 20 20s20 -7 20 -20z" />
    <glyph glyph-name="Iogonek" unicode="&#x12e;" horiz-adv-x="440" 
d="M269 -145c0 -42 39 -44 56 -43c10 1 39 7 61 37c5 7 11 9 17 9c10 0 20 -9 20 -20c0 -9 -8 -17 -13 -23c-21 -21 -53 -43 -89 -43c-38 0 -94 15 -94 82c0 54 58 108 104 146h-271c-13 0 -20 10 -20 20s7 20 20 20h140v680h-140c-13 0 -20 10 -20 20s7 20 20 20h320
c13 0 20 -10 20 -20s-7 -20 -20 -20h-140v-680h140c13 0 20 -10 20 -20c0 -7 -3 -12 -11 -19c-40 -32 -120 -97 -120 -146z" />
    <glyph glyph-name="Iogonek.alt" unicode="&#xf817;" horiz-adv-x="200" 
d="M-11 -144c0 -42 39 -44 56 -43c10 1 39 7 61 37c5 7 11 9 17 9c10 0 20 -9 20 -20c0 -9 -8 -17 -13 -23c-21 -21 -53 -43 -89 -43c-38 0 -94 15 -94 82c0 66 86 131 133 170v715c0 13 10 20 20 20s20 -7 20 -20v-720c0 -9 -5 -16 -12 -20c-42 -28 -119 -95 -119 -144z
" />
    <glyph glyph-name="iogonek" unicode="&#x12f;" horiz-adv-x="180" 
d="M-21 -145c0 -42 39 -44 56 -43c10 1 39 7 61 37c5 7 11 9 17 9c10 0 20 -9 20 -20c0 -9 -8 -17 -13 -23c-21 -21 -53 -43 -89 -43c-38 0 -94 15 -94 82c0 66 86 131 133 170v491c0 13 10 20 20 20s20 -7 20 -20v-495c0 -11 -5 -14 -11 -19c-40 -33 -120 -97 -120 -146z
" />
    <glyph glyph-name="Idotaccent" unicode="&#x130;" horiz-adv-x="440" 
d="M400 20c0 -10 -7 -20 -20 -20h-320c-13 0 -20 10 -20 20s7 20 20 20h140v680h-140c-13 0 -20 10 -20 20s7 20 20 20h320c13 0 20 -10 20 -20s-7 -20 -20 -20h-140v-680h140c13 0 20 -10 20 -20zM189 896c0 17 14 31 31 31s31 -14 31 -31s-14 -31 -31 -31s-31 14 -31 31z
" />
    <glyph glyph-name="Idotaccent.alt" unicode="&#xf818;" horiz-adv-x="200" 
d="M69 896c0 17 14 31 31 31s31 -14 31 -31s-14 -31 -31 -31s-31 14 -31 31zM80 20v720c0 13 10 20 20 20s20 -7 20 -20v-720c0 -13 -10 -20 -20 -20s-20 7 -20 20z" />
    <glyph glyph-name="dotlessi" unicode="&#x131;" horiz-adv-x="180" 
d="M110 20c0 -13 -10 -20 -20 -20s-20 7 -20 20v495c0 13 10 20 20 20s20 -7 20 -20v-495z" />
    <glyph glyph-name="Kcommaaccent" unicode="&#x136;" horiz-adv-x="618" 
d="M588 20c0 -11 -10 -20 -20 -20c-6 0 -12 2 -16 8l-288 387l-144 -166v-209c0 -13 -10 -20 -20 -20s-20 7 -20 20v720c0 13 10 20 20 20s20 -7 20 -20v-450l402 463c4 5 10 7 15 7c10 0 20 -9 20 -20c0 -4 -1 -9 -5 -13l-261 -301l293 -394c3 -4 4 -8 4 -12zM351 -73
c0 -75 -31 -121 -72 -159c-4 -3 -8 -4 -12 -4c-11 0 -20 10 -20 20c0 6 2 12 8 16c0 0 5 4 12 11c22 25 44 51 44 116c0 13 10 20 20 20s20 -7 20 -20z" />
    <glyph glyph-name="kcommaaccent" unicode="&#x137;" horiz-adv-x="451" 
d="M431 20c0 -11 -10 -20 -20 -20c-6 0 -12 2 -16 8l-195 260l-90 -105v-143c0 -13 -10 -20 -20 -20s-20 7 -20 20v720c0 13 10 20 20 20s20 -7 20 -20v-516l260 304c4 5 10 7 15 7c10 0 20 -9 20 -20c0 -4 -1 -9 -5 -13l-173 -203l200 -267c3 -4 4 -8 4 -12zM272 -73
c0 -75 -31 -121 -72 -159c-4 -3 -8 -4 -12 -4c-11 0 -20 10 -20 20c0 6 2 12 8 16c0 0 5 4 12 11c22 25 44 51 44 116c0 13 10 20 20 20s20 -7 20 -20z" />
    <glyph glyph-name="Lacute" unicode="&#x139;" horiz-adv-x="525" 
d="M495 20c0 -10 -7 -20 -20 -20h-375c-11 0 -20 9 -20 20v720c0 13 10 20 20 20s20 -7 20 -20v-700h355c13 0 20 -10 20 -20zM229 939c0 -6 -2 -11 -8 -16l-109 -87c-4 -3 -8 -4 -12 -4c-11 0 -20 10 -20 20c0 6 2 11 8 16l109 87c4 3 8 4 12 4c11 0 20 -10 20 -20z" />
    <glyph glyph-name="lacute" unicode="&#x13a;" horiz-adv-x="200" 
d="M180 10c0 -10 -8 -20 -19 -20c-8 0 -17 5 -23 9c-49 32 -68 91 -68 148v593c0 13 10 20 20 20s20 -7 20 -20v-593c0 -40 15 -101 57 -118c9 -4 13 -11 13 -19zM223 939c0 -6 -2 -11 -8 -16l-109 -87c-4 -3 -8 -4 -12 -4c-11 0 -20 10 -20 20c0 6 2 11 8 16l109 87
c4 3 8 4 12 4c11 0 20 -10 20 -20z" />
    <glyph glyph-name="lacute.alt" unicode="&#xf825;" horiz-adv-x="180" 
d="M223 939c0 -6 -2 -11 -8 -16l-109 -87c-4 -3 -8 -4 -12 -4c-11 0 -20 10 -20 20c0 6 2 11 8 16l109 87c4 3 8 4 12 4c11 0 20 -10 20 -20zM70 20v720c0 13 10 20 20 20s20 -7 20 -20v-720c0 -13 -10 -20 -20 -20s-20 7 -20 20z" />
    <glyph glyph-name="Lcommaaccent" unicode="&#x13b;" horiz-adv-x="525" 
d="M495 20c0 -10 -7 -20 -20 -20h-375c-11 0 -20 9 -20 20v720c0 13 10 20 20 20s20 -7 20 -20v-700h355c13 0 20 -10 20 -20zM314 -73c0 -75 -31 -121 -72 -159c-4 -3 -8 -4 -12 -4c-11 0 -20 10 -20 20c0 6 2 12 8 16c0 0 5 4 12 11c22 25 44 51 44 116c0 13 10 20 20 20
s20 -7 20 -20z" />
    <glyph glyph-name="lcommaaccent" unicode="&#x13c;" horiz-adv-x="200" 
d="M180 10c0 -10 -8 -20 -19 -20c-8 0 -17 5 -23 9c-49 32 -68 91 -68 148v593c0 13 10 20 20 20s20 -7 20 -20v-593c0 -40 15 -101 57 -118c9 -4 13 -11 13 -19zM162 -73c0 -75 -31 -121 -72 -159c-4 -3 -8 -4 -12 -4c-11 0 -20 10 -20 20c0 6 2 12 8 16c0 0 5 4 12 11
c22 25 44 51 44 116c0 13 10 20 20 20s20 -7 20 -20z" />
    <glyph glyph-name="lcommaaccent.alt" unicode="&#xf826;" horiz-adv-x="180" 
d="M109 -73c0 -75 -31 -121 -72 -159c-4 -3 -8 -4 -12 -4c-11 0 -20 10 -20 20c0 6 2 12 8 16c0 0 5 4 12 11c22 25 44 51 44 116c0 13 10 20 20 20s20 -7 20 -20zM70 20v720c0 13 10 20 20 20s20 -7 20 -20v-720c0 -13 -10 -20 -20 -20s-20 7 -20 20z" />
    <glyph glyph-name="Lcaron" unicode="&#x13d;" horiz-adv-x="525" 
d="M333 714c0 -6 -2 -11 -8 -16l-109 -87c-4 -3 -8 -4 -12 -4c-11 0 -20 10 -20 20c0 6 2 11 8 16l109 87c4 3 8 4 12 4c11 0 20 -10 20 -20zM495 20c0 -10 -7 -20 -20 -20h-375c-11 0 -20 9 -20 20v720c0 13 10 20 20 20s20 -7 20 -20v-700h355c13 0 20 -10 20 -20z" />
    <glyph glyph-name="lcaron" unicode="&#x13e;" horiz-adv-x="310" 
d="M300 714c0 -6 -2 -11 -8 -16l-109 -87c-4 -3 -8 -4 -12 -4c-11 0 -20 10 -20 20c0 6 2 11 8 16l109 87c4 3 8 4 12 4c11 0 20 -10 20 -20zM180 10c0 -10 -8 -20 -19 -20c-8 0 -17 5 -23 9c-49 32 -68 91 -68 148v593c0 13 10 20 20 20s20 -7 20 -20v-593
c0 -40 15 -101 57 -118c9 -4 13 -11 13 -19z" />
    <glyph glyph-name="lcaron.alt" unicode="&#xf827;" horiz-adv-x="310" 
d="M300 714c0 -6 -2 -11 -8 -16l-109 -87c-4 -3 -8 -4 -12 -4c-11 0 -20 10 -20 20c0 6 2 11 8 16l109 87c4 3 8 4 12 4c11 0 20 -10 20 -20zM70 20v720c0 13 10 20 20 20s20 -7 20 -20v-720c0 -13 -10 -20 -20 -20s-20 7 -20 20z" />
    <glyph glyph-name="Ldot" unicode="&#x13f;" horiz-adv-x="525" 
d="M495 20c0 -10 -7 -20 -20 -20h-375c-11 0 -20 9 -20 20v720c0 13 10 20 20 20s20 -7 20 -20v-700h355c13 0 20 -10 20 -20zM210 371c0 16 13 29 29 29s29 -13 29 -29s-13 -29 -29 -29s-29 13 -29 29z" />
    <glyph glyph-name="ldot" unicode="&#x140;" horiz-adv-x="235" 
d="M180 10c0 -10 -8 -20 -19 -20c-8 0 -17 5 -23 9c-49 32 -68 91 -68 148v593c0 13 10 20 20 20s20 -7 20 -20v-593c0 -40 15 -101 57 -118c9 -4 13 -11 13 -19zM167 371c0 16 13 29 29 29s29 -13 29 -29s-13 -29 -29 -29s-29 13 -29 29z" />
    <glyph glyph-name="ldot.alt" unicode="&#xf828;" horiz-adv-x="235" 
d="M167 371c0 16 13 29 29 29s29 -13 29 -29s-13 -29 -29 -29s-29 13 -29 29zM70 20v720c0 13 10 20 20 20s20 -7 20 -20v-720c0 -13 -10 -20 -20 -20s-20 7 -20 20z" />
    <glyph glyph-name="Lslash" unicode="&#x141;" horiz-adv-x="554" 
d="M532 20c0 -10 -7 -20 -20 -20h-375c-11 0 -20 9 -20 20v292l-85 -69c-4 -3 -8 -4 -12 -4c-11 0 -20 10 -20 20c0 6 2 11 8 16l109 88v377c0 13 10 20 20 20s20 -7 20 -20v-344l194 157c4 3 8 4 12 4c11 0 20 -10 20 -20c0 -6 -2 -11 -8 -16l-218 -177v-304h355
c13 0 20 -10 20 -20z" />
    <glyph glyph-name="lslash" unicode="&#x142;" horiz-adv-x="249" 
d="M226 479c0 -5 -3 -11 -10 -16l-96 -62v-254c0 -40 15 -101 57 -118c10 -4 13 -11 13 -19c0 -10 -7 -20 -19 -20c-2 0 -5 0 -8 1c0 0 -6 2 -15 8c-49 32 -68 91 -68 148v228l-49 -32c-4 -2 -7 -3 -11 -3c-11 0 -20 10 -20 21c0 5 3 11 9 16l71 46v317c0 13 10 20 20 20
s20 -7 20 -20v-291l74 48c4 2 8 3 12 3c11 0 20 -10 20 -21z" />
    <glyph glyph-name="lslash.alt" unicode="&#xf83a;" horiz-adv-x="226" 
d="M80 20v355l-49 -32c-4 -2 -7 -3 -11 -3c-11 0 -20 10 -20 21c0 5 3 11 9 16l71 46v317c0 13 10 20 20 20s20 -7 20 -20v-291l74 48c4 2 8 3 12 3c11 0 20 -10 20 -21c0 -5 -3 -11 -10 -16l-96 -62v-381c0 -13 -10 -20 -20 -20s-20 7 -20 20z" />
    <glyph glyph-name="Nacute" unicode="&#x143;" horiz-adv-x="636" 
d="M556 20c0 -15 -8 -23 -18 -23c-6 0 -14 4 -19 13l-399 658v-648c0 -13 -10 -20 -20 -20s-20 7 -20 20v720c0 15 8 23 18 23c6 0 14 -4 19 -13l399 -658v648c0 13 10 20 20 20s20 -7 20 -20v-720zM422 939c0 -6 -2 -11 -8 -16l-109 -87c-4 -3 -8 -4 -12 -4
c-11 0 -20 10 -20 20c0 6 2 11 8 16l109 87c4 3 8 4 12 4c11 0 20 -10 20 -20z" />
    <glyph glyph-name="nacute" unicode="&#x144;" 
d="M440 20c0 -13 -10 -20 -20 -20s-20 7 -20 20v340c0 80 -65 145 -145 145s-145 -65 -145 -145v-340c0 -13 -10 -20 -20 -20s-20 7 -20 20v340c0 102 83 185 185 185s185 -83 185 -185v-340zM319 714c0 -6 -2 -11 -8 -16l-109 -87c-4 -3 -8 -4 -12 -4c-11 0 -20 10 -20 20
c0 6 2 11 8 16l109 87c4 3 8 4 12 4c11 0 20 -10 20 -20z" />
    <glyph glyph-name="nacute.alt" unicode="&#xf82a;" 
d="M319 714c0 -6 -2 -11 -8 -16l-109 -87c-4 -3 -8 -4 -12 -4c-11 0 -20 10 -20 20c0 6 2 11 8 16l109 87c4 3 8 4 12 4c11 0 20 -10 20 -20zM70 20v495c0 13 10 20 20 20s20 -7 20 -20v-40c34 42 86 70 145 70c102 0 185 -83 185 -185v-340c0 -13 -10 -20 -20 -20
s-20 7 -20 20v340c0 80 -65 145 -145 145s-145 -65 -145 -145v-340c0 -13 -10 -20 -20 -20s-20 7 -20 20z" />
    <glyph glyph-name="Ntilde" unicode="&#xd1;" horiz-adv-x="636" 
d="M556 20c0 -15 -8 -23 -18 -23c-6 0 -14 4 -19 13l-399 658v-648c0 -13 -10 -20 -20 -20s-20 7 -20 20v720c0 15 8 23 18 23c6 0 14 -4 19 -13l399 -658v648c0 13 10 20 20 20s20 -7 20 -20v-720zM439 905c0 -2 -1 -4 -1 -5c-14 -33 -40 -57 -78 -57c-43 0 -52 39 -84 39
c-36 0 -35 -42 -58 -42c-10 0 -21 8 -21 20c0 4 2 7 3 10c14 27 43 52 76 52c45 0 55 -39 84 -39c31 0 40 28 40 28c2 9 10 14 18 14c9 0 21 -7 21 -20z" />
    <glyph glyph-name="ntilde" unicode="&#xf1;" 
d="M440 20c0 -13 -10 -20 -20 -20s-20 7 -20 20v340c0 80 -65 145 -145 145s-145 -65 -145 -145v-340c0 -13 -10 -20 -20 -20s-20 7 -20 20v340c0 102 83 185 185 185s185 -83 185 -185v-340zM366 680c0 -2 -1 -4 -1 -5c-14 -33 -40 -57 -78 -57c-43 0 -52 39 -84 39
c-36 0 -35 -42 -58 -42c-10 0 -21 8 -21 20c0 4 2 7 3 10c14 27 43 52 76 52c45 0 55 -39 84 -39c31 0 40 28 40 28c2 9 10 14 18 14c9 0 21 -7 21 -20z" />
    <glyph glyph-name="ntilde.alt" unicode="&#xf829;" 
d="M366 680c0 -2 -1 -4 -1 -5c-14 -33 -40 -57 -78 -57c-43 0 -52 39 -84 39c-36 0 -35 -42 -58 -42c-10 0 -21 8 -21 20c0 4 2 7 3 10c14 27 43 52 76 52c45 0 55 -39 84 -39c31 0 40 28 40 28c2 9 10 14 18 14c9 0 21 -7 21 -20zM70 20v495c0 13 10 20 20 20s20 -7 20 -20
v-40c34 42 86 70 145 70c102 0 185 -83 185 -185v-340c0 -13 -10 -20 -20 -20s-20 7 -20 20v340c0 80 -65 145 -145 145s-145 -65 -145 -145v-340c0 -13 -10 -20 -20 -20s-20 7 -20 20z" />
    <glyph glyph-name="Ncommaaccent" unicode="&#x145;" horiz-adv-x="636" 
d="M556 20c0 -15 -8 -23 -18 -23c-6 0 -14 4 -19 13l-399 658v-648c0 -13 -10 -20 -20 -20s-20 7 -20 20v720c0 15 8 23 18 23c6 0 14 -4 19 -13l399 -658v648c0 13 10 20 20 20s20 -7 20 -20v-720zM350 -73c0 -75 -31 -121 -72 -159c-4 -3 -8 -4 -12 -4
c-11 0 -20 10 -20 20c0 6 2 12 8 16c0 0 5 4 12 11c22 25 44 51 44 116c0 13 10 20 20 20s20 -7 20 -20z" />
    <glyph glyph-name="ncommaaccent" unicode="&#x146;" 
d="M440 20c0 -13 -10 -20 -20 -20s-20 7 -20 20v340c0 80 -65 145 -145 145s-145 -65 -145 -145v-340c0 -13 -10 -20 -20 -20s-20 7 -20 20v340c0 102 83 185 185 185s185 -83 185 -185v-340zM277 -73c0 -75 -31 -121 -72 -159c-4 -3 -8 -4 -12 -4c-11 0 -20 10 -20 20
c0 6 2 12 8 16c0 0 5 4 12 11c22 25 44 51 44 116c0 13 10 20 20 20s20 -7 20 -20z" />
    <glyph glyph-name="ncommaaccent.alt" unicode="&#xf82b;" 
d="M277 -73c0 -75 -31 -121 -72 -159c-4 -3 -8 -4 -12 -4c-11 0 -20 10 -20 20c0 6 2 12 8 16c0 0 5 4 12 11c22 25 44 51 44 116c0 13 10 20 20 20s20 -7 20 -20zM70 20v495c0 13 10 20 20 20s20 -7 20 -20v-40c34 42 86 70 145 70c102 0 185 -83 185 -185v-340
c0 -13 -10 -20 -20 -20s-20 7 -20 20v340c0 80 -65 145 -145 145s-145 -65 -145 -145v-340c0 -13 -10 -20 -20 -20s-20 7 -20 20z" />
    <glyph glyph-name="Ncaron" unicode="&#x147;" horiz-adv-x="636" 
d="M556 20c0 -15 -8 -23 -18 -23c-6 0 -14 4 -19 13l-399 658v-648c0 -13 -10 -20 -20 -20s-20 7 -20 20v720c0 15 8 23 18 23c6 0 14 -4 19 -13l399 -658v648c0 13 10 20 20 20s20 -7 20 -20v-720zM427 939c0 -6 -2 -11 -7 -15l-79 -77c-4 -4 -9 -5 -13 -5
c-5 0 -10 1 -14 5l-79 77c-5 4 -7 9 -7 15c0 10 10 20 21 20c5 0 10 -2 13 -6l65 -63l66 63c3 4 8 6 13 6c11 0 21 -10 21 -20z" />
    <glyph glyph-name="ncaron" unicode="&#x148;" 
d="M440 20c0 -13 -10 -20 -20 -20s-20 7 -20 20v340c0 80 -65 145 -145 145s-145 -65 -145 -145v-340c0 -13 -10 -20 -20 -20s-20 7 -20 20v340c0 102 83 185 185 185s185 -83 185 -185v-340zM344 714c0 -6 -2 -11 -7 -15l-79 -77c-4 -4 -9 -5 -13 -5c-5 0 -10 1 -14 5
l-79 77c-5 4 -7 9 -7 15c0 10 10 20 21 20c5 0 10 -2 13 -6l65 -63l66 63c3 4 8 6 13 6c11 0 21 -10 21 -20z" />
    <glyph glyph-name="ncaron.alt" unicode="&#xf82c;" 
d="M344 714c0 -6 -2 -11 -7 -15l-79 -77c-4 -4 -9 -5 -13 -5c-5 0 -10 1 -14 5l-79 77c-5 4 -7 9 -7 15c0 10 10 20 21 20c5 0 10 -2 13 -6l65 -63l66 63c3 4 8 6 13 6c11 0 21 -10 21 -20zM70 20v495c0 13 10 20 20 20s20 -7 20 -20v-40c34 42 86 70 145 70
c102 0 185 -83 185 -185v-340c0 -13 -10 -20 -20 -20s-20 7 -20 20v340c0 80 -65 145 -145 145s-145 -65 -145 -145v-340c0 -13 -10 -20 -20 -20s-20 7 -20 20z" />
    <glyph glyph-name="Ograve" unicode="&#xd2;" horiz-adv-x="616" 
d="M556 238c0 -137 -111 -248 -248 -248s-248 111 -248 248v284c0 137 111 248 248 248s248 -111 248 -248v-284zM516 238v284c0 115 -93 208 -208 208s-208 -93 -208 -208v-284c0 -115 93 -208 208 -208s208 93 208 208zM382 852c0 -10 -9 -20 -20 -20c-4 0 -8 1 -12 4
l-109 87c-6 5 -8 10 -8 16c0 10 9 20 20 20c4 0 8 -1 12 -4l109 -87c6 -5 8 -10 8 -16z" />
    <glyph glyph-name="ograve" unicode="&#xf2;" horiz-adv-x="500" 
d="M435 175c0 -102 -83 -185 -185 -185s-185 83 -185 185v185c0 102 83 185 185 185s185 -83 185 -185v-185zM395 175v185c0 80 -65 145 -145 145s-145 -65 -145 -145v-185c0 -80 65 -145 145 -145s145 65 145 145zM319 627c0 -10 -9 -20 -20 -20c-4 0 -8 1 -12 4l-109 87
c-6 5 -8 10 -8 16c0 10 9 20 20 20c4 0 8 -1 12 -4l109 -87c6 -5 8 -10 8 -16z" />
    <glyph glyph-name="Oacute" unicode="&#xd3;" horiz-adv-x="616" 
d="M556 238c0 -137 -111 -248 -248 -248s-248 111 -248 248v284c0 137 111 248 248 248s248 -111 248 -248v-284zM516 238v284c0 115 -93 208 -208 208s-208 -93 -208 -208v-284c0 -115 93 -208 208 -208s208 93 208 208zM382 939c0 -6 -2 -11 -8 -16l-109 -87
c-4 -3 -8 -4 -12 -4c-11 0 -20 10 -20 20c0 6 2 11 8 16l109 87c4 3 8 4 12 4c11 0 20 -10 20 -20z" />
    <glyph glyph-name="oacute" unicode="&#xf3;" horiz-adv-x="500" 
d="M435 175c0 -102 -83 -185 -185 -185s-185 83 -185 185v185c0 102 83 185 185 185s185 -83 185 -185v-185zM395 175v185c0 80 -65 145 -145 145s-145 -65 -145 -145v-185c0 -80 65 -145 145 -145s145 65 145 145zM319 714c0 -6 -2 -11 -8 -16l-109 -87c-4 -3 -8 -4 -12 -4
c-11 0 -20 10 -20 20c0 6 2 11 8 16l109 87c4 3 8 4 12 4c11 0 20 -10 20 -20z" />
    <glyph glyph-name="Ocircumflex" unicode="&#xd4;" horiz-adv-x="616" 
d="M556 238c0 -137 -111 -248 -248 -248s-248 111 -248 248v284c0 137 111 248 248 248s248 -111 248 -248v-284zM516 238v284c0 115 -93 208 -208 208s-208 -93 -208 -208v-284c0 -115 93 -208 208 -208s208 93 208 208zM407 862c0 -12 -11 -20 -21 -20c-6 0 -10 3 -13 6
l-65 63l-66 -63c-3 -3 -7 -6 -13 -6c-10 0 -21 8 -21 20c0 7 5 12 7 14l79 77c3 3 8 6 14 6c7 0 11 -4 13 -6l79 -77c2 -2 7 -7 7 -14z" />
    <glyph glyph-name="ocircumflex" unicode="&#xf4;" horiz-adv-x="500" 
d="M435 175c0 -102 -83 -185 -185 -185s-185 83 -185 185v185c0 102 83 185 185 185s185 -83 185 -185v-185zM395 175v185c0 80 -65 145 -145 145s-145 -65 -145 -145v-185c0 -80 65 -145 145 -145s145 65 145 145zM344 637c0 -12 -11 -20 -21 -20c-6 0 -10 3 -13 6l-65 63
l-66 -63c-3 -3 -7 -6 -13 -6c-10 0 -21 8 -21 20c0 7 5 12 7 14l79 77c3 3 8 6 14 6c7 0 11 -4 13 -6l79 -77c2 -2 7 -7 7 -14z" />
    <glyph glyph-name="Otilde" unicode="&#xd5;" horiz-adv-x="616" 
d="M556 238c0 -137 -111 -248 -248 -248s-248 111 -248 248v284c0 137 111 248 248 248s248 -111 248 -248v-284zM516 238v284c0 115 -93 208 -208 208s-208 -93 -208 -208v-284c0 -115 93 -208 208 -208s208 93 208 208zM429 905c0 -2 -1 -4 -1 -5c-14 -33 -40 -57 -78 -57
c-43 0 -52 39 -84 39c-36 0 -35 -42 -58 -42c-10 0 -21 8 -21 20c0 4 2 7 3 10c14 27 43 52 76 52c45 0 55 -39 84 -39c31 0 40 28 40 28c2 9 10 14 18 14c9 0 21 -7 21 -20z" />
    <glyph glyph-name="otilde" unicode="&#xf5;" horiz-adv-x="500" 
d="M435 175c0 -102 -83 -185 -185 -185s-185 83 -185 185v185c0 102 83 185 185 185s185 -83 185 -185v-185zM395 175v185c0 80 -65 145 -145 145s-145 -65 -145 -145v-185c0 -80 65 -145 145 -145s145 65 145 145zM366 680c0 -2 -1 -4 -1 -5c-14 -33 -40 -57 -78 -57
c-43 0 -52 39 -84 39c-36 0 -35 -42 -58 -42c-10 0 -21 8 -21 20c0 4 2 7 3 10c14 27 43 52 76 52c45 0 55 -39 84 -39c31 0 40 28 40 28c2 9 10 14 18 14c9 0 21 -7 21 -20z" />
    <glyph glyph-name="Odieresis" unicode="&#xd6;" horiz-adv-x="616" 
d="M556 238c0 -137 -111 -248 -248 -248s-248 111 -248 248v284c0 137 111 248 248 248s248 -111 248 -248v-284zM516 238v284c0 115 -93 208 -208 208s-208 -93 -208 -208v-284c0 -115 93 -208 208 -208s208 93 208 208zM206 870c0 17 14 31 31 31s31 -14 31 -31
s-14 -31 -31 -31s-31 14 -31 31zM347 870c0 17 14 31 31 31s31 -14 31 -31s-14 -31 -31 -31s-31 14 -31 31z" />
    <glyph glyph-name="odieresis" unicode="&#xf6;" horiz-adv-x="500" 
d="M435 175c0 -102 -83 -185 -185 -185s-185 83 -185 185v185c0 102 83 185 185 185s185 -83 185 -185v-185zM395 175v185c0 80 -65 145 -145 145s-145 -65 -145 -145v-185c0 -80 65 -145 145 -145s145 65 145 145zM143 645c0 17 14 31 31 31s31 -14 31 -31s-14 -31 -31 -31
s-31 14 -31 31zM284 645c0 17 14 31 31 31s31 -14 31 -31s-14 -31 -31 -31s-31 14 -31 31z" />
    <glyph glyph-name="Omacron" unicode="&#x14c;" horiz-adv-x="616" 
d="M556 238c0 -137 -111 -248 -248 -248s-248 111 -248 248v284c0 137 111 248 248 248s248 -111 248 -248v-284zM516 238v284c0 115 -93 208 -208 208s-208 -93 -208 -208v-284c0 -115 93 -208 208 -208s208 93 208 208zM406 882c0 -8 -4 -20 -19 -20h-158
c-13 0 -20 11 -20 20s7 20 20 20h158c15 0 19 -12 19 -20z" />
    <glyph glyph-name="omacron" unicode="&#x14d;" horiz-adv-x="500" 
d="M435 175c0 -102 -83 -185 -185 -185s-185 83 -185 185v185c0 102 83 185 185 185s185 -83 185 -185v-185zM395 175v185c0 80 -65 145 -145 145s-145 -65 -145 -145v-185c0 -80 65 -145 145 -145s145 65 145 145zM343 657c0 -8 -4 -20 -19 -20h-158c-13 0 -20 11 -20 20
s7 20 20 20h158c15 0 19 -12 19 -20z" />
    <glyph glyph-name="Obreve" unicode="&#x14e;" horiz-adv-x="616" 
d="M556 238c0 -137 -111 -248 -248 -248s-248 111 -248 248v284c0 137 111 248 248 248s248 -111 248 -248v-284zM516 238v284c0 115 -93 208 -208 208s-208 -93 -208 -208v-284c0 -115 93 -208 208 -208s208 93 208 208zM407 941c0 -55 -44 -99 -99 -99s-99 44 -99 99
c0 13 11 20 20 20s20 -7 20 -20c0 -33 26 -59 59 -59s59 26 59 59c0 13 11 20 20 20s20 -7 20 -20z" />
    <glyph glyph-name="obreve" unicode="&#x14f;" horiz-adv-x="500" 
d="M435 175c0 -102 -83 -185 -185 -185s-185 83 -185 185v185c0 102 83 185 185 185s185 -83 185 -185v-185zM395 175v185c0 80 -65 145 -145 145s-145 -65 -145 -145v-185c0 -80 65 -145 145 -145s145 65 145 145zM344 716c0 -55 -44 -99 -99 -99s-99 44 -99 99
c0 13 11 20 20 20s20 -7 20 -20c0 -33 26 -59 59 -59s59 26 59 59c0 13 11 20 20 20s20 -7 20 -20z" />
    <glyph glyph-name="Ohungarumlaut" unicode="&#x150;" horiz-adv-x="616" 
d="M556 238c0 -137 -111 -248 -248 -248s-248 111 -248 248v284c0 137 111 248 248 248s248 -111 248 -248v-284zM516 238v284c0 115 -93 208 -208 208s-208 -93 -208 -208v-284c0 -115 93 -208 208 -208s208 93 208 208zM492 939c0 -6 -3 -12 -8 -16l-109 -87
c-5 -4 -10 -4 -13 -4c-11 0 -20 9 -20 20c0 6 3 12 8 16l109 87c5 4 10 4 13 4c11 0 20 -9 20 -20zM353 939c0 -6 -3 -12 -8 -16l-109 -87c-5 -4 -10 -4 -13 -4c-11 0 -20 9 -20 20c0 6 3 12 8 16l109 87c5 4 10 4 13 4c11 0 20 -9 20 -20z" />
    <glyph glyph-name="ohungarumlaut" unicode="&#x151;" horiz-adv-x="500" 
d="M435 175c0 -102 -83 -185 -185 -185s-185 83 -185 185v185c0 102 83 185 185 185s185 -83 185 -185v-185zM395 175v185c0 80 -65 145 -145 145s-145 -65 -145 -145v-185c0 -80 65 -145 145 -145s145 65 145 145zM429 714c0 -6 -3 -12 -8 -16l-109 -87
c-5 -4 -10 -4 -13 -4c-11 0 -20 9 -20 20c0 6 3 12 8 16l109 87c5 4 10 4 13 4c11 0 20 -9 20 -20zM290 714c0 -6 -3 -12 -8 -16l-109 -87c-5 -4 -10 -4 -13 -4c-11 0 -20 9 -20 20c0 6 3 12 8 16l109 87c5 4 10 4 13 4c11 0 20 -9 20 -20z" />
    <glyph glyph-name="Oslash" unicode="&#xd8;" horiz-adv-x="616" 
d="M556 750c0 -3 -1 -7 -3 -11l-44 -71c30 -41 47 -92 47 -146v-284c0 -137 -111 -248 -248 -248c-67 0 -128 27 -173 71l-38 -62c-4 -7 -10 -9 -16 -9c-11 0 -21 8 -21 20c0 3 1 7 3 11l44 71c-29 41 -47 92 -47 146v284c0 137 111 248 248 248c68 0 129 -27 174 -71l37 62
c5 7 11 9 17 9c10 0 20 -8 20 -20zM460 664c-38 41 -92 66 -152 66c-115 0 -208 -93 -208 -208v-284c0 -40 11 -77 31 -108zM516 238v284c0 40 -11 77 -30 108l-329 -534c37 -41 91 -66 151 -66c115 0 208 93 208 208z" />
    <glyph glyph-name="oslash" unicode="&#xf8;" horiz-adv-x="501" 
d="M435 175c0 -102 -83 -185 -185 -185c-47 0 -91 18 -124 47l-24 -38c-15 -23 -48 0 -33 22l30 47c-21 31 -34 67 -34 107v185c0 102 83 185 185 185c48 0 91 -18 124 -47l25 38c14 23 47 0 33 -22l-31 -47c22 -31 34 -67 34 -107v-185zM352 463c-26 26 -62 42 -102 42
c-80 0 -145 -65 -145 -145v-185c0 -25 7 -49 18 -69zM395 175v185c0 25 -6 49 -17 69l-230 -357c27 -26 63 -42 102 -42c80 0 145 65 145 145z" />
    <glyph glyph-name="Oslashacute" unicode="&#x1fe;" horiz-adv-x="616" 
d="M556 750c0 -3 -1 -7 -3 -11l-44 -71c30 -41 47 -92 47 -146v-284c0 -137 -111 -248 -248 -248c-67 0 -128 27 -173 71l-38 -62c-4 -7 -10 -9 -16 -9c-11 0 -21 8 -21 20c0 3 1 7 3 11l44 71c-29 41 -47 92 -47 146v284c0 137 111 248 248 248c68 0 129 -27 174 -71l37 62
c5 7 11 9 17 9c10 0 20 -8 20 -20zM460 664c-38 41 -92 66 -152 66c-115 0 -208 -93 -208 -208v-284c0 -40 11 -77 31 -108zM516 238v284c0 40 -11 77 -30 108l-329 -534c37 -41 91 -66 151 -66c115 0 208 93 208 208zM382 939c0 -6 -2 -11 -8 -16l-109 -87
c-4 -3 -8 -4 -12 -4c-11 0 -20 10 -20 20c0 6 2 11 8 16l109 87c4 3 8 4 12 4c11 0 20 -10 20 -20z" />
    <glyph glyph-name="oslashacute" unicode="&#x1ff;" horiz-adv-x="501" 
d="M435 175c0 -102 -83 -185 -185 -185c-47 0 -91 18 -124 47l-24 -38c-15 -23 -48 0 -33 22l30 47c-21 31 -34 67 -34 107v185c0 102 83 185 185 185c48 0 91 -18 124 -47l25 38c14 23 47 0 33 -22l-31 -47c22 -31 34 -67 34 -107v-185zM352 463c-26 26 -62 42 -102 42
c-80 0 -145 -65 -145 -145v-185c0 -25 7 -49 18 -69zM395 175v185c0 25 -6 49 -17 69l-230 -357c27 -26 63 -42 102 -42c80 0 145 65 145 145zM324 714c0 -6 -2 -11 -8 -16l-109 -87c-4 -3 -8 -4 -12 -4c-11 0 -20 10 -20 20c0 6 2 11 8 16l109 87c4 3 8 4 12 4
c11 0 20 -10 20 -20z" />
    <glyph glyph-name="OE" unicode="&#x152;" horiz-adv-x="991" 
d="M931 20c0 -10 -7 -20 -20 -20h-375c-11 0 -20 9 -20 20v83c-44 -68 -121 -113 -208 -113c-137 0 -248 111 -248 248v284c0 137 111 248 248 248c87 0 164 -45 208 -113v83c0 11 9 20 20 20h375c13 0 20 -10 20 -20s-7 -20 -20 -20h-355v-302h325c13 0 20 -10 20 -20
s-7 -20 -20 -20h-325v-338h355c13 0 20 -10 20 -20zM516 238v284c0 115 -93 208 -208 208s-208 -93 -208 -208v-284c0 -115 93 -208 208 -208s208 93 208 208z" />
    <glyph glyph-name="oe" unicode="&#x153;" horiz-adv-x="810" 
d="M760 290c0 -11 -9 -20 -20 -20h-310v-95c0 -79 73 -145 155 -145c40 0 96 16 121 51c5 7 11 9 17 9c10 0 20 -9 20 -20c0 -9 -8 -17 -13 -23c-37 -39 -92 -57 -145 -57c-72 0 -141 42 -174 103c-30 -61 -93 -103 -166 -103c-102 0 -185 83 -185 185v185
c0 102 83 185 185 185c72 0 134 -41 165 -101c31 60 93 101 165 101c102 0 185 -83 185 -185v-70zM720 310v50c0 80 -65 145 -145 145s-145 -65 -145 -145v-50h290zM390 175v185c0 80 -65 145 -145 145s-145 -65 -145 -145v-185c0 -80 65 -145 145 -145s145 65 145 145z" />
    <glyph glyph-name="Thorn" unicode="&#xde;" horiz-adv-x="567" 
d="M517 402c0 -132 -107 -239 -239 -239h-158v-143c0 -27 -40 -27 -40 0v720c0 27 40 27 40 0v-100h158c132 0 239 -107 239 -238zM476 402l1 -1c0 110 -89 199 -199 199h-158v-397h158c110 0 198 89 198 199z" />
    <glyph glyph-name="thorn" unicode="&#xfe;" horiz-adv-x="500" 
d="M440 175c0 -102 -83 -185 -185 -185c-59 0 -111 27 -145 70v-240c0 -27 -40 -27 -40 0v920c0 27 40 27 40 0v-265c34 43 86 70 145 70c102 0 185 -83 185 -185v-185zM400 175v185c0 80 -65 145 -145 145s-145 -65 -145 -145v-185c0 -80 65 -145 145 -145s145 65 145 145z
" />
    <glyph glyph-name="Racute" unicode="&#x154;" horiz-adv-x="568" 
d="M518 20c0 -11 -10 -20 -21 -20c-6 0 -12 2 -16 9l-175 276c-7 -1 -20 -2 -30 -2h-156v-263c0 -13 -10 -20 -20 -20s-20 7 -20 20v720c0 11 9 20 20 20h178c132 0 239 -106 239 -238c0 -107 -72 -198 -169 -228l167 -263c2 -4 3 -8 3 -11zM120 323h158
c110 0 199 89 199 199s-89 198 -199 198h-158v-397zM358 939c0 -6 -2 -11 -8 -16l-109 -87c-4 -3 -8 -4 -12 -4c-11 0 -20 10 -20 20c0 6 2 11 8 16l109 87c4 3 8 4 12 4c11 0 20 -10 20 -20z" />
    <glyph glyph-name="racute" unicode="&#x155;" horiz-adv-x="379" 
d="M359 485c0 -11 -10 -20 -21 -20c-9 0 -13 6 -20 11c-23 18 -53 29 -83 29c-79 0 -125 -58 -125 -152v-333c0 -13 -10 -20 -20 -20s-20 7 -20 20v333c0 107 56 192 165 192c39 0 89 -17 117 -46c5 -5 7 -9 7 -14zM269 714c0 -6 -2 -11 -8 -16l-109 -87c-4 -3 -8 -4 -12 -4
c-11 0 -20 10 -20 20c0 6 2 11 8 16l109 87c4 3 8 4 12 4c11 0 20 -10 20 -20z" />
    <glyph glyph-name="racute.alt" unicode="&#xf82d;" horiz-adv-x="315" 
d="M269 714c0 -6 -2 -11 -8 -16l-109 -87c-4 -3 -8 -4 -12 -4c-11 0 -20 10 -20 20c0 6 2 11 8 16l109 87c4 3 8 4 12 4c11 0 20 -10 20 -20zM110 477c25 38 69 68 125 68c38 0 70 -9 70 -29c0 -11 -9 -19 -20 -19s-24 8 -50 8c-79 0 -125 -58 -125 -152v-333
c0 -13 -10 -20 -20 -20s-20 7 -20 20v495c0 13 10 20 20 20s20 -7 20 -20v-38z" />
    <glyph glyph-name="Rcommaaccent" unicode="&#x156;" horiz-adv-x="568" 
d="M518 20c0 -11 -10 -20 -21 -20c-6 0 -12 2 -16 9l-175 276c-7 -1 -20 -2 -30 -2h-156v-263c0 -13 -10 -20 -20 -20s-20 7 -20 20v720c0 11 9 20 20 20h178c132 0 239 -106 239 -238c0 -107 -72 -198 -169 -228l167 -263c2 -4 3 -8 3 -11zM120 323h158
c110 0 199 89 199 199s-89 198 -199 198h-158v-397zM326 -73c0 -75 -31 -121 -72 -159c-4 -3 -8 -4 -12 -4c-11 0 -20 10 -20 20c0 6 2 12 8 16c0 0 5 4 12 11c22 25 44 51 44 116c0 13 10 20 20 20s20 -7 20 -20z" />
    <glyph glyph-name="rcommaaccent" unicode="&#x157;" horiz-adv-x="379" 
d="M359 485c0 -11 -10 -20 -21 -20c-9 0 -13 6 -20 11c-23 18 -53 29 -83 29c-79 0 -125 -58 -125 -152v-333c0 -13 -10 -20 -20 -20s-20 7 -20 20v333c0 107 56 192 165 192c39 0 89 -17 117 -46c5 -5 7 -9 7 -14zM236 -73c0 -75 -31 -121 -72 -159c-4 -3 -8 -4 -12 -4
c-11 0 -20 10 -20 20c0 6 2 12 8 16c0 0 5 4 12 11c22 25 44 51 44 116c0 13 10 20 20 20s20 -7 20 -20z" />
    <glyph glyph-name="rcommaaccent.alt" unicode="&#xf82e;" horiz-adv-x="315" 
d="M216 -73c0 -75 -31 -121 -72 -159c-4 -3 -8 -4 -12 -4c-11 0 -20 10 -20 20c0 6 2 12 8 16c0 0 5 4 12 11c22 25 44 51 44 116c0 13 10 20 20 20s20 -7 20 -20zM110 477c25 38 69 68 125 68c38 0 70 -9 70 -29c0 -11 -9 -19 -20 -19s-24 8 -50 8
c-79 0 -125 -58 -125 -152v-333c0 -13 -10 -20 -20 -20s-20 7 -20 20v495c0 13 10 20 20 20s20 -7 20 -20v-38z" />
    <glyph glyph-name="Rcaron" unicode="&#x158;" horiz-adv-x="568" 
d="M518 20c0 -11 -10 -20 -21 -20c-6 0 -12 2 -16 9l-175 276c-7 -1 -20 -2 -30 -2h-156v-263c0 -13 -10 -20 -20 -20s-20 7 -20 20v720c0 11 9 20 20 20h178c132 0 239 -106 239 -238c0 -107 -72 -198 -169 -228l167 -263c2 -4 3 -8 3 -11zM120 323h158
c110 0 199 89 199 199s-89 198 -199 198h-158v-397zM383 939c0 -6 -2 -11 -7 -15l-79 -77c-4 -4 -9 -5 -13 -5c-5 0 -10 1 -14 5l-79 77c-5 4 -7 9 -7 15c0 10 10 20 21 20c5 0 10 -2 13 -6l65 -63l66 63c3 4 8 6 13 6c11 0 21 -10 21 -20z" />
    <glyph glyph-name="rcaron" unicode="&#x159;" horiz-adv-x="379" 
d="M359 485c0 -11 -10 -20 -21 -20c-9 0 -13 6 -20 11c-23 18 -53 29 -83 29c-79 0 -125 -58 -125 -152v-333c0 -13 -10 -20 -20 -20s-20 7 -20 20v333c0 107 56 192 165 192c39 0 89 -17 117 -46c5 -5 7 -9 7 -14zM304 714c0 -6 -2 -11 -7 -15l-79 -77c-4 -4 -9 -5 -13 -5
c-5 0 -10 1 -14 5l-79 77c-5 4 -7 9 -7 15c0 10 10 20 21 20c5 0 10 -2 13 -6l65 -63l66 63c3 4 8 6 13 6c11 0 21 -10 21 -20z" />
    <glyph glyph-name="rcaron.alt" unicode="&#xf82f;" horiz-adv-x="315" 
d="M282 714c0 -6 -2 -11 -7 -15l-79 -77c-4 -4 -9 -5 -13 -5c-5 0 -10 1 -14 5l-79 77c-5 4 -7 9 -7 15c0 10 10 20 21 20c5 0 10 -2 13 -6l65 -63l66 63c3 4 8 6 13 6c11 0 21 -10 21 -20zM110 477c25 38 69 68 125 68c38 0 70 -9 70 -29c0 -11 -9 -19 -20 -19s-24 8 -50 8
c-79 0 -125 -58 -125 -152v-333c0 -13 -10 -20 -20 -20s-20 7 -20 20v495c0 13 10 20 20 20s20 -7 20 -20v-38z" />
    <glyph glyph-name="Sacute" unicode="&#x15a;" horiz-adv-x="570" 
d="M510 191c0 -124 -112 -201 -245 -201c-68 0 -160 29 -201 89c-3 4 -4 8 -4 12c0 11 10 20 20 20c6 0 12 -3 16 -9c0 0 3 -4 9 -10c41 -42 102 -62 160 -62c121 0 205 68 205 161c0 229 -406 146 -406 392c0 118 103 187 211 187c75 0 163 -40 209 -102c3 -4 4 -8 4 -12
c0 -11 -9 -20 -20 -20c-6 0 -11 2 -16 8c0 0 -4 5 -11 13c-43 44 -103 73 -166 73c-94 0 -171 -58 -171 -147c0 -206 406 -126 406 -392zM359 939c0 -6 -2 -11 -8 -16l-109 -87c-4 -3 -8 -4 -12 -4c-11 0 -20 10 -20 20c0 6 2 11 8 16l109 87c4 3 8 4 12 4
c11 0 20 -10 20 -20z" />
    <glyph glyph-name="sacute" unicode="&#x15b;" horiz-adv-x="424" 
d="M374 138c0 -90 -81 -148 -176 -148c-48 0 -115 21 -144 65c-3 4 -4 8 -4 11c0 11 10 20 21 20s15 -8 21 -15c27 -28 68 -41 106 -41c81 0 136 48 136 108c0 152 -281 98 -281 274c0 87 76 133 152 133c53 0 115 -28 144 -74c3 -4 4 -8 4 -11c0 -11 -11 -20 -21 -20
c-12 0 -16 9 -23 17c-26 30 -63 48 -104 48c-63 0 -112 -36 -112 -93c0 -136 281 -85 281 -274zM286 714c0 -6 -2 -11 -8 -16l-109 -87c-4 -3 -8 -4 -12 -4c-11 0 -20 10 -20 20c0 6 2 11 8 16l109 87c4 3 8 4 12 4c11 0 20 -10 20 -20z" />
    <glyph glyph-name="Scedilla" unicode="&#x15e;" horiz-adv-x="570" 
d="M333 -116c0 -40 -33 -73 -73 -73c-13 0 -20 11 -20 20s7 20 20 20c18 0 33 15 33 33s-15 32 -33 32c-12 0 -24 12 -19 25l17 49c-67 2 -155 31 -194 89c-3 4 -4 8 -4 12c0 11 10 20 20 20c6 0 12 -3 16 -9c0 0 3 -4 9 -10c41 -42 102 -62 160 -62c121 0 205 68 205 161
c0 229 -406 146 -406 392c0 118 103 187 211 187c75 0 163 -40 209 -102c3 -4 4 -8 4 -12c0 -11 -9 -20 -20 -20c-6 0 -11 2 -16 8c0 0 -4 5 -11 13c-43 44 -103 73 -166 73c-94 0 -171 -58 -171 -147c0 -206 406 -126 406 -392c0 -113 -93 -187 -210 -199l-13 -40
c27 -11 46 -37 46 -68z" />
    <glyph glyph-name="scedilla" unicode="&#x15f;" horiz-adv-x="424" 
d="M260 -116c0 -40 -33 -73 -73 -73c-13 0 -20 11 -20 20s7 20 20 20c18 0 33 15 33 33s-15 32 -33 32c-12 0 -24 12 -19 25l17 50c-46 3 -105 23 -131 64c-3 4 -4 8 -4 11c0 11 10 20 21 20s15 -8 21 -15c27 -28 68 -41 106 -41c81 0 136 48 136 108
c0 152 -281 98 -281 274c0 87 76 133 152 133c53 0 115 -28 144 -74c3 -4 4 -8 4 -11c0 -11 -11 -20 -21 -20c-12 0 -16 9 -23 17c-26 30 -63 48 -104 48c-63 0 -112 -36 -112 -93c0 -136 281 -85 281 -274c0 -81 -65 -136 -147 -146l-13 -40c27 -11 46 -37 46 -68z" />
    <glyph glyph-name="Scaron" unicode="&#x160;" horiz-adv-x="570" 
d="M510 191c0 -124 -112 -201 -245 -201c-68 0 -160 29 -201 89c-3 4 -4 8 -4 12c0 11 10 20 20 20c6 0 12 -3 16 -9c0 0 3 -4 9 -10c41 -42 102 -62 160 -62c121 0 205 68 205 161c0 229 -406 146 -406 392c0 118 103 187 211 187c75 0 163 -40 209 -102c3 -4 4 -8 4 -12
c0 -11 -9 -20 -20 -20c-6 0 -11 2 -16 8c0 0 -4 5 -11 13c-43 44 -103 73 -166 73c-94 0 -171 -58 -171 -147c0 -206 406 -126 406 -392zM384 939c0 -6 -2 -11 -7 -15l-79 -77c-4 -4 -9 -5 -13 -5c-5 0 -10 1 -14 5l-79 77c-5 4 -7 9 -7 15c0 10 10 20 21 20
c5 0 10 -2 13 -6l65 -63l66 63c3 4 8 6 13 6c11 0 21 -10 21 -20z" />
    <glyph glyph-name="scaron" unicode="&#x161;" horiz-adv-x="424" 
d="M374 138c0 -90 -81 -148 -176 -148c-48 0 -115 21 -144 65c-3 4 -4 8 -4 11c0 11 10 20 21 20s15 -8 21 -15c27 -28 68 -41 106 -41c81 0 136 48 136 108c0 152 -281 98 -281 274c0 87 76 133 152 133c53 0 115 -28 144 -74c3 -4 4 -8 4 -11c0 -11 -11 -20 -21 -20
c-12 0 -16 9 -23 17c-26 30 -63 48 -104 48c-63 0 -112 -36 -112 -93c0 -136 281 -85 281 -274zM311 714c0 -6 -2 -11 -7 -15l-79 -77c-4 -4 -9 -5 -13 -5c-5 0 -10 1 -14 5l-79 77c-5 4 -7 9 -7 15c0 10 10 20 21 20c5 0 10 -2 13 -6l65 -63l66 63c3 4 8 6 13 6
c11 0 21 -10 21 -20z" />
    <glyph glyph-name="Scommaaccent" unicode="&#x218;" horiz-adv-x="570" 
d="M510 191c0 -124 -112 -201 -245 -201c-68 0 -160 29 -201 89c-3 4 -4 8 -4 12c0 11 10 20 20 20c6 0 12 -3 16 -9c0 0 3 -4 9 -10c41 -42 102 -62 160 -62c121 0 205 68 205 161c0 229 -406 146 -406 392c0 118 103 187 211 187c75 0 163 -40 209 -102c3 -4 4 -8 4 -12
c0 -11 -9 -20 -20 -20c-6 0 -11 2 -16 8c0 0 -4 5 -11 13c-43 44 -103 73 -166 73c-94 0 -171 -58 -171 -147c0 -206 406 -126 406 -392zM302 -73c0 -75 -31 -121 -72 -159c-4 -3 -8 -4 -12 -4c-11 0 -20 10 -20 20c0 6 2 12 8 16c0 0 5 4 12 11c22 25 44 51 44 116
c0 13 10 20 20 20s20 -7 20 -20z" />
    <glyph glyph-name="scommaaccent" unicode="&#x219;" horiz-adv-x="424" 
d="M374 138c0 -90 -81 -148 -176 -148c-48 0 -115 21 -144 65c-3 4 -4 8 -4 11c0 11 10 20 21 20s15 -8 21 -15c27 -28 68 -41 106 -41c81 0 136 48 136 108c0 152 -281 98 -281 274c0 87 76 133 152 133c53 0 115 -28 144 -74c3 -4 4 -8 4 -11c0 -11 -11 -20 -21 -20
c-12 0 -16 9 -23 17c-26 30 -63 48 -104 48c-63 0 -112 -36 -112 -93c0 -136 281 -85 281 -274zM228 -73c0 -75 -31 -121 -72 -159c-4 -3 -8 -4 -12 -4c-11 0 -20 10 -20 20c0 6 2 12 8 16c0 0 5 4 12 11c22 25 44 51 44 116c0 13 10 20 20 20s20 -7 20 -20z" />
    <glyph glyph-name="Tcommaaccent" unicode="&#x162;" horiz-adv-x="540" 
d="M530 740c0 -10 -7 -20 -20 -20h-220v-700c0 -13 -10 -20 -20 -20s-20 7 -20 20v700h-220c-13 0 -20 10 -20 20s7 20 20 20h480c13 0 20 -10 20 -20zM290 -73c0 -75 -31 -121 -72 -159c-4 -3 -8 -4 -12 -4c-11 0 -20 10 -20 20c0 6 2 12 8 16c0 0 5 4 12 11
c22 25 44 51 44 116c0 13 10 20 20 20s20 -7 20 -20z" />
    <glyph glyph-name="tcommaaccent" unicode="&#x163;" horiz-adv-x="409" 
d="M389 45c0 -9 -9 -15 -16 -21c-29 -21 -64 -34 -100 -34c-83 0 -142 57 -142 131v374h-101c-13 0 -20 10 -20 20s7 20 20 20h101v137c0 13 10 20 20 20s20 -7 20 -20v-137h187c13 0 20 -10 20 -20s-7 -20 -20 -20h-187v-374c0 -50 39 -91 102 -91c27 0 61 12 81 31
c5 4 9 5 14 5c11 0 21 -10 21 -21zM266 -73c0 -75 -31 -121 -72 -159c-4 -3 -8 -4 -12 -4c-11 0 -20 10 -20 20c0 6 2 12 8 16c0 0 5 4 12 11c22 25 44 51 44 116c0 13 10 20 20 20s20 -7 20 -20z" />
    <glyph glyph-name="tcommaaccent.alt" unicode="&#xf830;" horiz-adv-x="392" 
d="M212 -73c0 -75 -31 -121 -72 -159c-4 -3 -8 -4 -12 -4c-11 0 -20 10 -20 20c0 6 2 12 8 16c0 0 5 4 12 11c22 25 44 51 44 116c0 13 10 20 20 20s20 -7 20 -20zM211 495v-475c0 -13 -10 -20 -20 -20s-20 7 -20 20v475h-131c-13 0 -20 10 -20 20s7 20 20 20h131v137
c0 13 10 20 20 20s20 -7 20 -20v-137h141c13 0 20 -10 20 -20s-7 -20 -20 -20h-141z" />
    <glyph glyph-name="Tcaron" unicode="&#x164;" horiz-adv-x="540" 
d="M530 740c0 -10 -7 -20 -20 -20h-220v-700c0 -13 -10 -20 -20 -20s-20 7 -20 20v700h-220c-13 0 -20 10 -20 20s7 20 20 20h480c13 0 20 -10 20 -20zM369 939c0 -6 -2 -11 -7 -15l-79 -77c-4 -4 -9 -5 -13 -5c-5 0 -10 1 -14 5l-79 77c-5 4 -7 9 -7 15c0 10 10 20 21 20
c5 0 10 -2 13 -6l65 -63l66 63c3 4 8 6 13 6c11 0 21 -10 21 -20z" />
    <glyph glyph-name="tcaron" unicode="&#x165;" horiz-adv-x="506" 
d="M496 714c0 -6 -2 -11 -8 -16l-109 -87c-4 -3 -8 -4 -12 -4c-11 0 -20 10 -20 20c0 6 2 11 8 16l109 87c4 3 8 4 12 4c11 0 20 -10 20 -20zM389 45c0 -9 -9 -15 -16 -21c-29 -21 -64 -34 -100 -34c-83 0 -142 57 -142 131v374h-101c-13 0 -20 10 -20 20s7 20 20 20h101
v137c0 13 10 20 20 20s20 -7 20 -20v-137h187c13 0 20 -10 20 -20s-7 -20 -20 -20h-187v-374c0 -50 39 -91 102 -91c27 0 61 12 81 31c5 4 9 5 14 5c11 0 21 -10 21 -21z" />
    <glyph glyph-name="tcaron.alt" unicode="&#xf831;" horiz-adv-x="506" 
d="M496 714c0 -6 -2 -11 -8 -16l-109 -87c-4 -3 -8 -4 -12 -4c-11 0 -20 10 -20 20c0 6 2 11 8 16l109 87c4 3 8 4 12 4c11 0 20 -10 20 -20zM211 495v-475c0 -13 -10 -20 -20 -20s-20 7 -20 20v475h-131c-13 0 -20 10 -20 20s7 20 20 20h131v137c0 13 10 20 20 20
s20 -7 20 -20v-137h141c13 0 20 -10 20 -20s-7 -20 -20 -20h-141z" />
    <glyph glyph-name="Ugrave" unicode="&#xd9;" horiz-adv-x="636" 
d="M566 238c0 -137 -111 -248 -248 -248s-248 111 -248 248v502c0 13 10 20 20 20s20 -7 20 -20v-502c0 -115 93 -208 208 -208s208 93 208 208v502c0 13 10 20 20 20s20 -7 20 -20v-502zM372 852c0 -10 -9 -20 -20 -20c-4 0 -8 1 -12 4l-109 87c-6 5 -8 10 -8 16
c0 10 9 20 20 20c4 0 8 -1 12 -4l109 -87c6 -5 8 -10 8 -16z" />
    <glyph glyph-name="ugrave" unicode="&#xf9;" 
d="M440 175c0 -102 -83 -185 -185 -185s-185 83 -185 185v340c0 13 10 20 20 20s20 -7 20 -20v-340c0 -80 65 -145 145 -145s145 65 145 145v340c0 13 10 20 20 20s20 -7 20 -20v-340zM299 627c0 -10 -9 -20 -20 -20c-4 0 -8 1 -12 4l-109 87c-6 5 -8 10 -8 16
c0 10 9 20 20 20c4 0 8 -1 12 -4l109 -87c6 -5 8 -10 8 -16z" />
    <glyph glyph-name="ugrave.alt" unicode="&#xf833;" 
d="M299 627c0 -10 -9 -20 -20 -20c-4 0 -8 1 -12 4l-109 87c-6 5 -8 10 -8 16c0 10 9 20 20 20c4 0 8 -1 12 -4l109 -87c6 -5 8 -10 8 -16zM440 515v-495c0 -13 -10 -20 -20 -20s-20 7 -20 20v40c-34 -42 -86 -70 -145 -70c-102 0 -185 83 -185 185v340c0 13 10 20 20 20
s20 -7 20 -20v-340c0 -80 65 -145 145 -145s145 65 145 145v340c0 13 10 20 20 20s20 -7 20 -20z" />
    <glyph glyph-name="Uacute" unicode="&#xda;" horiz-adv-x="636" 
d="M566 238c0 -137 -111 -248 -248 -248s-248 111 -248 248v502c0 13 10 20 20 20s20 -7 20 -20v-502c0 -115 93 -208 208 -208s208 93 208 208v502c0 13 10 20 20 20s20 -7 20 -20v-502zM412 939c0 -6 -2 -11 -8 -16l-109 -87c-4 -3 -8 -4 -12 -4c-11 0 -20 10 -20 20
c0 6 2 11 8 16l109 87c4 3 8 4 12 4c11 0 20 -10 20 -20z" />
    <glyph glyph-name="uacute" unicode="&#xfa;" 
d="M440 175c0 -102 -83 -185 -185 -185s-185 83 -185 185v340c0 13 10 20 20 20s20 -7 20 -20v-340c0 -80 65 -145 145 -145s145 65 145 145v340c0 13 10 20 20 20s20 -7 20 -20v-340zM339 714c0 -6 -2 -11 -8 -16l-109 -87c-4 -3 -8 -4 -12 -4c-11 0 -20 10 -20 20
c0 6 2 11 8 16l109 87c4 3 8 4 12 4c11 0 20 -10 20 -20z" />
    <glyph glyph-name="uacute.alt" unicode="&#xf832;" 
d="M339 714c0 -6 -2 -11 -8 -16l-109 -87c-4 -3 -8 -4 -12 -4c-11 0 -20 10 -20 20c0 6 2 11 8 16l109 87c4 3 8 4 12 4c11 0 20 -10 20 -20zM440 515v-495c0 -13 -10 -20 -20 -20s-20 7 -20 20v40c-34 -42 -86 -70 -145 -70c-102 0 -185 83 -185 185v340c0 13 10 20 20 20
s20 -7 20 -20v-340c0 -80 65 -145 145 -145s145 65 145 145v340c0 13 10 20 20 20s20 -7 20 -20z" />
    <glyph glyph-name="Ucircumflex" unicode="&#xdb;" horiz-adv-x="636" 
d="M566 238c0 -137 -111 -248 -248 -248s-248 111 -248 248v502c0 13 10 20 20 20s20 -7 20 -20v-502c0 -115 93 -208 208 -208s208 93 208 208v502c0 13 10 20 20 20s20 -7 20 -20v-502zM417 862c0 -12 -11 -20 -21 -20c-6 0 -10 3 -13 6l-65 63l-66 -63
c-3 -3 -7 -6 -13 -6c-10 0 -21 8 -21 20c0 7 5 12 7 14l79 77c3 3 8 6 14 6c7 0 11 -4 13 -6l79 -77c2 -2 7 -7 7 -14z" />
    <glyph glyph-name="ucircumflex" unicode="&#xfb;" 
d="M440 175c0 -102 -83 -185 -185 -185s-185 83 -185 185v340c0 13 10 20 20 20s20 -7 20 -20v-340c0 -80 65 -145 145 -145s145 65 145 145v340c0 13 10 20 20 20s20 -7 20 -20v-340zM344 637c0 -12 -11 -20 -21 -20c-6 0 -10 3 -13 6l-65 63l-66 -63c-3 -3 -7 -6 -13 -6
c-10 0 -21 8 -21 20c0 7 5 12 7 14l79 77c3 3 8 6 14 6c7 0 11 -4 13 -6l79 -77c2 -2 7 -7 7 -14z" />
    <glyph glyph-name="ucircumflex.alt" unicode="&#xf834;" 
d="M344 637c0 -12 -11 -20 -21 -20c-6 0 -10 3 -13 6l-65 63l-66 -63c-3 -3 -7 -6 -13 -6c-10 0 -21 8 -21 20c0 7 5 12 7 14l79 77c3 3 8 6 14 6c7 0 11 -4 13 -6l79 -77c2 -2 7 -7 7 -14zM440 515v-495c0 -13 -10 -20 -20 -20s-20 7 -20 20v40c-34 -42 -86 -70 -145 -70
c-102 0 -185 83 -185 185v340c0 13 10 20 20 20s20 -7 20 -20v-340c0 -80 65 -145 145 -145s145 65 145 145v340c0 13 10 20 20 20s20 -7 20 -20z" />
    <glyph glyph-name="Udieresis" unicode="&#xdc;" horiz-adv-x="636" 
d="M566 238c0 -137 -111 -248 -248 -248s-248 111 -248 248v502c0 13 10 20 20 20s20 -7 20 -20v-502c0 -115 93 -208 208 -208s208 93 208 208v502c0 13 10 20 20 20s20 -7 20 -20v-502zM216 870c0 17 14 31 31 31s31 -14 31 -31s-14 -31 -31 -31s-31 14 -31 31zM357 870
c0 17 14 31 31 31s31 -14 31 -31s-14 -31 -31 -31s-31 14 -31 31z" />
    <glyph glyph-name="udieresis" unicode="&#xfc;" 
d="M440 175c0 -102 -83 -185 -185 -185s-185 83 -185 185v340c0 13 10 20 20 20s20 -7 20 -20v-340c0 -80 65 -145 145 -145s145 65 145 145v340c0 13 10 20 20 20s20 -7 20 -20v-340zM143 645c0 17 14 31 31 31s31 -14 31 -31s-14 -31 -31 -31s-31 14 -31 31zM284 645
c0 17 14 31 31 31s31 -14 31 -31s-14 -31 -31 -31s-31 14 -31 31z" />
    <glyph glyph-name="udieresis.alt" unicode="&#xf835;" 
d="M143 645c0 17 14 31 31 31s31 -14 31 -31s-14 -31 -31 -31s-31 14 -31 31zM284 645c0 17 14 31 31 31s31 -14 31 -31s-14 -31 -31 -31s-31 14 -31 31zM440 515v-495c0 -13 -10 -20 -20 -20s-20 7 -20 20v40c-34 -42 -86 -70 -145 -70c-102 0 -185 83 -185 185v340
c0 13 10 20 20 20s20 -7 20 -20v-340c0 -80 65 -145 145 -145s145 65 145 145v340c0 13 10 20 20 20s20 -7 20 -20z" />
    <glyph glyph-name="Umacron" unicode="&#x16a;" horiz-adv-x="636" 
d="M566 238c0 -137 -111 -248 -248 -248s-248 111 -248 248v502c0 13 10 20 20 20s20 -7 20 -20v-502c0 -115 93 -208 208 -208s208 93 208 208v502c0 13 10 20 20 20s20 -7 20 -20v-502zM416 882c0 -8 -4 -20 -19 -20h-158c-13 0 -20 11 -20 20s7 20 20 20h158
c15 0 19 -12 19 -20z" />
    <glyph glyph-name="umacron" unicode="&#x16b;" 
d="M440 175c0 -102 -83 -185 -185 -185s-185 83 -185 185v340c0 13 10 20 20 20s20 -7 20 -20v-340c0 -80 65 -145 145 -145s145 65 145 145v340c0 13 10 20 20 20s20 -7 20 -20v-340zM343 657c0 -8 -4 -20 -19 -20h-158c-13 0 -20 11 -20 20s7 20 20 20h158
c15 0 19 -12 19 -20z" />
    <glyph glyph-name="umacron.alt" unicode="&#xf836;" 
d="M343 657c0 -8 -4 -20 -19 -20h-158c-13 0 -20 11 -20 20s7 20 20 20h158c15 0 19 -12 19 -20zM440 515v-495c0 -13 -10 -20 -20 -20s-20 7 -20 20v40c-34 -42 -86 -70 -145 -70c-102 0 -185 83 -185 185v340c0 13 10 20 20 20s20 -7 20 -20v-340c0 -80 65 -145 145 -145
s145 65 145 145v340c0 13 10 20 20 20s20 -7 20 -20z" />
    <glyph glyph-name="Uring" unicode="&#x16e;" horiz-adv-x="636" 
d="M566 238c0 -137 -111 -248 -248 -248s-248 111 -248 248v502c0 13 10 20 20 20s20 -7 20 -20v-502c0 -115 93 -208 208 -208s208 93 208 208v502c0 13 10 20 20 20s20 -7 20 -20v-502zM395 910c0 -43 -35 -78 -78 -78s-77 35 -77 78s34 77 77 77s78 -34 78 -77zM358 910
c0 22 -18 40 -41 40c-22 0 -40 -18 -40 -40c0 -23 18 -41 40 -41s41 19 41 41z" />
    <glyph glyph-name="uring" unicode="&#x16f;" 
d="M440 175c0 -102 -83 -185 -185 -185s-185 83 -185 185v340c0 13 10 20 20 20s20 -7 20 -20v-340c0 -80 65 -145 145 -145s145 65 145 145v340c0 13 10 20 20 20s20 -7 20 -20v-340zM322 685c0 -43 -35 -78 -78 -78s-77 35 -77 78s34 77 77 77s78 -34 78 -77zM285 685
c0 22 -18 40 -41 40c-22 0 -40 -18 -40 -40c0 -23 18 -41 40 -41s41 19 41 41z" />
    <glyph glyph-name="uring.alt" unicode="&#xf837;" 
d="M322 685c0 -43 -35 -78 -78 -78s-77 35 -77 78s34 77 77 77s78 -34 78 -77zM285 685c0 22 -18 40 -41 40c-22 0 -40 -18 -40 -40c0 -23 18 -41 40 -41s41 19 41 41zM440 515v-495c0 -13 -10 -20 -20 -20s-20 7 -20 20v40c-34 -42 -86 -70 -145 -70
c-102 0 -185 83 -185 185v340c0 13 10 20 20 20s20 -7 20 -20v-340c0 -80 65 -145 145 -145s145 65 145 145v340c0 13 10 20 20 20s20 -7 20 -20z" />
    <glyph glyph-name="Uhungarumlaut" unicode="&#x170;" horiz-adv-x="636" 
d="M566 238c0 -137 -111 -248 -248 -248s-248 111 -248 248v502c0 13 10 20 20 20s20 -7 20 -20v-502c0 -115 93 -208 208 -208s208 93 208 208v502c0 13 10 20 20 20s20 -7 20 -20v-502zM492 939c0 -6 -3 -12 -8 -16l-109 -87c-5 -4 -10 -4 -13 -4c-11 0 -20 9 -20 20
c0 6 3 12 8 16l109 87c5 4 10 4 13 4c11 0 20 -9 20 -20zM353 939c0 -6 -3 -12 -8 -16l-109 -87c-5 -4 -10 -4 -13 -4c-11 0 -20 9 -20 20c0 6 3 12 8 16l109 87c5 4 10 4 13 4c11 0 20 -9 20 -20z" />
    <glyph glyph-name="uhungarumlaut" unicode="&#x171;" 
d="M440 175c0 -102 -83 -185 -185 -185s-185 83 -185 185v340c0 13 10 20 20 20s20 -7 20 -20v-340c0 -80 65 -145 145 -145s145 65 145 145v340c0 13 10 20 20 20s20 -7 20 -20v-340zM429 714c0 -6 -3 -12 -8 -16l-109 -87c-5 -4 -10 -4 -13 -4c-11 0 -20 9 -20 20
c0 6 3 12 8 16l109 87c5 4 10 4 13 4c11 0 20 -9 20 -20zM290 714c0 -6 -3 -12 -8 -16l-109 -87c-5 -4 -10 -4 -13 -4c-11 0 -20 9 -20 20c0 6 3 12 8 16l109 87c5 4 10 4 13 4c11 0 20 -9 20 -20z" />
    <glyph glyph-name="uhungarumlaut.alt" unicode="&#xf838;" 
d="M429 714c0 -6 -3 -12 -8 -16l-109 -87c-5 -4 -10 -4 -13 -4c-11 0 -20 9 -20 20c0 6 3 12 8 16l109 87c5 4 10 4 13 4c11 0 20 -9 20 -20zM290 714c0 -6 -3 -12 -8 -16l-109 -87c-5 -4 -10 -4 -13 -4c-11 0 -20 9 -20 20c0 6 3 12 8 16l109 87c5 4 10 4 13 4
c11 0 20 -9 20 -20zM440 515v-495c0 -13 -10 -20 -20 -20s-20 7 -20 20v40c-34 -42 -86 -70 -145 -70c-102 0 -185 83 -185 185v340c0 13 10 20 20 20s20 -7 20 -20v-340c0 -80 65 -145 145 -145s145 65 145 145v340c0 13 10 20 20 20s20 -7 20 -20z" />
    <glyph glyph-name="Uogonek" unicode="&#x172;" horiz-adv-x="636" 
d="M297 -135c0 -42 39 -44 56 -43c10 1 39 7 61 37c5 7 11 9 17 9c10 0 20 -9 20 -20c0 -9 -8 -17 -13 -23c-21 -21 -53 -43 -89 -43c-38 0 -94 15 -94 82c0 46 41 91 81 127c-6 0 -12 -1 -18 -1c-137 0 -248 111 -248 248v502c0 13 10 20 20 20s20 -7 20 -20v-502
c0 -115 93 -208 208 -208s208 93 208 208v502c0 13 10 20 20 20s20 -7 20 -20v-502c0 -103 -62 -190 -151 -228c-41 -31 -118 -96 -118 -145z" />
    <glyph glyph-name="uogonek" unicode="&#x173;" 
d="M215 -132c0 -42 39 -44 56 -43c10 1 39 7 61 37c5 7 11 9 17 9c10 0 20 -9 20 -20c0 -9 -8 -17 -13 -23c-21 -21 -53 -43 -89 -43c-38 0 -94 15 -94 82c0 44 38 88 77 123c-100 3 -180 84 -180 185v340c0 13 10 20 20 20s20 -7 20 -20v-340c0 -80 65 -145 145 -145
s145 65 145 145v340c0 13 10 20 20 20s20 -7 20 -20v-340c0 -80 -51 -148 -122 -174c-42 -33 -103 -90 -103 -133z" />
    <glyph glyph-name="uogonek.alt" unicode="&#xf839;" 
d="M400 20v40c-34 -42 -86 -70 -145 -70c-102 0 -185 83 -185 185v340c0 13 10 20 20 20s20 -7 20 -20v-340c0 -80 65 -145 145 -145s145 65 145 145v340c0 13 10 20 20 20s20 -7 20 -20v-495c0 -11 -8 -21 -14 -25c-44 -29 -117 -96 -117 -144c0 -42 39 -44 56 -43
c10 1 39 7 61 37c5 7 11 9 17 9c10 0 20 -9 20 -20c0 -9 -8 -17 -13 -23c-21 -21 -53 -43 -89 -43c-38 0 -94 15 -94 82c0 66 86 131 133 170z" />
    <glyph glyph-name="Wcircumflex" unicode="&#x174;" horiz-adv-x="920" 
d="M900 742c0 -3 -1 -7 -1 -7l-200 -728c-3 -12 -11 -18 -19 -18s-16 5 -19 17l-201 665l-201 -665c-4 -12 -11 -17 -19 -17s-16 6 -19 18l-200 728s-1 3 -1 6c0 12 10 19 20 19c8 0 16 -5 19 -15l182 -661l200 662c3 12 11 18 19 18s15 -6 19 -18l200 -662l182 661
c3 10 11 15 19 15c10 0 20 -6 20 -18zM559 862c0 -12 -11 -20 -21 -20c-6 0 -10 3 -13 6l-65 63l-66 -63c-3 -3 -7 -6 -13 -6c-10 0 -21 8 -21 20c0 7 5 12 7 14l79 77c3 3 8 6 14 6c7 0 11 -4 13 -6l79 -77c2 -2 7 -7 7 -14z" />
    <glyph glyph-name="wcircumflex" unicode="&#x175;" horiz-adv-x="720" 
d="M689 509l-150 -495c-3 -12 -11 -17 -19 -17s-15 5 -19 17l-141 436l-141 -436c-4 -12 -11 -17 -19 -17s-15 5 -19 17l-150 495c-4 14 5 26 20 26c7 0 15 -4 18 -14l132 -434l140 434c4 12 11 17 19 17s15 -5 19 -17l140 -434l132 434c3 10 11 14 19 14
c14 0 23 -12 19 -26zM459 637c0 -12 -11 -20 -21 -20c-6 0 -10 3 -13 6l-65 63l-66 -63c-3 -3 -7 -6 -13 -6c-10 0 -21 8 -21 20c0 7 5 12 7 14l79 77c3 3 8 6 14 6c7 0 11 -4 13 -6l79 -77c2 -2 7 -7 7 -14z" />
    <glyph glyph-name="Wgrave" unicode="&#x1e80;" horiz-adv-x="920" 
d="M900 742c0 -3 -1 -7 -1 -7l-200 -728c-3 -12 -11 -18 -19 -18s-16 5 -19 17l-201 665l-201 -665c-4 -12 -11 -17 -19 -17s-16 6 -19 18l-200 728s-1 3 -1 6c0 12 10 19 20 19c8 0 16 -5 19 -15l182 -661l200 662c3 12 11 18 19 18s15 -6 19 -18l200 -662l182 661
c3 10 11 15 19 15c10 0 20 -6 20 -18zM559 844c0 -10 -9 -20 -20 -20c-4 0 -8 1 -12 4l-109 87c-6 5 -8 10 -8 16c0 10 9 20 20 20c4 0 8 -1 12 -4l109 -87c6 -5 8 -10 8 -16z" />
    <glyph glyph-name="wgrave" unicode="&#x1e81;" horiz-adv-x="720" 
d="M689 509l-150 -495c-3 -12 -11 -17 -19 -17s-15 5 -19 17l-141 436l-141 -436c-4 -12 -11 -17 -19 -17s-15 5 -19 17l-150 495c-4 14 5 26 20 26c7 0 15 -4 18 -14l132 -434l140 434c4 12 11 17 19 17s15 -5 19 -17l140 -434l132 434c3 10 11 14 19 14
c14 0 23 -12 19 -26zM434 627c0 -10 -9 -20 -20 -20c-4 0 -8 1 -12 4l-109 87c-6 5 -8 10 -8 16c0 10 9 20 20 20c4 0 8 -1 12 -4l109 -87c6 -5 8 -10 8 -16z" />
    <glyph glyph-name="Wacute" unicode="&#x1e82;" horiz-adv-x="920" 
d="M900 742c0 -3 -1 -7 -1 -7l-200 -728c-3 -12 -11 -18 -19 -18s-16 5 -19 17l-201 665l-201 -665c-4 -12 -11 -17 -19 -17s-16 6 -19 18l-200 728s-1 3 -1 6c0 12 10 19 20 19c8 0 16 -5 19 -15l182 -661l200 662c3 12 11 18 19 18s15 -6 19 -18l200 -662l182 661
c3 10 11 15 19 15c10 0 20 -6 20 -18zM516 935c0 -6 -2 -11 -8 -16l-109 -87c-4 -3 -8 -4 -12 -4c-11 0 -20 10 -20 20c0 6 2 11 8 16l109 87c4 3 8 4 12 4c11 0 20 -10 20 -20z" />
    <glyph glyph-name="wacute" unicode="&#x1e83;" horiz-adv-x="720" 
d="M689 509l-150 -495c-3 -12 -11 -17 -19 -17s-15 5 -19 17l-141 436l-141 -436c-4 -12 -11 -17 -19 -17s-15 5 -19 17l-150 495c-4 14 5 26 20 26c7 0 15 -4 18 -14l132 -434l140 434c4 12 11 17 19 17s15 -5 19 -17l140 -434l132 434c3 10 11 14 19 14
c14 0 23 -12 19 -26zM430 714c0 -6 -2 -11 -8 -16l-109 -87c-4 -3 -8 -4 -12 -4c-11 0 -20 10 -20 20c0 6 2 11 8 16l109 87c4 3 8 4 12 4c11 0 20 -10 20 -20z" />
    <glyph glyph-name="Wdieresis" unicode="&#x1e84;" horiz-adv-x="920" 
d="M900 742c0 -3 -1 -7 -1 -7l-200 -728c-3 -12 -11 -18 -19 -18s-16 5 -19 17l-201 665l-201 -665c-4 -12 -11 -17 -19 -17s-16 6 -19 18l-200 728s-1 3 -1 6c0 12 10 19 20 19c8 0 16 -5 19 -15l182 -661l200 662c3 12 11 18 19 18s15 -6 19 -18l200 -662l182 661
c3 10 11 15 19 15c10 0 20 -6 20 -18zM359 871c0 16 13 29 29 29s29 -13 29 -29s-13 -29 -29 -29s-29 13 -29 29zM500 871c0 16 13 29 29 29s29 -13 29 -29s-13 -29 -29 -29s-29 13 -29 29z" />
    <glyph glyph-name="wdieresis" unicode="&#x1e85;" horiz-adv-x="720" 
d="M689 509l-150 -495c-3 -12 -11 -17 -19 -17s-15 5 -19 17l-141 436l-141 -436c-4 -12 -11 -17 -19 -17s-15 5 -19 17l-150 495c-4 14 5 26 20 26c7 0 15 -4 18 -14l132 -434l140 434c4 12 11 17 19 17s15 -5 19 -17l140 -434l132 434c3 10 11 14 19 14
c14 0 23 -12 19 -26zM265 643c0 16 13 29 29 29s29 -13 29 -29s-13 -29 -29 -29s-29 13 -29 29zM406 643c0 16 13 29 29 29s29 -13 29 -29s-13 -29 -29 -29s-29 13 -29 29z" />
    <glyph glyph-name="Ycircumflex" unicode="&#x176;" horiz-adv-x="560" 
d="M540 741c0 -4 -1 -7 -3 -11l-237 -398v-312c0 -13 -10 -20 -20 -20s-20 7 -20 20v312l-237 398c-2 4 -3 7 -3 11c0 11 10 19 20 19c7 0 13 -3 17 -10l223 -373l223 373c4 7 11 10 17 10c10 0 20 -8 20 -19zM379 862c0 -12 -11 -20 -21 -20c-6 0 -10 3 -13 6l-65 63
l-66 -63c-3 -3 -7 -6 -13 -6c-10 0 -21 8 -21 20c0 7 5 12 7 14l79 77c3 3 8 6 14 6c7 0 11 -4 13 -6l79 -77c2 -2 7 -7 7 -14z" />
    <glyph glyph-name="ycircumflex" unicode="&#x177;" horiz-adv-x="461" 
d="M431 516c0 -3 0 -5 -1 -8l-259 -695c-3 -9 -11 -13 -18 -13c-11 0 -21 8 -21 19c0 3 0 5 1 8l73 195l-175 486c-1 3 -1 5 -1 8c0 11 10 19 21 19c7 0 15 -4 18 -13l159 -442l164 442c4 9 11 13 19 13c10 0 20 -8 20 -19zM330 637c0 -12 -11 -20 -21 -20c-6 0 -10 3 -13 6
l-65 63l-66 -63c-3 -3 -7 -6 -13 -6c-10 0 -21 8 -21 20c0 7 5 12 7 14l79 77c3 3 8 6 14 6c7 0 11 -4 13 -6l79 -77c2 -2 7 -7 7 -14z" />
    <glyph glyph-name="Ydieresis" unicode="&#x178;" horiz-adv-x="560" 
d="M540 741c0 -4 -1 -7 -3 -11l-237 -398v-312c0 -13 -10 -20 -20 -20s-20 7 -20 20v312l-237 398c-2 4 -3 7 -3 11c0 11 10 19 20 19c7 0 13 -3 17 -10l223 -373l223 373c4 7 11 10 17 10c10 0 20 -8 20 -19zM178 870c0 17 14 31 31 31s31 -14 31 -31s-14 -31 -31 -31
s-31 14 -31 31zM319 870c0 17 14 31 31 31s31 -14 31 -31s-14 -31 -31 -31s-31 14 -31 31z" />
    <glyph glyph-name="ydieresis" unicode="&#xff;" horiz-adv-x="461" 
d="M431 516c0 -3 0 -5 -1 -8l-259 -695c-3 -9 -11 -13 -18 -13c-11 0 -21 8 -21 19c0 3 0 5 1 8l73 195l-175 486c-1 3 -1 5 -1 8c0 11 10 19 21 19c7 0 15 -4 18 -13l159 -442l164 442c4 9 11 13 19 13c10 0 20 -8 20 -19zM129 645c0 17 14 31 31 31s31 -14 31 -31
s-14 -31 -31 -31s-31 14 -31 31zM270 645c0 17 14 31 31 31s31 -14 31 -31s-14 -31 -31 -31s-31 14 -31 31z" />
    <glyph glyph-name="Ygrave" unicode="&#x1ef2;" horiz-adv-x="560" 
d="M540 741c0 -4 -1 -7 -3 -11l-237 -398v-312c0 -13 -10 -20 -20 -20s-20 7 -20 20v312l-237 398c-2 4 -3 7 -3 11c0 11 10 19 20 19c7 0 13 -3 17 -10l223 -373l223 373c4 7 11 10 17 10c10 0 20 -8 20 -19zM320 842c0 -10 -9 -20 -20 -20c-4 0 -8 1 -12 4l-109 87
c-6 5 -8 10 -8 16c0 10 9 20 20 20c4 0 8 -1 12 -4l109 -87c6 -5 8 -10 8 -16z" />
    <glyph glyph-name="ygrave" unicode="&#x1ef3;" horiz-adv-x="461" 
d="M431 516c0 -3 0 -5 -1 -8l-259 -695c-3 -9 -11 -13 -18 -13c-11 0 -21 8 -21 19c0 3 0 5 1 8l73 195l-175 486c-1 3 -1 5 -1 8c0 11 10 19 21 19c7 0 15 -4 18 -13l159 -442l164 442c4 9 11 13 19 13c10 0 20 -8 20 -19zM266 627c0 -10 -9 -20 -20 -20c-4 0 -8 1 -12 4
l-109 87c-6 5 -8 10 -8 16c0 10 9 20 20 20c4 0 8 -1 12 -4l109 -87c6 -5 8 -10 8 -16z" />
    <glyph glyph-name="Yacute" unicode="&#xdd;" horiz-adv-x="560" 
d="M540 741c0 -4 -1 -7 -3 -11l-237 -398v-312c0 -13 -10 -20 -20 -20s-20 7 -20 20v312l-237 398c-2 4 -3 7 -3 11c0 11 10 19 20 19c7 0 13 -3 17 -10l223 -373l223 373c4 7 11 10 17 10c10 0 20 -8 20 -19zM374 939c0 -6 -2 -11 -8 -16l-109 -87c-4 -3 -8 -4 -12 -4
c-11 0 -20 10 -20 20c0 6 2 11 8 16l109 87c4 3 8 4 12 4c11 0 20 -10 20 -20z" />
    <glyph glyph-name="yacute" unicode="&#xfd;" horiz-adv-x="461" 
d="M431 516c0 -3 0 -5 -1 -8l-259 -695c-3 -9 -11 -13 -18 -13c-11 0 -21 8 -21 19c0 3 0 5 1 8l73 195l-175 486c-1 3 -1 5 -1 8c0 11 10 19 21 19c7 0 15 -4 18 -13l159 -442l164 442c4 9 11 13 19 13c10 0 20 -8 20 -19zM325 714c0 -6 -2 -11 -8 -16l-109 -87
c-4 -3 -8 -4 -12 -4c-11 0 -20 10 -20 20c0 6 2 11 8 16l109 87c4 3 8 4 12 4c11 0 20 -10 20 -20z" />
    <glyph glyph-name="Zacute" unicode="&#x179;" horiz-adv-x="565" 
d="M520 20c0 -10 -7 -20 -20 -20h-434c-13 0 -21 7 -21 17c0 4 1 8 4 13l412 690h-372c-13 0 -20 10 -20 20s7 20 20 20h407c13 0 21 -7 21 -17c0 -4 -1 -8 -4 -13l-412 -690h399c13 0 20 -10 20 -20zM387 939c0 -6 -2 -11 -8 -16l-109 -87c-4 -3 -8 -4 -12 -4
c-11 0 -20 10 -20 20c0 6 2 11 8 16l109 87c4 3 8 4 12 4c11 0 20 -10 20 -20z" />
    <glyph glyph-name="zacute" unicode="&#x17a;" horiz-adv-x="437" 
d="M397 20c0 -10 -6 -20 -20 -20h-321c-13 0 -21 7 -21 17c0 4 1 9 5 14l297 464h-258c-13 0 -20 10 -20 20s7 20 20 20h294c14 0 22 -7 22 -17c0 -4 -2 -9 -5 -14l-297 -464h284c14 0 20 -10 20 -20zM323 714c0 -6 -2 -11 -8 -16l-109 -87c-4 -3 -8 -4 -12 -4
c-11 0 -20 10 -20 20c0 6 2 11 8 16l109 87c4 3 8 4 12 4c11 0 20 -10 20 -20z" />
    <glyph glyph-name="Zdotaccent" unicode="&#x17b;" horiz-adv-x="565" 
d="M520 20c0 -10 -7 -20 -20 -20h-434c-13 0 -21 7 -21 17c0 4 1 8 4 13l412 690h-372c-13 0 -20 10 -20 20s7 20 20 20h407c13 0 21 -7 21 -17c0 -4 -1 -8 -4 -13l-412 -690h399c13 0 20 -10 20 -20zM251 896c0 17 14 31 31 31s31 -14 31 -31s-14 -31 -31 -31
s-31 14 -31 31z" />
    <glyph glyph-name="zdotaccent" unicode="&#x17c;" horiz-adv-x="437" 
d="M397 20c0 -10 -6 -20 -20 -20h-321c-13 0 -21 7 -21 17c0 4 1 9 5 14l297 464h-258c-13 0 -20 10 -20 20s7 20 20 20h294c14 0 22 -7 22 -17c0 -4 -2 -9 -5 -14l-297 -464h284c14 0 20 -10 20 -20zM187 671c0 17 14 31 31 31s31 -14 31 -31s-14 -31 -31 -31
s-31 14 -31 31z" />
    <glyph glyph-name="Zcaron" unicode="&#x17d;" horiz-adv-x="565" 
d="M520 20c0 -10 -7 -20 -20 -20h-434c-13 0 -21 7 -21 17c0 4 1 8 4 13l412 690h-372c-13 0 -20 10 -20 20s7 20 20 20h407c13 0 21 -7 21 -17c0 -4 -1 -8 -4 -13l-412 -690h399c13 0 20 -10 20 -20zM392 939c0 -6 -2 -11 -7 -15l-79 -77c-4 -4 -9 -5 -13 -5
c-5 0 -10 1 -14 5l-79 77c-5 4 -7 9 -7 15c0 10 10 20 21 20c5 0 10 -2 13 -6l65 -63l66 63c3 4 8 6 13 6c11 0 21 -10 21 -20z" />
    <glyph glyph-name="zcaron" unicode="&#x17e;" horiz-adv-x="437" 
d="M397 20c0 -10 -6 -20 -20 -20h-321c-13 0 -21 7 -21 17c0 4 1 9 5 14l297 464h-258c-13 0 -20 10 -20 20s7 20 20 20h294c14 0 22 -7 22 -17c0 -4 -2 -9 -5 -14l-297 -464h284c14 0 20 -10 20 -20zM328 714c0 -6 -2 -11 -7 -15l-79 -77c-4 -4 -9 -5 -13 -5
c-5 0 -10 1 -14 5l-79 77c-5 4 -7 9 -7 15c0 10 10 20 21 20c5 0 10 -2 13 -6l65 -63l66 63c3 4 8 6 13 6c11 0 21 -10 21 -20z" />
    <glyph glyph-name="florin" unicode="&#x192;" horiz-adv-x="342" 
d="M322 515c0 -10 -7 -20 -20 -20h-120v-534c0 -74 -59 -131 -142 -131c-13 0 -20 10 -20 20s7 20 20 20c63 0 102 41 102 91v534h-101c-13 0 -20 10 -20 20s7 20 20 20h101v104c0 74 59 131 142 131c13 0 20 -10 20 -20s-7 -20 -20 -20c-63 0 -102 -41 -102 -91v-104h120
c13 0 20 -10 20 -20z" />
    <glyph glyph-name="integral" unicode="&#x222b;" horiz-adv-x="284" 
d="M284 750c0 -10 -7 -20 -20 -20c-63 0 -102 -41 -102 -91v-678c0 -74 -59 -131 -142 -131c-13 0 -20 10 -20 20s7 20 20 20c63 0 102 41 102 91v678c0 74 59 131 142 131c13 0 20 -10 20 -20z" />
    <glyph glyph-name="schwa" unicode="&#x259;" horiz-adv-x="495" 
d="M60 245c0 11 9 20 20 20h310v95c0 79 -73 145 -155 145c-40 0 -96 -16 -121 -51c-5 -7 -11 -9 -17 -9c-10 0 -20 9 -20 20c0 9 8 17 13 23c37 39 92 57 145 57c101 0 195 -81 195 -185v-185c0 -102 -83 -185 -185 -185s-185 83 -185 185v70zM100 225v-50
c0 -80 65 -145 145 -145s145 65 145 145v50h-290z" />
    <glyph glyph-name="circumflex" unicode="&#x2c6;" horiz-adv-x="403" 
d="M301 637c0 -12 -11 -20 -21 -20c-6 0 -10 3 -13 6l-65 63l-66 -63c-3 -3 -7 -6 -13 -6c-10 0 -21 8 -21 20c0 7 5 12 7 14l79 77c3 3 8 6 14 6c7 0 11 -4 13 -6l79 -77c2 -2 7 -7 7 -14z" />
    <glyph glyph-name="caron" unicode="&#x2c7;" horiz-adv-x="403" 
d="M301 714c0 -6 -2 -11 -7 -15l-79 -77c-4 -4 -9 -5 -13 -5c-5 0 -10 1 -14 5l-79 77c-5 4 -7 9 -7 15c0 10 10 20 21 20c5 0 10 -2 13 -6l65 -63l66 63c3 4 8 6 13 6c11 0 21 -10 21 -20z" />
    <glyph glyph-name="breve" unicode="&#x2d8;" horiz-adv-x="403" 
d="M301 716c0 -55 -44 -99 -99 -99s-99 44 -99 99c0 13 11 20 20 20s20 -7 20 -20c0 -33 26 -59 59 -59s59 26 59 59c0 13 11 20 20 20s20 -7 20 -20z" />
    <glyph glyph-name="dotaccent" unicode="&#x2d9;" horiz-adv-x="403" 
d="M171 671c0 17 14 31 31 31s31 -14 31 -31s-14 -31 -31 -31s-31 14 -31 31z" />
    <glyph glyph-name="ring" unicode="&#x2da;" horiz-adv-x="403" 
d="M294 685c0 -43 -35 -78 -78 -78s-77 35 -77 78s34 77 77 77s78 -34 78 -77zM257 685c0 22 -18 40 -41 40c-22 0 -40 -18 -40 -40c0 -23 18 -41 40 -41s41 19 41 41z" />
    <glyph glyph-name="dieresis" unicode="&#xa8;" horiz-adv-x="403" 
d="M98 645c0 17 14 31 31 31s31 -14 31 -31s-14 -31 -31 -31s-31 14 -31 31zM239 645c0 17 14 31 31 31s31 -14 31 -31s-14 -31 -31 -31s-31 14 -31 31z" />
    <glyph glyph-name="tilde" unicode="&#x2dc;" horiz-adv-x="434" 
d="M338 680c0 -2 -1 -4 -1 -5c-14 -33 -40 -57 -78 -57c-43 0 -52 39 -84 39c-36 0 -35 -42 -58 -42c-10 0 -21 8 -21 20c0 4 2 7 3 10c14 27 43 52 76 52c45 0 55 -39 84 -39c31 0 40 28 40 28c2 9 10 14 18 14c9 0 21 -7 21 -20z" />
    <glyph glyph-name="macron" unicode="&#xaf;" horiz-adv-x="403" 
d="M300 657c0 -8 -4 -20 -19 -20h-158c-13 0 -20 11 -20 20s7 20 20 20h158c15 0 19 -12 19 -20z" />
    <glyph glyph-name="hungarumlaut" unicode="&#x2dd;" horiz-adv-x="403" 
d="M346 714c0 -6 -3 -12 -8 -16l-109 -87c-5 -4 -10 -4 -13 -4c-11 0 -20 9 -20 20c0 6 3 12 8 16l109 87c5 4 10 4 13 4c11 0 20 -9 20 -20zM207 714c0 -6 -3 -12 -8 -16l-109 -87c-5 -4 -10 -4 -13 -4c-11 0 -20 9 -20 20c0 6 3 12 8 16l109 87c5 4 10 4 13 4
c11 0 20 -9 20 -20z" />
    <glyph glyph-name="grave" unicode="`" horiz-adv-x="403" 
d="M276 627c0 -10 -9 -20 -20 -20c-4 0 -8 1 -12 4l-109 87c-6 5 -8 10 -8 16c0 10 9 20 20 20c4 0 8 -1 12 -4l109 -87c6 -5 8 -10 8 -16z" />
    <glyph glyph-name="acute" unicode="&#xb4;" horiz-adv-x="403" 
d="M276 714c0 -6 -2 -11 -8 -16l-109 -87c-4 -3 -8 -4 -12 -4c-11 0 -20 10 -20 20c0 6 2 11 8 16l109 87c4 3 8 4 12 4c11 0 20 -10 20 -20z" />
    <glyph glyph-name="periodcentered" unicode="&#xb7;" horiz-adv-x="160" 
d="M49 371c0 17 14 31 31 31s31 -14 31 -31s-14 -31 -31 -31s-31 14 -31 31z" />
    <glyph glyph-name="ogonek" unicode="&#x2db;" horiz-adv-x="268" 
d="M89 -117c0 -42 39 -44 56 -43c10 1 39 7 61 37c5 7 11 9 17 9c10 0 20 -9 20 -20c0 -9 -8 -17 -13 -23c-21 -21 -53 -43 -89 -43c-38 0 -94 15 -94 82c0 66 86 131 132 169c29 24 54 -4 30 -22c-41 -31 -120 -97 -120 -146z" />
    <glyph glyph-name="cedilla" unicode="&#xb8;" horiz-adv-x="397" 
d="M260 -116c0 -40 -33 -73 -73 -73c-13 0 -20 11 -20 20s7 20 20 20c18 0 33 15 33 33s-15 32 -33 32c-12 0 -24 12 -19 25l23 64c3 9 10 14 18 14c13 0 23 -13 19 -25l-14 -42c27 -11 46 -37 46 -68z" />
    <glyph glyph-name="commaaccent" unicode="&#xf6c3;" horiz-adv-x="190" 
d="M130 -73c0 -75 -31 -121 -72 -159c-4 -3 -8 -4 -12 -4c-11 0 -20 10 -20 20c0 6 2 12 8 16c0 0 5 4 12 11c22 25 44 51 44 116c0 13 10 20 20 20s20 -7 20 -20z" />
    <glyph glyph-name="asciicircum" unicode="^" horiz-adv-x="515" 
d="M455 409c0 -11 -11 -19 -21 -19c-7 0 -13 3 -17 11l-160 297l-159 -297c-4 -8 -11 -11 -17 -11c-11 0 -21 8 -21 19c0 4 1 7 3 10l177 330c4 9 11 13 17 13c7 0 13 -4 18 -13l177 -330c2 -3 3 -6 3 -10z" />
    <glyph glyph-name="asciitilde" unicode="~" horiz-adv-x="455" 
d="M405 459c0 -7 -4 -14 -7 -20c-23 -37 -62 -57 -105 -57c-65 0 -76 56 -130 56c-30 0 -60 -21 -75 -46c-4 -7 -10 -10 -17 -10c-10 0 -21 8 -21 19c0 8 7 16 11 22c24 32 60 55 102 55c73 0 82 -56 130 -56c29 0 62 15 73 43c4 9 11 13 18 13c11 0 21 -8 21 -19z" />
    <glyph glyph-name="hyphen" unicode="-" horiz-adv-x="360" 
d="M310 379c0 -10 -7 -20 -20 -20h-220c-13 0 -20 10 -20 20s7 20 20 20h220c13 0 20 -10 20 -20z" />
    <glyph glyph-name="endash" unicode="&#x2013;" horiz-adv-x="446" 
d="M396 379c0 -9 -7 -20 -20 -20h-306c-13 0 -20 11 -20 20s7 20 20 20h306c13 0 20 -11 20 -20z" />
    <glyph glyph-name="emdash" unicode="&#x2014;" horiz-adv-x="752" 
d="M702 379c0 -9 -7 -20 -20 -20h-612c-13 0 -20 11 -20 20s7 20 20 20h612c13 0 20 -11 20 -20z" />
    <glyph glyph-name="underscore" unicode="_" horiz-adv-x="460" 
d="M490 -180c0 -9 -7 -20 -20 -20h-480c-13 0 -20 11 -20 20s7 20 20 20h480c13 0 20 -11 20 -20z" />
    <glyph glyph-name="comma" unicode="," horiz-adv-x="190" 
d="M130 42c0 -75 -35 -170 -98 -216c-4 -3 -8 -4 -12 -4c-11 0 -20 10 -20 20c0 6 2 12 8 16c0 0 5 4 12 11c46 45 70 108 70 173c0 13 10 20 20 20s20 -7 20 -20z" />
    <glyph glyph-name="period" unicode="." horiz-adv-x="160" 
d="M49 31c0 17 14 31 31 31s31 -14 31 -31s-14 -31 -31 -31s-31 14 -31 31z" />
    <glyph glyph-name="colon" unicode=":" horiz-adv-x="160" 
d="M49 31c0 17 14 31 31 31s31 -14 31 -31s-14 -31 -31 -31s-31 14 -31 31zM49 504c0 17 14 31 31 31s31 -14 31 -31s-14 -31 -31 -31s-31 14 -31 31z" />
    <glyph glyph-name="semicolon" unicode=";" horiz-adv-x="190" 
d="M130 42c0 -75 -35 -170 -98 -216c-4 -3 -8 -4 -12 -4c-11 0 -20 10 -20 20c0 6 2 12 8 16c0 0 5 4 12 11c46 45 70 108 70 173c0 13 10 20 20 20s20 -7 20 -20zM79 504c0 17 14 31 31 31s31 -14 31 -31s-14 -31 -31 -31s-31 14 -31 31z" />
    <glyph glyph-name="quoteleft" unicode="&#x2018;" horiz-adv-x="200" 
d="M170 739c0 -5 -2 -11 -8 -15c0 0 -5 -4 -12 -11c-46 -45 -70 -109 -70 -173c0 -14 -10 -20 -20 -20s-20 6 -20 20c0 74 35 169 98 216c4 3 8 4 12 4c11 0 20 -10 20 -21z" />
    <glyph glyph-name="quoteright" unicode="&#x2019;" horiz-adv-x="200" 
d="M160 740c0 -75 -35 -170 -98 -216c-4 -3 -8 -4 -12 -4c-11 0 -20 10 -20 20c0 6 2 12 8 16c0 0 5 4 12 11c46 45 70 108 70 173c0 13 10 20 20 20s20 -7 20 -20z" />
    <glyph glyph-name="quotedbl" unicode="&#x22;" horiz-adv-x="291" 
d="M231 580c0 -13 -10 -20 -20 -20s-20 7 -20 20v160c0 13 10 20 20 20s20 -7 20 -20v-160zM100 580c0 -13 -10 -20 -20 -20s-20 7 -20 20v160c0 13 10 20 20 20s20 -7 20 -20v-160z" />
    <glyph glyph-name="quotesingle" unicode="'" horiz-adv-x="160" 
d="M100 580c0 -13 -10 -20 -20 -20s-20 7 -20 20v160c0 13 10 20 20 20s20 -7 20 -20v-160z" />
    <glyph glyph-name="quotesinglbase" unicode="&#x201a;" horiz-adv-x="190" 
d="M130 42c0 -75 -35 -170 -98 -216c-4 -3 -8 -4 -12 -4c-11 0 -20 10 -20 20c0 6 2 12 8 16c0 0 5 4 12 11c46 45 70 108 70 173c0 13 10 20 20 20s20 -7 20 -20z" />
    <glyph glyph-name="quotedblleft" unicode="&#x201c;" horiz-adv-x="340" 
d="M310 739c0 -5 -2 -11 -8 -15c0 0 -5 -4 -12 -11c-46 -45 -70 -109 -70 -173c0 -14 -10 -20 -20 -20s-20 6 -20 20c0 74 35 169 98 216c4 3 8 4 12 4c11 0 20 -10 20 -21zM170 739c0 -5 -2 -11 -8 -15c0 0 -5 -4 -12 -11c-46 -45 -70 -109 -70 -173c0 -14 -10 -20 -20 -20
s-20 6 -20 20c0 74 35 169 98 216c4 3 8 4 12 4c11 0 20 -10 20 -21z" />
    <glyph glyph-name="quotedblright" unicode="&#x201d;" horiz-adv-x="340" 
d="M300 740c0 -75 -35 -170 -98 -216c-4 -3 -8 -4 -12 -4c-11 0 -20 10 -20 20c0 6 2 12 8 16c0 0 5 4 12 11c46 45 70 108 70 173c0 13 10 20 20 20s20 -7 20 -20zM160 740c0 -75 -35 -170 -98 -216c-4 -3 -8 -4 -12 -4c-11 0 -20 10 -20 20c0 6 2 12 8 16c0 0 5 4 12 11
c46 45 70 108 70 173c0 13 10 20 20 20s20 -7 20 -20z" />
    <glyph glyph-name="quotedblbase" unicode="&#x201e;" horiz-adv-x="330" 
d="M130 42c0 -75 -35 -170 -98 -216c-4 -3 -8 -4 -12 -4c-11 0 -20 10 -20 20c0 6 2 12 8 16c0 0 5 4 12 11c46 45 70 108 70 173c0 13 10 20 20 20s20 -7 20 -20zM270 42c0 -75 -35 -170 -98 -216c-4 -3 -8 -4 -12 -4c-11 0 -20 10 -20 20c0 6 2 12 8 16c0 0 5 4 12 11
c46 45 70 108 70 173c0 13 10 20 20 20s20 -7 20 -20z" />
    <glyph glyph-name="bullet" unicode="&#x2022;" horiz-adv-x="359" 
d="M299 366c0 -66 -54 -120 -119 -120c-66 0 -120 54 -120 119c0 66 54 120 119 120c66 0 120 -54 120 -119z" />
    <glyph glyph-name="ellipsis" unicode="&#x2026;" horiz-adv-x="440" 
d="M49 31c0 17 14 31 31 31s31 -14 31 -31s-14 -31 -31 -31s-31 14 -31 31zM189 31c0 17 14 31 31 31s31 -14 31 -31s-14 -31 -31 -31s-31 14 -31 31zM329 31c0 17 14 31 31 31s31 -14 31 -31s-14 -31 -31 -31s-31 14 -31 31z" />
    <glyph glyph-name="fraction" unicode="&#x2044;" horiz-adv-x="658" 
d="M608 740c0 -4 -2 -8 -4 -12l-517 -728c-5 -6 -10 -8 -16 -8c-11 0 -21 9 -21 20c0 4 1 8 4 12l517 728c4 6 10 8 16 8c10 0 21 -9 21 -20z" />
    <glyph glyph-name="infinity" unicode="&#x221e;" horiz-adv-x="915" 
d="M865 368c0 -108 -84 -183 -188 -183c-108 0 -167 72 -220 148c-52 -76 -111 -148 -219 -148c-104 0 -188 75 -188 183c0 106 84 183 188 183c108 0 167 -72 219 -148c53 76 112 148 220 148c104 0 188 -77 188 -183zM825 368c0 82 -64 143 -148 143
c-93 0 -145 -69 -196 -143c51 -74 103 -143 196 -143c84 0 148 59 148 143zM433 368c-51 74 -102 143 -195 143c-84 0 -148 -61 -148 -143c0 -84 64 -143 148 -143c93 0 144 69 195 143z" />
    <glyph glyph-name="arrowleft" unicode="&#x2190;" horiz-adv-x="793" 
d="M120 337l255 -256c4 -4 6 -9 6 -13c0 -12 -9 -21 -21 -21c-4 0 -9 2 -13 6l-290 289c-4 4 -7 8 -7 15c0 6 3 11 7 15l290 289c4 4 9 6 13 6c12 0 21 -9 21 -21c0 -4 -2 -9 -6 -13l-255 -256h603c13 0 20 -10 20 -20s-7 -20 -20 -20h-603z" />
    <glyph glyph-name="arrowup" unicode="&#x2191;" horiz-adv-x="720" 
d="M636 378l-256 255v-603c0 -13 -10 -20 -20 -20s-20 7 -20 20v603l-256 -255c-4 -4 -9 -6 -13 -6c-12 0 -21 9 -21 21c0 4 2 9 6 13l289 290c4 4 9 7 15 7c7 0 11 -3 15 -7l289 -290c4 -4 6 -9 6 -13c0 -12 -9 -21 -21 -21c-4 0 -9 2 -13 6z" />
    <glyph glyph-name="arrowright" unicode="&#x2192;" horiz-adv-x="793" 
d="M418 81l255 256h-603c-13 0 -20 10 -20 20s7 20 20 20h603l-255 256c-4 4 -6 9 -6 13c0 12 9 21 21 21c4 0 9 -2 13 -6l290 -289c4 -4 7 -9 7 -15c0 -7 -3 -11 -7 -15l-290 -289c-4 -4 -9 -6 -13 -6c-12 0 -21 9 -21 21c0 4 2 9 6 13z" />
    <glyph glyph-name="arrowdown" unicode="&#x2193;" horiz-adv-x="720" 
d="M380 81l256 255c4 4 9 6 13 6c12 0 21 -9 21 -21c0 -4 -2 -9 -6 -13l-289 -290c-4 -4 -8 -7 -15 -7c-6 0 -11 3 -15 7l-289 290c-4 4 -6 9 -6 13c0 12 9 21 21 21c4 0 9 -2 13 -6l256 -255v603c0 13 10 20 20 20s20 -7 20 -20v-603z" />
    <glyph glyph-name="apple" unicode="&#xf8ff;" horiz-adv-x="858" 
d="M436 588c15 0 39 6 72 17s62 17 87 17c40 0 76 -11 107 -32c17 -13 35 -29 52 -50c-26 -23 -45 -43 -57 -60c-22 -31 -33 -65 -33 -103c0 -41 11 -79 34 -112s50 -54 80 -63c-13 -40 -33 -82 -62 -125c-43 -65 -86 -98 -129 -98c-17 0 -40 5 -70 16c-29 11 -54 16 -75 16
s-45 -6 -72 -17s-49 -17 -66 -17c-51 0 -101 43 -150 130c-49 85 -74 169 -74 252c0 77 19 139 56 187c38 48 86 72 143 72c24 0 53 -5 88 -15s58 -15 69 -15zM589 790c0 -43 -18 -95 -61 -138c-18 -18 -36 -30 -54 -36c-11 -3 -29 -6 -52 -8c1 99 48 176 164 203
c3 -9 3 -16 3 -21z" />
    <glyph glyph-name="madslug" unicode="&#xf800;" horiz-adv-x="896" 
d="M650 51c-59 -37 -129 -60 -203 -60c-203 0 -367 165 -367 370c0 133 74 250 135 250c31 0 48 -19 48 -51c0 -56 -59 -281 -59 -295c0 -8 8 -11 17 -11c22 0 94 15 100 26c2 10 59 249 59 307c0 57 -52 82 -113 82c-7 0 -19 -2 -19 -2l-2 3c58 37 126 60 201 60
c205 0 369 -165 369 -370c0 -133 -74 -250 -135 -250c-31 0 -48 19 -48 51c0 56 59 281 59 294c0 9 -8 12 -17 12c-22 0 -94 -15 -100 -26c-2 -10 -59 -249 -59 -307c0 -57 52 -82 113 -82c7 0 19 1 19 1zM476 234c4 20 57 249 57 268c0 7 -6 9 -16 9c-20 0 -78 -9 -97 -24
c-4 -20 -57 -249 -57 -268c0 -7 6 -10 16 -10c20 0 78 10 97 25z" />
    <glyph glyph-name="space" unicode=" " horiz-adv-x="240" 
 />
    <glyph glyph-name="uni00A0" unicode="&#xa0;" horiz-adv-x="240" 
 />
    </font>
</defs>
</svg>
